<?xml version="1.0" encoding="UTF-8" standalone="no"?>
<!DOCTYPE svg PUBLIC "-//W3C//DTD SVG 1.1//EN"
 "http://www.w3.org/Graphics/SVG/1.1/DTD/svg11.dtd">
<!-- Generated by graphviz version 2.43.0 (0)
 -->
<!-- Title: Boot_Persistence Pages: 1 -->
<svg width="1217pt" height="52pt"
 viewBox="0.00 0.00 1216.81 52.00" xmlns="http://www.w3.org/2000/svg" xmlns:xlink="http://www.w3.org/1999/xlink">
<g id="graph0" class="graph" transform="scale(1 1) rotate(0) translate(4 48)">
<title>Boot_Persistence</title>
<polygon fill="white" stroke="transparent" points="-4,4 -4,-48 1212.81,-48 1212.81,4 -4,4"/>
<!-- Boot -->
<g id="node1" class="node">
<title>Boot</title>
<ellipse fill="lightgrey" stroke="black" cx="56.54" cy="-22" rx="56.59" ry="18"/>
<text text-anchor="middle" x="56.54" y="-18.3" font-family="Times,serif" font-size="14.00">System Boot</text>
</g>
<!-- Systemd -->
<g id="node2" class="node">
<title>Systemd</title>
<polygon fill="lightblue" stroke="black" points="266.09,-40 150.09,-40 150.09,-4 266.09,-4 266.09,-40"/>
<text text-anchor="middle" x="208.09" y="-18.3" font-family="Times,serif" font-size="14.00">Systemd Manager</text>
</g>
<!-- Boot&#45;&gt;Systemd -->
<g id="edge1" class="edge">
<title>Boot&#45;&gt;Systemd</title>
<path fill="none" stroke="black" d="M113.23,-22C121.82,-22 130.78,-22 139.6,-22"/>
<polygon fill="black" stroke="black" points="139.86,-25.5 149.86,-22 139.86,-18.5 139.86,-25.5"/>
</g>
<!-- Service -->
<g id="node3" class="node">
<title>Service</title>
<polygon fill="lightgreen" stroke="black" points="530.09,-40 393.09,-40 393.09,-4 530.09,-4 530.09,-40"/>
<text text-anchor="middle" x="461.59" y="-18.3" font-family="Times,serif" font-size="14.00">gpu&#45;eco&#45;mode.service</text>
</g>
<!-- Systemd&#45;&gt;Service -->
<g id="edge2" class="edge">
<title>Systemd&#45;&gt;Service</title>
<path fill="none" stroke="black" d="M266.16,-22C300.6,-22 344.96,-22 382.61,-22"/>
<polygon fill="black" stroke="black" points="383.04,-25.5 393.04,-22 383.04,-18.5 383.04,-25.5"/>
<text text-anchor="middle" x="329.59" y="-25.8" font-family="Times,serif" font-size="14.00">multi&#45;user.target</text>
</g>
<!-- Script -->
<g id="node4" class="node">
<title>Script</title>
<polygon fill="lightgreen" stroke="black" points="723.09,-40 567.09,-40 567.09,-4 723.09,-4 723.09,-40"/>
<text text-anchor="middle" x="645.09" y="-18.3" font-family="Times,serif" font-size="14.00">gpu_power_toggle.sh eco</text>
</g>
<!-- Service&#45;&gt;Script -->
<g id="edge3" class="edge">
<title>Service&#45;&gt;Script</title>
<path fill="none" stroke="black" d="M530.17,-22C538.89,-22 547.91,-22 556.88,-22"/>
<polygon fill="black" stroke="black" points="556.97,-25.5 566.97,-22 556.97,-18.5 556.97,-25.5"/>
</g>
<!-- Nvidia -->
<g id="node5" class="node">
<title>Nvidia</title>
<polygon fill="gold" stroke="black" points="978.09,-41 856.09,-41 856.09,-3 978.09,-3 978.09,-41"/>
<text text-anchor="middle" x="917.09" y="-25.8" font-family="Times,serif" font-size="14.00">NVIDIA Driver</text>
<text text-anchor="middle" x="917.09" y="-10.8" font-family="Times,serif" font-size="14.00">(Persistence Mode)</text>
</g>
<!-- Script&#45;&gt;Nvidia -->
<g id="edge4" class="edge">
<title>Script&#45;&gt;Nvidia</title>
<path fill="none" stroke="black" d="M723.1,-22C761.57,-22 807.79,-22 845.36,-22"/>
<polygon fill="black" stroke="black" points="845.71,-25.5 855.71,-22 845.71,-18.5 845.71,-25.5"/>
<text text-anchor="middle" x="789.59" y="-25.8" font-family="Times,serif" font-size="14.00">Set Clocks/Power</text>
</g>
<!-- State -->
<g id="node6" class="node">
<title>State</title>
<polygon fill="lightgreen" stroke="black" points="1204.68,-14.54 1204.68,-29.46 1150.36,-40 1073.54,-40 1019.22,-29.46 1019.22,-14.54 1073.54,-4 1150.36,-4 1204.68,-14.54"/>
<polygon fill="none" stroke="black" points="1208.67,-11.25 1208.67,-32.75 1150.74,-44 1073.16,-44 1015.23,-32.75 1015.23,-11.25 1073.16,0 1150.74,0 1208.67,-11.25"/>
<text text-anchor="middle" x="1111.95" y="-18.3" font-family="Times,serif" font-size="14.00">RTX 3080: 44W Idle</text>
</g>
<!-- Nvidia&#45;&gt;State -->
<g id="edge5" class="edge">
<title>Nvidia&#45;&gt;State</title>
<path fill="none" stroke="black" d="M978.32,-22C986.83,-22 995.78,-22 1004.85,-22"/>
<polygon fill="black" stroke="black" points="1005.12,-25.5 1015.12,-22 1005.12,-18.5 1005.12,-25.5"/>
</g>
</g>
</svg>
