<?xml version="1.0" encoding="UTF-8" standalone="no"?>
<!DOCTYPE svg PUBLIC "-//W3C//DTD SVG 1.1//EN"
 "http://www.w3.org/Graphics/SVG/1.1/DTD/svg11.dtd">
<!-- Generated by graphviz version 2.43.0 (0)
 -->
<!-- Title: Optimization_Logic Pages: 1 -->
<svg width="748pt" height="208pt"
 viewBox="0.00 0.00 748.18 208.00" xmlns="http://www.w3.org/2000/svg" xmlns:xlink="http://www.w3.org/1999/xlink">
<g id="graph0" class="graph" transform="scale(1 1) rotate(0) translate(4 204)">
<title>Optimization_Logic</title>
<polygon fill="white" stroke="transparent" points="-4,4 -4,-204 744.18,-204 744.18,4 -4,4"/>
<g id="clust1" class="cluster">
<title>cluster_eco</title>
<polygon fill="none" stroke="green" points="356.19,-99 356.19,-192 732.18,-192 732.18,-99 356.19,-99"/>
<text text-anchor="middle" x="544.18" y="-176.8" font-family="Times,serif" font-size="14.00">ECO Mode Path</text>
</g>
<g id="clust2" class="cluster">
<title>cluster_perf</title>
<polygon fill="none" stroke="red" points="370.19,-8 370.19,-91 731.47,-91 731.47,-8 370.19,-8"/>
<text text-anchor="middle" x="550.83" y="-75.8" font-family="Times,serif" font-size="14.00">PERF Mode Path</text>
</g>
<!-- Start -->
<g id="node1" class="node">
<title>Start</title>
<ellipse fill="lightgrey" stroke="black" cx="67.59" cy="-87" rx="67.69" ry="18"/>
<text text-anchor="middle" x="67.59" y="-83.3" font-family="Times,serif" font-size="14.00">User Command</text>
</g>
<!-- Script -->
<g id="node2" class="node">
<title>Script</title>
<polygon fill="lightblue" stroke="black" points="306.19,-105 172.19,-105 172.19,-69 306.19,-69 306.19,-105"/>
<text text-anchor="middle" x="239.19" y="-83.3" font-family="Times,serif" font-size="14.00">gpu_power_toggle.sh</text>
</g>
<!-- Start&#45;&gt;Script -->
<g id="edge1" class="edge">
<title>Start&#45;&gt;Script</title>
<path fill="none" stroke="black" d="M135.62,-87C144.21,-87 153.05,-87 161.77,-87"/>
<polygon fill="black" stroke="black" points="161.92,-90.5 171.92,-87 161.92,-83.5 161.92,-90.5"/>
</g>
<!-- Eco_Settings -->
<g id="node3" class="node">
<title>Eco_Settings</title>
<polygon fill="lightgreen" stroke="black" points="520.19,-160.5 364.19,-160.5 364.19,-107.5 520.19,-107.5 520.19,-160.5"/>
<text text-anchor="middle" x="442.19" y="-145.3" font-family="Times,serif" font-size="14.00">Lock Memory: 405 MHz</text>
<text text-anchor="middle" x="442.19" y="-130.3" font-family="Times,serif" font-size="14.00">Lock Core: 210 MHz</text>
<text text-anchor="middle" x="442.19" y="-115.3" font-family="Times,serif" font-size="14.00">Limit TDP: 200W</text>
</g>
<!-- Script&#45;&gt;Eco_Settings -->
<g id="edge2" class="edge">
<title>Script&#45;&gt;Eco_Settings</title>
<path fill="none" stroke="black" d="M306.28,-102.45C321.54,-106.02 338,-109.87 354,-113.61"/>
<polygon fill="black" stroke="black" points="353.35,-117.06 363.88,-115.92 354.94,-110.24 353.35,-117.06"/>
<text text-anchor="middle" x="335.19" y="-113.8" font-family="Times,serif" font-size="14.00">eco</text>
</g>
<!-- Perf_Settings -->
<g id="node5" class="node">
<title>Perf_Settings</title>
<polygon fill="lightpink" stroke="black" points="506.19,-59 378.19,-59 378.19,-21 506.19,-21 506.19,-59"/>
<text text-anchor="middle" x="442.19" y="-43.8" font-family="Times,serif" font-size="14.00">Reset Clocks (Auto)</text>
<text text-anchor="middle" x="442.19" y="-28.8" font-family="Times,serif" font-size="14.00">Restore TDP: 340W</text>
</g>
<!-- Script&#45;&gt;Perf_Settings -->
<g id="edge3" class="edge">
<title>Script&#45;&gt;Perf_Settings</title>
<path fill="none" stroke="black" d="M306.28,-71.55C326.14,-66.9 348.05,-61.78 368.32,-57.04"/>
<polygon fill="black" stroke="black" points="369.19,-60.43 378.13,-54.75 367.59,-53.61 369.19,-60.43"/>
<text text-anchor="middle" x="335.19" y="-69.8" font-family="Times,serif" font-size="14.00">perf</text>
</g>
<!-- Eco_Result -->
<g id="node4" class="node">
<title>Eco_Result</title>
<polygon fill="lightgreen" stroke="black" points="720.17,-126.54 720.17,-141.46 673.61,-152 607.76,-152 561.19,-141.46 561.19,-126.54 607.76,-116 673.61,-116 720.17,-126.54"/>
<polygon fill="none" stroke="black" points="724.17,-123.35 724.17,-144.65 674.06,-156 607.31,-156 557.19,-144.65 557.19,-123.35 607.31,-112 674.06,-112 724.17,-123.35"/>
<text text-anchor="middle" x="640.68" y="-130.3" font-family="Times,serif" font-size="14.00">~44W Idle Power</text>
</g>
<!-- Eco_Settings&#45;&gt;Eco_Result -->
<g id="edge4" class="edge">
<title>Eco_Settings&#45;&gt;Eco_Result</title>
<path fill="none" stroke="black" d="M520.28,-134C529.03,-134 538.02,-134 546.94,-134"/>
<polygon fill="black" stroke="black" points="546.97,-137.5 556.97,-134 546.97,-130.5 546.97,-137.5"/>
</g>
<!-- Perf_Result -->
<g id="node6" class="node">
<title>Perf_Result</title>
<polygon fill="lightpink" stroke="black" points="719.28,-30.54 719.28,-45.46 673.24,-56 608.13,-56 562.09,-45.46 562.09,-30.54 608.13,-20 673.24,-20 719.28,-30.54"/>
<polygon fill="none" stroke="black" points="723.27,-27.35 723.27,-48.65 673.69,-60 607.68,-60 558.1,-48.65 558.1,-27.35 607.68,-16 673.69,-16 723.27,-27.35"/>
<text text-anchor="middle" x="640.68" y="-34.3" font-family="Times,serif" font-size="14.00">Full Performance</text>
</g>
<!-- Perf_Settings&#45;&gt;Perf_Result -->
<g id="edge5" class="edge">
<title>Perf_Settings&#45;&gt;Perf_Result</title>
<path fill="none" stroke="black" d="M506.44,-39.36C519.62,-39.22 533.77,-39.08 547.75,-38.94"/>
<polygon fill="black" stroke="black" points="547.91,-42.43 557.88,-38.83 547.84,-35.43 547.91,-42.43"/>
</g>
</g>
</svg>
