<?xml version="1.0" encoding="UTF-8" standalone="no"?>
<!DOCTYPE svg PUBLIC "-//W3C//DTD SVG 1.1//EN"
 "http://www.w3.org/Graphics/SVG/1.1/DTD/svg11.dtd">
<!-- Generated by graphviz version 2.43.0 (0)
 -->
<!-- Title: Ampere_Cluster Pages: 1 -->
<svg width="386pt" height="220pt"
 viewBox="0.00 0.00 386.00 220.17" xmlns="http://www.w3.org/2000/svg" xmlns:xlink="http://www.w3.org/1999/xlink">
<g id="graph0" class="graph" transform="scale(1 1) rotate(0) translate(4 216.17)">
<title>Ampere_Cluster</title>
<polygon fill="white" stroke="transparent" points="-4,4 -4,-216.17 382,-216.17 382,4 -4,4"/>
<!-- GPU_1 -->
<g id="node1" class="node">
<title>GPU_1</title>
<polygon fill="lightgrey" stroke="black" points="81,-38 0,-38 0,-34 -4,-34 -4,-30 0,-30 0,-8 -4,-8 -4,-4 0,-4 0,0 81,0 81,-38"/>
<polyline fill="none" stroke="black" points="0,-34 4,-34 4,-30 0,-30 "/>
<polyline fill="none" stroke="black" points="0,-8 4,-8 4,-4 0,-4 "/>
<text text-anchor="middle" x="40.5" y="-22.8" font-family="Times,serif" font-size="14.00">RTX 3080</text>
<text text-anchor="middle" x="40.5" y="-7.8" font-family="Times,serif" font-size="14.00">(Asus TUF)</text>
</g>
<!-- PCIe -->
<g id="node5" class="node">
<title>PCIe</title>
<path fill="lightblue" stroke="black" d="M246.5,-106.73C246.5,-108.53 220.5,-110 188.5,-110 156.5,-110 130.5,-108.53 130.5,-106.73 130.5,-106.73 130.5,-77.27 130.5,-77.27 130.5,-75.47 156.5,-74 188.5,-74 220.5,-74 246.5,-75.47 246.5,-77.27 246.5,-77.27 246.5,-106.73 246.5,-106.73"/>
<path fill="none" stroke="black" d="M246.5,-106.73C246.5,-104.92 220.5,-103.45 188.5,-103.45 156.5,-103.45 130.5,-104.92 130.5,-106.73"/>
<text text-anchor="middle" x="188.5" y="-88.3" font-family="Times,serif" font-size="14.00">PCIe Gen 4.0 Bus</text>
</g>
<!-- GPU_1&#45;&gt;PCIe -->
<g id="edge1" class="edge">
<title>GPU_1&#45;&gt;PCIe</title>
<path fill="none" stroke="black" d="M78.23,-38.1C98.37,-47.76 123.28,-59.71 144.32,-69.81"/>
<polygon fill="black" stroke="black" points="142.85,-72.98 153.38,-74.15 145.88,-66.67 142.85,-72.98"/>
</g>
<!-- GPU_2 -->
<g id="node2" class="node">
<title>GPU_2</title>
<polygon fill="lightgrey" stroke="black" points="180,-38 99,-38 99,-34 95,-34 95,-30 99,-30 99,-8 95,-8 95,-4 99,-4 99,0 180,0 180,-38"/>
<polyline fill="none" stroke="black" points="99,-34 103,-34 103,-30 99,-30 "/>
<polyline fill="none" stroke="black" points="99,-8 103,-8 103,-4 99,-4 "/>
<text text-anchor="middle" x="139.5" y="-22.8" font-family="Times,serif" font-size="14.00">RTX 3080</text>
<text text-anchor="middle" x="139.5" y="-7.8" font-family="Times,serif" font-size="14.00">(Asus TUF)</text>
</g>
<!-- GPU_2&#45;&gt;PCIe -->
<g id="edge2" class="edge">
<title>GPU_2&#45;&gt;PCIe</title>
<path fill="none" stroke="black" d="M152.12,-38.28C157.88,-46.63 164.79,-56.65 171.04,-65.7"/>
<polygon fill="black" stroke="black" points="168.2,-67.75 176.77,-74 173.97,-63.78 168.2,-67.75"/>
</g>
<!-- GPU_3 -->
<g id="node3" class="node">
<title>GPU_3</title>
<polygon fill="lightgrey" stroke="black" points="279,-38 198,-38 198,-34 194,-34 194,-30 198,-30 198,-8 194,-8 194,-4 198,-4 198,0 279,0 279,-38"/>
<polyline fill="none" stroke="black" points="198,-34 202,-34 202,-30 198,-30 "/>
<polyline fill="none" stroke="black" points="198,-8 202,-8 202,-4 198,-4 "/>
<text text-anchor="middle" x="238.5" y="-22.8" font-family="Times,serif" font-size="14.00">RTX 3080</text>
<text text-anchor="middle" x="238.5" y="-7.8" font-family="Times,serif" font-size="14.00">(Asus TUF)</text>
</g>
<!-- GPU_3&#45;&gt;PCIe -->
<g id="edge3" class="edge">
<title>GPU_3&#45;&gt;PCIe</title>
<path fill="none" stroke="black" d="M225.62,-38.28C219.75,-46.63 212.69,-56.65 206.32,-65.7"/>
<polygon fill="black" stroke="black" points="203.37,-63.81 200.47,-74 209.09,-67.84 203.37,-63.81"/>
</g>
<!-- GPU_4 -->
<g id="node4" class="node">
<title>GPU_4</title>
<polygon fill="lightgrey" stroke="black" points="378,-38 297,-38 297,-34 293,-34 293,-30 297,-30 297,-8 293,-8 293,-4 297,-4 297,0 378,0 378,-38"/>
<polyline fill="none" stroke="black" points="297,-34 301,-34 301,-30 297,-30 "/>
<polyline fill="none" stroke="black" points="297,-8 301,-8 301,-4 297,-4 "/>
<text text-anchor="middle" x="337.5" y="-22.8" font-family="Times,serif" font-size="14.00">RTX 3080</text>
<text text-anchor="middle" x="337.5" y="-7.8" font-family="Times,serif" font-size="14.00">(Asus TUF)</text>
</g>
<!-- GPU_4&#45;&gt;PCIe -->
<g id="edge4" class="edge">
<title>GPU_4&#45;&gt;PCIe</title>
<path fill="none" stroke="black" d="M299.52,-38.1C279.24,-47.76 254.16,-59.71 232.98,-69.81"/>
<polygon fill="black" stroke="black" points="231.38,-66.69 223.86,-74.15 234.39,-73.01 231.38,-66.69"/>
</g>
<!-- Workload -->
<g id="node6" class="node">
<title>Workload</title>
<polygon fill="lightgreen" stroke="black" points="304.68,-167.01 304.68,-191.16 236.62,-208.24 140.38,-208.24 72.32,-191.16 72.32,-167.01 140.38,-149.93 236.62,-149.93 304.68,-167.01"/>
<polygon fill="none" stroke="black" points="308.67,-163.88 308.67,-194.29 237.11,-212.25 139.89,-212.25 68.33,-194.29 68.33,-163.88 139.89,-145.92 237.11,-145.92 308.67,-163.88"/>
<text text-anchor="middle" x="188.5" y="-182.88" font-family="Times,serif" font-size="14.00">Vision Workload</text>
<text text-anchor="middle" x="188.5" y="-167.88" font-family="Times,serif" font-size="14.00">(YOLOv5 / NeRF / ViT)</text>
</g>
<!-- PCIe&#45;&gt;Workload -->
<g id="edge5" class="edge">
<title>PCIe&#45;&gt;Workload</title>
<path fill="none" stroke="black" d="M188.5,-110.22C188.5,-117.63 188.5,-126.65 188.5,-135.66"/>
<polygon fill="black" stroke="black" points="185,-135.75 188.5,-145.75 192,-135.75 185,-135.75"/>
</g>
</g>
</svg>
