<?xml version="1.0" encoding="UTF-8" standalone="no"?>
<!DOCTYPE svg PUBLIC "-//W3C//DTD SVG 1.1//EN"
 "http://www.w3.org/Graphics/SVG/1.1/DTD/svg11.dtd">
<!-- Generated by graphviz version 2.43.0 (0)
 -->
<!-- Title: GDDR6X_Signaling Pages: 1 -->
<svg width="432pt" height="180pt"
 viewBox="0.00 0.00 432.00 180.00" xmlns="http://www.w3.org/2000/svg" xmlns:xlink="http://www.w3.org/1999/xlink">
<g id="graph0" class="graph" transform="scale(1 1) rotate(0) translate(4 176)">
<title>GDDR6X_Signaling</title>
<polygon fill="white" stroke="transparent" points="-4,4 -4,-176 428,-176 428,4 -4,4"/>
<!-- GDDR6 -->
<g id="node1" class="node">
<title>GDDR6</title>
<polygon fill="lightgrey" stroke="black" points="0,-102.5 0,-171.5 190,-171.5 190,-102.5 0,-102.5"/>
<text text-anchor="middle" x="95" y="-156.3" font-family="Times,serif" font-size="14.00">GDDR6 (NRZ)</text>
<polyline fill="none" stroke="black" points="0,-148.5 190,-148.5 "/>
<text text-anchor="middle" x="54.5" y="-133.3" font-family="Times,serif" font-size="14.00">Binary Signaling</text>
<polyline fill="none" stroke="black" points="109,-125.5 109,-148.5 "/>
<text text-anchor="middle" x="149.5" y="-133.3" font-family="Times,serif" font-size="14.00">1 bit / cycle</text>
<polyline fill="none" stroke="black" points="0,-125.5 190,-125.5 "/>
<text text-anchor="middle" x="47.5" y="-110.3" font-family="Times,serif" font-size="14.00">0</text>
<polyline fill="none" stroke="black" points="95,-102.5 95,-125.5 "/>
<text text-anchor="middle" x="142.5" y="-110.3" font-family="Times,serif" font-size="14.00">1</text>
</g>
<!-- Data_Stream -->
<g id="node3" class="node">
<title>Data_Stream</title>
<polygon fill="none" stroke="black" points="222.74,-36 57.71,-36 15.26,0 180.29,0 222.74,-36"/>
<text text-anchor="middle" x="119" y="-14.3" font-family="Times,serif" font-size="14.00">Data Throughput</text>
</g>
<!-- GDDR6&#45;&gt;Data_Stream -->
<g id="edge1" class="edge">
<title>GDDR6&#45;&gt;Data_Stream</title>
<path fill="none" stroke="black" d="M101.88,-102.47C105.51,-84.75 109.92,-63.26 113.35,-46.52"/>
<polygon fill="black" stroke="black" points="116.87,-46.79 115.45,-36.3 110.01,-45.39 116.87,-46.79"/>
<text text-anchor="middle" x="119" y="-65.3" font-family="Times,serif" font-size="14.00">x1</text>
</g>
<!-- GDDR6X -->
<g id="node2" class="node">
<title>GDDR6X</title>
<polygon fill="gold" stroke="black" points="208,-102.5 208,-171.5 420,-171.5 420,-102.5 208,-102.5"/>
<text text-anchor="middle" x="314" y="-156.3" font-family="Times,serif" font-size="14.00">GDDR6X (PAM4)</text>
<polyline fill="none" stroke="black" points="208,-148.5 420,-148.5 "/>
<text text-anchor="middle" x="271" y="-133.3" font-family="Times,serif" font-size="14.00">4&#45;Level Modulation</text>
<polyline fill="none" stroke="black" points="334,-125.5 334,-148.5 "/>
<text text-anchor="middle" x="377" y="-133.3" font-family="Times,serif" font-size="14.00">2 bits / cycle</text>
<polyline fill="none" stroke="black" points="208,-125.5 420,-125.5 "/>
<text text-anchor="middle" x="234.5" y="-110.3" font-family="Times,serif" font-size="14.00">00</text>
<polyline fill="none" stroke="black" points="261,-102.5 261,-125.5 "/>
<text text-anchor="middle" x="287.5" y="-110.3" font-family="Times,serif" font-size="14.00">01</text>
<polyline fill="none" stroke="black" points="314,-102.5 314,-125.5 "/>
<text text-anchor="middle" x="340.5" y="-110.3" font-family="Times,serif" font-size="14.00">10</text>
<polyline fill="none" stroke="black" points="367,-102.5 367,-125.5 "/>
<text text-anchor="middle" x="393.5" y="-110.3" font-family="Times,serif" font-size="14.00">11</text>
</g>
<!-- GDDR6X&#45;&gt;Data_Stream -->
<g id="edge2" class="edge">
<title>GDDR6X&#45;&gt;Data_Stream</title>
<path fill="none" stroke="black" d="M258.12,-102.47C225.52,-82.91 185.28,-58.77 156.48,-41.49"/>
<polygon fill="black" stroke="black" points="157.93,-38.28 147.55,-36.13 154.33,-44.28 157.93,-38.28"/>
<text text-anchor="middle" x="230" y="-65.3" font-family="Times,serif" font-size="14.00">x2</text>
</g>
<!-- Power_Cost -->
<g id="node4" class="node">
<title>Power_Cost</title>
<polygon fill="none" stroke="black" points="358.5,-36 263.5,-36 263.5,0 364.5,0 364.5,-30 358.5,-36"/>
<polyline fill="none" stroke="black" points="358.5,-36 358.5,-30 "/>
<polyline fill="none" stroke="black" points="364.5,-30 358.5,-30 "/>
<text text-anchor="middle" x="314" y="-14.3" font-family="Times,serif" font-size="14.00">Power Baseline</text>
</g>
<!-- GDDR6X&#45;&gt;Power_Cost -->
<g id="edge3" class="edge">
<title>GDDR6X&#45;&gt;Power_Cost</title>
<path fill="none" stroke="black" d="M314,-102.47C314,-84.75 314,-63.26 314,-46.52"/>
<polygon fill="black" stroke="black" points="317.5,-46.3 314,-36.3 310.5,-46.3 317.5,-46.3"/>
<text text-anchor="middle" x="369" y="-72.8" font-family="Times,serif" font-size="14.00">High precision</text>
<text text-anchor="middle" x="369" y="-57.8" font-family="Times,serif" font-size="14.00">voltage requirement</text>
</g>
</g>
</svg>
