<?xml version="1.0" encoding="UTF-8" standalone="no"?>
<!DOCTYPE svg PUBLIC "-//W3C//DTD SVG 1.1//EN"
 "http://www.w3.org/Graphics/SVG/1.1/DTD/svg11.dtd">
<!-- Generated by graphviz version 2.43.0 (0)
 -->
<!-- Title: GPU_Power_Dynamics Pages: 1 -->
<svg width="702pt" height="240pt"
 viewBox="0.00 0.00 702.07 240.00" xmlns="http://www.w3.org/2000/svg" xmlns:xlink="http://www.w3.org/1999/xlink">
<g id="graph0" class="graph" transform="scale(1 1) rotate(0) translate(4 236)">
<title>GPU_Power_Dynamics</title>
<polygon fill="white" stroke="transparent" points="-4,4 -4,-236 698.07,-236 698.07,4 -4,4"/>
<g id="clust1" class="cluster">
<title>cluster_0</title>
<polygon fill="none" stroke="black" points="25.63,-8 25.63,-139 159.63,-139 159.63,-8 25.63,-8"/>
<text text-anchor="middle" x="92.63" y="-123.8" font-family="Times,serif" font-size="14.00">Idle State (Ideal)</text>
</g>
<g id="clust2" class="cluster">
<title>cluster_1</title>
<polygon fill="none" stroke="black" points="343.67,-147 343.67,-224 686.07,-224 686.07,-147 343.67,-147"/>
<text text-anchor="middle" x="514.87" y="-208.8" font-family="Times,serif" font-size="14.00">Current State (Observed)</text>
</g>
<!-- P8_P12 -->
<g id="node1" class="node">
<title>P8_P12</title>
<polygon fill="lightgreen" stroke="lightblue" points="139.63,-108 45.63,-108 45.63,-70 139.63,-70 139.63,-108"/>
<text text-anchor="middle" x="92.63" y="-92.8" font-family="Times,serif" font-size="14.00">P8 / P12 State</text>
<text text-anchor="middle" x="92.63" y="-77.8" font-family="Times,serif" font-size="14.00">&lt; 30W</text>
</g>
<!-- Memory_Low -->
<g id="node2" class="node">
<title>Memory_Low</title>
<polygon fill="lightgreen" stroke="lightblue" points="151.63,-52 33.63,-52 33.63,-16 151.63,-16 151.63,-52"/>
<text text-anchor="middle" x="92.63" y="-30.3" font-family="Times,serif" font-size="14.00">VRAM: 405 MHz</text>
</g>
<!-- P2_State -->
<g id="node3" class="node">
<title>P2_State</title>
<polygon fill="orange" stroke="lightblue" points="678.07,-193 616.07,-193 616.07,-155 678.07,-155 678.07,-193"/>
<text text-anchor="middle" x="647.07" y="-177.8" font-family="Times,serif" font-size="14.00">P2 State</text>
<text text-anchor="middle" x="647.07" y="-162.8" font-family="Times,serif" font-size="14.00">~117W</text>
</g>
<!-- Memory_High -->
<g id="node4" class="node">
<title>Memory_High</title>
<polygon fill="orange" stroke="lightblue" points="476.67,-193 351.67,-193 351.67,-155 476.67,-155 476.67,-193"/>
<text text-anchor="middle" x="414.17" y="-177.8" font-family="Times,serif" font-size="14.00">VRAM: 9251 MHz</text>
<text text-anchor="middle" x="414.17" y="-162.8" font-family="Times,serif" font-size="14.00">(GDDR6X)</text>
</g>
<!-- Memory_High&#45;&gt;P2_State -->
<g id="edge3" class="edge">
<title>Memory_High&#45;&gt;P2_State</title>
<path fill="none" stroke="black" d="M476.74,-174C517.72,-174 570.37,-174 606,-174"/>
<polygon fill="black" stroke="black" points="606.02,-177.5 616.02,-174 606.02,-170.5 606.02,-177.5"/>
<text text-anchor="middle" x="555.07" y="-177.8" font-family="Times,serif" font-size="14.00">High Idle Draw</text>
</g>
<!-- Trigger_1 -->
<g id="node5" class="node">
<title>Trigger_1</title>
<ellipse fill="red" stroke="red" cx="414.17" cy="-110" rx="79.81" ry="26.74"/>
<text text-anchor="middle" x="414.17" y="-113.8" font-family="Times,serif" font-size="14.00">Compute Context</text>
<text text-anchor="middle" x="414.17" y="-98.8" font-family="Times,serif" font-size="14.00">(Ollama)</text>
</g>
<!-- Trigger_1&#45;&gt;P2_State -->
<g id="edge1" class="edge">
<title>Trigger_1&#45;&gt;P2_State</title>
<path fill="none" stroke="black" d="M482.23,-124.2C517.1,-132.16 560.22,-142.91 598.07,-155 600.79,-155.87 603.58,-156.82 606.37,-157.81"/>
<polygon fill="black" stroke="black" points="605.23,-161.12 615.82,-161.31 607.66,-154.55 605.23,-161.12"/>
<text text-anchor="middle" x="555.07" y="-158.8" font-family="Times,serif" font-size="14.00">Locks State</text>
</g>
<!-- Trigger_2 -->
<g id="node6" class="node">
<title>Trigger_2</title>
<ellipse fill="red" stroke="red" cx="92.63" cy="-174" rx="92.76" ry="26.74"/>
<text text-anchor="middle" x="92.63" y="-177.8" font-family="Times,serif" font-size="14.00">Multi&#45;Monitor Setup</text>
<text text-anchor="middle" x="92.63" y="-162.8" font-family="Times,serif" font-size="14.00">(Async Timings)</text>
</g>
<!-- Trigger_2&#45;&gt;Memory_High -->
<g id="edge2" class="edge">
<title>Trigger_2&#45;&gt;Memory_High</title>
<path fill="none" stroke="black" d="M185.62,-174C235.16,-174 295.37,-174 341.4,-174"/>
<polygon fill="black" stroke="black" points="341.59,-177.5 351.59,-174 341.59,-170.5 341.59,-177.5"/>
<text text-anchor="middle" x="259.76" y="-177.8" font-family="Times,serif" font-size="14.00">Prevents Downclock</text>
</g>
</g>
</svg>
