<?xml version="1.0" encoding="UTF-8" standalone="no"?>
<!DOCTYPE svg PUBLIC "-//W3C//DTD SVG 1.1//EN"
 "http://www.w3.org/Graphics/SVG/1.1/DTD/svg11.dtd">
<!-- Generated by graphviz version 2.43.0 (0)
 -->
<!-- Title: Memory_Wall Pages: 1 -->
<svg width="858pt" height="117pt"
 viewBox="0.00 0.00 858.44 117.00" xmlns="http://www.w3.org/2000/svg" xmlns:xlink="http://www.w3.org/1999/xlink">
<g id="graph0" class="graph" transform="scale(1 1) rotate(0) translate(4 113)">
<title>Memory_Wall</title>
<polygon fill="white" stroke="transparent" points="-4,4 -4,-113 854.44,-113 854.44,4 -4,4"/>
<g id="clust1" class="cluster">
<title>cluster_bottleneck</title>
<polygon fill="none" stroke="grey" points="385.97,-8 385.97,-101 842.44,-101 842.44,-8 385.97,-8"/>
<text text-anchor="middle" x="614.21" y="-85.8" font-family="Times,serif" font-size="14.00">AI Performance Scaling</text>
</g>
<!-- CPU -->
<g id="node1" class="node">
<title>CPU</title>
<ellipse fill="white" stroke="black" cx="77.34" cy="-43" rx="77.19" ry="18"/>
<text text-anchor="middle" x="77.34" y="-39.3" font-family="Times,serif" font-size="14.00">CPU / Main RAM</text>
</g>
<!-- PCIe -->
<g id="node2" class="node">
<title>PCIe</title>
<polygon fill="lightblue" stroke="black" points="274.33,-61 190.54,-43 274.33,-25 358.12,-43 274.33,-61"/>
<text text-anchor="middle" x="274.33" y="-39.3" font-family="Times,serif" font-size="14.00">PCIe Gen 4.0</text>
</g>
<!-- CPU&#45;&gt;PCIe -->
<g id="edge1" class="edge">
<title>CPU&#45;&gt;PCIe</title>
<path fill="none" stroke="black" d="M154.85,-43C163.28,-43 171.94,-43 180.54,-43"/>
<polygon fill="black" stroke="black" points="180.61,-46.5 190.61,-43 180.61,-39.5 180.61,-46.5"/>
</g>
<!-- GDDR6X -->
<g id="node3" class="node">
<title>GDDR6X</title>
<ellipse fill="gold" stroke="black" cx="499.33" cy="-43" rx="105.22" ry="26.74"/>
<text text-anchor="middle" x="499.33" y="-46.8" font-family="Times,serif" font-size="14.00">GDDR6X VRAM</text>
<text text-anchor="middle" x="499.33" y="-31.8" font-family="Times,serif" font-size="14.00">(Bandwidth &gt; 760GB/s)</text>
</g>
<!-- PCIe&#45;&gt;GDDR6X -->
<g id="edge2" class="edge">
<title>PCIe&#45;&gt;GDDR6X</title>
<path fill="none" stroke="black" d="M358.05,-43C366.43,-43 375.03,-43 383.66,-43"/>
<polygon fill="black" stroke="black" points="383.8,-46.5 393.8,-43 383.8,-39.5 383.8,-46.5"/>
</g>
<!-- TensorCores -->
<g id="node4" class="node">
<title>TensorCores</title>
<ellipse fill="orange" stroke="black" cx="737.56" cy="-43" rx="96.75" ry="26.74"/>
<text text-anchor="middle" x="737.56" y="-46.8" font-family="Times,serif" font-size="14.00">3rd Gen Tensor Cores</text>
<text text-anchor="middle" x="737.56" y="-31.8" font-family="Times,serif" font-size="14.00">(Ampere)</text>
</g>
<!-- GDDR6X&#45;&gt;TensorCores -->
<g id="edge3" class="edge">
<title>GDDR6X&#45;&gt;TensorCores</title>
<path fill="none" stroke="black" d="M604.98,-43C613.4,-43 621.92,-43 630.35,-43"/>
<polygon fill="black" stroke="black" points="630.59,-46.5 640.59,-43 630.59,-39.5 630.59,-46.5"/>
</g>
</g>
</svg>
