<?xml version="1.0" encoding="UTF-8" standalone="no"?>
<!DOCTYPE svg PUBLIC "-//W3C//DTD SVG 1.1//EN"
 "http://www.w3.org/Graphics/SVG/1.1/DTD/svg11.dtd">
<!-- Generated by graphviz version 2.43.0 (0)
 -->
<!-- Title: Multi_Monitor_Sync Pages: 1 -->
<svg width="520pt" height="192pt"
 viewBox="0.00 0.00 519.50 192.00" xmlns="http://www.w3.org/2000/svg" xmlns:xlink="http://www.w3.org/1999/xlink">
<g id="graph0" class="graph" transform="scale(1 1) rotate(0) translate(4 188)">
<title>Multi_Monitor_Sync</title>
<polygon fill="white" stroke="transparent" points="-4,4 -4,-188 515.5,-188 515.5,4 -4,4"/>
<!-- Clock -->
<g id="node1" class="node">
<title>Clock</title>
<text text-anchor="middle" x="197" y="-162.3" font-family="Times,serif" font-size="14.00">GPU Memory Clock</text>
</g>
<!-- Sync -->
<g id="node5" class="node">
<title>Sync</title>
<polygon fill="none" stroke="black" points="272.5,-112 121.5,-112 121.5,-74 272.5,-74 272.5,-112"/>
<text text-anchor="middle" x="197" y="-96.8" font-family="Times,serif" font-size="14.00">Horizontal/Vertical Sync</text>
<text text-anchor="middle" x="197" y="-81.8" font-family="Times,serif" font-size="14.00">(Mismatched Intervals)</text>
</g>
<!-- Clock&#45;&gt;Sync -->
<g id="edge1" class="edge">
<title>Clock&#45;&gt;Sync</title>
<path fill="none" stroke="black" d="M197,-147.81C197,-140.11 197,-130.82 197,-122.15"/>
<polygon fill="black" stroke="black" points="200.5,-122.02 197,-112.02 193.5,-122.02 200.5,-122.02"/>
</g>
<!-- Monitor1 -->
<g id="node2" class="node">
<title>Monitor1</title>
<polygon fill="none" stroke="black" points="86,-38 0,-38 0,0 86,0 86,-38"/>
<text text-anchor="middle" x="43" y="-22.8" font-family="Times,serif" font-size="14.00">Monitor 1</text>
<text text-anchor="middle" x="43" y="-7.8" font-family="Times,serif" font-size="14.00">(1680x1050)</text>
</g>
<!-- Monitor2 -->
<g id="node3" class="node">
<title>Monitor2</title>
<polygon fill="none" stroke="black" points="190,-38 104,-38 104,0 190,0 190,-38"/>
<text text-anchor="middle" x="147" y="-22.8" font-family="Times,serif" font-size="14.00">Monitor 2</text>
<text text-anchor="middle" x="147" y="-7.8" font-family="Times,serif" font-size="14.00">(2560x1080)</text>
</g>
<!-- Monitor3 -->
<g id="node4" class="node">
<title>Monitor3</title>
<polygon fill="none" stroke="black" points="288,-38 208,-38 208,0 288,0 288,-38"/>
<text text-anchor="middle" x="248" y="-22.8" font-family="Times,serif" font-size="14.00">Monitor 3</text>
<text text-anchor="middle" x="248" y="-7.8" font-family="Times,serif" font-size="14.00">(1440x900)</text>
</g>
<!-- Sync&#45;&gt;Monitor1 -->
<g id="edge2" class="edge">
<title>Sync&#45;&gt;Monitor1</title>
<path fill="none" stroke="black" d="M158.14,-73.83C137.73,-64.29 112.53,-52.51 90.91,-42.4"/>
<polygon fill="black" stroke="black" points="92.12,-39.1 81.58,-38.04 89.16,-45.44 92.12,-39.1"/>
</g>
<!-- Sync&#45;&gt;Monitor2 -->
<g id="edge3" class="edge">
<title>Sync&#45;&gt;Monitor2</title>
<path fill="none" stroke="black" d="M184.38,-73.83C178.68,-65.62 171.83,-55.76 165.56,-46.73"/>
<polygon fill="black" stroke="black" points="168.37,-44.63 159.79,-38.41 162.62,-48.62 168.37,-44.63"/>
</g>
<!-- Sync&#45;&gt;Monitor3 -->
<g id="edge4" class="edge">
<title>Sync&#45;&gt;Monitor3</title>
<path fill="none" stroke="black" d="M209.87,-73.83C215.68,-65.62 222.67,-55.76 229.06,-46.73"/>
<polygon fill="black" stroke="black" points="232.03,-48.6 234.96,-38.41 226.32,-44.55 232.03,-48.6"/>
</g>
<!-- Impact -->
<g id="node6" class="node">
<title>Impact</title>
<polygon fill="none" stroke="red" points="511.5,-38 306.5,-38 306.5,0 511.5,0 511.5,-38"/>
<text text-anchor="middle" x="409" y="-22.8" font-family="Times,serif" font-size="14.00" fill="red">RESULT: Locked Max Frequency</text>
<text text-anchor="middle" x="409" y="-7.8" font-family="Times,serif" font-size="14.00" fill="red">to prevent flickering</text>
</g>
<!-- Sync&#45;&gt;Impact -->
<g id="edge5" class="edge">
<title>Sync&#45;&gt;Impact</title>
<path fill="none" stroke="black" d="M250.22,-73.92C279.33,-64.04 315.57,-51.73 346.07,-41.37"/>
<polygon fill="black" stroke="black" points="347.41,-44.61 355.76,-38.08 345.16,-37.98 347.41,-44.61"/>
</g>
</g>
</svg>
