<?xml version="1.0" encoding="UTF-8" standalone="no"?>
<!DOCTYPE svg PUBLIC "-//W3C//DTD SVG 1.1//EN"
 "http://www.w3.org/Graphics/SVG/1.1/DTD/svg11.dtd">
<!-- Generated by graphviz version 2.43.0 (0)
 -->
<!-- Title: G Pages: 1 -->
<svg width="1160pt" height="241pt"
 viewBox="0.00 0.00 1160.00 241.00" xmlns="http://www.w3.org/2000/svg" xmlns:xlink="http://www.w3.org/1999/xlink">
<g id="graph0" class="graph" transform="scale(1 1) rotate(0) translate(4 237)">
<title>G</title>
<polygon fill="white" stroke="transparent" points="-4,4 -4,-237 1156,-237 1156,4 -4,4"/>
<g id="clust1" class="cluster">
<title>cluster_cpu</title>
<polygon fill="none" stroke="blue" points="0,-8 0,-225 209,-225 209,-8 0,-8"/>
<text text-anchor="middle" x="104.5" y="-209.8" font-family="Times,serif" font-size="14.00">AMD Ryzen 9 5950X (Dual CCD)</text>
</g>
<g id="clust2" class="cluster">
<title>cluster_mem</title>
<polygon fill="none" stroke="green" points="350,-69 350,-146 654,-146 654,-69 350,-69"/>
<text text-anchor="middle" x="502" y="-130.8" font-family="Times,serif" font-size="14.00">System RAM (128GB DDR4)</text>
</g>
<g id="clust3" class="cluster">
<title>cluster_gpu</title>
<polygon fill="none" stroke="orange" points="717,-69 717,-146 1144,-146 1144,-69 717,-69"/>
<text text-anchor="middle" x="930.5" y="-130.8" font-family="Times,serif" font-size="14.00">Multi&#45;GPU Fabric</text>
</g>
<!-- CCD0 -->
<g id="node1" class="node">
<title>CCD0</title>
<polygon fill="lightblue" stroke="black" points="35,-114 35,-160 173,-160 173,-114 35,-114"/>
<text text-anchor="middle" x="104" y="-144.8" font-family="Verdana" font-size="14.00">CCD 0 (8 Cores)</text>
<polyline fill="none" stroke="black" points="35,-137 173,-137 "/>
<text text-anchor="middle" x="104" y="-121.8" font-family="Verdana" font-size="14.00">L3 Cache (32MB)</text>
</g>
<!-- CCD0&#45;&gt;CCD0 -->
<g id="edge3" class="edge">
<title>CCD0&#45;&gt;CCD0</title>
<path fill="none" stroke="red" stroke-width="2" d="M71.77,-160.05C69.13,-169.99 79.87,-178.5 104,-178.5 119.46,-178.5 129.42,-175.01 133.89,-169.88"/>
<polygon fill="red" stroke="red" stroke-width="2" points="137.32,-170.58 136.23,-160.05 130.51,-168.96 137.32,-170.58"/>
<text text-anchor="middle" x="104" y="-182.3" font-family="Times,serif" font-size="14.00">NUMA Local (Fast)</text>
</g>
<!-- MemBus -->
<g id="node3" class="node">
<title>MemBus</title>
<polygon fill="lightgreen" stroke="black" points="358,-78 358,-114 646,-114 646,-78 358,-78"/>
<text text-anchor="middle" x="431" y="-92.3" font-family="Verdana" font-size="14.00">Memory Controller</text>
<polyline fill="none" stroke="black" points="504,-78 504,-114 "/>
<text text-anchor="middle" x="575" y="-92.3" font-family="Verdana" font-size="14.00">Dual Channel Bus</text>
</g>
<!-- CCD0&#45;&gt;MemBus -->
<g id="edge1" class="edge">
<title>CCD0&#45;&gt;MemBus</title>
<path fill="none" stroke="black" d="M173.07,-129.95C221.04,-124.99 287.23,-118.13 347.59,-111.88"/>
<polygon fill="black" stroke="black" points="348.02,-115.36 357.61,-110.85 347.3,-108.39 348.02,-115.36"/>
<text text-anchor="middle" x="279.5" y="-127.8" font-family="Times,serif" font-size="14.00">UMA (Default Delay)</text>
</g>
<!-- CCD1 -->
<g id="node2" class="node">
<title>CCD1</title>
<polygon fill="lightblue" stroke="black" points="35,-16 35,-62 173,-62 173,-16 35,-16"/>
<text text-anchor="middle" x="104" y="-46.8" font-family="Verdana" font-size="14.00">CCD 1 (8 Cores)</text>
<polyline fill="none" stroke="black" points="35,-39 173,-39 "/>
<text text-anchor="middle" x="104" y="-23.8" font-family="Verdana" font-size="14.00">L3 Cache (32MB)</text>
</g>
<!-- CCD1&#45;&gt;CCD1 -->
<g id="edge4" class="edge">
<title>CCD1&#45;&gt;CCD1</title>
<path fill="none" stroke="red" stroke-width="2" d="M71.77,-62.05C69.13,-71.99 79.87,-80.5 104,-80.5 119.46,-80.5 129.42,-77.01 133.89,-71.88"/>
<polygon fill="red" stroke="red" stroke-width="2" points="137.32,-72.58 136.23,-62.05 130.51,-70.96 137.32,-72.58"/>
<text text-anchor="middle" x="104" y="-84.3" font-family="Times,serif" font-size="14.00">NUMA Local (Fast)</text>
</g>
<!-- CCD1&#45;&gt;MemBus -->
<g id="edge2" class="edge">
<title>CCD1&#45;&gt;MemBus</title>
<path fill="none" stroke="black" d="M173.07,-48.8C225.98,-56.41 301.03,-67.22 365.99,-76.57"/>
<polygon fill="black" stroke="black" points="365.51,-80.03 375.91,-77.99 366.51,-73.1 365.51,-80.03"/>
<text text-anchor="middle" x="279.5" y="-75.8" font-family="Times,serif" font-size="14.00">UMA (Default Delay)</text>
</g>
<!-- RTX5080 -->
<g id="node4" class="node">
<title>RTX5080</title>
<polygon fill="orange" stroke="black" points="725,-78 725,-114 866,-114 866,-78 725,-78"/>
<text text-anchor="middle" x="795.5" y="-92.3" font-family="Verdana" font-size="14.00">RTX 5080 (16GB)</text>
</g>
<!-- MemBus&#45;&gt;RTX5080 -->
<g id="edge6" class="edge">
<title>MemBus&#45;&gt;RTX5080</title>
<path fill="none" stroke="blue" d="M646.19,-96C669.7,-96 693.3,-96 714.54,-96"/>
<polygon fill="blue" stroke="blue" points="714.76,-99.5 724.76,-96 714.76,-92.5 714.76,-99.5"/>
<text text-anchor="middle" x="685.5" y="-99.8" font-family="Times,serif" font-size="14.00">ReBAR</text>
</g>
<!-- RTX3080 -->
<g id="node5" class="node">
<title>RTX3080</title>
<polygon fill="orange" stroke="black" points="995,-78 995,-114 1136,-114 1136,-78 995,-78"/>
<text text-anchor="middle" x="1065.5" y="-92.3" font-family="Verdana" font-size="14.00">RTX 3080 (10GB)</text>
</g>
<!-- RTX5080&#45;&gt;RTX3080 -->
<g id="edge5" class="edge">
<title>RTX5080&#45;&gt;RTX3080</title>
<path fill="none" stroke="purple" d="M876.61,-96C910.65,-96 950.25,-96 984.29,-96"/>
<polygon fill="purple" stroke="purple" points="876.21,-92.5 866.21,-96 876.21,-99.5 876.21,-92.5"/>
<polygon fill="purple" stroke="purple" points="984.67,-99.5 994.67,-96 984.67,-92.5 984.67,-99.5"/>
<text text-anchor="middle" x="930.5" y="-99.8" font-family="Times,serif" font-size="14.00">P2P (10&#45;Bit Tag)</text>
</g>
</g>
</svg>
