<?xml version="1.0" encoding="UTF-8" standalone="no"?>
<!DOCTYPE svg PUBLIC "-//W3C//DTD SVG 1.1//EN"
 "http://www.w3.org/Graphics/SVG/1.1/DTD/svg11.dtd">
<!-- Generated by graphviz version 2.43.0 (0)
 -->
<!-- Title: G Pages: 1 -->
<svg width="240pt" height="268pt"
 viewBox="0.00 0.00 240.00 268.00" xmlns="http://www.w3.org/2000/svg" xmlns:xlink="http://www.w3.org/1999/xlink">
<g id="graph0" class="graph" transform="scale(1 1) rotate(0) translate(4 264)">
<title>G</title>
<g id="clust1" class="cluster">
<title>cluster_0</title>
<polygon fill="transparent" stroke="#2e7d32" stroke-dasharray="5,2" points="8,-8 8,-252 224,-252 224,-8 8,-8"/>
<text text-anchor="middle" x="116" y="-235.2" font-family="Arial Bold" font-size="16.00">Ollama Optimization Suite</text>
</g>
<!-- BIOS -->
<g id="node1" class="node">
<title>BIOS</title>
<path fill="#c8e6c9" stroke="#4a90e2" d="M132.5,-218C132.5,-218 73.5,-218 73.5,-218 67.5,-218 61.5,-212 61.5,-206 61.5,-206 61.5,-194 61.5,-194 61.5,-188 67.5,-182 73.5,-182 73.5,-182 132.5,-182 132.5,-182 138.5,-182 144.5,-188 144.5,-194 144.5,-194 144.5,-206 144.5,-206 144.5,-212 138.5,-218 132.5,-218"/>
<text text-anchor="middle" x="103" y="-203.4" font-family="Arial" font-size="12.00">BIOS</text>
<text text-anchor="middle" x="103" y="-190.4" font-family="Arial" font-size="12.00">Optimization</text>
</g>
<!-- Linux -->
<g id="node2" class="node">
<title>Linux</title>
<path fill="#c8e6c9" stroke="#4a90e2" d="M88,-135C88,-135 28,-135 28,-135 22,-135 16,-129 16,-123 16,-123 16,-111 16,-111 16,-105 22,-99 28,-99 28,-99 88,-99 88,-99 94,-99 100,-105 100,-111 100,-111 100,-123 100,-123 100,-129 94,-135 88,-135"/>
<text text-anchor="middle" x="58" y="-120.4" font-family="Arial" font-size="12.00">Linux Kernel</text>
<text text-anchor="middle" x="58" y="-107.4" font-family="Arial" font-size="12.00">Tuning</text>
</g>
<!-- BIOS&#45;&gt;Linux -->
<g id="edge1" class="edge">
<title>BIOS&#45;&gt;Linux</title>
<path fill="none" stroke="#4a90e2" d="M66.59,-181.98C59.93,-177.14 53.87,-171.19 50,-164 46.87,-158.19 46.54,-151.43 47.55,-144.9"/>
<polygon fill="#4a90e2" stroke="#4a90e2" points="50.99,-145.57 50.01,-135.02 44.2,-143.87 50.99,-145.57"/>
<text text-anchor="middle" x="97" y="-156" font-family="Arial" font-size="10.00">Hardware Abstraction</text>
</g>
<!-- Runtime -->
<g id="node3" class="node">
<title>Runtime</title>
<path fill="#c8e6c9" stroke="#4a90e2" d="M125,-52C125,-52 81,-52 81,-52 75,-52 69,-46 69,-40 69,-40 69,-28 69,-28 69,-22 75,-16 81,-16 81,-16 125,-16 125,-16 131,-16 137,-22 137,-28 137,-28 137,-40 137,-40 137,-46 131,-52 125,-52"/>
<text text-anchor="middle" x="103" y="-37.4" font-family="Arial" font-size="12.00">Runtime</text>
<text text-anchor="middle" x="103" y="-24.4" font-family="Arial" font-size="12.00">Efficiency</text>
</g>
<!-- Linux&#45;&gt;Runtime -->
<g id="edge2" class="edge">
<title>Linux&#45;&gt;Runtime</title>
<path fill="none" stroke="#4a90e2" d="M54.48,-98.58C53.52,-89.61 53.72,-78.75 58,-70 59.91,-66.1 62.48,-62.51 65.44,-59.23"/>
<polygon fill="#4a90e2" stroke="#4a90e2" points="68.05,-61.59 72.91,-52.17 63.24,-56.5 68.05,-61.59"/>
<text text-anchor="middle" x="101" y="-73" font-family="Arial" font-size="10.00">Context Scheduling</text>
</g>
<!-- Runtime&#45;&gt;BIOS -->
<g id="edge3" class="edge">
<title>Runtime&#45;&gt;BIOS</title>
<path fill="none" stroke="#4a90e2" d="M130.04,-52.24C135.68,-57.23 140.86,-63.2 144,-70 161.5,-107.94 161.5,-126.06 144,-164 142.29,-167.72 139.96,-171.19 137.28,-174.39"/>
<polygon fill="#4a90e2" stroke="#4a90e2" points="134.55,-172.17 130.04,-181.76 139.55,-177.07 134.55,-172.17"/>
<text text-anchor="middle" x="190.5" y="-114.5" font-family="Arial" font-size="10.00">Feedback Loop</text>
</g>
</g>
</svg>
