<?xml version="1.0" encoding="UTF-8" standalone="no"?>
<!DOCTYPE svg PUBLIC "-//W3C//DTD SVG 1.1//EN"
 "http://www.w3.org/Graphics/SVG/1.1/DTD/svg11.dtd">
<!-- Generated by graphviz version 2.43.0 (0)
 -->
<!-- Title: G Pages: 1 -->
<svg width="378pt" height="261pt"
 viewBox="0.00 0.00 378.00 261.00" xmlns="http://www.w3.org/2000/svg" xmlns:xlink="http://www.w3.org/1999/xlink">
<g id="graph0" class="graph" transform="scale(1 1) rotate(0) translate(4 257)">
<title>G</title>
<polygon fill="#0d0e15" stroke="transparent" points="-4,4 -4,-257 374,-257 374,4 -4,4"/>
<text text-anchor="middle" x="185" y="-237.8" font-family="Courier New" font-size="14.00" fill="#ffffff">S1.2: CPU Zen3 5950X CCD &amp; Cache Layout</text>
<g id="clust1" class="cluster">
<title>cluster_ccd0</title>
<polygon fill="#0d0e15" stroke="#00ff66" points="8,-74 8,-222 181,-222 181,-74 8,-74"/>
<text text-anchor="middle" x="94.5" y="-206.8" font-family="Courier New" font-size="14.00" fill="#ffffff">CCD 0 (NUMA Node 0)</text>
</g>
<g id="clust2" class="cluster">
<title>cluster_ccd1</title>
<polygon fill="#0d0e15" stroke="#00f3ff" points="189,-74 189,-222 362,-222 362,-74 189,-74"/>
<text text-anchor="middle" x="275.5" y="-206.8" font-family="Courier New" font-size="14.00" fill="#ffffff">CCD 1 (NUMA Node 1)</text>
</g>
<!-- cores0 -->
<g id="node1" class="node">
<title>cores0</title>
<path fill="#1a1c28" stroke="#00f3ff" stroke-width="2" d="M160.5,-191C160.5,-191 41.5,-191 41.5,-191 35.5,-191 29.5,-185 29.5,-179 29.5,-179 29.5,-167 29.5,-167 29.5,-161 35.5,-155 41.5,-155 41.5,-155 160.5,-155 160.5,-155 166.5,-155 172.5,-161 172.5,-167 172.5,-167 172.5,-179 172.5,-179 172.5,-185 166.5,-191 160.5,-191"/>
<text text-anchor="middle" x="101" y="-176" font-family="Courier New" font-size="10.00" fill="#ffffff">Cores 0&#45;7</text>
<text text-anchor="middle" x="101" y="-165" font-family="Courier New" font-size="10.00" fill="#ffffff">(8 Cores, 16 Threads)</text>
</g>
<!-- l3_0 -->
<g id="node2" class="node">
<title>l3_0</title>
<path fill="#1a1c28" stroke="#ffff00" stroke-width="2" d="M156.5,-118C156.5,-118 67.5,-118 67.5,-118 61.5,-118 55.5,-112 55.5,-106 55.5,-106 55.5,-94 55.5,-94 55.5,-88 61.5,-82 67.5,-82 67.5,-82 156.5,-82 156.5,-82 162.5,-82 168.5,-88 168.5,-94 168.5,-94 168.5,-106 168.5,-106 168.5,-112 162.5,-118 156.5,-118"/>
<text text-anchor="middle" x="112" y="-103" font-family="Courier New" font-size="10.00" fill="#ffffff">32MB L3 Cache</text>
<text text-anchor="middle" x="112" y="-92" font-family="Courier New" font-size="10.00" fill="#ffffff">(Shared Unified)</text>
</g>
<!-- cores0&#45;&gt;l3_0 -->
<g id="edge1" class="edge">
<title>cores0&#45;&gt;l3_0</title>
<path fill="none" stroke="#ff007f" stroke-width="1.5" d="M103.66,-154.81C105,-146.18 106.65,-135.56 108.12,-126.03"/>
<polygon fill="#ff007f" stroke="#ff007f" stroke-width="1.5" points="110.9,-126.36 109.36,-118.03 105.37,-125.51 110.9,-126.36"/>
</g>
<!-- imc -->
<g id="node5" class="node">
<title>imc</title>
<path fill="#1a1c28" stroke="#ff007f" stroke-width="2" d="M268.5,-36C268.5,-36 107.5,-36 107.5,-36 101.5,-36 95.5,-30 95.5,-24 95.5,-24 95.5,-12 95.5,-12 95.5,-6 101.5,0 107.5,0 107.5,0 268.5,0 268.5,0 274.5,0 280.5,-6 280.5,-12 280.5,-12 280.5,-24 280.5,-24 280.5,-30 274.5,-36 268.5,-36"/>
<text text-anchor="middle" x="188" y="-21" font-family="Courier New" font-size="10.00" fill="#ffffff">Integrated Memory Controller</text>
<text text-anchor="middle" x="188" y="-10" font-family="Courier New" font-size="10.00" fill="#ffffff">(Dual Channel DDR4)</text>
</g>
<!-- l3_0&#45;&gt;imc -->
<g id="edge3" class="edge">
<title>l3_0&#45;&gt;imc</title>
<path fill="none" stroke="#ff007f" stroke-width="1.5" d="M119.14,-81.98C123.44,-73.01 129.54,-62.2 137,-54 141.27,-49.31 146.28,-44.92 151.47,-40.94"/>
<polygon fill="#ff007f" stroke="#ff007f" stroke-width="1.5" points="153.26,-43.1 158.09,-36.13 149.97,-38.57 153.26,-43.1"/>
<text text-anchor="middle" x="176.5" y="-56.8" font-family="Courier New" font-size="9.00" fill="#00f3ff">Infinity Fabric</text>
</g>
<!-- cores1 -->
<g id="node3" class="node">
<title>cores1</title>
<path fill="#1a1c28" stroke="#00f3ff" stroke-width="2" d="M328.5,-191C328.5,-191 209.5,-191 209.5,-191 203.5,-191 197.5,-185 197.5,-179 197.5,-179 197.5,-167 197.5,-167 197.5,-161 203.5,-155 209.5,-155 209.5,-155 328.5,-155 328.5,-155 334.5,-155 340.5,-161 340.5,-167 340.5,-167 340.5,-179 340.5,-179 340.5,-185 334.5,-191 328.5,-191"/>
<text text-anchor="middle" x="269" y="-176" font-family="Courier New" font-size="10.00" fill="#ffffff">Cores 8&#45;15</text>
<text text-anchor="middle" x="269" y="-165" font-family="Courier New" font-size="10.00" fill="#ffffff">(8 Cores, 16 Threads)</text>
</g>
<!-- l3_1 -->
<g id="node4" class="node">
<title>l3_1</title>
<path fill="#1a1c28" stroke="#ffff00" stroke-width="2" d="M305.5,-118C305.5,-118 216.5,-118 216.5,-118 210.5,-118 204.5,-112 204.5,-106 204.5,-106 204.5,-94 204.5,-94 204.5,-88 210.5,-82 216.5,-82 216.5,-82 305.5,-82 305.5,-82 311.5,-82 317.5,-88 317.5,-94 317.5,-94 317.5,-106 317.5,-106 317.5,-112 311.5,-118 305.5,-118"/>
<text text-anchor="middle" x="261" y="-103" font-family="Courier New" font-size="10.00" fill="#ffffff">32MB L3 Cache</text>
<text text-anchor="middle" x="261" y="-92" font-family="Courier New" font-size="10.00" fill="#ffffff">(Shared Unified)</text>
</g>
<!-- cores1&#45;&gt;l3_1 -->
<g id="edge2" class="edge">
<title>cores1&#45;&gt;l3_1</title>
<path fill="none" stroke="#ff007f" stroke-width="1.5" d="M267.06,-154.81C266.09,-146.18 264.89,-135.56 263.82,-126.03"/>
<polygon fill="#ff007f" stroke="#ff007f" stroke-width="1.5" points="266.6,-125.66 262.92,-118.03 261.03,-126.29 266.6,-125.66"/>
</g>
<!-- l3_1&#45;&gt;imc -->
<g id="edge4" class="edge">
<title>l3_1&#45;&gt;imc</title>
<path fill="none" stroke="#ff007f" stroke-width="1.5" d="M245.43,-81.9C237.78,-73.49 228.41,-63.21 220,-54 216.5,-50.17 212.79,-46.1 209.18,-42.15"/>
<polygon fill="#ff007f" stroke="#ff007f" stroke-width="1.5" points="211.1,-40.1 203.63,-36.08 206.96,-43.88 211.1,-40.1"/>
<text text-anchor="middle" x="267.5" y="-56.8" font-family="Courier New" font-size="9.00" fill="#00f3ff">Infinity Fabric</text>
</g>
</g>
</svg>
