<?xml version="1.0" encoding="UTF-8" standalone="no"?>
<!DOCTYPE svg PUBLIC "-//W3C//DTD SVG 1.1//EN"
 "http://www.w3.org/Graphics/SVG/1.1/DTD/svg11.dtd">
<!-- Generated by graphviz version 2.43.0 (0)
 -->
<!-- Title: G Pages: 1 -->
<svg width="371pt" height="231pt"
 viewBox="0.00 0.00 371.00 231.00" xmlns="http://www.w3.org/2000/svg" xmlns:xlink="http://www.w3.org/1999/xlink">
<g id="graph0" class="graph" transform="scale(1 1) rotate(0) translate(4 227)">
<title>G</title>
<polygon fill="#0d0e15" stroke="transparent" points="-4,4 -4,-227 367,-227 367,4 -4,4"/>
<text text-anchor="middle" x="181.5" y="-207.8" font-family="Courier New" font-size="14.00" fill="#ffffff">S1.3: Dual GPU Peer&#45;to&#45;Peer &amp; Ten&#45;Bit Tags</text>
<!-- rtx5080 -->
<g id="node1" class="node">
<title>rtx5080</title>
<path fill="#1a1c28" stroke="#00ff66" stroke-width="2" d="M195.45,-200C195.45,-200 76.45,-200 76.45,-200 70.45,-200 64.45,-194 64.45,-188 64.45,-188 64.45,-176 64.45,-176 64.45,-170 70.45,-164 76.45,-164 76.45,-164 195.45,-164 195.45,-164 201.45,-164 207.45,-170 207.45,-176 207.45,-176 207.45,-188 207.45,-188 207.45,-194 201.45,-200 195.45,-200"/>
<text text-anchor="middle" x="135.95" y="-185" font-family="Courier New" font-size="10.00" fill="#ffffff">RTX 5080 (GPU 0)</text>
<text text-anchor="middle" x="135.95" y="-174" font-family="Courier New" font-size="10.00" fill="#ffffff">Primary LLM Substrate</text>
</g>
<!-- pcie_root -->
<g id="node3" class="node">
<title>pcie_root</title>
<path fill="#1a1c28" stroke="#ffff00" stroke-width="2" d="M198.45,-118C198.45,-118 73.45,-118 73.45,-118 67.45,-118 61.45,-112 61.45,-106 61.45,-106 61.45,-94 61.45,-94 61.45,-88 67.45,-82 73.45,-82 73.45,-82 198.45,-82 198.45,-82 204.45,-82 210.45,-88 210.45,-94 210.45,-94 210.45,-106 210.45,-106 210.45,-112 204.45,-118 198.45,-118"/>
<text text-anchor="middle" x="135.95" y="-103" font-family="Courier New" font-size="10.00" fill="#ffffff">PCIe Root Complex</text>
<text text-anchor="middle" x="135.95" y="-92" font-family="Courier New" font-size="10.00" fill="#ffffff">(Ten&#45;Bit Tags Enabled)</text>
</g>
<!-- rtx5080&#45;&gt;pcie_root -->
<g id="edge1" class="edge">
<title>rtx5080&#45;&gt;pcie_root</title>
<path fill="none" stroke="#ff007f" stroke-width="1.5" d="M99.53,-163.98C92.87,-159.14 86.81,-153.19 82.95,-146 78.3,-137.36 81.94,-129.68 89.08,-123.21"/>
<polygon fill="#ff007f" stroke="#ff007f" stroke-width="1.5" points="91.14,-125.15 95.79,-118.06 87.74,-120.71 91.14,-125.15"/>
<text text-anchor="middle" x="125.45" y="-138.8" font-family="Courier New" font-size="9.00" fill="#00f3ff">Tx / Rx Requests</text>
</g>
<!-- rtx3080 -->
<g id="node2" class="node">
<title>rtx3080</title>
<path fill="#1a1c28" stroke="#00f3ff" stroke-width="2" d="M180.45,-36C180.45,-36 91.45,-36 91.45,-36 85.45,-36 79.45,-30 79.45,-24 79.45,-24 79.45,-12 79.45,-12 79.45,-6 85.45,0 91.45,0 91.45,0 180.45,0 180.45,0 186.45,0 192.45,-6 192.45,-12 192.45,-12 192.45,-24 192.45,-24 192.45,-30 186.45,-36 180.45,-36"/>
<text text-anchor="middle" x="135.95" y="-21" font-family="Courier New" font-size="10.00" fill="#ffffff">RTX 3080 (GPU 1)</text>
<text text-anchor="middle" x="135.95" y="-10" font-family="Courier New" font-size="10.00" fill="#ffffff">Co&#45;Processor</text>
</g>
<!-- rtx3080&#45;&gt;pcie_root -->
<g id="edge2" class="edge">
<title>rtx3080&#45;&gt;pcie_root</title>
<path fill="none" stroke="#ff007f" stroke-width="1.5" d="M188.73,-36.17C201.09,-43.22 208.88,-52.47 201.95,-64 198.91,-69.04 194.88,-73.4 190.3,-77.15"/>
<polygon fill="#ff007f" stroke="#ff007f" stroke-width="1.5" points="188.58,-74.94 183.76,-81.9 191.87,-79.47 188.58,-74.94"/>
<text text-anchor="middle" x="246.45" y="-56.8" font-family="Courier New" font-size="9.00" fill="#00f3ff">Tx / Rx Requests</text>
</g>
<!-- pcie_root&#45;&gt;rtx5080 -->
<g id="edge3" class="edge">
<title>pcie_root&#45;&gt;rtx5080</title>
<path fill="none" stroke="#ff007f" stroke-width="1.5" d="M158.62,-118.2C166.19,-126.13 171.83,-135.99 167.95,-146 166.34,-150.13 164.01,-154.06 161.31,-157.71"/>
<polygon fill="#ff007f" stroke="#ff007f" stroke-width="1.5" points="159.1,-155.98 156.15,-163.93 163.41,-159.56 159.1,-155.98"/>
<text text-anchor="middle" x="245.45" y="-138.8" font-family="Courier New" font-size="9.00" fill="#00f3ff">Enhanced High&#45;Concurrency P2P</text>
</g>
<!-- pcie_root&#45;&gt;rtx3080 -->
<g id="edge4" class="edge">
<title>pcie_root&#45;&gt;rtx3080</title>
<path fill="none" stroke="#ff007f" stroke-width="1.5" d="M64.61,-81.83C56.9,-77.23 50.03,-71.4 44.95,-64 33.74,-47.69 49.87,-37.03 71.5,-30.2"/>
<polygon fill="#ff007f" stroke="#ff007f" stroke-width="1.5" points="72.44,-32.85 79.35,-27.94 70.89,-27.47 72.44,-32.85"/>
<text text-anchor="middle" x="121.45" y="-56.8" font-family="Courier New" font-size="9.00" fill="#00f3ff">Enhanced High&#45;Concurrency P2P</text>
</g>
</g>
</svg>
