<?xml version="1.0" encoding="UTF-8" standalone="no"?>
<!DOCTYPE svg PUBLIC "-//W3C//DTD SVG 1.1//EN"
 "http://www.w3.org/Graphics/SVG/1.1/DTD/svg11.dtd">
<!-- Generated by graphviz version 2.43.0 (0)
 -->
<!-- Title: G Pages: 1 -->
<svg width="404pt" height="241pt"
 viewBox="0.00 0.00 404.00 241.00" xmlns="http://www.w3.org/2000/svg" xmlns:xlink="http://www.w3.org/1999/xlink">
<g id="graph0" class="graph" transform="scale(1 1) rotate(0) translate(4 237)">
<title>G</title>
<polygon fill="#0d0e15" stroke="transparent" points="-4,4 -4,-237 400,-237 400,4 -4,4"/>
<text text-anchor="middle" x="198" y="-217.8" font-family="Courier New" font-size="14.00" fill="#ffffff">S1.4: RAM Memory Bandwidth &amp; Thread Sweet Spot</text>
<!-- ram -->
<g id="node1" class="node">
<title>ram</title>
<path fill="#1a1c28" stroke="#00ff66" stroke-width="2" d="M277,-36C277,-36 104,-36 104,-36 98,-36 92,-30 92,-24 92,-24 92,-12 92,-12 92,-6 98,0 104,0 104,0 277,0 277,0 283,0 289,-6 289,-12 289,-12 289,-24 289,-24 289,-30 283,-36 277,-36"/>
<text text-anchor="middle" x="190.5" y="-21" font-family="Courier New" font-size="10.00" fill="#ffffff">128GB DDR4 RAM</text>
<text text-anchor="middle" x="190.5" y="-10" font-family="Courier New" font-size="10.00" fill="#ffffff">(Dual Channel Bandwidth Limit)</text>
</g>
<!-- threads_low -->
<g id="node2" class="node">
<title>threads_low</title>
<path fill="#1a1c28" stroke="#00ff66" stroke-width="2" d="M162,-210C162,-210 37,-210 37,-210 31,-210 25,-204 25,-198 25,-198 25,-186 25,-186 25,-180 31,-174 37,-174 37,-174 162,-174 162,-174 168,-174 174,-180 174,-186 174,-186 174,-198 174,-198 174,-204 168,-210 162,-210"/>
<text text-anchor="middle" x="99.5" y="-195" font-family="Courier New" font-size="10.00" fill="#ffffff">12&#45;16 Threads</text>
<text text-anchor="middle" x="99.5" y="-184" font-family="Courier New" font-size="10.00" fill="#ffffff">(Optimal Thread Limit)</text>
</g>
<!-- imc -->
<g id="node4" class="node">
<title>imc</title>
<path fill="#1a1c28" stroke="#ffff00" stroke-width="2" d="M238,-118C238,-118 143,-118 143,-118 137,-118 131,-112 131,-106 131,-106 131,-94 131,-94 131,-88 137,-82 143,-82 143,-82 238,-82 238,-82 244,-82 250,-88 250,-94 250,-94 250,-106 250,-106 250,-112 244,-118 238,-118"/>
<text text-anchor="middle" x="190.5" y="-103" font-family="Courier New" font-size="10.00" fill="#ffffff">Zen 3 Integrated</text>
<text text-anchor="middle" x="190.5" y="-92" font-family="Courier New" font-size="10.00" fill="#ffffff">Memory Controller</text>
</g>
<!-- threads_low&#45;&gt;imc -->
<g id="edge1" class="edge">
<title>threads_low&#45;&gt;imc</title>
<path fill="none" stroke="#ff007f" stroke-width="1.5" d="M117.05,-173.65C131.27,-159.58 151.45,-139.62 167.06,-124.18"/>
<polygon fill="#ff007f" stroke="#ff007f" stroke-width="1.5" points="169.29,-125.92 173.01,-118.3 165.35,-121.93 169.29,-125.92"/>
<text text-anchor="middle" x="193" y="-148.8" font-family="Courier New" font-size="9.00" fill="#00f3ff">High Token Rate</text>
<text text-anchor="middle" x="193" y="-138.8" font-family="Courier New" font-size="9.00" fill="#00f3ff">(94% Alignment)</text>
</g>
<!-- threads_high -->
<g id="node3" class="node">
<title>threads_high</title>
<path fill="#1a1c28" stroke="#ff0000" stroke-width="2" d="M359,-210C359,-210 204,-210 204,-210 198,-210 192,-204 192,-198 192,-198 192,-186 192,-186 192,-180 198,-174 204,-174 204,-174 359,-174 359,-174 365,-174 371,-180 371,-186 371,-186 371,-198 371,-198 371,-204 365,-210 359,-210"/>
<text text-anchor="middle" x="281.5" y="-195" font-family="Courier New" font-size="10.00" fill="#ffffff">32 Threads (Full CPU)</text>
<text text-anchor="middle" x="281.5" y="-184" font-family="Courier New" font-size="10.00" fill="#ffffff">(IMC Contention Bottleneck)</text>
</g>
<!-- threads_high&#45;&gt;imc -->
<g id="edge2" class="edge">
<title>threads_high&#45;&gt;imc</title>
<path fill="none" stroke="#ff007f" stroke-width="1.5" d="M269.06,-173.76C260.52,-162.45 248.57,-147.65 236.5,-136 231.93,-131.59 226.81,-127.22 221.69,-123.14"/>
<polygon fill="#ff007f" stroke="#ff007f" stroke-width="1.5" points="223.28,-120.84 215.24,-118.15 219.86,-125.26 223.28,-120.84"/>
<text text-anchor="middle" x="309" y="-148.8" font-family="Courier New" font-size="9.00" fill="#00f3ff">Saturates IMC</text>
<text text-anchor="middle" x="309" y="-138.8" font-family="Courier New" font-size="9.00" fill="#00f3ff">(Diminishing Returns)</text>
</g>
<!-- imc&#45;&gt;ram -->
<g id="edge3" class="edge">
<title>imc&#45;&gt;ram</title>
<path fill="none" stroke="#ff007f" stroke-width="1.5" d="M190.5,-81.64C190.5,-70.66 190.5,-56.29 190.5,-44.09"/>
<polygon fill="#ff007f" stroke="#ff007f" stroke-width="1.5" points="193.3,-44.05 190.5,-36.05 187.7,-44.05 193.3,-44.05"/>
<text text-anchor="middle" x="227.5" y="-56.8" font-family="Courier New" font-size="9.00" fill="#00f3ff">Weight Reading</text>
</g>
</g>
</svg>
