<?xml version="1.0" encoding="UTF-8" standalone="no"?>
<!DOCTYPE svg PUBLIC "-//W3C//DTD SVG 1.1//EN"
 "http://www.w3.org/Graphics/SVG/1.1/DTD/svg11.dtd">
<!-- Generated by graphviz version 2.43.0 (0)
 -->
<!-- Title: G Pages: 1 -->
<svg width="356pt" height="241pt"
 viewBox="0.00 0.00 355.50 241.00" xmlns="http://www.w3.org/2000/svg" xmlns:xlink="http://www.w3.org/1999/xlink">
<g id="graph0" class="graph" transform="scale(1 1) rotate(0) translate(4 237)">
<title>G</title>
<polygon fill="#0d0e15" stroke="transparent" points="-4,4 -4,-237 351.5,-237 351.5,4 -4,4"/>
<text text-anchor="middle" x="173.75" y="-217.8" font-family="Courier New" font-size="14.00" fill="#ffffff">S1.5: Disk Layout &amp; Ollama SSD Symlink</text>
<!-- nvme -->
<g id="node1" class="node">
<title>nvme</title>
<path fill="#1a1c28" stroke="#00ff66" stroke-width="2" d="M107,-210C107,-210 12,-210 12,-210 6,-210 0,-204 0,-198 0,-198 0,-181 0,-181 0,-175 6,-169 12,-169 12,-169 107,-169 107,-169 113,-169 119,-175 119,-181 119,-181 119,-198 119,-198 119,-204 113,-210 107,-210"/>
<text text-anchor="middle" x="59.5" y="-198" font-family="Courier New" font-size="10.00" fill="#ffffff">Root NVMe (/) </text>
<text text-anchor="middle" x="59.5" y="-187" font-family="Courier New" font-size="10.00" fill="#ffffff">OS &amp; CLI Binaries</text>
<text text-anchor="middle" x="59.5" y="-176" font-family="Courier New" font-size="10.00" fill="#ffffff">(63% Capacity)</text>
</g>
<!-- ssd -->
<g id="node2" class="node">
<title>ssd</title>
<path fill="#1a1c28" stroke="#ff0000" stroke-width="2" d="M307,-123C307,-123 134,-123 134,-123 128,-123 122,-117 122,-111 122,-111 122,-94 122,-94 122,-88 128,-82 134,-82 134,-82 307,-82 307,-82 313,-82 319,-88 319,-94 319,-94 319,-111 319,-111 319,-117 313,-123 307,-123"/>
<text text-anchor="middle" x="220.5" y="-111" font-family="Courier New" font-size="10.00" fill="#ffffff">Samsung SSD (/mnt/samsung_ssd)</text>
<text text-anchor="middle" x="220.5" y="-100" font-family="Courier New" font-size="10.00" fill="#ffffff">Physical Storage</text>
<text text-anchor="middle" x="220.5" y="-89" font-family="Courier New" font-size="10.00" fill="#ffffff">(88% Capacity)</text>
</g>
<!-- registry -->
<g id="node4" class="node">
<title>registry</title>
<path fill="#1a1c28" stroke="#00f3ff" stroke-width="2" d="M277,-36C277,-36 164,-36 164,-36 158,-36 152,-30 152,-24 152,-24 152,-12 152,-12 152,-6 158,0 164,0 164,0 277,0 277,0 283,0 289,-6 289,-12 289,-12 289,-24 289,-24 289,-30 283,-36 277,-36"/>
<text text-anchor="middle" x="220.5" y="-21" font-family="Courier New" font-size="10.00" fill="#ffffff">Ollama Model weights</text>
<text text-anchor="middle" x="220.5" y="-10" font-family="Courier New" font-size="10.00" fill="#ffffff">(.ollama/models/)</text>
</g>
<!-- ssd&#45;&gt;registry -->
<g id="edge2" class="edge">
<title>ssd&#45;&gt;registry</title>
<path fill="none" stroke="#ff007f" stroke-width="1.5" d="M220.5,-81.95C220.5,-70.75 220.5,-56.58 220.5,-44.51"/>
<polygon fill="#ff007f" stroke="#ff007f" stroke-width="1.5" points="223.3,-44.17 220.5,-36.17 217.7,-44.17 223.3,-44.17"/>
<text text-anchor="middle" x="278.5" y="-56.8" font-family="Courier New" font-size="9.00" fill="#00f3ff">Contains large weights</text>
</g>
<!-- symlink -->
<g id="node3" class="node">
<title>symlink</title>
<path fill="#1a1c28" stroke="#ffff00" stroke-width="2" d="M292,-207.5C292,-207.5 149,-207.5 149,-207.5 143,-207.5 137,-201.5 137,-195.5 137,-195.5 137,-183.5 137,-183.5 137,-177.5 143,-171.5 149,-171.5 149,-171.5 292,-171.5 292,-171.5 298,-171.5 304,-177.5 304,-183.5 304,-183.5 304,-195.5 304,-195.5 304,-201.5 298,-207.5 292,-207.5"/>
<text text-anchor="middle" x="220.5" y="-192.5" font-family="Courier New" font-size="10.00" fill="#ffffff">Symlink Target</text>
<text text-anchor="middle" x="220.5" y="-181.5" font-family="Courier New" font-size="10.00" fill="#ffffff">/usr/share/ollama/.ollama</text>
</g>
<!-- symlink&#45;&gt;ssd -->
<g id="edge1" class="edge">
<title>symlink&#45;&gt;ssd</title>
<path fill="none" stroke="#ff007f" stroke-width="1.5" d="M220.5,-171.3C220.5,-159.84 220.5,-144.52 220.5,-131.34"/>
<polygon fill="#ff007f" stroke="#ff007f" stroke-width="1.5" points="223.3,-131.05 220.5,-123.05 217.7,-131.05 223.3,-131.05"/>
<text text-anchor="middle" x="284" y="-143.8" font-family="Courier New" font-size="9.00" fill="#00f3ff">Points to Physical Mount</text>
</g>
</g>
</svg>
