<?xml version="1.0" encoding="UTF-8" standalone="no"?>
<!DOCTYPE svg PUBLIC "-//W3C//DTD SVG 1.1//EN"
 "http://www.w3.org/Graphics/SVG/1.1/DTD/svg11.dtd">
<!-- Generated by graphviz version 2.43.0 (0)
 -->
<!-- Title: G Pages: 1 -->
<svg width="322pt" height="231pt"
 viewBox="0.00 0.00 322.00 231.00" xmlns="http://www.w3.org/2000/svg" xmlns:xlink="http://www.w3.org/1999/xlink">
<g id="graph0" class="graph" transform="scale(1 1) rotate(0) translate(4 227)">
<title>G</title>
<polygon fill="#0d0e15" stroke="transparent" points="-4,4 -4,-227 318,-227 318,4 -4,4"/>
<text text-anchor="middle" x="157" y="-207.8" font-family="Courier New" font-size="14.00" fill="#ffffff">S2.3: Open&#45;WebUI Docker Host Network</text>
<!-- browser -->
<g id="node1" class="node">
<title>browser</title>
<path fill="#1a1c28" stroke="#ffff00" stroke-width="2" d="M178.25,-200C178.25,-200 83.25,-200 83.25,-200 77.25,-200 71.25,-194 71.25,-188 71.25,-188 71.25,-176 71.25,-176 71.25,-170 77.25,-164 83.25,-164 83.25,-164 178.25,-164 178.25,-164 184.25,-164 190.25,-170 190.25,-176 190.25,-176 190.25,-188 190.25,-188 190.25,-194 184.25,-200 178.25,-200"/>
<text text-anchor="middle" x="130.75" y="-185" font-family="Courier New" font-size="10.00" fill="#ffffff">Browser Client</text>
<text text-anchor="middle" x="130.75" y="-174" font-family="Courier New" font-size="10.00" fill="#ffffff">(Local Port 3000)</text>
</g>
<!-- docker_container -->
<g id="node2" class="node">
<title>docker_container</title>
<path fill="#1a1c28" stroke="#00ff66" stroke-width="2" d="M208.25,-118C208.25,-118 53.25,-118 53.25,-118 47.25,-118 41.25,-112 41.25,-106 41.25,-106 41.25,-94 41.25,-94 41.25,-88 47.25,-82 53.25,-82 53.25,-82 208.25,-82 208.25,-82 214.25,-82 220.25,-88 220.25,-94 220.25,-94 220.25,-106 220.25,-106 220.25,-112 214.25,-118 208.25,-118"/>
<text text-anchor="middle" x="130.75" y="-103" font-family="Courier New" font-size="10.00" fill="#ffffff">Open&#45;WebUI Docker Container</text>
<text text-anchor="middle" x="130.75" y="-92" font-family="Courier New" font-size="10.00" fill="#ffffff">(Host Network Mode)</text>
</g>
<!-- browser&#45;&gt;docker_container -->
<g id="edge1" class="edge">
<title>browser&#45;&gt;docker_container</title>
<path fill="none" stroke="#ff007f" stroke-width="1.5" d="M130.75,-163.64C130.75,-152.66 130.75,-138.29 130.75,-126.09"/>
<polygon fill="#ff007f" stroke="#ff007f" stroke-width="1.5" points="133.55,-126.05 130.75,-118.05 127.95,-126.05 133.55,-126.05"/>
<text text-anchor="middle" x="162.75" y="-138.8" font-family="Courier New" font-size="9.00" fill="#00f3ff">HTTP Request</text>
</g>
<!-- local_ollama -->
<g id="node3" class="node">
<title>local_ollama</title>
<path fill="#1a1c28" stroke="#00f3ff" stroke-width="2" d="M181.25,-36C181.25,-36 80.25,-36 80.25,-36 74.25,-36 68.25,-30 68.25,-24 68.25,-24 68.25,-12 68.25,-12 68.25,-6 74.25,0 80.25,0 80.25,0 181.25,0 181.25,0 187.25,0 193.25,-6 193.25,-12 193.25,-12 193.25,-24 193.25,-24 193.25,-30 187.25,-36 181.25,-36"/>
<text text-anchor="middle" x="130.75" y="-21" font-family="Courier New" font-size="10.00" fill="#ffffff">Ollama Daemon</text>
<text text-anchor="middle" x="130.75" y="-10" font-family="Courier New" font-size="10.00" fill="#ffffff">(Local Port 11434)</text>
</g>
<!-- docker_container&#45;&gt;local_ollama -->
<g id="edge2" class="edge">
<title>docker_container&#45;&gt;local_ollama</title>
<path fill="none" stroke="#ff007f" stroke-width="1.5" d="M130.75,-81.64C130.75,-70.66 130.75,-56.29 130.75,-44.09"/>
<polygon fill="#ff007f" stroke="#ff007f" stroke-width="1.5" points="133.55,-44.05 130.75,-36.05 127.95,-44.05 133.55,-44.05"/>
<text text-anchor="middle" x="201.75" y="-56.8" font-family="Courier New" font-size="9.00" fill="#00f3ff">Direct loopback (127.0.0.1)</text>
</g>
</g>
</svg>
