<?xml version="1.0" encoding="UTF-8" standalone="no"?>
<!DOCTYPE svg PUBLIC "-//W3C//DTD SVG 1.1//EN"
 "http://www.w3.org/Graphics/SVG/1.1/DTD/svg11.dtd">
<!-- Generated by graphviz version 2.43.0 (0)
 -->
<!-- Title: G Pages: 1 -->
<svg width="396pt" height="231pt"
 viewBox="0.00 0.00 396.00 231.00" xmlns="http://www.w3.org/2000/svg" xmlns:xlink="http://www.w3.org/1999/xlink">
<g id="graph0" class="graph" transform="scale(1 1) rotate(0) translate(4 227)">
<title>G</title>
<polygon fill="#0d0e15" stroke="transparent" points="-4,4 -4,-227 392,-227 392,4 -4,4"/>
<text text-anchor="middle" x="194" y="-207.8" font-family="Courier New" font-size="14.00" fill="#ffffff">S3.3: Nginx Reverse Proxy WebUI Ingress Paths</text>
<!-- client -->
<g id="node1" class="node">
<title>client</title>
<path fill="#1a1c28" stroke="#ffff00" stroke-width="2" d="M234.75,-200C234.75,-200 103.75,-200 103.75,-200 97.75,-200 91.75,-194 91.75,-188 91.75,-188 91.75,-176 91.75,-176 91.75,-170 97.75,-164 103.75,-164 103.75,-164 234.75,-164 234.75,-164 240.75,-164 246.75,-170 246.75,-176 246.75,-176 246.75,-188 246.75,-188 246.75,-194 240.75,-200 234.75,-200"/>
<text text-anchor="middle" x="169.25" y="-179.5" font-family="Courier New" font-size="10.00" fill="#ffffff">Local Client Connection</text>
</g>
<!-- nginx -->
<g id="node2" class="node">
<title>nginx</title>
<path fill="#1a1c28" stroke="#00ff66" stroke-width="2" d="M222.75,-118C222.75,-118 115.75,-118 115.75,-118 109.75,-118 103.75,-112 103.75,-106 103.75,-106 103.75,-94 103.75,-94 103.75,-88 109.75,-82 115.75,-82 115.75,-82 222.75,-82 222.75,-82 228.75,-82 234.75,-88 234.75,-94 234.75,-94 234.75,-106 234.75,-106 234.75,-112 228.75,-118 222.75,-118"/>
<text text-anchor="middle" x="169.25" y="-103" font-family="Courier New" font-size="10.00" fill="#ffffff">Nginx Reverse Proxy</text>
<text text-anchor="middle" x="169.25" y="-92" font-family="Courier New" font-size="10.00" fill="#ffffff">(Port 80 on RPi4)</text>
</g>
<!-- client&#45;&gt;nginx -->
<g id="edge1" class="edge">
<title>client&#45;&gt;nginx</title>
<path fill="none" stroke="#ff007f" stroke-width="1.5" d="M169.25,-163.64C169.25,-152.66 169.25,-138.29 169.25,-126.09"/>
<polygon fill="#ff007f" stroke="#ff007f" stroke-width="1.5" points="172.05,-126.05 169.25,-118.05 166.45,-126.05 172.05,-126.05"/>
<text text-anchor="middle" x="211.75" y="-138.8" font-family="Courier New" font-size="9.00" fill="#00f3ff">HTTP GET Request</text>
</g>
<!-- webui -->
<g id="node3" class="node">
<title>webui</title>
<path fill="#1a1c28" stroke="#00f3ff" stroke-width="2" d="M148.75,-36C148.75,-36 35.75,-36 35.75,-36 29.75,-36 23.75,-30 23.75,-24 23.75,-24 23.75,-12 23.75,-12 23.75,-6 29.75,0 35.75,0 35.75,0 148.75,0 148.75,0 154.75,0 160.75,-6 160.75,-12 160.75,-12 160.75,-24 160.75,-24 160.75,-30 154.75,-36 148.75,-36"/>
<text text-anchor="middle" x="92.25" y="-21" font-family="Courier New" font-size="10.00" fill="#ffffff">Nginx Webroot</text>
<text text-anchor="middle" x="92.25" y="-10" font-family="Courier New" font-size="10.00" fill="#ffffff">(/camera/index.html)</text>
</g>
<!-- nginx&#45;&gt;webui -->
<g id="edge2" class="edge">
<title>nginx&#45;&gt;webui</title>
<path fill="none" stroke="#ff007f" stroke-width="1.5" d="M152.54,-81.64C141.37,-70.03 126.54,-54.63 114.38,-42"/>
<polygon fill="#ff007f" stroke="#ff007f" stroke-width="1.5" points="116.23,-39.87 108.66,-36.05 112.19,-43.76 116.23,-39.87"/>
<text text-anchor="middle" x="173.25" y="-56.8" font-family="Courier New" font-size="9.00" fill="#00f3ff">Route /camera/</text>
</g>
<!-- webrtc_srv -->
<g id="node4" class="node">
<title>webrtc_srv</title>
<path fill="#1a1c28" stroke="#ff007f" stroke-width="2" d="M303.75,-36C303.75,-36 190.75,-36 190.75,-36 184.75,-36 178.75,-30 178.75,-24 178.75,-24 178.75,-12 178.75,-12 178.75,-6 184.75,0 190.75,0 190.75,0 303.75,0 303.75,0 309.75,0 315.75,-6 315.75,-12 315.75,-12 315.75,-24 315.75,-24 315.75,-30 309.75,-36 303.75,-36"/>
<text text-anchor="middle" x="247.25" y="-21" font-family="Courier New" font-size="10.00" fill="#ffffff">go2rtc Engine WebRTC</text>
<text text-anchor="middle" x="247.25" y="-10" font-family="Courier New" font-size="10.00" fill="#ffffff">(Port 1984 redirect)</text>
</g>
<!-- nginx&#45;&gt;webrtc_srv -->
<g id="edge3" class="edge">
<title>nginx&#45;&gt;webrtc_srv</title>
<path fill="none" stroke="#ff007f" stroke-width="1.5" d="M193.64,-81.99C200.64,-76.61 208.04,-70.39 214.25,-64 220.43,-57.64 226.41,-50.08 231.54,-42.99"/>
<polygon fill="#ff007f" stroke="#ff007f" stroke-width="1.5" points="234.06,-44.27 236.36,-36.11 229.47,-41.05 234.06,-44.27"/>
<text text-anchor="middle" x="293.25" y="-56.8" font-family="Courier New" font-size="9.00" fill="#00f3ff">Proxy /camera/api/ &amp; webrtc</text>
</g>
</g>
</svg>
