<?xml version="1.0" encoding="UTF-8" standalone="no"?>
<!DOCTYPE svg PUBLIC "-//W3C//DTD SVG 1.1//EN"
 "http://www.w3.org/Graphics/SVG/1.1/DTD/svg11.dtd">
<!-- Generated by graphviz version 2.43.0 (0)
 -->
<!-- Title: G Pages: 1 -->
<svg width="363pt" height="231pt"
 viewBox="0.00 0.00 363.00 231.00" xmlns="http://www.w3.org/2000/svg" xmlns:xlink="http://www.w3.org/1999/xlink">
<g id="graph0" class="graph" transform="scale(1 1) rotate(0) translate(4 227)">
<title>G</title>
<polygon fill="#0d0e15" stroke="transparent" points="-4,4 -4,-227 359,-227 359,4 -4,4"/>
<text text-anchor="middle" x="177.5" y="-207.8" font-family="Courier New" font-size="14.00" fill="#ffffff">S3.4: ffmpeg segmentation loop on Worlock</text>
<!-- rpi4_stream -->
<g id="node1" class="node">
<title>rpi4_stream</title>
<path fill="#1a1c28" stroke="#ffff00" stroke-width="2" d="M230.25,-200C230.25,-200 105.25,-200 105.25,-200 99.25,-200 93.25,-194 93.25,-188 93.25,-188 93.25,-176 93.25,-176 93.25,-170 99.25,-164 105.25,-164 105.25,-164 230.25,-164 230.25,-164 236.25,-164 242.25,-170 242.25,-176 242.25,-176 242.25,-188 242.25,-188 242.25,-194 236.25,-200 230.25,-200"/>
<text text-anchor="middle" x="167.75" y="-179.5" font-family="Courier New" font-size="10.00" fill="#ffffff">Rpi4 Persistent Stream</text>
</g>
<!-- ffmpeg_rec -->
<g id="node2" class="node">
<title>ffmpeg_rec</title>
<path fill="#1a1c28" stroke="#00ff66" stroke-width="2" d="M242.25,-118C242.25,-118 93.25,-118 93.25,-118 87.25,-118 81.25,-112 81.25,-106 81.25,-106 81.25,-94 81.25,-94 81.25,-88 87.25,-82 93.25,-82 93.25,-82 242.25,-82 242.25,-82 248.25,-82 254.25,-88 254.25,-94 254.25,-94 254.25,-106 254.25,-106 254.25,-112 248.25,-118 242.25,-118"/>
<text text-anchor="middle" x="167.75" y="-103" font-family="Courier New" font-size="10.00" fill="#ffffff">ffmpeg Segmenter</text>
<text text-anchor="middle" x="167.75" y="-92" font-family="Courier New" font-size="10.00" fill="#ffffff">(hikvision&#45;record.service)</text>
</g>
<!-- rpi4_stream&#45;&gt;ffmpeg_rec -->
<g id="edge1" class="edge">
<title>rpi4_stream&#45;&gt;ffmpeg_rec</title>
<path fill="none" stroke="#ff007f" stroke-width="1.5" d="M167.75,-163.64C167.75,-152.66 167.75,-138.29 167.75,-126.09"/>
<polygon fill="#ff007f" stroke="#ff007f" stroke-width="1.5" points="170.55,-126.05 167.75,-118.05 164.95,-126.05 170.55,-126.05"/>
<text text-anchor="middle" x="196.75" y="-138.8" font-family="Courier New" font-size="9.00" fill="#00f3ff">TCP Ingress</text>
</g>
<!-- mkv_files -->
<g id="node3" class="node">
<title>mkv_files</title>
<path fill="#1a1c28" stroke="#00f3ff" stroke-width="2" d="M239.25,-36C239.25,-36 96.25,-36 96.25,-36 90.25,-36 84.25,-30 84.25,-24 84.25,-24 84.25,-12 84.25,-12 84.25,-6 90.25,0 96.25,0 96.25,0 239.25,0 239.25,0 245.25,0 251.25,-6 251.25,-12 251.25,-12 251.25,-24 251.25,-24 251.25,-30 245.25,-36 239.25,-36"/>
<text text-anchor="middle" x="167.75" y="-21" font-family="Courier New" font-size="10.00" fill="#ffffff">3&#45;Minute MKV Segments</text>
<text text-anchor="middle" x="167.75" y="-10" font-family="Courier New" font-size="10.00" fill="#ffffff">(seg_*.mkv on local disk)</text>
</g>
<!-- ffmpeg_rec&#45;&gt;mkv_files -->
<g id="edge2" class="edge">
<title>ffmpeg_rec&#45;&gt;mkv_files</title>
<path fill="none" stroke="#ff007f" stroke-width="1.5" d="M167.75,-81.64C167.75,-70.66 167.75,-56.29 167.75,-44.09"/>
<polygon fill="#ff007f" stroke="#ff007f" stroke-width="1.5" points="170.55,-44.05 167.75,-36.05 164.95,-44.05 170.55,-44.05"/>
<text text-anchor="middle" x="220.75" y="-56.8" font-family="Courier New" font-size="9.00" fill="#00f3ff">Zero&#45;loss file split</text>
</g>
</g>
</svg>
