<?xml version="1.0" encoding="UTF-8" standalone="no"?>
<!DOCTYPE svg PUBLIC "-//W3C//DTD SVG 1.1//EN"
 "http://www.w3.org/Graphics/SVG/1.1/DTD/svg11.dtd">
<!-- Generated by graphviz version 2.43.0 (0)
 -->
<!-- Title: G Pages: 1 -->
<svg width="297pt" height="313pt"
 viewBox="0.00 0.00 297.00 313.00" xmlns="http://www.w3.org/2000/svg" xmlns:xlink="http://www.w3.org/1999/xlink">
<g id="graph0" class="graph" transform="scale(1 1) rotate(0) translate(4 309)">
<title>G</title>
<polygon fill="#0d0e15" stroke="transparent" points="-4,4 -4,-309 293,-309 293,4 -4,4"/>
<text text-anchor="middle" x="144.5" y="-289.8" font-family="Courier New" font-size="14.00" fill="#ffffff">S4.1: Intel X540&#45;T2 NIC Hardening</text>
<!-- net_bursts -->
<g id="node1" class="node">
<title>net_bursts</title>
<path fill="#1a1c28" stroke="#ffff00" stroke-width="2" d="M211.25,-282C211.25,-282 56.25,-282 56.25,-282 50.25,-282 44.25,-276 44.25,-270 44.25,-270 44.25,-258 44.25,-258 44.25,-252 50.25,-246 56.25,-246 56.25,-246 211.25,-246 211.25,-246 217.25,-246 223.25,-252 223.25,-258 223.25,-258 223.25,-270 223.25,-270 223.25,-276 217.25,-282 211.25,-282"/>
<text text-anchor="middle" x="133.75" y="-261.5" font-family="Courier New" font-size="10.00" fill="#ffffff">Micro&#45;burst Network Traffic</text>
</g>
<!-- ring_buffers -->
<g id="node2" class="node">
<title>ring_buffers</title>
<path fill="#1a1c28" stroke="#00ff66" stroke-width="2" d="M205.25,-200C205.25,-200 62.25,-200 62.25,-200 56.25,-200 50.25,-194 50.25,-188 50.25,-188 50.25,-176 50.25,-176 50.25,-170 56.25,-164 62.25,-164 62.25,-164 205.25,-164 205.25,-164 211.25,-164 217.25,-170 217.25,-176 217.25,-176 217.25,-188 217.25,-188 217.25,-194 211.25,-200 205.25,-200"/>
<text text-anchor="middle" x="133.75" y="-185" font-family="Courier New" font-size="10.00" fill="#ffffff">Ring Buffers</text>
<text text-anchor="middle" x="133.75" y="-174" font-family="Courier New" font-size="10.00" fill="#ffffff">(Increased to 8192 RX/TX)</text>
</g>
<!-- net_bursts&#45;&gt;ring_buffers -->
<g id="edge1" class="edge">
<title>net_bursts&#45;&gt;ring_buffers</title>
<path fill="none" stroke="#ff007f" stroke-width="1.5" d="M133.75,-245.64C133.75,-234.66 133.75,-220.29 133.75,-208.09"/>
<polygon fill="#ff007f" stroke="#ff007f" stroke-width="1.5" points="136.55,-208.05 133.75,-200.05 130.95,-208.05 136.55,-208.05"/>
<text text-anchor="middle" x="178.75" y="-220.8" font-family="Courier New" font-size="9.00" fill="#00f3ff">Buffer absorption</text>
</g>
<!-- interrupts -->
<g id="node3" class="node">
<title>interrupts</title>
<path fill="#1a1c28" stroke="#00f3ff" stroke-width="2" d="M190.25,-118C190.25,-118 77.25,-118 77.25,-118 71.25,-118 65.25,-112 65.25,-106 65.25,-106 65.25,-94 65.25,-94 65.25,-88 71.25,-82 77.25,-82 77.25,-82 190.25,-82 190.25,-82 196.25,-82 202.25,-88 202.25,-94 202.25,-94 202.25,-106 202.25,-106 202.25,-112 196.25,-118 190.25,-118"/>
<text text-anchor="middle" x="133.75" y="-103" font-family="Courier New" font-size="10.00" fill="#ffffff">Interrupt Coalescing</text>
<text text-anchor="middle" x="133.75" y="-92" font-family="Courier New" font-size="10.00" fill="#ffffff">(Optimized at 96us)</text>
</g>
<!-- ring_buffers&#45;&gt;interrupts -->
<g id="edge2" class="edge">
<title>ring_buffers&#45;&gt;interrupts</title>
<path fill="none" stroke="#ff007f" stroke-width="1.5" d="M133.75,-163.64C133.75,-152.66 133.75,-138.29 133.75,-126.09"/>
<polygon fill="#ff007f" stroke="#ff007f" stroke-width="1.5" points="136.55,-126.05 133.75,-118.05 130.95,-126.05 136.55,-126.05"/>
<text text-anchor="middle" x="189.25" y="-138.8" font-family="Courier New" font-size="9.00" fill="#00f3ff">Decreased packet rate</text>
</g>
<!-- kernel -->
<g id="node4" class="node">
<title>kernel</title>
<path fill="#1a1c28" stroke="#ff007f" stroke-width="2" d="M187.25,-36C187.25,-36 80.25,-36 80.25,-36 74.25,-36 68.25,-30 68.25,-24 68.25,-24 68.25,-12 68.25,-12 68.25,-6 74.25,0 80.25,0 80.25,0 187.25,0 187.25,0 193.25,0 199.25,-6 199.25,-12 199.25,-12 199.25,-24 199.25,-24 199.25,-30 193.25,-36 187.25,-36"/>
<text text-anchor="middle" x="133.75" y="-15.5" font-family="Courier New" font-size="10.00" fill="#ffffff">Linux Network Stack</text>
</g>
<!-- interrupts&#45;&gt;kernel -->
<g id="edge3" class="edge">
<title>interrupts&#45;&gt;kernel</title>
<path fill="none" stroke="#ff007f" stroke-width="1.5" d="M133.75,-81.64C133.75,-70.66 133.75,-56.29 133.75,-44.09"/>
<polygon fill="#ff007f" stroke="#ff007f" stroke-width="1.5" points="136.55,-44.05 133.75,-36.05 130.95,-44.05 136.55,-44.05"/>
<text text-anchor="middle" x="178.75" y="-56.8" font-family="Courier New" font-size="9.00" fill="#00f3ff">Zero packet drops</text>
</g>
</g>
</svg>
