<?xml version="1.0" encoding="UTF-8" standalone="no"?>
<!DOCTYPE svg PUBLIC "-//W3C//DTD SVG 1.1//EN"
 "http://www.w3.org/Graphics/SVG/1.1/DTD/svg11.dtd">
<!-- Generated by graphviz version 2.43.0 (0)
 -->
<!-- Title: G Pages: 1 -->
<svg width="503pt" height="222pt"
 viewBox="0.00 0.00 503.00 222.00" xmlns="http://www.w3.org/2000/svg" xmlns:xlink="http://www.w3.org/1999/xlink">
<g id="graph0" class="graph" transform="scale(1 1) rotate(0) translate(4 218)">
<title>G</title>
<polygon fill="#0d0e15" stroke="transparent" points="-4,4 -4,-218 499,-218 499,4 -4,4"/>
<text text-anchor="middle" x="247.5" y="-198.8" font-family="Courier New" font-size="14.00" fill="#ffffff">S4.3: UFW Layer&#45;4 Noise Port Block</text>
<!-- udp_traffic -->
<g id="node1" class="node">
<title>udp_traffic</title>
<path fill="#1a1c28" stroke="#ffff00" stroke-width="2" d="M298,-191C298,-191 185,-191 185,-191 179,-191 173,-185 173,-179 173,-179 173,-167 173,-167 173,-161 179,-155 185,-155 185,-155 298,-155 298,-155 304,-155 310,-161 310,-167 310,-167 310,-179 310,-179 310,-185 304,-191 298,-191"/>
<text text-anchor="middle" x="241.5" y="-170.5" font-family="Courier New" font-size="10.00" fill="#ffffff">Incoming UDP Traffic</text>
</g>
<!-- ufw_firewall -->
<g id="node2" class="node">
<title>ufw_firewall</title>
<path fill="#1a1c28" stroke="#00ff66" stroke-width="2" d="M286,-118C286,-118 197,-118 197,-118 191,-118 185,-112 185,-106 185,-106 185,-94 185,-94 185,-88 191,-82 197,-82 197,-82 286,-82 286,-82 292,-82 298,-88 298,-94 298,-94 298,-106 298,-106 298,-112 292,-118 286,-118"/>
<text text-anchor="middle" x="241.5" y="-97.5" font-family="Courier New" font-size="10.00" fill="#ffffff">UFW Rules Engine</text>
</g>
<!-- udp_traffic&#45;&gt;ufw_firewall -->
<g id="edge1" class="edge">
<title>udp_traffic&#45;&gt;ufw_firewall</title>
<path fill="none" stroke="#ff007f" stroke-width="1.5" d="M241.5,-154.81C241.5,-146.18 241.5,-135.56 241.5,-126.03"/>
<polygon fill="#ff007f" stroke="#ff007f" stroke-width="1.5" points="244.3,-126.03 241.5,-118.03 238.7,-126.03 244.3,-126.03"/>
</g>
<!-- port_1900 -->
<g id="node3" class="node">
<title>port_1900</title>
<path fill="#1a1c28" stroke="#ff0000" stroke-width="2" d="M137,-36C137,-36 12,-36 12,-36 6,-36 0,-30 0,-24 0,-24 0,-12 0,-12 0,-6 6,0 12,0 12,0 137,0 137,0 143,0 149,-6 149,-12 149,-12 149,-24 149,-24 149,-30 143,-36 137,-36"/>
<text text-anchor="middle" x="74.5" y="-15.5" font-family="Courier New" font-size="10.00" fill="#ffffff">Port 1900 (UPnP Bloat)</text>
</g>
<!-- ufw_firewall&#45;&gt;port_1900 -->
<g id="edge2" class="edge">
<title>ufw_firewall&#45;&gt;port_1900</title>
<path fill="none" stroke="#ff007f" stroke-width="1.5" d="M194.29,-81.94C180.63,-76.6 165.81,-70.41 152.5,-64 137.88,-56.96 122.3,-48.23 108.93,-40.34"/>
<polygon fill="#ff007f" stroke="#ff007f" stroke-width="1.5" points="110.06,-37.75 101.76,-36.06 107.19,-42.56 110.06,-37.75"/>
<text text-anchor="middle" x="195" y="-56.8" font-family="Courier New" font-size="9.00" fill="#00f3ff">Denied (Dropped)</text>
</g>
<!-- port_5353 -->
<g id="node4" class="node">
<title>port_5353</title>
<path fill="#1a1c28" stroke="#ff0000" stroke-width="2" d="M304,-36C304,-36 179,-36 179,-36 173,-36 167,-30 167,-24 167,-24 167,-12 167,-12 167,-6 173,0 179,0 179,0 304,0 304,0 310,0 316,-6 316,-12 316,-12 316,-24 316,-24 316,-30 310,-36 304,-36"/>
<text text-anchor="middle" x="241.5" y="-15.5" font-family="Courier New" font-size="10.00" fill="#ffffff">Port 5353 (mDNS Noise)</text>
</g>
<!-- ufw_firewall&#45;&gt;port_5353 -->
<g id="edge3" class="edge">
<title>ufw_firewall&#45;&gt;port_5353</title>
<path fill="none" stroke="#ff007f" stroke-width="1.5" d="M241.5,-81.64C241.5,-70.66 241.5,-56.29 241.5,-44.09"/>
<polygon fill="#ff007f" stroke="#ff007f" stroke-width="1.5" points="244.3,-44.05 241.5,-36.05 238.7,-44.05 244.3,-44.05"/>
<text text-anchor="middle" x="284" y="-56.8" font-family="Courier New" font-size="9.00" fill="#00f3ff">Denied (Dropped)</text>
</g>
<!-- allowed_apps -->
<g id="node5" class="node">
<title>allowed_apps</title>
<path fill="#1a1c28" stroke="#00f3ff" stroke-width="2" d="M483,-36C483,-36 346,-36 346,-36 340,-36 334,-30 334,-24 334,-24 334,-12 334,-12 334,-6 340,0 346,0 346,0 483,0 483,0 489,0 495,-6 495,-12 495,-12 495,-24 495,-24 495,-30 489,-36 483,-36"/>
<text text-anchor="middle" x="414.5" y="-15.5" font-family="Courier New" font-size="10.00" fill="#ffffff">Protected Local Services</text>
</g>
<!-- ufw_firewall&#45;&gt;allowed_apps -->
<g id="edge4" class="edge">
<title>ufw_firewall&#45;&gt;allowed_apps</title>
<path fill="none" stroke="#ff007f" stroke-width="1.5" d="M288.13,-81.85C301.91,-76.46 316.94,-70.27 330.5,-64 346.1,-56.78 362.87,-48.01 377.3,-40.14"/>
<polygon fill="#ff007f" stroke="#ff007f" stroke-width="1.5" points="378.95,-42.43 384.61,-36.12 376.25,-37.52 378.95,-42.43"/>
<text text-anchor="middle" x="372.5" y="-56.8" font-family="Courier New" font-size="9.00" fill="#00f3ff">Forwarded</text>
</g>
</g>
</svg>
