<?xml version="1.0" encoding="UTF-8" standalone="no"?>
<!DOCTYPE svg PUBLIC "-//W3C//DTD SVG 1.1//EN"
 "http://www.w3.org/Graphics/SVG/1.1/DTD/svg11.dtd">
<!-- Generated by graphviz version 2.43.0 (0)
 -->
<!-- Title: G Pages: 1 -->
<svg width="322pt" height="231pt"
 viewBox="0.00 0.00 322.00 231.00" xmlns="http://www.w3.org/2000/svg" xmlns:xlink="http://www.w3.org/1999/xlink">
<g id="graph0" class="graph" transform="scale(1 1) rotate(0) translate(4 227)">
<title>G</title>
<polygon fill="#0d0e15" stroke="transparent" points="-4,4 -4,-227 318,-227 318,4 -4,4"/>
<text text-anchor="middle" x="157" y="-207.8" font-family="Courier New" font-size="14.00" fill="#ffffff">S4.4: Local IP Ingress &amp; Gateway Map</text>
<!-- worlock -->
<g id="node1" class="node">
<title>worlock</title>
<path fill="#1a1c28" stroke="#00ff66" stroke-width="2" d="M198.25,-200C198.25,-200 115.25,-200 115.25,-200 109.25,-200 103.25,-194 103.25,-188 103.25,-188 103.25,-176 103.25,-176 103.25,-170 109.25,-164 115.25,-164 115.25,-164 198.25,-164 198.25,-164 204.25,-164 210.25,-170 210.25,-176 210.25,-176 210.25,-188 210.25,-188 210.25,-194 204.25,-200 198.25,-200"/>
<text text-anchor="middle" x="156.75" y="-185" font-family="Courier New" font-size="10.00" fill="#ffffff">Worlock Desktop</text>
<text text-anchor="middle" x="156.75" y="-174" font-family="Courier New" font-size="10.00" fill="#ffffff">(192.168.1.85)</text>
</g>
<!-- gateway -->
<g id="node2" class="node">
<title>gateway</title>
<path fill="#1a1c28" stroke="#ffff00" stroke-width="2" d="M140.25,-118C140.25,-118 63.25,-118 63.25,-118 57.25,-118 51.25,-112 51.25,-106 51.25,-106 51.25,-94 51.25,-94 51.25,-88 57.25,-82 63.25,-82 63.25,-82 140.25,-82 140.25,-82 146.25,-82 152.25,-88 152.25,-94 152.25,-94 152.25,-106 152.25,-106 152.25,-112 146.25,-118 140.25,-118"/>
<text text-anchor="middle" x="101.75" y="-103" font-family="Courier New" font-size="10.00" fill="#ffffff">Router Gateway</text>
<text text-anchor="middle" x="101.75" y="-92" font-family="Courier New" font-size="10.00" fill="#ffffff">(192.168.1.1)</text>
</g>
<!-- worlock&#45;&gt;gateway -->
<g id="edge1" class="edge">
<title>worlock&#45;&gt;gateway</title>
<path fill="none" stroke="#ff007f" stroke-width="1.5" d="M142.32,-163.91C137.81,-158.32 132.93,-152.01 128.75,-146 124.17,-139.41 119.54,-132.02 115.44,-125.17"/>
<polygon fill="#ff007f" stroke="#ff007f" stroke-width="1.5" points="117.7,-123.48 111.23,-118.01 112.87,-126.32 117.7,-123.48"/>
<text text-anchor="middle" x="163.25" y="-138.8" font-family="Courier New" font-size="9.00" fill="#00f3ff">Default Route</text>
</g>
<!-- rpi4 -->
<g id="node3" class="node">
<title>rpi4</title>
<path fill="#1a1c28" stroke="#00f3ff" stroke-width="2" d="M242.25,-36C242.25,-36 165.25,-36 165.25,-36 159.25,-36 153.25,-30 153.25,-24 153.25,-24 153.25,-12 153.25,-12 153.25,-6 159.25,0 165.25,0 165.25,0 242.25,0 242.25,0 248.25,0 254.25,-6 254.25,-12 254.25,-12 254.25,-24 254.25,-24 254.25,-30 248.25,-36 242.25,-36"/>
<text text-anchor="middle" x="203.75" y="-21" font-family="Courier New" font-size="10.00" fill="#ffffff">Raspberry Pi 4</text>
<text text-anchor="middle" x="203.75" y="-10" font-family="Courier New" font-size="10.00" fill="#ffffff">(rpi4)</text>
</g>
<!-- worlock&#45;&gt;rpi4 -->
<g id="edge4" class="edge">
<title>worlock&#45;&gt;rpi4</title>
<path fill="none" stroke="#ff007f" stroke-width="1.5" d="M183.57,-163.65C189.22,-158.66 194.46,-152.72 197.75,-146 213.62,-113.63 211.68,-70.87 208.2,-44.15"/>
<polygon fill="#ff007f" stroke="#ff007f" stroke-width="1.5" points="210.95,-43.6 207.03,-36.08 205.4,-44.39 210.95,-43.6"/>
<text text-anchor="middle" x="257.25" y="-97.8" font-family="Courier New" font-size="9.00" fill="#00f3ff">Direct RTSP/WebRTC</text>
</g>
<!-- gateway&#45;&gt;rpi4 -->
<g id="edge3" class="edge">
<title>gateway&#45;&gt;rpi4</title>
<path fill="none" stroke="#ff007f" stroke-width="1.5" d="M97.72,-81.69C96.63,-72.63 97.04,-61.83 102.75,-54 105.74,-49.89 124.67,-42.89 145.34,-36.23"/>
<polygon fill="#ff007f" stroke="#ff007f" stroke-width="1.5" points="146.24,-38.88 153.01,-33.79 144.54,-33.54 146.24,-38.88"/>
<text text-anchor="middle" x="150.25" y="-56.8" font-family="Courier New" font-size="9.00" fill="#00f3ff">Local subnet route</text>
</g>
<!-- internet -->
<g id="node4" class="node">
<title>internet</title>
<path fill="#1a1c28" stroke="#ff007f" stroke-width="2" d="M116.25,-36C116.25,-36 21.25,-36 21.25,-36 15.25,-36 9.25,-30 9.25,-24 9.25,-24 9.25,-12 9.25,-12 9.25,-6 15.25,0 21.25,0 21.25,0 116.25,0 116.25,0 122.25,0 128.25,-6 128.25,-12 128.25,-12 128.25,-24 128.25,-24 128.25,-30 122.25,-36 116.25,-36"/>
<text text-anchor="middle" x="68.75" y="-15.5" font-family="Courier New" font-size="10.00" fill="#ffffff">External Internet</text>
</g>
<!-- gateway&#45;&gt;internet -->
<g id="edge2" class="edge">
<title>gateway&#45;&gt;internet</title>
<path fill="none" stroke="#ff007f" stroke-width="1.5" d="M91.59,-81.88C88.51,-76.3 85.28,-69.99 82.75,-64 80.11,-57.75 77.71,-50.82 75.67,-44.31"/>
<polygon fill="#ff007f" stroke="#ff007f" stroke-width="1.5" points="78.27,-43.24 73.3,-36.38 72.91,-44.84 78.27,-43.24"/>
</g>
</g>
</svg>
