<?xml version="1.0" encoding="UTF-8" standalone="no"?>
<!DOCTYPE svg PUBLIC "-//W3C//DTD SVG 1.1//EN"
 "http://www.w3.org/Graphics/SVG/1.1/DTD/svg11.dtd">
<!-- Generated by graphviz version 2.43.0 (0)
 -->
<!-- Title: G Pages: 1 -->
<svg width="338pt" height="377pt"
 viewBox="0.00 0.00 338.00 377.00" xmlns="http://www.w3.org/2000/svg" xmlns:xlink="http://www.w3.org/1999/xlink">
<g id="graph0" class="graph" transform="scale(1 1) rotate(0) translate(4 373)">
<title>G</title>
<polygon fill="#0d0e15" stroke="transparent" points="-4,4 -4,-373 334,-373 334,4 -4,4"/>
<text text-anchor="middle" x="165" y="-353.8" font-family="Courier New" font-size="14.00" fill="#ffffff">S4.5: Wireguard Remote Forensic Tunnel</text>
<!-- remote_client -->
<g id="node1" class="node">
<title>remote_client</title>
<path fill="#1a1c28" stroke="#ffff00" stroke-width="2" d="M227.5,-346C227.5,-346 102.5,-346 102.5,-346 96.5,-346 90.5,-340 90.5,-334 90.5,-334 90.5,-322 90.5,-322 90.5,-316 96.5,-310 102.5,-310 102.5,-310 227.5,-310 227.5,-310 233.5,-310 239.5,-316 239.5,-322 239.5,-322 239.5,-334 239.5,-334 239.5,-340 233.5,-346 227.5,-346"/>
<text text-anchor="middle" x="165" y="-325.5" font-family="Courier New" font-size="10.00" fill="#ffffff">Remote Operator Client</text>
</g>
<!-- internet -->
<g id="node2" class="node">
<title>internet</title>
<path fill="#1a1c28" stroke="#ff007f" stroke-width="2" d="M185.5,-264C185.5,-264 144.5,-264 144.5,-264 138.5,-264 132.5,-258 132.5,-252 132.5,-252 132.5,-240 132.5,-240 132.5,-234 138.5,-228 144.5,-228 144.5,-228 185.5,-228 185.5,-228 191.5,-228 197.5,-234 197.5,-240 197.5,-240 197.5,-252 197.5,-252 197.5,-258 191.5,-264 185.5,-264"/>
<text text-anchor="middle" x="165" y="-243.5" font-family="Courier New" font-size="10.00" fill="#ffffff">Internet</text>
</g>
<!-- remote_client&#45;&gt;internet -->
<g id="edge1" class="edge">
<title>remote_client&#45;&gt;internet</title>
<path fill="none" stroke="#ff007f" stroke-width="1.5" d="M165,-309.64C165,-298.66 165,-284.29 165,-272.09"/>
<polygon fill="#ff007f" stroke="#ff007f" stroke-width="1.5" points="167.8,-272.05 165,-264.05 162.2,-272.05 167.8,-272.05"/>
<text text-anchor="middle" x="202" y="-284.8" font-family="Courier New" font-size="9.00" fill="#00f3ff">Encrypted link</text>
</g>
<!-- wg_port -->
<g id="node3" class="node">
<title>wg_port</title>
<path fill="#1a1c28" stroke="#ffff00" stroke-width="2" d="M236.5,-191C236.5,-191 93.5,-191 93.5,-191 87.5,-191 81.5,-185 81.5,-179 81.5,-179 81.5,-167 81.5,-167 81.5,-161 87.5,-155 93.5,-155 93.5,-155 236.5,-155 236.5,-155 242.5,-155 248.5,-161 248.5,-167 248.5,-167 248.5,-179 248.5,-179 248.5,-185 242.5,-191 236.5,-191"/>
<text text-anchor="middle" x="165" y="-170.5" font-family="Courier New" font-size="10.00" fill="#ffffff">Port 51820 UDP forwarding</text>
</g>
<!-- internet&#45;&gt;wg_port -->
<g id="edge2" class="edge">
<title>internet&#45;&gt;wg_port</title>
<path fill="none" stroke="#ff007f" stroke-width="1.5" d="M165,-227.81C165,-219.18 165,-208.56 165,-199.03"/>
<polygon fill="#ff007f" stroke="#ff007f" stroke-width="1.5" points="167.8,-199.03 165,-191.03 162.2,-199.03 167.8,-199.03"/>
</g>
<!-- wg_if -->
<g id="node4" class="node">
<title>wg_if</title>
<path fill="#1a1c28" stroke="#00ff66" stroke-width="2" d="M236.5,-118C236.5,-118 93.5,-118 93.5,-118 87.5,-118 81.5,-112 81.5,-106 81.5,-106 81.5,-94 81.5,-94 81.5,-88 87.5,-82 93.5,-82 93.5,-82 236.5,-82 236.5,-82 242.5,-82 248.5,-88 248.5,-94 248.5,-94 248.5,-106 248.5,-106 248.5,-112 242.5,-118 236.5,-118"/>
<text text-anchor="middle" x="165" y="-103" font-family="Courier New" font-size="10.00" fill="#ffffff">Wireguard Interface (wg0)</text>
<text text-anchor="middle" x="165" y="-92" font-family="Courier New" font-size="10.00" fill="#ffffff">Virtual Network</text>
</g>
<!-- wg_port&#45;&gt;wg_if -->
<g id="edge3" class="edge">
<title>wg_port&#45;&gt;wg_if</title>
<path fill="none" stroke="#ff007f" stroke-width="1.5" d="M165,-154.81C165,-146.18 165,-135.56 165,-126.03"/>
<polygon fill="#ff007f" stroke="#ff007f" stroke-width="1.5" points="167.8,-126.03 165,-118.03 162.2,-126.03 167.8,-126.03"/>
</g>
<!-- local_lan -->
<g id="node5" class="node">
<title>local_lan</title>
<path fill="#1a1c28" stroke="#00f3ff" stroke-width="2" d="M215.5,-36C215.5,-36 114.5,-36 114.5,-36 108.5,-36 102.5,-30 102.5,-24 102.5,-24 102.5,-12 102.5,-12 102.5,-6 108.5,0 114.5,0 114.5,0 215.5,0 215.5,0 221.5,0 227.5,-6 227.5,-12 227.5,-12 227.5,-24 227.5,-24 227.5,-30 221.5,-36 215.5,-36"/>
<text text-anchor="middle" x="165" y="-21" font-family="Courier New" font-size="10.00" fill="#ffffff">Internal Local LAN</text>
<text text-anchor="middle" x="165" y="-10" font-family="Courier New" font-size="10.00" fill="#ffffff">(192.168.1.0/24)</text>
</g>
<!-- wg_if&#45;&gt;local_lan -->
<g id="edge4" class="edge">
<title>wg_if&#45;&gt;local_lan</title>
<path fill="none" stroke="#ff007f" stroke-width="1.5" d="M165,-81.64C165,-70.66 165,-56.29 165,-44.09"/>
<polygon fill="#ff007f" stroke="#ff007f" stroke-width="1.5" points="167.8,-44.05 165,-36.05 162.2,-44.05 167.8,-44.05"/>
<text text-anchor="middle" x="204.5" y="-56.8" font-family="Courier New" font-size="9.00" fill="#00f3ff">Full LAN Access</text>
</g>
</g>
</svg>
