<?xml version="1.0" encoding="UTF-8" standalone="no"?>
<!DOCTYPE svg PUBLIC "-//W3C//DTD SVG 1.1//EN"
 "http://www.w3.org/Graphics/SVG/1.1/DTD/svg11.dtd">
<!-- Generated by graphviz version 2.43.0 (0)
 -->
<!-- Title: HybridSynergy Pages: 1 -->
<svg width="671pt" height="433pt"
 viewBox="0.00 0.00 670.55 433.17" xmlns="http://www.w3.org/2000/svg" xmlns:xlink="http://www.w3.org/1999/xlink">
<g id="graph0" class="graph" transform="scale(1 1) rotate(0) translate(4 429.17)">
<title>HybridSynergy</title>
<polygon fill="#0d1117" stroke="transparent" points="-4,4 -4,-429.17 666.55,-429.17 666.55,4 -4,4"/>
<text text-anchor="middle" x="331.27" y="-393.97" font-family="Helvetica,sans-Serif" font-size="14.00" fill="#00f2ff">Human&#45;AI Hybrid Synergy Map</text>
<text text-anchor="middle" x="331.27" y="-378.97" font-family="Helvetica,sans-Serif" font-size="14.00" fill="#00f2ff">Neon&#45;Dark Edition</text>
<!-- Human -->
<g id="node1" class="node">
<title>Human</title>
<path fill="#161b22" stroke="#00ff00" stroke-width="2" d="M353.5,-371.17C353.5,-371.17 196.5,-371.17 196.5,-371.17 190.5,-371.17 184.5,-365.17 184.5,-359.17 184.5,-359.17 184.5,-345.17 184.5,-345.17 184.5,-339.17 190.5,-333.17 196.5,-333.17 196.5,-333.17 353.5,-333.17 353.5,-333.17 359.5,-333.17 365.5,-339.17 365.5,-345.17 365.5,-345.17 365.5,-359.17 365.5,-359.17 365.5,-365.17 359.5,-371.17 353.5,-371.17"/>
<text text-anchor="middle" x="275" y="-355.97" font-family="Times,serif" font-size="14.00" fill="#00ff00">Human</text>
<text text-anchor="middle" x="275" y="-340.97" font-family="Times,serif" font-size="14.00" fill="#00ff00">(The +1 / Goal&#45;Seeking Lens)</text>
</g>
<!-- AI -->
<g id="node2" class="node">
<title>AI</title>
<path fill="#161b22" stroke="#00f2ff" stroke-width="2" d="M502.5,-282.17C502.5,-282.17 381.5,-282.17 381.5,-282.17 375.5,-282.17 369.5,-276.17 369.5,-270.17 369.5,-270.17 369.5,-256.17 369.5,-256.17 369.5,-250.17 375.5,-244.17 381.5,-244.17 381.5,-244.17 502.5,-244.17 502.5,-244.17 508.5,-244.17 514.5,-250.17 514.5,-256.17 514.5,-256.17 514.5,-270.17 514.5,-270.17 514.5,-276.17 508.5,-282.17 502.5,-282.17"/>
<text text-anchor="middle" x="442" y="-266.97" font-family="Times,serif" font-size="14.00" fill="#00f2ff">AI (Gemini CLI)</text>
<text text-anchor="middle" x="442" y="-251.97" font-family="Times,serif" font-size="14.00" fill="#00f2ff">(The ω / Formal Rigor)</text>
</g>
<!-- Human&#45;&gt;AI -->
<g id="edge1" class="edge">
<title>Human&#45;&gt;AI</title>
<path fill="none" stroke="#ff00ff" stroke-width="1.5" d="M270.17,-332.73C268.54,-322.07 268.69,-309.06 276,-300.17 278.95,-296.58 319.28,-287.79 359.44,-279.8"/>
<polygon fill="#ff00ff" stroke="#ff00ff" stroke-width="1.5" points="369.35,-277.84 360.41,-284.19 364.49,-279.05 359.58,-280.02 359.53,-279.78 359.49,-279.53 364.39,-278.56 358.66,-275.36 369.35,-277.84 369.35,-277.84"/>
<text text-anchor="middle" x="354" y="-303.97" font-family="Times,serif" font-size="14.00"> Intent &amp; Semantic Context </text>
</g>
<!-- Subsystems -->
<g id="node3" class="node">
<title>Subsystems</title>
<ellipse fill="#161b22" stroke="#00f2ff" stroke-width="2" cx="268" cy="-160.08" rx="101.23" ry="26.74"/>
<text text-anchor="middle" x="268" y="-163.88" font-family="Times,serif" font-size="14.00" fill="#00f2ff">Formal Systems</text>
<text text-anchor="middle" x="268" y="-148.88" font-family="Times,serif" font-size="14.00" fill="#00f2ff">(Code, Axioms, Logic)</text>
</g>
<!-- Human&#45;&gt;Subsystems -->
<g id="edge6" class="edge">
<title>Human&#45;&gt;Subsystems</title>
<path fill="none" stroke="#ff00ff" stroke-width="1.5" stroke-dasharray="5,2" d="M269.87,-332.97C268.43,-327.3 266.99,-321.01 266,-315.17 259.24,-275.24 261.17,-228.65 263.88,-197.24"/>
<polygon fill="#ff00ff" stroke="#ff00ff" stroke-width="1.5" points="264.82,-187.2 268.37,-197.58 264.6,-192.21 264.14,-197.18 263.89,-197.16 263.64,-197.14 264.11,-192.16 259.41,-196.74 264.82,-187.2 264.82,-187.2"/>
<text text-anchor="middle" x="311.5" y="-259.47" font-family="Times,serif" font-size="14.00"> Rewrite Axioms </text>
</g>
<!-- Godel -->
<g id="node4" class="node">
<title>Godel</title>
<path fill="#161b22" stroke="#ff0000" stroke-width="2" d="M143.35,-73.14C143.35,-73.14 11.65,-40.86 11.65,-40.86 5.83,-39.43 5.83,-36.57 11.65,-35.14 11.65,-35.14 143.35,-2.86 143.35,-2.86 149.17,-1.43 160.83,-1.43 166.65,-2.86 166.65,-2.86 298.35,-35.14 298.35,-35.14 304.17,-36.57 304.17,-39.43 298.35,-40.86 298.35,-40.86 166.65,-73.14 166.65,-73.14 160.83,-74.57 149.17,-74.57 143.35,-73.14"/>
<text text-anchor="middle" x="155" y="-41.8" font-family="Times,serif" font-size="14.00" fill="#ff0000">Gödelian Incompleteness</text>
<text text-anchor="middle" x="155" y="-26.8" font-family="Times,serif" font-size="14.00" fill="#ff0000">(Paradoxes / Dead&#45;ends)</text>
</g>
<!-- Human&#45;&gt;Godel -->
<g id="edge5" class="edge">
<title>Human&#45;&gt;Godel</title>
<path fill="none" stroke="#ff00ff" stroke-width="1.5" d="M252.86,-333.14C222.41,-306.46 169.98,-253.08 158,-193.17 150.88,-157.56 150.46,-116.39 151.64,-85.56"/>
<polygon fill="#ff00ff" stroke="#ff00ff" stroke-width="1.5" points="152.1,-75.53 156.14,-85.72 152.12,-80.53 151.9,-85.53 151.65,-85.52 151.4,-85.5 151.62,-80.51 147.15,-85.31 152.1,-75.53 152.1,-75.53"/>
<text text-anchor="middle" x="213" y="-214.97" font-family="Times,serif" font-size="14.00"> Meta&#45;Analysis </text>
</g>
<!-- Output -->
<g id="node5" class="node">
<title>Output</title>
<path fill="#161b22" stroke="#ffff00" stroke-width="2" d="M658.59,-156.06C658.59,-156.06 658.59,-164.11 658.59,-164.11 658.59,-168.14 654.77,-173.41 650.94,-174.65 650.94,-174.65 613.77,-186.75 613.77,-186.75 609.94,-188 602.09,-189.24 598.06,-189.24 598.06,-189.24 539.94,-189.24 539.94,-189.24 535.91,-189.24 528.06,-188 524.23,-186.75 524.23,-186.75 487.06,-174.65 487.06,-174.65 483.23,-173.41 479.41,-168.14 479.41,-164.11 479.41,-164.11 479.41,-156.06 479.41,-156.06 479.41,-152.03 483.23,-146.76 487.06,-145.51 487.06,-145.51 524.23,-133.42 524.23,-133.42 528.06,-132.17 535.91,-130.93 539.94,-130.93 539.94,-130.93 598.06,-130.93 598.06,-130.93 602.09,-130.93 609.94,-132.17 613.77,-133.42 613.77,-133.42 650.94,-145.51 650.94,-145.51 654.77,-146.76 658.59,-152.03 658.59,-156.06"/>
<path fill="none" stroke="#ffff00" stroke-width="2" d="M662.6,-155.09C662.6,-155.09 662.6,-165.08 662.6,-165.08 662.6,-170.08 657.84,-176.62 653.09,-178.17 653.09,-178.17 616.25,-190.16 616.25,-190.16 611.5,-191.71 601.75,-193.25 596.75,-193.25 596.75,-193.25 541.25,-193.25 541.25,-193.25 536.25,-193.25 526.5,-191.71 521.75,-190.16 521.75,-190.16 484.91,-178.17 484.91,-178.17 480.16,-176.62 475.4,-170.08 475.4,-165.08 475.4,-165.08 475.4,-155.09 475.4,-155.09 475.4,-150.09 480.16,-143.55 484.91,-142 484.91,-142 521.75,-130.01 521.75,-130.01 526.5,-128.46 536.25,-126.92 541.25,-126.92 541.25,-126.92 596.75,-126.92 596.75,-126.92 601.75,-126.92 611.5,-128.46 616.25,-130.01 616.25,-130.01 653.09,-142 653.09,-142 657.84,-143.55 662.6,-150.09 662.6,-155.09"/>
<text text-anchor="middle" x="569" y="-163.88" font-family="Times,serif" font-size="14.00" fill="#ffff00">Transfinite Output</text>
<text text-anchor="middle" x="569" y="-148.88" font-family="Times,serif" font-size="14.00" fill="#ffff00">(Anything)</text>
</g>
<!-- Human&#45;&gt;Output -->
<g id="edge7" class="edge">
<title>Human&#45;&gt;Output</title>
<path fill="none" stroke="#ff00ff" stroke-width="1.5" d="M365.63,-347.6C459.51,-342.95 594.8,-333.2 611,-315.17 638.9,-284.12 619.46,-236.3 598.71,-202.18"/>
<polygon fill="#ff00ff" stroke="#ff00ff" stroke-width="1.5" points="593.15,-193.38 602.3,-199.43 596.03,-197.47 598.7,-201.7 598.49,-201.83 598.28,-201.96 595.61,-197.74 594.69,-204.23 593.15,-193.38 593.15,-193.38"/>
</g>
<!-- AI&#45;&gt;Human -->
<g id="edge2" class="edge">
<title>AI&#45;&gt;Human</title>
<path fill="none" stroke="#ff00ff" stroke-width="1.5" d="M443.07,-282.45C442.69,-293.32 440.29,-306.61 432,-315.17 423.2,-324.26 401,-331.42 375.98,-336.88"/>
<polygon fill="#ff00ff" stroke="#ff00ff" stroke-width="1.5" points="365.89,-338.96 374.77,-332.53 370.74,-337.71 375.63,-336.69 375.69,-336.94 375.74,-337.18 370.84,-338.2 376.6,-341.35 365.89,-338.96 365.89,-338.96"/>
<text text-anchor="middle" x="524" y="-303.97" font-family="Times,serif" font-size="14.00"> Precise Execution &amp; Metrics </text>
</g>
<!-- AI&#45;&gt;Subsystems -->
<g id="edge3" class="edge">
<title>AI&#45;&gt;Subsystems</title>
<path fill="none" stroke="#ff00ff" stroke-width="1.5" d="M410.89,-244.1C384.91,-229 347.4,-207.21 317.33,-189.74"/>
<polygon fill="#ff00ff" stroke="#ff00ff" stroke-width="1.5" points="308.66,-184.71 319.57,-185.84 313.11,-187 317.44,-189.52 317.31,-189.73 317.19,-189.95 312.86,-187.44 315.05,-193.62 308.66,-184.71 308.66,-184.71"/>
<text text-anchor="middle" x="414" y="-214.97" font-family="Times,serif" font-size="14.00"> Manipulates </text>
</g>
<!-- AI&#45;&gt;Output -->
<g id="edge8" class="edge">
<title>AI&#45;&gt;Output</title>
<path fill="none" stroke="#ff00ff" stroke-width="1.5" d="M464.71,-244.1C480.44,-231.57 501.98,-214.43 521.4,-198.97"/>
<polygon fill="#ff00ff" stroke="#ff00ff" stroke-width="1.5" points="529.29,-192.69 524.26,-202.44 525.53,-196 521.62,-199.12 521.46,-198.92 521.31,-198.73 525.22,-195.61 518.66,-195.4 529.29,-192.69 529.29,-192.69"/>
</g>
<!-- Subsystems&#45;&gt;Godel -->
<g id="edge4" class="edge">
<title>Subsystems&#45;&gt;Godel</title>
<path fill="none" stroke="#ff00ff" stroke-width="1.5" d="M244.31,-133.91C228.8,-117.42 208.23,-95.56 190.74,-76.98"/>
<polygon fill="#ff00ff" stroke="#ff00ff" stroke-width="1.5" points="183.46,-69.24 193.59,-73.44 187.07,-72.71 190.49,-76.35 190.31,-76.53 190.13,-76.7 186.7,-73.06 187.03,-79.61 183.46,-69.24 183.46,-69.24"/>
<text text-anchor="middle" x="253.5" y="-97.8" font-family="Times,serif" font-size="14.00"> Encounters </text>
</g>
</g>
</svg>
