<?xml version="1.0" encoding="UTF-8" standalone="no"?>
<!DOCTYPE svg PUBLIC "-//W3C//DTD SVG 1.1//EN"
 "http://www.w3.org/Graphics/SVG/1.1/DTD/svg11.dtd">
<!-- Generated by graphviz version 2.43.0 (0)
 -->
<!-- Title: TransfiniteLogo Pages: 1 -->
<svg width="508pt" height="561pt"
 viewBox="0.00 0.00 507.68 561.20" xmlns="http://www.w3.org/2000/svg" xmlns:xlink="http://www.w3.org/1999/xlink">
<g id="graph0" class="graph" transform="scale(1 1) rotate(0) translate(36 525.2)">
<title>TransfiniteLogo</title>
<polygon fill="#0d1117" stroke="transparent" points="-36,36 -36,-525.2 471.68,-525.2 471.68,36 -36,36"/>
<text text-anchor="middle" x="217.84" y="-7.8" font-family="Helvetica,sans-Serif" font-size="14.00" fill="#00f2ff">HYBRID DEVELOPMENT FRAMEWORK</text>
<!-- Human -->
<g id="node1" class="node">
<title>Human</title>
<text text-anchor="middle" x="34" y="-274" font-family="Times,serif" font-size="48.00" fill="#ffff00">✧</text>
<text text-anchor="middle" x="34" y="-221" font-family="Times,serif" font-size="48.00" fill="#ffff00">+1</text>
</g>
<!-- Singularity -->
<g id="node4" class="node">
<title>Singularity</title>
<polygon fill="#161b22" stroke="#00ff00" stroke-width="4" points="431.85,-77.89 431.85,-127.5 331.77,-162.58 190.23,-162.58 90.15,-127.5 90.15,-77.89 190.23,-42.81 331.77,-42.81 431.85,-77.89"/>
<polygon fill="none" stroke="#00ff00" stroke-width="4" points="435.85,-75.05 435.85,-130.35 332.45,-166.6 189.55,-166.6 86.15,-130.35 86.15,-75.05 189.55,-38.8 332.45,-38.8 435.85,-75.05"/>
<text text-anchor="middle" x="261" y="-112.1" font-family="Times,serif" font-size="32.00" fill="#00ff00">TRANSFINITE</text>
<text text-anchor="middle" x="261" y="-77.1" font-family="Times,serif" font-size="32.00" fill="#00ff00">ENGINE</text>
</g>
<!-- Human&#45;&gt;Singularity -->
<g id="edge1" class="edge">
<title>Human&#45;&gt;Singularity</title>
<path fill="none" stroke="#ffff00" stroke-width="3" d="M68.02,-210.91C70.91,-207.89 73.92,-205.02 77,-202.4 98.96,-183.74 125.03,-167.15 150.54,-153.15"/>
</g>
<!-- AI -->
<g id="node2" class="node">
<title>AI</title>
<text text-anchor="middle" x="114" y="-274" font-family="Times,serif" font-size="48.00" fill="#00f2ff">⬢</text>
<text text-anchor="middle" x="114" y="-221" font-family="Times,serif" font-size="48.00" fill="#00f2ff">ω</text>
</g>
<!-- AI&#45;&gt;Singularity -->
<g id="edge2" class="edge">
<title>AI&#45;&gt;Singularity</title>
<path fill="none" stroke="#00f2ff" stroke-width="3" d="M141.64,-214.19C144.66,-210.1 147.8,-206.1 151,-202.4 161.81,-189.87 174.15,-177.38 186.57,-165.72"/>
</g>
<!-- Axiom -->
<g id="node3" class="node">
<title>Axiom</title>
<text text-anchor="middle" x="187" y="-274" font-family="Times,serif" font-size="48.00" fill="#ff00ff">◈</text>
<text text-anchor="middle" x="187" y="-221" font-family="Times,serif" font-size="48.00" fill="#ff00ff">Δ</text>
</g>
<!-- Axiom&#45;&gt;Singularity -->
<g id="edge3" class="edge">
<title>Axiom&#45;&gt;Singularity</title>
<path fill="none" stroke="#ff00ff" stroke-width="3" d="M213.93,-202.11C219.46,-190.53 225.33,-178.28 230.97,-166.49"/>
</g>
<!-- p1 -->
<g id="node5" class="node">
<title>p1</title>
<ellipse fill="#161b22" stroke="#161b22" cx="299" cy="-485.6" rx="3.6" ry="3.6"/>
</g>
<!-- p1&#45;&gt;Singularity -->
<g id="edge9" class="edge">
<title>p1&#45;&gt;Singularity</title>
<path fill="none" stroke="#161b22" d="M296.55,-482.83C285.64,-474.72 242,-439.8 242,-400.2 242,-400.2 242,-400.2 242,-355 242,-290.68 248.26,-217.37 253.6,-166.6"/>
</g>
<!-- p2 -->
<g id="node6" class="node">
<title>p2</title>
<ellipse fill="#161b22" stroke="#161b22" cx="299" cy="-442.4" rx="3.6" ry="3.6"/>
</g>
<!-- p1&#45;&gt;p2 -->
<g id="edge4" class="edge">
<title>p1&#45;&gt;p2</title>
<path fill="none" stroke="#161b22" d="M299,-481.89C299,-474.45 299,-453.69 299,-446.16"/>
</g>
<!-- p2&#45;&gt;Singularity -->
<g id="edge10" class="edge">
<title>p2&#45;&gt;Singularity</title>
<path fill="none" stroke="#161b22" d="M298.67,-438.48C296.04,-415.11 278.25,-257.01 268.09,-166.68"/>
</g>
<!-- p3 -->
<g id="node7" class="node">
<title>p3</title>
<ellipse fill="#161b22" stroke="#161b22" cx="318" cy="-399.2" rx="3.6" ry="3.6"/>
</g>
<!-- p2&#45;&gt;p3 -->
<g id="edge5" class="edge">
<title>p2&#45;&gt;p3</title>
<path fill="none" stroke="#161b22" d="M300.25,-438.69C303.68,-431.25 313.25,-410.49 316.72,-402.96"/>
</g>
<!-- p3&#45;&gt;Singularity -->
<g id="edge11" class="edge">
<title>p3&#45;&gt;Singularity</title>
<path fill="none" stroke="#161b22" d="M317.87,-395.4C317,-377.74 311.52,-279.9 294,-202.4 291.35,-190.68 287.85,-178.39 284.12,-166.61"/>
</g>
<!-- p4 -->
<g id="node8" class="node">
<title>p4</title>
<ellipse fill="#161b22" stroke="#161b22" cx="356" cy="-356" rx="3.6" ry="3.6"/>
</g>
<!-- p3&#45;&gt;p4 -->
<g id="edge6" class="edge">
<title>p3&#45;&gt;p4</title>
<path fill="none" stroke="#161b22" d="M320.04,-395.98C326.58,-388.9 346.95,-366.81 353.76,-359.43"/>
</g>
<!-- p4&#45;&gt;Singularity -->
<g id="edge12" class="edge">
<title>p4&#45;&gt;Singularity</title>
<path fill="none" stroke="#161b22" d="M356.03,-352.36C356.13,-337.16 355.44,-259.45 332,-202.4 326.95,-190.1 320.08,-177.87 312.6,-166.43"/>
</g>
<!-- p5 -->
<g id="node9" class="node">
<title>p5</title>
<ellipse fill="#161b22" stroke="#161b22" cx="388" cy="-259.4" rx="3.6" ry="3.6"/>
</g>
<!-- p4&#45;&gt;p5 -->
<g id="edge7" class="edge">
<title>p4&#45;&gt;p5</title>
<path fill="none" stroke="#161b22" d="M357.05,-352.2C359.44,-345.86 365.39,-329.89 370,-316.4 377,-295.91 384.75,-270.95 387.21,-262.98"/>
</g>
<!-- p5&#45;&gt;Singularity -->
<g id="edge13" class="edge">
<title>p5&#45;&gt;Singularity</title>
<path fill="none" stroke="#161b22" d="M387.63,-255.62C386.38,-247.06 381.74,-220.59 370,-202.4 361.35,-188.99 350.43,-176.25 338.86,-164.64"/>
</g>
<!-- p5&#45;&gt;p1 -->
<g id="edge8" class="edge">
<title>p5&#45;&gt;p1</title>
<path fill="none" stroke="#161b22" d="M387.79,-263.25C386.83,-275.28 382.34,-323.03 369,-359.6 349.56,-412.87 309.22,-470.4 300.63,-482.35"/>
</g>
</g>
</svg>
