<?xml version="1.0" encoding="UTF-8" standalone="no"?>
<!DOCTYPE svg PUBLIC "-//W3C//DTD SVG 1.1//EN"
 "http://www.w3.org/Graphics/SVG/1.1/DTD/svg11.dtd">
<!-- Generated by graphviz version 2.43.0 (0)
 -->
<!-- Title: G Pages: 1 -->
<svg width="920pt" height="186pt"
 viewBox="0.00 0.00 920.00 186.00" xmlns="http://www.w3.org/2000/svg" xmlns:xlink="http://www.w3.org/1999/xlink">
<g id="graph0" class="graph" transform="scale(1 1) rotate(0) translate(4 182)">
<title>G</title>
<polygon fill="white" stroke="transparent" points="-4,4 -4,-182 916,-182 916,4 -4,4"/>
<g id="clust1" class="cluster">
<title>cluster_systemd</title>
<polygon fill="none" stroke="blue" stroke-dasharray="5,2" points="229,-75 229,-150 369,-150 369,-75 229,-75"/>
<text text-anchor="middle" x="299" y="-134.8" font-family="Times,serif" font-size="14.00">Systemd Management</text>
</g>
<g id="clust2" class="cluster">
<title>cluster_processes</title>
<polygon fill="lightgrey" stroke="lightgrey" points="478,-8 478,-137 904,-137 904,-8 478,-8"/>
<text text-anchor="middle" x="691" y="-121.8" font-family="Times,serif" font-size="14.00">Active Processes</text>
</g>
<g id="clust3" class="cluster">
<title>cluster_tools</title>
<polygon fill="none" stroke="black" points="0,-41 0,-170 130,-170 130,-41 0,-41"/>
<text text-anchor="middle" x="65" y="-154.8" font-family="Times,serif" font-size="14.00">Management Scripts</text>
</g>
<!-- netdata.service -->
<g id="node1" class="node">
<title>netdata.service</title>
<polygon fill="lightblue" stroke="black" points="353,-119 245,-119 245,-83 353,-83 353,-119"/>
<text text-anchor="middle" x="299" y="-97.3" font-family="Arial" font-size="14.00">netdata.service</text>
</g>
<!-- netdata (Main) -->
<g id="node2" class="node">
<title>netdata (Main)</title>
<polygon fill="salmon" stroke="black" points="590,-106 486,-106 486,-70 590,-70 590,-106"/>
<text text-anchor="middle" x="538" y="-84.3" font-family="Arial" font-size="14.00">netdata (Main)</text>
</g>
<!-- netdata.service&#45;&gt;netdata (Main) -->
<g id="edge1" class="edge">
<title>netdata.service&#45;&gt;netdata (Main)</title>
<path fill="none" stroke="black" d="M353.19,-98.08C389.36,-96.1 437.35,-93.47 475.22,-91.39"/>
<polygon fill="black" stroke="black" points="475.82,-94.86 485.62,-90.82 475.44,-87.87 475.82,-94.86"/>
<text text-anchor="middle" x="423.5" y="-99.8" font-family="Times,serif" font-size="14.00">Starts</text>
</g>
<!-- apps.plugin -->
<g id="node3" class="node">
<title>apps.plugin</title>
<polygon fill="lightsalmon" stroke="black" points="755,-52 669,-52 669,-16 755,-16 755,-52"/>
<text text-anchor="middle" x="712" y="-30.3" font-family="Arial" font-size="14.00">apps.plugin</text>
</g>
<!-- netdata (Main)&#45;&gt;apps.plugin -->
<g id="edge2" class="edge">
<title>netdata (Main)&#45;&gt;apps.plugin</title>
<path fill="none" stroke="black" d="M590.14,-71.94C611.87,-65.12 637.16,-57.18 658.99,-50.33"/>
<polygon fill="black" stroke="black" points="660.25,-53.6 668.74,-47.27 658.15,-46.92 660.25,-53.6"/>
<text text-anchor="middle" x="629.5" y="-69.8" font-family="Times,serif" font-size="14.00">Spawns</text>
</g>
<!-- ebpf.plugin -->
<g id="node4" class="node">
<title>ebpf.plugin</title>
<polygon fill="lightsalmon" stroke="black" points="753.5,-106 670.5,-106 670.5,-70 753.5,-70 753.5,-106"/>
<text text-anchor="middle" x="712" y="-84.3" font-family="Arial" font-size="14.00">ebpf.plugin</text>
</g>
<!-- netdata (Main)&#45;&gt;ebpf.plugin -->
<g id="edge3" class="edge">
<title>netdata (Main)&#45;&gt;ebpf.plugin</title>
<path fill="none" stroke="black" d="M590.14,-88C612.28,-88 638.13,-88 660.23,-88"/>
<polygon fill="black" stroke="black" points="660.42,-91.5 670.42,-88 660.42,-84.5 660.42,-91.5"/>
<text text-anchor="middle" x="629.5" y="-91.8" font-family="Times,serif" font-size="14.00">Spawns</text>
</g>
<!-- nvidia&#45;smi -->
<g id="node5" class="node">
<title>nvidia&#45;smi</title>
<polygon fill="lightsalmon" stroke="black" points="896,-106 818,-106 818,-70 896,-70 896,-106"/>
<text text-anchor="middle" x="857" y="-84.3" font-family="Arial" font-size="14.00">nvidia&#45;smi</text>
</g>
<!-- ebpf.plugin&#45;&gt;nvidia&#45;smi -->
<g id="edge4" class="edge">
<title>ebpf.plugin&#45;&gt;nvidia&#45;smi</title>
<path fill="none" stroke="black" d="M753.6,-88C770.44,-88 790.11,-88 807.69,-88"/>
<polygon fill="black" stroke="black" points="807.76,-91.5 817.76,-88 807.76,-84.5 807.76,-91.5"/>
<text text-anchor="middle" x="786.5" y="-91.8" font-family="Times,serif" font-size="14.00">Uses</text>
</g>
<!-- stop.sh -->
<g id="node6" class="node">
<title>stop.sh</title>
<polygon fill="lightgreen" stroke="black" points="94.5,-85 34.5,-85 34.5,-49 94.5,-49 94.5,-85"/>
<text text-anchor="middle" x="64.5" y="-63.3" font-family="Arial" font-size="14.00">stop.sh</text>
</g>
<!-- stop.sh&#45;&gt;netdata.service -->
<g id="edge5" class="edge">
<title>stop.sh&#45;&gt;netdata.service</title>
<path fill="none" stroke="black" d="M94.65,-71.1C125.54,-75.47 175.72,-82.61 219,-89 224.1,-89.75 229.39,-90.54 234.7,-91.34"/>
<polygon fill="black" stroke="black" points="234.48,-94.84 244.89,-92.87 235.52,-87.92 234.48,-94.84"/>
<text text-anchor="middle" x="179.5" y="-92.8" font-family="Times,serif" font-size="14.00">systemctl stop</text>
</g>
<!-- stop.sh&#45;&gt;netdata (Main) -->
<g id="edge6" class="edge">
<title>stop.sh&#45;&gt;netdata (Main)</title>
<path fill="none" stroke="red" d="M94.87,-63.4C149.14,-57.32 268.74,-46.54 369,-56 404.74,-59.37 444.2,-66.7 475.89,-73.49"/>
<polygon fill="red" stroke="red" points="475.37,-76.96 485.89,-75.67 476.86,-70.12 475.37,-76.96"/>
<text text-anchor="middle" x="299" y="-59.8" font-family="Times,serif" font-size="14.00">kill &#45;9 (orphans)</text>
</g>
<!-- stop.sh&#45;&gt;apps.plugin -->
<g id="edge7" class="edge">
<title>stop.sh&#45;&gt;apps.plugin</title>
<path fill="none" stroke="red" d="M94.65,-59.08C108.31,-55.7 124.88,-52.06 140,-50 329.58,-24.22 557.7,-28.21 658.61,-31.74"/>
<polygon fill="red" stroke="red" points="658.72,-35.25 668.84,-32.11 658.98,-28.25 658.72,-35.25"/>
<text text-anchor="middle" x="423.5" y="-35.8" font-family="Times,serif" font-size="14.00">kill &#45;9 (orphans)</text>
</g>
<!-- status.sh -->
<g id="node7" class="node">
<title>status.sh</title>
<polygon fill="lightgreen" stroke="black" points="100,-139 29,-139 29,-103 100,-103 100,-139"/>
<text text-anchor="middle" x="64.5" y="-117.3" font-family="Arial" font-size="14.00">status.sh</text>
</g>
<!-- status.sh&#45;&gt;netdata.service -->
<g id="edge8" class="edge">
<title>status.sh&#45;&gt;netdata.service</title>
<path fill="none" stroke="black" d="M100.06,-118.03C135.42,-114.99 191.19,-110.19 234.53,-106.46"/>
<polygon fill="black" stroke="black" points="235.03,-109.93 244.7,-105.59 234.43,-102.96 235.03,-109.93"/>
<text text-anchor="middle" x="179.5" y="-117.8" font-family="Times,serif" font-size="14.00">Checks</text>
</g>
<!-- status.sh&#45;&gt;netdata (Main) -->
<g id="edge9" class="edge">
<title>status.sh&#45;&gt;netdata (Main)</title>
<path fill="none" stroke="black" d="M100.35,-131.42C157.06,-146.89 272.66,-172.25 369,-154 412.86,-145.69 459.92,-126.2 493.04,-110.54"/>
<polygon fill="black" stroke="black" points="494.93,-113.51 502.43,-106.02 491.9,-107.2 494.93,-113.51"/>
<text text-anchor="middle" x="299" y="-163.8" font-family="Times,serif" font-size="14.00">Probes</text>
</g>
</g>
</svg>
