<?xml version="1.0" encoding="UTF-8" standalone="no"?>
<!DOCTYPE svg PUBLIC "-//W3C//DTD SVG 1.1//EN"
 "http://www.w3.org/Graphics/SVG/1.1/DTD/svg11.dtd">
<!-- Generated by graphviz version 2.43.0 (0)
 -->
<!-- Title: TemplateHierarchy Pages: 1 -->
<svg width="292pt" height="533pt"
 viewBox="0.00 0.00 292.00 533.00" xmlns="http://www.w3.org/2000/svg" xmlns:xlink="http://www.w3.org/1999/xlink">
<g id="graph0" class="graph" transform="scale(1 1) rotate(0) translate(4 529)">
<title>TemplateHierarchy</title>
<polygon fill="#0d1117" stroke="transparent" points="-4,4 -4,-529 288,-529 288,4 -4,4"/>
<text text-anchor="middle" x="142" y="-7.8" font-family="Helvetica,sans-Serif" font-size="14.00" fill="#00f2ff">A1: Template Ecosystem Hierarchy</text>
<g id="clust1" class="cluster">
<title>cluster_grounding</title>
<polygon fill="#0d1117" stroke="#00ff00" points="8,-379 8,-454 172,-454 172,-379 8,-379"/>
<text text-anchor="middle" x="90" y="-438.8" font-family="Helvetica,sans-Serif" font-size="14.00" fill="#00ff00">Grounding Layer</text>
</g>
<g id="clust2" class="cluster">
<title>cluster_execution</title>
<polygon fill="#0d1117" stroke="#00f2ff" points="32,-198 32,-360 160,-360 160,-198 32,-198"/>
<text text-anchor="middle" x="96" y="-344.8" font-family="Helvetica,sans-Serif" font-size="14.00" fill="#00f2ff">Execution Layer</text>
</g>
<g id="clust3" class="cluster">
<title>cluster_refinement</title>
<polygon fill="#0d1117" stroke="#ff00ff" points="29,-31 29,-179 177,-179 177,-31 29,-31"/>
<text text-anchor="middle" x="103" y="-163.8" font-family="Helvetica,sans-Serif" font-size="14.00" fill="#00f2ff">Refinement Layer</text>
</g>
<!-- Master -->
<g id="node1" class="node">
<title>Master</title>
<path fill="#161b22" stroke="#ffff00" d="M271.29,-500.51C271.29,-500.51 271.29,-505.49 271.29,-505.49 271.29,-507.97 268.83,-510.8 266.36,-511.14 266.36,-511.14 199.89,-520.32 199.89,-520.32 197.43,-520.66 192.48,-521 190,-521 190,-521 92,-521 92,-521 89.52,-521 84.57,-520.66 82.11,-520.32 82.11,-520.32 15.64,-511.14 15.64,-511.14 13.17,-510.8 10.71,-507.97 10.71,-505.49 10.71,-505.49 10.71,-500.51 10.71,-500.51 10.71,-498.03 13.17,-495.2 15.64,-494.86 15.64,-494.86 82.11,-485.68 82.11,-485.68 84.57,-485.34 89.52,-485 92,-485 92,-485 190,-485 190,-485 192.48,-485 197.43,-485.34 199.89,-485.68 199.89,-485.68 266.36,-494.86 266.36,-494.86 268.83,-495.2 271.29,-498.03 271.29,-500.51"/>
<path fill="none" stroke="#ffff00" d="M275.29,-499.35C275.29,-499.35 275.29,-506.65 275.29,-506.65 275.29,-510.29 271.68,-514.44 268.07,-514.94 268.07,-514.94 202.47,-524 202.47,-524 198.86,-524.5 191.6,-525 187.95,-525 187.95,-525 94.05,-525 94.05,-525 90.4,-525 83.14,-524.5 79.53,-524 79.53,-524 13.93,-514.94 13.93,-514.94 10.32,-514.44 6.71,-510.29 6.71,-506.65 6.71,-506.65 6.71,-499.35 6.71,-499.35 6.71,-495.71 10.32,-491.56 13.93,-491.06 13.93,-491.06 79.53,-482 79.53,-482 83.14,-481.5 90.4,-481 94.05,-481 94.05,-481 187.95,-481 187.95,-481 191.6,-481 198.86,-481.5 202.47,-482 202.47,-482 268.07,-491.06 268.07,-491.06 271.68,-491.56 275.29,-495.71 275.29,-499.35"/>
<text text-anchor="middle" x="141" y="-499.3" font-family="Times,serif" font-size="14.00" fill="#00f2ff">Project Axioms (GEMINI.md)</text>
</g>
<!-- Objective -->
<g id="node2" class="node">
<title>Objective</title>
<path fill="#161b22" stroke="#00ff00" d="M151.5,-423C151.5,-423 28.5,-423 28.5,-423 22.5,-423 16.5,-417 16.5,-411 16.5,-411 16.5,-399 16.5,-399 16.5,-393 22.5,-387 28.5,-387 28.5,-387 151.5,-387 151.5,-387 157.5,-387 163.5,-393 163.5,-399 163.5,-399 163.5,-411 163.5,-411 163.5,-417 157.5,-423 151.5,-423"/>
<text text-anchor="middle" x="90" y="-401.3" font-family="Times,serif" font-size="14.00" fill="#00f2ff">objective_definition.md</text>
</g>
<!-- Master&#45;&gt;Objective -->
<g id="edge1" class="edge">
<title>Master&#45;&gt;Objective</title>
<path fill="none" stroke="#ff00ff" d="M129.68,-480.69C122.05,-466.33 111.94,-447.29 103.83,-432.03"/>
<polygon fill="#ff00ff" stroke="#ff00ff" points="99.08,-423.09 107.74,-429.81 101.42,-427.51 103.77,-431.92 103.77,-431.92 103.77,-431.92 101.42,-427.51 99.8,-434.03 99.08,-423.09 99.08,-423.09"/>
</g>
<!-- Log -->
<g id="node3" class="node">
<title>Log</title>
<path fill="#161b22" stroke="#00f2ff" d="M131.5,-329C131.5,-329 54.5,-329 54.5,-329 48.5,-329 42.5,-323 42.5,-317 42.5,-317 42.5,-305 42.5,-305 42.5,-299 48.5,-293 54.5,-293 54.5,-293 131.5,-293 131.5,-293 137.5,-293 143.5,-299 143.5,-305 143.5,-305 143.5,-317 143.5,-317 143.5,-323 137.5,-329 131.5,-329"/>
<text text-anchor="middle" x="93" y="-307.3" font-family="Times,serif" font-size="14.00" fill="#00f2ff">session_log.md</text>
</g>
<!-- Objective&#45;&gt;Log -->
<g id="edge2" class="edge">
<title>Objective&#45;&gt;Log</title>
<path fill="none" stroke="#ff00ff" d="M90.56,-386.7C91,-373.46 91.6,-354.95 92.1,-339.66"/>
<polygon fill="#ff00ff" stroke="#ff00ff" points="92.44,-329.23 96.61,-339.37 92.28,-334.22 92.11,-339.22 92.11,-339.22 92.11,-339.22 92.28,-334.22 87.61,-339.07 92.44,-329.23 92.44,-329.23"/>
</g>
<!-- Drift -->
<g id="node4" class="node">
<title>Drift</title>
<path fill="#161b22" stroke="#00f2ff" d="M140,-242C140,-242 52,-242 52,-242 46,-242 40,-236 40,-230 40,-230 40,-218 40,-218 40,-212 46,-206 52,-206 52,-206 140,-206 140,-206 146,-206 152,-212 152,-218 152,-218 152,-230 152,-230 152,-236 146,-242 140,-242"/>
<text text-anchor="middle" x="96" y="-220.3" font-family="Times,serif" font-size="14.00" fill="#00f2ff">drift_analysis.md</text>
</g>
<!-- Log&#45;&gt;Drift -->
<g id="edge3" class="edge">
<title>Log&#45;&gt;Drift</title>
<path fill="none" stroke="#ff00ff" d="M93.61,-292.8C94.02,-281.16 94.57,-265.55 95.04,-252.24"/>
<polygon fill="#ff00ff" stroke="#ff00ff" points="95.39,-242.18 99.54,-252.33 95.22,-247.17 95.04,-252.17 95.04,-252.17 95.04,-252.17 95.22,-247.17 90.54,-252.01 95.39,-242.18 95.39,-242.18"/>
</g>
<!-- Pruning -->
<g id="node5" class="node">
<title>Pruning</title>
<path fill="#161b22" stroke="#00f2ff" d="M147.5,-148C147.5,-148 52.5,-148 52.5,-148 46.5,-148 40.5,-142 40.5,-136 40.5,-136 40.5,-124 40.5,-124 40.5,-118 46.5,-112 52.5,-112 52.5,-112 147.5,-112 147.5,-112 153.5,-112 159.5,-118 159.5,-124 159.5,-124 159.5,-136 159.5,-136 159.5,-142 153.5,-148 147.5,-148"/>
<text text-anchor="middle" x="100" y="-126.3" font-family="Times,serif" font-size="14.00" fill="#00f2ff">pruning_report.md</text>
</g>
<!-- Drift&#45;&gt;Pruning -->
<g id="edge4" class="edge">
<title>Drift&#45;&gt;Pruning</title>
<path fill="none" stroke="#ff00ff" d="M96.75,-205.7C97.33,-192.33 98.15,-173.59 98.82,-158.22"/>
<polygon fill="#ff00ff" stroke="#ff00ff" points="99.25,-148.23 103.31,-158.41 99.03,-153.22 98.82,-158.22 98.82,-158.22 98.82,-158.22 99.03,-153.22 94.32,-158.02 99.25,-148.23 99.25,-148.23"/>
</g>
<!-- Capability -->
<g id="node6" class="node">
<title>Capability</title>
<path fill="#161b22" stroke="#00f2ff" d="M156.5,-75C156.5,-75 49.5,-75 49.5,-75 43.5,-75 37.5,-69 37.5,-63 37.5,-63 37.5,-51 37.5,-51 37.5,-45 43.5,-39 49.5,-39 49.5,-39 156.5,-39 156.5,-39 162.5,-39 168.5,-45 168.5,-51 168.5,-51 168.5,-63 168.5,-63 168.5,-69 162.5,-75 156.5,-75"/>
<text text-anchor="middle" x="103" y="-53.3" font-family="Times,serif" font-size="14.00" fill="#00f2ff">capability_report.md</text>
</g>
<!-- Pruning&#45;&gt;Capability -->
<g id="edge5" class="edge">
<title>Pruning&#45;&gt;Capability</title>
<path fill="none" stroke="#ff00ff" d="M100.73,-111.81C101.07,-103.79 101.48,-94.05 101.86,-85.07"/>
<polygon fill="#ff00ff" stroke="#ff00ff" points="102.28,-75.03 106.35,-85.21 102.07,-80.02 101.86,-85.02 101.86,-85.02 101.86,-85.02 102.07,-80.02 97.36,-84.83 102.28,-75.03 102.28,-75.03"/>
</g>
<!-- Capability&#45;&gt;Master -->
<g id="edge6" class="edge">
<title>Capability&#45;&gt;Master</title>
<path fill="none" stroke="#ff00ff" stroke-dasharray="5,2" d="M148.54,-75.07C170.44,-86.51 192,-104.1 192,-129 192,-406 192,-406 192,-406 192,-430.33 179.07,-454.5 166.23,-472.5"/>
<polygon fill="#ff00ff" stroke="#ff00ff" points="159.99,-480.81 162.39,-470.11 162.99,-476.81 165.99,-472.81 165.99,-472.81 165.99,-472.81 162.99,-476.81 169.59,-475.52 159.99,-480.81 159.99,-480.81"/>
<text text-anchor="middle" x="238" y="-263.8" font-family="Times,serif" font-size="14.00"> Feedback Loop </text>
</g>
</g>
</svg>
