<?xml version="1.0" encoding="UTF-8" standalone="no"?>
<!DOCTYPE svg PUBLIC "-//W3C//DTD SVG 1.1//EN"
 "http://www.w3.org/Graphics/SVG/1.1/DTD/svg11.dtd">
<!-- Generated by graphviz version 2.43.0 (0)
 -->
<!-- Title: ConsensusVerification Pages: 1 -->
<svg width="304pt" height="241pt"
 viewBox="0.00 0.00 303.50 241.17" xmlns="http://www.w3.org/2000/svg" xmlns:xlink="http://www.w3.org/1999/xlink">
<g id="graph0" class="graph" transform="scale(1 1) rotate(0) translate(4 237.17)">
<title>ConsensusVerification</title>
<polygon fill="#0d1117" stroke="transparent" points="-4,4 -4,-237.17 299.5,-237.17 299.5,4 -4,4"/>
<text text-anchor="middle" x="147.75" y="-7.8" font-family="Helvetica,sans-Serif" font-size="14.00" fill="#00f2ff">A4: Multi&#45;Agent Consensus Verification Flow</text>
<!-- Gemini -->
<g id="node1" class="node">
<title>Gemini</title>
<path fill="#161b22" stroke="#00f2ff" d="M79,-233.17C79,-233.17 12,-233.17 12,-233.17 6,-233.17 0,-227.17 0,-221.17 0,-221.17 0,-209.17 0,-209.17 0,-203.17 6,-197.17 12,-197.17 12,-197.17 79,-197.17 79,-197.17 85,-197.17 91,-203.17 91,-209.17 91,-209.17 91,-221.17 91,-221.17 91,-227.17 85,-233.17 79,-233.17"/>
<text text-anchor="middle" x="45.5" y="-211.47" font-family="Times,serif" font-size="14.00" fill="#00f2ff">Gemini (ω&#45;1)</text>
</g>
<!-- ConsensusBoard -->
<g id="node4" class="node">
<title>ConsensusBoard</title>
<path fill="#161b22" stroke="#ffff00" d="M253.54,-124.06C253.54,-124.06 253.54,-132.11 253.54,-132.11 253.54,-136.14 249.67,-141.29 245.81,-142.41 245.81,-142.41 202.67,-154.99 202.67,-154.99 198.8,-156.12 190.91,-157.24 186.88,-157.24 186.88,-157.24 120.12,-157.24 120.12,-157.24 116.09,-157.24 108.2,-156.12 104.33,-154.99 104.33,-154.99 61.19,-142.41 61.19,-142.41 57.33,-141.29 53.46,-136.14 53.46,-132.11 53.46,-132.11 53.46,-124.06 53.46,-124.06 53.46,-120.03 57.33,-114.88 61.19,-113.75 61.19,-113.75 104.33,-101.18 104.33,-101.18 108.2,-100.05 116.09,-98.93 120.12,-98.93 120.12,-98.93 186.88,-98.93 186.88,-98.93 190.91,-98.93 198.8,-100.05 202.67,-101.18 202.67,-101.18 245.81,-113.75 245.81,-113.75 249.67,-114.88 253.54,-120.03 253.54,-124.06"/>
<path fill="none" stroke="#ffff00" d="M257.53,-123.05C257.53,-123.05 257.53,-133.11 257.53,-133.11 257.53,-138.14 252.7,-144.58 247.87,-145.99 247.87,-145.99 205.16,-158.44 205.16,-158.44 200.33,-159.84 190.47,-161.25 185.44,-161.25 185.44,-161.25 121.56,-161.25 121.56,-161.25 116.53,-161.25 106.67,-159.84 101.84,-158.44 101.84,-158.44 59.13,-145.99 59.13,-145.99 54.3,-144.58 49.47,-138.14 49.47,-133.11 49.47,-133.11 49.47,-123.05 49.47,-123.05 49.47,-118.02 54.3,-111.59 59.13,-110.18 59.13,-110.18 101.84,-97.73 101.84,-97.73 106.67,-96.32 116.53,-94.92 121.56,-94.92 121.56,-94.92 185.44,-94.92 185.44,-94.92 190.47,-94.92 200.33,-96.32 205.16,-97.73 205.16,-97.73 247.87,-110.18 247.87,-110.18 252.7,-111.59 257.53,-118.02 257.53,-123.05"/>
<text text-anchor="middle" x="153.5" y="-131.88" font-family="Times,serif" font-size="14.00" fill="#00f2ff">capability_report.md</text>
<text text-anchor="middle" x="153.5" y="-116.88" font-family="Times,serif" font-size="14.00" fill="#00f2ff">(Shared Consensus)</text>
</g>
<!-- Gemini&#45;&gt;ConsensusBoard -->
<g id="edge1" class="edge">
<title>Gemini&#45;&gt;ConsensusBoard</title>
<path fill="none" stroke="#ff00ff" d="M67.1,-197.15C77.9,-188.64 91.46,-177.96 104.61,-167.6"/>
<polygon fill="#ff00ff" stroke="#ff00ff" points="112.71,-161.22 107.64,-170.94 108.78,-164.31 104.86,-167.41 104.86,-167.41 104.86,-167.41 108.78,-164.31 102.07,-163.87 112.71,-161.22 112.71,-161.22"/>
</g>
<!-- Claude -->
<g id="node2" class="node">
<title>Claude</title>
<path fill="#161b22" stroke="#00f2ff" d="M185.5,-233.17C185.5,-233.17 121.5,-233.17 121.5,-233.17 115.5,-233.17 109.5,-227.17 109.5,-221.17 109.5,-221.17 109.5,-209.17 109.5,-209.17 109.5,-203.17 115.5,-197.17 121.5,-197.17 121.5,-197.17 185.5,-197.17 185.5,-197.17 191.5,-197.17 197.5,-203.17 197.5,-209.17 197.5,-209.17 197.5,-221.17 197.5,-221.17 197.5,-227.17 191.5,-233.17 185.5,-233.17"/>
<text text-anchor="middle" x="153.5" y="-211.47" font-family="Times,serif" font-size="14.00" fill="#00f2ff">Claude (ω&#45;2)</text>
</g>
<!-- Claude&#45;&gt;ConsensusBoard -->
<g id="edge2" class="edge">
<title>Claude&#45;&gt;ConsensusBoard</title>
<path fill="none" stroke="#ff00ff" d="M153.5,-196.95C153.5,-189.54 153.5,-180.52 153.5,-171.51"/>
<polygon fill="#ff00ff" stroke="#ff00ff" points="153.5,-161.42 158,-171.42 153.5,-166.42 153.5,-171.42 153.5,-171.42 153.5,-171.42 153.5,-166.42 149,-171.42 153.5,-161.42 153.5,-161.42"/>
</g>
<!-- Ollama -->
<g id="node3" class="node">
<title>Ollama</title>
<path fill="#161b22" stroke="#00f2ff" d="M283.5,-233.17C283.5,-233.17 227.5,-233.17 227.5,-233.17 221.5,-233.17 215.5,-227.17 215.5,-221.17 215.5,-221.17 215.5,-209.17 215.5,-209.17 215.5,-203.17 221.5,-197.17 227.5,-197.17 227.5,-197.17 283.5,-197.17 283.5,-197.17 289.5,-197.17 295.5,-203.17 295.5,-209.17 295.5,-209.17 295.5,-221.17 295.5,-221.17 295.5,-227.17 289.5,-233.17 283.5,-233.17"/>
<text text-anchor="middle" x="255.5" y="-211.47" font-family="Times,serif" font-size="14.00" fill="#00f2ff">Local (ω&#45;3)</text>
</g>
<!-- Ollama&#45;&gt;ConsensusBoard -->
<g id="edge3" class="edge">
<title>Ollama&#45;&gt;ConsensusBoard</title>
<path fill="none" stroke="#ff00ff" d="M234.86,-196.95C224.83,-188.58 212.34,-178.17 200.18,-168.02"/>
<polygon fill="#ff00ff" stroke="#ff00ff" points="192.27,-161.42 202.83,-164.37 196.11,-164.62 199.95,-167.83 199.95,-167.83 199.95,-167.83 196.11,-164.62 197.06,-171.28 192.27,-161.42 192.27,-161.42"/>
</g>
<!-- HumanAudit -->
<g id="node5" class="node">
<title>HumanAudit</title>
<path fill="#161b22" stroke="#00ff00" d="M141.63,-57.21C141.63,-57.21 45.89,-42.79 45.89,-42.79 39.95,-41.89 39.95,-40.11 45.89,-39.21 45.89,-39.21 141.63,-24.79 141.63,-24.79 147.57,-23.89 159.43,-23.89 165.37,-24.79 165.37,-24.79 261.11,-39.21 261.11,-39.21 267.05,-40.11 267.05,-41.89 261.11,-42.79 261.11,-42.79 165.37,-57.21 165.37,-57.21 159.43,-58.11 147.57,-58.11 141.63,-57.21"/>
<text text-anchor="middle" x="153.5" y="-37.3" font-family="Times,serif" font-size="14.00" fill="#00f2ff">Human Review (+1)</text>
</g>
<!-- ConsensusBoard&#45;&gt;HumanAudit -->
<g id="edge4" class="edge">
<title>ConsensusBoard&#45;&gt;HumanAudit</title>
<path fill="none" stroke="#ff00ff" d="M153.5,-94.92C153.5,-86.54 153.5,-77.59 153.5,-69.48"/>
<polygon fill="#ff00ff" stroke="#ff00ff" points="153.5,-59.42 158,-69.42 153.5,-64.42 153.5,-69.42 153.5,-69.42 153.5,-69.42 153.5,-64.42 149,-69.42 153.5,-59.42 153.5,-59.42"/>
</g>
</g>
</svg>
