<?xml version="1.0" encoding="UTF-8" standalone="no"?>
<!DOCTYPE svg PUBLIC "-//W3C//DTD SVG 1.1//EN"
 "http://www.w3.org/Graphics/SVG/1.1/DTD/svg11.dtd">
<!-- Generated by graphviz version 2.43.0 (0)
 -->
<!-- Title: KnowledgeLattice Pages: 1 -->
<svg width="301pt" height="292pt"
 viewBox="0.00 0.00 301.00 292.00" xmlns="http://www.w3.org/2000/svg" xmlns:xlink="http://www.w3.org/1999/xlink">
<g id="graph0" class="graph" transform="scale(1 1) rotate(0) translate(4 288)">
<title>KnowledgeLattice</title>
<polygon fill="#0d1117" stroke="transparent" points="-4,4 -4,-288 297,-288 297,4 -4,4"/>
<text text-anchor="middle" x="146.5" y="-7.8" font-family="Helvetica,sans-Serif" font-size="14.00" fill="#00f2ff">A5: Transfinite Knowledge Lattice Architecture</text>
<g id="clust1" class="cluster">
<title>cluster_lattice</title>
<polygon fill="#0d1117" stroke="#161b22" points="42.59,-31 42.59,-232 236.59,-232 236.59,-31 42.59,-31"/>
<text text-anchor="middle" x="139.59" y="-216.8" font-family="Helvetica,sans-Serif" font-size="14.00" fill="#00ff00">Transfinite Knowledge Lattice</text>
</g>
<!-- n1 -->
<g id="node1" class="node">
<title>n1</title>
<ellipse fill="#00f2ff" stroke="#00f2ff" cx="100.59" cy="-199.2" rx="1.8" ry="1.8"/>
</g>
<!-- n2 -->
<g id="node2" class="node">
<title>n2</title>
<ellipse fill="#00f2ff" stroke="#00f2ff" cx="134.59" cy="-159.6" rx="1.8" ry="1.8"/>
</g>
<!-- n1&#45;&gt;n2 -->
<g id="edge1" class="edge">
<title>n1&#45;&gt;n2</title>
<path fill="none" stroke="#00f2ff" d="M101.43,-197.27C106.17,-192.02 129.55,-166.17 133.89,-161.37"/>
</g>
<!-- n3 -->
<g id="node3" class="node">
<title>n3</title>
<ellipse fill="#00f2ff" stroke="#00f2ff" cx="145.59" cy="-120" rx="1.8" ry="1.8"/>
</g>
<!-- n1&#45;&gt;n3 -->
<g id="edge5" class="edge">
<title>n1&#45;&gt;n3</title>
<path fill="none" stroke="#00f2ff" d="M101.15,-197.2C103.7,-192.64 114.48,-173.42 123.59,-157.8 131.99,-143.4 142.53,-126.02 145.04,-121.91"/>
</g>
<!-- n2&#45;&gt;n3 -->
<g id="edge2" class="edge">
<title>n2&#45;&gt;n3</title>
<path fill="none" stroke="#00f2ff" d="M134.86,-157.67C136.34,-152.6 143.44,-128.33 145.2,-122.34"/>
</g>
<!-- n4 -->
<g id="node4" class="node">
<title>n4</title>
<ellipse fill="#00f2ff" stroke="#00f2ff" cx="166.59" cy="-80.4" rx="1.8" ry="1.8"/>
</g>
<!-- n2&#45;&gt;n4 -->
<g id="edge6" class="edge">
<title>n2&#45;&gt;n4</title>
<path fill="none" stroke="#00f2ff" d="M135.23,-157.74C138.16,-153.83 150.24,-137.22 156.59,-121.8 162.75,-106.83 165.78,-87.13 166.45,-82.43"/>
</g>
<!-- n3&#45;&gt;n4 -->
<g id="edge3" class="edge">
<title>n3&#45;&gt;n4</title>
<path fill="none" stroke="#00f2ff" d="M146.11,-118.07C149.04,-112.82 163.48,-86.97 166.16,-82.17"/>
</g>
<!-- n5 -->
<g id="node5" class="node">
<title>n5</title>
<ellipse fill="#00f2ff" stroke="#00f2ff" cx="166.59" cy="-40.8" rx="1.8" ry="1.8"/>
</g>
<!-- n3&#45;&gt;n5 -->
<g id="edge7" class="edge">
<title>n3&#45;&gt;n5</title>
<path fill="none" stroke="#00f2ff" d="M145.82,-118C146.86,-113.43 151.32,-94.21 155.59,-78.6 159.52,-64.19 164.99,-46.82 166.3,-42.71"/>
</g>
<!-- n4&#45;&gt;n5 -->
<g id="edge4" class="edge">
<title>n4&#45;&gt;n5</title>
<path fill="none" stroke="#00f2ff" d="M166.59,-78.47C166.59,-73.4 166.59,-49.13 166.59,-43.14"/>
</g>
<!-- Hub -->
<g id="node6" class="node">
<title>Hub</title>
<polygon fill="none" stroke="#ffff00" points="254.25,-254.54 254.25,-269.46 204.07,-280 133.11,-280 82.93,-269.46 82.93,-254.54 133.11,-244 204.07,-244 254.25,-254.54"/>
<polygon fill="none" stroke="#ffff00" points="258.24,-251.3 258.24,-272.7 204.48,-284 132.69,-284 78.93,-272.7 78.93,-251.3 132.69,-240 204.48,-240 258.24,-251.3"/>
<text text-anchor="middle" x="168.59" y="-258.3" font-family="Times,serif" font-size="14.00" fill="#ffff00">The Semantic Core</text>
</g>
<!-- Hub&#45;&gt;n1 -->
<g id="edge8" class="edge">
<title>Hub&#45;&gt;n1</title>
<path fill="none" stroke="#00f2ff" d="M127.14,-241.03C123.34,-238.3 119.73,-235.28 116.59,-232 107.01,-222 101.94,-205.15 100.83,-201.1"/>
</g>
<!-- Hub&#45;&gt;n2 -->
<g id="edge9" class="edge">
<title>Hub&#45;&gt;n2</title>
<path fill="none" stroke="#00f2ff" d="M157.9,-239.97C156.71,-237.31 155.58,-234.61 154.59,-232 144.03,-204.06 136.18,-168.12 134.8,-161.63"/>
</g>
<!-- Hub&#45;&gt;n3 -->
<g id="edge10" class="edge">
<title>Hub&#45;&gt;n3</title>
<path fill="none" stroke="#00f2ff" d="M165.09,-239.74C159.06,-203.02 147.2,-130.79 145.74,-121.9"/>
</g>
<!-- Hub&#45;&gt;n4 -->
<g id="edge11" class="edge">
<title>Hub&#45;&gt;n4</title>
<path fill="none" stroke="#00f2ff" d="M173.48,-239.85C173.94,-237.22 174.33,-234.56 174.59,-232 180.99,-169.49 168.36,-91.82 166.75,-82.36"/>
</g>
<!-- Hub&#45;&gt;n5 -->
<g id="edge12" class="edge">
<title>Hub&#45;&gt;n5</title>
<path fill="none" stroke="#00f2ff" d="M197.75,-239.75C219.19,-221.46 244.59,-192.95 244.59,-160.6 244.59,-160.6 244.59,-160.6 244.59,-119 244.59,-74.04 178.3,-46.37 167.94,-42.32"/>
</g>
</g>
</svg>
