<?xml version="1.0" encoding="UTF-8" standalone="no"?>
<!DOCTYPE svg PUBLIC "-//W3C//DTD SVG 1.1//EN"
 "http://www.w3.org/Graphics/SVG/1.1/DTD/svg11.dtd">
<!-- Generated by graphviz version 2.43.0 (0)
 -->
<!-- Title: MetaLeapInjection Pages: 1 -->
<svg width="332pt" height="439pt"
 viewBox="0.00 0.00 331.50 438.93" xmlns="http://www.w3.org/2000/svg" xmlns:xlink="http://www.w3.org/1999/xlink">
<g id="graph0" class="graph" transform="scale(1 1) rotate(0) translate(4 434.93)">
<title>MetaLeapInjection</title>
<polygon fill="#0d1117" stroke="transparent" points="-4,4 -4,-434.93 327.5,-434.93 327.5,4 -4,4"/>
<text text-anchor="middle" x="161.75" y="-7.8" font-family="Helvetica,sans-Serif" font-size="14.00" fill="#00f2ff">A3: The Meta&#45;Leap Injection Point</text>
<!-- Drift -->
<g id="node1" class="node">
<title>Drift</title>
<path fill="#161b22" stroke="#ff0000" d="M126,-430.93C126,-430.93 12,-430.93 12,-430.93 6,-430.93 0,-424.93 0,-418.93 0,-418.93 0,-406.93 0,-406.93 0,-400.93 6,-394.93 12,-394.93 12,-394.93 126,-394.93 126,-394.93 132,-394.93 138,-400.93 138,-406.93 138,-406.93 138,-418.93 138,-418.93 138,-424.93 132,-430.93 126,-430.93"/>
<text text-anchor="middle" x="69" y="-409.23" font-family="Times,serif" font-size="14.00" fill="#00f2ff">Severe Semantic Drift</text>
</g>
<!-- AxiomShift -->
<g id="node3" class="node">
<title>AxiomShift</title>
<path fill="#161b22" stroke="#00ff00" stroke-width="3" d="M280.51,-258.11C280.51,-258.11 198.7,-258.11 198.7,-258.11 192.7,-258.11 184.85,-263.82 183,-269.52 183,-269.52 157.7,-347.48 157.7,-347.48 155.85,-353.19 152.15,-353.19 150.3,-347.48 150.3,-347.48 125,-269.52 125,-269.52 123.15,-263.82 115.3,-258.11 109.3,-258.11 109.3,-258.11 27.49,-258.11 27.49,-258.11 21.49,-258.11 20.34,-254.58 25.19,-251.05 25.19,-251.05 91.39,-202.88 91.39,-202.88 96.24,-199.35 99.24,-190.11 97.39,-184.41 97.39,-184.41 72.1,-106.45 72.1,-106.45 70.25,-100.74 73.25,-98.57 78.1,-102.1 78.1,-102.1 144.3,-150.26 144.3,-150.26 149.15,-153.79 158.85,-153.79 163.7,-150.26 163.7,-150.26 229.9,-102.1 229.9,-102.1 234.75,-98.57 237.75,-100.74 235.9,-106.45 235.9,-106.45 210.61,-184.41 210.61,-184.41 208.76,-190.11 211.76,-199.35 216.61,-202.88 216.61,-202.88 282.81,-251.05 282.81,-251.05 287.66,-254.58 286.51,-258.11 280.51,-258.11"/>
<text text-anchor="middle" x="154" y="-230.76" font-family="Times,serif" font-size="14.00" fill="#00f2ff">axiom_shift.md</text>
<text text-anchor="middle" x="154" y="-215.76" font-family="Times,serif" font-size="14.00" fill="#00f2ff">(Injection Point)</text>
</g>
<!-- Drift&#45;&gt;AxiomShift -->
<g id="edge1" class="edge">
<title>Drift&#45;&gt;AxiomShift</title>
<path fill="none" stroke="#ff00ff" d="M77,-394.62C87.85,-371.12 107.85,-327.86 124.74,-291.3"/>
<polygon fill="#ff00ff" stroke="#ff00ff" points="128.96,-282.16 128.85,-293.13 126.86,-286.7 124.76,-291.24 124.76,-291.24 124.76,-291.24 126.86,-286.7 120.68,-289.35 128.96,-282.16 128.96,-282.16"/>
</g>
<!-- Limit -->
<g id="node2" class="node">
<title>Limit</title>
<path fill="#161b22" stroke="#ff0000" d="M311.5,-430.93C311.5,-430.93 168.5,-430.93 168.5,-430.93 162.5,-430.93 156.5,-424.93 156.5,-418.93 156.5,-418.93 156.5,-406.93 156.5,-406.93 156.5,-400.93 162.5,-394.93 168.5,-394.93 168.5,-394.93 311.5,-394.93 311.5,-394.93 317.5,-394.93 323.5,-400.93 323.5,-406.93 323.5,-406.93 323.5,-418.93 323.5,-418.93 323.5,-424.93 317.5,-430.93 311.5,-430.93"/>
<text text-anchor="middle" x="240" y="-409.23" font-family="Times,serif" font-size="14.00" fill="#00f2ff">Gödelian Wall Encountered</text>
</g>
<!-- Limit&#45;&gt;AxiomShift -->
<g id="edge2" class="edge">
<title>Limit&#45;&gt;AxiomShift</title>
<path fill="none" stroke="#ff00ff" d="M231.91,-394.62C220.88,-371.04 200.55,-327.55 183.43,-290.91"/>
<polygon fill="#ff00ff" stroke="#ff00ff" points="179.15,-281.76 187.46,-288.91 181.27,-286.29 183.38,-290.82 183.38,-290.82 183.38,-290.82 181.27,-286.29 179.31,-292.72 179.15,-281.76 179.15,-281.76"/>
</g>
<!-- Refactor -->
<g id="node4" class="node">
<title>Refactor</title>
<path fill="#161b22" stroke="#ffff00" d="M208,-59C208,-59 100,-59 100,-59 94,-59 88,-53 88,-47 88,-47 88,-35 88,-35 88,-29 94,-23 100,-23 100,-23 208,-23 208,-23 214,-23 220,-29 220,-35 220,-35 220,-47 220,-47 220,-53 214,-59 208,-59"/>
<text text-anchor="middle" x="154" y="-37.3" font-family="Times,serif" font-size="14.00" fill="#00f2ff">New Formal Axioms</text>
</g>
<!-- AxiomShift&#45;&gt;Refactor -->
<g id="edge3" class="edge">
<title>AxiomShift&#45;&gt;Refactor</title>
<path fill="none" stroke="#ff00ff" d="M154,-157.2C154,-126.72 154,-92.59 154,-69.45"/>
<polygon fill="#ff00ff" stroke="#ff00ff" points="154,-59.34 158.5,-69.34 154,-64.34 154,-69.34 154,-69.34 154,-69.34 154,-64.34 149.5,-69.34 154,-59.34 154,-59.34"/>
</g>
</g>
</svg>
