<?xml version="1.0" encoding="UTF-8" standalone="no"?>
<!DOCTYPE svg PUBLIC "-//W3C//DTD SVG 1.1//EN"
 "http://www.w3.org/Graphics/SVG/1.1/DTD/svg11.dtd">
<!-- Generated by graphviz version 2.43.0 (0)
 -->
<!-- Title: RecursiveDoc Pages: 1 -->
<svg width="426pt" height="300pt"
 viewBox="0.00 0.00 426.12 300.00" xmlns="http://www.w3.org/2000/svg" xmlns:xlink="http://www.w3.org/1999/xlink">
<g id="graph0" class="graph" transform="scale(1 1) rotate(0) translate(4 296)">
<title>RecursiveDoc</title>
<polygon fill="#0d1117" stroke="transparent" points="-4,4 -4,-296 422.12,-296 422.12,4 -4,4"/>
<text text-anchor="middle" x="209.06" y="-7.8" font-family="Helvetica,sans-Serif" font-size="14.00" fill="#00f2ff">A2: Recursive Documentation &amp; Knowledge Ingestion</text>
<!-- Fact -->
<g id="node1" class="node">
<title>Fact</title>
<path fill="#161b22" stroke="#ffff00" d="M349.76,-292C349.76,-292 207.29,-292 207.29,-292 201.29,-292 190.7,-288.14 186.11,-284.28 186.11,-284.28 161.65,-263.72 161.65,-263.72 157.06,-259.86 158.47,-256 164.47,-256 164.47,-256 306.94,-256 306.94,-256 312.94,-256 323.53,-259.86 328.12,-263.72 328.12,-263.72 352.58,-284.28 352.58,-284.28 357.17,-288.14 355.76,-292 349.76,-292"/>
<text text-anchor="middle" x="257.12" y="-270.3" font-family="Times,serif" font-size="14.00" fill="#00f2ff">New Fact/Insight</text>
</g>
<!-- Ingestion -->
<g id="node2" class="node">
<title>Ingestion</title>
<path fill="#161b22" stroke="#00f2ff" d="M239.12,-219C239.12,-219 145.12,-219 145.12,-219 139.12,-219 133.12,-213 133.12,-207 133.12,-207 133.12,-195 133.12,-195 133.12,-189 139.12,-183 145.12,-183 145.12,-183 239.12,-183 239.12,-183 245.12,-183 251.12,-189 251.12,-195 251.12,-195 251.12,-207 251.12,-207 251.12,-213 245.12,-219 239.12,-219"/>
<text text-anchor="middle" x="192.12" y="-197.3" font-family="Times,serif" font-size="14.00" fill="#00f2ff">Template Logging</text>
</g>
<!-- Fact&#45;&gt;Ingestion -->
<g id="edge1" class="edge">
<title>Fact&#45;&gt;Ingestion</title>
<path fill="none" stroke="#ff00ff" d="M241.38,-255.81C233.32,-247 223.36,-236.13 214.51,-226.46"/>
<polygon fill="#ff00ff" stroke="#ff00ff" points="207.71,-219.03 217.78,-223.37 211.08,-222.72 214.46,-226.4 214.46,-226.4 214.46,-226.4 211.08,-222.72 211.14,-229.44 207.71,-219.03 207.71,-219.03"/>
</g>
<!-- Synthesis -->
<g id="node3" class="node">
<title>Synthesis</title>
<path fill="#161b22" stroke="#00f2ff" d="M123.22,-130.42C123.22,-130.42 11.78,-115.58 11.78,-115.58 5.83,-114.79 5.83,-113.21 11.78,-112.42 11.78,-112.42 123.22,-97.58 123.22,-97.58 129.17,-96.79 141.06,-96.79 147.01,-97.58 147.01,-97.58 258.45,-112.42 258.45,-112.42 264.4,-113.21 264.4,-114.79 258.45,-115.58 258.45,-115.58 147.01,-130.42 147.01,-130.42 141.06,-131.21 129.17,-131.21 123.22,-130.42"/>
<text text-anchor="middle" x="135.12" y="-110.3" font-family="Times,serif" font-size="14.00" fill="#00f2ff">Framework Refinement</text>
</g>
<!-- Ingestion&#45;&gt;Synthesis -->
<g id="edge2" class="edge">
<title>Ingestion&#45;&gt;Synthesis</title>
<path fill="none" stroke="#ff00ff" d="M180.58,-182.8C172.2,-170.3 160.75,-153.22 151.43,-139.33"/>
<polygon fill="#ff00ff" stroke="#ff00ff" points="145.67,-130.74 154.98,-136.54 148.46,-134.89 151.24,-139.05 151.24,-139.05 151.24,-139.05 148.46,-134.89 147.5,-141.55 145.67,-130.74 145.67,-130.74"/>
</g>
<!-- PermanentMemory -->
<g id="node4" class="node">
<title>PermanentMemory</title>
<path fill="#161b22" stroke="#00ff00" d="M306.62,-55.73C306.62,-57.53 266.05,-59 216.12,-59 166.18,-59 125.62,-57.53 125.62,-55.73 125.62,-55.73 125.62,-26.27 125.62,-26.27 125.62,-24.47 166.18,-23 216.12,-23 266.05,-23 306.62,-24.47 306.62,-26.27 306.62,-26.27 306.62,-55.73 306.62,-55.73"/>
<path fill="none" stroke="#00ff00" d="M306.62,-55.73C306.62,-53.92 266.05,-52.45 216.12,-52.45 166.18,-52.45 125.62,-53.92 125.62,-55.73"/>
<text text-anchor="middle" x="216.12" y="-37.3" font-family="Times,serif" font-size="14.00" fill="#00f2ff">MEMORY.md / GEMINI.md</text>
</g>
<!-- Synthesis&#45;&gt;PermanentMemory -->
<g id="edge3" class="edge">
<title>Synthesis&#45;&gt;PermanentMemory</title>
<path fill="none" stroke="#ff00ff" d="M152.29,-97.94C162.96,-88.59 176.9,-76.37 189.03,-65.74"/>
<polygon fill="#ff00ff" stroke="#ff00ff" points="196.69,-59.03 192.14,-69 192.93,-62.32 189.17,-65.62 189.17,-65.62 189.17,-65.62 192.93,-62.32 186.2,-62.24 196.69,-59.03 196.69,-59.03"/>
</g>
<!-- PermanentMemory&#45;&gt;Fact -->
<g id="edge4" class="edge">
<title>PermanentMemory&#45;&gt;Fact</title>
<path fill="none" stroke="#ff00ff" stroke-dasharray="1,5" d="M245.77,-59.16C258.54,-68.31 272.13,-80.82 279.12,-96 301.94,-145.63 282.86,-210.91 268.79,-246.71"/>
<polygon fill="#ff00ff" stroke="#ff00ff" points="264.99,-255.98 264.62,-245.02 266.89,-251.35 268.78,-246.73 268.78,-246.73 268.78,-246.73 266.89,-251.35 272.95,-248.43 264.99,-255.98 264.99,-255.98"/>
<text text-anchor="middle" x="353.62" y="-153.8" font-family="Times,serif" font-size="14.00"> Contextual Awareness </text>
</g>
</g>
</svg>
