<?xml version="1.0" encoding="UTF-8" standalone="no"?>
<!DOCTYPE svg PUBLIC "-//W3C//DTD SVG 1.1//EN"
 "http://www.w3.org/Graphics/SVG/1.1/DTD/svg11.dtd">
<!-- Generated by graphviz version 2.43.0 (0)
 -->
<!-- Title: CapMetrics Pages: 1 -->
<svg width="381pt" height="219pt"
 viewBox="0.00 0.00 381.00 219.00" xmlns="http://www.w3.org/2000/svg" xmlns:xlink="http://www.w3.org/1999/xlink">
<g id="graph0" class="graph" transform="scale(1 1) rotate(0) translate(4 215)">
<title>CapMetrics</title>
<polygon fill="#0d1117" stroke="transparent" points="-4,4 -4,-215 377,-215 377,4 -4,4"/>
<text text-anchor="middle" x="186.5" y="-7.8" font-family="Helvetica,sans-Serif" font-size="14.00" fill="#00f2ff">T5.4: Metric Aggregation Pipeline</text>
<!-- ForensicLogs -->
<g id="node1" class="node">
<title>ForensicLogs</title>
<path fill="#161b22" stroke="#00f2ff" d="M93,-211C93,-211 12,-211 12,-211 6,-211 0,-205 0,-199 0,-199 0,-187 0,-187 0,-181 6,-175 12,-175 12,-175 93,-175 93,-175 99,-175 105,-181 105,-187 105,-187 105,-199 105,-199 105,-205 99,-211 93,-211"/>
<text text-anchor="middle" x="52.5" y="-189.3" font-family="Times,serif" font-size="14.00" fill="#00f2ff">forensics_*.json</text>
</g>
<!-- MetricProcessor -->
<g id="node4" class="node">
<title>MetricProcessor</title>
<path fill="#161b22" stroke="#ffff00" d="M167.66,-137.03C167.66,-137.03 82.92,-122.97 82.92,-122.97 77,-121.98 77,-120.02 82.92,-119.03 82.92,-119.03 167.66,-104.97 167.66,-104.97 173.58,-103.98 185.42,-103.98 191.34,-104.97 191.34,-104.97 276.08,-119.03 276.08,-119.03 282,-120.02 282,-121.98 276.08,-122.97 276.08,-122.97 191.34,-137.03 191.34,-137.03 185.42,-138.02 173.58,-138.02 167.66,-137.03"/>
<text text-anchor="middle" x="179.5" y="-117.3" font-family="Times,serif" font-size="14.00" fill="#00f2ff">Metric Aggregator</text>
</g>
<!-- ForensicLogs&#45;&gt;MetricProcessor -->
<g id="edge1" class="edge">
<title>ForensicLogs&#45;&gt;MetricProcessor</title>
<path fill="none" stroke="#ff00ff" d="M83.57,-174.88C102.71,-164.32 127.23,-150.81 146.69,-140.08"/>
<polygon fill="#ff00ff" stroke="#ff00ff" points="155.52,-135.22 148.93,-143.99 151.14,-137.63 146.76,-140.05 146.76,-140.05 146.76,-140.05 151.14,-137.63 144.59,-136.11 155.52,-135.22 155.52,-135.22"/>
</g>
<!-- DriftDocs -->
<g id="node2" class="node">
<title>DriftDocs</title>
<path fill="#161b22" stroke="#00f2ff" d="M223.5,-211C223.5,-211 135.5,-211 135.5,-211 129.5,-211 123.5,-205 123.5,-199 123.5,-199 123.5,-187 123.5,-187 123.5,-181 129.5,-175 135.5,-175 135.5,-175 223.5,-175 223.5,-175 229.5,-175 235.5,-181 235.5,-187 235.5,-187 235.5,-199 235.5,-199 235.5,-205 229.5,-211 223.5,-211"/>
<text text-anchor="middle" x="179.5" y="-189.3" font-family="Times,serif" font-size="14.00" fill="#00f2ff">drift_analysis.md</text>
</g>
<!-- DriftDocs&#45;&gt;MetricProcessor -->
<g id="edge2" class="edge">
<title>DriftDocs&#45;&gt;MetricProcessor</title>
<path fill="none" stroke="#ff00ff" d="M179.5,-174.7C179.5,-166.98 179.5,-157.71 179.5,-149.11"/>
<polygon fill="#ff00ff" stroke="#ff00ff" points="179.5,-139.1 184,-149.1 179.5,-144.1 179.5,-149.1 179.5,-149.1 179.5,-149.1 179.5,-144.1 175,-149.1 179.5,-139.1 179.5,-139.1"/>
</g>
<!-- PruneDocs -->
<g id="node3" class="node">
<title>PruneDocs</title>
<path fill="#161b22" stroke="#00f2ff" d="M361,-211C361,-211 266,-211 266,-211 260,-211 254,-205 254,-199 254,-199 254,-187 254,-187 254,-181 260,-175 266,-175 266,-175 361,-175 361,-175 367,-175 373,-181 373,-187 373,-187 373,-199 373,-199 373,-205 367,-211 361,-211"/>
<text text-anchor="middle" x="313.5" y="-189.3" font-family="Times,serif" font-size="14.00" fill="#00f2ff">pruning_report.md</text>
</g>
<!-- PruneDocs&#45;&gt;MetricProcessor -->
<g id="edge3" class="edge">
<title>PruneDocs&#45;&gt;MetricProcessor</title>
<path fill="none" stroke="#ff00ff" d="M280.72,-174.88C260.29,-164.21 234.07,-150.51 213.43,-139.72"/>
<polygon fill="#ff00ff" stroke="#ff00ff" points="204.38,-135 215.33,-135.64 208.81,-137.31 213.24,-139.63 213.24,-139.63 213.24,-139.63 208.81,-137.31 211.16,-143.62 204.38,-135 204.38,-135"/>
</g>
<!-- FinalReport -->
<g id="node5" class="node">
<title>FinalReport</title>
<path fill="#161b22" stroke="#00ff00" d="M271.81,-42.51C271.81,-42.51 271.81,-47.49 271.81,-47.49 271.81,-49.97 269.37,-52.93 266.93,-53.41 266.93,-53.41 222.61,-62.05 222.61,-62.05 220.17,-62.52 215.25,-63 212.76,-63 212.76,-63 146.24,-63 146.24,-63 143.75,-63 138.83,-62.52 136.39,-62.05 136.39,-62.05 92.07,-53.41 92.07,-53.41 89.63,-52.93 87.19,-49.97 87.19,-47.49 87.19,-47.49 87.19,-42.51 87.19,-42.51 87.19,-40.03 89.63,-37.07 92.07,-36.59 92.07,-36.59 136.39,-27.95 136.39,-27.95 138.83,-27.48 143.75,-27 146.24,-27 146.24,-27 212.76,-27 212.76,-27 215.25,-27 220.17,-27.48 222.61,-27.95 222.61,-27.95 266.93,-36.59 266.93,-36.59 269.37,-37.07 271.81,-40.03 271.81,-42.51"/>
<path fill="none" stroke="#00ff00" d="M275.82,-41.42C275.82,-41.42 275.82,-48.58 275.82,-48.58 275.82,-52.17 272.3,-56.44 268.78,-57.12 268.78,-57.12 225.16,-65.63 225.16,-65.63 221.64,-66.31 214.54,-67 210.96,-67 210.96,-67 148.04,-67 148.04,-67 144.46,-67 137.36,-66.31 133.84,-65.63 133.84,-65.63 90.22,-57.12 90.22,-57.12 86.7,-56.44 83.18,-52.17 83.18,-48.58 83.18,-48.58 83.18,-41.42 83.18,-41.42 83.18,-37.83 86.7,-33.56 90.22,-32.88 90.22,-32.88 133.84,-24.37 133.84,-24.37 137.36,-23.69 144.46,-23 148.04,-23 148.04,-23 210.96,-23 210.96,-23 214.54,-23 221.64,-23.69 225.16,-24.37 225.16,-24.37 268.78,-32.88 268.78,-32.88 272.3,-33.56 275.82,-37.83 275.82,-41.42"/>
<text text-anchor="middle" x="179.5" y="-41.3" font-family="Times,serif" font-size="14.00" fill="#00f2ff">Capability Summary</text>
</g>
<!-- MetricProcessor&#45;&gt;FinalReport -->
<g id="edge4" class="edge">
<title>MetricProcessor&#45;&gt;FinalReport</title>
<path fill="none" stroke="#ff00ff" d="M179.5,-102.84C179.5,-95.16 179.5,-85.88 179.5,-77.05"/>
<polygon fill="#ff00ff" stroke="#ff00ff" points="179.5,-67.03 184,-77.03 179.5,-72.03 179.5,-77.03 179.5,-77.03 179.5,-77.03 179.5,-72.03 175,-77.03 179.5,-67.03 179.5,-67.03"/>
</g>
</g>
</svg>
