<?xml version="1.0" encoding="UTF-8" standalone="no"?>
<!DOCTYPE svg PUBLIC "-//W3C//DTD SVG 1.1//EN"
 "http://www.w3.org/Graphics/SVG/1.1/DTD/svg11.dtd">
<!-- Generated by graphviz version 2.43.0 (0)
 -->
<!-- Title: CapProfile Pages: 1 -->
<svg width="461pt" height="211pt"
 viewBox="0.00 0.00 461.29 211.00" xmlns="http://www.w3.org/2000/svg" xmlns:xlink="http://www.w3.org/1999/xlink">
<g id="graph0" class="graph" transform="scale(1 1) rotate(0) translate(4 207)">
<title>CapProfile</title>
<polygon fill="#0d1117" stroke="transparent" points="-4,4 -4,-207 457.29,-207 457.29,4 -4,4"/>
<text text-anchor="middle" x="226.64" y="-7.8" font-family="Helvetica,sans-Serif" font-size="14.00" fill="#00f2ff">T5.3: Collaboration Profiling</text>
<!-- History -->
<g id="node1" class="node">
<title>History</title>
<path fill="#161b22" stroke="#00f2ff" d="M264.69,-203C264.69,-203 155.69,-203 155.69,-203 149.69,-203 143.69,-197 143.69,-191 143.69,-191 143.69,-179 143.69,-179 143.69,-173 149.69,-167 155.69,-167 155.69,-167 264.69,-167 264.69,-167 270.69,-167 276.69,-173 276.69,-179 276.69,-179 276.69,-191 276.69,-191 276.69,-197 270.69,-203 264.69,-203"/>
<text text-anchor="middle" x="210.19" y="-181.3" font-family="Times,serif" font-size="14.00" fill="#00f2ff">Session History Logs</text>
</g>
<!-- Aggregation -->
<g id="node2" class="node">
<title>Aggregation</title>
<path fill="#161b22" stroke="#00f2ff" d="M300.12,-131C300.12,-131 161.98,-131 161.98,-131 155.98,-131 145.44,-127.08 140.89,-123.16 140.89,-123.16 117.35,-102.84 117.35,-102.84 112.81,-98.92 114.27,-95 120.27,-95 120.27,-95 258.41,-95 258.41,-95 264.41,-95 274.95,-98.92 279.5,-102.84 279.5,-102.84 303.04,-123.16 303.04,-123.16 307.58,-127.08 306.12,-131 300.12,-131"/>
<text text-anchor="middle" x="210.19" y="-109.3" font-family="Times,serif" font-size="14.00" fill="#00f2ff">Data Aggregator</text>
</g>
<!-- History&#45;&gt;Aggregation -->
<g id="edge1" class="edge">
<title>History&#45;&gt;Aggregation</title>
<path fill="none" stroke="#ff00ff" d="M210.19,-166.7C210.19,-158.98 210.19,-149.71 210.19,-141.11"/>
<polygon fill="#ff00ff" stroke="#ff00ff" points="210.19,-131.1 214.7,-141.1 210.19,-136.1 210.2,-141.1 210.2,-141.1 210.2,-141.1 210.19,-136.1 205.7,-141.1 210.19,-131.1 210.19,-131.1"/>
</g>
<!-- Precise -->
<g id="node3" class="node">
<title>Precise</title>
<ellipse fill="#161b22" stroke="#00f2ff" cx="57.19" cy="-41" rx="57.39" ry="18"/>
<text text-anchor="middle" x="57.19" y="-37.3" font-family="Times,serif" font-size="14.00" fill="#00f2ff">Ultra&#45;Precise</text>
</g>
<!-- Aggregation&#45;&gt;Precise -->
<g id="edge2" class="edge">
<title>Aggregation&#45;&gt;Precise</title>
<path fill="none" stroke="#ff00ff" d="M172.77,-94.88C149.98,-84.45 120.88,-71.14 97.58,-60.48"/>
<polygon fill="#ff00ff" stroke="#ff00ff" points="88.31,-56.24 99.28,-56.31 92.86,-58.32 97.41,-60.4 97.41,-60.4 97.41,-60.4 92.86,-58.32 95.53,-64.49 88.31,-56.24 88.31,-56.24"/>
</g>
<!-- Creative -->
<g id="node4" class="node">
<title>Creative</title>
<ellipse fill="#161b22" stroke="#00f2ff" cx="210.19" cy="-41" rx="77.19" ry="18"/>
<text text-anchor="middle" x="210.19" y="-37.3" font-family="Times,serif" font-size="14.00" fill="#00f2ff">Creatively Chaotic</text>
</g>
<!-- Aggregation&#45;&gt;Creative -->
<g id="edge3" class="edge">
<title>Aggregation&#45;&gt;Creative</title>
<path fill="none" stroke="#ff00ff" d="M210.19,-94.7C210.19,-86.98 210.19,-77.71 210.19,-69.11"/>
<polygon fill="#ff00ff" stroke="#ff00ff" points="210.19,-59.1 214.7,-69.1 210.19,-64.1 210.2,-69.1 210.2,-69.1 210.2,-69.1 210.19,-64.1 205.7,-69.1 210.19,-59.1 210.19,-59.1"/>
</g>
<!-- Structured -->
<g id="node5" class="node">
<title>Structured</title>
<ellipse fill="#161b22" stroke="#00f2ff" cx="379.19" cy="-41" rx="74.19" ry="18"/>
<text text-anchor="middle" x="379.19" y="-37.3" font-family="Times,serif" font-size="14.00" fill="#00f2ff">Highly Structured</text>
</g>
<!-- Aggregation&#45;&gt;Structured -->
<g id="edge4" class="edge">
<title>Aggregation&#45;&gt;Structured</title>
<path fill="none" stroke="#ff00ff" d="M251.54,-94.88C276.49,-84.54 308.31,-71.36 333.94,-60.74"/>
<polygon fill="#ff00ff" stroke="#ff00ff" points="343.43,-56.81 335.92,-64.8 338.81,-58.73 334.19,-60.64 334.19,-60.64 334.19,-60.64 338.81,-58.73 332.47,-56.48 343.43,-56.81 343.43,-56.81"/>
</g>
</g>
</svg>
