<?xml version="1.0" encoding="UTF-8" standalone="no"?>
<!DOCTYPE svg PUBLIC "-//W3C//DTD SVG 1.1//EN"
 "http://www.w3.org/Graphics/SVG/1.1/DTD/svg11.dtd">
<!-- Generated by graphviz version 2.43.0 (0)
 -->
<!-- Title: CapRadar Pages: 1 -->
<svg width="680pt" height="107pt"
 viewBox="0.00 0.00 680.00 106.60" xmlns="http://www.w3.org/2000/svg" xmlns:xlink="http://www.w3.org/1999/xlink">
<g id="graph0" class="graph" transform="scale(1 1) rotate(0) translate(4 102.6)">
<title>CapRadar</title>
<polygon fill="#0d1117" stroke="transparent" points="-4,4 -4,-102.6 676,-102.6 676,4 -4,4"/>
<text text-anchor="middle" x="336" y="-7.8" font-family="Helvetica,sans-Serif" font-size="14.00" fill="#00f2ff">T5.1: Capability Radar Mapping</text>
<!-- Center -->
<g id="node1" class="node">
<title>Center</title>
<ellipse fill="#161b22" stroke="#00f2ff" cx="327.5" cy="-96.8" rx="1.8" ry="1.8"/>
</g>
<!-- Semantic -->
<g id="node2" class="node">
<title>Semantic</title>
<path fill="#161b22" stroke="#00ff00" d="M157,-59C157,-59 12,-59 12,-59 6,-59 0,-53 0,-47 0,-47 0,-35 0,-35 0,-29 6,-23 12,-23 12,-23 157,-23 157,-23 163,-23 169,-29 169,-35 169,-35 169,-47 169,-47 169,-53 163,-59 157,-59"/>
<text text-anchor="middle" x="84.5" y="-37.3" font-family="Times,serif" font-size="14.00" fill="#00f2ff">Semantic Translation (8/10)</text>
</g>
<!-- Center&#45;&gt;Semantic -->
<g id="edge1" class="edge">
<title>Center&#45;&gt;Semantic</title>
<path fill="none" stroke="#ff00ff" d="M325.95,-95.46C314.01,-92.81 235.51,-75.43 171.2,-61.2"/>
<polygon fill="#ff00ff" stroke="#ff00ff" points="161.42,-59.03 172.16,-56.8 166.31,-60.11 171.19,-61.19 171.19,-61.19 171.19,-61.19 166.31,-60.11 170.21,-65.59 161.42,-59.03 161.42,-59.03"/>
</g>
<!-- Agility -->
<g id="node3" class="node">
<title>Agility</title>
<path fill="#161b22" stroke="#00ff00" d="M300,-59C300,-59 199,-59 199,-59 193,-59 187,-53 187,-47 187,-47 187,-35 187,-35 187,-29 193,-23 199,-23 199,-23 300,-23 300,-23 306,-23 312,-29 312,-35 312,-35 312,-47 312,-47 312,-53 306,-59 300,-59"/>
<text text-anchor="middle" x="249.5" y="-37.3" font-family="Times,serif" font-size="14.00" fill="#00f2ff">Meta&#45;Agility (9/10)</text>
</g>
<!-- Center&#45;&gt;Agility -->
<g id="edge2" class="edge">
<title>Center&#45;&gt;Agility</title>
<path fill="none" stroke="#ff00ff" d="M326.62,-95.2C322.18,-92.13 301.63,-77.96 282.86,-65.01"/>
<polygon fill="#ff00ff" stroke="#ff00ff" points="274.42,-59.19 285.21,-61.16 278.54,-62.03 282.65,-64.87 282.65,-64.87 282.65,-64.87 278.54,-62.03 280.1,-68.57 274.42,-59.19 274.42,-59.19"/>
</g>
<!-- Pruning -->
<g id="node4" class="node">
<title>Pruning</title>
<path fill="#161b22" stroke="#ffff00" d="M469,-59C469,-59 342,-59 342,-59 336,-59 330,-53 330,-47 330,-47 330,-35 330,-35 330,-29 336,-23 342,-23 342,-23 469,-23 469,-23 475,-23 481,-29 481,-35 481,-35 481,-47 481,-47 481,-53 475,-59 469,-59"/>
<text text-anchor="middle" x="405.5" y="-37.3" font-family="Times,serif" font-size="14.00" fill="#00f2ff">Aesthetic Pruning (7/10)</text>
</g>
<!-- Center&#45;&gt;Pruning -->
<g id="edge3" class="edge">
<title>Center&#45;&gt;Pruning</title>
<path fill="none" stroke="#ff00ff" d="M328.38,-95.2C332.82,-92.13 353.37,-77.96 372.14,-65.01"/>
<polygon fill="#ff00ff" stroke="#ff00ff" points="380.58,-59.19 374.9,-68.57 376.46,-62.03 372.35,-64.87 372.35,-64.87 372.35,-64.87 376.46,-62.03 369.79,-61.16 380.58,-59.19 380.58,-59.19"/>
</g>
<!-- Synergy -->
<g id="node5" class="node">
<title>Synergy</title>
<path fill="#161b22" stroke="#00ff00" stroke-width="3" d="M660,-59C660,-59 511,-59 511,-59 505,-59 499,-53 499,-47 499,-47 499,-35 499,-35 499,-29 505,-23 511,-23 511,-23 660,-23 660,-23 666,-23 672,-29 672,-35 672,-35 672,-47 672,-47 672,-53 666,-59 660,-59"/>
<text text-anchor="middle" x="585.5" y="-37.3" font-family="Times,serif" font-size="14.00" fill="#00f2ff">Operational Synergy (10/10)</text>
</g>
<!-- Center&#45;&gt;Synergy -->
<g id="edge4" class="edge">
<title>Center&#45;&gt;Synergy</title>
<path fill="none" stroke="#ff00ff" d="M329.15,-95.46C341.85,-92.81 425.52,-75.36 493.87,-61.11"/>
<polygon fill="#ff00ff" stroke="#ff00ff" points="503.83,-59.03 494.96,-65.48 498.93,-60.05 494.04,-61.07 494.04,-61.07 494.04,-61.07 498.93,-60.05 493.12,-56.67 503.83,-59.03 503.83,-59.03"/>
</g>
</g>
</svg>
