<?xml version="1.0" encoding="UTF-8" standalone="no"?>
<!DOCTYPE svg PUBLIC "-//W3C//DTD SVG 1.1//EN"
 "http://www.w3.org/Graphics/SVG/1.1/DTD/svg11.dtd">
<!-- Generated by graphviz version 2.43.0 (0)
 -->
<!-- Title: CapSignature Pages: 1 -->
<svg width="294pt" height="219pt"
 viewBox="0.00 0.00 294.00 219.00" xmlns="http://www.w3.org/2000/svg" xmlns:xlink="http://www.w3.org/1999/xlink">
<g id="graph0" class="graph" transform="scale(1 1) rotate(0) translate(4 215)">
<title>CapSignature</title>
<polygon fill="#0d1117" stroke="transparent" points="-4,4 -4,-215 290,-215 290,4 -4,4"/>
<text text-anchor="middle" x="143" y="-7.8" font-family="Helvetica,sans-Serif" font-size="14.00" fill="#00f2ff">T5.2: Synergy Signature Synthesis</text>
<!-- HumanStyle -->
<g id="node1" class="node">
<title>HumanStyle</title>
<path fill="#161b22" stroke="#00ff00" d="M126,-211C126,-211 12,-211 12,-211 6,-211 0,-205 0,-199 0,-199 0,-187 0,-187 0,-181 6,-175 12,-175 12,-175 126,-175 126,-175 132,-175 138,-181 138,-187 138,-187 138,-199 138,-199 138,-205 132,-211 126,-211"/>
<text text-anchor="middle" x="69" y="-189.3" font-family="Times,serif" font-size="14.00" fill="#00f2ff">Human Intuition Type</text>
</g>
<!-- Synthesis -->
<g id="node3" class="node">
<title>Synthesis</title>
<path fill="#161b22" stroke="#ffff00" stroke-width="2" d="M247.91,-114.51C247.91,-114.51 247.91,-119.49 247.91,-119.49 247.91,-121.97 245.46,-124.88 243.02,-125.31 243.02,-125.31 192.52,-134.14 192.52,-134.14 190.08,-134.57 185.14,-135 182.66,-135 182.66,-135 107.34,-135 107.34,-135 104.86,-135 99.92,-134.57 97.48,-134.14 97.48,-134.14 46.98,-125.31 46.98,-125.31 44.54,-124.88 42.09,-121.97 42.09,-119.49 42.09,-119.49 42.09,-114.51 42.09,-114.51 42.09,-112.03 44.54,-109.12 46.98,-108.69 46.98,-108.69 97.48,-99.86 97.48,-99.86 99.92,-99.43 104.86,-99 107.34,-99 107.34,-99 182.66,-99 182.66,-99 185.14,-99 190.08,-99.43 192.52,-99.86 192.52,-99.86 243.02,-108.69 243.02,-108.69 245.46,-109.12 247.91,-112.03 247.91,-114.51"/>
<path fill="none" stroke="#ffff00" stroke-width="2" d="M251.92,-113.39C251.92,-113.39 251.92,-120.61 251.92,-120.61 251.92,-124.21 248.37,-128.44 244.82,-129.06 244.82,-129.06 195.08,-137.76 195.08,-137.76 191.53,-138.38 184.37,-139 180.77,-139 180.77,-139 109.23,-139 109.23,-139 105.63,-139 98.47,-138.38 94.92,-137.76 94.92,-137.76 45.18,-129.06 45.18,-129.06 41.63,-128.44 38.08,-124.21 38.08,-120.61 38.08,-120.61 38.08,-113.39 38.08,-113.39 38.08,-109.79 41.63,-105.56 45.18,-104.94 45.18,-104.94 94.92,-96.24 94.92,-96.24 98.47,-95.62 105.63,-95 109.23,-95 109.23,-95 180.77,-95 180.77,-95 184.37,-95 191.53,-95.62 195.08,-96.24 195.08,-96.24 244.82,-104.94 244.82,-104.94 248.37,-105.56 251.92,-109.79 251.92,-113.39"/>
<text text-anchor="middle" x="145" y="-113.3" font-family="Times,serif" font-size="14.00" fill="#00f2ff">Collaborative Signature</text>
</g>
<!-- HumanStyle&#45;&gt;Synthesis -->
<g id="edge1" class="edge">
<title>HumanStyle&#45;&gt;Synthesis</title>
<path fill="none" stroke="#ff00ff" d="M86.63,-174.84C95.36,-166.33 106.14,-155.84 116.04,-146.2"/>
<polygon fill="#ff00ff" stroke="#ff00ff" points="123.4,-139.03 119.37,-149.23 119.82,-142.52 116.23,-146.01 116.23,-146.01 116.23,-146.01 119.82,-142.52 113.1,-142.78 123.4,-139.03 123.4,-139.03"/>
</g>
<!-- AIModel -->
<g id="node2" class="node">
<title>AIModel</title>
<path fill="#161b22" stroke="#00f2ff" d="M274,-211C274,-211 168,-211 168,-211 162,-211 156,-205 156,-199 156,-199 156,-187 156,-187 156,-181 162,-175 168,-175 168,-175 274,-175 274,-175 280,-175 286,-181 286,-187 286,-187 286,-199 286,-199 286,-205 280,-211 274,-211"/>
<text text-anchor="middle" x="221" y="-189.3" font-family="Times,serif" font-size="14.00" fill="#00f2ff">AI Formal Signature</text>
</g>
<!-- AIModel&#45;&gt;Synthesis -->
<g id="edge2" class="edge">
<title>AIModel&#45;&gt;Synthesis</title>
<path fill="none" stroke="#ff00ff" d="M203.37,-174.84C194.64,-166.33 183.86,-155.84 173.96,-146.2"/>
<polygon fill="#ff00ff" stroke="#ff00ff" points="166.6,-139.03 176.9,-142.78 170.18,-142.52 173.77,-146.01 173.77,-146.01 173.77,-146.01 170.18,-142.52 170.63,-149.23 166.6,-139.03 166.6,-139.03"/>
</g>
<!-- Profile -->
<g id="node4" class="node">
<title>Profile</title>
<polygon fill="#161b22" stroke="#00f2ff" points="204.5,-59 79.5,-59 79.5,-23 210.5,-23 210.5,-53 204.5,-59"/>
<polyline fill="none" stroke="#00f2ff" points="204.5,-59 204.5,-53 "/>
<polyline fill="none" stroke="#00f2ff" points="210.5,-53 204.5,-53 "/>
<text text-anchor="middle" x="145" y="-37.3" font-family="Times,serif" font-size="14.00" fill="#00f2ff">capability_report.md</text>
</g>
<!-- Synthesis&#45;&gt;Profile -->
<g id="edge3" class="edge">
<title>Synthesis&#45;&gt;Profile</title>
<path fill="none" stroke="#ff00ff" d="M145,-94.99C145,-87.06 145,-77.91 145,-69.48"/>
<polygon fill="#ff00ff" stroke="#ff00ff" points="145,-59.31 149.5,-69.31 145,-64.31 145,-69.31 145,-69.31 145,-69.31 145,-64.31 140.5,-69.31 145,-59.31 145,-59.31"/>
</g>
</g>
</svg>
