<?xml version="1.0" encoding="UTF-8" standalone="no"?>
<!DOCTYPE svg PUBLIC "-//W3C//DTD SVG 1.1//EN"
 "http://www.w3.org/Graphics/SVG/1.1/DTD/svg11.dtd">
<!-- Generated by graphviz version 2.43.0 (0)
 -->
<!-- Title: CapRoadmap Pages: 1 -->
<svg width="388pt" height="625pt"
 viewBox="0.00 0.00 387.61 625.04" xmlns="http://www.w3.org/2000/svg" xmlns:xlink="http://www.w3.org/1999/xlink">
<g id="graph0" class="graph" transform="scale(1 1) rotate(0) translate(4 621.04)">
<title>CapRoadmap</title>
<polygon fill="#0d1117" stroke="transparent" points="-4,4 -4,-621.04 383.61,-621.04 383.61,4 -4,4"/>
<text text-anchor="middle" x="189.81" y="-7.8" font-family="Helvetica,sans-Serif" font-size="14.00" fill="#00f2ff">T5.5: Improvement Roadmap</text>
<!-- Current -->
<g id="node1" class="node">
<title>Current</title>
<path fill="#161b22" stroke="#00f2ff" d="M252.31,-617.04C252.31,-617.04 127.31,-617.04 127.31,-617.04 121.31,-617.04 115.31,-611.04 115.31,-605.04 115.31,-605.04 115.31,-593.04 115.31,-593.04 115.31,-587.04 121.31,-581.04 127.31,-581.04 127.31,-581.04 252.31,-581.04 252.31,-581.04 258.31,-581.04 264.31,-587.04 264.31,-593.04 264.31,-593.04 264.31,-605.04 264.31,-605.04 264.31,-611.04 258.31,-617.04 252.31,-617.04"/>
<text text-anchor="middle" x="189.81" y="-595.34" font-family="Times,serif" font-size="14.00" fill="#00f2ff">Current Capability State</text>
</g>
<!-- Identify -->
<g id="node2" class="node">
<title>Identify</title>
<path fill="#161b22" stroke="#ff0000" d="M177.95,-542.21C177.95,-542.21 84.7,-527.86 84.7,-527.86 78.77,-526.95 78.77,-525.12 84.7,-524.21 84.7,-524.21 177.95,-509.86 177.95,-509.86 183.88,-508.95 195.74,-508.95 201.67,-509.86 201.67,-509.86 294.91,-524.21 294.91,-524.21 300.84,-525.12 300.84,-526.95 294.91,-527.86 294.91,-527.86 201.67,-542.21 201.67,-542.21 195.74,-543.12 183.88,-543.12 177.95,-542.21"/>
<text text-anchor="middle" x="189.81" y="-522.34" font-family="Times,serif" font-size="14.00" fill="#00f2ff">Identify Bottlenecks</text>
</g>
<!-- Current&#45;&gt;Identify -->
<g id="edge1" class="edge">
<title>Current&#45;&gt;Identify</title>
<path fill="none" stroke="#ff00ff" d="M189.81,-580.85C189.81,-572.82 189.81,-563.08 189.81,-554.1"/>
<polygon fill="#ff00ff" stroke="#ff00ff" points="189.81,-544.06 194.31,-554.06 189.81,-549.06 189.81,-554.06 189.81,-554.06 189.81,-554.06 189.81,-549.06 185.31,-554.06 189.81,-544.06 189.81,-544.06"/>
</g>
<!-- Strategies -->
<g id="node3" class="node">
<title>Strategies</title>
<path fill="#161b22" stroke="#00ff00" d="M291.11,-457.04C291.11,-457.04 134.87,-457.04 134.87,-457.04 128.87,-457.04 118.13,-453.36 113.39,-449.68 113.39,-449.68 85.99,-428.39 85.99,-428.39 81.25,-424.71 82.51,-421.04 88.51,-421.04 88.51,-421.04 244.74,-421.04 244.74,-421.04 250.74,-421.04 261.48,-424.71 266.22,-428.39 266.22,-428.39 293.63,-449.68 293.63,-449.68 298.37,-453.36 297.11,-457.04 291.11,-457.04"/>
<text text-anchor="middle" x="189.81" y="-435.34" font-family="Times,serif" font-size="14.00" fill="#00f2ff">Synergy Strategies</text>
</g>
<!-- Identify&#45;&gt;Strategies -->
<g id="edge2" class="edge">
<title>Identify&#45;&gt;Strategies</title>
<path fill="none" stroke="#ff00ff" d="M189.81,-507.83C189.81,-496.2 189.81,-480.58 189.81,-467.27"/>
<polygon fill="#ff00ff" stroke="#ff00ff" points="189.81,-457.21 194.31,-467.21 189.81,-462.21 189.81,-467.21 189.81,-467.21 189.81,-467.21 189.81,-462.21 185.31,-467.21 189.81,-457.21 189.81,-457.21"/>
<text text-anchor="middle" x="241.31" y="-478.84" font-family="Times,serif" font-size="14.00"> Refine Workflow </text>
</g>
<!-- Target -->
<g id="node4" class="node">
<title>Target</title>
<path fill="#161b22" stroke="#ffff00" d="M367.42,-246.14C367.42,-246.14 246.57,-246.14 246.57,-246.14 240.57,-246.14 232.72,-251.84 230.87,-257.55 230.87,-257.55 193.51,-372.64 193.51,-372.64 191.66,-378.35 187.96,-378.35 186.1,-372.64 186.1,-372.64 148.75,-257.55 148.75,-257.55 146.9,-251.84 139.05,-246.14 133.05,-246.14 133.05,-246.14 12.19,-246.14 12.19,-246.14 6.19,-246.14 5.04,-242.61 9.9,-239.08 9.9,-239.08 107.68,-167.96 107.68,-167.96 112.53,-164.43 115.53,-155.19 113.68,-149.49 113.68,-149.49 76.32,-34.4 76.32,-34.4 74.47,-28.69 77.47,-26.51 82.32,-30.04 82.32,-30.04 180.1,-101.16 180.1,-101.16 184.96,-104.69 194.66,-104.69 199.51,-101.16 199.51,-101.16 297.29,-30.04 297.29,-30.04 302.14,-26.51 305.14,-28.69 303.29,-34.4 303.29,-34.4 265.94,-149.49 265.94,-149.49 264.09,-155.19 267.09,-164.43 271.94,-167.96 271.94,-167.96 369.72,-239.08 369.72,-239.08 374.57,-242.61 373.42,-246.14 367.42,-246.14"/>
<text text-anchor="middle" x="189.81" y="-199.82" font-family="Times,serif" font-size="14.00" fill="#00f2ff">Future Transfinite State</text>
</g>
<!-- Strategies&#45;&gt;Target -->
<g id="edge3" class="edge">
<title>Strategies&#45;&gt;Target</title>
<path fill="none" stroke="#ff00ff" d="M189.81,-420.86C189.81,-413.76 189.81,-404.77 189.81,-394.52"/>
<polygon fill="#ff00ff" stroke="#ff00ff" points="189.81,-384.33 194.31,-394.33 189.81,-389.33 189.81,-394.33 189.81,-394.33 189.81,-394.33 189.81,-389.33 185.31,-394.33 189.81,-384.33 189.81,-384.33"/>
</g>
</g>
</svg>
