<?xml version="1.0" encoding="UTF-8" standalone="no"?>
<!DOCTYPE svg PUBLIC "-//W3C//DTD SVG 1.1//EN"
 "http://www.w3.org/Graphics/SVG/1.1/DTD/svg11.dtd">
<!-- Generated by graphviz version 2.43.0 (0)
 -->
<!-- Title: DriftFeedback Pages: 1 -->
<svg width="310pt" height="219pt"
 viewBox="0.00 0.00 309.73 219.00" xmlns="http://www.w3.org/2000/svg" xmlns:xlink="http://www.w3.org/1999/xlink">
<g id="graph0" class="graph" transform="scale(1 1) rotate(0) translate(4 215)">
<title>DriftFeedback</title>
<polygon fill="#0d1117" stroke="transparent" points="-4,4 -4,-215 305.73,-215 305.73,4 -4,4"/>
<text text-anchor="middle" x="150.87" y="-7.8" font-family="Helvetica,sans-Serif" font-size="14.00" fill="#00f2ff">T4.5: Alignment Feedback Loop</text>
<!-- Action -->
<g id="node1" class="node">
<title>Action</title>
<path fill="#161b22" stroke="#00f2ff" d="M191.5,-211C191.5,-211 69.5,-211 69.5,-211 63.5,-211 57.5,-205 57.5,-199 57.5,-199 57.5,-187 57.5,-187 57.5,-181 63.5,-175 69.5,-175 69.5,-175 191.5,-175 191.5,-175 197.5,-175 203.5,-181 203.5,-187 203.5,-187 203.5,-199 203.5,-199 203.5,-205 197.5,-211 191.5,-211"/>
<text text-anchor="middle" x="130.5" y="-189.3" font-family="Times,serif" font-size="14.00" fill="#00f2ff">Implementation Update</text>
</g>
<!-- Review -->
<g id="node2" class="node">
<title>Review</title>
<path fill="#161b22" stroke="#00ff00" d="M183.5,-139C183.5,-139 77.5,-139 77.5,-139 71.5,-139 65.5,-133 65.5,-127 65.5,-127 65.5,-115 65.5,-115 65.5,-109 71.5,-103 77.5,-103 77.5,-103 183.5,-103 183.5,-103 189.5,-103 195.5,-109 195.5,-115 195.5,-115 195.5,-127 195.5,-127 195.5,-133 189.5,-139 183.5,-139"/>
<text text-anchor="middle" x="130.5" y="-117.3" font-family="Times,serif" font-size="14.00" fill="#00f2ff">Human Review (+1)</text>
</g>
<!-- Action&#45;&gt;Review -->
<g id="edge1" class="edge">
<title>Action&#45;&gt;Review</title>
<path fill="none" stroke="#ff00ff" d="M130.5,-174.7C130.5,-166.98 130.5,-157.71 130.5,-149.11"/>
<polygon fill="#ff00ff" stroke="#ff00ff" points="130.5,-139.1 135,-149.1 130.5,-144.1 130.5,-149.1 130.5,-149.1 130.5,-149.1 130.5,-144.1 126,-149.1 130.5,-139.1 130.5,-139.1"/>
</g>
<!-- Log -->
<g id="node3" class="node">
<title>Log</title>
<polygon fill="#161b22" stroke="#00f2ff" points="95,-63 0,-63 0,-27 101,-27 101,-57 95,-63"/>
<polyline fill="none" stroke="#00f2ff" points="95,-63 95,-57 "/>
<polyline fill="none" stroke="#00f2ff" points="101,-57 95,-57 "/>
<text text-anchor="middle" x="50.5" y="-41.3" font-family="Times,serif" font-size="14.00" fill="#00f2ff">session_log.md</text>
</g>
<!-- Review&#45;&gt;Log -->
<g id="edge2" class="edge">
<title>Review&#45;&gt;Log</title>
<path fill="none" stroke="#ff00ff" d="M111.95,-102.84C101.44,-93.12 88.14,-80.82 76.61,-70.15"/>
<polygon fill="#ff00ff" stroke="#ff00ff" points="68.95,-63.07 79.35,-66.56 72.62,-66.47 76.3,-69.86 76.3,-69.86 76.3,-69.86 72.62,-66.47 73.24,-73.16 68.95,-63.07 68.95,-63.07"/>
</g>
<!-- Success -->
<g id="node4" class="node">
<title>Success</title>
<path fill="#161b22" stroke="#00ff00" d="M297.96,-42.51C297.96,-42.51 297.96,-47.49 297.96,-47.49 297.96,-49.97 295.52,-52.96 293.09,-53.46 293.09,-53.46 251.59,-62 251.59,-62 249.16,-62.5 244.24,-63 241.76,-63 241.76,-63 179.24,-63 179.24,-63 176.76,-63 171.84,-62.5 169.41,-62 169.41,-62 127.91,-53.46 127.91,-53.46 125.48,-52.96 123.04,-49.97 123.04,-47.49 123.04,-47.49 123.04,-42.51 123.04,-42.51 123.04,-40.03 125.48,-37.04 127.91,-36.54 127.91,-36.54 169.41,-28 169.41,-28 171.84,-27.5 176.76,-27 179.24,-27 179.24,-27 241.76,-27 241.76,-27 244.24,-27 249.16,-27.5 251.59,-28 251.59,-28 293.09,-36.54 293.09,-36.54 295.52,-37.04 297.96,-40.03 297.96,-42.51"/>
<path fill="none" stroke="#00ff00" d="M301.97,-41.43C301.97,-41.43 301.97,-48.57 301.97,-48.57 301.97,-52.14 298.47,-56.43 294.97,-57.15 294.97,-57.15 254.13,-65.56 254.13,-65.56 250.63,-66.28 243.56,-67 239.99,-67 239.99,-67 181.01,-67 181.01,-67 177.44,-67 170.37,-66.28 166.87,-65.56 166.87,-65.56 126.03,-57.15 126.03,-57.15 122.53,-56.43 119.03,-52.14 119.03,-48.57 119.03,-48.57 119.03,-41.43 119.03,-41.43 119.03,-37.86 122.53,-33.57 126.03,-32.85 126.03,-32.85 166.87,-24.44 166.87,-24.44 170.37,-23.72 177.44,-23 181.01,-23 181.01,-23 239.99,-23 239.99,-23 243.56,-23 250.63,-23.72 254.13,-24.44 254.13,-24.44 294.97,-32.85 294.97,-32.85 298.47,-33.57 301.97,-37.86 301.97,-41.43"/>
<text text-anchor="middle" x="210.5" y="-41.3" font-family="Times,serif" font-size="14.00" fill="#00f2ff">System Re&#45;Aligned</text>
</g>
<!-- Review&#45;&gt;Success -->
<g id="edge3" class="edge">
<title>Review&#45;&gt;Success</title>
<path fill="none" stroke="#ff00ff" d="M149.05,-102.84C158.34,-94.25 169.82,-83.63 180.33,-73.91"/>
<polygon fill="#ff00ff" stroke="#ff00ff" points="187.76,-67.03 183.48,-77.13 184.09,-70.43 180.42,-73.82 180.42,-73.82 180.42,-73.82 184.09,-70.43 177.37,-70.52 187.76,-67.03 187.76,-67.03"/>
</g>
</g>
</svg>
