<?xml version="1.0" encoding="UTF-8" standalone="no"?>
<!DOCTYPE svg PUBLIC "-//W3C//DTD SVG 1.1//EN"
 "http://www.w3.org/Graphics/SVG/1.1/DTD/svg11.dtd">
<!-- Generated by graphviz version 2.43.0 (0)
 -->
<!-- Title: DriftVector Pages: 1 -->
<svg width="290pt" height="213pt"
 viewBox="0.00 0.00 290.00 213.00" xmlns="http://www.w3.org/2000/svg" xmlns:xlink="http://www.w3.org/1999/xlink">
<g id="graph0" class="graph" transform="scale(1 1) rotate(0) translate(4 209)">
<title>DriftVector</title>
<polygon fill="#0d1117" stroke="transparent" points="-4,4 -4,-209 286,-209 286,4 -4,4"/>
<text text-anchor="middle" x="141" y="-7.8" font-family="Helvetica,sans-Serif" font-size="14.00" fill="#00f2ff">T4.4: Correction Vector Strategy</text>
<!-- Current -->
<g id="node1" class="node">
<title>Current</title>
<path fill="#161b22" stroke="#ff0000" d="M137,-205C137,-205 12,-205 12,-205 6,-205 0,-199 0,-193 0,-193 0,-181 0,-181 0,-175 6,-169 12,-169 12,-169 137,-169 137,-169 143,-169 149,-175 149,-181 149,-181 149,-193 149,-193 149,-199 143,-205 137,-205"/>
<text text-anchor="middle" x="74.5" y="-183.3" font-family="Times,serif" font-size="14.00" fill="#00f2ff">Current Implementation</text>
</g>
<!-- Vector -->
<g id="node3" class="node">
<title>Vector</title>
<polygon fill="#161b22" stroke="#ffff00" points="194,-127 93,-127 93,-101 194,-101 206,-114 194,-127"/>
<text text-anchor="middle" x="149.5" y="-117.8" font-family="Times,serif" font-size="14.00" fill="#00f2ff">Correction Vector</text>
<text text-anchor="middle" x="149.5" y="-102.8" font-family="Times,serif" font-size="14.00" fill="#00f2ff">(Axiom Shift)</text>
</g>
<!-- Current&#45;&gt;Vector -->
<g id="edge1" class="edge">
<title>Current&#45;&gt;Vector</title>
<path fill="none" stroke="#ff00ff" d="M92.66,-168.81C101.78,-160.18 113,-149.56 123.06,-140.03"/>
<polygon fill="#ff00ff" stroke="#ff00ff" points="130.47,-133.02 126.3,-143.16 126.83,-136.46 123.2,-139.89 123.2,-139.89 123.2,-139.89 126.83,-136.46 120.11,-136.63 130.47,-133.02 130.47,-133.02"/>
</g>
<!-- Target -->
<g id="node2" class="node">
<title>Target</title>
<path fill="#161b22" stroke="#00ff00" d="M270,-205C270,-205 179,-205 179,-205 173,-205 167,-199 167,-193 167,-193 167,-181 167,-181 167,-175 173,-169 179,-169 179,-169 270,-169 270,-169 276,-169 282,-175 282,-181 282,-181 282,-193 282,-193 282,-199 276,-205 270,-205"/>
<text text-anchor="middle" x="224.5" y="-183.3" font-family="Times,serif" font-size="14.00" fill="#00f2ff">Desired Objective</text>
</g>
<!-- Target&#45;&gt;Vector -->
<g id="edge2" class="edge">
<title>Target&#45;&gt;Vector</title>
<path fill="none" stroke="#ff00ff" d="M206.34,-168.81C197.22,-160.18 186,-149.56 175.94,-140.03"/>
<polygon fill="#ff00ff" stroke="#ff00ff" points="168.53,-133.02 178.89,-136.63 172.17,-136.46 175.8,-139.89 175.8,-139.89 175.8,-139.89 172.17,-136.46 172.7,-143.16 168.53,-133.02 168.53,-133.02"/>
</g>
<!-- Refinement -->
<g id="node4" class="node">
<title>Refinement</title>
<path fill="#161b22" stroke="#00f2ff" d="M185,-59C185,-59 114,-59 114,-59 108,-59 102,-53 102,-47 102,-47 102,-35 102,-35 102,-29 108,-23 114,-23 114,-23 185,-23 185,-23 191,-23 197,-29 197,-35 197,-35 197,-47 197,-47 197,-53 191,-59 185,-59"/>
<text text-anchor="middle" x="149.5" y="-37.3" font-family="Times,serif" font-size="14.00" fill="#00f2ff">Refined Logic</text>
</g>
<!-- Vector&#45;&gt;Refinement -->
<g id="edge3" class="edge">
<title>Vector&#45;&gt;Refinement</title>
<path fill="none" stroke="#ff00ff" d="M149.5,-94.72C149.5,-86.97 149.5,-77.79 149.5,-69.27"/>
<polygon fill="#ff00ff" stroke="#ff00ff" points="149.5,-59 154,-69 149.5,-64 149.5,-69 149.5,-69 149.5,-69 149.5,-64 145,-69 149.5,-59 149.5,-59"/>
</g>
</g>
</svg>
