<?xml version="1.0" encoding="UTF-8" standalone="no"?>
<!DOCTYPE svg PUBLIC "-//W3C//DTD SVG 1.1//EN"
 "http://www.w3.org/Graphics/SVG/1.1/DTD/svg11.dtd">
<!-- Generated by graphviz version 2.43.0 (0)
 -->
<!-- Title: DriftSymptom Pages: 1 -->
<svg width="250pt" height="221pt"
 viewBox="0.00 0.00 250.00 221.00" xmlns="http://www.w3.org/2000/svg" xmlns:xlink="http://www.w3.org/1999/xlink">
<g id="graph0" class="graph" transform="scale(1 1) rotate(0) translate(4 217)">
<title>DriftSymptom</title>
<polygon fill="#0d1117" stroke="transparent" points="-4,4 -4,-217 246,-217 246,4 -4,4"/>
<text text-anchor="middle" x="121" y="-7.8" font-family="Helvetica,sans-Serif" font-size="14.00" fill="#00f2ff">T4.3: Symptom Mapping Architecture</text>
<!-- Bug -->
<g id="node1" class="node">
<title>Bug</title>
<path fill="#161b22" stroke="#ff0000" d="M104.42,-213C104.42,-213 14.42,-213 14.42,-213 8.42,-213 2.42,-207 2.42,-201 2.42,-201 2.42,-187 2.42,-187 2.42,-181 8.42,-175 14.42,-175 14.42,-175 104.42,-175 104.42,-175 110.42,-175 116.42,-181 116.42,-187 116.42,-187 116.42,-201 116.42,-201 116.42,-207 110.42,-213 104.42,-213"/>
<text text-anchor="middle" x="59.42" y="-197.8" font-family="Times,serif" font-size="14.00" fill="#00f2ff">Formal Bug</text>
<text text-anchor="middle" x="59.42" y="-182.8" font-family="Times,serif" font-size="14.00" fill="#00f2ff">(Syntax/Runtime)</text>
</g>
<!-- Mapping -->
<g id="node3" class="node">
<title>Mapping</title>
<path fill="#161b22" stroke="#00f2ff" d="M227.75,-139C227.75,-139 63.51,-139 63.51,-139 57.51,-139 46.7,-135.42 41.88,-131.84 41.88,-131.84 12.72,-110.16 12.72,-110.16 7.9,-106.58 9.09,-103 15.09,-103 15.09,-103 179.32,-103 179.32,-103 185.32,-103 196.14,-106.58 200.95,-110.16 200.95,-110.16 230.12,-131.84 230.12,-131.84 234.93,-135.42 233.75,-139 227.75,-139"/>
<text text-anchor="middle" x="121.42" y="-117.3" font-family="Times,serif" font-size="14.00" fill="#00f2ff">Symptom Mapping</text>
</g>
<!-- Bug&#45;&gt;Mapping -->
<g id="edge1" class="edge">
<title>Bug&#45;&gt;Mapping</title>
<path fill="none" stroke="#ff00ff" d="M75.38,-174.72C82.82,-166.2 91.78,-155.94 99.81,-146.74"/>
<polygon fill="#ff00ff" stroke="#ff00ff" points="106.57,-139 103.38,-149.5 103.28,-142.77 99.99,-146.54 99.99,-146.54 99.99,-146.54 103.28,-142.77 96.6,-143.58 106.57,-139 106.57,-139"/>
</g>
<!-- Drift -->
<g id="node2" class="node">
<title>Drift</title>
<path fill="#161b22" stroke="#ff00ff" d="M220.42,-213C220.42,-213 146.42,-213 146.42,-213 140.42,-213 134.42,-207 134.42,-201 134.42,-201 134.42,-187 134.42,-187 134.42,-181 140.42,-175 146.42,-175 146.42,-175 220.42,-175 220.42,-175 226.42,-175 232.42,-181 232.42,-187 232.42,-187 232.42,-201 232.42,-201 232.42,-207 226.42,-213 220.42,-213"/>
<text text-anchor="middle" x="183.42" y="-197.8" font-family="Times,serif" font-size="14.00" fill="#00f2ff">Semantic Drift</text>
<text text-anchor="middle" x="183.42" y="-182.8" font-family="Times,serif" font-size="14.00" fill="#00f2ff">(Logic/Intent)</text>
</g>
<!-- Drift&#45;&gt;Mapping -->
<g id="edge2" class="edge">
<title>Drift&#45;&gt;Mapping</title>
<path fill="none" stroke="#ff00ff" d="M167.45,-174.72C160.01,-166.2 151.05,-155.94 143.02,-146.74"/>
<polygon fill="#ff00ff" stroke="#ff00ff" points="136.27,-139 146.23,-143.58 139.55,-142.77 142.84,-146.54 142.84,-146.54 142.84,-146.54 139.55,-142.77 139.45,-149.5 136.27,-139 136.27,-139"/>
</g>
<!-- RootCause -->
<g id="node4" class="node">
<title>RootCause</title>
<path fill="#161b22" stroke="#ffff00" d="M189.88,-42.51C189.88,-42.51 189.88,-47.49 189.88,-47.49 189.88,-49.97 187.48,-53.09 185.08,-53.72 185.08,-53.72 154.58,-61.74 154.58,-61.74 152.18,-62.37 147.29,-63 144.81,-63 144.81,-63 98.03,-63 98.03,-63 95.54,-63 90.66,-62.37 88.25,-61.74 88.25,-61.74 57.76,-53.72 57.76,-53.72 55.36,-53.09 52.95,-49.97 52.95,-47.49 52.95,-47.49 52.95,-42.51 52.95,-42.51 52.95,-40.03 55.36,-36.91 57.76,-36.28 57.76,-36.28 88.25,-28.26 88.25,-28.26 90.66,-27.63 95.54,-27 98.03,-27 98.03,-27 144.81,-27 144.81,-27 147.29,-27 152.18,-27.63 154.58,-28.26 154.58,-28.26 185.08,-36.28 185.08,-36.28 187.48,-36.91 189.88,-40.03 189.88,-42.51"/>
<path fill="none" stroke="#ffff00" d="M193.9,-41.49C193.9,-41.49 193.9,-48.51 193.9,-48.51 193.9,-52.03 190.5,-56.43 187.1,-57.32 187.1,-57.32 157.09,-65.21 157.09,-65.21 153.69,-66.11 146.78,-67 143.27,-67 143.27,-67 99.56,-67 99.56,-67 96.05,-67 89.14,-66.11 85.74,-65.21 85.74,-65.21 55.73,-57.32 55.73,-57.32 52.34,-56.43 48.94,-52.03 48.94,-48.51 48.94,-48.51 48.94,-41.49 48.94,-41.49 48.94,-37.97 52.34,-33.57 55.73,-32.68 55.73,-32.68 85.74,-24.79 85.74,-24.79 89.14,-23.89 96.05,-23 99.56,-23 99.56,-23 143.27,-23 143.27,-23 146.78,-23 153.69,-23.89 157.09,-24.79 157.09,-24.79 187.1,-32.68 187.1,-32.68 190.5,-33.57 193.9,-37.97 193.9,-41.49"/>
<text text-anchor="middle" x="121.42" y="-41.3" font-family="Times,serif" font-size="14.00" fill="#00f2ff">Axiom Failure</text>
</g>
<!-- Mapping&#45;&gt;RootCause -->
<g id="edge3" class="edge">
<title>Mapping&#45;&gt;RootCause</title>
<path fill="none" stroke="#ff00ff" d="M121.42,-102.84C121.42,-95.16 121.42,-85.88 121.42,-77.05"/>
<polygon fill="#ff00ff" stroke="#ff00ff" points="121.42,-67.03 125.92,-77.03 121.42,-72.03 121.42,-77.03 121.42,-77.03 121.42,-77.03 121.42,-72.03 116.92,-77.03 121.42,-67.03 121.42,-67.03"/>
</g>
</g>
</svg>
