<?xml version="1.0" encoding="UTF-8" standalone="no"?>
<!DOCTYPE svg PUBLIC "-//W3C//DTD SVG 1.1//EN"
 "http://www.w3.org/Graphics/SVG/1.1/DTD/svg11.dtd">
<!-- Generated by graphviz version 2.43.0 (0)
 -->
<!-- Title: DriftGap Pages: 1 -->
<svg width="234pt" height="213pt"
 viewBox="0.00 0.00 234.00 213.00" xmlns="http://www.w3.org/2000/svg" xmlns:xlink="http://www.w3.org/1999/xlink">
<g id="graph0" class="graph" transform="scale(1 1) rotate(0) translate(4 209)">
<title>DriftGap</title>
<polygon fill="#0d1117" stroke="transparent" points="-4,4 -4,-209 230,-209 230,4 -4,4"/>
<text text-anchor="middle" x="113" y="-7.8" font-family="Helvetica,sans-Serif" font-size="14.00" fill="#00f2ff">T4.2: Semantic Gap Measurement</text>
<!-- PointA -->
<g id="node1" class="node">
<title>PointA</title>
<path fill="#161b22" stroke="#00f2ff" d="M73.25,-205C73.25,-205 15.25,-205 15.25,-205 9.25,-205 3.25,-199 3.25,-193 3.25,-193 3.25,-181 3.25,-181 3.25,-175 9.25,-169 15.25,-169 15.25,-169 73.25,-169 73.25,-169 79.25,-169 85.25,-175 85.25,-181 85.25,-181 85.25,-193 85.25,-193 85.25,-199 79.25,-205 73.25,-205"/>
<text text-anchor="middle" x="44.25" y="-183.3" font-family="Times,serif" font-size="14.00" fill="#00f2ff">Objective A</text>
</g>
<!-- Gap -->
<g id="node3" class="node">
<title>Gap</title>
<ellipse fill="#161b22" stroke="#ff00ff" stroke-width="2" cx="103.25" cy="-115" rx="61.19" ry="18"/>
<text text-anchor="middle" x="103.25" y="-111.3" font-family="Times,serif" font-size="14.00" fill="#00f2ff">Semantic Gap</text>
</g>
<!-- PointA&#45;&gt;Gap -->
<g id="edge1" class="edge">
<title>PointA&#45;&gt;Gap</title>
<path fill="none" stroke="#ff00ff" d="M58.83,-168.7C66.01,-160.18 74.79,-149.76 82.64,-140.45"/>
<polygon fill="#ff00ff" stroke="#ff00ff" points="89.24,-132.62 86.24,-143.17 86.02,-136.45 82.8,-140.27 82.8,-140.27 82.8,-140.27 86.02,-136.45 79.35,-137.37 89.24,-132.62 89.24,-132.62"/>
</g>
<!-- PointB -->
<g id="node2" class="node">
<title>PointB</title>
<path fill="#161b22" stroke="#00f2ff" d="M210.75,-205C210.75,-205 115.75,-205 115.75,-205 109.75,-205 103.75,-199 103.75,-193 103.75,-193 103.75,-181 103.75,-181 103.75,-175 109.75,-169 115.75,-169 115.75,-169 210.75,-169 210.75,-169 216.75,-169 222.75,-175 222.75,-181 222.75,-181 222.75,-193 222.75,-193 222.75,-199 216.75,-205 210.75,-205"/>
<text text-anchor="middle" x="163.25" y="-183.3" font-family="Times,serif" font-size="14.00" fill="#00f2ff">Implementation A&#39;</text>
</g>
<!-- PointB&#45;&gt;Gap -->
<g id="edge2" class="edge">
<title>PointB&#45;&gt;Gap</title>
<path fill="none" stroke="#ff00ff" d="M148.42,-168.7C141.12,-160.18 132.19,-149.76 124.21,-140.45"/>
<polygon fill="#ff00ff" stroke="#ff00ff" points="117.5,-132.62 127.42,-137.29 120.75,-136.42 124.01,-140.21 124.01,-140.21 124.01,-140.21 120.75,-136.42 120.59,-143.14 117.5,-132.62 117.5,-132.62"/>
</g>
<!-- Measurement -->
<g id="node4" class="node">
<title>Measurement</title>
<polygon fill="#161b22" stroke="#00f2ff" points="153.25,-61 47.25,-61 47.25,-23 159.25,-23 159.25,-55 153.25,-61"/>
<polyline fill="none" stroke="#00f2ff" points="153.25,-61 153.25,-55 "/>
<polyline fill="none" stroke="#00f2ff" points="159.25,-55 153.25,-55 "/>
<text text-anchor="middle" x="103.25" y="-45.8" font-family="Times,serif" font-size="14.00" fill="#00f2ff">drift_analysis.md</text>
<text text-anchor="middle" x="103.25" y="-30.8" font-family="Times,serif" font-size="14.00" fill="#00f2ff">(Gap Quantified)</text>
</g>
<!-- Gap&#45;&gt;Measurement -->
<g id="edge3" class="edge">
<title>Gap&#45;&gt;Measurement</title>
<path fill="none" stroke="#ff00ff" d="M103.25,-96.81C103.25,-89.11 103.25,-79.82 103.25,-71.15"/>
<polygon fill="#ff00ff" stroke="#ff00ff" points="103.25,-61.02 107.75,-71.02 103.25,-66.02 103.25,-71.02 103.25,-71.02 103.25,-71.02 103.25,-66.02 98.75,-71.02 103.25,-61.02 103.25,-61.02"/>
</g>
</g>
</svg>
