<?xml version="1.0" encoding="UTF-8" standalone="no"?>
<!DOCTYPE svg PUBLIC "-//W3C//DTD SVG 1.1//EN"
 "http://www.w3.org/Graphics/SVG/1.1/DTD/svg11.dtd">
<!-- Generated by graphviz version 2.43.0 (0)
 -->
<!-- Title: DriftDetection Pages: 1 -->
<svg width="293pt" height="267pt"
 viewBox="0.00 0.00 293.00 267.00" xmlns="http://www.w3.org/2000/svg" xmlns:xlink="http://www.w3.org/1999/xlink">
<g id="graph0" class="graph" transform="scale(1 1) rotate(0) translate(4 263)">
<title>DriftDetection</title>
<polygon fill="#0d1117" stroke="transparent" points="-4,4 -4,-263 289,-263 289,4 -4,4"/>
<text text-anchor="middle" x="142.5" y="-7.8" font-family="Helvetica,sans-Serif" font-size="14.00" fill="#00f2ff">T4.1: Drift Detection Loop</text>
<!-- Objective -->
<g id="node1" class="node">
<title>Objective</title>
<path fill="#161b22" stroke="#00ff00" d="M114,-259C114,-259 14,-259 14,-259 8,-259 2,-253 2,-247 2,-247 2,-235 2,-235 2,-229 8,-223 14,-223 14,-223 114,-223 114,-223 120,-223 126,-229 126,-235 126,-235 126,-247 126,-247 126,-253 120,-259 114,-259"/>
<text text-anchor="middle" x="64" y="-237.3" font-family="Times,serif" font-size="14.00" fill="#00f2ff">Semantic Objective</text>
</g>
<!-- Comparator -->
<g id="node3" class="node">
<title>Comparator</title>
<path fill="#161b22" stroke="#ffff00" d="M125.44,-182.79C125.44,-182.79 11.56,-151.21 11.56,-151.21 5.78,-149.6 5.78,-146.4 11.56,-144.79 11.56,-144.79 125.44,-113.21 125.44,-113.21 131.22,-111.6 142.78,-111.6 148.56,-113.21 148.56,-113.21 262.44,-144.79 262.44,-144.79 268.22,-146.4 268.22,-149.6 262.44,-151.21 262.44,-151.21 148.56,-182.79 148.56,-182.79 142.78,-184.4 131.22,-184.4 125.44,-182.79"/>
<text text-anchor="middle" x="137" y="-151.8" font-family="Times,serif" font-size="14.00" fill="#00f2ff">Semantic Comparator</text>
<text text-anchor="middle" x="137" y="-136.8" font-family="Times,serif" font-size="14.00" fill="#00f2ff">(semantic_check.py)</text>
</g>
<!-- Objective&#45;&gt;Comparator -->
<g id="edge1" class="edge">
<title>Objective&#45;&gt;Comparator</title>
<path fill="none" stroke="#ff00ff" d="M77.73,-222.88C85.79,-212.83 96.33,-199.7 106.27,-187.31"/>
<polygon fill="#ff00ff" stroke="#ff00ff" points="112.69,-179.3 109.94,-189.92 109.56,-183.2 106.43,-187.1 106.43,-187.1 106.43,-187.1 109.56,-183.2 102.92,-184.29 112.69,-179.3 112.69,-179.3"/>
</g>
<!-- Execution -->
<g id="node2" class="node">
<title>Execution</title>
<path fill="#161b22" stroke="#00f2ff" d="M265.5,-259C265.5,-259 156.5,-259 156.5,-259 150.5,-259 144.5,-253 144.5,-247 144.5,-247 144.5,-235 144.5,-235 144.5,-229 150.5,-223 156.5,-223 156.5,-223 265.5,-223 265.5,-223 271.5,-223 277.5,-229 277.5,-235 277.5,-235 277.5,-247 277.5,-247 277.5,-253 271.5,-259 265.5,-259"/>
<text text-anchor="middle" x="211" y="-237.3" font-family="Times,serif" font-size="14.00" fill="#00f2ff">AI Formal Execution</text>
</g>
<!-- Execution&#45;&gt;Comparator -->
<g id="edge2" class="edge">
<title>Execution&#45;&gt;Comparator</title>
<path fill="none" stroke="#ff00ff" d="M197.08,-222.88C188.91,-212.83 178.23,-199.7 168.15,-187.31"/>
<polygon fill="#ff00ff" stroke="#ff00ff" points="161.64,-179.3 171.44,-184.22 164.8,-183.18 167.95,-187.06 167.95,-187.06 167.95,-187.06 164.8,-183.18 164.46,-189.9 161.64,-179.3 161.64,-179.3"/>
</g>
<!-- Drift -->
<g id="node4" class="node">
<title>Drift</title>
<path fill="#161b22" stroke="#ff0000" d="M111.5,-59C111.5,-59 40.5,-59 40.5,-59 34.5,-59 28.5,-53 28.5,-47 28.5,-47 28.5,-35 28.5,-35 28.5,-29 34.5,-23 40.5,-23 40.5,-23 111.5,-23 111.5,-23 117.5,-23 123.5,-29 123.5,-35 123.5,-35 123.5,-47 123.5,-47 123.5,-53 117.5,-59 111.5,-59"/>
<text text-anchor="middle" x="76" y="-37.3" font-family="Times,serif" font-size="14.00" fill="#00f2ff">Drift Detected</text>
</g>
<!-- Comparator&#45;&gt;Drift -->
<g id="edge3" class="edge">
<title>Comparator&#45;&gt;Drift</title>
<path fill="none" stroke="#ff00ff" d="M98.76,-120.53C90.03,-112.46 81.89,-102.82 77,-92 73.89,-85.12 72.78,-77.14 72.67,-69.6"/>
<polygon fill="#ff00ff" stroke="#ff00ff" points="73.07,-59.4 77.17,-69.57 72.87,-64.4 72.67,-69.4 72.67,-69.4 72.67,-69.4 72.87,-64.4 68.18,-69.22 73.07,-59.4 73.07,-59.4"/>
<text text-anchor="middle" x="127" y="-80.8" font-family="Times,serif" font-size="14.00"> Gap &gt; Threshold </text>
</g>
<!-- Aligned -->
<g id="node5" class="node">
<title>Aligned</title>
<path fill="#161b22" stroke="#00ff00" d="M217,-59C217,-59 181,-59 181,-59 175,-59 169,-53 169,-47 169,-47 169,-35 169,-35 169,-29 175,-23 181,-23 181,-23 217,-23 217,-23 223,-23 229,-29 229,-35 229,-35 229,-47 229,-47 229,-53 223,-59 217,-59"/>
<text text-anchor="middle" x="199" y="-37.3" font-family="Times,serif" font-size="14.00" fill="#00f2ff">Aligned</text>
</g>
<!-- Comparator&#45;&gt;Aligned -->
<g id="edge4" class="edge">
<title>Comparator&#45;&gt;Aligned</title>
<path fill="none" stroke="#ff00ff" d="M161.05,-116.37C166.62,-108.63 172.29,-100.19 177,-92 181.25,-84.6 185.24,-76.22 188.61,-68.47"/>
<polygon fill="#ff00ff" stroke="#ff00ff" points="192.54,-59.11 192.82,-70.07 190.6,-63.72 188.67,-68.33 188.67,-68.33 188.67,-68.33 190.6,-63.72 184.52,-66.59 192.54,-59.11 192.54,-59.11"/>
<text text-anchor="middle" x="235" y="-80.8" font-family="Times,serif" font-size="14.00"> Gap &lt; Threshold </text>
</g>
</g>
</svg>
