<?xml version="1.0" encoding="UTF-8" standalone="no"?>
<!DOCTYPE svg PUBLIC "-//W3C//DTD SVG 1.1//EN"
 "http://www.w3.org/Graphics/SVG/1.1/DTD/svg11.dtd">
<!-- Generated by graphviz version 2.43.0 (0)
 -->
<!-- Title: LogTimeline Pages: 1 -->
<svg width="238pt" height="355pt"
 viewBox="0.00 0.00 238.00 355.00" xmlns="http://www.w3.org/2000/svg" xmlns:xlink="http://www.w3.org/1999/xlink">
<g id="graph0" class="graph" transform="scale(1 1) rotate(0) translate(4 351)">
<title>LogTimeline</title>
<polygon fill="#0d1117" stroke="transparent" points="-4,4 -4,-351 234,-351 234,4 -4,4"/>
<text text-anchor="middle" x="115" y="-7.8" font-family="Helvetica,sans-Serif" font-size="14.00" fill="#00f2ff">T2.1: Session Timeline Sequencing</text>
<!-- Grounding -->
<g id="node1" class="node">
<title>Grounding</title>
<path fill="#161b22" stroke="#00f2ff" d="M175,-347C175,-347 55,-347 55,-347 49,-347 43,-341 43,-335 43,-335 43,-323 43,-323 43,-317 49,-311 55,-311 55,-311 175,-311 175,-311 181,-311 187,-317 187,-323 187,-323 187,-335 187,-335 187,-341 181,-347 175,-347"/>
<text text-anchor="middle" x="115" y="-325.3" font-family="Times,serif" font-size="14.00" fill="#00f2ff">1. Semantic Grounding</text>
</g>
<!-- Execution -->
<g id="node2" class="node">
<title>Execution</title>
<path fill="#161b22" stroke="#00f2ff" d="M167.5,-275C167.5,-275 62.5,-275 62.5,-275 56.5,-275 50.5,-269 50.5,-263 50.5,-263 50.5,-251 50.5,-251 50.5,-245 56.5,-239 62.5,-239 62.5,-239 167.5,-239 167.5,-239 173.5,-239 179.5,-245 179.5,-251 179.5,-251 179.5,-263 179.5,-263 179.5,-269 173.5,-275 167.5,-275"/>
<text text-anchor="middle" x="115" y="-253.3" font-family="Times,serif" font-size="14.00" fill="#00f2ff">2. Formal Execution</text>
</g>
<!-- Grounding&#45;&gt;Execution -->
<g id="edge1" class="edge">
<title>Grounding&#45;&gt;Execution</title>
<path fill="none" stroke="#ff00ff" d="M115,-310.7C115,-302.98 115,-293.71 115,-285.11"/>
<polygon fill="#ff00ff" stroke="#ff00ff" points="115,-275.1 119.5,-285.1 115,-280.1 115,-285.1 115,-285.1 115,-285.1 115,-280.1 110.5,-285.1 115,-275.1 115,-275.1"/>
</g>
<!-- Alignment -->
<g id="node3" class="node">
<title>Alignment</title>
<path fill="#161b22" stroke="#00f2ff" d="M166.5,-203C166.5,-203 63.5,-203 63.5,-203 57.5,-203 51.5,-197 51.5,-191 51.5,-191 51.5,-179 51.5,-179 51.5,-173 57.5,-167 63.5,-167 63.5,-167 166.5,-167 166.5,-167 172.5,-167 178.5,-173 178.5,-179 178.5,-179 178.5,-191 178.5,-191 178.5,-197 172.5,-203 166.5,-203"/>
<text text-anchor="middle" x="115" y="-181.3" font-family="Times,serif" font-size="14.00" fill="#00f2ff">3. Alignment Check</text>
</g>
<!-- Execution&#45;&gt;Alignment -->
<g id="edge2" class="edge">
<title>Execution&#45;&gt;Alignment</title>
<path fill="none" stroke="#ff00ff" d="M115,-238.7C115,-230.98 115,-221.71 115,-213.11"/>
<polygon fill="#ff00ff" stroke="#ff00ff" points="115,-203.1 119.5,-213.1 115,-208.1 115,-213.1 115,-213.1 115,-213.1 115,-208.1 110.5,-213.1 115,-203.1 115,-203.1"/>
</g>
<!-- Pruning -->
<g id="node4" class="node">
<title>Pruning</title>
<path fill="#161b22" stroke="#00f2ff" d="M166.5,-131C166.5,-131 63.5,-131 63.5,-131 57.5,-131 51.5,-125 51.5,-119 51.5,-119 51.5,-107 51.5,-107 51.5,-101 57.5,-95 63.5,-95 63.5,-95 166.5,-95 166.5,-95 172.5,-95 178.5,-101 178.5,-107 178.5,-107 178.5,-119 178.5,-119 178.5,-125 172.5,-131 166.5,-131"/>
<text text-anchor="middle" x="115" y="-109.3" font-family="Times,serif" font-size="14.00" fill="#00f2ff">4. Heuristic Pruning</text>
</g>
<!-- Alignment&#45;&gt;Pruning -->
<g id="edge3" class="edge">
<title>Alignment&#45;&gt;Pruning</title>
<path fill="none" stroke="#ff00ff" d="M115,-166.7C115,-158.98 115,-149.71 115,-141.11"/>
<polygon fill="#ff00ff" stroke="#ff00ff" points="115,-131.1 119.5,-141.1 115,-136.1 115,-141.1 115,-141.1 115,-141.1 115,-136.1 110.5,-141.1 115,-131.1 115,-131.1"/>
</g>
<!-- Finalize -->
<g id="node5" class="node">
<title>Finalize</title>
<path fill="#161b22" stroke="#00f2ff" d="M150.5,-59C150.5,-59 79.5,-59 79.5,-59 73.5,-59 67.5,-53 67.5,-47 67.5,-47 67.5,-35 67.5,-35 67.5,-29 73.5,-23 79.5,-23 79.5,-23 150.5,-23 150.5,-23 156.5,-23 162.5,-29 162.5,-35 162.5,-35 162.5,-47 162.5,-47 162.5,-53 156.5,-59 150.5,-59"/>
<text text-anchor="middle" x="115" y="-37.3" font-family="Times,serif" font-size="14.00" fill="#00f2ff">5. Finalization</text>
</g>
<!-- Pruning&#45;&gt;Finalize -->
<g id="edge4" class="edge">
<title>Pruning&#45;&gt;Finalize</title>
<path fill="none" stroke="#ff00ff" d="M115,-94.7C115,-86.98 115,-77.71 115,-69.11"/>
<polygon fill="#ff00ff" stroke="#ff00ff" points="115,-59.1 119.5,-69.1 115,-64.1 115,-69.1 115,-69.1 115,-69.1 115,-64.1 110.5,-69.1 115,-59.1 115,-59.1"/>
</g>
</g>
</svg>
