<?xml version="1.0" encoding="UTF-8" standalone="no"?>
<!DOCTYPE svg PUBLIC "-//W3C//DTD SVG 1.1//EN"
 "http://www.w3.org/Graphics/SVG/1.1/DTD/svg11.dtd">
<!-- Generated by graphviz version 2.43.0 (0)
 -->
<!-- Title: LogForensics Pages: 1 -->
<svg width="212pt" height="283pt"
 viewBox="0.00 0.00 211.93 283.00" xmlns="http://www.w3.org/2000/svg" xmlns:xlink="http://www.w3.org/1999/xlink">
<g id="graph0" class="graph" transform="scale(1 1) rotate(0) translate(4 279)">
<title>LogForensics</title>
<polygon fill="#0d1117" stroke="transparent" points="-4,4 -4,-279 207.93,-279 207.93,4 -4,4"/>
<text text-anchor="middle" x="101.96" y="-7.8" font-family="Helvetica,sans-Serif" font-size="14.00" fill="#00f2ff">T2.2: Forensic Data Ingestion</text>
<!-- Raw -->
<g id="node1" class="node">
<title>Raw</title>
<polygon fill="#161b22" stroke="#00f2ff" points="168.46,-275 29.46,-275 29.46,-239 174.46,-239 174.46,-269 168.46,-275"/>
<polyline fill="none" stroke="#00f2ff" points="168.46,-275 168.46,-269 "/>
<polyline fill="none" stroke="#00f2ff" points="174.46,-269 168.46,-269 "/>
<text text-anchor="middle" x="101.96" y="-253.3" font-family="Times,serif" font-size="14.00" fill="#00f2ff">Ollama Verbose Output</text>
</g>
<!-- Filter -->
<g id="node2" class="node">
<title>Filter</title>
<path fill="#161b22" stroke="#00f2ff" d="M191.89,-203C191.89,-203 53.75,-203 53.75,-203 47.75,-203 37.21,-199.08 32.66,-195.16 32.66,-195.16 9.12,-174.84 9.12,-174.84 4.58,-170.92 6.04,-167 12.04,-167 12.04,-167 150.18,-167 150.18,-167 156.18,-167 166.72,-170.92 171.27,-174.84 171.27,-174.84 194.81,-195.16 194.81,-195.16 199.35,-199.08 197.89,-203 191.89,-203"/>
<text text-anchor="middle" x="101.96" y="-181.3" font-family="Times,serif" font-size="14.00" fill="#00f2ff">Grep/Awk Filter</text>
</g>
<!-- Raw&#45;&gt;Filter -->
<g id="edge1" class="edge">
<title>Raw&#45;&gt;Filter</title>
<path fill="none" stroke="#ff00ff" d="M101.96,-238.7C101.96,-230.98 101.96,-221.71 101.96,-213.11"/>
<polygon fill="#ff00ff" stroke="#ff00ff" points="101.96,-203.1 106.46,-213.1 101.96,-208.1 101.96,-213.1 101.96,-213.1 101.96,-213.1 101.96,-208.1 97.46,-213.1 101.96,-203.1 101.96,-203.1"/>
</g>
<!-- JSON -->
<g id="node3" class="node">
<title>JSON</title>
<polygon fill="#161b22" stroke="#ffff00" points="145.46,-131 52.46,-131 52.46,-95 151.46,-95 151.46,-125 145.46,-131"/>
<polyline fill="none" stroke="#ffff00" points="145.46,-131 145.46,-125 "/>
<polyline fill="none" stroke="#ffff00" points="151.46,-125 145.46,-125 "/>
<text text-anchor="middle" x="101.96" y="-109.3" font-family="Times,serif" font-size="14.00" fill="#00f2ff">Forensic JSON</text>
</g>
<!-- Filter&#45;&gt;JSON -->
<g id="edge2" class="edge">
<title>Filter&#45;&gt;JSON</title>
<path fill="none" stroke="#ff00ff" d="M101.96,-166.7C101.96,-158.98 101.96,-149.71 101.96,-141.11"/>
<polygon fill="#ff00ff" stroke="#ff00ff" points="101.96,-131.1 106.46,-141.1 101.96,-136.1 101.96,-141.1 101.96,-141.1 101.96,-141.1 101.96,-136.1 97.46,-141.1 101.96,-131.1 101.96,-131.1"/>
</g>
<!-- Entry -->
<g id="node4" class="node">
<title>Entry</title>
<path fill="#161b22" stroke="#00ff00" d="M148.46,-59C148.46,-59 55.46,-59 55.46,-59 49.46,-59 43.46,-53 43.46,-47 43.46,-47 43.46,-35 43.46,-35 43.46,-29 49.46,-23 55.46,-23 55.46,-23 148.46,-23 148.46,-23 154.46,-23 160.46,-29 160.46,-35 160.46,-35 160.46,-47 160.46,-47 160.46,-53 154.46,-59 148.46,-59"/>
<text text-anchor="middle" x="101.96" y="-37.3" font-family="Times,serif" font-size="14.00" fill="#00f2ff">Session Log Entry</text>
</g>
<!-- JSON&#45;&gt;Entry -->
<g id="edge3" class="edge">
<title>JSON&#45;&gt;Entry</title>
<path fill="none" stroke="#ff00ff" d="M101.96,-94.7C101.96,-86.98 101.96,-77.71 101.96,-69.11"/>
<polygon fill="#ff00ff" stroke="#ff00ff" points="101.96,-59.1 106.46,-69.1 101.96,-64.1 101.96,-69.1 101.96,-69.1 101.96,-69.1 101.96,-64.1 97.46,-69.1 101.96,-59.1 101.96,-59.1"/>
</g>
</g>
</svg>
