<?xml version="1.0" encoding="UTF-8" standalone="no"?>
<!DOCTYPE svg PUBLIC "-//W3C//DTD SVG 1.1//EN"
 "http://www.w3.org/Graphics/SVG/1.1/DTD/svg11.dtd">
<!-- Generated by graphviz version 2.43.0 (0)
 -->
<!-- Title: LogBreakthrough Pages: 1 -->
<svg width="284pt" height="227pt"
 viewBox="0.00 0.00 284.00 227.00" xmlns="http://www.w3.org/2000/svg" xmlns:xlink="http://www.w3.org/1999/xlink">
<g id="graph0" class="graph" transform="scale(1 1) rotate(0) translate(4 223)">
<title>LogBreakthrough</title>
<polygon fill="#0d1117" stroke="transparent" points="-4,4 -4,-223 280,-223 280,4 -4,4"/>
<text text-anchor="middle" x="138" y="-7.8" font-family="Helvetica,sans-Serif" font-size="14.00" fill="#00f2ff">T2.4: Breakthrough Categorization</text>
<!-- Event -->
<g id="node1" class="node">
<title>Event</title>
<path fill="#161b22" stroke="#00f2ff" d="M85.26,-216.5C85.26,-216.5 24.11,-203.5 24.11,-203.5 18.24,-202.25 18.24,-199.75 24.11,-198.5 24.11,-198.5 85.26,-185.5 85.26,-185.5 91.13,-184.25 102.87,-184.25 108.74,-185.5 108.74,-185.5 169.89,-198.5 169.89,-198.5 175.76,-199.75 175.76,-202.25 169.89,-203.5 169.89,-203.5 108.74,-216.5 108.74,-216.5 102.87,-217.75 91.13,-217.75 85.26,-216.5"/>
<text text-anchor="middle" x="97" y="-197.3" font-family="Times,serif" font-size="14.00" fill="#00f2ff">System Event</text>
</g>
<!-- Trivial -->
<g id="node2" class="node">
<title>Trivial</title>
<path fill="#161b22" stroke="#00f2ff" d="M102,-132C102,-132 12,-132 12,-132 6,-132 0,-126 0,-120 0,-120 0,-108 0,-108 0,-102 6,-96 12,-96 12,-96 102,-96 102,-96 108,-96 114,-102 114,-108 114,-108 114,-120 114,-120 114,-126 108,-132 102,-132"/>
<text text-anchor="middle" x="57" y="-110.3" font-family="Times,serif" font-size="14.00" fill="#00f2ff">Standard Iteration</text>
</g>
<!-- Event&#45;&gt;Trivial -->
<g id="edge1" class="edge">
<title>Event&#45;&gt;Trivial</title>
<path fill="none" stroke="#ff00ff" d="M89.66,-184.41C84.02,-172.42 76.09,-155.56 69.46,-141.47"/>
<polygon fill="#ff00ff" stroke="#ff00ff" points="65.12,-132.25 73.45,-139.38 67.24,-136.77 69.37,-141.29 69.37,-141.29 69.37,-141.29 67.24,-136.77 65.3,-143.21 65.12,-132.25 65.12,-132.25"/>
<text text-anchor="middle" x="109" y="-153.8" font-family="Times,serif" font-size="14.00"> Expected </text>
</g>
<!-- Breakthrough -->
<g id="node3" class="node">
<title>Breakthrough</title>
<path fill="#161b22" stroke="#ffff00" stroke-width="2" d="M243.5,-132C243.5,-132 144.5,-132 144.5,-132 138.5,-132 132.5,-126 132.5,-120 132.5,-120 132.5,-108 132.5,-108 132.5,-102 138.5,-96 144.5,-96 144.5,-96 243.5,-96 243.5,-96 249.5,-96 255.5,-102 255.5,-108 255.5,-108 255.5,-120 255.5,-120 255.5,-126 249.5,-132 243.5,-132"/>
<text text-anchor="middle" x="194" y="-110.3" font-family="Times,serif" font-size="14.00" fill="#00f2ff">Axiom Shift / Leap</text>
</g>
<!-- Event&#45;&gt;Breakthrough -->
<g id="edge2" class="edge">
<title>Event&#45;&gt;Breakthrough</title>
<path fill="none" stroke="#ff00ff" d="M114.87,-186.79C123.27,-180.4 133.32,-172.51 142,-165 151.38,-156.89 161.28,-147.57 169.89,-139.2"/>
<polygon fill="#ff00ff" stroke="#ff00ff" points="177.09,-132.13 173.11,-142.35 173.52,-135.63 169.95,-139.14 169.95,-139.14 169.95,-139.14 173.52,-135.63 166.8,-135.92 177.09,-132.13 177.09,-132.13"/>
<text text-anchor="middle" x="191.5" y="-153.8" font-family="Times,serif" font-size="14.00"> Transfinite </text>
</g>
<!-- Record -->
<g id="node4" class="node">
<title>Record</title>
<polygon fill="#161b22" stroke="#00ff00" points="270,-59 112,-59 112,-23 276,-23 276,-53 270,-59"/>
<polyline fill="none" stroke="#00ff00" points="270,-59 270,-53 "/>
<polyline fill="none" stroke="#00ff00" points="276,-53 270,-53 "/>
<text text-anchor="middle" x="194" y="-37.3" font-family="Times,serif" font-size="14.00" fill="#00f2ff">Templates/axiom_shift.md</text>
</g>
<!-- Breakthrough&#45;&gt;Record -->
<g id="edge3" class="edge">
<title>Breakthrough&#45;&gt;Record</title>
<path fill="none" stroke="#ff00ff" d="M194,-95.81C194,-87.79 194,-78.05 194,-69.07"/>
<polygon fill="#ff00ff" stroke="#ff00ff" points="194,-59.03 198.5,-69.03 194,-64.03 194,-69.03 194,-69.03 194,-69.03 194,-64.03 189.5,-69.03 194,-59.03 194,-59.03"/>
</g>
</g>
</svg>
