<?xml version="1.0" encoding="UTF-8" standalone="no"?>
<!DOCTYPE svg PUBLIC "-//W3C//DTD SVG 1.1//EN"
 "http://www.w3.org/Graphics/SVG/1.1/DTD/svg11.dtd">
<!-- Generated by graphviz version 2.43.0 (0)
 -->
<!-- Title: LogMetrics Pages: 1 -->
<svg width="338pt" height="225pt"
 viewBox="0.00 0.00 338.44 225.39" xmlns="http://www.w3.org/2000/svg" xmlns:xlink="http://www.w3.org/1999/xlink">
<g id="graph0" class="graph" transform="scale(1 1) rotate(0) translate(4 221.39)">
<title>LogMetrics</title>
<polygon fill="#0d1117" stroke="transparent" points="-4,4 -4,-221.39 334.44,-221.39 334.44,4 -4,4"/>
<text text-anchor="middle" x="165.22" y="-7.8" font-family="Helvetica,sans-Serif" font-size="14.00" fill="#00f2ff">T2.3: Metric Visualization Flow</text>
<!-- Tokens -->
<g id="node1" class="node">
<title>Tokens</title>
<ellipse fill="#161b22" stroke="#00f2ff" cx="57.19" cy="-160.19" rx="57.39" ry="57.39"/>
<text text-anchor="middle" x="57.19" y="-156.49" font-family="Times,serif" font-size="14.00" fill="#00f2ff">Token Count</text>
</g>
<!-- Report -->
<g id="node4" class="node">
<title>Report</title>
<path fill="#161b22" stroke="#00ff00" d="M269.39,-42.51C269.39,-42.51 269.39,-47.49 269.39,-47.49 269.39,-49.97 266.95,-52.95 264.52,-53.44 264.52,-53.44 222.01,-62.02 222.01,-62.02 219.58,-62.51 214.66,-63 212.17,-63 212.17,-63 148.22,-63 148.22,-63 145.73,-63 140.81,-62.51 138.38,-62.02 138.38,-62.02 95.87,-53.44 95.87,-53.44 93.44,-52.95 91,-49.97 91,-47.49 91,-47.49 91,-42.51 91,-42.51 91,-40.03 93.44,-37.05 95.87,-36.56 95.87,-36.56 138.38,-27.98 138.38,-27.98 140.81,-27.49 145.73,-27 148.22,-27 148.22,-27 212.17,-27 212.17,-27 214.66,-27 219.58,-27.49 222.01,-27.98 222.01,-27.98 264.52,-36.56 264.52,-36.56 266.95,-37.05 269.39,-40.03 269.39,-42.51"/>
<path fill="none" stroke="#00ff00" d="M273.38,-41.42C273.38,-41.42 273.38,-48.58 273.38,-48.58 273.38,-52.15 269.88,-56.44 266.37,-57.15 266.37,-57.15 224.55,-65.58 224.55,-65.58 221.04,-66.29 213.96,-67 210.39,-67 210.39,-67 150,-67 150,-67 146.43,-67 139.35,-66.29 135.84,-65.58 135.84,-65.58 94.02,-57.15 94.02,-57.15 90.51,-56.44 87.01,-52.15 87.01,-48.58 87.01,-48.58 87.01,-41.42 87.01,-41.42 87.01,-37.85 90.51,-33.56 94.02,-32.85 94.02,-32.85 135.84,-24.42 135.84,-24.42 139.35,-23.71 146.43,-23 150,-23 150,-23 210.39,-23 210.39,-23 213.96,-23 221.04,-23.71 224.55,-24.42 224.55,-24.42 266.37,-32.85 266.37,-32.85 269.88,-33.56 273.38,-37.85 273.38,-41.42"/>
<text text-anchor="middle" x="180.19" y="-41.3" font-family="Times,serif" font-size="14.00" fill="#00f2ff">Performance Profile</text>
</g>
<!-- Tokens&#45;&gt;Report -->
<g id="edge1" class="edge">
<title>Tokens&#45;&gt;Report</title>
<path fill="none" stroke="#ff00ff" d="M98.84,-120.87C115.45,-105.58 134.24,-88.29 149.57,-74.19"/>
<polygon fill="#ff00ff" stroke="#ff00ff" points="157.24,-67.13 152.93,-77.21 153.56,-70.51 149.88,-73.9 149.88,-73.9 149.88,-73.9 153.56,-70.51 146.83,-70.59 157.24,-67.13 157.24,-67.13"/>
</g>
<!-- Rate -->
<g id="node2" class="node">
<title>Rate</title>
<ellipse fill="#161b22" stroke="#00f2ff" cx="180.19" cy="-160.19" rx="48.19" ry="48.19"/>
<text text-anchor="middle" x="180.19" y="-156.49" font-family="Times,serif" font-size="14.00" fill="#00f2ff">Token/Sec</text>
</g>
<!-- Rate&#45;&gt;Report -->
<g id="edge2" class="edge">
<title>Rate&#45;&gt;Report</title>
<path fill="none" stroke="#ff00ff" d="M180.19,-111.85C180.19,-100.21 180.19,-88.05 180.19,-77.38"/>
<polygon fill="#ff00ff" stroke="#ff00ff" points="180.19,-67.29 184.7,-77.29 180.19,-72.29 180.2,-77.29 180.2,-77.29 180.2,-77.29 180.19,-72.29 175.7,-77.29 180.19,-67.29 180.19,-67.29"/>
</g>
<!-- Duration -->
<g id="node3" class="node">
<title>Duration</title>
<ellipse fill="#161b22" stroke="#00f2ff" cx="288.19" cy="-160.19" rx="42.49" ry="42.49"/>
<text text-anchor="middle" x="288.19" y="-156.49" font-family="Times,serif" font-size="14.00" fill="#00f2ff">Duration</text>
</g>
<!-- Duration&#45;&gt;Report -->
<g id="edge3" class="edge">
<title>Duration&#45;&gt;Report</title>
<path fill="none" stroke="#ff00ff" d="M260.4,-128.03C252.94,-119.82 244.83,-111.01 237.19,-103 228.22,-93.58 218.25,-83.48 209.18,-74.45"/>
<polygon fill="#ff00ff" stroke="#ff00ff" points="201.83,-67.14 212.09,-70.99 205.37,-70.66 208.92,-74.19 208.92,-74.19 208.92,-74.19 205.37,-70.66 205.75,-77.38 201.83,-67.14 201.83,-67.14"/>
</g>
</g>
</svg>
