<?xml version="1.0" encoding="UTF-8" standalone="no"?>
<!DOCTYPE svg PUBLIC "-//W3C//DTD SVG 1.1//EN"
 "http://www.w3.org/Graphics/SVG/1.1/DTD/svg11.dtd">
<!-- Generated by graphviz version 2.43.0 (0)
 -->
<!-- Title: LogSync Pages: 1 -->
<svg width="190pt" height="283pt"
 viewBox="0.00 0.00 190.00 283.00" xmlns="http://www.w3.org/2000/svg" xmlns:xlink="http://www.w3.org/1999/xlink">
<g id="graph0" class="graph" transform="scale(1 1) rotate(0) translate(4 279)">
<title>LogSync</title>
<polygon fill="#0d1117" stroke="transparent" points="-4,4 -4,-279 186,-279 186,4 -4,4"/>
<text text-anchor="middle" x="91" y="-7.8" font-family="Helvetica,sans-Serif" font-size="14.00" fill="#00f2ff">T2.5: Synchronization State</text>
<!-- Local -->
<g id="node1" class="node">
<title>Local</title>
<path fill="#161b22" stroke="#00f2ff" d="M149.5,-275C149.5,-275 32.5,-275 32.5,-275 26.5,-275 20.5,-269 20.5,-263 20.5,-263 20.5,-251 20.5,-251 20.5,-245 26.5,-239 32.5,-239 32.5,-239 149.5,-239 149.5,-239 155.5,-239 161.5,-245 161.5,-251 161.5,-251 161.5,-263 161.5,-263 161.5,-269 155.5,-275 149.5,-275"/>
<text text-anchor="middle" x="91" y="-253.3" font-family="Times,serif" font-size="14.00" fill="#00f2ff">Local Workspace Files</text>
</g>
<!-- Check -->
<g id="node2" class="node">
<title>Check</title>
<path fill="#161b22" stroke="#00f2ff" d="M144,-203C144,-203 38,-203 38,-203 32,-203 26,-197 26,-191 26,-191 26,-179 26,-179 26,-173 32,-167 38,-167 38,-167 144,-167 144,-167 150,-167 156,-173 156,-179 156,-179 156,-191 156,-191 156,-197 150,-203 144,-203"/>
<text text-anchor="middle" x="91" y="-181.3" font-family="Times,serif" font-size="14.00" fill="#00f2ff">Final Sync Checklist</text>
</g>
<!-- Local&#45;&gt;Check -->
<g id="edge1" class="edge">
<title>Local&#45;&gt;Check</title>
<path fill="none" stroke="#ff00ff" d="M91,-238.7C91,-230.98 91,-221.71 91,-213.11"/>
<polygon fill="#ff00ff" stroke="#ff00ff" points="91,-203.1 95.5,-213.1 91,-208.1 91,-213.1 91,-213.1 91,-213.1 91,-208.1 86.5,-213.1 91,-203.1 91,-203.1"/>
</g>
<!-- Git -->
<g id="node3" class="node">
<title>Git</title>
<path fill="#161b22" stroke="#00ff00" d="M135.5,-131C135.5,-131 46.5,-131 46.5,-131 40.5,-131 34.5,-125 34.5,-119 34.5,-119 34.5,-107 34.5,-107 34.5,-101 40.5,-95 46.5,-95 46.5,-95 135.5,-95 135.5,-95 141.5,-95 147.5,-101 147.5,-107 147.5,-107 147.5,-119 147.5,-119 147.5,-125 141.5,-131 135.5,-131"/>
<text text-anchor="middle" x="91" y="-109.3" font-family="Times,serif" font-size="14.00" fill="#00f2ff">Git Commit/Push</text>
</g>
<!-- Check&#45;&gt;Git -->
<g id="edge2" class="edge">
<title>Check&#45;&gt;Git</title>
<path fill="none" stroke="#ff00ff" d="M91,-166.7C91,-158.98 91,-149.71 91,-141.11"/>
<polygon fill="#ff00ff" stroke="#ff00ff" points="91,-131.1 95.5,-141.1 91,-136.1 91,-141.1 91,-141.1 91,-141.1 91,-136.1 86.5,-141.1 91,-131.1 91,-131.1"/>
</g>
<!-- Remote -->
<g id="node4" class="node">
<title>Remote</title>
<path fill="#161b22" stroke="#ffff00" d="M123.5,-59C123.5,-59 58.5,-59 58.5,-59 52.5,-59 46.5,-53 46.5,-47 46.5,-47 46.5,-35 46.5,-35 46.5,-29 52.5,-23 58.5,-23 58.5,-23 123.5,-23 123.5,-23 129.5,-23 135.5,-29 135.5,-35 135.5,-35 135.5,-47 135.5,-47 135.5,-53 129.5,-59 123.5,-59"/>
<text text-anchor="middle" x="91" y="-37.3" font-family="Times,serif" font-size="14.00" fill="#00f2ff">GitHub Repo</text>
</g>
<!-- Git&#45;&gt;Remote -->
<g id="edge3" class="edge">
<title>Git&#45;&gt;Remote</title>
<path fill="none" stroke="#ff00ff" d="M91,-94.7C91,-86.98 91,-77.71 91,-69.11"/>
<polygon fill="#ff00ff" stroke="#ff00ff" points="91,-59.1 95.5,-69.1 91,-64.1 91,-69.1 91,-69.1 91,-69.1 91,-64.1 86.5,-69.1 91,-59.1 91,-59.1"/>
</g>
</g>
</svg>
