<?xml version="1.0" encoding="UTF-8" standalone="no"?>
<!DOCTYPE svg PUBLIC "-//W3C//DTD SVG 1.1//EN"
 "http://www.w3.org/Graphics/SVG/1.1/DTD/svg11.dtd">
<!-- Generated by graphviz version 2.43.0 (0)
 -->
<!-- Title: ObjGrounding Pages: 1 -->
<svg width="217pt" height="449pt"
 viewBox="0.00 0.00 217.00 448.58" xmlns="http://www.w3.org/2000/svg" xmlns:xlink="http://www.w3.org/1999/xlink">
<g id="graph0" class="graph" transform="scale(1 1) rotate(0) translate(4 444.58)">
<title>ObjGrounding</title>
<polygon fill="#0d1117" stroke="transparent" points="-4,4 -4,-444.58 213,-444.58 213,4 -4,4"/>
<text text-anchor="middle" x="104.5" y="-7.8" font-family="Helvetica,sans-Serif" font-size="14.00" fill="#00f2ff">T1.3: Semantic Grounding Loop</text>
<!-- HumanTruth -->
<g id="node1" class="node">
<title>HumanTruth</title>
<path fill="#161b22" stroke="#00ff00" d="M170.6,-440.58C170.6,-440.58 49.6,-440.58 49.6,-440.58 43.6,-440.58 37.6,-434.58 37.6,-428.58 37.6,-428.58 37.6,-416.58 37.6,-416.58 37.6,-410.58 43.6,-404.58 49.6,-404.58 49.6,-404.58 170.6,-404.58 170.6,-404.58 176.6,-404.58 182.6,-410.58 182.6,-416.58 182.6,-416.58 182.6,-428.58 182.6,-428.58 182.6,-434.58 176.6,-440.58 170.6,-440.58"/>
<text text-anchor="middle" x="110.1" y="-418.88" font-family="Times,serif" font-size="14.00" fill="#00f2ff">Human Semantic Truth</text>
</g>
<!-- Encoding -->
<g id="node2" class="node">
<title>Encoding</title>
<polygon fill="#161b22" stroke="#00f2ff" points="112.6,-361.58 11.6,-361.58 11.6,-337.58 112.6,-337.58 124.6,-349.58 112.6,-361.58"/>
<text text-anchor="middle" x="68.1" y="-345.88" font-family="Times,serif" font-size="14.00" fill="#00f2ff">Prompt Encoding</text>
</g>
<!-- HumanTruth&#45;&gt;Encoding -->
<g id="edge1" class="edge">
<title>HumanTruth&#45;&gt;Encoding</title>
<path fill="none" stroke="#ff00ff" d="M99.94,-404.4C94.98,-396.02 88.92,-385.78 83.43,-376.49"/>
<polygon fill="#ff00ff" stroke="#ff00ff" points="78.18,-367.61 87.14,-373.93 80.72,-371.92 83.27,-376.22 83.27,-376.22 83.27,-376.22 80.72,-371.92 79.4,-378.51 78.18,-367.61 78.18,-367.61"/>
</g>
<!-- AIContext -->
<g id="node3" class="node">
<title>AIContext</title>
<path fill="#161b22" stroke="#00f2ff" d="M124.6,-277.31C124.6,-279.12 98.38,-280.58 66.1,-280.58 33.82,-280.58 7.6,-279.12 7.6,-277.31 7.6,-277.31 7.6,-247.86 7.6,-247.86 7.6,-246.05 33.82,-244.58 66.1,-244.58 98.38,-244.58 124.6,-246.05 124.6,-247.86 124.6,-247.86 124.6,-277.31 124.6,-277.31"/>
<path fill="none" stroke="#00f2ff" d="M124.6,-277.31C124.6,-275.51 98.38,-274.04 66.1,-274.04 33.82,-274.04 7.6,-275.51 7.6,-277.31"/>
<text text-anchor="middle" x="66.1" y="-258.88" font-family="Times,serif" font-size="14.00" fill="#00f2ff">AI Model Context</text>
</g>
<!-- Encoding&#45;&gt;AIContext -->
<g id="edge2" class="edge">
<title>Encoding&#45;&gt;AIContext</title>
<path fill="none" stroke="#ff00ff" d="M67.7,-331.38C67.43,-319.75 67.06,-304.13 66.74,-290.82"/>
<polygon fill="#ff00ff" stroke="#ff00ff" points="66.51,-280.76 71.24,-290.65 66.63,-285.76 66.74,-290.76 66.74,-290.76 66.74,-290.76 66.63,-285.76 62.24,-290.86 66.51,-280.76 66.51,-280.76"/>
</g>
<!-- Validation -->
<g id="node4" class="node">
<title>Validation</title>
<ellipse fill="#161b22" stroke="#00f2ff" cx="109.1" cy="-115.29" rx="92.08" ry="92.08"/>
<text text-anchor="middle" x="109.1" y="-111.59" font-family="Times,serif" font-size="14.00" fill="#00f2ff">Grounding Verification</text>
</g>
<!-- AIContext&#45;&gt;Validation -->
<g id="edge3" class="edge">
<title>AIContext&#45;&gt;Validation</title>
<path fill="none" stroke="#ff00ff" d="M71.21,-244.35C73.64,-236.12 76.76,-225.57 80.17,-214.06"/>
<polygon fill="#ff00ff" stroke="#ff00ff" points="83.09,-204.19 84.57,-215.06 81.67,-208.99 80.25,-213.78 80.25,-213.78 80.25,-213.78 81.67,-208.99 75.94,-212.5 83.09,-204.19 83.09,-204.19"/>
</g>
<!-- Validation&#45;&gt;HumanTruth -->
<g id="edge4" class="edge">
<title>Validation&#45;&gt;HumanTruth</title>
<path fill="none" stroke="#ff00ff" d="M130.33,-205.36C138.68,-253.72 143.97,-314.34 133.1,-367.58 131.21,-376.87 127.66,-386.53 123.9,-395.08"/>
<polygon fill="#ff00ff" stroke="#ff00ff" points="119.65,-404.17 119.81,-393.2 121.77,-399.64 123.88,-395.11 123.88,-395.11 123.88,-395.11 121.77,-399.64 127.96,-397.02 119.65,-404.17 119.65,-404.17"/>
<text text-anchor="middle" x="170.1" y="-302.38" font-family="Times,serif" font-size="14.00"> Feedback </text>
</g>
</g>
</svg>
