<?xml version="1.0" encoding="UTF-8" standalone="no"?>
<!DOCTYPE svg PUBLIC "-//W3C//DTD SVG 1.1//EN"
 "http://www.w3.org/Graphics/SVG/1.1/DTD/svg11.dtd">
<!-- Generated by graphviz version 2.43.0 (0)
 -->
<!-- Title: ObjAxiom Pages: 1 -->
<svg width="159pt" height="217pt"
 viewBox="0.00 0.00 159.00 217.00" xmlns="http://www.w3.org/2000/svg" xmlns:xlink="http://www.w3.org/1999/xlink">
<g id="graph0" class="graph" transform="scale(1 1) rotate(0) translate(4 213)">
<title>ObjAxiom</title>
<polygon fill="#0d1117" stroke="transparent" points="-4,4 -4,-213 155,-213 155,4 -4,4"/>
<text text-anchor="middle" x="75.5" y="-7.8" font-family="Helvetica,sans-Serif" font-size="14.00" fill="#00f2ff">T1.4: Axiom Hierarchy</text>
<!-- Core -->
<g id="node1" class="node">
<title>Core</title>
<path fill="#161b22" stroke="#00f2ff" stroke-width="3" d="M123.5,-135C123.5,-135 27.5,-135 27.5,-135 21.5,-135 15.5,-129 15.5,-123 15.5,-123 15.5,-109 15.5,-109 15.5,-103 21.5,-97 27.5,-97 27.5,-97 123.5,-97 123.5,-97 129.5,-97 135.5,-103 135.5,-109 135.5,-109 135.5,-123 135.5,-123 135.5,-129 129.5,-135 123.5,-135"/>
<text text-anchor="middle" x="75.5" y="-119.8" font-family="Times,serif" font-size="14.00" fill="#00f2ff">Core Axioms</text>
<text text-anchor="middle" x="75.5" y="-104.8" font-family="Times,serif" font-size="14.00" fill="#00f2ff">(Lang/Framework)</text>
</g>
<!-- Sub -->
<g id="node2" class="node">
<title>Sub</title>
<path fill="#161b22" stroke="#00f2ff" d="M106.5,-61C106.5,-61 44.5,-61 44.5,-61 38.5,-61 32.5,-55 32.5,-49 32.5,-49 32.5,-35 32.5,-35 32.5,-29 38.5,-23 44.5,-23 44.5,-23 106.5,-23 106.5,-23 112.5,-23 118.5,-29 118.5,-35 118.5,-35 118.5,-49 118.5,-49 118.5,-55 112.5,-61 106.5,-61"/>
<text text-anchor="middle" x="75.5" y="-45.8" font-family="Times,serif" font-size="14.00" fill="#00f2ff">Sub&#45;Axioms</text>
<text text-anchor="middle" x="75.5" y="-30.8" font-family="Times,serif" font-size="14.00" fill="#00f2ff">(Libs/APIs)</text>
</g>
<!-- Core&#45;&gt;Sub -->
<g id="edge2" class="edge">
<title>Core&#45;&gt;Sub</title>
<path fill="none" stroke="#ff00ff" d="M75.5,-96.83C75.5,-89.13 75.5,-79.97 75.5,-71.42"/>
<polygon fill="#ff00ff" stroke="#ff00ff" points="75.5,-61.41 80,-71.41 75.5,-66.41 75.5,-71.41 75.5,-71.41 75.5,-71.41 75.5,-66.41 71,-71.41 75.5,-61.41 75.5,-61.41"/>
</g>
<!-- Env -->
<g id="node3" class="node">
<title>Env</title>
<path fill="#161b22" stroke="#ffff00" d="M113.5,-209C113.5,-209 37.5,-209 37.5,-209 31.5,-209 25.5,-203 25.5,-197 25.5,-197 25.5,-183 25.5,-183 25.5,-177 31.5,-171 37.5,-171 37.5,-171 113.5,-171 113.5,-171 119.5,-171 125.5,-177 125.5,-183 125.5,-183 125.5,-197 125.5,-197 125.5,-203 119.5,-209 113.5,-209"/>
<text text-anchor="middle" x="75.5" y="-193.8" font-family="Times,serif" font-size="14.00" fill="#00f2ff">Environment</text>
<text text-anchor="middle" x="75.5" y="-178.8" font-family="Times,serif" font-size="14.00" fill="#00f2ff">(OS/Hardware)</text>
</g>
<!-- Env&#45;&gt;Core -->
<g id="edge1" class="edge">
<title>Env&#45;&gt;Core</title>
<path fill="none" stroke="#ff00ff" d="M75.5,-170.83C75.5,-163.13 75.5,-153.97 75.5,-145.42"/>
<polygon fill="#ff00ff" stroke="#ff00ff" points="75.5,-135.41 80,-145.41 75.5,-140.41 75.5,-145.41 75.5,-145.41 75.5,-145.41 75.5,-140.41 71,-145.41 75.5,-135.41 75.5,-135.41"/>
</g>
</g>
</svg>
