<?xml version="1.0" encoding="UTF-8" standalone="no"?>
<!DOCTYPE svg PUBLIC "-//W3C//DTD SVG 1.1//EN"
 "http://www.w3.org/Graphics/SVG/1.1/DTD/svg11.dtd">
<!-- Generated by graphviz version 2.43.0 (0)
 -->
<!-- Title: ObjConstraints Pages: 1 -->
<svg width="262pt" height="293pt"
 viewBox="0.00 0.00 261.50 293.00" xmlns="http://www.w3.org/2000/svg" xmlns:xlink="http://www.w3.org/1999/xlink">
<g id="graph0" class="graph" transform="scale(1 1) rotate(0) translate(4 289)">
<title>ObjConstraints</title>
<polygon fill="#0d1117" stroke="transparent" points="-4,4 -4,-289 257.5,-289 257.5,4 -4,4"/>
<text text-anchor="middle" x="126.75" y="-7.8" font-family="Helvetica,sans-Serif" font-size="14.00" fill="#00f2ff">T1.2: Constraint Filtering Matrix</text>
<!-- Requirement -->
<g id="node1" class="node">
<title>Requirement</title>
<path fill="#161b22" stroke="#00f2ff" d="M178,-285C178,-285 86,-285 86,-285 80,-285 74,-279 74,-273 74,-273 74,-261 74,-261 74,-255 80,-249 86,-249 86,-249 178,-249 178,-249 184,-249 190,-255 190,-261 190,-261 190,-273 190,-273 190,-279 184,-285 178,-285"/>
<text text-anchor="middle" x="132" y="-263.3" font-family="Times,serif" font-size="14.00" fill="#00f2ff">Raw Requirement</text>
</g>
<!-- Filter -->
<g id="node4" class="node">
<title>Filter</title>
<path fill="#161b22" stroke="#00f2ff" d="M120.29,-210.39C120.29,-210.39 62.94,-197.61 62.94,-197.61 57.08,-196.31 57.08,-193.69 62.94,-192.39 62.94,-192.39 120.29,-179.61 120.29,-179.61 126.14,-178.31 137.86,-178.31 143.71,-179.61 143.71,-179.61 201.06,-192.39 201.06,-192.39 206.92,-193.69 206.92,-196.31 201.06,-197.61 201.06,-197.61 143.71,-210.39 143.71,-210.39 137.86,-211.69 126.14,-211.69 120.29,-210.39"/>
<text text-anchor="middle" x="132" y="-191.3" font-family="Times,serif" font-size="14.00" fill="#00f2ff">Axiom Filter</text>
</g>
<!-- Requirement&#45;&gt;Filter -->
<g id="edge1" class="edge">
<title>Requirement&#45;&gt;Filter</title>
<path fill="none" stroke="#ff00ff" d="M132,-248.7C132,-240.98 132,-231.71 132,-223.11"/>
<polygon fill="#ff00ff" stroke="#ff00ff" points="132,-213.1 136.5,-223.1 132,-218.1 132,-223.1 132,-223.1 132,-223.1 132,-218.1 127.5,-223.1 132,-213.1 132,-213.1"/>
</g>
<!-- Hard -->
<g id="node2" class="node">
<title>Hard</title>
<path fill="#161b22" stroke="#ff0000" d="M116,-141C116,-141 12,-141 12,-141 6,-141 0,-135 0,-129 0,-129 0,-115 0,-115 0,-109 6,-103 12,-103 12,-103 116,-103 116,-103 122,-103 128,-109 128,-115 128,-115 128,-129 128,-129 128,-135 122,-141 116,-141"/>
<text text-anchor="middle" x="64" y="-125.8" font-family="Times,serif" font-size="14.00" fill="#00f2ff">Hard Constraints</text>
<text text-anchor="middle" x="64" y="-110.8" font-family="Times,serif" font-size="14.00" fill="#00f2ff">(Security/Hardware)</text>
</g>
<!-- Final -->
<g id="node5" class="node">
<title>Final</title>
<path fill="#161b22" stroke="#00f2ff" d="M203.1,-42.51C203.1,-42.51 203.1,-47.49 203.1,-47.49 203.1,-49.97 200.69,-53.07 198.28,-53.68 198.28,-53.68 166.27,-61.78 166.27,-61.78 163.86,-62.39 158.97,-63 156.48,-63 156.48,-63 107.52,-63 107.52,-63 105.03,-63 100.14,-62.39 97.73,-61.78 97.73,-61.78 65.72,-53.68 65.72,-53.68 63.31,-53.07 60.9,-49.97 60.9,-47.49 60.9,-47.49 60.9,-42.51 60.9,-42.51 60.9,-40.03 63.31,-36.93 65.72,-36.32 65.72,-36.32 97.73,-28.22 97.73,-28.22 100.14,-27.61 105.03,-27 107.52,-27 107.52,-27 156.48,-27 156.48,-27 158.97,-27 163.86,-27.61 166.27,-28.22 166.27,-28.22 198.28,-36.32 198.28,-36.32 200.69,-36.93 203.1,-40.03 203.1,-42.51"/>
<path fill="none" stroke="#00f2ff" d="M207.11,-41.48C207.11,-41.48 207.11,-48.52 207.11,-48.52 207.11,-52.05 203.69,-56.43 200.28,-57.3 200.28,-57.3 168.78,-65.27 168.78,-65.27 165.37,-66.14 158.43,-67 154.9,-67 154.9,-67 109.1,-67 109.1,-67 105.57,-67 98.63,-66.14 95.22,-65.27 95.22,-65.27 63.72,-57.3 63.72,-57.3 60.31,-56.43 56.89,-52.05 56.89,-48.52 56.89,-48.52 56.89,-41.48 56.89,-41.48 56.89,-37.95 60.31,-33.57 63.72,-32.7 63.72,-32.7 95.22,-24.73 95.22,-24.73 98.63,-23.86 105.57,-23 109.1,-23 109.1,-23 154.9,-23 154.9,-23 158.43,-23 165.37,-23.86 168.78,-24.73 168.78,-24.73 200.28,-32.7 200.28,-32.7 203.69,-33.57 207.11,-37.95 207.11,-41.48"/>
<text text-anchor="middle" x="132" y="-41.3" font-family="Times,serif" font-size="14.00" fill="#00f2ff">Project Axioms</text>
</g>
<!-- Hard&#45;&gt;Final -->
<g id="edge4" class="edge">
<title>Hard&#45;&gt;Final</title>
<path fill="none" stroke="#ff00ff" d="M80.46,-102.84C88.08,-94.45 97.31,-84.26 105.84,-74.85"/>
<polygon fill="#ff00ff" stroke="#ff00ff" points="112.8,-67.18 109.41,-77.61 109.44,-70.88 106.08,-74.59 106.08,-74.59 106.08,-74.59 109.44,-70.88 102.75,-71.56 112.8,-67.18 112.8,-67.18"/>
</g>
<!-- Soft -->
<g id="node3" class="node">
<title>Soft</title>
<path fill="#161b22" stroke="#00ff00" d="M241.5,-141C241.5,-141 158.5,-141 158.5,-141 152.5,-141 146.5,-135 146.5,-129 146.5,-129 146.5,-115 146.5,-115 146.5,-109 152.5,-103 158.5,-103 158.5,-103 241.5,-103 241.5,-103 247.5,-103 253.5,-109 253.5,-115 253.5,-115 253.5,-129 253.5,-129 253.5,-135 247.5,-141 241.5,-141"/>
<text text-anchor="middle" x="200" y="-125.8" font-family="Times,serif" font-size="14.00" fill="#00f2ff">Soft Constraints</text>
<text text-anchor="middle" x="200" y="-110.8" font-family="Times,serif" font-size="14.00" fill="#00f2ff">(Style/Elegance)</text>
</g>
<!-- Soft&#45;&gt;Final -->
<g id="edge5" class="edge">
<title>Soft&#45;&gt;Final</title>
<path fill="none" stroke="#ff00ff" d="M183.54,-102.84C175.92,-94.45 166.69,-84.26 158.16,-74.85"/>
<polygon fill="#ff00ff" stroke="#ff00ff" points="151.2,-67.18 161.25,-71.56 154.56,-70.88 157.92,-74.59 157.92,-74.59 157.92,-74.59 154.56,-70.88 154.59,-77.61 151.2,-67.18 151.2,-67.18"/>
</g>
<!-- Filter&#45;&gt;Hard -->
<g id="edge2" class="edge">
<title>Filter&#45;&gt;Hard</title>
<path fill="none" stroke="#ff00ff" d="M118.57,-179.97C109.97,-171 98.56,-159.09 88.4,-148.48"/>
<polygon fill="#ff00ff" stroke="#ff00ff" points="81.28,-141.05 91.45,-145.15 84.74,-144.66 88.2,-148.27 88.2,-148.27 88.2,-148.27 84.74,-144.66 84.95,-151.38 81.28,-141.05 81.28,-141.05"/>
</g>
<!-- Filter&#45;&gt;Soft -->
<g id="edge3" class="edge">
<title>Filter&#45;&gt;Soft</title>
<path fill="none" stroke="#ff00ff" d="M145.43,-179.97C154.03,-171 165.44,-159.09 175.6,-148.48"/>
<polygon fill="#ff00ff" stroke="#ff00ff" points="182.72,-141.05 179.05,-151.38 179.26,-144.66 175.8,-148.27 175.8,-148.27 175.8,-148.27 179.26,-144.66 172.55,-145.15 182.72,-141.05 182.72,-141.05"/>
</g>
</g>
</svg>
