<?xml version="1.0" encoding="UTF-8" standalone="no"?>
<!DOCTYPE svg PUBLIC "-//W3C//DTD SVG 1.1//EN"
 "http://www.w3.org/Graphics/SVG/1.1/DTD/svg11.dtd">
<!-- Generated by graphviz version 2.43.0 (0)
 -->
<!-- Title: ObjVision Pages: 1 -->
<svg width="181pt" height="285pt"
 viewBox="0.00 0.00 181.00 285.00" xmlns="http://www.w3.org/2000/svg" xmlns:xlink="http://www.w3.org/1999/xlink">
<g id="graph0" class="graph" transform="scale(1 1) rotate(0) translate(4 281)">
<title>ObjVision</title>
<polygon fill="#0d1117" stroke="transparent" points="-4,4 -4,-281 177,-281 177,4 -4,4"/>
<text text-anchor="middle" x="86.5" y="-7.8" font-family="Helvetica,sans-Serif" font-size="14.00" fill="#00f2ff">T1.1: Vision to Intent Flow</text>
<!-- Vision -->
<g id="node1" class="node">
<title>Vision</title>
<path fill="#161b22" stroke="#00ff00" d="M136,-277C136,-277 37,-277 37,-277 31,-277 25,-271 25,-265 25,-265 25,-251 25,-251 25,-245 31,-239 37,-239 37,-239 136,-239 136,-239 142,-239 148,-245 148,-251 148,-251 148,-265 148,-265 148,-271 142,-277 136,-277"/>
<text text-anchor="middle" x="86.5" y="-261.8" font-family="Times,serif" font-size="14.00" fill="#00f2ff">High&#45;Level Vision</text>
<text text-anchor="middle" x="86.5" y="-246.8" font-family="Times,serif" font-size="14.00" fill="#00f2ff">(Natural Language)</text>
</g>
<!-- Extraction -->
<g id="node2" class="node">
<title>Extraction</title>
<ellipse fill="#161b22" stroke="#00f2ff" cx="86.5" cy="-185" rx="71.49" ry="18"/>
<text text-anchor="middle" x="86.5" y="-181.3" font-family="Times,serif" font-size="14.00" fill="#00f2ff">Entity Extraction</text>
</g>
<!-- Vision&#45;&gt;Extraction -->
<g id="edge1" class="edge">
<title>Vision&#45;&gt;Extraction</title>
<path fill="none" stroke="#ff00ff" d="M86.5,-238.72C86.5,-230.97 86.5,-221.79 86.5,-213.27"/>
<polygon fill="#ff00ff" stroke="#ff00ff" points="86.5,-203 91,-213 86.5,-208 86.5,-213 86.5,-213 86.5,-213 86.5,-208 82,-213 86.5,-203 86.5,-203"/>
</g>
<!-- SemanticMap -->
<g id="node3" class="node">
<title>SemanticMap</title>
<path fill="#161b22" stroke="#00f2ff" d="M123,-131C123,-131 50,-131 50,-131 44,-131 38,-125 38,-119 38,-119 38,-107 38,-107 38,-101 44,-95 50,-95 50,-95 123,-95 123,-95 129,-95 135,-101 135,-107 135,-107 135,-119 135,-119 135,-125 129,-131 123,-131"/>
<text text-anchor="middle" x="86.5" y="-109.3" font-family="Times,serif" font-size="14.00" fill="#00f2ff">Semantic Map</text>
</g>
<!-- Extraction&#45;&gt;SemanticMap -->
<g id="edge2" class="edge">
<title>Extraction&#45;&gt;SemanticMap</title>
<path fill="none" stroke="#ff00ff" d="M86.5,-166.7C86.5,-158.98 86.5,-149.71 86.5,-141.11"/>
<polygon fill="#ff00ff" stroke="#ff00ff" points="86.5,-131.1 91,-141.1 86.5,-136.1 86.5,-141.1 86.5,-141.1 86.5,-141.1 86.5,-136.1 82,-141.1 86.5,-131.1 86.5,-131.1"/>
</g>
<!-- FormalGoals -->
<g id="node4" class="node">
<title>FormalGoals</title>
<path fill="#161b22" stroke="#00f2ff" d="M19.29,-34.32C19.29,-34.32 79.88,-24.11 79.88,-24.11 83.19,-23.56 89.81,-23.56 93.12,-24.11 93.12,-24.11 153.71,-34.32 153.71,-34.32 157.01,-34.88 160.31,-38.79 160.3,-42.15 160.3,-42.15 160.27,-48.85 160.27,-48.85 160.26,-52.21 156.9,-55.56 153.54,-55.56 153.54,-55.56 19.46,-55.56 19.46,-55.56 16.1,-55.56 12.74,-52.21 12.73,-48.85 12.73,-48.85 12.7,-42.15 12.7,-42.15 12.69,-38.79 15.99,-34.88 19.29,-34.32"/>
<text text-anchor="middle" x="86.5" y="-37.3" font-family="Times,serif" font-size="14.00" fill="#00f2ff">Formal Goals</text>
</g>
<!-- SemanticMap&#45;&gt;FormalGoals -->
<g id="edge3" class="edge">
<title>SemanticMap&#45;&gt;FormalGoals</title>
<path fill="none" stroke="#ff00ff" d="M86.5,-94.7C86.5,-85.99 86.5,-75.3 86.5,-65.83"/>
<polygon fill="#ff00ff" stroke="#ff00ff" points="86.5,-55.82 91,-65.82 86.5,-60.82 86.5,-65.82 86.5,-65.82 86.5,-65.82 86.5,-60.82 82,-65.82 86.5,-55.82 86.5,-55.82"/>
</g>
</g>
</svg>
