<?xml version="1.0" encoding="UTF-8" standalone="no"?>
<!DOCTYPE svg PUBLIC "-//W3C//DTD SVG 1.1//EN"
 "http://www.w3.org/Graphics/SVG/1.1/DTD/svg11.dtd">
<!-- Generated by graphviz version 2.43.0 (0)
 -->
<!-- Title: ObjSeeds Pages: 1 -->
<svg width="309pt" height="283pt"
 viewBox="0.00 0.00 309.13 283.00" xmlns="http://www.w3.org/2000/svg" xmlns:xlink="http://www.w3.org/1999/xlink">
<g id="graph0" class="graph" transform="scale(1 1) rotate(0) translate(4 279)">
<title>ObjSeeds</title>
<polygon fill="#0d1117" stroke="transparent" points="-4,4 -4,-279 305.13,-279 305.13,4 -4,4"/>
<text text-anchor="middle" x="150.56" y="-7.8" font-family="Helvetica,sans-Serif" font-size="14.00" fill="#00f2ff">T1.5: Seed Propagation Path</text>
<!-- Source -->
<g id="node1" class="node">
<title>Source</title>
<polygon fill="#161b22" stroke="#00f2ff" points="192.06,-275 103.06,-275 103.06,-239 198.06,-239 198.06,-269 192.06,-275"/>
<polyline fill="none" stroke="#00f2ff" points="192.06,-275 192.06,-269 "/>
<polyline fill="none" stroke="#00f2ff" points="198.06,-269 192.06,-269 "/>
<text text-anchor="middle" x="150.56" y="-253.3" font-family="Times,serif" font-size="14.00" fill="#00f2ff">Objective Doc</text>
</g>
<!-- Extract -->
<g id="node2" class="node">
<title>Extract</title>
<path fill="#161b22" stroke="#00f2ff" d="M289.19,-203C289.19,-203 73.58,-203 73.58,-203 67.58,-203 56.4,-199.97 51.21,-196.95 51.21,-196.95 10.3,-173.05 10.3,-173.05 5.12,-170.03 5.94,-167 11.94,-167 11.94,-167 227.55,-167 227.55,-167 233.55,-167 244.73,-170.03 249.91,-173.05 249.91,-173.05 290.83,-196.95 290.83,-196.95 296.01,-199.97 295.19,-203 289.19,-203"/>
<text text-anchor="middle" x="150.56" y="-181.3" font-family="Times,serif" font-size="14.00" fill="#00f2ff">Semantic Seed Extraction</text>
</g>
<!-- Source&#45;&gt;Extract -->
<g id="edge1" class="edge">
<title>Source&#45;&gt;Extract</title>
<path fill="none" stroke="#ff00ff" d="M150.56,-238.7C150.56,-230.98 150.56,-221.71 150.56,-213.11"/>
<polygon fill="#ff00ff" stroke="#ff00ff" points="150.56,-203.1 155.06,-213.1 150.56,-208.1 150.56,-213.1 150.56,-213.1 150.56,-213.1 150.56,-208.1 146.06,-213.1 150.56,-203.1 150.56,-203.1"/>
</g>
<!-- SeedA -->
<g id="node3" class="node">
<title>SeedA</title>
<path fill="#161b22" stroke="#00ff00" d="M129.56,-131C129.56,-131 97.56,-131 97.56,-131 91.56,-131 85.56,-125 85.56,-119 85.56,-119 85.56,-107 85.56,-107 85.56,-101 91.56,-95 97.56,-95 97.56,-95 129.56,-95 129.56,-95 135.56,-95 141.56,-101 141.56,-107 141.56,-107 141.56,-119 141.56,-119 141.56,-125 135.56,-131 129.56,-131"/>
<text text-anchor="middle" x="113.56" y="-109.3" font-family="Times,serif" font-size="14.00" fill="#00f2ff">Seed A</text>
</g>
<!-- Extract&#45;&gt;SeedA -->
<g id="edge2" class="edge">
<title>Extract&#45;&gt;SeedA</title>
<path fill="none" stroke="#ff00ff" d="M141.42,-166.7C137.16,-158.64 132.01,-148.89 127.3,-139.98"/>
<polygon fill="#ff00ff" stroke="#ff00ff" points="122.61,-131.1 131.26,-137.84 124.94,-135.52 127.28,-139.95 127.28,-139.95 127.28,-139.95 124.94,-135.52 123.3,-142.05 122.61,-131.1 122.61,-131.1"/>
</g>
<!-- SeedB -->
<g id="node4" class="node">
<title>SeedB</title>
<path fill="#161b22" stroke="#00ff00" d="M203.56,-131C203.56,-131 171.56,-131 171.56,-131 165.56,-131 159.56,-125 159.56,-119 159.56,-119 159.56,-107 159.56,-107 159.56,-101 165.56,-95 171.56,-95 171.56,-95 203.56,-95 203.56,-95 209.56,-95 215.56,-101 215.56,-107 215.56,-107 215.56,-119 215.56,-119 215.56,-125 209.56,-131 203.56,-131"/>
<text text-anchor="middle" x="187.56" y="-109.3" font-family="Times,serif" font-size="14.00" fill="#00f2ff">Seed B</text>
</g>
<!-- Extract&#45;&gt;SeedB -->
<g id="edge3" class="edge">
<title>Extract&#45;&gt;SeedB</title>
<path fill="none" stroke="#ff00ff" d="M159.71,-166.7C163.97,-158.64 169.12,-148.89 173.83,-139.98"/>
<polygon fill="#ff00ff" stroke="#ff00ff" points="178.52,-131.1 177.83,-142.05 176.19,-135.52 173.85,-139.95 173.85,-139.95 173.85,-139.95 176.19,-135.52 169.87,-137.84 178.52,-131.1 178.52,-131.1"/>
</g>
<!-- Implementation -->
<g id="node5" class="node">
<title>Implementation</title>
<path fill="#161b22" stroke="#00f2ff" d="M206.56,-59C206.56,-59 94.56,-59 94.56,-59 88.56,-59 82.56,-53 82.56,-47 82.56,-47 82.56,-35 82.56,-35 82.56,-29 88.56,-23 94.56,-23 94.56,-23 206.56,-23 206.56,-23 212.56,-23 218.56,-29 218.56,-35 218.56,-35 218.56,-47 218.56,-47 218.56,-53 212.56,-59 206.56,-59"/>
<text text-anchor="middle" x="150.56" y="-37.3" font-family="Times,serif" font-size="14.00" fill="#00f2ff">Code Implementation</text>
</g>
<!-- SeedA&#45;&gt;Implementation -->
<g id="edge4" class="edge">
<title>SeedA&#45;&gt;Implementation</title>
<path fill="none" stroke="#ff00ff" d="M122.71,-94.7C126.97,-86.64 132.12,-76.89 136.83,-67.98"/>
<polygon fill="#ff00ff" stroke="#ff00ff" points="141.52,-59.1 140.83,-70.05 139.19,-63.52 136.85,-67.95 136.85,-67.95 136.85,-67.95 139.19,-63.52 132.87,-65.84 141.52,-59.1 141.52,-59.1"/>
</g>
<!-- SeedB&#45;&gt;Implementation -->
<g id="edge5" class="edge">
<title>SeedB&#45;&gt;Implementation</title>
<path fill="none" stroke="#ff00ff" d="M178.42,-94.7C174.16,-86.64 169.01,-76.89 164.3,-67.98"/>
<polygon fill="#ff00ff" stroke="#ff00ff" points="159.61,-59.1 168.26,-65.84 161.94,-63.52 164.28,-67.95 164.28,-67.95 164.28,-67.95 161.94,-63.52 160.3,-70.05 159.61,-59.1 159.61,-59.1"/>
</g>
</g>
</svg>
