<?xml version="1.0" encoding="UTF-8" standalone="no"?>
<!DOCTYPE svg PUBLIC "-//W3C//DTD SVG 1.1//EN"
 "http://www.w3.org/Graphics/SVG/1.1/DTD/svg11.dtd">
<!-- Generated by graphviz version 2.43.0 (0)
 -->
<!-- Title: PruneFilter Pages: 1 -->
<svg width="363pt" height="219pt"
 viewBox="0.00 0.00 362.50 219.00" xmlns="http://www.w3.org/2000/svg" xmlns:xlink="http://www.w3.org/1999/xlink">
<g id="graph0" class="graph" transform="scale(1 1) rotate(0) translate(4 215)">
<title>PruneFilter</title>
<polygon fill="#0d1117" stroke="transparent" points="-4,4 -4,-215 358.5,-215 358.5,4 -4,4"/>
<text text-anchor="middle" x="177.25" y="-7.8" font-family="Helvetica,sans-Serif" font-size="14.00" fill="#00f2ff">T3.2: Heuristic Filtering Layers</text>
<!-- Candidate -->
<g id="node1" class="node">
<title>Candidate</title>
<path fill="#161b22" stroke="#00f2ff" d="M224.5,-211C224.5,-211 144.5,-211 144.5,-211 138.5,-211 132.5,-205 132.5,-199 132.5,-199 132.5,-187 132.5,-187 132.5,-181 138.5,-175 144.5,-175 144.5,-175 224.5,-175 224.5,-175 230.5,-175 236.5,-181 236.5,-187 236.5,-187 236.5,-199 236.5,-199 236.5,-205 230.5,-211 224.5,-211"/>
<text text-anchor="middle" x="184.5" y="-189.3" font-family="Times,serif" font-size="14.00" fill="#00f2ff">Code Candidate</text>
</g>
<!-- Complexity -->
<g id="node2" class="node">
<title>Complexity</title>
<path fill="#161b22" stroke="#ff0000" d="M107,-139C107,-139 12,-139 12,-139 6,-139 0,-133 0,-127 0,-127 0,-115 0,-115 0,-109 6,-103 12,-103 12,-103 107,-103 107,-103 113,-103 119,-109 119,-115 119,-115 119,-127 119,-127 119,-133 113,-139 107,-139"/>
<text text-anchor="middle" x="59.5" y="-117.3" font-family="Times,serif" font-size="14.00" fill="#00f2ff">Complexity Check</text>
</g>
<!-- Candidate&#45;&gt;Complexity -->
<g id="edge1" class="edge">
<title>Candidate&#45;&gt;Complexity</title>
<path fill="none" stroke="#ff00ff" d="M153.92,-174.88C137.43,-165.64 116.88,-154.13 99.16,-144.21"/>
<polygon fill="#ff00ff" stroke="#ff00ff" points="90.2,-139.19 101.12,-140.15 94.56,-141.63 98.92,-144.08 98.92,-144.08 98.92,-144.08 94.56,-141.63 96.72,-148 90.2,-139.19 90.2,-139.19"/>
</g>
<!-- Security -->
<g id="node3" class="node">
<title>Security</title>
<path fill="#161b22" stroke="#ff0000" d="M220,-139C220,-139 149,-139 149,-139 143,-139 137,-133 137,-127 137,-127 137,-115 137,-115 137,-109 143,-103 149,-103 149,-103 220,-103 220,-103 226,-103 232,-109 232,-115 232,-115 232,-127 232,-127 232,-133 226,-139 220,-139"/>
<text text-anchor="middle" x="184.5" y="-117.3" font-family="Times,serif" font-size="14.00" fill="#00f2ff">Security Audit</text>
</g>
<!-- Candidate&#45;&gt;Security -->
<g id="edge2" class="edge">
<title>Candidate&#45;&gt;Security</title>
<path fill="none" stroke="#ff00ff" d="M184.5,-174.7C184.5,-166.98 184.5,-157.71 184.5,-149.11"/>
<polygon fill="#ff00ff" stroke="#ff00ff" points="184.5,-139.1 189,-149.1 184.5,-144.1 184.5,-149.1 184.5,-149.1 184.5,-149.1 184.5,-144.1 180,-149.1 184.5,-139.1 184.5,-139.1"/>
</g>
<!-- Elegance -->
<g id="node4" class="node">
<title>Elegance</title>
<path fill="#161b22" stroke="#00ff00" d="M342.5,-139C342.5,-139 262.5,-139 262.5,-139 256.5,-139 250.5,-133 250.5,-127 250.5,-127 250.5,-115 250.5,-115 250.5,-109 256.5,-103 262.5,-103 262.5,-103 342.5,-103 342.5,-103 348.5,-103 354.5,-109 354.5,-115 354.5,-115 354.5,-127 354.5,-127 354.5,-133 348.5,-139 342.5,-139"/>
<text text-anchor="middle" x="302.5" y="-117.3" font-family="Times,serif" font-size="14.00" fill="#00f2ff">Elegance Check</text>
</g>
<!-- Candidate&#45;&gt;Elegance -->
<g id="edge3" class="edge">
<title>Candidate&#45;&gt;Elegance</title>
<path fill="none" stroke="#ff00ff" d="M213.37,-174.88C228.79,-165.72 247.98,-154.34 264.6,-144.48"/>
<polygon fill="#ff00ff" stroke="#ff00ff" points="273.52,-139.19 267.22,-148.16 269.22,-141.74 264.92,-144.29 264.92,-144.29 264.92,-144.29 269.22,-141.74 262.63,-140.42 273.52,-139.19 273.52,-139.19"/>
</g>
<!-- Pass -->
<g id="node5" class="node">
<title>Pass</title>
<path fill="#161b22" stroke="#00ff00" d="M277.23,-42.51C277.23,-42.51 277.23,-47.49 277.23,-47.49 277.23,-49.97 274.79,-52.93 272.35,-53.4 272.35,-53.4 227.79,-62.05 227.79,-62.05 225.35,-62.53 220.42,-63 217.94,-63 217.94,-63 151.06,-63 151.06,-63 148.58,-63 143.65,-62.53 141.21,-62.05 141.21,-62.05 96.65,-53.4 96.65,-53.4 94.21,-52.93 91.77,-49.97 91.77,-47.49 91.77,-47.49 91.77,-42.51 91.77,-42.51 91.77,-40.03 94.21,-37.07 96.65,-36.6 96.65,-36.6 141.21,-27.95 141.21,-27.95 143.65,-27.47 148.58,-27 151.06,-27 151.06,-27 217.94,-27 217.94,-27 220.42,-27 225.35,-27.47 227.79,-27.95 227.79,-27.95 272.35,-36.6 272.35,-36.6 274.79,-37.07 277.23,-40.03 277.23,-42.51"/>
<path fill="none" stroke="#00ff00" d="M281.22,-41.42C281.22,-41.42 281.22,-48.58 281.22,-48.58 281.22,-52.17 277.7,-56.44 274.18,-57.12 274.18,-57.12 230.33,-65.63 230.33,-65.63 226.81,-66.32 219.71,-67 216.12,-67 216.12,-67 152.88,-67 152.88,-67 149.29,-67 142.19,-66.32 138.67,-65.63 138.67,-65.63 94.82,-57.12 94.82,-57.12 91.3,-56.44 87.78,-52.17 87.78,-48.58 87.78,-48.58 87.78,-41.42 87.78,-41.42 87.78,-37.83 91.3,-33.56 94.82,-32.88 94.82,-32.88 138.67,-24.37 138.67,-24.37 142.19,-23.68 149.29,-23 152.88,-23 152.88,-23 216.12,-23 216.12,-23 219.71,-23 226.81,-23.68 230.33,-24.37 230.33,-24.37 274.18,-32.88 274.18,-32.88 277.7,-33.56 281.22,-37.83 281.22,-41.42"/>
<text text-anchor="middle" x="184.5" y="-41.3" font-family="Times,serif" font-size="14.00" fill="#00f2ff">Accepted for Review</text>
</g>
<!-- Complexity&#45;&gt;Pass -->
<g id="edge4" class="edge">
<title>Complexity&#45;&gt;Pass</title>
<path fill="none" stroke="#ff00ff" d="M88.49,-102.84C103.85,-93.75 123.03,-82.39 140.21,-72.22"/>
<polygon fill="#ff00ff" stroke="#ff00ff" points="148.97,-67.03 142.66,-76 144.67,-69.58 140.37,-72.13 140.37,-72.13 140.37,-72.13 144.67,-69.58 138.08,-68.25 148.97,-67.03 148.97,-67.03"/>
</g>
<!-- Security&#45;&gt;Pass -->
<g id="edge5" class="edge">
<title>Security&#45;&gt;Pass</title>
<path fill="none" stroke="#ff00ff" d="M184.5,-102.84C184.5,-95.16 184.5,-85.88 184.5,-77.05"/>
<polygon fill="#ff00ff" stroke="#ff00ff" points="184.5,-67.03 189,-77.03 184.5,-72.03 184.5,-77.03 184.5,-77.03 184.5,-77.03 184.5,-72.03 180,-77.03 184.5,-67.03 184.5,-67.03"/>
</g>
<!-- Elegance&#45;&gt;Pass -->
<g id="edge6" class="edge">
<title>Elegance&#45;&gt;Pass</title>
<path fill="none" stroke="#ff00ff" d="M275.13,-102.84C260.77,-93.83 242.86,-82.6 226.76,-72.5"/>
<polygon fill="#ff00ff" stroke="#ff00ff" points="218.04,-67.03 228.9,-68.53 222.27,-69.69 226.51,-72.35 226.51,-72.35 226.51,-72.35 222.27,-69.69 224.12,-76.16 218.04,-67.03 218.04,-67.03"/>
</g>
</g>
</svg>
