<?xml version="1.0" encoding="UTF-8" standalone="no"?>
<!DOCTYPE svg PUBLIC "-//W3C//DTD SVG 1.1//EN"
 "http://www.w3.org/Graphics/SVG/1.1/DTD/svg11.dtd">
<!-- Generated by graphviz version 2.43.0 (0)
 -->
<!-- Title: PrunePromotion Pages: 1 -->
<svg width="277pt" height="283pt"
 viewBox="0.00 0.00 277.00 283.00" xmlns="http://www.w3.org/2000/svg" xmlns:xlink="http://www.w3.org/1999/xlink">
<g id="graph0" class="graph" transform="scale(1 1) rotate(0) translate(4 279)">
<title>PrunePromotion</title>
<polygon fill="#0d1117" stroke="transparent" points="-4,4 -4,-279 273,-279 273,4 -4,4"/>
<text text-anchor="middle" x="134.5" y="-7.8" font-family="Helvetica,sans-Serif" font-size="14.00" fill="#00f2ff">T3.5: Promotion Path of Elegant Solutions</text>
<!-- Draft -->
<g id="node1" class="node">
<title>Draft</title>
<path fill="#161b22" stroke="#00f2ff" d="M176,-275C176,-275 93,-275 93,-275 87,-275 81,-269 81,-263 81,-263 81,-251 81,-251 81,-245 87,-239 93,-239 93,-239 176,-239 176,-239 182,-239 188,-245 188,-251 188,-251 188,-263 188,-263 188,-269 182,-275 176,-275"/>
<text text-anchor="middle" x="134.5" y="-253.3" font-family="Times,serif" font-size="14.00" fill="#00f2ff">Unverified Code</text>
</g>
<!-- Pruned -->
<g id="node2" class="node">
<title>Pruned</title>
<path fill="#161b22" stroke="#00f2ff" d="M186.5,-203C186.5,-203 82.5,-203 82.5,-203 76.5,-203 70.5,-197 70.5,-191 70.5,-191 70.5,-179 70.5,-179 70.5,-173 76.5,-167 82.5,-167 82.5,-167 186.5,-167 186.5,-167 192.5,-167 198.5,-173 198.5,-179 198.5,-179 198.5,-191 198.5,-191 198.5,-197 192.5,-203 186.5,-203"/>
<text text-anchor="middle" x="134.5" y="-181.3" font-family="Times,serif" font-size="14.00" fill="#00f2ff">Heuristically Pruned</text>
</g>
<!-- Draft&#45;&gt;Pruned -->
<g id="edge1" class="edge">
<title>Draft&#45;&gt;Pruned</title>
<path fill="none" stroke="#ff00ff" d="M134.5,-238.7C134.5,-230.98 134.5,-221.71 134.5,-213.11"/>
<polygon fill="#ff00ff" stroke="#ff00ff" points="134.5,-203.1 139,-213.1 134.5,-208.1 134.5,-213.1 134.5,-213.1 134.5,-213.1 134.5,-208.1 130,-213.1 134.5,-203.1 134.5,-203.1"/>
</g>
<!-- Elegant -->
<g id="node3" class="node">
<title>Elegant</title>
<path fill="#161b22" stroke="#00ff00" stroke-width="3" d="M170,-131C170,-131 99,-131 99,-131 93,-131 87,-125 87,-119 87,-119 87,-107 87,-107 87,-101 93,-95 99,-95 99,-95 170,-95 170,-95 176,-95 182,-101 182,-107 182,-107 182,-119 182,-119 182,-125 176,-131 170,-131"/>
<text text-anchor="middle" x="134.5" y="-109.3" font-family="Times,serif" font-size="14.00" fill="#00f2ff">Elegant (ω+1)</text>
</g>
<!-- Pruned&#45;&gt;Elegant -->
<g id="edge2" class="edge">
<title>Pruned&#45;&gt;Elegant</title>
<path fill="none" stroke="#ff00ff" d="M134.5,-166.7C134.5,-158.98 134.5,-149.71 134.5,-141.11"/>
<polygon fill="#ff00ff" stroke="#ff00ff" points="134.5,-131.1 139,-141.1 134.5,-136.1 134.5,-141.1 134.5,-141.1 134.5,-141.1 134.5,-136.1 130,-141.1 134.5,-131.1 134.5,-131.1"/>
</g>
<!-- Master -->
<g id="node4" class="node">
<title>Master</title>
<polygon fill="#161b22" stroke="#ffff00" points="192.5,-59 189.5,-63 168.5,-63 165.5,-59 76.5,-59 76.5,-23 192.5,-23 192.5,-59"/>
<text text-anchor="middle" x="134.5" y="-37.3" font-family="Times,serif" font-size="14.00" fill="#00f2ff">Production / Repo</text>
</g>
<!-- Elegant&#45;&gt;Master -->
<g id="edge3" class="edge">
<title>Elegant&#45;&gt;Master</title>
<path fill="none" stroke="#ff00ff" d="M134.5,-94.7C134.5,-86.98 134.5,-77.71 134.5,-69.11"/>
<polygon fill="#ff00ff" stroke="#ff00ff" points="134.5,-59.1 139,-69.1 134.5,-64.1 134.5,-69.1 134.5,-69.1 134.5,-69.1 134.5,-64.1 130,-69.1 134.5,-59.1 134.5,-59.1"/>
</g>
</g>
</svg>
