<?xml version="1.0" encoding="UTF-8" standalone="no"?>
<!DOCTYPE svg PUBLIC "-//W3C//DTD SVG 1.1//EN"
 "http://www.w3.org/Graphics/SVG/1.1/DTD/svg11.dtd">
<!-- Generated by graphviz version 2.43.0 (0)
 -->
<!-- Title: PruneLogic Pages: 1 -->
<svg width="264pt" height="227pt"
 viewBox="0.00 0.00 264.00 227.00" xmlns="http://www.w3.org/2000/svg" xmlns:xlink="http://www.w3.org/1999/xlink">
<g id="graph0" class="graph" transform="scale(1 1) rotate(0) translate(4 223)">
<title>PruneLogic</title>
<polygon fill="#0d1117" stroke="transparent" points="-4,4 -4,-223 260,-223 260,4 -4,4"/>
<text text-anchor="middle" x="128" y="-7.8" font-family="Helvetica,sans-Serif" font-size="14.00" fill="#00f2ff">T3.4: Selection Logic &amp; Justification</text>
<!-- Input -->
<g id="node1" class="node">
<title>Input</title>
<path fill="#161b22" stroke="#00f2ff" d="M206.06,-219C206.06,-219 86,-219 86,-219 80,-219 69.7,-214.82 65.39,-210.64 65.39,-210.64 45.55,-191.36 45.55,-191.36 41.25,-187.18 42.94,-183 48.94,-183 48.94,-183 169,-183 169,-183 175,-183 185.3,-187.18 189.61,-191.36 189.61,-191.36 209.45,-210.64 209.45,-210.64 213.75,-214.82 212.06,-219 206.06,-219"/>
<text text-anchor="middle" x="127.5" y="-197.3" font-family="Times,serif" font-size="14.00" fill="#00f2ff">Heuristic Data</text>
</g>
<!-- Decision -->
<g id="node2" class="node">
<title>Decision</title>
<path fill="#161b22" stroke="#00ff00" stroke-width="2" d="M115.64,-144.17C115.64,-144.17 22.39,-129.83 22.39,-129.83 16.46,-128.91 16.46,-127.09 22.39,-126.17 22.39,-126.17 115.64,-111.83 115.64,-111.83 121.57,-110.91 133.43,-110.91 139.36,-111.83 139.36,-111.83 232.61,-126.17 232.61,-126.17 238.54,-127.09 238.54,-128.91 232.61,-129.83 232.61,-129.83 139.36,-144.17 139.36,-144.17 133.43,-145.09 121.57,-145.09 115.64,-144.17"/>
<text text-anchor="middle" x="127.5" y="-124.3" font-family="Times,serif" font-size="14.00" fill="#00f2ff">Human Choice (+1)</text>
</g>
<!-- Input&#45;&gt;Decision -->
<g id="edge1" class="edge">
<title>Input&#45;&gt;Decision</title>
<path fill="none" stroke="#ff00ff" d="M127.5,-182.81C127.5,-174.79 127.5,-165.05 127.5,-156.07"/>
<polygon fill="#ff00ff" stroke="#ff00ff" points="127.5,-146.03 132,-156.03 127.5,-151.03 127.5,-156.03 127.5,-156.03 127.5,-156.03 127.5,-151.03 123,-156.03 127.5,-146.03 127.5,-146.03"/>
</g>
<!-- Justification -->
<g id="node3" class="node">
<title>Justification</title>
<polygon fill="#161b22" stroke="#00f2ff" points="113,-59 0,-59 0,-23 119,-23 119,-53 113,-59"/>
<polyline fill="none" stroke="#00f2ff" points="113,-59 113,-53 "/>
<polyline fill="none" stroke="#00f2ff" points="119,-53 113,-53 "/>
<text text-anchor="middle" x="59.5" y="-37.3" font-family="Times,serif" font-size="14.00" fill="#00f2ff">pruning_report.md</text>
</g>
<!-- Decision&#45;&gt;Justification -->
<g id="edge2" class="edge">
<title>Decision&#45;&gt;Justification</title>
<path fill="none" stroke="#ff00ff" d="M102.37,-113.73C93.52,-108.03 84.13,-100.67 77.5,-92 72.3,-85.2 68.5,-76.76 65.78,-68.76"/>
<polygon fill="#ff00ff" stroke="#ff00ff" points="62.87,-59.02 70.04,-67.32 64.3,-63.81 65.73,-68.6 65.73,-68.6 65.73,-68.6 64.3,-63.81 61.42,-69.89 62.87,-59.02 62.87,-59.02"/>
<text text-anchor="middle" x="126" y="-80.8" font-family="Times,serif" font-size="14.00"> Record Rational </text>
</g>
<!-- Commitment -->
<g id="node4" class="node">
<title>Commitment</title>
<path fill="#161b22" stroke="#00f2ff" d="M244,-59C244,-59 149,-59 149,-59 143,-59 137,-53 137,-47 137,-47 137,-35 137,-35 137,-29 143,-23 149,-23 149,-23 244,-23 244,-23 250,-23 256,-29 256,-35 256,-35 256,-47 256,-47 256,-53 250,-59 244,-59"/>
<text text-anchor="middle" x="196.5" y="-37.3" font-family="Times,serif" font-size="14.00" fill="#00f2ff">Formal Integration</text>
</g>
<!-- Decision&#45;&gt;Commitment -->
<g id="edge3" class="edge">
<title>Decision&#45;&gt;Commitment</title>
<path fill="none" stroke="#ff00ff" d="M150.56,-113.39C158.92,-107.6 167.91,-100.28 174.5,-92 179.96,-85.14 184.35,-76.72 187.72,-68.76"/>
<polygon fill="#ff00ff" stroke="#ff00ff" points="191.34,-59.41 191.93,-70.36 189.54,-64.07 187.73,-68.73 187.73,-68.73 187.73,-68.73 189.54,-64.07 183.53,-67.11 191.34,-59.41 191.34,-59.41"/>
<text text-anchor="middle" x="208.5" y="-80.8" font-family="Times,serif" font-size="14.00"> Proceed </text>
</g>
</g>
</svg>
