<?xml version="1.0" encoding="UTF-8" standalone="no"?>
<!DOCTYPE svg PUBLIC "-//W3C//DTD SVG 1.1//EN"
 "http://www.w3.org/Graphics/SVG/1.1/DTD/svg11.dtd">
<!-- Generated by graphviz version 2.43.0 (0)
 -->
<!-- Title: PruneRank Pages: 1 -->
<svg width="411pt" height="404pt"
 viewBox="0.00 0.00 411.00 404.07" xmlns="http://www.w3.org/2000/svg" xmlns:xlink="http://www.w3.org/1999/xlink">
<g id="graph0" class="graph" transform="scale(1 1) rotate(0) translate(4 400.07)">
<title>PruneRank</title>
<polygon fill="#0d1117" stroke="transparent" points="-4,4 -4,-400.07 407,-400.07 407,4 -4,4"/>
<text text-anchor="middle" x="201.5" y="-7.8" font-family="Helvetica,sans-Serif" font-size="14.00" fill="#00f2ff">T3.3: Aesthetic Ranking Matrix</text>
<!-- C1 -->
<g id="node1" class="node">
<title>C1</title>
<path fill="#161b22" stroke="#00f2ff" d="M89,-396.07C89,-396.07 12,-396.07 12,-396.07 6,-396.07 0,-390.07 0,-384.07 0,-384.07 0,-372.07 0,-372.07 0,-366.07 6,-360.07 12,-360.07 12,-360.07 89,-360.07 89,-360.07 95,-360.07 101,-366.07 101,-372.07 101,-372.07 101,-384.07 101,-384.07 101,-390.07 95,-396.07 89,-396.07"/>
<text text-anchor="middle" x="50.5" y="-374.37" font-family="Times,serif" font-size="14.00" fill="#00f2ff">C1: Minimalist</text>
</g>
<!-- Rank -->
<g id="node4" class="node">
<title>Rank</title>
<path fill="#161b22" stroke="#ffff00" d="M225.33,-324.07C225.33,-324.07 123.67,-324.07 123.67,-324.07 117.67,-324.07 106.99,-320.31 102.32,-316.55 102.32,-316.55 76.27,-295.59 76.27,-295.59 71.59,-291.83 72.92,-288.07 78.92,-288.07 78.92,-288.07 270.08,-288.07 270.08,-288.07 276.08,-288.07 277.41,-291.83 272.73,-295.59 272.73,-295.59 246.68,-316.55 246.68,-316.55 242.01,-320.31 231.33,-324.07 225.33,-324.07"/>
<text text-anchor="middle" x="174.5" y="-302.37" font-family="Times,serif" font-size="14.00" fill="#00f2ff">Aesthetic Ranking</text>
</g>
<!-- C1&#45;&gt;Rank -->
<g id="edge1" class="edge">
<title>C1&#45;&gt;Rank</title>
<path fill="none" stroke="#ff00ff" d="M80.83,-359.95C97.2,-350.71 117.58,-339.2 135.15,-329.28"/>
<polygon fill="#ff00ff" stroke="#ff00ff" points="144.05,-324.26 137.55,-333.1 139.7,-326.72 135.34,-329.18 135.34,-329.18 135.34,-329.18 139.7,-326.72 133.13,-325.26 144.05,-324.26 144.05,-324.26"/>
</g>
<!-- C2 -->
<g id="node2" class="node">
<title>C2</title>
<path fill="#161b22" stroke="#00f2ff" d="M217.5,-396.07C217.5,-396.07 131.5,-396.07 131.5,-396.07 125.5,-396.07 119.5,-390.07 119.5,-384.07 119.5,-384.07 119.5,-372.07 119.5,-372.07 119.5,-366.07 125.5,-360.07 131.5,-360.07 131.5,-360.07 217.5,-360.07 217.5,-360.07 223.5,-360.07 229.5,-366.07 229.5,-372.07 229.5,-372.07 229.5,-384.07 229.5,-384.07 229.5,-390.07 223.5,-396.07 217.5,-396.07"/>
<text text-anchor="middle" x="174.5" y="-374.37" font-family="Times,serif" font-size="14.00" fill="#00f2ff">C2: Feature&#45;Rich</text>
</g>
<!-- C2&#45;&gt;Rank -->
<g id="edge2" class="edge">
<title>C2&#45;&gt;Rank</title>
<path fill="none" stroke="#ff00ff" d="M174.5,-359.77C174.5,-352.05 174.5,-342.78 174.5,-334.18"/>
<polygon fill="#ff00ff" stroke="#ff00ff" points="174.5,-324.17 179,-334.17 174.5,-329.17 174.5,-334.17 174.5,-334.17 174.5,-334.17 174.5,-329.17 170,-334.18 174.5,-324.17 174.5,-324.17"/>
</g>
<!-- C3 -->
<g id="node3" class="node">
<title>C3</title>
<path fill="#161b22" stroke="#00f2ff" d="M391,-396.07C391,-396.07 260,-396.07 260,-396.07 254,-396.07 248,-390.07 248,-384.07 248,-384.07 248,-372.07 248,-372.07 248,-366.07 254,-360.07 260,-360.07 260,-360.07 391,-360.07 391,-360.07 397,-360.07 403,-366.07 403,-372.07 403,-372.07 403,-384.07 403,-384.07 403,-390.07 397,-396.07 391,-396.07"/>
<text text-anchor="middle" x="325.5" y="-374.37" font-family="Times,serif" font-size="14.00" fill="#00f2ff">C3: Highly Experimental</text>
</g>
<!-- C3&#45;&gt;Rank -->
<g id="edge3" class="edge">
<title>C3&#45;&gt;Rank</title>
<path fill="none" stroke="#ff00ff" d="M288.56,-359.95C268.01,-350.42 242.25,-338.48 220.41,-328.35"/>
<polygon fill="#ff00ff" stroke="#ff00ff" points="211.32,-324.14 222.28,-324.26 215.86,-326.24 220.39,-328.34 220.39,-328.34 220.39,-328.34 215.86,-326.24 218.5,-332.43 211.32,-324.14 211.32,-324.14"/>
</g>
<!-- Selected -->
<g id="node5" class="node">
<title>Selected</title>
<path fill="#161b22" stroke="#00ff00" d="M282.86,-164.58C282.86,-164.58 214.91,-164.58 214.91,-164.58 208.91,-164.58 201.06,-170.29 199.21,-176 199.21,-176 178.21,-240.69 178.21,-240.69 176.35,-246.4 172.65,-246.4 170.79,-240.69 170.79,-240.69 149.79,-176 149.79,-176 147.94,-170.29 140.09,-164.58 134.09,-164.58 134.09,-164.58 66.14,-164.58 66.14,-164.58 60.14,-164.58 58.99,-161.05 63.85,-157.52 63.85,-157.52 118.82,-117.55 118.82,-117.55 123.67,-114.02 126.67,-104.78 124.82,-99.08 124.82,-99.08 103.82,-34.38 103.82,-34.38 101.97,-28.67 104.97,-26.49 109.82,-30.02 109.82,-30.02 164.79,-70 164.79,-70 169.65,-73.53 179.35,-73.53 184.21,-70 184.21,-70 239.18,-30.02 239.18,-30.02 244.03,-26.49 247.03,-28.67 245.18,-34.38 245.18,-34.38 224.18,-99.08 224.18,-99.08 222.33,-104.78 225.33,-114.02 230.18,-117.55 230.18,-117.55 285.15,-157.52 285.15,-157.52 290.01,-161.05 288.86,-164.58 282.86,-164.58"/>
<text text-anchor="middle" x="174.5" y="-133.84" font-family="Times,serif" font-size="14.00" fill="#00f2ff">Top Selection</text>
</g>
<!-- Rank&#45;&gt;Selected -->
<g id="edge4" class="edge">
<title>Rank&#45;&gt;Selected</title>
<path fill="none" stroke="#ff00ff" d="M174.5,-287.88C174.5,-280.83 174.5,-272.03 174.5,-262.24"/>
<polygon fill="#ff00ff" stroke="#ff00ff" points="174.5,-252.15 179,-262.15 174.5,-257.15 174.5,-262.15 174.5,-262.15 174.5,-262.15 174.5,-257.15 170,-262.15 174.5,-252.15 174.5,-252.15"/>
</g>
</g>
</svg>
