<?xml version="1.0" encoding="UTF-8" standalone="no"?>
<!DOCTYPE svg PUBLIC "-//W3C//DTD SVG 1.1//EN"
 "http://www.w3.org/Graphics/SVG/1.1/DTD/svg11.dtd">
<!-- Generated by graphviz version 2.43.0 (0)
 -->
<!-- Title: G Pages: 1 -->
<svg width="473pt" height="231pt"
 viewBox="0.00 0.00 473.00 231.00" xmlns="http://www.w3.org/2000/svg" xmlns:xlink="http://www.w3.org/1999/xlink">
<g id="graph0" class="graph" transform="scale(1 1) rotate(0) translate(4 227)">
<title>G</title>
<polygon fill="#0d0e15" stroke="transparent" points="-4,4 -4,-227 469,-227 469,4 -4,4"/>
<text text-anchor="middle" x="232.5" y="-207.8" font-family="Courier New" font-size="14.00" fill="#ffffff">S1.1: Motherboard Taichi PCIe Slot Topology</text>
<!-- cpu -->
<g id="node1" class="node">
<title>cpu</title>
<path fill="#1a1c28" stroke="#00ff66" stroke-width="2" d="M286,-200C286,-200 173,-200 173,-200 167,-200 161,-194 161,-188 161,-188 161,-176 161,-176 161,-170 167,-164 173,-164 173,-164 286,-164 286,-164 292,-164 298,-170 298,-176 298,-176 298,-188 298,-188 298,-194 292,-200 286,-200"/>
<text text-anchor="middle" x="229.5" y="-185" font-family="Courier New" font-size="10.00" fill="#ffffff">AMD Ryzen 9 5950X</text>
<text text-anchor="middle" x="229.5" y="-174" font-family="Courier New" font-size="10.00" fill="#ffffff">(32 PCIe Gen4 Lanes)</text>
</g>
<!-- chipset -->
<g id="node2" class="node">
<title>chipset</title>
<path fill="#1a1c28" stroke="#ffff00" stroke-width="2" d="M125,-118C125,-118 30,-118 30,-118 24,-118 18,-112 18,-106 18,-106 18,-94 18,-94 18,-88 24,-82 30,-82 30,-82 125,-82 125,-82 131,-82 137,-88 137,-94 137,-94 137,-106 137,-106 137,-112 131,-118 125,-118"/>
<text text-anchor="middle" x="77.5" y="-103" font-family="Courier New" font-size="10.00" fill="#ffffff">X570 Chipset</text>
<text text-anchor="middle" x="77.5" y="-92" font-family="Courier New" font-size="10.00" fill="#ffffff">(Secondary Lanes)</text>
</g>
<!-- cpu&#45;&gt;chipset -->
<g id="edge3" class="edge">
<title>cpu&#45;&gt;chipset</title>
<path fill="none" stroke="#ff007f" stroke-width="1.5" d="M195.89,-163.84C184.91,-158.2 172.67,-151.86 161.5,-146 146.66,-138.21 130.4,-129.53 116.18,-121.89"/>
<polygon fill="#ff007f" stroke="#ff007f" stroke-width="1.5" points="117.32,-119.33 108.95,-118 114.67,-124.26 117.32,-119.33"/>
<text text-anchor="middle" x="193.5" y="-138.8" font-family="Courier New" font-size="9.00" fill="#00f3ff">Gen4 x4 Link</text>
</g>
<!-- slot0 -->
<g id="node3" class="node">
<title>slot0</title>
<path fill="#1a1c28" stroke="#ff007f" stroke-width="2" d="M292,-118C292,-118 167,-118 167,-118 161,-118 155,-112 155,-106 155,-106 155,-94 155,-94 155,-88 161,-82 167,-82 167,-82 292,-82 292,-82 298,-82 304,-88 304,-94 304,-94 304,-106 304,-106 304,-112 298,-118 292,-118"/>
<text text-anchor="middle" x="229.5" y="-103" font-family="Courier New" font-size="10.00" fill="#ffffff">PCIe Slot 1 (x16 Gen4)</text>
<text text-anchor="middle" x="229.5" y="-92" font-family="Courier New" font-size="10.00" fill="#ffffff">RTX 5080 (16GB)</text>
</g>
<!-- cpu&#45;&gt;slot0 -->
<g id="edge1" class="edge">
<title>cpu&#45;&gt;slot0</title>
<path fill="none" stroke="#ff007f" stroke-width="1.5" d="M229.5,-163.64C229.5,-152.66 229.5,-138.29 229.5,-126.09"/>
<polygon fill="#ff007f" stroke="#ff007f" stroke-width="1.5" points="232.3,-126.05 229.5,-118.05 226.7,-126.05 232.3,-126.05"/>
<text text-anchor="middle" x="272" y="-138.8" font-family="Courier New" font-size="9.00" fill="#00f3ff">Direct x16 Lanes</text>
</g>
<!-- slot1 -->
<g id="node4" class="node">
<title>slot1</title>
<path fill="#1a1c28" stroke="#ff007f" stroke-width="2" d="M453,-118C453,-118 334,-118 334,-118 328,-118 322,-112 322,-106 322,-106 322,-94 322,-94 322,-88 328,-82 334,-82 334,-82 453,-82 453,-82 459,-82 465,-88 465,-94 465,-94 465,-106 465,-106 465,-112 459,-118 453,-118"/>
<text text-anchor="middle" x="393.5" y="-103" font-family="Courier New" font-size="10.00" fill="#ffffff">PCIe Slot 3 (x8 Gen4)</text>
<text text-anchor="middle" x="393.5" y="-92" font-family="Courier New" font-size="10.00" fill="#ffffff">RTX 3080 (10GB)</text>
</g>
<!-- cpu&#45;&gt;slot1 -->
<g id="edge2" class="edge">
<title>cpu&#45;&gt;slot1</title>
<path fill="none" stroke="#ff007f" stroke-width="1.5" d="M277.24,-163.9C290.78,-158.61 305.39,-152.45 318.5,-146 332.64,-139.04 347.64,-130.33 360.48,-122.43"/>
<polygon fill="#ff007f" stroke="#ff007f" stroke-width="1.5" points="362.06,-124.74 367.37,-118.14 359.1,-119.99 362.06,-124.74"/>
<text text-anchor="middle" x="374" y="-138.8" font-family="Courier New" font-size="9.00" fill="#00f3ff">Direct x8 Lanes</text>
</g>
<!-- nic -->
<g id="node5" class="node">
<title>nic</title>
<path fill="#1a1c28" stroke="#00f3ff" stroke-width="2" d="M143,-36C143,-36 12,-36 12,-36 6,-36 0,-30 0,-24 0,-24 0,-12 0,-12 0,-6 6,0 12,0 12,0 143,0 143,0 149,0 155,-6 155,-12 155,-12 155,-24 155,-24 155,-30 149,-36 143,-36"/>
<text text-anchor="middle" x="77.5" y="-21" font-family="Courier New" font-size="10.00" fill="#ffffff">Intel X540&#45;T2 10GbE NIC</text>
<text text-anchor="middle" x="77.5" y="-10" font-family="Courier New" font-size="10.00" fill="#ffffff">PCIe Gen2 x8</text>
</g>
<!-- chipset&#45;&gt;nic -->
<g id="edge4" class="edge">
<title>chipset&#45;&gt;nic</title>
<path fill="none" stroke="#ff007f" stroke-width="1.5" d="M77.5,-81.64C77.5,-70.66 77.5,-56.29 77.5,-44.09"/>
<polygon fill="#ff007f" stroke="#ff007f" stroke-width="1.5" points="80.3,-44.05 77.5,-36.05 74.7,-44.05 80.3,-44.05"/>
<text text-anchor="middle" x="104" y="-56.8" font-family="Courier New" font-size="9.00" fill="#00f3ff">PCIe Lanes</text>
</g>
</g>
</svg>
