<?xml version="1.0" encoding="UTF-8" standalone="no"?>
<!DOCTYPE svg PUBLIC "-//W3C//DTD SVG 1.1//EN"
 "http://www.w3.org/Graphics/SVG/1.1/DTD/svg11.dtd">
<!-- Generated by graphviz version 2.43.0 (0)
 -->
<!-- Title: G Pages: 1 -->
<svg width="539pt" height="149pt"
 viewBox="0.00 0.00 539.00 149.00" xmlns="http://www.w3.org/2000/svg" xmlns:xlink="http://www.w3.org/1999/xlink">
<g id="graph0" class="graph" transform="scale(1 1) rotate(0) translate(4 145)">
<title>G</title>
<polygon fill="#0d0e15" stroke="transparent" points="-4,4 -4,-145 535,-145 535,4 -4,4"/>
<text text-anchor="middle" x="265.5" y="-125.8" font-family="Courier New" font-size="14.00" fill="#ffffff">S2.1: Ollama Service Port &amp; Workload Segregation</text>
<!-- clients -->
<g id="node1" class="node">
<title>clients</title>
<path fill="#1a1c28" stroke="#ffff00" stroke-width="2" d="M316,-118C316,-118 197,-118 197,-118 191,-118 185,-112 185,-106 185,-106 185,-94 185,-94 185,-88 191,-82 197,-82 197,-82 316,-82 316,-82 322,-82 328,-88 328,-94 328,-94 328,-106 328,-106 328,-112 322,-118 316,-118"/>
<text text-anchor="middle" x="256.5" y="-103" font-family="Courier New" font-size="10.00" fill="#ffffff">Incoming Requests</text>
<text text-anchor="middle" x="256.5" y="-92" font-family="Courier New" font-size="10.00" fill="#ffffff">(WebUI, Scripts, CLI)</text>
</g>
<!-- svc_main -->
<g id="node2" class="node">
<title>svc_main</title>
<path fill="#1a1c28" stroke="#00ff66" stroke-width="2" d="M143,-36C143,-36 12,-36 12,-36 6,-36 0,-30 0,-24 0,-24 0,-12 0,-12 0,-6 6,0 12,0 12,0 143,0 143,0 149,0 155,-6 155,-12 155,-12 155,-24 155,-24 155,-30 149,-36 143,-36"/>
<text text-anchor="middle" x="77.5" y="-21" font-family="Courier New" font-size="10.00" fill="#ffffff">ollama.service</text>
<text text-anchor="middle" x="77.5" y="-10" font-family="Courier New" font-size="10.00" fill="#ffffff">(Port 11434 &#45; Dual GPU)</text>
</g>
<!-- clients&#45;&gt;svc_main -->
<g id="edge1" class="edge">
<title>clients&#45;&gt;svc_main</title>
<path fill="none" stroke="#ff007f" stroke-width="1.5" d="M218.1,-81.84C190.38,-69.45 152.81,-52.66 123.49,-39.55"/>
<polygon fill="#ff007f" stroke="#ff007f" stroke-width="1.5" points="124.28,-36.84 115.84,-36.13 122,-41.95 124.28,-36.84"/>
<text text-anchor="middle" x="210.5" y="-56.8" font-family="Courier New" font-size="9.00" fill="#00f3ff">Primary Port</text>
</g>
<!-- svc_sec -->
<g id="node3" class="node">
<title>svc_sec</title>
<path fill="#1a1c28" stroke="#ff007f" stroke-width="2" d="M328,-36C328,-36 185,-36 185,-36 179,-36 173,-30 173,-24 173,-24 173,-12 173,-12 173,-6 179,0 185,0 185,0 328,0 328,0 334,0 340,-6 340,-12 340,-12 340,-24 340,-24 340,-30 334,-36 328,-36"/>
<text text-anchor="middle" x="256.5" y="-21" font-family="Courier New" font-size="10.00" fill="#ffffff">ollama&#45;secondary.service</text>
<text text-anchor="middle" x="256.5" y="-10" font-family="Courier New" font-size="10.00" fill="#ffffff">(Port 11435 &#45; GPU 1 Only)</text>
</g>
<!-- clients&#45;&gt;svc_sec -->
<g id="edge2" class="edge">
<title>clients&#45;&gt;svc_sec</title>
<path fill="none" stroke="#ff007f" stroke-width="1.5" d="M256.5,-81.64C256.5,-70.66 256.5,-56.29 256.5,-44.09"/>
<polygon fill="#ff007f" stroke="#ff007f" stroke-width="1.5" points="259.3,-44.05 256.5,-36.05 253.7,-44.05 259.3,-44.05"/>
<text text-anchor="middle" x="288.5" y="-56.8" font-family="Courier New" font-size="9.00" fill="#00f3ff">Load Balance</text>
</g>
<!-- svc_coder -->
<g id="node4" class="node">
<title>svc_coder</title>
<path fill="#1a1c28" stroke="#00f3ff" stroke-width="2" d="M519,-36C519,-36 370,-36 370,-36 364,-36 358,-30 358,-24 358,-24 358,-12 358,-12 358,-6 364,0 370,0 370,0 519,0 519,0 525,0 531,-6 531,-12 531,-12 531,-24 531,-24 531,-30 525,-36 519,-36"/>
<text text-anchor="middle" x="444.5" y="-21" font-family="Courier New" font-size="10.00" fill="#ffffff">ollama&#45;coder.service</text>
<text text-anchor="middle" x="444.5" y="-10" font-family="Courier New" font-size="10.00" fill="#ffffff">(Port 11436 &#45; GPU 1 Coder)</text>
</g>
<!-- clients&#45;&gt;svc_coder -->
<g id="edge3" class="edge">
<title>clients&#45;&gt;svc_coder</title>
<path fill="none" stroke="#ff007f" stroke-width="1.5" d="M296.83,-81.84C326.07,-69.39 365.74,-52.52 396.59,-39.39"/>
<polygon fill="#ff007f" stroke="#ff007f" stroke-width="1.5" points="397.97,-41.84 404.24,-36.13 395.78,-36.69 397.97,-41.84"/>
<text text-anchor="middle" x="393.5" y="-56.8" font-family="Courier New" font-size="9.00" fill="#00f3ff">Coding tasks</text>
</g>
</g>
</svg>
