<?xml version="1.0" encoding="UTF-8" standalone="no"?>
<!DOCTYPE svg PUBLIC "-//W3C//DTD SVG 1.1//EN"
 "http://www.w3.org/Graphics/SVG/1.1/DTD/svg11.dtd">
<!-- Generated by graphviz version 2.43.0 (0)
 -->
<!-- Title: G Pages: 1 -->
<svg width="515pt" height="149pt"
 viewBox="0.00 0.00 515.00 149.00" xmlns="http://www.w3.org/2000/svg" xmlns:xlink="http://www.w3.org/1999/xlink">
<g id="graph0" class="graph" transform="scale(1 1) rotate(0) translate(4 145)">
<title>G</title>
<polygon fill="#0d0e15" stroke="transparent" points="-4,4 -4,-145 511,-145 511,4 -4,4"/>
<text text-anchor="middle" x="253.5" y="-125.8" font-family="Courier New" font-size="14.00" fill="#ffffff">S2.2: Nemotron&#45;3&#45;Nano VRAM Splitting</text>
<!-- model -->
<g id="node1" class="node">
<title>model</title>
<path fill="#1a1c28" stroke="#ffff00" stroke-width="2" d="M307,-118C307,-118 188,-118 188,-118 182,-118 176,-112 176,-106 176,-106 176,-94 176,-94 176,-88 182,-82 188,-82 188,-82 307,-82 307,-82 313,-82 319,-88 319,-94 319,-94 319,-106 319,-106 319,-112 313,-118 307,-118"/>
<text text-anchor="middle" x="247.5" y="-103" font-family="Courier New" font-size="10.00" fill="#ffffff">Nemotron&#45;3&#45;Nano (30B)</text>
<text text-anchor="middle" x="247.5" y="-92" font-family="Courier New" font-size="10.00" fill="#ffffff">Size: 26 GB Weights</text>
</g>
<!-- gpu0 -->
<g id="node2" class="node">
<title>gpu0</title>
<path fill="#1a1c28" stroke="#00ff66" stroke-width="2" d="M143,-36C143,-36 12,-36 12,-36 6,-36 0,-30 0,-24 0,-24 0,-12 0,-12 0,-6 6,0 12,0 12,0 143,0 143,0 149,0 155,-6 155,-12 155,-12 155,-24 155,-24 155,-30 149,-36 143,-36"/>
<text text-anchor="middle" x="77.5" y="-21" font-family="Courier New" font-size="10.00" fill="#ffffff">RTX 5080 (GPU 0)</text>
<text text-anchor="middle" x="77.5" y="-10" font-family="Courier New" font-size="10.00" fill="#ffffff">Allocated: 15.5 GB VRAM</text>
</g>
<!-- model&#45;&gt;gpu0 -->
<g id="edge1" class="edge">
<title>model&#45;&gt;gpu0</title>
<path fill="none" stroke="#ff007f" stroke-width="1.5" d="M187.52,-81.93C172.8,-76.9 157.32,-70.87 143.5,-64 130.54,-57.56 117.18,-48.89 105.9,-40.88"/>
<polygon fill="#ff007f" stroke="#ff007f" stroke-width="1.5" points="107.29,-38.43 99.17,-36.01 104.01,-42.97 107.29,-38.43"/>
<text text-anchor="middle" x="193.5" y="-56.8" font-family="Courier New" font-size="9.00" fill="#00f3ff">Unified Model Slice</text>
</g>
<!-- gpu1 -->
<g id="node3" class="node">
<title>gpu1</title>
<path fill="#1a1c28" stroke="#00f3ff" stroke-width="2" d="M310,-36C310,-36 185,-36 185,-36 179,-36 173,-30 173,-24 173,-24 173,-12 173,-12 173,-6 179,0 185,0 185,0 310,0 310,0 316,0 322,-6 322,-12 322,-12 322,-24 322,-24 322,-30 316,-36 310,-36"/>
<text text-anchor="middle" x="247.5" y="-21" font-family="Courier New" font-size="10.00" fill="#ffffff">RTX 3080 (GPU 1)</text>
<text text-anchor="middle" x="247.5" y="-10" font-family="Courier New" font-size="10.00" fill="#ffffff">Allocated: 8.7 GB VRAM</text>
</g>
<!-- model&#45;&gt;gpu1 -->
<g id="edge2" class="edge">
<title>model&#45;&gt;gpu1</title>
<path fill="none" stroke="#ff007f" stroke-width="1.5" d="M247.5,-81.64C247.5,-70.66 247.5,-56.29 247.5,-44.09"/>
<polygon fill="#ff007f" stroke="#ff007f" stroke-width="1.5" points="250.3,-44.05 247.5,-36.05 244.7,-44.05 250.3,-44.05"/>
<text text-anchor="middle" x="297.5" y="-56.8" font-family="Courier New" font-size="9.00" fill="#00f3ff">Unified Model Slice</text>
</g>
<!-- cpu_mem -->
<g id="node4" class="node">
<title>cpu_mem</title>
<path fill="#1a1c28" stroke="#ff007f" stroke-width="2" d="M495,-36C495,-36 352,-36 352,-36 346,-36 340,-30 340,-24 340,-24 340,-12 340,-12 340,-6 346,0 352,0 352,0 495,0 495,0 501,0 507,-6 507,-12 507,-12 507,-24 507,-24 507,-30 501,-36 495,-36"/>
<text text-anchor="middle" x="423.5" y="-21" font-family="Courier New" font-size="10.00" fill="#ffffff">System RAM (CPU)</text>
<text text-anchor="middle" x="423.5" y="-10" font-family="Courier New" font-size="10.00" fill="#ffffff">Offloaded: 1.8 GB Weights</text>
</g>
<!-- model&#45;&gt;cpu_mem -->
<g id="edge3" class="edge">
<title>model&#45;&gt;cpu_mem</title>
<path fill="none" stroke="#ff007f" stroke-width="1.5" d="M306.21,-81.91C321.25,-76.81 337.2,-70.76 351.5,-64 365.43,-57.42 379.98,-48.71 392.33,-40.71"/>
<polygon fill="#ff007f" stroke="#ff007f" stroke-width="1.5" points="394.18,-42.84 399.32,-36.1 391.1,-38.17 394.18,-42.84"/>
<text text-anchor="middle" x="425" y="-56.8" font-family="Courier New" font-size="9.00" fill="#00f3ff">RAM Offload Spillover</text>
</g>
</g>
</svg>
