<?xml version="1.0" encoding="UTF-8" standalone="no"?>
<!DOCTYPE svg PUBLIC "-//W3C//DTD SVG 1.1//EN"
 "http://www.w3.org/Graphics/SVG/1.1/DTD/svg11.dtd">
<!-- Generated by graphviz version 2.43.0 (0)
 -->
<!-- Title: G Pages: 1 -->
<svg width="421pt" height="313pt"
 viewBox="0.00 0.00 421.00 313.00" xmlns="http://www.w3.org/2000/svg" xmlns:xlink="http://www.w3.org/1999/xlink">
<g id="graph0" class="graph" transform="scale(1 1) rotate(0) translate(4 309)">
<title>G</title>
<polygon fill="#0d0e15" stroke="transparent" points="-4,4 -4,-309 417,-309 417,4 -4,4"/>
<text text-anchor="middle" x="206.5" y="-289.8" font-family="Courier New" font-size="14.00" fill="#ffffff">S2.4: Ollama Token Ingestion &amp; Metrics forensics</text>
<!-- ollama_run -->
<g id="node1" class="node">
<title>ollama_run</title>
<path fill="#1a1c28" stroke="#00ff66" stroke-width="2" d="M201.25,-282C201.25,-282 88.25,-282 88.25,-282 82.25,-282 76.25,-276 76.25,-270 76.25,-270 76.25,-258 76.25,-258 76.25,-252 82.25,-246 88.25,-246 88.25,-246 201.25,-246 201.25,-246 207.25,-246 213.25,-252 213.25,-258 213.25,-258 213.25,-270 213.25,-270 213.25,-276 207.25,-282 201.25,-282"/>
<text text-anchor="middle" x="144.75" y="-261.5" font-family="Courier New" font-size="10.00" fill="#ffffff">Ollama Run (Verbose)</text>
</g>
<!-- raw_tmp -->
<g id="node2" class="node">
<title>raw_tmp</title>
<path fill="#1a1c28" stroke="#ffff00" stroke-width="2" d="M198.25,-200C198.25,-200 91.25,-200 91.25,-200 85.25,-200 79.25,-194 79.25,-188 79.25,-188 79.25,-176 79.25,-176 79.25,-170 85.25,-164 91.25,-164 91.25,-164 198.25,-164 198.25,-164 204.25,-164 210.25,-170 210.25,-176 210.25,-176 210.25,-188 210.25,-188 210.25,-194 204.25,-200 198.25,-200"/>
<text text-anchor="middle" x="144.75" y="-185" font-family="Courier New" font-size="10.00" fill="#ffffff">raw_output.tmp</text>
<text text-anchor="middle" x="144.75" y="-174" font-family="Courier New" font-size="10.00" fill="#ffffff">(Raw stdout/stderr)</text>
</g>
<!-- ollama_run&#45;&gt;raw_tmp -->
<g id="edge1" class="edge">
<title>ollama_run&#45;&gt;raw_tmp</title>
<path fill="none" stroke="#ff007f" stroke-width="1.5" d="M144.75,-245.64C144.75,-234.66 144.75,-220.29 144.75,-208.09"/>
<polygon fill="#ff007f" stroke="#ff007f" stroke-width="1.5" points="147.55,-208.05 144.75,-200.05 141.95,-208.05 147.55,-208.05"/>
<text text-anchor="middle" x="213.25" y="-220.8" font-family="Courier New" font-size="9.00" fill="#00f3ff">Console output redirection</text>
</g>
<!-- forensics_script -->
<g id="node3" class="node">
<title>forensics_script</title>
<path fill="#1a1c28" stroke="#ff007f" stroke-width="2" d="M204.25,-118C204.25,-118 85.25,-118 85.25,-118 79.25,-118 73.25,-112 73.25,-106 73.25,-106 73.25,-94 73.25,-94 73.25,-88 79.25,-82 85.25,-82 85.25,-82 204.25,-82 204.25,-82 210.25,-82 216.25,-88 216.25,-94 216.25,-94 216.25,-106 216.25,-106 216.25,-112 210.25,-118 204.25,-118"/>
<text text-anchor="middle" x="144.75" y="-103" font-family="Courier New" font-size="10.00" fill="#ffffff">forensic_run.sh</text>
<text text-anchor="middle" x="144.75" y="-92" font-family="Courier New" font-size="10.00" fill="#ffffff">(Regex/Awk Extractor)</text>
</g>
<!-- raw_tmp&#45;&gt;forensics_script -->
<g id="edge2" class="edge">
<title>raw_tmp&#45;&gt;forensics_script</title>
<path fill="none" stroke="#ff007f" stroke-width="1.5" d="M144.75,-163.64C144.75,-152.66 144.75,-138.29 144.75,-126.09"/>
<polygon fill="#ff007f" stroke="#ff007f" stroke-width="1.5" points="147.55,-126.05 144.75,-118.05 141.95,-126.05 147.55,-126.05"/>
<text text-anchor="middle" x="242.25" y="-138.8" font-family="Courier New" font-size="9.00" fill="#00f3ff">Grepped for load_duration / eval_rate</text>
</g>
<!-- json_log -->
<g id="node4" class="node">
<title>json_log</title>
<path fill="#1a1c28" stroke="#00f3ff" stroke-width="2" d="M195.25,-36C195.25,-36 94.25,-36 94.25,-36 88.25,-36 82.25,-30 82.25,-24 82.25,-24 82.25,-12 82.25,-12 82.25,-6 88.25,0 94.25,0 94.25,0 195.25,0 195.25,0 201.25,0 207.25,-6 207.25,-12 207.25,-12 207.25,-24 207.25,-24 207.25,-30 201.25,-36 195.25,-36"/>
<text text-anchor="middle" x="144.75" y="-21" font-family="Courier New" font-size="10.00" fill="#ffffff">Forensics JSON Log</text>
<text text-anchor="middle" x="144.75" y="-10" font-family="Courier New" font-size="10.00" fill="#ffffff">(Metrics stored)</text>
</g>
<!-- forensics_script&#45;&gt;json_log -->
<g id="edge3" class="edge">
<title>forensics_script&#45;&gt;json_log</title>
<path fill="none" stroke="#ff007f" stroke-width="1.5" d="M144.75,-81.64C144.75,-70.66 144.75,-56.29 144.75,-44.09"/>
<polygon fill="#ff007f" stroke="#ff007f" stroke-width="1.5" points="147.55,-44.05 144.75,-36.05 141.95,-44.05 147.55,-44.05"/>
<text text-anchor="middle" x="200.25" y="-56.8" font-family="Courier New" font-size="9.00" fill="#00f3ff">Builds structured log</text>
</g>
</g>
</svg>
