<?xml version="1.0" encoding="UTF-8" standalone="no"?>
<!DOCTYPE svg PUBLIC "-//W3C//DTD SVG 1.1//EN"
 "http://www.w3.org/Graphics/SVG/1.1/DTD/svg11.dtd">
<!-- Generated by graphviz version 2.43.0 (0)
 -->
<!-- Title: G Pages: 1 -->
<svg width="381pt" height="386pt"
 viewBox="0.00 0.00 381.00 386.00" xmlns="http://www.w3.org/2000/svg" xmlns:xlink="http://www.w3.org/1999/xlink">
<g id="graph0" class="graph" transform="scale(1 1) rotate(0) translate(4 382)">
<title>G</title>
<polygon fill="#0d0e15" stroke="transparent" points="-4,4 -4,-382 377,-382 377,4 -4,4"/>
<text text-anchor="middle" x="186.5" y="-362.8" font-family="Courier New" font-size="14.00" fill="#ffffff">S2.5: Self&#45;Correction Loop Lifecycle</text>
<!-- objective -->
<g id="node1" class="node">
<title>objective</title>
<path fill="#1a1c28" stroke="#00f3ff" stroke-width="2" d="M190,-355C190,-355 101,-355 101,-355 95,-355 89,-349 89,-343 89,-343 89,-331 89,-331 89,-325 95,-319 101,-319 101,-319 190,-319 190,-319 196,-319 202,-325 202,-331 202,-331 202,-343 202,-343 202,-349 196,-355 190,-355"/>
<text text-anchor="middle" x="145.5" y="-340" font-family="Courier New" font-size="10.00" fill="#ffffff">Objective File</text>
<text text-anchor="middle" x="145.5" y="-329" font-family="Courier New" font-size="10.00" fill="#ffffff">(markdown input)</text>
</g>
<!-- impl -->
<g id="node2" class="node">
<title>impl</title>
<path fill="#1a1c28" stroke="#ffff00" stroke-width="2" d="M199,-273C199,-273 92,-273 92,-273 86,-273 80,-267 80,-261 80,-261 80,-249 80,-249 80,-243 86,-237 92,-237 92,-237 199,-237 199,-237 205,-237 211,-243 211,-249 211,-249 211,-261 211,-261 211,-267 205,-273 199,-273"/>
<text text-anchor="middle" x="145.5" y="-258" font-family="Courier New" font-size="10.00" fill="#ffffff">Generated Code</text>
<text text-anchor="middle" x="145.5" y="-247" font-family="Courier New" font-size="10.00" fill="#ffffff">(autogen_impl_*.py)</text>
</g>
<!-- objective&#45;&gt;impl -->
<g id="edge1" class="edge">
<title>objective&#45;&gt;impl</title>
<path fill="none" stroke="#ff007f" stroke-width="1.5" d="M145.5,-318.64C145.5,-307.66 145.5,-293.29 145.5,-281.09"/>
<polygon fill="#ff007f" stroke="#ff007f" stroke-width="1.5" points="148.3,-281.05 145.5,-273.05 142.7,-281.05 148.3,-281.05"/>
<text text-anchor="middle" x="180" y="-293.8" font-family="Courier New" font-size="9.00" fill="#00f3ff">LLM Ingestion</text>
</g>
<!-- audit -->
<g id="node3" class="node">
<title>audit</title>
<path fill="#1a1c28" stroke="#ff007f" stroke-width="2" d="M131,-191C131,-191 12,-191 12,-191 6,-191 0,-185 0,-179 0,-179 0,-167 0,-167 0,-161 6,-155 12,-155 12,-155 131,-155 131,-155 137,-155 143,-161 143,-167 143,-167 143,-179 143,-179 143,-185 137,-191 131,-191"/>
<text text-anchor="middle" x="71.5" y="-176" font-family="Courier New" font-size="10.00" fill="#ffffff">Complexity Audit</text>
<text text-anchor="middle" x="71.5" y="-165" font-family="Courier New" font-size="10.00" fill="#ffffff">(complexity_audit.py)</text>
</g>
<!-- impl&#45;&gt;audit -->
<g id="edge2" class="edge">
<title>impl&#45;&gt;audit</title>
<path fill="none" stroke="#ff007f" stroke-width="1.5" d="M113.52,-236.96C105.97,-231.9 98.41,-225.85 92.5,-219 87.37,-213.06 83.23,-205.65 80.03,-198.57"/>
<polygon fill="#ff007f" stroke="#ff007f" stroke-width="1.5" points="82.58,-197.41 76.92,-191.1 77.41,-199.56 82.58,-197.41"/>
<text text-anchor="middle" x="145.5" y="-211.8" font-family="Courier New" font-size="9.00" fill="#00f3ff">Size heuristic check</text>
</g>
<!-- align_chk -->
<g id="node4" class="node">
<title>align_chk</title>
<path fill="#1a1c28" stroke="#00ff66" stroke-width="2" d="M310,-191C310,-191 173,-191 173,-191 167,-191 161,-185 161,-179 161,-179 161,-167 161,-167 161,-161 167,-155 173,-155 173,-155 310,-155 310,-155 316,-155 322,-161 322,-167 322,-167 322,-179 322,-179 322,-185 316,-191 310,-191"/>
<text text-anchor="middle" x="241.5" y="-176" font-family="Courier New" font-size="10.00" fill="#ffffff">Semantic Alignment Check</text>
<text text-anchor="middle" x="241.5" y="-165" font-family="Courier New" font-size="10.00" fill="#ffffff">(semantic_check.py)</text>
</g>
<!-- impl&#45;&gt;align_chk -->
<g id="edge3" class="edge">
<title>impl&#45;&gt;align_chk</title>
<path fill="none" stroke="#ff007f" stroke-width="1.5" d="M173.85,-236.96C182.07,-231.58 190.88,-225.36 198.5,-219 206.4,-212.4 214.38,-204.47 221.29,-197.13"/>
<polygon fill="#ff007f" stroke="#ff007f" stroke-width="1.5" points="223.45,-198.92 226.81,-191.13 219.33,-195.12 223.45,-198.92"/>
<text text-anchor="middle" x="251" y="-211.8" font-family="Courier New" font-size="9.00" fill="#00f3ff">Semantic compare</text>
</g>
<!-- decision -->
<g id="node5" class="node">
<title>decision</title>
<path fill="#1a1c28" stroke="#ffff00" stroke-width="2" d="M301,-118C301,-118 182,-118 182,-118 176,-118 170,-112 170,-106 170,-106 170,-94 170,-94 170,-88 176,-82 182,-82 182,-82 301,-82 301,-82 307,-82 313,-88 313,-94 313,-94 313,-106 313,-106 313,-112 307,-118 301,-118"/>
<text text-anchor="middle" x="241.5" y="-97.5" font-family="Courier New" font-size="10.00" fill="#ffffff">Alignment Score &lt; 80?</text>
</g>
<!-- align_chk&#45;&gt;decision -->
<g id="edge4" class="edge">
<title>align_chk&#45;&gt;decision</title>
<path fill="none" stroke="#ff007f" stroke-width="1.5" d="M241.5,-154.81C241.5,-146.18 241.5,-135.56 241.5,-126.03"/>
<polygon fill="#ff007f" stroke="#ff007f" stroke-width="1.5" points="244.3,-126.03 241.5,-118.03 238.7,-126.03 244.3,-126.03"/>
</g>
<!-- shift -->
<g id="node6" class="node">
<title>shift</title>
<path fill="#1a1c28" stroke="#ff0000" stroke-width="2" d="M224,-36C224,-36 117,-36 117,-36 111,-36 105,-30 105,-24 105,-24 105,-12 105,-12 105,-6 111,0 117,0 117,0 224,0 224,0 230,0 236,-6 236,-12 236,-12 236,-24 236,-24 236,-30 230,-36 224,-36"/>
<text text-anchor="middle" x="170.5" y="-21" font-family="Courier New" font-size="10.00" fill="#ffffff">Trigger Axiom Shift</text>
<text text-anchor="middle" x="170.5" y="-10" font-family="Courier New" font-size="10.00" fill="#ffffff">(axiom_shift.sh)</text>
</g>
<!-- decision&#45;&gt;shift -->
<g id="edge5" class="edge">
<title>decision&#45;&gt;shift</title>
<path fill="none" stroke="#ff007f" stroke-width="1.5" d="M226.09,-81.64C215.88,-70.14 202.37,-54.9 191.22,-42.34"/>
<polygon fill="#ff007f" stroke="#ff007f" stroke-width="1.5" points="193.04,-40.17 185.63,-36.05 188.85,-43.89 193.04,-40.17"/>
<text text-anchor="middle" x="244" y="-56.8" font-family="Courier New" font-size="9.00" fill="#00f3ff">Yes (Drifted)</text>
</g>
<!-- finalize -->
<g id="node7" class="node">
<title>finalize</title>
<path fill="#1a1c28" stroke="#00ff66" stroke-width="2" d="M361,-36C361,-36 266,-36 266,-36 260,-36 254,-30 254,-24 254,-24 254,-12 254,-12 254,-6 260,0 266,0 266,0 361,0 361,0 367,0 373,-6 373,-12 373,-12 373,-24 373,-24 373,-30 367,-36 361,-36"/>
<text text-anchor="middle" x="313.5" y="-15.5" font-family="Courier New" font-size="10.00" fill="#ffffff">Finalize Artifact</text>
</g>
<!-- decision&#45;&gt;finalize -->
<g id="edge6" class="edge">
<title>decision&#45;&gt;finalize</title>
<path fill="none" stroke="#ff007f" stroke-width="1.5" d="M263.75,-81.83C270.12,-76.44 276.86,-70.26 282.5,-64 288.31,-57.55 293.93,-49.97 298.75,-42.88"/>
<polygon fill="#ff007f" stroke="#ff007f" stroke-width="1.5" points="301.21,-44.23 303.28,-36.02 296.54,-41.15 301.21,-44.23"/>
<text text-anchor="middle" x="321.5" y="-56.8" font-family="Courier New" font-size="9.00" fill="#00f3ff">No (Synergy)</text>
</g>
</g>
</svg>
