<?xml version="1.0" encoding="UTF-8" standalone="no"?>
<!DOCTYPE svg PUBLIC "-//W3C//DTD SVG 1.1//EN"
 "http://www.w3.org/Graphics/SVG/1.1/DTD/svg11.dtd">
<!-- Generated by graphviz version 2.43.0 (0)
 -->
<!-- Title: G Pages: 1 -->
<svg width="368pt" height="149pt"
 viewBox="0.00 0.00 367.50 149.00" xmlns="http://www.w3.org/2000/svg" xmlns:xlink="http://www.w3.org/1999/xlink">
<g id="graph0" class="graph" transform="scale(1 1) rotate(0) translate(4 145)">
<title>G</title>
<polygon fill="#0d0e15" stroke="transparent" points="-4,4 -4,-145 363.5,-145 363.5,4 -4,4"/>
<text text-anchor="middle" x="179.75" y="-125.8" font-family="Courier New" font-size="14.00" fill="#ffffff">S3.1: Camera Video Stream Profiles</text>
<!-- camera -->
<g id="node1" class="node">
<title>camera</title>
<path fill="#1a1c28" stroke="#00ff66" stroke-width="2" d="M226,-118C226,-118 125,-118 125,-118 119,-118 113,-112 113,-106 113,-106 113,-94 113,-94 113,-88 119,-82 125,-82 125,-82 226,-82 226,-82 232,-82 238,-88 238,-94 238,-94 238,-106 238,-106 238,-112 232,-118 226,-118"/>
<text text-anchor="middle" x="175.5" y="-97.5" font-family="Courier New" font-size="10.00" fill="#ffffff">Hikvision Hardware</text>
</g>
<!-- main_stream -->
<g id="node2" class="node">
<title>main_stream</title>
<path fill="#1a1c28" stroke="#00f3ff" stroke-width="2" d="M155,-36C155,-36 12,-36 12,-36 6,-36 0,-30 0,-24 0,-24 0,-12 0,-12 0,-6 6,0 12,0 12,0 155,0 155,0 161,0 167,-6 167,-12 167,-12 167,-24 167,-24 167,-30 161,-36 155,-36"/>
<text text-anchor="middle" x="83.5" y="-21" font-family="Courier New" font-size="10.00" fill="#ffffff">Main Stream</text>
<text text-anchor="middle" x="83.5" y="-10" font-family="Courier New" font-size="10.00" fill="#ffffff">1080p @ 12fps (2Mbps VBR)</text>
</g>
<!-- camera&#45;&gt;main_stream -->
<g id="edge1" class="edge">
<title>camera&#45;&gt;main_stream</title>
<path fill="none" stroke="#ff007f" stroke-width="1.5" d="M129.29,-81.91C120.31,-77.1 111.52,-71.17 104.5,-64 98.92,-58.3 94.63,-50.84 91.43,-43.64"/>
<polygon fill="#ff007f" stroke="#ff007f" stroke-width="1.5" points="93.95,-42.4 88.37,-36.02 88.75,-44.49 93.95,-42.4"/>
<text text-anchor="middle" x="175.5" y="-56.8" font-family="Courier New" font-size="9.00" fill="#00f3ff">Archival and WebRTC Ingress</text>
</g>
<!-- sub_stream -->
<g id="node3" class="node">
<title>sub_stream</title>
<path fill="#1a1c28" stroke="#ff007f" stroke-width="2" d="M340,-36C340,-36 197,-36 197,-36 191,-36 185,-30 185,-24 185,-24 185,-12 185,-12 185,-6 191,0 197,0 197,0 340,0 340,0 346,0 352,-6 352,-12 352,-12 352,-24 352,-24 352,-30 346,-36 340,-36"/>
<text text-anchor="middle" x="268.5" y="-21" font-family="Courier New" font-size="10.00" fill="#ffffff">Sub Stream</text>
<text text-anchor="middle" x="268.5" y="-10" font-family="Courier New" font-size="10.00" fill="#ffffff">360p @ 6fps (256Kbps VBR)</text>
</g>
<!-- camera&#45;&gt;sub_stream -->
<g id="edge2" class="edge">
<title>camera&#45;&gt;sub_stream</title>
<path fill="none" stroke="#ff007f" stroke-width="1.5" d="M221.62,-81.81C230.6,-77 239.42,-71.11 246.5,-64 252.18,-58.3 256.63,-50.84 259.99,-43.64"/>
<polygon fill="#ff007f" stroke="#ff007f" stroke-width="1.5" points="262.68,-44.48 263.23,-36.02 257.52,-42.29 262.68,-44.48"/>
<text text-anchor="middle" x="306.5" y="-56.8" font-family="Courier New" font-size="9.00" fill="#00f3ff">Fallback and preview</text>
</g>
</g>
</svg>
