<?xml version="1.0" encoding="UTF-8" standalone="no"?>
<!DOCTYPE svg PUBLIC "-//W3C//DTD SVG 1.1//EN"
 "http://www.w3.org/Graphics/SVG/1.1/DTD/svg11.dtd">
<!-- Generated by graphviz version 2.43.0 (0)
 -->
<!-- Title: G Pages: 1 -->
<svg width="363pt" height="231pt"
 viewBox="0.00 0.00 363.00 231.00" xmlns="http://www.w3.org/2000/svg" xmlns:xlink="http://www.w3.org/1999/xlink">
<g id="graph0" class="graph" transform="scale(1 1) rotate(0) translate(4 227)">
<title>G</title>
<polygon fill="#0d0e15" stroke="transparent" points="-4,4 -4,-227 359,-227 359,4 -4,4"/>
<text text-anchor="middle" x="177.5" y="-207.8" font-family="Courier New" font-size="14.00" fill="#ffffff">S3.2: Raspberry Pi 4 go2rtc Delivery Edge</text>
<!-- rtsp_stream -->
<g id="node1" class="node">
<title>rtsp_stream</title>
<path fill="#1a1c28" stroke="#ffff00" stroke-width="2" d="M256.5,-200C256.5,-200 125.5,-200 125.5,-200 119.5,-200 113.5,-194 113.5,-188 113.5,-188 113.5,-176 113.5,-176 113.5,-170 119.5,-164 125.5,-164 125.5,-164 256.5,-164 256.5,-164 262.5,-164 268.5,-170 268.5,-176 268.5,-176 268.5,-188 268.5,-188 268.5,-194 262.5,-200 256.5,-200"/>
<text text-anchor="middle" x="191" y="-179.5" font-family="Courier New" font-size="10.00" fill="#ffffff">RTSP H.264 Input Stream</text>
</g>
<!-- go2rtc -->
<g id="node2" class="node">
<title>go2rtc</title>
<path fill="#1a1c28" stroke="#00ff66" stroke-width="2" d="M271.5,-118C271.5,-118 110.5,-118 110.5,-118 104.5,-118 98.5,-112 98.5,-106 98.5,-106 98.5,-94 98.5,-94 98.5,-88 104.5,-82 110.5,-82 110.5,-82 271.5,-82 271.5,-82 277.5,-82 283.5,-88 283.5,-94 283.5,-94 283.5,-106 283.5,-106 283.5,-112 277.5,-118 271.5,-118"/>
<text text-anchor="middle" x="191" y="-103" font-family="Courier New" font-size="10.00" fill="#ffffff">go2rtc service (RPi4)</text>
<text text-anchor="middle" x="191" y="-92" font-family="Courier New" font-size="10.00" fill="#ffffff">Ingests and multiplexes RTSP</text>
</g>
<!-- rtsp_stream&#45;&gt;go2rtc -->
<g id="edge1" class="edge">
<title>rtsp_stream&#45;&gt;go2rtc</title>
<path fill="none" stroke="#ff007f" stroke-width="1.5" d="M191,-163.64C191,-152.66 191,-138.29 191,-126.09"/>
<polygon fill="#ff007f" stroke="#ff007f" stroke-width="1.5" points="193.8,-126.05 191,-118.05 188.2,-126.05 193.8,-126.05"/>
<text text-anchor="middle" x="217.5" y="-138.8" font-family="Courier New" font-size="9.00" fill="#00f3ff">TCP Stream</text>
</g>
<!-- webrtc_out -->
<g id="node3" class="node">
<title>webrtc_out</title>
<path fill="#1a1c28" stroke="#00f3ff" stroke-width="2" d="M183.5,-36C183.5,-36 22.5,-36 22.5,-36 16.5,-36 10.5,-30 10.5,-24 10.5,-24 10.5,-12 10.5,-12 10.5,-6 16.5,0 22.5,0 22.5,0 183.5,0 183.5,0 189.5,0 195.5,-6 195.5,-12 195.5,-12 195.5,-24 195.5,-24 195.5,-30 189.5,-36 183.5,-36"/>
<text text-anchor="middle" x="103" y="-21" font-family="Courier New" font-size="10.00" fill="#ffffff">WebRTC Stream</text>
<text text-anchor="middle" x="103" y="-10" font-family="Courier New" font-size="10.00" fill="#ffffff">(Low latency /camera/webrtc)</text>
</g>
<!-- go2rtc&#45;&gt;webrtc_out -->
<g id="edge2" class="edge">
<title>go2rtc&#45;&gt;webrtc_out</title>
<path fill="none" stroke="#ff007f" stroke-width="1.5" d="M171.91,-81.64C159.02,-69.92 141.88,-54.34 127.92,-41.65"/>
<polygon fill="#ff007f" stroke="#ff007f" stroke-width="1.5" points="129.56,-39.36 121.76,-36.05 125.79,-43.5 129.56,-39.36"/>
<text text-anchor="middle" x="198" y="-56.8" font-family="Courier New" font-size="9.00" fill="#00f3ff">Realtime Delivery</text>
</g>
<!-- api_out -->
<g id="node4" class="node">
<title>api_out</title>
<path fill="#1a1c28" stroke="#ff007f" stroke-width="2" d="M332.5,-36C332.5,-36 225.5,-36 225.5,-36 219.5,-36 213.5,-30 213.5,-24 213.5,-24 213.5,-12 213.5,-12 213.5,-6 219.5,0 225.5,0 225.5,0 332.5,0 332.5,0 338.5,0 344.5,-6 344.5,-12 344.5,-12 344.5,-24 344.5,-24 344.5,-30 338.5,-36 332.5,-36"/>
<text text-anchor="middle" x="279" y="-15.5" font-family="Courier New" font-size="10.00" fill="#ffffff">API / Nginx Ingress</text>
</g>
<!-- go2rtc&#45;&gt;api_out -->
<g id="edge3" class="edge">
<title>go2rtc&#45;&gt;api_out</title>
<path fill="none" stroke="#ff007f" stroke-width="1.5" d="M223.08,-81.96C231.35,-76.79 239.91,-70.68 247,-64 253.49,-57.89 259.49,-50.28 264.49,-43.06"/>
<polygon fill="#ff007f" stroke="#ff007f" stroke-width="1.5" points="267.06,-44.27 269.15,-36.05 262.39,-41.17 267.06,-44.27"/>
<text text-anchor="middle" x="290.5" y="-56.8" font-family="Courier New" font-size="9.00" fill="#00f3ff">Query Control</text>
</g>
</g>
</svg>
