<?xml version="1.0" encoding="UTF-8" standalone="no"?>
<!DOCTYPE svg PUBLIC "-//W3C//DTD SVG 1.1//EN"
 "http://www.w3.org/Graphics/SVG/1.1/DTD/svg11.dtd">
<!-- Generated by graphviz version 2.43.0 (0)
 -->
<!-- Title: G Pages: 1 -->
<svg width="421pt" height="313pt"
 viewBox="0.00 0.00 421.00 313.00" xmlns="http://www.w3.org/2000/svg" xmlns:xlink="http://www.w3.org/1999/xlink">
<g id="graph0" class="graph" transform="scale(1 1) rotate(0) translate(4 309)">
<title>G</title>
<polygon fill="#0d0e15" stroke="transparent" points="-4,4 -4,-309 417,-309 417,4 -4,4"/>
<text text-anchor="middle" x="206.5" y="-289.8" font-family="Courier New" font-size="14.00" fill="#ffffff">S3.5: Camera Storage Retention &amp; Data Flush Loop</text>
<!-- mkv_files -->
<g id="node1" class="node">
<title>mkv_files</title>
<path fill="#1a1c28" stroke="#00ff66" stroke-width="2" d="M215.75,-200C215.75,-200 120.75,-200 120.75,-200 114.75,-200 108.75,-194 108.75,-188 108.75,-188 108.75,-176 108.75,-176 108.75,-170 114.75,-164 120.75,-164 120.75,-164 215.75,-164 215.75,-164 221.75,-164 227.75,-170 227.75,-176 227.75,-176 227.75,-188 227.75,-188 227.75,-194 221.75,-200 215.75,-200"/>
<text text-anchor="middle" x="168.25" y="-185" font-family="Courier New" font-size="10.00" fill="#ffffff">Archived Segments</text>
<text text-anchor="middle" x="168.25" y="-174" font-family="Courier New" font-size="10.00" fill="#ffffff">(seg_*.mkv)</text>
</g>
<!-- retention_policy -->
<g id="node2" class="node">
<title>retention_policy</title>
<path fill="#1a1c28" stroke="#ffff00" stroke-width="2" d="M224.75,-118C224.75,-118 111.75,-118 111.75,-118 105.75,-118 99.75,-112 99.75,-106 99.75,-106 99.75,-94 99.75,-94 99.75,-88 105.75,-82 111.75,-82 111.75,-82 224.75,-82 224.75,-82 230.75,-82 236.75,-88 236.75,-94 236.75,-94 236.75,-106 236.75,-106 236.75,-112 230.75,-118 224.75,-118"/>
<text text-anchor="middle" x="168.25" y="-97.5" font-family="Courier New" font-size="10.00" fill="#ffffff">2&#45;Day Rolling Policy</text>
</g>
<!-- mkv_files&#45;&gt;retention_policy -->
<g id="edge1" class="edge">
<title>mkv_files&#45;&gt;retention_policy</title>
<path fill="none" stroke="#ff007f" stroke-width="1.5" d="M168.25,-163.64C168.25,-152.66 168.25,-138.29 168.25,-126.09"/>
<polygon fill="#ff007f" stroke="#ff007f" stroke-width="1.5" points="171.05,-126.05 168.25,-118.05 165.45,-126.05 171.05,-126.05"/>
<text text-anchor="middle" x="205.25" y="-138.8" font-family="Courier New" font-size="9.00" fill="#00f3ff">Periodic sweep</text>
</g>
<!-- disk_space -->
<g id="node3" class="node">
<title>disk_space</title>
<path fill="#1a1c28" stroke="#ff0000" stroke-width="2" d="M227.75,-36C227.75,-36 108.75,-36 108.75,-36 102.75,-36 96.75,-30 96.75,-24 96.75,-24 96.75,-12 96.75,-12 96.75,-6 102.75,0 108.75,0 108.75,0 227.75,0 227.75,0 233.75,0 239.75,-6 239.75,-12 239.75,-12 239.75,-24 239.75,-24 239.75,-30 233.75,-36 227.75,-36"/>
<text text-anchor="middle" x="168.25" y="-15.5" font-family="Courier New" font-size="10.00" fill="#ffffff">Disk Wear Limit Check</text>
</g>
<!-- retention_policy&#45;&gt;disk_space -->
<g id="edge2" class="edge">
<title>retention_policy&#45;&gt;disk_space</title>
<path fill="none" stroke="#ff007f" stroke-width="1.5" d="M168.25,-81.64C168.25,-70.66 168.25,-56.29 168.25,-44.09"/>
<polygon fill="#ff007f" stroke="#ff007f" stroke-width="1.5" points="171.05,-44.05 168.25,-36.05 165.45,-44.05 171.05,-44.05"/>
<text text-anchor="middle" x="221.25" y="-56.8" font-family="Courier New" font-size="9.00" fill="#00f3ff">Removes old segments</text>
</g>
<!-- cam_ctrl -->
<g id="node4" class="node">
<title>cam_ctrl</title>
<path fill="#1a1c28" stroke="#00f3ff" stroke-width="2" d="M224.75,-282C224.75,-282 111.75,-282 111.75,-282 105.75,-282 99.75,-276 99.75,-270 99.75,-270 99.75,-258 99.75,-258 99.75,-252 105.75,-246 111.75,-246 111.75,-246 224.75,-246 224.75,-246 230.75,-246 236.75,-252 236.75,-258 236.75,-258 236.75,-270 236.75,-270 236.75,-276 230.75,-282 224.75,-282"/>
<text text-anchor="middle" x="168.25" y="-261.5" font-family="Courier New" font-size="10.00" fill="#ffffff">cam_control.sh flush</text>
</g>
<!-- cam_ctrl&#45;&gt;mkv_files -->
<g id="edge3" class="edge">
<title>cam_ctrl&#45;&gt;mkv_files</title>
<path fill="none" stroke="#ff007f" stroke-width="1.5" d="M168.25,-245.64C168.25,-234.66 168.25,-220.29 168.25,-208.09"/>
<polygon fill="#ff007f" stroke="#ff007f" stroke-width="1.5" points="171.05,-208.05 168.25,-200.05 165.45,-208.05 171.05,-208.05"/>
<text text-anchor="middle" x="242.25" y="-220.8" font-family="Courier New" font-size="9.00" fill="#00f3ff">Aggressive interactive erase</text>
</g>
</g>
</svg>
