<?xml version="1.0" encoding="UTF-8" standalone="no"?>
<!DOCTYPE svg PUBLIC "-//W3C//DTD SVG 1.1//EN"
 "http://www.w3.org/Graphics/SVG/1.1/DTD/svg11.dtd">
<!-- Generated by graphviz version 2.43.0 (0)
 -->
<!-- Title: G Pages: 1 -->
<svg width="330pt" height="222pt"
 viewBox="0.00 0.00 330.00 222.00" xmlns="http://www.w3.org/2000/svg" xmlns:xlink="http://www.w3.org/1999/xlink">
<g id="graph0" class="graph" transform="scale(1 1) rotate(0) translate(4 218)">
<title>G</title>
<polygon fill="#0d0e15" stroke="transparent" points="-4,4 -4,-218 326,-218 326,4 -4,4"/>
<text text-anchor="middle" x="161" y="-198.8" font-family="Courier New" font-size="14.00" fill="#ffffff">S4.2: ebtables Layer&#45;2 Traffic Filter</text>
<!-- raw_nic -->
<g id="node1" class="node">
<title>raw_nic</title>
<path fill="#1a1c28" stroke="#ffff00" stroke-width="2" d="M237,-191C237,-191 100,-191 100,-191 94,-191 88,-185 88,-179 88,-179 88,-167 88,-167 88,-161 94,-155 100,-155 100,-155 237,-155 237,-155 243,-155 249,-161 249,-167 249,-167 249,-179 249,-179 249,-185 243,-191 237,-191"/>
<text text-anchor="middle" x="168.5" y="-170.5" font-family="Courier New" font-size="10.00" fill="#ffffff">Raw NIC Ingress (enp8s0)</text>
</g>
<!-- ebtables_in -->
<g id="node2" class="node">
<title>ebtables_in</title>
<path fill="#1a1c28" stroke="#00ff66" stroke-width="2" d="M145,-118C145,-118 38,-118 38,-118 32,-118 26,-112 26,-106 26,-106 26,-94 26,-94 26,-88 32,-82 38,-82 38,-82 145,-82 145,-82 151,-82 157,-88 157,-94 157,-94 157,-106 157,-106 157,-112 151,-118 145,-118"/>
<text text-anchor="middle" x="91.5" y="-97.5" font-family="Courier New" font-size="10.00" fill="#ffffff">ebtables INPUT Rule</text>
</g>
<!-- raw_nic&#45;&gt;ebtables_in -->
<g id="edge1" class="edge">
<title>raw_nic&#45;&gt;ebtables_in</title>
<path fill="none" stroke="#ff007f" stroke-width="1.5" d="M149.86,-154.81C139.65,-145.39 126.86,-133.61 115.87,-123.47"/>
<polygon fill="#ff007f" stroke="#ff007f" stroke-width="1.5" points="117.75,-121.39 109.97,-118.03 113.95,-125.51 117.75,-121.39"/>
</g>
<!-- ebtables_fwd -->
<g id="node3" class="node">
<title>ebtables_fwd</title>
<path fill="#1a1c28" stroke="#00ff66" stroke-width="2" d="M306,-118C306,-118 187,-118 187,-118 181,-118 175,-112 175,-106 175,-106 175,-94 175,-94 175,-88 181,-82 187,-82 187,-82 306,-82 306,-82 312,-82 318,-88 318,-94 318,-94 318,-106 318,-106 318,-112 312,-118 306,-118"/>
<text text-anchor="middle" x="246.5" y="-97.5" font-family="Courier New" font-size="10.00" fill="#ffffff">ebtables FORWARD Rule</text>
</g>
<!-- raw_nic&#45;&gt;ebtables_fwd -->
<g id="edge2" class="edge">
<title>raw_nic&#45;&gt;ebtables_fwd</title>
<path fill="none" stroke="#ff007f" stroke-width="1.5" d="M187.38,-154.81C197.73,-145.39 210.68,-133.61 221.82,-123.47"/>
<polygon fill="#ff007f" stroke="#ff007f" stroke-width="1.5" points="223.76,-125.48 227.79,-118.03 219.99,-121.34 223.76,-125.48"/>
</g>
<!-- att_heartbeat -->
<g id="node4" class="node">
<title>att_heartbeat</title>
<path fill="#1a1c28" stroke="#ff0000" stroke-width="2" d="M269,-36C269,-36 168,-36 168,-36 162,-36 156,-30 156,-24 156,-24 156,-12 156,-12 156,-6 162,0 168,0 168,0 269,0 269,0 275,0 281,-6 281,-12 281,-12 281,-24 281,-24 281,-30 275,-36 269,-36"/>
<text text-anchor="middle" x="218.5" y="-21" font-family="Courier New" font-size="10.00" fill="#ffffff">AT&amp;T Heartbeat</text>
<text text-anchor="middle" x="218.5" y="-10" font-family="Courier New" font-size="10.00" fill="#ffffff">(Ethertype 0x7373)</text>
</g>
<!-- ebtables_in&#45;&gt;att_heartbeat -->
<g id="edge3" class="edge">
<title>ebtables_in&#45;&gt;att_heartbeat</title>
<path fill="none" stroke="#ff007f" stroke-width="1.5" d="M131.87,-81.84C142.75,-76.63 154.33,-70.53 164.5,-64 174.75,-57.42 185.21,-49.13 194.16,-41.47"/>
<polygon fill="#ff007f" stroke="#ff007f" stroke-width="1.5" points="196.2,-43.4 200.39,-36.03 192.52,-39.18 196.2,-43.4"/>
<text text-anchor="middle" x="197" y="-56.8" font-family="Courier New" font-size="9.00" fill="#00f3ff">Dropped</text>
</g>
<!-- system_stack -->
<g id="node5" class="node">
<title>system_stack</title>
<path fill="#1a1c28" stroke="#00f3ff" stroke-width="2" d="M99,-36C99,-36 16,-36 16,-36 10,-36 4,-30 4,-24 4,-24 4,-12 4,-12 4,-6 10,0 16,0 16,0 99,0 99,0 105,0 111,-6 111,-12 111,-12 111,-24 111,-24 111,-30 105,-36 99,-36"/>
<text text-anchor="middle" x="57.5" y="-15.5" font-family="Courier New" font-size="10.00" fill="#ffffff">System IP Stack</text>
</g>
<!-- ebtables_in&#45;&gt;system_stack -->
<g id="edge5" class="edge">
<title>ebtables_in&#45;&gt;system_stack</title>
<path fill="none" stroke="#ff007f" stroke-width="1.5" d="M70.77,-81.99C65.84,-76.78 61.22,-70.65 58.5,-64 56,-57.9 55.04,-50.93 54.87,-44.33"/>
<polygon fill="#ff007f" stroke="#ff007f" stroke-width="1.5" points="57.67,-44.32 55.03,-36.26 52.08,-44.2 57.67,-44.32"/>
<text text-anchor="middle" x="111.5" y="-56.8" font-family="Courier New" font-size="9.00" fill="#00f3ff">Accept other traffic</text>
</g>
<!-- ebtables_fwd&#45;&gt;att_heartbeat -->
<g id="edge4" class="edge">
<title>ebtables_fwd&#45;&gt;att_heartbeat</title>
<path fill="none" stroke="#ff007f" stroke-width="1.5" d="M240.42,-81.64C236.55,-70.56 231.46,-56.02 227.16,-43.74"/>
<polygon fill="#ff007f" stroke="#ff007f" stroke-width="1.5" points="229.75,-42.68 224.47,-36.05 224.47,-44.53 229.75,-42.68"/>
<text text-anchor="middle" x="252" y="-56.8" font-family="Courier New" font-size="9.00" fill="#00f3ff">Dropped</text>
</g>
</g>
</svg>
