<?xml version="1.0" encoding="UTF-8" standalone="no"?>
<!DOCTYPE svg PUBLIC "-//W3C//DTD SVG 1.1//EN"
 "http://www.w3.org/Graphics/SVG/1.1/DTD/svg11.dtd">
<!-- Generated by graphviz version 2.43.0 (0)
 -->
<!-- Title: G Pages: 1 -->
<svg width="533pt" height="222pt"
 viewBox="0.00 0.00 533.00 222.00" xmlns="http://www.w3.org/2000/svg" xmlns:xlink="http://www.w3.org/1999/xlink">
<g id="graph0" class="graph" transform="scale(1 1) rotate(0) translate(4 218)">
<title>G</title>
<polygon fill="#0d0e15" stroke="transparent" points="-4,4 -4,-218 529,-218 529,4 -4,4"/>
<text text-anchor="middle" x="262.5" y="-198.8" font-family="Courier New" font-size="14.00" fill="#ffffff">S5.1: VS Code Watcher &amp; Search Exclusions</text>
<!-- antigravity_cli -->
<g id="node1" class="node">
<title>antigravity_cli</title>
<path fill="#1a1c28" stroke="#00ff66" stroke-width="2" d="M369,-191C369,-191 244,-191 244,-191 238,-191 232,-185 232,-179 232,-179 232,-167 232,-167 232,-161 238,-155 244,-155 244,-155 369,-155 369,-155 375,-155 381,-161 381,-167 381,-167 381,-179 381,-179 381,-185 375,-191 369,-191"/>
<text text-anchor="middle" x="306.5" y="-170.5" font-family="Courier New" font-size="10.00" fill="#ffffff">Antigravity CLI Editor</text>
</g>
<!-- file_watcher -->
<g id="node2" class="node">
<title>file_watcher</title>
<path fill="#1a1c28" stroke="#ffff00" stroke-width="2" d="M369,-118C369,-118 244,-118 244,-118 238,-118 232,-112 232,-106 232,-106 232,-94 232,-94 232,-88 238,-82 244,-82 244,-82 369,-82 369,-82 375,-82 381,-88 381,-94 381,-94 381,-106 381,-106 381,-112 375,-118 369,-118"/>
<text text-anchor="middle" x="306.5" y="-97.5" font-family="Courier New" font-size="10.00" fill="#ffffff">File Watcher / indexer</text>
</g>
<!-- antigravity_cli&#45;&gt;file_watcher -->
<g id="edge1" class="edge">
<title>antigravity_cli&#45;&gt;file_watcher</title>
<path fill="none" stroke="#ff007f" stroke-width="1.5" d="M306.5,-154.81C306.5,-146.18 306.5,-135.56 306.5,-126.03"/>
<polygon fill="#ff007f" stroke="#ff007f" stroke-width="1.5" points="309.3,-126.03 306.5,-118.03 303.7,-126.03 309.3,-126.03"/>
</g>
<!-- ignored_archive -->
<g id="node3" class="node">
<title>ignored_archive</title>
<path fill="#1a1c28" stroke="#ff007f" stroke-width="2" d="M131,-36C131,-36 12,-36 12,-36 6,-36 0,-30 0,-24 0,-24 0,-12 0,-12 0,-6 6,0 12,0 12,0 131,0 131,0 137,0 143,-6 143,-12 143,-12 143,-24 143,-24 143,-30 137,-36 131,-36"/>
<text text-anchor="middle" x="71.5" y="-15.5" font-family="Courier New" font-size="10.00" fill="#ffffff">archive/ (large logs)</text>
</g>
<!-- file_watcher&#45;&gt;ignored_archive -->
<g id="edge2" class="edge">
<title>file_watcher&#45;&gt;ignored_archive</title>
<path fill="none" stroke="#ff007f" stroke-width="1.5" d="M231.98,-94.36C178.85,-89.69 113.14,-80.69 91.5,-64 85.04,-59.02 80.61,-51.49 77.61,-44.01"/>
<polygon fill="#ff007f" stroke="#ff007f" stroke-width="1.5" points="80.12,-42.7 74.87,-36.04 74.82,-44.52 80.12,-42.7"/>
<text text-anchor="middle" x="181" y="-56.8" font-family="Courier New" font-size="9.00" fill="#00f3ff">Excluded (Restores responsiveness)</text>
</g>
<!-- ignored_logs -->
<g id="node4" class="node">
<title>ignored_logs</title>
<path fill="#1a1c28" stroke="#ff007f" stroke-width="2" d="M285.5,-36C285.5,-36 255.5,-36 255.5,-36 249.5,-36 243.5,-30 243.5,-24 243.5,-24 243.5,-12 243.5,-12 243.5,-6 249.5,0 255.5,0 255.5,0 285.5,0 285.5,0 291.5,0 297.5,-6 297.5,-12 297.5,-12 297.5,-24 297.5,-24 297.5,-30 291.5,-36 285.5,-36"/>
<text text-anchor="middle" x="270.5" y="-15.5" font-family="Courier New" font-size="10.00" fill="#ffffff">logs/</text>
</g>
<!-- file_watcher&#45;&gt;ignored_logs -->
<g id="edge3" class="edge">
<title>file_watcher&#45;&gt;ignored_logs</title>
<path fill="none" stroke="#ff007f" stroke-width="1.5" d="M289.11,-81.74C284.67,-76.45 280.35,-70.33 277.5,-64 274.76,-57.92 273.07,-50.96 272.03,-44.36"/>
<polygon fill="#ff007f" stroke="#ff007f" stroke-width="1.5" points="274.79,-43.88 271.03,-36.28 269.23,-44.56 274.79,-43.88"/>
<text text-anchor="middle" x="299" y="-56.8" font-family="Courier New" font-size="9.00" fill="#00f3ff">Excluded</text>
</g>
<!-- ignored_venv -->
<g id="node5" class="node">
<title>ignored_venv</title>
<path fill="#1a1c28" stroke="#ff007f" stroke-width="2" d="M357.5,-36C357.5,-36 327.5,-36 327.5,-36 321.5,-36 315.5,-30 315.5,-24 315.5,-24 315.5,-12 315.5,-12 315.5,-6 321.5,0 327.5,0 327.5,0 357.5,0 357.5,0 363.5,0 369.5,-6 369.5,-12 369.5,-12 369.5,-24 369.5,-24 369.5,-30 363.5,-36 357.5,-36"/>
<text text-anchor="middle" x="342.5" y="-15.5" font-family="Courier New" font-size="10.00" fill="#ffffff">venv/</text>
</g>
<!-- file_watcher&#45;&gt;ignored_venv -->
<g id="edge4" class="edge">
<title>file_watcher&#45;&gt;ignored_venv</title>
<path fill="none" stroke="#ff007f" stroke-width="1.5" d="M314.31,-81.64C319.35,-70.45 325.97,-55.74 331.53,-43.39"/>
<polygon fill="#ff007f" stroke="#ff007f" stroke-width="1.5" points="334.1,-44.49 334.83,-36.05 328.99,-42.2 334.1,-44.49"/>
<text text-anchor="middle" x="349" y="-56.8" font-family="Courier New" font-size="9.00" fill="#00f3ff">Excluded</text>
</g>
<!-- allowed_src -->
<g id="node6" class="node">
<title>allowed_src</title>
<path fill="#1a1c28" stroke="#00f3ff" stroke-width="2" d="M513,-36C513,-36 400,-36 400,-36 394,-36 388,-30 388,-24 388,-24 388,-12 388,-12 388,-6 394,0 400,0 400,0 513,0 513,0 519,0 525,-6 525,-12 525,-12 525,-24 525,-24 525,-30 519,-36 513,-36"/>
<text text-anchor="middle" x="456.5" y="-15.5" font-family="Courier New" font-size="10.00" fill="#ffffff">Source Files &amp; Tools</text>
</g>
<!-- file_watcher&#45;&gt;allowed_src -->
<g id="edge5" class="edge">
<title>file_watcher&#45;&gt;allowed_src</title>
<path fill="none" stroke="#ff007f" stroke-width="1.5" d="M340.14,-81.91C351.13,-76.27 363.36,-69.92 374.5,-64 389.03,-56.28 404.91,-47.62 418.78,-39.97"/>
<polygon fill="#ff007f" stroke="#ff007f" stroke-width="1.5" points="420.19,-42.39 425.84,-36.08 417.49,-37.49 420.19,-42.39"/>
<text text-anchor="middle" x="411" y="-56.8" font-family="Courier New" font-size="9.00" fill="#00f3ff">Indexed</text>
</g>
</g>
</svg>
