<?xml version="1.0" encoding="UTF-8" standalone="no"?>
<!DOCTYPE svg PUBLIC "-//W3C//DTD SVG 1.1//EN"
 "http://www.w3.org/Graphics/SVG/1.1/DTD/svg11.dtd">
<!-- Generated by graphviz version 2.43.0 (0)
 -->
<!-- Title: G Pages: 1 -->
<svg width="371pt" height="477pt"
 viewBox="0.00 0.00 371.00 477.00" xmlns="http://www.w3.org/2000/svg" xmlns:xlink="http://www.w3.org/1999/xlink">
<g id="graph0" class="graph" transform="scale(1 1) rotate(0) translate(4 473)">
<title>G</title>
<polygon fill="#0d0e15" stroke="transparent" points="-4,4 -4,-473 367,-473 367,4 -4,4"/>
<text text-anchor="middle" x="181.5" y="-453.8" font-family="Courier New" font-size="14.00" fill="#ffffff">S5.2: Iron Cross UI Anomaly Collision Flow</text>
<!-- script -->
<g id="node1" class="node">
<title>script</title>
<path fill="#1a1c28" stroke="#ff0000" stroke-width="2" d="M227.75,-446C227.75,-446 90.75,-446 90.75,-446 84.75,-446 78.75,-440 78.75,-434 78.75,-434 78.75,-422 78.75,-422 78.75,-416 84.75,-410 90.75,-410 90.75,-410 227.75,-410 227.75,-410 233.75,-410 239.75,-416 239.75,-422 239.75,-422 239.75,-434 239.75,-434 239.75,-440 233.75,-446 227.75,-446"/>
<text text-anchor="middle" x="159.25" y="-431" font-family="Courier New" font-size="10.00" fill="#ffffff">Python Script</text>
<text text-anchor="middle" x="159.25" y="-420" font-family="Courier New" font-size="10.00" fill="#ffffff">(Missing Shebang Header)</text>
</g>
<!-- bash -->
<g id="node2" class="node">
<title>bash</title>
<path fill="#1a1c28" stroke="#ffff00" stroke-width="2" d="M215.75,-364C215.75,-364 102.75,-364 102.75,-364 96.75,-364 90.75,-358 90.75,-352 90.75,-352 90.75,-340 90.75,-340 90.75,-334 96.75,-328 102.75,-328 102.75,-328 215.75,-328 215.75,-328 221.75,-328 227.75,-334 227.75,-340 227.75,-340 227.75,-352 227.75,-352 227.75,-358 221.75,-364 215.75,-364"/>
<text text-anchor="middle" x="159.25" y="-343.5" font-family="Courier New" font-size="10.00" fill="#ffffff">Bash Shell Execution</text>
</g>
<!-- script&#45;&gt;bash -->
<g id="edge1" class="edge">
<title>script&#45;&gt;bash</title>
<path fill="none" stroke="#ff007f" stroke-width="1.5" d="M159.25,-409.64C159.25,-398.66 159.25,-384.29 159.25,-372.09"/>
<polygon fill="#ff007f" stroke="#ff007f" stroke-width="1.5" points="162.05,-372.05 159.25,-364.05 156.45,-372.05 162.05,-372.05"/>
<text text-anchor="middle" x="219.75" y="-384.8" font-family="Courier New" font-size="9.00" fill="#00f3ff">Executed as ./script.py</text>
</g>
<!-- syntax_line -->
<g id="node3" class="node">
<title>syntax_line</title>
<path fill="#1a1c28" stroke="#ffff00" stroke-width="2" d="M233.75,-282C233.75,-282 84.75,-282 84.75,-282 78.75,-282 72.75,-276 72.75,-270 72.75,-270 72.75,-258 72.75,-258 72.75,-252 78.75,-246 84.75,-246 84.75,-246 233.75,-246 233.75,-246 239.75,-246 245.75,-252 245.75,-258 245.75,-258 245.75,-270 245.75,-270 245.75,-276 239.75,-282 233.75,-282"/>
<text text-anchor="middle" x="159.25" y="-261.5" font-family="Courier New" font-size="10.00" fill="#ffffff">Line: &#39;import unicodedata&#39;</text>
</g>
<!-- bash&#45;&gt;syntax_line -->
<g id="edge2" class="edge">
<title>bash&#45;&gt;syntax_line</title>
<path fill="none" stroke="#ff007f" stroke-width="1.5" d="M159.25,-327.64C159.25,-316.66 159.25,-302.29 159.25,-290.09"/>
<polygon fill="#ff007f" stroke="#ff007f" stroke-width="1.5" points="162.05,-290.05 159.25,-282.05 156.45,-290.05 162.05,-290.05"/>
<text text-anchor="middle" x="227.75" y="-302.8" font-family="Courier New" font-size="9.00" fill="#00f3ff">Interprets as shell script</text>
</g>
<!-- magick_import -->
<g id="node4" class="node">
<title>magick_import</title>
<path fill="#1a1c28" stroke="#ff007f" stroke-width="2" d="M239.75,-200C239.75,-200 78.75,-200 78.75,-200 72.75,-200 66.75,-194 66.75,-188 66.75,-188 66.75,-176 66.75,-176 66.75,-170 72.75,-164 78.75,-164 78.75,-164 239.75,-164 239.75,-164 245.75,-164 251.75,-170 251.75,-176 251.75,-176 251.75,-188 251.75,-188 251.75,-194 245.75,-200 239.75,-200"/>
<text text-anchor="middle" x="159.25" y="-179.5" font-family="Courier New" font-size="10.00" fill="#ffffff">ImageMagick &#39;import&#39; utility</text>
</g>
<!-- syntax_line&#45;&gt;magick_import -->
<g id="edge3" class="edge">
<title>syntax_line&#45;&gt;magick_import</title>
<path fill="none" stroke="#ff007f" stroke-width="1.5" d="M159.25,-245.64C159.25,-234.66 159.25,-220.29 159.25,-208.09"/>
<polygon fill="#ff007f" stroke="#ff007f" stroke-width="1.5" points="162.05,-208.05 159.25,-200.05 156.45,-208.05 162.05,-208.05"/>
<text text-anchor="middle" x="214.75" y="-220.8" font-family="Courier New" font-size="9.00" fill="#00f3ff">Calls binary &#39;import&#39;</text>
</g>
<!-- crosshair -->
<g id="node5" class="node">
<title>crosshair</title>
<path fill="#1a1c28" stroke="#ff0000" stroke-width="2" d="M227.75,-118C227.75,-118 90.75,-118 90.75,-118 84.75,-118 78.75,-112 78.75,-106 78.75,-106 78.75,-94 78.75,-94 78.75,-88 84.75,-82 90.75,-82 90.75,-82 227.75,-82 227.75,-82 233.75,-82 239.75,-88 239.75,-94 239.75,-94 239.75,-106 239.75,-106 239.75,-112 233.75,-118 227.75,-118"/>
<text text-anchor="middle" x="159.25" y="-103" font-family="Courier New" font-size="10.00" fill="#ffffff">XC_X_cursor (Iron Cross)</text>
<text text-anchor="middle" x="159.25" y="-92" font-family="Courier New" font-size="10.00" fill="#ffffff">Waiting for window click</text>
</g>
<!-- magick_import&#45;&gt;crosshair -->
<g id="edge4" class="edge">
<title>magick_import&#45;&gt;crosshair</title>
<path fill="none" stroke="#ff007f" stroke-width="1.5" d="M159.25,-163.64C159.25,-152.66 159.25,-138.29 159.25,-126.09"/>
<polygon fill="#ff007f" stroke="#ff007f" stroke-width="1.5" points="162.05,-126.05 159.25,-118.05 156.45,-126.05 162.05,-126.05"/>
<text text-anchor="middle" x="212.25" y="-138.8" font-family="Courier New" font-size="9.00" fill="#00f3ff">Changes mouse cursor</text>
</g>
<!-- ui_hang -->
<g id="node6" class="node">
<title>ui_hang</title>
<path fill="#1a1c28" stroke="#ff0000" stroke-width="2" d="M230.75,-36C230.75,-36 87.75,-36 87.75,-36 81.75,-36 75.75,-30 75.75,-24 75.75,-24 75.75,-12 75.75,-12 75.75,-6 81.75,0 87.75,0 87.75,0 230.75,0 230.75,0 236.75,0 242.75,-6 242.75,-12 242.75,-12 242.75,-24 242.75,-24 242.75,-30 236.75,-36 230.75,-36"/>
<text text-anchor="middle" x="159.25" y="-15.5" font-family="Courier New" font-size="10.00" fill="#ffffff">UI Hang / Terminal Freeze</text>
</g>
<!-- crosshair&#45;&gt;ui_hang -->
<g id="edge5" class="edge">
<title>crosshair&#45;&gt;ui_hang</title>
<path fill="none" stroke="#ff007f" stroke-width="1.5" d="M159.25,-81.64C159.25,-70.66 159.25,-56.29 159.25,-44.09"/>
<polygon fill="#ff007f" stroke="#ff007f" stroke-width="1.5" points="162.05,-44.05 159.25,-36.05 156.45,-44.05 162.05,-44.05"/>
<text text-anchor="middle" x="222.75" y="-56.8" font-family="Courier New" font-size="9.00" fill="#00f3ff">Clicks block event loops</text>
</g>
</g>
</svg>
