<?xml version="1.0" encoding="UTF-8" standalone="no"?>
<!DOCTYPE svg PUBLIC "-//W3C//DTD SVG 1.1//EN"
 "http://www.w3.org/Graphics/SVG/1.1/DTD/svg11.dtd">
<!-- Generated by graphviz version 2.43.0 (0)
 -->
<!-- Title: G Pages: 1 -->
<svg width="363pt" height="386pt"
 viewBox="0.00 0.00 363.00 386.00" xmlns="http://www.w3.org/2000/svg" xmlns:xlink="http://www.w3.org/1999/xlink">
<g id="graph0" class="graph" transform="scale(1 1) rotate(0) translate(4 382)">
<title>G</title>
<polygon fill="#0d0e15" stroke="transparent" points="-4,4 -4,-382 359,-382 359,4 -4,4"/>
<text text-anchor="middle" x="177.5" y="-362.8" font-family="Courier New" font-size="14.00" fill="#ffffff">S5.3: Shebang Enforcement Resolution Path</text>
<!-- script -->
<g id="node1" class="node">
<title>script</title>
<path fill="#1a1c28" stroke="#00ff66" stroke-width="2" d="M228.75,-355C228.75,-355 109.75,-355 109.75,-355 103.75,-355 97.75,-349 97.75,-343 97.75,-343 97.75,-331 97.75,-331 97.75,-325 103.75,-319 109.75,-319 109.75,-319 228.75,-319 228.75,-319 234.75,-319 240.75,-325 240.75,-331 240.75,-331 240.75,-343 240.75,-343 240.75,-349 234.75,-355 228.75,-355"/>
<text text-anchor="middle" x="169.25" y="-340" font-family="Courier New" font-size="10.00" fill="#ffffff">Python Script</text>
<text text-anchor="middle" x="169.25" y="-329" font-family="Courier New" font-size="10.00" fill="#ffffff">(With Shebang Header)</text>
</g>
<!-- bash -->
<g id="node2" class="node">
<title>bash</title>
<path fill="#1a1c28" stroke="#ffff00" stroke-width="2" d="M225.75,-273C225.75,-273 112.75,-273 112.75,-273 106.75,-273 100.75,-267 100.75,-261 100.75,-261 100.75,-249 100.75,-249 100.75,-243 106.75,-237 112.75,-237 112.75,-237 225.75,-237 225.75,-237 231.75,-237 237.75,-243 237.75,-249 237.75,-249 237.75,-261 237.75,-261 237.75,-267 231.75,-273 225.75,-273"/>
<text text-anchor="middle" x="169.25" y="-252.5" font-family="Courier New" font-size="10.00" fill="#ffffff">Bash Shell Execution</text>
</g>
<!-- script&#45;&gt;bash -->
<g id="edge1" class="edge">
<title>script&#45;&gt;bash</title>
<path fill="none" stroke="#ff007f" stroke-width="1.5" d="M169.25,-318.64C169.25,-307.66 169.25,-293.29 169.25,-281.09"/>
<polygon fill="#ff007f" stroke="#ff007f" stroke-width="1.5" points="172.05,-281.05 169.25,-273.05 166.45,-281.05 172.05,-281.05"/>
<text text-anchor="middle" x="229.75" y="-293.8" font-family="Courier New" font-size="9.00" fill="#00f3ff">Executed as ./script.py</text>
</g>
<!-- shebang -->
<g id="node3" class="node">
<title>shebang</title>
<path fill="#1a1c28" stroke="#00ff66" stroke-width="2" d="M261.75,-191C261.75,-191 76.75,-191 76.75,-191 70.75,-191 64.75,-185 64.75,-179 64.75,-179 64.75,-167 64.75,-167 64.75,-161 70.75,-155 76.75,-155 76.75,-155 261.75,-155 261.75,-155 267.75,-155 273.75,-161 273.75,-167 273.75,-167 273.75,-179 273.75,-179 273.75,-185 267.75,-191 261.75,-191"/>
<text text-anchor="middle" x="169.25" y="-170.5" font-family="Courier New" font-size="10.00" fill="#ffffff">Header: &#39;#!/usr/bin/env python3&#39;</text>
</g>
<!-- bash&#45;&gt;shebang -->
<g id="edge2" class="edge">
<title>bash&#45;&gt;shebang</title>
<path fill="none" stroke="#ff007f" stroke-width="1.5" d="M169.25,-236.64C169.25,-225.66 169.25,-211.29 169.25,-199.09"/>
<polygon fill="#ff007f" stroke="#ff007f" stroke-width="1.5" points="172.05,-199.05 169.25,-191.05 166.45,-199.05 172.05,-199.05"/>
<text text-anchor="middle" x="222.25" y="-211.8" font-family="Courier New" font-size="9.00" fill="#00f3ff">Detects magic header</text>
</g>
<!-- python_int -->
<g id="node4" class="node">
<title>python_int</title>
<path fill="#1a1c28" stroke="#00f3ff" stroke-width="2" d="M225.75,-109C225.75,-109 112.75,-109 112.75,-109 106.75,-109 100.75,-103 100.75,-97 100.75,-97 100.75,-85 100.75,-85 100.75,-79 106.75,-73 112.75,-73 112.75,-73 225.75,-73 225.75,-73 231.75,-73 237.75,-79 237.75,-85 237.75,-85 237.75,-97 237.75,-97 237.75,-103 231.75,-109 225.75,-109"/>
<text text-anchor="middle" x="169.25" y="-88.5" font-family="Courier New" font-size="10.00" fill="#ffffff">Python 3 Interpreter</text>
</g>
<!-- shebang&#45;&gt;python_int -->
<g id="edge3" class="edge">
<title>shebang&#45;&gt;python_int</title>
<path fill="none" stroke="#ff007f" stroke-width="1.5" d="M169.25,-154.64C169.25,-143.66 169.25,-129.29 169.25,-117.09"/>
<polygon fill="#ff007f" stroke="#ff007f" stroke-width="1.5" points="172.05,-117.05 169.25,-109.05 166.45,-117.05 172.05,-117.05"/>
<text text-anchor="middle" x="219.25" y="-129.8" font-family="Courier New" font-size="9.00" fill="#00f3ff">Delegates execution</text>
</g>
<!-- success -->
<g id="node5" class="node">
<title>success</title>
<path fill="#1a1c28" stroke="#00ff66" stroke-width="2" d="M243.75,-36C243.75,-36 94.75,-36 94.75,-36 88.75,-36 82.75,-30 82.75,-24 82.75,-24 82.75,-12 82.75,-12 82.75,-6 88.75,0 94.75,0 94.75,0 243.75,0 243.75,0 249.75,0 255.75,-6 255.75,-12 255.75,-12 255.75,-24 255.75,-24 255.75,-30 249.75,-36 243.75,-36"/>
<text text-anchor="middle" x="169.25" y="-15.5" font-family="Courier New" font-size="10.00" fill="#ffffff">Clean execution of imports</text>
</g>
<!-- python_int&#45;&gt;success -->
<g id="edge4" class="edge">
<title>python_int&#45;&gt;success</title>
<path fill="none" stroke="#ff007f" stroke-width="1.5" d="M169.25,-72.81C169.25,-64.18 169.25,-53.56 169.25,-44.03"/>
<polygon fill="#ff007f" stroke="#ff007f" stroke-width="1.5" points="172.05,-44.03 169.25,-36.03 166.45,-44.03 172.05,-44.03"/>
</g>
</g>
</svg>
