<?xml version="1.0" encoding="UTF-8" standalone="no"?>
<!DOCTYPE svg PUBLIC "-//W3C//DTD SVG 1.1//EN"
 "http://www.w3.org/Graphics/SVG/1.1/DTD/svg11.dtd">
<!-- Generated by graphviz version 2.43.0 (0)
 -->
<!-- Title: G Pages: 1 -->
<svg width="330pt" height="313pt"
 viewBox="0.00 0.00 330.00 313.00" xmlns="http://www.w3.org/2000/svg" xmlns:xlink="http://www.w3.org/1999/xlink">
<g id="graph0" class="graph" transform="scale(1 1) rotate(0) translate(4 309)">
<title>G</title>
<polygon fill="#0d0e15" stroke="transparent" points="-4,4 -4,-309 326,-309 326,4 -4,4"/>
<text text-anchor="middle" x="161" y="-289.8" font-family="Courier New" font-size="14.00" fill="#ffffff">S5.4: Log &amp; Manifest Archive Strategy</text>
<!-- massive_logs -->
<g id="node1" class="node">
<title>massive_logs</title>
<path fill="#1a1c28" stroke="#ff0000" stroke-width="2" d="M213.25,-282C213.25,-282 70.25,-282 70.25,-282 64.25,-282 58.25,-276 58.25,-270 58.25,-270 58.25,-258 58.25,-258 58.25,-252 64.25,-246 70.25,-246 70.25,-246 213.25,-246 213.25,-246 219.25,-246 225.25,-252 225.25,-258 225.25,-258 225.25,-270 225.25,-270 225.25,-276 219.25,-282 213.25,-282"/>
<text text-anchor="middle" x="141.75" y="-267" font-family="Courier New" font-size="10.00" fill="#ffffff">Massive logs / checklists</text>
<text text-anchor="middle" x="141.75" y="-256" font-family="Courier New" font-size="10.00" fill="#ffffff">(Total size &gt; 1GB)</text>
</g>
<!-- archive_dir -->
<g id="node2" class="node">
<title>archive_dir</title>
<path fill="#1a1c28" stroke="#00ff66" stroke-width="2" d="M228.25,-200C228.25,-200 55.25,-200 55.25,-200 49.25,-200 43.25,-194 43.25,-188 43.25,-188 43.25,-176 43.25,-176 43.25,-170 49.25,-164 55.25,-164 55.25,-164 228.25,-164 228.25,-164 234.25,-164 240.25,-170 240.25,-176 240.25,-176 240.25,-188 240.25,-188 240.25,-194 234.25,-200 228.25,-200"/>
<text text-anchor="middle" x="141.75" y="-185" font-family="Courier New" font-size="10.00" fill="#ffffff">archive/ Folder</text>
<text text-anchor="middle" x="141.75" y="-174" font-family="Courier New" font-size="10.00" fill="#ffffff">(Separated from project scope)</text>
</g>
<!-- massive_logs&#45;&gt;archive_dir -->
<g id="edge1" class="edge">
<title>massive_logs&#45;&gt;archive_dir</title>
<path fill="none" stroke="#ff007f" stroke-width="1.5" d="M141.75,-245.64C141.75,-234.66 141.75,-220.29 141.75,-208.09"/>
<polygon fill="#ff007f" stroke="#ff007f" stroke-width="1.5" points="144.55,-208.05 141.75,-200.05 138.95,-208.05 144.55,-208.05"/>
<text text-anchor="middle" x="210.25" y="-220.8" font-family="Courier New" font-size="9.00" fill="#00f3ff">Moved to avoid index bloat</text>
</g>
<!-- search_engine -->
<g id="node3" class="node">
<title>search_engine</title>
<path fill="#1a1c28" stroke="#ffff00" stroke-width="2" d="M198.25,-118C198.25,-118 85.25,-118 85.25,-118 79.25,-118 73.25,-112 73.25,-106 73.25,-106 73.25,-94 73.25,-94 73.25,-88 79.25,-82 85.25,-82 85.25,-82 198.25,-82 198.25,-82 204.25,-82 210.25,-88 210.25,-94 210.25,-94 210.25,-106 210.25,-106 210.25,-112 204.25,-118 198.25,-118"/>
<text text-anchor="middle" x="141.75" y="-97.5" font-family="Courier New" font-size="10.00" fill="#ffffff">Editor search engine</text>
</g>
<!-- archive_dir&#45;&gt;search_engine -->
<g id="edge2" class="edge">
<title>archive_dir&#45;&gt;search_engine</title>
<path fill="none" stroke="#ff007f" stroke-width="1.5" d="M141.75,-163.64C141.75,-152.66 141.75,-138.29 141.75,-126.09"/>
<polygon fill="#ff007f" stroke="#ff007f" stroke-width="1.5" points="144.55,-126.05 141.75,-118.05 138.95,-126.05 144.55,-126.05"/>
<text text-anchor="middle" x="202.25" y="-138.8" font-family="Courier New" font-size="9.00" fill="#00f3ff">Ignored (Exclude rules)</text>
</g>
<!-- restored_speed -->
<g id="node4" class="node">
<title>restored_speed</title>
<path fill="#1a1c28" stroke="#00ff66" stroke-width="2" d="M204.25,-36C204.25,-36 79.25,-36 79.25,-36 73.25,-36 67.25,-30 67.25,-24 67.25,-24 67.25,-12 67.25,-12 67.25,-6 73.25,0 79.25,0 79.25,0 204.25,0 204.25,0 210.25,0 216.25,-6 216.25,-12 216.25,-12 216.25,-24 216.25,-24 216.25,-30 210.25,-36 204.25,-36"/>
<text text-anchor="middle" x="141.75" y="-15.5" font-family="Courier New" font-size="10.00" fill="#ffffff">Ultra&#45;Fast File Search</text>
</g>
<!-- search_engine&#45;&gt;restored_speed -->
<g id="edge3" class="edge">
<title>search_engine&#45;&gt;restored_speed</title>
<path fill="none" stroke="#ff007f" stroke-width="1.5" d="M141.75,-81.64C141.75,-70.66 141.75,-56.29 141.75,-44.09"/>
<polygon fill="#ff007f" stroke="#ff007f" stroke-width="1.5" points="144.55,-44.05 141.75,-36.05 138.95,-44.05 144.55,-44.05"/>
<text text-anchor="middle" x="199.75" y="-56.8" font-family="Courier New" font-size="9.00" fill="#00f3ff">Prevents RAM/CPU locks</text>
</g>
</g>
</svg>
