<?xml version="1.0" encoding="UTF-8" standalone="no"?>
<!DOCTYPE svg PUBLIC "-//W3C//DTD SVG 1.1//EN"
 "http://www.w3.org/Graphics/SVG/1.1/DTD/svg11.dtd">
<!-- Generated by graphviz version 2.43.0 (0)
 -->
<!-- Title: G Pages: 1 -->
<svg width="957pt" height="139pt"
 viewBox="0.00 0.00 957.00 139.00" xmlns="http://www.w3.org/2000/svg" xmlns:xlink="http://www.w3.org/1999/xlink">
<g id="graph0" class="graph" transform="scale(1 1) rotate(0) translate(4 135)">
<title>G</title>
<polygon fill="#0d0e15" stroke="transparent" points="-4,4 -4,-135 953,-135 953,4 -4,4"/>
<text text-anchor="middle" x="474.5" y="-115.8" font-family="Courier New" font-size="14.00" fill="#ffffff">S5.5: HUD Transfinite Controller Commands</text>
<!-- controller -->
<g id="node1" class="node">
<title>controller</title>
<path fill="#1a1c28" stroke="#00ff66" stroke-width="2" d="M546,-108C546,-108 439,-108 439,-108 433,-108 427,-102 427,-96 427,-96 427,-84 427,-84 427,-78 433,-72 439,-72 439,-72 546,-72 546,-72 552,-72 558,-78 558,-84 558,-84 558,-96 558,-96 558,-102 552,-108 546,-108"/>
<text text-anchor="middle" x="492.5" y="-87.5" font-family="Courier New" font-size="10.00" fill="#ffffff">tools/controller.py</text>
</g>
<!-- opt1 -->
<g id="node2" class="node">
<title>opt1</title>
<path fill="#1a1c28" stroke="#00f3ff" stroke-width="2" d="M143,-36C143,-36 12,-36 12,-36 6,-36 0,-30 0,-24 0,-24 0,-12 0,-12 0,-6 6,0 12,0 12,0 143,0 143,0 149,0 155,-6 155,-12 155,-12 155,-24 155,-24 155,-30 149,-36 143,-36"/>
<text text-anchor="middle" x="77.5" y="-21" font-family="Courier New" font-size="10.00" fill="#ffffff">1. Run Forensic Session</text>
<text text-anchor="middle" x="77.5" y="-10" font-family="Courier New" font-size="10.00" fill="#ffffff">(forensic_run.sh)</text>
</g>
<!-- controller&#45;&gt;opt1 -->
<g id="edge1" class="edge">
<title>controller&#45;&gt;opt1</title>
<path fill="none" stroke="#ff007f" stroke-width="1.5" d="M426.84,-79.12C360.35,-68.96 254.61,-52.34 163.5,-36 163.42,-35.98 163.33,-35.97 163.25,-35.95"/>
<polygon fill="#ff007f" stroke="#ff007f" stroke-width="1.5" points="163.66,-33.18 155.29,-34.51 162.66,-38.69 163.66,-33.18"/>
</g>
<!-- opt2 -->
<g id="node3" class="node">
<title>opt2</title>
<path fill="#1a1c28" stroke="#00f3ff" stroke-width="2" d="M364,-36C364,-36 185,-36 185,-36 179,-36 173,-30 173,-24 173,-24 173,-12 173,-12 173,-6 179,0 185,0 185,0 364,0 364,0 370,0 376,-6 376,-12 376,-12 376,-24 376,-24 376,-30 370,-36 364,-36"/>
<text text-anchor="middle" x="274.5" y="-21" font-family="Courier New" font-size="10.00" fill="#ffffff">2. Execute Auto&#45;Correction Loop</text>
<text text-anchor="middle" x="274.5" y="-10" font-family="Courier New" font-size="10.00" fill="#ffffff">(self_correction_loop.sh)</text>
</g>
<!-- controller&#45;&gt;opt2 -->
<g id="edge2" class="edge">
<title>controller&#45;&gt;opt2</title>
<path fill="none" stroke="#ff007f" stroke-width="1.5" d="M439.45,-71.97C408.06,-61.89 368.19,-49.08 335.5,-38.59"/>
<polygon fill="#ff007f" stroke="#ff007f" stroke-width="1.5" points="336.26,-35.89 327.79,-36.11 334.55,-41.22 336.26,-35.89"/>
</g>
<!-- opt3 -->
<g id="node4" class="node">
<title>opt3</title>
<path fill="#1a1c28" stroke="#00f3ff" stroke-width="2" d="M579,-36C579,-36 406,-36 406,-36 400,-36 394,-30 394,-24 394,-24 394,-12 394,-12 394,-6 400,0 406,0 406,0 579,0 579,0 585,0 591,-6 591,-12 591,-12 591,-24 591,-24 591,-30 585,-36 579,-36"/>
<text text-anchor="middle" x="492.5" y="-21" font-family="Courier New" font-size="10.00" fill="#ffffff">3. Refresh Visual Architecture</text>
<text text-anchor="middle" x="492.5" y="-10" font-family="Courier New" font-size="10.00" fill="#ffffff">(viz_refresh.sh)</text>
</g>
<!-- controller&#45;&gt;opt3 -->
<g id="edge3" class="edge">
<title>controller&#45;&gt;opt3</title>
<path fill="none" stroke="#ff007f" stroke-width="1.5" d="M492.5,-71.7C492.5,-63.39 492.5,-53.28 492.5,-44.14"/>
<polygon fill="#ff007f" stroke="#ff007f" stroke-width="1.5" points="495.3,-44.1 492.5,-36.1 489.7,-44.1 495.3,-44.1"/>
</g>
<!-- opt4 -->
<g id="node5" class="node">
<title>opt4</title>
<path fill="#1a1c28" stroke="#00f3ff" stroke-width="2" d="M776,-36C776,-36 621,-36 621,-36 615,-36 609,-30 609,-24 609,-24 609,-12 609,-12 609,-6 615,0 621,0 621,0 776,0 776,0 782,0 788,-6 788,-12 788,-12 788,-24 788,-24 788,-30 782,-36 776,-36"/>
<text text-anchor="middle" x="698.5" y="-21" font-family="Courier New" font-size="10.00" fill="#ffffff">4. Trigger Axiom Shift (+1)</text>
<text text-anchor="middle" x="698.5" y="-10" font-family="Courier New" font-size="10.00" fill="#ffffff">(axiom_shift.sh)</text>
</g>
<!-- controller&#45;&gt;opt4 -->
<g id="edge4" class="edge">
<title>controller&#45;&gt;opt4</title>
<path fill="none" stroke="#ff007f" stroke-width="1.5" d="M542.63,-71.97C572.16,-61.93 609.65,-49.19 640.46,-38.72"/>
<polygon fill="#ff007f" stroke="#ff007f" stroke-width="1.5" points="641.47,-41.34 648.15,-36.11 639.67,-36.03 641.47,-41.34"/>
</g>
<!-- opt5 -->
<g id="node6" class="node">
<title>opt5</title>
<path fill="#1a1c28" stroke="#00f3ff" stroke-width="2" d="M937,-36C937,-36 818,-36 818,-36 812,-36 806,-30 806,-24 806,-24 806,-12 806,-12 806,-6 812,0 818,0 818,0 937,0 937,0 943,0 949,-6 949,-12 949,-12 949,-24 949,-24 949,-30 943,-36 937,-36"/>
<text text-anchor="middle" x="877.5" y="-21" font-family="Courier New" font-size="10.00" fill="#ffffff">5. Complexity Audit</text>
<text text-anchor="middle" x="877.5" y="-10" font-family="Courier New" font-size="10.00" fill="#ffffff">(complexity_audit.py)</text>
</g>
<!-- controller&#45;&gt;opt5 -->
<g id="edge5" class="edge">
<title>controller&#45;&gt;opt5</title>
<path fill="none" stroke="#ff007f" stroke-width="1.5" d="M558.08,-78.33C619.93,-68.1 715.18,-51.89 797.5,-36 797.67,-35.97 797.85,-35.93 798.02,-35.9"/>
<polygon fill="#ff007f" stroke="#ff007f" stroke-width="1.5" points="798.69,-38.62 806,-34.33 797.61,-33.13 798.69,-38.62"/>
</g>
</g>
</svg>
