<?xml version="1.0" encoding="UTF-8" standalone="no"?>
<!DOCTYPE svg PUBLIC "-//W3C//DTD SVG 1.1//EN"
 "http://www.w3.org/Graphics/SVG/1.1/DTD/svg11.dtd">
<!-- Generated by graphviz version 2.43.0 (0)
 -->
<!-- Title: Power_Efficiency_Comparison Pages: 1 -->
<svg width="254pt" height="272pt"
 viewBox="0.00 0.00 253.50 272.00" xmlns="http://www.w3.org/2000/svg" xmlns:xlink="http://www.w3.org/1999/xlink">
<g id="graph0" class="graph" transform="scale(1 1) rotate(0) translate(4 268)">
<title>Power_Efficiency_Comparison</title>
<polygon fill="white" stroke="transparent" points="-4,4 -4,-268 249.5,-268 249.5,4 -4,4"/>
<!-- Initial -->
<g id="node1" class="node">
<title>Initial</title>
<polygon fill="orange" stroke="black" points="0,-194.5 0,-263.5 235,-263.5 235,-194.5 0,-194.5"/>
<text text-anchor="middle" x="117.5" y="-248.3" font-family="Times,serif" font-size="14.00">INITIAL STATE</text>
<polyline fill="none" stroke="black" points="0,-240.5 235,-240.5 "/>
<text text-anchor="middle" x="62.5" y="-225.3" font-family="Times,serif" font-size="14.00">VRAM: 9251 MHz</text>
<polyline fill="none" stroke="black" points="125,-217.5 125,-240.5 "/>
<text text-anchor="middle" x="180" y="-225.3" font-family="Times,serif" font-size="14.00">Core: 1785 MHz</text>
<polyline fill="none" stroke="black" points="0,-217.5 235,-217.5 "/>
<text text-anchor="middle" x="117.5" y="-202.3" font-family="Times,serif" font-size="14.00">Power: ~122W</text>
</g>
<!-- Delta -->
<g id="node3" class="node">
<title>Delta</title>
<polygon fill="gold" stroke="black" points="187.5,-143 47.5,-143 47.5,-139 43.5,-139 43.5,-135 47.5,-135 47.5,-115 43.5,-115 43.5,-111 47.5,-111 47.5,-107 187.5,-107 187.5,-143"/>
<polyline fill="none" stroke="black" points="47.5,-139 51.5,-139 51.5,-135 47.5,-135 "/>
<polyline fill="none" stroke="black" points="47.5,-115 51.5,-115 51.5,-111 47.5,-111 "/>
<text text-anchor="middle" x="117.5" y="-121.3" font-family="Times,serif" font-size="14.00">64% Power Reduction</text>
</g>
<!-- Initial&#45;&gt;Delta -->
<g id="edge1" class="edge">
<title>Initial&#45;&gt;Delta</title>
<path fill="none" stroke="black" d="M117.5,-194.32C117.5,-181.03 117.5,-165.97 117.5,-153.37"/>
<polygon fill="black" stroke="black" points="121,-153.05 117.5,-143.05 114,-153.05 121,-153.05"/>
<text text-anchor="middle" x="181.5" y="-164.8" font-family="Times,serif" font-size="14.00">Clock Locking Applied</text>
</g>
<!-- Optimized -->
<g id="node2" class="node">
<title>Optimized</title>
<polygon fill="lightgreen" stroke="black" points="7,-0.5 7,-69.5 228,-69.5 228,-0.5 7,-0.5"/>
<text text-anchor="middle" x="117.5" y="-54.3" font-family="Times,serif" font-size="14.00">OPTIMIZED STATE</text>
<polyline fill="none" stroke="black" points="7,-46.5 228,-46.5 "/>
<text text-anchor="middle" x="66" y="-31.3" font-family="Times,serif" font-size="14.00">VRAM: 405 MHz</text>
<polyline fill="none" stroke="black" points="125,-23.5 125,-46.5 "/>
<text text-anchor="middle" x="176.5" y="-31.3" font-family="Times,serif" font-size="14.00">Core: 210 MHz</text>
<polyline fill="none" stroke="black" points="7,-23.5 228,-23.5 "/>
<text text-anchor="middle" x="117.5" y="-8.3" font-family="Times,serif" font-size="14.00">Power: ~44W</text>
</g>
<!-- Delta&#45;&gt;Optimized -->
<g id="edge2" class="edge">
<title>Delta&#45;&gt;Optimized</title>
<path fill="none" stroke="black" d="M117.5,-106.61C117.5,-98.89 117.5,-89.41 117.5,-79.94"/>
<polygon fill="black" stroke="black" points="121,-79.74 117.5,-69.74 114,-79.74 121,-79.74"/>
</g>
</g>
</svg>
