<?xml version="1.0" encoding="UTF-8" standalone="no"?>
<!DOCTYPE svg PUBLIC "-//W3C//DTD SVG 1.1//EN"
 "http://www.w3.org/Graphics/SVG/1.1/DTD/svg11.dtd">
<!-- Generated by graphviz version 2.43.0 (0)
 -->
<!-- Title: ArchContext Pages: 1 -->
<svg width="241pt" height="304pt"
 viewBox="0.00 0.00 241.00 304.00" xmlns="http://www.w3.org/2000/svg" xmlns:xlink="http://www.w3.org/1999/xlink">
<g id="graph0" class="graph" transform="scale(1 1) rotate(0) translate(4 300)">
<title>ArchContext</title>
<polygon fill="#0d1117" stroke="transparent" points="-4,4 -4,-300 237,-300 237,4 -4,4"/>
<text text-anchor="middle" x="116.5" y="-7.8" font-family="Helvetica,sans-Serif" font-size="14.00" fill="#00f2ff">S1.1: Physical &amp; Virtual Architecture</text>
<!-- Host -->
<g id="node1" class="node">
<title>Host</title>
<path fill="#161b22" stroke="#00ff00" d="M133,-296C133,-296 71,-296 71,-296 65,-296 59,-290 59,-284 59,-284 59,-270 59,-270 59,-264 65,-258 71,-258 71,-258 133,-258 133,-258 139,-258 145,-264 145,-270 145,-270 145,-284 145,-284 145,-290 139,-296 133,-296"/>
<text text-anchor="middle" x="102" y="-280.8" font-family="Times,serif" font-size="14.00" fill="#00f2ff">Host System</text>
<text text-anchor="middle" x="102" y="-265.8" font-family="Times,serif" font-size="14.00" fill="#00f2ff">(Linux)</text>
</g>
<!-- Docker -->
<g id="node2" class="node">
<title>Docker</title>
<path fill="#161b22" stroke="#00f2ff" d="M151,-217.73C151,-219.53 129.04,-221 102,-221 74.96,-221 53,-219.53 53,-217.73 53,-217.73 53,-188.27 53,-188.27 53,-186.47 74.96,-185 102,-185 129.04,-185 151,-186.47 151,-188.27 151,-188.27 151,-217.73 151,-217.73"/>
<path fill="none" stroke="#00f2ff" d="M151,-217.73C151,-215.92 129.04,-214.45 102,-214.45 74.96,-214.45 53,-215.92 53,-217.73"/>
<text text-anchor="middle" x="102" y="-199.3" font-family="Times,serif" font-size="14.00" fill="#00f2ff">Docker Engine</text>
</g>
<!-- Host&#45;&gt;Docker -->
<g id="edge1" class="edge">
<title>Host&#45;&gt;Docker</title>
<path fill="none" stroke="#ff00ff" d="M102,-257.83C102,-249.89 102,-240.41 102,-231.63"/>
<polygon fill="#ff00ff" stroke="#ff00ff" points="102,-221.42 106.5,-231.42 102,-226.42 102,-231.42 102,-231.42 102,-231.42 102,-226.42 97.5,-231.42 102,-221.42 102,-221.42"/>
</g>
<!-- OllamaSrv -->
<g id="node3" class="node">
<title>OllamaSrv</title>
<path fill="#161b22" stroke="#ffff00" d="M138,-148C138,-148 66,-148 66,-148 60,-148 54,-142 54,-136 54,-136 54,-124 54,-124 54,-118 60,-112 66,-112 66,-112 138,-112 138,-112 144,-112 150,-118 150,-124 150,-124 150,-136 150,-136 150,-142 144,-148 138,-148"/>
<text text-anchor="middle" x="102" y="-126.3" font-family="Times,serif" font-size="14.00" fill="#00f2ff">Ollama Server</text>
</g>
<!-- Docker&#45;&gt;OllamaSrv -->
<g id="edge2" class="edge">
<title>Docker&#45;&gt;OllamaSrv</title>
<path fill="none" stroke="#ff00ff" d="M102,-184.81C102,-176.79 102,-167.05 102,-158.07"/>
<polygon fill="#ff00ff" stroke="#ff00ff" points="102,-148.03 106.5,-158.03 102,-153.03 102,-158.03 102,-158.03 102,-158.03 102,-153.03 97.5,-158.03 102,-148.03 102,-148.03"/>
</g>
<!-- GPUs -->
<g id="node4" class="node">
<title>GPUs</title>
<polygon fill="#161b22" stroke="#ff00ff" points="166,-61 42,-61 38,-57 38,-23 162,-23 166,-27 166,-61"/>
<polyline fill="none" stroke="#ff00ff" points="162,-57 38,-57 "/>
<polyline fill="none" stroke="#ff00ff" points="162,-57 162,-23 "/>
<polyline fill="none" stroke="#ff00ff" points="162,-57 166,-61 "/>
<text text-anchor="middle" x="102" y="-45.8" font-family="Times,serif" font-size="14.00" fill="#00f2ff">Dual GPUs</text>
<text text-anchor="middle" x="102" y="-30.8" font-family="Times,serif" font-size="14.00" fill="#00f2ff">(VRAM (~8GB/ea))</text>
</g>
<!-- OllamaSrv&#45;&gt;GPUs -->
<g id="edge3" class="edge">
<title>OllamaSrv&#45;&gt;GPUs</title>
<path fill="none" stroke="#ff00ff" d="M102,-111.6C102,-100.06 102,-84.65 102,-71.36"/>
<polygon fill="#ff00ff" stroke="#ff00ff" points="102,-61.27 106.5,-71.27 102,-66.27 102,-71.27 102,-71.27 102,-71.27 102,-66.27 97.5,-71.27 102,-61.27 102,-61.27"/>
<text text-anchor="middle" x="148.5" y="-82.8" font-family="Times,serif" font-size="14.00"> Model Loading </text>
</g>
</g>
</svg>
