<?xml version="1.0" encoding="UTF-8" standalone="no"?>
<!DOCTYPE svg PUBLIC "-//W3C//DTD SVG 1.1//EN"
 "http://www.w3.org/Graphics/SVG/1.1/DTD/svg11.dtd">
<!-- Generated by graphviz version 2.43.0 (0)
 -->
<!-- Title: ArchNetwork Pages: 1 -->
<svg width="299pt" height="405pt"
 viewBox="0.00 0.00 299.00 404.59" xmlns="http://www.w3.org/2000/svg" xmlns:xlink="http://www.w3.org/1999/xlink">
<g id="graph0" class="graph" transform="scale(1 1) rotate(0) translate(4 400.59)">
<title>ArchNetwork</title>
<polygon fill="#0d1117" stroke="transparent" points="-4,4 -4,-400.59 295,-400.59 295,4 -4,4"/>
<text text-anchor="middle" x="145.5" y="-7.8" font-family="Helvetica,sans-Serif" font-size="14.00" fill="#00f2ff">S1.3: Network Topology &amp; Metric Prioritization</text>
<!-- NIC -->
<g id="node1" class="node">
<title>NIC</title>
<path fill="#161b22" stroke="#00ff00" d="M181,-396.59C181,-396.59 110,-396.59 110,-396.59 104,-396.59 98,-390.59 98,-384.59 98,-384.59 98,-370.59 98,-370.59 98,-364.59 104,-358.59 110,-358.59 110,-358.59 181,-358.59 181,-358.59 187,-358.59 193,-364.59 193,-370.59 193,-370.59 193,-384.59 193,-384.59 193,-390.59 187,-396.59 181,-396.59"/>
<text text-anchor="middle" x="145.5" y="-381.39" font-family="Times,serif" font-size="14.00" fill="#00f2ff">Intel X540&#45;T2</text>
<text text-anchor="middle" x="145.5" y="-366.39" font-family="Times,serif" font-size="14.00" fill="#00f2ff">(Ethernet)</text>
</g>
<!-- Metric -->
<g id="node2" class="node">
<title>Metric</title>
<ellipse fill="#161b22" stroke="#00f2ff" cx="145.5" cy="-252.3" rx="69.09" ry="69.09"/>
<text text-anchor="middle" x="145.5" y="-256.1" font-family="Times,serif" font-size="14.00" fill="#00f2ff">Metric: 20050</text>
<text text-anchor="middle" x="145.5" y="-241.1" font-family="Times,serif" font-size="14.00" fill="#00f2ff">(Priority High)</text>
</g>
<!-- NIC&#45;&gt;Metric -->
<g id="edge1" class="edge">
<title>NIC&#45;&gt;Metric</title>
<path fill="none" stroke="#ff00ff" d="M145.5,-358.4C145.5,-350.91 145.5,-341.69 145.5,-331.84"/>
<polygon fill="#ff00ff" stroke="#ff00ff" points="145.5,-321.83 150,-331.83 145.5,-326.83 145.5,-331.83 145.5,-331.83 145.5,-331.83 145.5,-326.83 141,-331.83 145.5,-321.83 145.5,-321.83"/>
</g>
<!-- Gateway -->
<g id="node3" class="node">
<title>Gateway</title>
<path fill="#161b22" stroke="#00f2ff" d="M181.5,-146C181.5,-146 109.5,-146 109.5,-146 103.5,-146 97.5,-140 97.5,-134 97.5,-134 97.5,-122 97.5,-122 97.5,-116 103.5,-110 109.5,-110 109.5,-110 181.5,-110 181.5,-110 187.5,-110 193.5,-116 193.5,-122 193.5,-122 193.5,-134 193.5,-134 193.5,-140 187.5,-146 181.5,-146"/>
<text text-anchor="middle" x="145.5" y="-124.3" font-family="Times,serif" font-size="14.00" fill="#00f2ff">LAN Gateway</text>
</g>
<!-- Metric&#45;&gt;Gateway -->
<g id="edge2" class="edge">
<title>Metric&#45;&gt;Gateway</title>
<path fill="none" stroke="#ff00ff" d="M145.5,-183C145.5,-173.67 145.5,-164.56 145.5,-156.57"/>
<polygon fill="#ff00ff" stroke="#ff00ff" points="145.5,-146.44 150,-156.44 145.5,-151.44 145.5,-156.44 145.5,-156.44 145.5,-156.44 145.5,-151.44 141,-156.44 145.5,-146.44 145.5,-146.44"/>
</g>
<!-- Watchdog -->
<g id="node4" class="node">
<title>Watchdog</title>
<path fill="#161b22" stroke="#ff0000" d="M133.65,-57.1C133.65,-57.1 45.07,-42.9 45.07,-42.9 39.15,-41.95 39.15,-40.05 45.07,-39.1 45.07,-39.1 133.65,-24.9 133.65,-24.9 139.58,-23.95 151.42,-23.95 157.35,-24.9 157.35,-24.9 245.93,-39.1 245.93,-39.1 251.85,-40.05 251.85,-41.95 245.93,-42.9 245.93,-42.9 157.35,-57.1 157.35,-57.1 151.42,-58.05 139.58,-58.05 133.65,-57.1"/>
<text text-anchor="middle" x="145.5" y="-37.3" font-family="Times,serif" font-size="14.00" fill="#00f2ff">Network Watchdog</text>
</g>
<!-- Gateway&#45;&gt;Watchdog -->
<g id="edge3" class="edge">
<title>Gateway&#45;&gt;Watchdog</title>
<path fill="none" stroke="#ff00ff" d="M145.5,-109.8C145.5,-98.16 145.5,-82.55 145.5,-69.24"/>
<polygon fill="#ff00ff" stroke="#ff00ff" points="145.5,-59.18 150,-69.18 145.5,-64.18 145.5,-69.18 145.5,-69.18 145.5,-69.18 145.5,-64.18 141,-69.18 145.5,-59.18 145.5,-59.18"/>
<text text-anchor="middle" x="190.5" y="-80.8" font-family="Times,serif" font-size="14.00"> Latency Check </text>
</g>
</g>
</svg>
