<?xml version="1.0" encoding="UTF-8" standalone="no"?>
<!DOCTYPE svg PUBLIC "-//W3C//DTD SVG 1.1//EN"
 "http://www.w3.org/Graphics/SVG/1.1/DTD/svg11.dtd">
<!-- Generated by graphviz version 2.43.0 (0)
 -->
<!-- Title: ArchToolchain Pages: 1 -->
<svg width="307pt" height="143pt"
 viewBox="0.00 0.00 307.00 143.00" xmlns="http://www.w3.org/2000/svg" xmlns:xlink="http://www.w3.org/1999/xlink">
<g id="graph0" class="graph" transform="scale(1 1) rotate(0) translate(4 139)">
<title>ArchToolchain</title>
<polygon fill="#0d1117" stroke="transparent" points="-4,4 -4,-139 303,-139 303,4 -4,4"/>
<text text-anchor="middle" x="149.5" y="-7.8" font-family="Helvetica,sans-Serif" font-size="14.00" fill="#00f2ff">S1.5: Hybrid Toolchain Integration</text>
<!-- CLI -->
<g id="node1" class="node">
<title>CLI</title>
<path fill="#161b22" stroke="#00ff00" stroke-width="2" d="M189,-135C189,-135 120,-135 120,-135 114,-135 108,-129 108,-123 108,-123 108,-109 108,-109 108,-103 114,-97 120,-97 120,-97 189,-97 189,-97 195,-97 201,-103 201,-109 201,-109 201,-123 201,-123 201,-129 195,-135 189,-135"/>
<text text-anchor="middle" x="154.5" y="-119.8" font-family="Times,serif" font-size="14.00" fill="#00f2ff">Gemini CLI</text>
<text text-anchor="middle" x="154.5" y="-104.8" font-family="Times,serif" font-size="14.00" fill="#00f2ff">(Orchestrator)</text>
</g>
<!-- Git -->
<g id="node2" class="node">
<title>Git</title>
<path fill="#161b22" stroke="#00f2ff" d="M75,-61C75,-61 12,-61 12,-61 6,-61 0,-55 0,-49 0,-49 0,-35 0,-35 0,-29 6,-23 12,-23 12,-23 75,-23 75,-23 81,-23 87,-29 87,-35 87,-35 87,-49 87,-49 87,-55 81,-61 75,-61"/>
<text text-anchor="middle" x="43.5" y="-45.8" font-family="Times,serif" font-size="14.00" fill="#00f2ff">Git / Gh CLI</text>
<text text-anchor="middle" x="43.5" y="-30.8" font-family="Times,serif" font-size="14.00" fill="#00f2ff">(Sync)</text>
</g>
<!-- CLI&#45;&gt;Git -->
<g id="edge1" class="edge">
<title>CLI&#45;&gt;Git</title>
<path fill="none" stroke="#ff00ff" d="M126.49,-96.83C112.42,-87.71 95.21,-76.54 80.11,-66.74"/>
<polygon fill="#ff00ff" stroke="#ff00ff" points="71.5,-61.16 82.34,-62.83 75.7,-63.88 79.89,-66.6 79.89,-66.6 79.89,-66.6 75.7,-63.88 77.44,-70.38 71.5,-61.16 71.5,-61.16"/>
</g>
<!-- Viz -->
<g id="node3" class="node">
<title>Viz</title>
<path fill="#161b22" stroke="#00f2ff" d="M191.5,-61C191.5,-61 117.5,-61 117.5,-61 111.5,-61 105.5,-55 105.5,-49 105.5,-49 105.5,-35 105.5,-35 105.5,-29 111.5,-23 117.5,-23 117.5,-23 191.5,-23 191.5,-23 197.5,-23 203.5,-29 203.5,-35 203.5,-35 203.5,-49 203.5,-49 203.5,-55 197.5,-61 191.5,-61"/>
<text text-anchor="middle" x="154.5" y="-45.8" font-family="Times,serif" font-size="14.00" fill="#00f2ff">Graphviz (dot)</text>
<text text-anchor="middle" x="154.5" y="-30.8" font-family="Times,serif" font-size="14.00" fill="#00f2ff">(Visualization)</text>
</g>
<!-- CLI&#45;&gt;Viz -->
<g id="edge2" class="edge">
<title>CLI&#45;&gt;Viz</title>
<path fill="none" stroke="#ff00ff" d="M154.5,-96.83C154.5,-89.13 154.5,-79.97 154.5,-71.42"/>
<polygon fill="#ff00ff" stroke="#ff00ff" points="154.5,-61.41 159,-71.41 154.5,-66.41 154.5,-71.41 154.5,-71.41 154.5,-71.41 154.5,-66.41 150,-71.41 154.5,-61.41 154.5,-61.41"/>
</g>
<!-- Ollama -->
<g id="node4" class="node">
<title>Ollama</title>
<path fill="#161b22" stroke="#00f2ff" d="M287,-61C287,-61 234,-61 234,-61 228,-61 222,-55 222,-49 222,-49 222,-35 222,-35 222,-29 228,-23 234,-23 234,-23 287,-23 287,-23 293,-23 299,-29 299,-35 299,-35 299,-49 299,-49 299,-55 293,-61 287,-61"/>
<text text-anchor="middle" x="260.5" y="-45.8" font-family="Times,serif" font-size="14.00" fill="#00f2ff">Ollama</text>
<text text-anchor="middle" x="260.5" y="-30.8" font-family="Times,serif" font-size="14.00" fill="#00f2ff">(Inference)</text>
</g>
<!-- CLI&#45;&gt;Ollama -->
<g id="edge3" class="edge">
<title>CLI&#45;&gt;Ollama</title>
<path fill="none" stroke="#ff00ff" d="M181.25,-96.83C194.56,-87.79 210.82,-76.75 225.14,-67.02"/>
<polygon fill="#ff00ff" stroke="#ff00ff" points="233.76,-61.16 228.02,-70.5 229.62,-63.97 225.49,-66.78 225.49,-66.78 225.49,-66.78 229.62,-63.97 222.96,-63.06 233.76,-61.16 233.76,-61.16"/>
</g>
</g>
</svg>
