<?xml version="1.0" encoding="UTF-8" standalone="no"?>
<!DOCTYPE svg PUBLIC "-//W3C//DTD SVG 1.1//EN"
 "http://www.w3.org/Graphics/SVG/1.1/DTD/svg11.dtd">
<!-- Generated by graphviz version 2.43.0 (0)
 -->
<!-- Title: ArchModelMgmt Pages: 1 -->
<svg width="351pt" height="358pt"
 viewBox="0.00 0.00 351.00 358.00" xmlns="http://www.w3.org/2000/svg" xmlns:xlink="http://www.w3.org/1999/xlink">
<g id="graph0" class="graph" transform="scale(1 1) rotate(0) translate(4 354)">
<title>ArchModelMgmt</title>
<polygon fill="#0d1117" stroke="transparent" points="-4,4 -4,-354 347,-354 347,4 -4,4"/>
<text text-anchor="middle" x="171.5" y="-7.8" font-family="Helvetica,sans-Serif" font-size="14.00" fill="#00f2ff">S1.2: Model &amp; VRAM Management Logic</text>
<!-- Pool -->
<g id="node1" class="node">
<title>Pool</title>
<polygon fill="#161b22" stroke="#00f2ff" points="343,-350 340,-354 319,-354 316,-350 171,-350 171,-312 343,-312 343,-350"/>
<text text-anchor="middle" x="257" y="-334.8" font-family="Times,serif" font-size="14.00" fill="#00f2ff">Available Models</text>
<text text-anchor="middle" x="257" y="-319.8" font-family="Times,serif" font-size="14.00" fill="#00f2ff">(Qwen, Gemma, DeepSeek)</text>
</g>
<!-- Loader -->
<g id="node2" class="node">
<title>Loader</title>
<path fill="#161b22" stroke="#ffff00" d="M123.45,-271.75C123.45,-271.75 11.55,-240.25 11.55,-240.25 5.78,-238.63 5.78,-235.37 11.55,-233.75 11.55,-233.75 123.45,-202.25 123.45,-202.25 129.22,-200.63 140.78,-200.63 146.55,-202.25 146.55,-202.25 258.45,-233.75 258.45,-233.75 264.22,-235.37 264.22,-238.63 258.45,-240.25 258.45,-240.25 146.55,-271.75 146.55,-271.75 140.78,-273.37 129.22,-273.37 123.45,-271.75"/>
<text text-anchor="middle" x="135" y="-240.8" font-family="Times,serif" font-size="14.00" fill="#00f2ff">Ollama Loader</text>
<text text-anchor="middle" x="135" y="-225.8" font-family="Times,serif" font-size="14.00" fill="#00f2ff">(MAX_LOADED=1)</text>
</g>
<!-- Pool&#45;&gt;Loader -->
<g id="edge1" class="edge">
<title>Pool&#45;&gt;Loader</title>
<path fill="none" stroke="#ff00ff" d="M232.9,-311.82C217.6,-300.29 197.35,-285.02 179.23,-271.36"/>
<polygon fill="#ff00ff" stroke="#ff00ff" points="171.09,-265.21 181.78,-267.64 175.08,-268.22 179.07,-271.23 179.07,-271.23 179.07,-271.23 175.08,-268.22 176.36,-274.83 171.09,-265.21 171.09,-265.21"/>
</g>
<!-- VRAM -->
<g id="node3" class="node">
<title>VRAM</title>
<path fill="#161b22" stroke="#00ff00" stroke-width="3" d="M207,-148C207,-148 109,-148 109,-148 103,-148 97,-142 97,-136 97,-136 97,-124 97,-124 97,-118 103,-112 109,-112 109,-112 207,-112 207,-112 213,-112 219,-118 219,-124 219,-124 219,-136 219,-136 219,-142 213,-148 207,-148"/>
<text text-anchor="middle" x="158" y="-126.3" font-family="Times,serif" font-size="14.00" fill="#00f2ff">Active VRAM Slot</text>
</g>
<!-- Loader&#45;&gt;VRAM -->
<g id="edge2" class="edge">
<title>Loader&#45;&gt;VRAM</title>
<path fill="none" stroke="#ff00ff" d="M142.66,-201.04C145.73,-187.01 149.22,-171.09 152.09,-157.98"/>
<polygon fill="#ff00ff" stroke="#ff00ff" points="154.24,-148.16 156.5,-158.89 153.17,-153.04 152.1,-157.93 152.1,-157.93 152.1,-157.93 153.17,-153.04 147.71,-156.97 154.24,-148.16 154.24,-148.16"/>
<text text-anchor="middle" x="185.5" y="-169.8" font-family="Times,serif" font-size="14.00"> Direct Map </text>
</g>
<!-- Swap -->
<g id="node4" class="node">
<title>Swap</title>
<polygon fill="#161b22" stroke="#00f2ff" points="266.5,-55 181.5,-55 181.5,-29 266.5,-29 278.5,-42 266.5,-55"/>
<text text-anchor="middle" x="230" y="-45.8" font-family="Times,serif" font-size="14.00" fill="#00f2ff">Model Swap</text>
<text text-anchor="middle" x="230" y="-30.8" font-family="Times,serif" font-size="14.00" fill="#00f2ff">(Unload/Load)</text>
</g>
<!-- VRAM&#45;&gt;Swap -->
<g id="edge3" class="edge">
<title>VRAM&#45;&gt;Swap</title>
<path fill="none" stroke="#ff00ff" d="M159.64,-111.87C161.36,-101.51 164.85,-88.51 172,-79 175.29,-74.62 179.29,-70.64 183.62,-67.07"/>
<polygon fill="#ff00ff" stroke="#ff00ff" points="191.72,-61.08 186.36,-70.65 187.7,-64.06 183.68,-67.03 183.68,-67.03 183.68,-67.03 187.7,-64.06 181.01,-63.41 191.72,-61.08 191.72,-61.08"/>
<text text-anchor="middle" x="228" y="-82.8" font-family="Times,serif" font-size="14.00"> Threshold Reached </text>
</g>
<!-- Swap&#45;&gt;Pool -->
<g id="edge4" class="edge">
<title>Swap&#45;&gt;Pool</title>
<path fill="none" stroke="#ff00ff" d="M267.93,-61.18C274.39,-66.04 280.23,-71.95 284,-79 323.1,-152.05 289.72,-254.1 269.6,-302.47"/>
<polygon fill="#ff00ff" stroke="#ff00ff" points="265.53,-311.95 265.34,-300.98 267.5,-307.35 269.47,-302.76 269.47,-302.76 269.47,-302.76 267.5,-307.35 273.61,-304.53 265.53,-311.95 265.53,-311.95"/>
</g>
</g>
</svg>
