<?xml version="1.0" encoding="UTF-8" standalone="no"?>
<!DOCTYPE svg PUBLIC "-//W3C//DTD SVG 1.1//EN"
 "http://www.w3.org/Graphics/SVG/1.1/DTD/svg11.dtd">
<!-- Generated by graphviz version 2.43.0 (0)
 -->
<!-- Title: ArchWorkspace Pages: 1 -->
<svg width="337pt" height="139pt"
 viewBox="0.00 0.00 337.00 139.00" xmlns="http://www.w3.org/2000/svg" xmlns:xlink="http://www.w3.org/1999/xlink">
<g id="graph0" class="graph" transform="scale(1 1) rotate(0) translate(4 135)">
<title>ArchWorkspace</title>
<polygon fill="#0d1117" stroke="transparent" points="-4,4 -4,-135 333,-135 333,4 -4,4"/>
<text text-anchor="middle" x="164.5" y="-7.8" font-family="Helvetica,sans-Serif" font-size="14.00" fill="#00f2ff">S1.4: Workspace Directory Hierarchy</text>
<!-- Root -->
<g id="node1" class="node">
<title>Root</title>
<polygon fill="#161b22" stroke="#ffff00" points="207.5,-131 204.5,-135 183.5,-135 180.5,-131 100.5,-131 100.5,-95 207.5,-95 207.5,-131"/>
<text text-anchor="middle" x="154" y="-109.3" font-family="Times,serif" font-size="14.00" fill="#00f2ff">Workspace Root</text>
</g>
<!-- Tools -->
<g id="node2" class="node">
<title>Tools</title>
<polygon fill="#161b22" stroke="#00f2ff" points="54,-59 51,-63 30,-63 27,-59 0,-59 0,-23 54,-23 54,-59"/>
<text text-anchor="middle" x="27" y="-37.3" font-family="Times,serif" font-size="14.00" fill="#00f2ff">/tools</text>
</g>
<!-- Root&#45;&gt;Tools -->
<g id="edge1" class="edge">
<title>Root&#45;&gt;Tools</title>
<path fill="none" stroke="#ff00ff" d="M122.93,-94.88C104.88,-84.93 82.06,-72.35 63.2,-61.95"/>
<polygon fill="#ff00ff" stroke="#ff00ff" points="54.3,-57.05 65.23,-57.93 58.68,-59.46 63.05,-61.87 63.05,-61.87 63.05,-61.87 58.68,-59.46 60.88,-65.81 54.3,-57.05 54.3,-57.05"/>
</g>
<!-- Templates -->
<g id="node3" class="node">
<title>Templates</title>
<polygon fill="#161b22" stroke="#00f2ff" points="145.5,-59 142.5,-63 121.5,-63 118.5,-59 72.5,-59 72.5,-23 145.5,-23 145.5,-59"/>
<text text-anchor="middle" x="109" y="-37.3" font-family="Times,serif" font-size="14.00" fill="#00f2ff">/templates</text>
</g>
<!-- Root&#45;&gt;Templates -->
<g id="edge2" class="edge">
<title>Root&#45;&gt;Templates</title>
<path fill="none" stroke="#ff00ff" d="M142.88,-94.7C137.64,-86.56 131.3,-76.69 125.52,-67.7"/>
<polygon fill="#ff00ff" stroke="#ff00ff" points="120,-59.1 129.19,-65.08 122.7,-63.31 125.4,-67.52 125.4,-67.52 125.4,-67.52 122.7,-63.31 121.62,-69.95 120,-59.1 120,-59.1"/>
</g>
<!-- Diagrams -->
<g id="node4" class="node">
<title>Diagrams</title>
<polygon fill="#161b22" stroke="#00f2ff" points="234.5,-59 231.5,-63 210.5,-63 207.5,-59 163.5,-59 163.5,-23 234.5,-23 234.5,-59"/>
<text text-anchor="middle" x="199" y="-37.3" font-family="Times,serif" font-size="14.00" fill="#00f2ff">/diagrams</text>
</g>
<!-- Root&#45;&gt;Diagrams -->
<g id="edge3" class="edge">
<title>Root&#45;&gt;Diagrams</title>
<path fill="none" stroke="#ff00ff" d="M165.12,-94.7C170.36,-86.56 176.7,-76.69 182.48,-67.7"/>
<polygon fill="#ff00ff" stroke="#ff00ff" points="188,-59.1 186.38,-69.95 185.3,-63.31 182.6,-67.52 182.6,-67.52 182.6,-67.52 185.3,-63.31 178.81,-65.08 188,-59.1 188,-59.1"/>
</g>
<!-- Docs -->
<g id="node5" class="node">
<title>Docs</title>
<polygon fill="#161b22" stroke="#00f2ff" points="323,-59 253,-59 253,-23 329,-23 329,-53 323,-59"/>
<polyline fill="none" stroke="#00f2ff" points="323,-59 323,-53 "/>
<polyline fill="none" stroke="#00f2ff" points="329,-53 323,-53 "/>
<text text-anchor="middle" x="291" y="-37.3" font-family="Times,serif" font-size="14.00" fill="#00f2ff">*.md Logs</text>
</g>
<!-- Root&#45;&gt;Docs -->
<g id="edge4" class="edge">
<title>Root&#45;&gt;Docs</title>
<path fill="none" stroke="#ff00ff" d="M187.51,-94.88C205.84,-85.51 228.74,-73.81 248.33,-63.8"/>
<polygon fill="#ff00ff" stroke="#ff00ff" points="257.36,-59.19 250.5,-67.75 252.9,-61.46 248.45,-63.74 248.45,-63.74 248.45,-63.74 252.9,-61.46 246.4,-59.73 257.36,-59.19 257.36,-59.19"/>
</g>
</g>
</svg>
