<?xml version="1.0" encoding="UTF-8" standalone="no"?>
<!DOCTYPE svg PUBLIC "-//W3C//DTD SVG 1.1//EN"
 "http://www.w3.org/Graphics/SVG/1.1/DTD/svg11.dtd">
<!-- Generated by graphviz version 2.43.0 (0)
 -->
<!-- Title: CoordLoop Pages: 1 -->
<svg width="412pt" height="235pt"
 viewBox="0.00 0.00 411.88 235.00" xmlns="http://www.w3.org/2000/svg" xmlns:xlink="http://www.w3.org/1999/xlink">
<g id="graph0" class="graph" transform="scale(1 1) rotate(0) translate(4 231)">
<title>CoordLoop</title>
<polygon fill="#0d1117" stroke="transparent" points="-4,4 -4,-231 407.88,-231 407.88,4 -4,4"/>
<text text-anchor="middle" x="201.94" y="-7.8" font-family="Helvetica,sans-Serif" font-size="14.00" fill="#00f2ff">S3.4: Sub&#45;Agent Delegation Lifecycle</text>
<!-- Query -->
<g id="node1" class="node">
<title>Query</title>
<polygon fill="#161b22" stroke="#00f2ff" points="220.5,-221 152.5,-221 152.5,-197 220.5,-197 232.5,-209 220.5,-221"/>
<text text-anchor="middle" x="192.5" y="-205.3" font-family="Times,serif" font-size="14.00" fill="#00f2ff">User Query</text>
</g>
<!-- Gemini -->
<g id="node2" class="node">
<title>Gemini</title>
<path fill="#161b22" stroke="#00f2ff" d="M222,-154C222,-154 163,-154 163,-154 157,-154 151,-148 151,-142 151,-142 151,-130 151,-130 151,-124 157,-118 163,-118 163,-118 222,-118 222,-118 228,-118 234,-124 234,-130 234,-130 234,-142 234,-142 234,-148 228,-154 222,-154"/>
<text text-anchor="middle" x="192.5" y="-132.3" font-family="Times,serif" font-size="14.00" fill="#00f2ff">Gemini CLI</text>
</g>
<!-- Query&#45;&gt;Gemini -->
<g id="edge1" class="edge">
<title>Query&#45;&gt;Gemini</title>
<path fill="none" stroke="#ff00ff" d="M192.5,-190.81C192.5,-182.79 192.5,-173.05 192.5,-164.07"/>
<polygon fill="#ff00ff" stroke="#ff00ff" points="192.5,-154.03 197,-164.03 192.5,-159.03 192.5,-164.03 192.5,-164.03 192.5,-164.03 192.5,-159.03 188,-164.03 192.5,-154.03 192.5,-154.03"/>
</g>
<!-- SubAgent -->
<g id="node3" class="node">
<title>SubAgent</title>
<path fill="#161b22" stroke="#ffff00" d="M129,-64C129,-64 12,-64 12,-64 6,-64 0,-58 0,-52 0,-52 0,-38 0,-38 0,-32 6,-26 12,-26 12,-26 129,-26 129,-26 135,-26 141,-32 141,-38 141,-38 141,-52 141,-52 141,-58 135,-64 129,-64"/>
<text text-anchor="middle" x="70.5" y="-48.8" font-family="Times,serif" font-size="14.00" fill="#00f2ff">Specialized Sub&#45;Agent</text>
<text text-anchor="middle" x="70.5" y="-33.8" font-family="Times,serif" font-size="14.00" fill="#00f2ff">(e.g., Generalist)</text>
</g>
<!-- Gemini&#45;&gt;SubAgent -->
<g id="edge2" class="edge">
<title>Gemini&#45;&gt;SubAgent</title>
<path fill="none" stroke="#ff00ff" d="M150.69,-132.07C106.73,-128.01 41.85,-118.93 26.5,-100 18.79,-90.5 24.05,-80.07 33.24,-70.93"/>
<polygon fill="#ff00ff" stroke="#ff00ff" points="40.87,-64.23 36.32,-74.21 37.11,-67.53 33.35,-70.82 33.35,-70.82 33.35,-70.82 37.11,-67.53 30.39,-67.44 40.87,-64.23 40.87,-64.23"/>
<text text-anchor="middle" x="98.5" y="-88.8" font-family="Times,serif" font-size="14.00"> Delegate Complex Work </text>
</g>
<!-- Result -->
<g id="node4" class="node">
<title>Result</title>
<path fill="#161b22" stroke="#00f2ff" d="M399.76,-42.51C399.76,-42.51 399.76,-47.49 399.76,-47.49 399.76,-49.97 397.32,-52.91 394.88,-53.37 394.88,-53.37 348.26,-62.09 348.26,-62.09 345.82,-62.54 340.89,-63 338.4,-63 338.4,-63 268.6,-63 268.6,-63 266.11,-63 261.18,-62.54 258.74,-62.09 258.74,-62.09 212.12,-53.37 212.12,-53.37 209.68,-52.91 207.24,-49.97 207.24,-47.49 207.24,-47.49 207.24,-42.51 207.24,-42.51 207.24,-40.03 209.68,-37.09 212.12,-36.63 212.12,-36.63 258.74,-27.91 258.74,-27.91 261.18,-27.46 266.11,-27 268.6,-27 268.6,-27 338.4,-27 338.4,-27 340.89,-27 345.82,-27.46 348.26,-27.91 348.26,-27.91 394.88,-36.63 394.88,-36.63 397.32,-37.09 399.76,-40.03 399.76,-42.51"/>
<path fill="none" stroke="#00f2ff" d="M403.76,-41.41C403.76,-41.41 403.76,-48.59 403.76,-48.59 403.76,-52.19 400.23,-56.44 396.69,-57.1 396.69,-57.1 350.81,-65.68 350.81,-65.68 347.27,-66.34 340.15,-67 336.56,-67 336.56,-67 270.44,-67 270.44,-67 266.85,-67 259.73,-66.34 256.19,-65.68 256.19,-65.68 210.31,-57.1 210.31,-57.1 206.77,-56.44 203.24,-52.19 203.24,-48.59 203.24,-48.59 203.24,-41.41 203.24,-41.41 203.24,-37.81 206.77,-33.56 210.31,-32.9 210.31,-32.9 256.19,-24.32 256.19,-24.32 259.73,-23.66 266.85,-23 270.44,-23 270.44,-23 336.56,-23 336.56,-23 340.15,-23 347.27,-23.66 350.81,-24.32 350.81,-24.32 396.69,-32.9 396.69,-32.9 400.23,-33.56 403.76,-37.81 403.76,-41.41"/>
<text text-anchor="middle" x="303.5" y="-41.3" font-family="Times,serif" font-size="14.00" fill="#00f2ff">Synthesized Response</text>
</g>
<!-- Gemini&#45;&gt;Result -->
<g id="edge4" class="edge">
<title>Gemini&#45;&gt;Result</title>
<path fill="none" stroke="#ff00ff" d="M234.27,-129.06C253.55,-124.27 275.27,-115.61 289.5,-100 295.25,-93.69 298.7,-85.32 300.75,-77.06"/>
<polygon fill="#ff00ff" stroke="#ff00ff" points="302.62,-67.19 305.18,-77.85 301.69,-72.1 300.76,-77.01 300.76,-77.01 300.76,-77.01 301.69,-72.1 296.34,-76.17 302.62,-67.19 302.62,-67.19"/>
</g>
<!-- SubAgent&#45;&gt;Gemini -->
<g id="edge3" class="edge">
<title>SubAgent&#45;&gt;Gemini</title>
<path fill="none" stroke="#ff00ff" d="M138.28,-64.02C150.01,-69.37 161.35,-76.23 170.5,-85 177.09,-91.32 181.84,-99.96 185.2,-108.28"/>
<polygon fill="#ff00ff" stroke="#ff00ff" points="188.52,-117.75 180.96,-109.81 186.87,-113.03 185.21,-108.31 185.21,-108.31 185.21,-108.31 186.87,-113.03 189.45,-106.82 188.52,-117.75 188.52,-117.75"/>
<text text-anchor="middle" x="228.5" y="-88.8" font-family="Times,serif" font-size="14.00"> Report Findings </text>
</g>
</g>
</svg>
