<?xml version="1.0" encoding="UTF-8" standalone="no"?>
<!DOCTYPE svg PUBLIC "-//W3C//DTD SVG 1.1//EN"
 "http://www.w3.org/Graphics/SVG/1.1/DTD/svg11.dtd">
<!-- Generated by graphviz version 2.43.0 (0)
 -->
<!-- Title: CoordBoard Pages: 1 -->
<svg width="430pt" height="184pt"
 viewBox="0.00 0.00 429.50 184.17" xmlns="http://www.w3.org/2000/svg" xmlns:xlink="http://www.w3.org/1999/xlink">
<g id="graph0" class="graph" transform="scale(1 1) rotate(0) translate(4 180.17)">
<title>CoordBoard</title>
<polygon fill="#0d1117" stroke="transparent" points="-4,4 -4,-180.17 425.5,-180.17 425.5,4 -4,4"/>
<text text-anchor="middle" x="210.75" y="-7.8" font-family="Helvetica,sans-Serif" font-size="14.00" fill="#00f2ff">S3.1: The Coordination Board (COORD.md)</text>
<!-- Gemini -->
<g id="node1" class="node">
<title>Gemini</title>
<path fill="#161b22" stroke="#00f2ff" d="M107,-176.17C107,-176.17 12,-176.17 12,-176.17 6,-176.17 0,-170.17 0,-164.17 0,-164.17 0,-152.17 0,-152.17 0,-146.17 6,-140.17 12,-140.17 12,-140.17 107,-140.17 107,-140.17 113,-140.17 119,-146.17 119,-152.17 119,-152.17 119,-164.17 119,-164.17 119,-170.17 113,-176.17 107,-176.17"/>
<text text-anchor="middle" x="59.5" y="-154.47" font-family="Times,serif" font-size="14.00" fill="#00f2ff">Gemini CLI Agent</text>
</g>
<!-- Board -->
<g id="node4" class="node">
<title>Board</title>
<path fill="#161b22" stroke="#ffff00" d="M302.34,-52.06C302.34,-52.06 302.34,-60.11 302.34,-60.11 302.34,-64.14 298.48,-69.33 294.63,-70.51 294.63,-70.51 253.9,-82.9 253.9,-82.9 250.05,-84.07 242.17,-85.24 238.14,-85.24 238.14,-85.24 174.86,-85.24 174.86,-85.24 170.83,-85.24 162.95,-84.07 159.1,-82.9 159.1,-82.9 118.37,-70.51 118.37,-70.51 114.52,-69.33 110.66,-64.14 110.66,-60.11 110.66,-60.11 110.66,-52.06 110.66,-52.06 110.66,-48.03 114.52,-42.83 118.37,-41.66 118.37,-41.66 159.1,-29.27 159.1,-29.27 162.95,-28.1 170.83,-26.93 174.86,-26.93 174.86,-26.93 238.14,-26.93 238.14,-26.93 242.17,-26.93 250.05,-28.1 253.9,-29.27 253.9,-29.27 294.63,-41.66 294.63,-41.66 298.48,-42.83 302.34,-48.03 302.34,-52.06"/>
<path fill="none" stroke="#ffff00" d="M306.34,-51.07C306.34,-51.07 306.34,-61.1 306.34,-61.1 306.34,-66.12 301.54,-72.59 296.74,-74.05 296.74,-74.05 256.39,-86.33 256.39,-86.33 251.59,-87.79 241.78,-89.25 236.76,-89.25 236.76,-89.25 176.24,-89.25 176.24,-89.25 171.22,-89.25 161.41,-87.79 156.61,-86.33 156.61,-86.33 116.26,-74.05 116.26,-74.05 111.46,-72.59 106.66,-66.12 106.66,-61.1 106.66,-61.1 106.66,-51.07 106.66,-51.07 106.66,-46.05 111.46,-39.57 116.26,-38.11 116.26,-38.11 156.61,-25.84 156.61,-25.84 161.41,-24.38 171.22,-22.92 176.24,-22.92 176.24,-22.92 236.76,-22.92 236.76,-22.92 241.78,-22.92 251.59,-24.38 256.39,-25.84 256.39,-25.84 296.74,-38.11 296.74,-38.11 301.54,-39.57 306.34,-46.05 306.34,-51.07"/>
<text text-anchor="middle" x="206.5" y="-59.88" font-family="Times,serif" font-size="14.00" fill="#00f2ff">COORD.md</text>
<text text-anchor="middle" x="206.5" y="-44.88" font-family="Times,serif" font-size="14.00" fill="#00f2ff">(Shared Consensus)</text>
</g>
<!-- Gemini&#45;&gt;Board -->
<g id="edge1" class="edge">
<title>Gemini&#45;&gt;Board</title>
<path fill="none" stroke="#ff00ff" d="M76.05,-139.77C86.27,-129.57 99.99,-116.83 113.5,-107.17 122.18,-100.96 131.72,-94.99 141.28,-89.47"/>
<polygon fill="#ff00ff" stroke="#ff00ff" points="150.04,-84.53 143.54,-93.36 145.69,-86.98 141.33,-89.44 141.33,-89.44 141.33,-89.44 145.69,-86.98 139.12,-85.52 150.04,-84.53 150.04,-84.53"/>
<text text-anchor="middle" x="158" y="-110.97" font-family="Times,serif" font-size="14.00"> Status Updates </text>
</g>
<!-- Claude -->
<g id="node2" class="node">
<title>Claude</title>
<path fill="#161b22" stroke="#00f2ff" d="M263.5,-176.17C263.5,-176.17 149.5,-176.17 149.5,-176.17 143.5,-176.17 137.5,-170.17 137.5,-164.17 137.5,-164.17 137.5,-152.17 137.5,-152.17 137.5,-146.17 143.5,-140.17 149.5,-140.17 149.5,-140.17 263.5,-140.17 263.5,-140.17 269.5,-140.17 275.5,-146.17 275.5,-152.17 275.5,-152.17 275.5,-164.17 275.5,-164.17 275.5,-170.17 269.5,-176.17 263.5,-176.17"/>
<text text-anchor="middle" x="206.5" y="-154.47" font-family="Times,serif" font-size="14.00" fill="#00f2ff">Claude Frontier Agent</text>
</g>
<!-- Claude&#45;&gt;Board -->
<g id="edge2" class="edge">
<title>Claude&#45;&gt;Board</title>
<path fill="none" stroke="#ff00ff" d="M206.5,-139.73C206.5,-128.56 206.5,-113.54 206.5,-99.37"/>
<polygon fill="#ff00ff" stroke="#ff00ff" points="206.5,-89.27 211,-99.27 206.5,-94.27 206.5,-99.27 206.5,-99.27 206.5,-99.27 206.5,-94.27 202,-99.27 206.5,-89.27 206.5,-89.27"/>
<text text-anchor="middle" x="245" y="-110.97" font-family="Times,serif" font-size="14.00"> Project Logs </text>
</g>
<!-- Human -->
<g id="node3" class="node">
<title>Human</title>
<path fill="#161b22" stroke="#00ff00" d="M409.5,-176.17C409.5,-176.17 305.5,-176.17 305.5,-176.17 299.5,-176.17 293.5,-170.17 293.5,-164.17 293.5,-164.17 293.5,-152.17 293.5,-152.17 293.5,-146.17 299.5,-140.17 305.5,-140.17 305.5,-140.17 409.5,-140.17 409.5,-140.17 415.5,-140.17 421.5,-146.17 421.5,-152.17 421.5,-152.17 421.5,-164.17 421.5,-164.17 421.5,-170.17 415.5,-176.17 409.5,-176.17"/>
<text text-anchor="middle" x="357.5" y="-154.47" font-family="Times,serif" font-size="14.00" fill="#00f2ff">Human Orchestrator</text>
</g>
<!-- Human&#45;&gt;Board -->
<g id="edge3" class="edge">
<title>Human&#45;&gt;Board</title>
<path fill="none" stroke="#ff00ff" d="M334.44,-140.11C320.92,-130.26 303.42,-117.76 287.5,-107.17 280.02,-102.19 272.06,-97.07 264.17,-92.09"/>
<polygon fill="#ff00ff" stroke="#ff00ff" points="255.66,-86.76 266.53,-88.25 259.9,-89.41 264.14,-92.07 264.14,-92.07 264.14,-92.07 259.9,-89.41 261.75,-95.88 255.66,-86.76 255.66,-86.76"/>
<text text-anchor="middle" x="360.5" y="-110.97" font-family="Times,serif" font-size="14.00"> Global Directives </text>
</g>
</g>
</svg>
