<?xml version="1.0" encoding="UTF-8" standalone="no"?>
<!DOCTYPE svg PUBLIC "-//W3C//DTD SVG 1.1//EN"
 "http://www.w3.org/Graphics/SVG/1.1/DTD/svg11.dtd">
<!-- Generated by graphviz version 2.43.0 (0)
 -->
<!-- Title: CoordCollision Pages: 1 -->
<svg width="368pt" height="499pt"
 viewBox="0.00 0.00 367.99 498.98" xmlns="http://www.w3.org/2000/svg" xmlns:xlink="http://www.w3.org/1999/xlink">
<g id="graph0" class="graph" transform="scale(1 1) rotate(0) translate(4 494.98)">
<title>CoordCollision</title>
<polygon fill="#0d1117" stroke="transparent" points="-4,4 -4,-494.98 363.99,-494.98 363.99,4 -4,4"/>
<text text-anchor="middle" x="179.99" y="-7.8" font-family="Helvetica,sans-Serif" font-size="14.00" fill="#00f2ff">S3.3: Collision Avoidance &amp; Safety Protocol</text>
<!-- TaskA -->
<g id="node1" class="node">
<title>TaskA</title>
<path fill="#161b22" stroke="#00f2ff" d="M211.5,-490.98C211.5,-490.98 95.5,-490.98 95.5,-490.98 89.5,-490.98 83.5,-484.98 83.5,-478.98 83.5,-478.98 83.5,-466.98 83.5,-466.98 83.5,-460.98 89.5,-454.98 95.5,-454.98 95.5,-454.98 211.5,-454.98 211.5,-454.98 217.5,-454.98 223.5,-460.98 223.5,-466.98 223.5,-466.98 223.5,-478.98 223.5,-478.98 223.5,-484.98 217.5,-490.98 211.5,-490.98"/>
<text text-anchor="middle" x="153.5" y="-469.28" font-family="Times,serif" font-size="14.00" fill="#00f2ff">Task A (Network Edit)</text>
</g>
<!-- Lock -->
<g id="node3" class="node">
<title>Lock</title>
<path fill="#161b22" stroke="#ff0000" d="M141.58,-416.58C141.58,-416.58 11.92,-401.38 11.92,-401.38 5.96,-400.68 5.96,-399.28 11.92,-398.58 11.92,-398.58 141.58,-383.38 141.58,-383.38 147.54,-382.68 159.46,-382.68 165.42,-383.38 165.42,-383.38 295.08,-398.58 295.08,-398.58 301.04,-399.28 301.04,-400.68 295.08,-401.38 295.08,-401.38 165.42,-416.58 165.42,-416.58 159.46,-417.28 147.54,-417.28 141.58,-416.58"/>
<text text-anchor="middle" x="153.5" y="-396.28" font-family="Times,serif" font-size="14.00" fill="#00f2ff">COORD.md &#39;LOCK&#39; Status</text>
</g>
<!-- TaskA&#45;&gt;Lock -->
<g id="edge1" class="edge">
<title>TaskA&#45;&gt;Lock</title>
<path fill="none" stroke="#ff00ff" d="M153.5,-454.79C153.5,-446.77 153.5,-437.03 153.5,-428.05"/>
<polygon fill="#ff00ff" stroke="#ff00ff" points="153.5,-418.01 158,-428.01 153.5,-423.01 153.5,-428.01 153.5,-428.01 153.5,-428.01 153.5,-423.01 149,-428.01 153.5,-418.01 153.5,-418.01"/>
</g>
<!-- TaskB -->
<g id="node2" class="node">
<title>TaskB</title>
<path fill="#161b22" stroke="#00f2ff" d="M191.5,-59C191.5,-59 63.5,-59 63.5,-59 57.5,-59 51.5,-53 51.5,-47 51.5,-47 51.5,-35 51.5,-35 51.5,-29 57.5,-23 63.5,-23 63.5,-23 191.5,-23 191.5,-23 197.5,-23 203.5,-29 203.5,-35 203.5,-35 203.5,-47 203.5,-47 203.5,-53 197.5,-59 191.5,-59"/>
<text text-anchor="middle" x="127.5" y="-37.3" font-family="Times,serif" font-size="14.00" fill="#00f2ff">Task B (System Reboot)</text>
</g>
<!-- TaskB&#45;&gt;Lock -->
<g id="edge2" class="edge">
<title>TaskB&#45;&gt;Lock</title>
<path fill="none" stroke="#ff00ff" d="M125.82,-59.1C121.8,-104.06 113.19,-229.08 130.5,-330.98 132.94,-345.33 137.94,-360.74 142.65,-373.25"/>
<polygon fill="#ff00ff" stroke="#ff00ff" points="146.32,-382.59 138.48,-374.93 144.49,-377.94 142.67,-373.29 142.67,-373.29 142.67,-373.29 144.49,-377.94 146.86,-371.64 146.32,-382.59 146.32,-382.59"/>
</g>
<!-- Safety -->
<g id="node4" class="node">
<title>Safety</title>
<ellipse fill="#161b22" stroke="#ffff00" cx="249.5" cy="-220.49" rx="110.48" ry="110.48"/>
<text text-anchor="middle" x="249.5" y="-216.79" font-family="Times,serif" font-size="14.00" fill="#00f2ff">Safety Delay / Coordination</text>
</g>
<!-- Lock&#45;&gt;Safety -->
<g id="edge3" class="edge">
<title>Lock&#45;&gt;Safety</title>
<path fill="none" stroke="#ff00ff" d="M162.19,-382.92C169.48,-369.43 180.59,-348.89 192.46,-326.94"/>
<polygon fill="#ff00ff" stroke="#ff00ff" points="197.23,-318.14 196.43,-329.07 194.85,-322.53 192.47,-326.93 192.47,-326.93 192.47,-326.93 194.85,-322.53 188.51,-324.79 197.23,-318.14 197.23,-318.14"/>
<text text-anchor="middle" x="230.5" y="-352.78" font-family="Times,serif" font-size="14.00"> Conflict Detected </text>
</g>
<!-- Safety&#45;&gt;TaskB -->
<g id="edge4" class="edge">
<title>Safety&#45;&gt;TaskB</title>
<path fill="none" stroke="#ff00ff" d="M187.25,-128.93C171.78,-106.43 156.43,-84.08 145.15,-67.69"/>
<polygon fill="#ff00ff" stroke="#ff00ff" points="139.34,-59.22 148.71,-64.91 142.17,-63.34 145,-67.46 145,-67.46 145,-67.46 142.17,-63.34 141.29,-70.01 139.34,-59.22 139.34,-59.22"/>
<text text-anchor="middle" x="225.5" y="-80.8" font-family="Times,serif" font-size="14.00"> Resume After Release </text>
</g>
</g>
</svg>
