<?xml version="1.0" encoding="UTF-8" standalone="no"?>
<!DOCTYPE svg PUBLIC "-//W3C//DTD SVG 1.1//EN"
 "http://www.w3.org/Graphics/SVG/1.1/DTD/svg11.dtd">
<!-- Generated by graphviz version 2.43.0 (0)
 -->
<!-- Title: CoordConsensus Pages: 1 -->
<svg width="268pt" height="322pt"
 viewBox="0.00 0.00 268.00 322.00" xmlns="http://www.w3.org/2000/svg" xmlns:xlink="http://www.w3.org/1999/xlink">
<g id="graph0" class="graph" transform="scale(1 1) rotate(0) translate(4 318)">
<title>CoordConsensus</title>
<polygon fill="#0d1117" stroke="transparent" points="-4,4 -4,-318 264,-318 264,4 -4,4"/>
<text text-anchor="middle" x="130" y="-7.8" font-family="Helvetica,sans-Serif" font-size="14.00" fill="#00f2ff">S3.5: Consensus&#45;Driven Implementation</text>
<!-- Option1 -->
<g id="node1" class="node">
<title>Option1</title>
<path fill="#161b22" stroke="#00f2ff" d="M109.5,-314C109.5,-314 26.5,-314 26.5,-314 20.5,-314 14.5,-308 14.5,-302 14.5,-302 14.5,-290 14.5,-290 14.5,-284 20.5,-278 26.5,-278 26.5,-278 109.5,-278 109.5,-278 115.5,-278 121.5,-284 121.5,-290 121.5,-290 121.5,-302 121.5,-302 121.5,-308 115.5,-314 109.5,-314"/>
<text text-anchor="middle" x="68" y="-292.3" font-family="Times,serif" font-size="14.00" fill="#00f2ff">Proposed Path A</text>
</g>
<!-- HumanReview -->
<g id="node3" class="node">
<title>HumanReview</title>
<path fill="#161b22" stroke="#00ff00" d="M118.13,-239.21C118.13,-239.21 22.39,-224.79 22.39,-224.79 16.45,-223.89 16.45,-222.11 22.39,-221.21 22.39,-221.21 118.13,-206.79 118.13,-206.79 124.07,-205.89 135.93,-205.89 141.87,-206.79 141.87,-206.79 237.61,-221.21 237.61,-221.21 243.55,-222.11 243.55,-223.89 237.61,-224.79 237.61,-224.79 141.87,-239.21 141.87,-239.21 135.93,-240.11 124.07,-240.11 118.13,-239.21"/>
<text text-anchor="middle" x="130" y="-219.3" font-family="Times,serif" font-size="14.00" fill="#00f2ff">Human Review (+1)</text>
</g>
<!-- Option1&#45;&gt;HumanReview -->
<g id="edge1" class="edge">
<title>Option1&#45;&gt;HumanReview</title>
<path fill="none" stroke="#ff00ff" d="M83.01,-277.81C91.15,-268.49 101.32,-256.84 110.12,-246.77"/>
<polygon fill="#ff00ff" stroke="#ff00ff" points="116.81,-239.1 113.63,-249.59 113.52,-242.87 110.24,-246.63 110.24,-246.63 110.24,-246.63 113.52,-242.87 106.85,-243.67 116.81,-239.1 116.81,-239.1"/>
</g>
<!-- Option2 -->
<g id="node2" class="node">
<title>Option2</title>
<path fill="#161b22" stroke="#00f2ff" d="M234.5,-314C234.5,-314 151.5,-314 151.5,-314 145.5,-314 139.5,-308 139.5,-302 139.5,-302 139.5,-290 139.5,-290 139.5,-284 145.5,-278 151.5,-278 151.5,-278 234.5,-278 234.5,-278 240.5,-278 246.5,-284 246.5,-290 246.5,-290 246.5,-302 246.5,-302 246.5,-308 240.5,-314 234.5,-314"/>
<text text-anchor="middle" x="193" y="-292.3" font-family="Times,serif" font-size="14.00" fill="#00f2ff">Proposed Path B</text>
</g>
<!-- Option2&#45;&gt;HumanReview -->
<g id="edge2" class="edge">
<title>Option2&#45;&gt;HumanReview</title>
<path fill="none" stroke="#ff00ff" d="M177.75,-277.81C169.47,-268.49 159.14,-256.84 150.2,-246.77"/>
<polygon fill="#ff00ff" stroke="#ff00ff" points="143.4,-239.1 153.4,-243.59 146.72,-242.84 150.04,-246.58 150.04,-246.58 150.04,-246.58 146.72,-242.84 146.67,-249.57 143.4,-239.1 143.4,-239.1"/>
</g>
<!-- Consensus -->
<g id="node4" class="node">
<title>Consensus</title>
<path fill="#161b22" stroke="#ffff00" d="M211.71,-129.51C211.71,-129.51 211.71,-134.49 211.71,-134.49 211.71,-136.97 209.28,-139.99 206.85,-140.53 206.85,-140.53 168.7,-148.93 168.7,-148.93 166.27,-149.47 161.36,-150 158.87,-150 158.87,-150 101.13,-150 101.13,-150 98.64,-150 93.73,-149.47 91.3,-148.93 91.3,-148.93 53.15,-140.53 53.15,-140.53 50.72,-139.99 48.29,-136.97 48.29,-134.49 48.29,-134.49 48.29,-129.51 48.29,-129.51 48.29,-127.03 50.72,-124.01 53.15,-123.47 53.15,-123.47 91.3,-115.07 91.3,-115.07 93.73,-114.53 98.64,-114 101.13,-114 101.13,-114 158.87,-114 158.87,-114 161.36,-114 166.27,-114.53 168.7,-115.07 168.7,-115.07 206.85,-123.47 206.85,-123.47 209.28,-124.01 211.71,-127.03 211.71,-129.51"/>
<path fill="none" stroke="#ffff00" d="M215.71,-128.44C215.71,-128.44 215.71,-135.56 215.71,-135.56 215.71,-139.11 212.24,-143.43 208.76,-144.2 208.76,-144.2 171.23,-152.47 171.23,-152.47 167.75,-153.23 160.72,-154 157.17,-154 157.17,-154 102.83,-154 102.83,-154 99.28,-154 92.25,-153.23 88.77,-152.47 88.77,-152.47 51.24,-144.2 51.24,-144.2 47.76,-143.43 44.29,-139.11 44.29,-135.56 44.29,-135.56 44.29,-128.44 44.29,-128.44 44.29,-124.89 47.76,-120.57 51.24,-119.8 51.24,-119.8 88.77,-111.53 88.77,-111.53 92.25,-110.77 99.28,-110 102.83,-110 102.83,-110 157.17,-110 157.17,-110 160.72,-110 167.75,-110.77 171.23,-111.53 171.23,-111.53 208.76,-119.8 208.76,-119.8 212.24,-120.57 215.71,-124.89 215.71,-128.44"/>
<text text-anchor="middle" x="130" y="-128.3" font-family="Times,serif" font-size="14.00" fill="#00f2ff">Shared Consensus</text>
</g>
<!-- HumanReview&#45;&gt;Consensus -->
<g id="edge3" class="edge">
<title>HumanReview&#45;&gt;Consensus</title>
<path fill="none" stroke="#ff00ff" d="M130,-204.84C130,-193.44 130,-178.13 130,-164.58"/>
<polygon fill="#ff00ff" stroke="#ff00ff" points="130,-154.19 134.5,-164.19 130,-159.19 130,-164.19 130,-164.19 130,-164.19 130,-159.19 125.5,-164.19 130,-154.19 130,-154.19"/>
<text text-anchor="middle" x="159" y="-175.8" font-family="Times,serif" font-size="14.00"> Selection </text>
</g>
<!-- Execution -->
<g id="node5" class="node">
<title>Execution</title>
<path fill="#161b22" stroke="#00f2ff" d="M153.5,-59C153.5,-59 106.5,-59 106.5,-59 100.5,-59 94.5,-53 94.5,-47 94.5,-47 94.5,-35 94.5,-35 94.5,-29 100.5,-23 106.5,-23 106.5,-23 153.5,-23 153.5,-23 159.5,-23 165.5,-29 165.5,-35 165.5,-35 165.5,-47 165.5,-47 165.5,-53 159.5,-59 153.5,-59"/>
<text text-anchor="middle" x="130" y="-37.3" font-family="Times,serif" font-size="14.00" fill="#00f2ff">Execution</text>
</g>
<!-- Consensus&#45;&gt;Execution -->
<g id="edge4" class="edge">
<title>Consensus&#45;&gt;Execution</title>
<path fill="none" stroke="#ff00ff" d="M130,-109.91C130,-97.78 130,-82.41 130,-69.36"/>
<polygon fill="#ff00ff" stroke="#ff00ff" points="130,-59.07 134.5,-69.07 130,-64.07 130,-69.07 130,-69.07 130,-69.07 130,-64.07 125.5,-69.07 130,-59.07 130,-59.07"/>
<text text-anchor="middle" x="177.5" y="-80.8" font-family="Times,serif" font-size="14.00"> Implementation </text>
</g>
</g>
</svg>
