<?xml version="1.0" encoding="UTF-8" standalone="no"?>
<!DOCTYPE svg PUBLIC "-//W3C//DTD SVG 1.1//EN"
 "http://www.w3.org/Graphics/SVG/1.1/DTD/svg11.dtd">
<!-- Generated by graphviz version 2.43.0 (0)
 -->
<!-- Title: CoordMemory Pages: 1 -->
<svg width="351pt" height="274pt"
 viewBox="0.00 0.00 351.00 273.50" xmlns="http://www.w3.org/2000/svg" xmlns:xlink="http://www.w3.org/1999/xlink">
<g id="graph0" class="graph" transform="scale(1 1) rotate(0) translate(4 269.5)">
<title>CoordMemory</title>
<polygon fill="#0d1117" stroke="transparent" points="-4,4 -4,-269.5 347,-269.5 347,4 -4,4"/>
<text text-anchor="middle" x="171.5" y="-7.8" font-family="Helvetica,sans-Serif" font-size="14.00" fill="#00f2ff">S3.2: Multi&#45;Tiered Memory Hierarchy</text>
<!-- Session -->
<g id="node1" class="node">
<title>Session</title>
<path fill="#161b22" stroke="#00f2ff" d="M212,-265.5C212,-265.5 138,-265.5 138,-265.5 132,-265.5 126,-259.5 126,-253.5 126,-253.5 126,-241.5 126,-241.5 126,-235.5 132,-229.5 138,-229.5 138,-229.5 212,-229.5 212,-229.5 218,-229.5 224,-235.5 224,-241.5 224,-241.5 224,-253.5 224,-253.5 224,-259.5 218,-265.5 212,-265.5"/>
<text text-anchor="middle" x="175" y="-243.8" font-family="Times,serif" font-size="14.00" fill="#00f2ff">Active Session</text>
</g>
<!-- SharedMem -->
<g id="node2" class="node">
<title>SharedMem</title>
<path fill="#161b22" stroke="#ffff00" d="M190,-173.85C190,-176.49 147.42,-178.63 95,-178.63 42.58,-178.63 0,-176.49 0,-173.85 0,-173.85 0,-130.9 0,-130.9 0,-128.26 42.58,-126.12 95,-126.12 147.42,-126.12 190,-128.26 190,-130.9 190,-130.9 190,-173.85 190,-173.85"/>
<path fill="none" stroke="#ffff00" d="M190,-173.85C190,-171.22 147.42,-169.08 95,-169.08 42.58,-169.08 0,-171.22 0,-173.85"/>
<text text-anchor="middle" x="95" y="-156.18" font-family="Times,serif" font-size="14.00" fill="#00f2ff">Shared Memory Tier</text>
<text text-anchor="middle" x="95" y="-141.18" font-family="Times,serif" font-size="14.00" fill="#00f2ff">(GEMINI.md / MEMORY.md)</text>
</g>
<!-- Session&#45;&gt;SharedMem -->
<g id="edge1" class="edge">
<title>Session&#45;&gt;SharedMem</title>
<path fill="none" stroke="#ff00ff" d="M147.12,-229.32C140.03,-224.15 132.79,-218.08 127,-211.5 120.74,-204.39 115.2,-195.85 110.56,-187.53"/>
<polygon fill="#ff00ff" stroke="#ff00ff" points="105.89,-178.67 114.53,-185.42 108.22,-183.09 110.55,-187.51 110.55,-187.51 110.55,-187.51 108.22,-183.09 106.57,-189.61 105.89,-178.67 105.89,-178.67"/>
<text text-anchor="middle" x="169.5" y="-200.3" font-family="Times,serif" font-size="14.00"> Fact Ingestion </text>
</g>
<!-- GlobalMem -->
<g id="node3" class="node">
<title>GlobalMem</title>
<path fill="#161b22" stroke="#00ff00" d="M237.5,-70.6C237.5,-73.24 202.76,-75.38 160,-75.38 117.24,-75.38 82.5,-73.24 82.5,-70.6 82.5,-70.6 82.5,-27.65 82.5,-27.65 82.5,-25.01 117.24,-22.87 160,-22.87 202.76,-22.87 237.5,-25.01 237.5,-27.65 237.5,-27.65 237.5,-70.6 237.5,-70.6"/>
<path fill="none" stroke="#00ff00" d="M237.5,-70.6C237.5,-67.97 202.76,-65.83 160,-65.83 117.24,-65.83 82.5,-67.97 82.5,-70.6"/>
<text text-anchor="middle" x="160" y="-52.92" font-family="Times,serif" font-size="14.00" fill="#00f2ff">Global Personal Memory</text>
<text text-anchor="middle" x="160" y="-37.92" font-family="Times,serif" font-size="14.00" fill="#00f2ff">(~/.gemini/GEMINI.md)</text>
</g>
<!-- SharedMem&#45;&gt;GlobalMem -->
<g id="edge2" class="edge">
<title>SharedMem&#45;&gt;GlobalMem</title>
<path fill="none" stroke="#ff00ff" d="M92.65,-125.96C92.77,-115.25 94.45,-103.02 100,-93.25 102.14,-89.49 104.76,-85.96 107.69,-82.69"/>
<polygon fill="#ff00ff" stroke="#ff00ff" points="115.03,-75.49 111.04,-85.7 111.46,-78.99 107.89,-82.49 107.89,-82.49 107.89,-82.49 111.46,-78.99 104.74,-79.28 115.03,-75.49 115.03,-75.49"/>
<text text-anchor="middle" x="156" y="-97.05" font-family="Times,serif" font-size="14.00"> Cross&#45;Project Sync </text>
</g>
<!-- GlobalMem&#45;&gt;Session -->
<g id="edge3" class="edge">
<title>GlobalMem&#45;&gt;Session</title>
<path fill="none" stroke="#ff00ff" d="M198.74,-75.3C204.11,-80.55 208.86,-86.56 212,-93.25 234.35,-140.82 232.78,-163.23 212,-211.5 210.43,-215.14 208.28,-218.58 205.79,-221.78"/>
<polygon fill="#ff00ff" stroke="#ff00ff" points="199.07,-229.2 202.45,-218.77 202.43,-225.5 205.78,-221.79 205.78,-221.79 205.78,-221.79 202.43,-225.5 209.12,-224.81 199.07,-229.2 199.07,-229.2"/>
<text text-anchor="middle" x="285.5" y="-148.68" font-family="Times,serif" font-size="14.00"> Preference Loading </text>
</g>
</g>
</svg>
