<?xml version="1.0" encoding="UTF-8" standalone="no"?>
<!DOCTYPE svg PUBLIC "-//W3C//DTD SVG 1.1//EN"
 "http://www.w3.org/Graphics/SVG/1.1/DTD/svg11.dtd">
<!-- Generated by graphviz version 2.43.0 (0)
 -->
<!-- Title: EvolScale Pages: 1 -->
<svg width="443pt" height="683pt"
 viewBox="0.00 0.00 442.59 683.32" xmlns="http://www.w3.org/2000/svg" xmlns:xlink="http://www.w3.org/1999/xlink">
<g id="graph0" class="graph" transform="scale(1 1) rotate(0) translate(4 679.32)">
<title>EvolScale</title>
<polygon fill="#0d1117" stroke="transparent" points="-4,4 -4,-679.32 438.59,-679.32 438.59,4 -4,4"/>
<text text-anchor="middle" x="217.3" y="-7.8" font-family="Helvetica,sans-Serif" font-size="14.00" fill="#00f2ff">S5.1: Transfinite Scaling Model</text>
<!-- L1 -->
<g id="node1" class="node">
<title>L1</title>
<path fill="#161b22" stroke="#00f2ff" d="M276.3,-675.32C276.3,-675.32 158.3,-675.32 158.3,-675.32 152.3,-675.32 146.3,-669.32 146.3,-663.32 146.3,-663.32 146.3,-649.32 146.3,-649.32 146.3,-643.32 152.3,-637.32 158.3,-637.32 158.3,-637.32 276.3,-637.32 276.3,-637.32 282.3,-637.32 288.3,-643.32 288.3,-649.32 288.3,-649.32 288.3,-663.32 288.3,-663.32 288.3,-669.32 282.3,-675.32 276.3,-675.32"/>
<text text-anchor="middle" x="217.3" y="-660.12" font-family="Times,serif" font-size="14.00" fill="#00f2ff">Level 1: Local Tooling</text>
<text text-anchor="middle" x="217.3" y="-645.12" font-family="Times,serif" font-size="14.00" fill="#00f2ff">(Scripts/CLI)</text>
</g>
<!-- L2 -->
<g id="node2" class="node">
<title>L2</title>
<path fill="#161b22" stroke="#00f2ff" d="M286.3,-600.32C286.3,-600.32 148.3,-600.32 148.3,-600.32 142.3,-600.32 136.3,-594.32 136.3,-588.32 136.3,-588.32 136.3,-574.32 136.3,-574.32 136.3,-568.32 142.3,-562.32 148.3,-562.32 148.3,-562.32 286.3,-562.32 286.3,-562.32 292.3,-562.32 298.3,-568.32 298.3,-574.32 298.3,-574.32 298.3,-588.32 298.3,-588.32 298.3,-594.32 292.3,-600.32 286.3,-600.32"/>
<text text-anchor="middle" x="217.3" y="-585.12" font-family="Times,serif" font-size="14.00" fill="#00f2ff">Level 2: Intelligent Agents</text>
<text text-anchor="middle" x="217.3" y="-570.12" font-family="Times,serif" font-size="14.00" fill="#00f2ff">(Gemini/Claude)</text>
</g>
<!-- L1&#45;&gt;L2 -->
<g id="edge1" class="edge">
<title>L1&#45;&gt;L2</title>
<path fill="none" stroke="#ff00ff" d="M217.3,-637.28C217.3,-629.21 217.3,-619.5 217.3,-610.5"/>
<polygon fill="#ff00ff" stroke="#ff00ff" points="217.3,-600.41 221.8,-610.41 217.3,-605.41 217.3,-610.41 217.3,-610.41 217.3,-610.41 217.3,-605.41 212.8,-610.41 217.3,-600.41 217.3,-600.41"/>
</g>
<!-- L3 -->
<g id="node3" class="node">
<title>L3</title>
<path fill="#161b22" stroke="#ffff00" d="M292.3,-525.32C292.3,-525.32 142.3,-525.32 142.3,-525.32 136.3,-525.32 130.3,-519.32 130.3,-513.32 130.3,-513.32 130.3,-499.32 130.3,-499.32 130.3,-493.32 136.3,-487.32 142.3,-487.32 142.3,-487.32 292.3,-487.32 292.3,-487.32 298.3,-487.32 304.3,-493.32 304.3,-499.32 304.3,-499.32 304.3,-513.32 304.3,-513.32 304.3,-519.32 298.3,-525.32 292.3,-525.32"/>
<text text-anchor="middle" x="217.3" y="-510.12" font-family="Times,serif" font-size="14.00" fill="#00f2ff">Level 3: Collaborative Hives</text>
<text text-anchor="middle" x="217.3" y="-495.12" font-family="Times,serif" font-size="14.00" fill="#00f2ff">(Multi&#45;Agent Consensus)</text>
</g>
<!-- L2&#45;&gt;L3 -->
<g id="edge2" class="edge">
<title>L2&#45;&gt;L3</title>
<path fill="none" stroke="#ff00ff" d="M217.3,-562.28C217.3,-554.21 217.3,-544.5 217.3,-535.5"/>
<polygon fill="#ff00ff" stroke="#ff00ff" points="217.3,-525.41 221.8,-535.41 217.3,-530.41 217.3,-535.41 217.3,-535.41 217.3,-535.41 217.3,-530.41 212.8,-535.41 217.3,-525.41 217.3,-525.41"/>
</g>
<!-- L4 -->
<g id="node4" class="node">
<title>L4</title>
<path fill="#161b22" stroke="#00ff00" stroke-width="3" d="M422.39,-278.49C422.39,-278.49 280.55,-278.49 280.55,-278.49 274.55,-278.49 266.69,-284.19 264.84,-289.9 264.84,-289.9 221,-425.07 221,-425.07 219.15,-430.78 215.45,-430.78 213.59,-425.07 213.59,-425.07 169.75,-289.9 169.75,-289.9 167.9,-284.19 160.05,-278.49 154.05,-278.49 154.05,-278.49 12.2,-278.49 12.2,-278.49 6.2,-278.49 5.05,-274.96 9.91,-271.42 9.91,-271.42 124.67,-187.9 124.67,-187.9 129.52,-184.37 132.52,-175.13 130.67,-169.42 130.67,-169.42 86.83,-34.25 86.83,-34.25 84.98,-28.55 87.98,-26.37 92.83,-29.9 92.83,-29.9 207.59,-113.43 207.59,-113.43 212.45,-116.96 222.15,-116.96 227,-113.43 227,-113.43 341.77,-29.9 341.77,-29.9 346.62,-26.37 349.62,-28.55 347.77,-34.25 347.77,-34.25 303.92,-169.42 303.92,-169.42 302.07,-175.13 305.07,-184.37 309.92,-187.9 309.92,-187.9 424.69,-271.42 424.69,-271.42 429.54,-274.96 428.39,-278.49 422.39,-278.49"/>
<text text-anchor="middle" x="217.3" y="-233.46" font-family="Times,serif" font-size="14.00" fill="#00f2ff">Level 4: Transfinite Hybrid</text>
<text text-anchor="middle" x="217.3" y="-218.46" font-family="Times,serif" font-size="14.00" fill="#00f2ff">(Human&#45;AI Singularity)</text>
</g>
<!-- L3&#45;&gt;L4 -->
<g id="edge3" class="edge">
<title>L3&#45;&gt;L4</title>
<path fill="none" stroke="#ff00ff" d="M217.3,-487.3C217.3,-477.07 217.3,-463.08 217.3,-446.86"/>
<polygon fill="#ff00ff" stroke="#ff00ff" points="217.3,-436.49 221.8,-446.49 217.3,-441.49 217.3,-446.49 217.3,-446.49 217.3,-446.49 217.3,-441.49 212.8,-446.49 217.3,-436.49 217.3,-436.49"/>
<text text-anchor="middle" x="270.3" y="-458.12" font-family="Times,serif" font-size="14.00"> Recursive Scaling </text>
</g>
</g>
</svg>
