<?xml version="1.0" encoding="UTF-8" standalone="no"?>
<!DOCTYPE svg PUBLIC "-//W3C//DTD SVG 1.1//EN"
 "http://www.w3.org/Graphics/SVG/1.1/DTD/svg11.dtd">
<!-- Generated by graphviz version 2.43.0 (0)
 -->
<!-- Title: EvolFuture Pages: 1 -->
<svg width="370pt" height="219pt"
 viewBox="0.00 0.00 370.00 219.00" xmlns="http://www.w3.org/2000/svg" xmlns:xlink="http://www.w3.org/1999/xlink">
<g id="graph0" class="graph" transform="scale(1 1) rotate(0) translate(4 215)">
<title>EvolFuture</title>
<polygon fill="#0d1117" stroke="transparent" points="-4,4 -4,-215 366,-215 366,4 -4,4"/>
<text text-anchor="middle" x="181" y="-7.8" font-family="Helvetica,sans-Serif" font-size="14.00" fill="#00f2ff">S5.5: Future&#45;State Vision</text>
<!-- Current -->
<g id="node1" class="node">
<title>Current</title>
<path fill="#161b22" stroke="#00f2ff" d="M246.5,-211C246.5,-211 121.5,-211 121.5,-211 115.5,-211 109.5,-205 109.5,-199 109.5,-199 109.5,-187 109.5,-187 109.5,-181 115.5,-175 121.5,-175 121.5,-175 246.5,-175 246.5,-175 252.5,-175 258.5,-181 258.5,-187 258.5,-187 258.5,-199 258.5,-199 258.5,-205 252.5,-211 246.5,-211"/>
<text text-anchor="middle" x="184" y="-189.3" font-family="Times,serif" font-size="14.00" fill="#00f2ff">Hybrid Framework v1.0</text>
</g>
<!-- Expansion -->
<g id="node2" class="node">
<title>Expansion</title>
<path fill="#161b22" stroke="#ffff00" d="M166,-139C166,-139 12,-139 12,-139 6,-139 0,-133 0,-127 0,-127 0,-115 0,-115 0,-109 6,-103 12,-103 12,-103 166,-103 166,-103 172,-103 178,-109 178,-115 178,-115 178,-127 178,-127 178,-133 172,-139 166,-139"/>
<text text-anchor="middle" x="89" y="-117.3" font-family="Times,serif" font-size="14.00" fill="#00f2ff">Continuous Visual Expansion</text>
</g>
<!-- Current&#45;&gt;Expansion -->
<g id="edge1" class="edge">
<title>Current&#45;&gt;Expansion</title>
<path fill="none" stroke="#ff00ff" d="M160.52,-174.7C148.44,-165.8 133.55,-154.82 120.48,-145.2"/>
<polygon fill="#ff00ff" stroke="#ff00ff" points="112.21,-139.1 122.93,-141.41 116.24,-142.07 120.26,-145.04 120.26,-145.04 120.26,-145.04 116.24,-142.07 117.59,-148.66 112.21,-139.1 112.21,-139.1"/>
</g>
<!-- ToolGrowth -->
<g id="node3" class="node">
<title>ToolGrowth</title>
<path fill="#161b22" stroke="#00ff00" d="M350,-139C350,-139 208,-139 208,-139 202,-139 196,-133 196,-127 196,-127 196,-115 196,-115 196,-109 202,-103 208,-103 208,-103 350,-103 350,-103 356,-103 362,-109 362,-115 362,-115 362,-127 362,-127 362,-133 356,-139 350,-139"/>
<text text-anchor="middle" x="279" y="-117.3" font-family="Times,serif" font-size="14.00" fill="#00f2ff">Autonomous Tool Creation</text>
</g>
<!-- Current&#45;&gt;ToolGrowth -->
<g id="edge2" class="edge">
<title>Current&#45;&gt;ToolGrowth</title>
<path fill="none" stroke="#ff00ff" d="M207.48,-174.7C219.56,-165.8 234.45,-154.82 247.52,-145.2"/>
<polygon fill="#ff00ff" stroke="#ff00ff" points="255.79,-139.1 250.41,-148.66 251.76,-142.07 247.74,-145.04 247.74,-145.04 247.74,-145.04 251.76,-142.07 245.07,-141.41 255.79,-139.1 255.79,-139.1"/>
</g>
<!-- Maturity -->
<g id="node4" class="node">
<title>Maturity</title>
<path fill="#161b22" stroke="#00f2ff" stroke-width="4" d="M282.48,-42.51C282.48,-42.51 282.48,-47.49 282.48,-47.49 282.48,-49.97 280.03,-52.9 277.59,-53.35 277.59,-53.35 229.68,-62.11 229.68,-62.11 227.24,-62.55 222.31,-63 219.82,-63 219.82,-63 148.18,-63 148.18,-63 145.69,-63 140.76,-62.55 138.32,-62.11 138.32,-62.11 90.41,-53.35 90.41,-53.35 87.97,-52.9 85.52,-49.97 85.52,-47.49 85.52,-47.49 85.52,-42.51 85.52,-42.51 85.52,-40.03 87.97,-37.1 90.41,-36.65 90.41,-36.65 138.32,-27.89 138.32,-27.89 140.76,-27.45 145.69,-27 148.18,-27 148.18,-27 219.82,-27 219.82,-27 222.31,-27 227.24,-27.45 229.68,-27.89 229.68,-27.89 277.59,-36.65 277.59,-36.65 280.03,-37.1 282.48,-40.03 282.48,-42.51"/>
<path fill="none" stroke="#00f2ff" stroke-width="4" d="M286.48,-41.4C286.48,-41.4 286.48,-48.6 286.48,-48.6 286.48,-52.19 282.94,-56.44 279.4,-57.08 279.4,-57.08 232.23,-65.71 232.23,-65.71 228.69,-66.35 221.56,-67 217.96,-67 217.96,-67 150.04,-67 150.04,-67 146.44,-67 139.31,-66.35 135.77,-65.71 135.77,-65.71 88.6,-57.08 88.6,-57.08 85.06,-56.44 81.52,-52.19 81.52,-48.6 81.52,-48.6 81.52,-41.4 81.52,-41.4 81.52,-37.81 85.06,-33.56 88.6,-32.92 88.6,-32.92 135.77,-24.29 135.77,-24.29 139.31,-23.65 146.44,-23 150.04,-23 150.04,-23 217.96,-23 217.96,-23 221.56,-23 228.69,-23.65 232.23,-24.29 232.23,-24.29 279.4,-32.92 279.4,-32.92 282.94,-33.56 286.48,-37.81 286.48,-41.4"/>
<text text-anchor="middle" x="184" y="-41.3" font-family="Times,serif" font-size="14.00" fill="#00f2ff">Mature Transfinite OS</text>
</g>
<!-- Expansion&#45;&gt;Maturity -->
<g id="edge3" class="edge">
<title>Expansion&#45;&gt;Maturity</title>
<path fill="none" stroke="#ff00ff" d="M111.03,-102.84C122.27,-94.08 136.22,-83.22 148.89,-73.35"/>
<polygon fill="#ff00ff" stroke="#ff00ff" points="157,-67.03 151.88,-76.73 153.05,-70.1 149.11,-73.18 149.11,-73.18 149.11,-73.18 153.05,-70.1 146.34,-69.63 157,-67.03 157,-67.03"/>
</g>
<!-- ToolGrowth&#45;&gt;Maturity -->
<g id="edge4" class="edge">
<title>ToolGrowth&#45;&gt;Maturity</title>
<path fill="none" stroke="#ff00ff" d="M256.97,-102.84C245.73,-94.08 231.78,-83.22 219.11,-73.35"/>
<polygon fill="#ff00ff" stroke="#ff00ff" points="211,-67.03 221.66,-69.63 214.95,-70.1 218.89,-73.18 218.89,-73.18 218.89,-73.18 214.95,-70.1 216.12,-76.73 211,-67.03 211,-67.03"/>
</g>
</g>
</svg>
