<?xml version="1.0" encoding="UTF-8" standalone="no"?>
<!DOCTYPE svg PUBLIC "-//W3C//DTD SVG 1.1//EN"
 "http://www.w3.org/Graphics/SVG/1.1/DTD/svg11.dtd">
<!-- Generated by graphviz version 2.43.0 (0)
 -->
<!-- Title: EvolAugment Pages: 1 -->
<svg width="639pt" height="261pt"
 viewBox="0.00 0.00 638.93 261.00" xmlns="http://www.w3.org/2000/svg" xmlns:xlink="http://www.w3.org/1999/xlink">
<g id="graph0" class="graph" transform="scale(1 1) rotate(0) translate(4 257)">
<title>EvolAugment</title>
<polygon fill="#0d1117" stroke="transparent" points="-4,4 -4,-257 634.93,-257 634.93,4 -4,4"/>
<text text-anchor="middle" x="315.47" y="-7.8" font-family="Helvetica,sans-Serif" font-size="14.00" fill="#00f2ff">S5.2: Recursive Self&#45;Augmentation</text>
<!-- Framework -->
<g id="node1" class="node">
<title>Framework</title>
<path fill="#161b22" stroke="#00f2ff" d="M404.43,-253C404.43,-253 303.43,-253 303.43,-253 297.43,-253 291.43,-247 291.43,-241 291.43,-241 291.43,-229 291.43,-229 291.43,-223 297.43,-217 303.43,-217 303.43,-217 404.43,-217 404.43,-217 410.43,-217 416.43,-223 416.43,-229 416.43,-229 416.43,-241 416.43,-241 416.43,-247 410.43,-253 404.43,-253"/>
<text text-anchor="middle" x="353.93" y="-231.3" font-family="Times,serif" font-size="14.00" fill="#00f2ff">Current Framework</text>
</g>
<!-- NewSkill -->
<g id="node2" class="node">
<title>NewSkill</title>
<path fill="#161b22" stroke="#00ff00" d="M209.8,-180C209.8,-180 57.44,-180 57.44,-180 51.44,-180 42.36,-174.85 39.29,-169.7 39.29,-169.7 6.22,-114.3 6.22,-114.3 3.14,-109.15 6.07,-104 12.07,-104 12.07,-104 164.43,-104 164.43,-104 170.43,-104 179.5,-109.15 182.58,-114.3 182.58,-114.3 215.65,-169.7 215.65,-169.7 218.72,-174.85 215.8,-180 209.8,-180"/>
<text text-anchor="middle" x="110.93" y="-145.8" font-family="Times,serif" font-size="14.00" fill="#00f2ff">New Agent Skill</text>
<text text-anchor="middle" x="110.93" y="-130.8" font-family="Times,serif" font-size="14.00" fill="#00f2ff">(activate_skill)</text>
</g>
<!-- Framework&#45;&gt;NewSkill -->
<g id="edge1" class="edge">
<title>Framework&#45;&gt;NewSkill</title>
<path fill="none" stroke="#ff00ff" d="M308.51,-216.99C283.3,-207.55 250.78,-195.37 219.43,-183.63"/>
<polygon fill="#ff00ff" stroke="#ff00ff" points="209.75,-180 220.69,-179.3 214.43,-181.76 219.11,-183.51 219.11,-183.51 219.11,-183.51 214.43,-181.76 217.53,-187.73 209.75,-180 209.75,-180"/>
</g>
<!-- NewTool -->
<g id="node3" class="node">
<title>NewTool</title>
<path fill="#161b22" stroke="#00f2ff" d="M456.02,-180C456.02,-180 298.53,-180 298.53,-180 292.53,-180 283.39,-174.89 280.25,-169.78 280.25,-169.78 246.13,-114.22 246.13,-114.22 242.99,-109.11 245.85,-104 251.85,-104 251.85,-104 409.33,-104 409.33,-104 415.33,-104 424.47,-109.11 427.61,-114.22 427.61,-114.22 461.74,-169.78 461.74,-169.78 464.88,-174.89 462.02,-180 456.02,-180"/>
<text text-anchor="middle" x="353.93" y="-145.8" font-family="Times,serif" font-size="14.00" fill="#00f2ff">New Utility Tool</text>
<text text-anchor="middle" x="353.93" y="-130.8" font-family="Times,serif" font-size="14.00" fill="#00f2ff">(tools/)</text>
</g>
<!-- Framework&#45;&gt;NewTool -->
<g id="edge2" class="edge">
<title>Framework&#45;&gt;NewTool</title>
<path fill="none" stroke="#ff00ff" d="M353.93,-216.88C353.93,-209.25 353.93,-199.83 353.93,-190.31"/>
<polygon fill="#ff00ff" stroke="#ff00ff" points="353.93,-180.02 358.43,-190.02 353.93,-185.02 353.93,-190.02 353.93,-190.02 353.93,-190.02 353.93,-185.02 349.43,-190.02 353.93,-180.02 353.93,-180.02"/>
</g>
<!-- Augmented -->
<g id="node4" class="node">
<title>Augmented</title>
<path fill="#161b22" stroke="#ffff00" d="M463.01,-42.51C463.01,-42.51 463.01,-47.49 463.01,-47.49 463.01,-49.97 460.56,-52.86 458.11,-53.27 458.11,-53.27 404.02,-62.19 404.02,-62.19 401.57,-62.6 396.63,-63 394.14,-63 394.14,-63 313.72,-63 313.72,-63 311.23,-63 306.3,-62.6 303.85,-62.19 303.85,-62.19 249.76,-53.27 249.76,-53.27 247.3,-52.86 244.85,-49.97 244.85,-47.49 244.85,-47.49 244.85,-42.51 244.85,-42.51 244.85,-40.03 247.3,-37.14 249.76,-36.73 249.76,-36.73 303.85,-27.81 303.85,-27.81 306.3,-27.4 311.23,-27 313.72,-27 313.72,-27 394.14,-27 394.14,-27 396.63,-27 401.57,-27.4 404.02,-27.81 404.02,-27.81 458.11,-36.73 458.11,-36.73 460.56,-37.14 463.01,-40.03 463.01,-42.51"/>
<path fill="none" stroke="#ffff00" d="M467.02,-41.38C467.02,-41.38 467.02,-48.62 467.02,-48.62 467.02,-52.23 463.45,-56.44 459.88,-57.03 459.88,-57.03 406.58,-65.82 406.58,-65.82 403.01,-66.41 395.83,-67 392.21,-67 392.21,-67 315.65,-67 315.65,-67 312.04,-67 304.85,-66.41 301.29,-65.82 301.29,-65.82 247.99,-57.03 247.99,-57.03 244.42,-56.44 240.85,-52.23 240.85,-48.62 240.85,-48.62 240.85,-41.38 240.85,-41.38 240.85,-37.77 244.42,-33.56 247.99,-32.97 247.99,-32.97 301.29,-24.18 301.29,-24.18 304.85,-23.59 312.04,-23 315.65,-23 315.65,-23 392.21,-23 392.21,-23 395.83,-23 403.01,-23.59 406.58,-24.18 406.58,-24.18 459.88,-32.97 459.88,-32.97 463.45,-33.56 467.02,-37.77 467.02,-41.38"/>
<text text-anchor="middle" x="353.93" y="-41.3" font-family="Times,serif" font-size="14.00" fill="#00f2ff">Augmented System State</text>
</g>
<!-- NewSkill&#45;&gt;Augmented -->
<g id="edge3" class="edge">
<title>NewSkill&#45;&gt;Augmented</title>
<path fill="none" stroke="#ff00ff" d="M182.2,-113.14C217.25,-99.44 259.07,-83.09 292.67,-69.95"/>
<polygon fill="#ff00ff" stroke="#ff00ff" points="302.36,-66.16 294.69,-73.99 297.71,-67.98 293.05,-69.8 293.05,-69.8 293.05,-69.8 297.71,-67.98 291.41,-65.61 302.36,-66.16 302.36,-66.16"/>
</g>
<!-- NewTool&#45;&gt;Augmented -->
<g id="edge4" class="edge">
<title>NewTool&#45;&gt;Augmented</title>
<path fill="none" stroke="#ff00ff" d="M353.93,-104C353.93,-95.21 353.93,-85.91 353.93,-77.4"/>
<polygon fill="#ff00ff" stroke="#ff00ff" points="353.93,-67.13 358.43,-77.13 353.93,-72.13 353.93,-77.13 353.93,-77.13 353.93,-77.13 353.93,-72.13 349.43,-77.13 353.93,-67.13 353.93,-67.13"/>
</g>
<!-- Augmented&#45;&gt;Framework -->
<g id="edge5" class="edge">
<title>Augmented&#45;&gt;Framework</title>
<path fill="none" stroke="#ff00ff" stroke-dasharray="5,2" d="M423.47,-63.08C444.25,-71.78 464.73,-84.76 476.93,-104 495.02,-132.53 495.4,-151.72 476.93,-180 465.15,-198.04 445.86,-210.09 426.01,-218.12"/>
<polygon fill="#ff00ff" stroke="#ff00ff" points="416.56,-221.65 424.36,-213.94 421.25,-219.9 425.93,-218.15 425.93,-218.15 425.93,-218.15 421.25,-219.9 427.51,-222.37 416.56,-221.65 416.56,-221.65"/>
<text text-anchor="middle" x="560.93" y="-138.3" font-family="Times,serif" font-size="14.00"> Recursive Improvement </text>
</g>
</g>
</svg>
