<?xml version="1.0" encoding="UTF-8" standalone="no"?>
<!DOCTYPE svg PUBLIC "-//W3C//DTD SVG 1.1//EN"
 "http://www.w3.org/Graphics/SVG/1.1/DTD/svg11.dtd">
<!-- Generated by graphviz version 2.43.0 (0)
 -->
<!-- Title: EvolGodel Pages: 1 -->
<svg width="475pt" height="528pt"
 viewBox="0.00 0.00 474.55 527.71" xmlns="http://www.w3.org/2000/svg" xmlns:xlink="http://www.w3.org/1999/xlink">
<g id="graph0" class="graph" transform="scale(1 1) rotate(0) translate(4 523.71)">
<title>EvolGodel</title>
<polygon fill="#0d1117" stroke="transparent" points="-4,4 -4,-523.71 470.55,-523.71 470.55,4 -4,4"/>
<text text-anchor="middle" x="233.28" y="-7.8" font-family="Helvetica,sans-Serif" font-size="14.00" fill="#00f2ff">S5.3: Overcoming Gödelian Limitations</text>
<!-- Limit -->
<g id="node1" class="node">
<title>Limit</title>
<path fill="#161b22" stroke="#ff0000" d="M353.05,-519.71C353.05,-519.71 186.05,-519.71 186.05,-519.71 180.05,-519.71 174.05,-513.71 174.05,-507.71 174.05,-507.71 174.05,-493.71 174.05,-493.71 174.05,-487.71 180.05,-481.71 186.05,-481.71 186.05,-481.71 353.05,-481.71 353.05,-481.71 359.05,-481.71 365.05,-487.71 365.05,-493.71 365.05,-493.71 365.05,-507.71 365.05,-507.71 365.05,-513.71 359.05,-519.71 353.05,-519.71"/>
<text text-anchor="middle" x="269.55" y="-504.51" font-family="Times,serif" font-size="14.00" fill="#00f2ff">Gödelian Wall</text>
<text text-anchor="middle" x="269.55" y="-489.51" font-family="Times,serif" font-size="14.00" fill="#00f2ff">(Unsolvable in Current System)</text>
</g>
<!-- MetaLeap -->
<g id="node2" class="node">
<title>MetaLeap</title>
<path fill="#161b22" stroke="#00ff00" stroke-width="2" d="M323.16,-308.94C323.16,-308.94 219.12,-308.94 219.12,-308.94 213.12,-308.94 205.26,-314.64 203.41,-320.35 203.41,-320.35 171.27,-419.15 171.27,-419.15 169.41,-424.85 165.7,-424.85 163.84,-419.15 163.84,-419.15 131.7,-320.35 131.7,-320.35 129.84,-314.64 121.99,-308.94 115.99,-308.94 115.99,-308.94 11.95,-308.94 11.95,-308.94 5.95,-308.94 4.8,-305.41 9.66,-301.89 9.66,-301.89 93.82,-240.82 93.82,-240.82 98.68,-237.29 101.68,-228.06 99.82,-222.36 99.82,-222.36 67.68,-123.56 67.68,-123.56 65.82,-117.85 68.82,-115.67 73.68,-119.19 73.68,-119.19 157.84,-180.27 157.84,-180.27 162.7,-183.79 172.41,-183.79 177.27,-180.27 177.27,-180.27 261.43,-119.19 261.43,-119.19 266.29,-115.67 269.29,-117.85 267.43,-123.56 267.43,-123.56 235.29,-222.36 235.29,-222.36 233.43,-228.06 236.43,-237.29 241.29,-240.82 241.29,-240.82 325.45,-301.89 325.45,-301.89 330.31,-305.41 329.16,-308.94 323.16,-308.94"/>
<text text-anchor="middle" x="167.55" y="-275.15" font-family="Times,serif" font-size="14.00" fill="#00f2ff">Human Axiom Shift</text>
<text text-anchor="middle" x="167.55" y="-260.15" font-family="Times,serif" font-size="14.00" fill="#00f2ff">(The +1 Leap)</text>
</g>
<!-- Limit&#45;&gt;MetaLeap -->
<g id="edge1" class="edge">
<title>Limit&#45;&gt;MetaLeap</title>
<path fill="none" stroke="#ff00ff" d="M261.38,-481.49C248.53,-452.84 222.87,-395.65 201.63,-348.3"/>
<polygon fill="#ff00ff" stroke="#ff00ff" points="197.44,-338.98 205.64,-346.26 199.49,-343.54 201.54,-348.1 201.54,-348.1 201.54,-348.1 199.49,-343.54 197.43,-349.94 197.44,-338.98 197.44,-338.98"/>
<text text-anchor="middle" x="289.55" y="-452.51" font-family="Times,serif" font-size="14.00"> Recognition </text>
</g>
<!-- NewSystem -->
<g id="node3" class="node">
<title>NewSystem</title>
<path fill="#161b22" stroke="#00f2ff" d="M336.55,-61C336.55,-61 202.55,-61 202.55,-61 196.55,-61 190.55,-55 190.55,-49 190.55,-49 190.55,-35 190.55,-35 190.55,-29 196.55,-23 202.55,-23 202.55,-23 336.55,-23 336.55,-23 342.55,-23 348.55,-29 348.55,-35 348.55,-35 348.55,-49 348.55,-49 348.55,-55 342.55,-61 336.55,-61"/>
<text text-anchor="middle" x="269.55" y="-45.8" font-family="Times,serif" font-size="14.00" fill="#00f2ff">Expanded Formal System</text>
<text text-anchor="middle" x="269.55" y="-30.8" font-family="Times,serif" font-size="14.00" fill="#00f2ff">(New Logic/Tech)</text>
</g>
<!-- MetaLeap&#45;&gt;NewSystem -->
<g id="edge2" class="edge">
<title>MetaLeap&#45;&gt;NewSystem</title>
<path fill="none" stroke="#ff00ff" d="M222.88,-147.03C235.86,-118.1 248.47,-90 257.3,-70.32"/>
<polygon fill="#ff00ff" stroke="#ff00ff" points="261.44,-61.1 261.45,-72.06 259.39,-65.66 257.34,-70.22 257.34,-70.22 257.34,-70.22 259.39,-65.66 253.24,-68.38 261.44,-61.1 261.44,-61.1"/>
<text text-anchor="middle" x="280.05" y="-82.8" font-family="Times,serif" font-size="14.00"> Creation </text>
</g>
<!-- NewSystem&#45;&gt;Limit -->
<g id="edge3" class="edge">
<title>NewSystem&#45;&gt;Limit</title>
<path fill="none" stroke="#ff00ff" stroke-dasharray="1,5" d="M299.78,-61.25C316.55,-73.29 335.75,-90.75 344.55,-112 398.76,-242.87 372.78,-291.9 344.55,-430.71 341.38,-446.32 341.05,-451.72 330.55,-463.71 326.66,-468.15 322.08,-472.2 317.21,-475.83"/>
<polygon fill="#ff00ff" stroke="#ff00ff" points="308.8,-481.57 314.52,-472.22 312.93,-478.75 317.06,-475.93 317.06,-475.93 317.06,-475.93 312.93,-478.75 319.6,-479.65 308.8,-481.57 308.8,-481.57"/>
<text text-anchor="middle" x="421.05" y="-267.65" font-family="Times,serif" font-size="14.00"> Next Boundary </text>
</g>
</g>
</svg>
