<?xml version="1.0" encoding="UTF-8" standalone="no"?>
<!DOCTYPE svg PUBLIC "-//W3C//DTD SVG 1.1//EN"
 "http://www.w3.org/Graphics/SVG/1.1/DTD/svg11.dtd">
<!-- Generated by graphviz version 2.43.0 (0)
 -->
<!-- Title: EvolKnowledge Pages: 1 -->
<svg width="300pt" height="229pt"
 viewBox="0.00 0.00 300.00 229.00" xmlns="http://www.w3.org/2000/svg" xmlns:xlink="http://www.w3.org/1999/xlink">
<g id="graph0" class="graph" transform="scale(1 1) rotate(0) translate(4 225)">
<title>EvolKnowledge</title>
<polygon fill="#0d1117" stroke="transparent" points="-4,4 -4,-225 296,-225 296,4 -4,4"/>
<text text-anchor="middle" x="146" y="-7.8" font-family="Helvetica,sans-Serif" font-size="14.00" fill="#00f2ff">S5.4: Knowledge Distillation &amp; Persistence</text>
<!-- Session -->
<g id="node1" class="node">
<title>Session</title>
<path fill="#161b22" stroke="#00f2ff" d="M188.5,-221C188.5,-221 90.5,-221 90.5,-221 84.5,-221 78.5,-215 78.5,-209 78.5,-209 78.5,-197 78.5,-197 78.5,-191 84.5,-185 90.5,-185 90.5,-185 188.5,-185 188.5,-185 194.5,-185 200.5,-191 200.5,-197 200.5,-197 200.5,-209 200.5,-209 200.5,-215 194.5,-221 188.5,-221"/>
<text text-anchor="middle" x="139.5" y="-199.3" font-family="Times,serif" font-size="14.00" fill="#00f2ff">Session Experience</text>
</g>
<!-- Extraction -->
<g id="node2" class="node">
<title>Extraction</title>
<path fill="#161b22" stroke="#00f2ff" d="M222.59,-148C222.59,-148 95.32,-148 95.32,-148 89.32,-148 78.92,-143.93 74.52,-139.85 74.52,-139.85 53.22,-120.15 53.22,-120.15 48.82,-116.07 50.41,-112 56.41,-112 56.41,-112 183.68,-112 183.68,-112 189.68,-112 200.08,-116.07 204.48,-120.15 204.48,-120.15 225.78,-139.85 225.78,-139.85 230.18,-143.93 228.59,-148 222.59,-148"/>
<text text-anchor="middle" x="139.5" y="-126.3" font-family="Times,serif" font-size="14.00" fill="#00f2ff">Fact Extraction</text>
</g>
<!-- Session&#45;&gt;Extraction -->
<g id="edge1" class="edge">
<title>Session&#45;&gt;Extraction</title>
<path fill="none" stroke="#ff00ff" d="M139.5,-184.81C139.5,-176.79 139.5,-167.05 139.5,-158.07"/>
<polygon fill="#ff00ff" stroke="#ff00ff" points="139.5,-148.03 144,-158.03 139.5,-153.03 139.5,-158.03 139.5,-158.03 139.5,-158.03 139.5,-153.03 135,-158.03 139.5,-148.03 139.5,-148.03"/>
</g>
<!-- GEMINI_MD -->
<g id="node3" class="node">
<title>GEMINI_MD</title>
<polygon fill="#161b22" stroke="#00ff00" points="119,-61 0,-61 0,-23 125,-23 125,-55 119,-61"/>
<polyline fill="none" stroke="#00ff00" points="119,-61 119,-55 "/>
<polyline fill="none" stroke="#00ff00" points="125,-55 119,-55 "/>
<text text-anchor="middle" x="62.5" y="-45.8" font-family="Times,serif" font-size="14.00" fill="#00f2ff">GEMINI.md</text>
<text text-anchor="middle" x="62.5" y="-30.8" font-family="Times,serif" font-size="14.00" fill="#00f2ff">(Shared Instruction)</text>
</g>
<!-- Extraction&#45;&gt;GEMINI_MD -->
<g id="edge2" class="edge">
<title>Extraction&#45;&gt;GEMINI_MD</title>
<path fill="none" stroke="#ff00ff" d="M123.92,-111.6C112.97,-99.37 98.14,-82.8 85.79,-69.01"/>
<polygon fill="#ff00ff" stroke="#ff00ff" points="78.86,-61.27 88.88,-65.72 82.19,-64.99 85.53,-68.72 85.53,-68.72 85.53,-68.72 82.19,-64.99 82.17,-71.72 78.86,-61.27 78.86,-61.27"/>
<text text-anchor="middle" x="144" y="-82.8" font-family="Times,serif" font-size="14.00"> Convention </text>
</g>
<!-- SOP -->
<g id="node4" class="node">
<title>SOP</title>
<polygon fill="#161b22" stroke="#ffff00" points="286,-61 143,-61 143,-23 292,-23 292,-55 286,-61"/>
<polyline fill="none" stroke="#ffff00" points="286,-61 286,-55 "/>
<polyline fill="none" stroke="#ffff00" points="292,-55 286,-55 "/>
<text text-anchor="middle" x="217.5" y="-45.8" font-family="Times,serif" font-size="14.00" fill="#00f2ff">methodology/SOP.md</text>
<text text-anchor="middle" x="217.5" y="-30.8" font-family="Times,serif" font-size="14.00" fill="#00f2ff">(Workflow Refinement)</text>
</g>
<!-- Extraction&#45;&gt;SOP -->
<g id="edge3" class="edge">
<title>Extraction&#45;&gt;SOP</title>
<path fill="none" stroke="#ff00ff" d="M163.97,-111.73C170.67,-106.44 177.69,-100.32 183.5,-94 190.16,-86.75 196.45,-78.08 201.77,-69.96"/>
<polygon fill="#ff00ff" stroke="#ff00ff" points="207.12,-61.46 205.6,-72.32 204.46,-65.69 201.79,-69.92 201.79,-69.92 201.79,-69.92 204.46,-65.69 197.98,-67.52 207.12,-61.46 207.12,-61.46"/>
<text text-anchor="middle" x="234.5" y="-82.8" font-family="Times,serif" font-size="14.00"> Optimization </text>
</g>
</g>
</svg>
