<?xml version="1.0" encoding="UTF-8" standalone="no"?>
<!DOCTYPE svg PUBLIC "-//W3C//DTD SVG 1.1//EN"
 "http://www.w3.org/Graphics/SVG/1.1/DTD/svg11.dtd">
<!-- Generated by graphviz version 2.43.0 (0)
 -->
<!-- Title: ForenMetrics Pages: 1 -->
<svg width="327pt" height="149pt"
 viewBox="0.00 0.00 327.00 149.00" xmlns="http://www.w3.org/2000/svg" xmlns:xlink="http://www.w3.org/1999/xlink">
<g id="graph0" class="graph" transform="scale(1 1) rotate(0) translate(4 145)">
<title>ForenMetrics</title>
<polygon fill="#0d1117" stroke="transparent" points="-4,4 -4,-145 323,-145 323,4 -4,4"/>
<text text-anchor="middle" x="159.5" y="-7.8" font-family="Helvetica,sans-Serif" font-size="14.00" fill="#00f2ff">S4.2: Performance Metric Mapping</text>
<!-- Duration -->
<g id="node1" class="node">
<title>Duration</title>
<path fill="#161b22" stroke="#00f2ff" d="M85,-140C85,-140 12,-140 12,-140 6,-140 0,-134 0,-128 0,-128 0,-116 0,-116 0,-110 6,-104 12,-104 12,-104 85,-104 85,-104 91,-104 97,-110 97,-116 97,-116 97,-128 97,-128 97,-134 91,-140 85,-140"/>
<text text-anchor="middle" x="48.5" y="-118.3" font-family="Times,serif" font-size="14.00" fill="#00f2ff">Total Duration</text>
</g>
<!-- Efficiency -->
<g id="node4" class="node">
<title>Efficiency</title>
<path fill="#161b22" stroke="#ffff00" d="M278.75,-42.51C278.75,-42.51 278.75,-47.49 278.75,-47.49 278.75,-49.97 276.29,-52.84 273.84,-53.22 273.84,-53.22 216.15,-62.23 216.15,-62.23 213.69,-62.62 208.75,-63 206.27,-63 206.27,-63 120.73,-63 120.73,-63 118.25,-63 113.31,-62.62 110.85,-62.23 110.85,-62.23 53.16,-53.22 53.16,-53.22 50.71,-52.84 48.25,-49.97 48.25,-47.49 48.25,-47.49 48.25,-42.51 48.25,-42.51 48.25,-40.03 50.71,-37.16 53.16,-36.78 53.16,-36.78 110.85,-27.77 110.85,-27.77 113.31,-27.38 118.25,-27 120.73,-27 120.73,-27 206.27,-27 206.27,-27 208.75,-27 213.69,-27.38 216.15,-27.77 216.15,-27.77 273.84,-36.78 273.84,-36.78 276.29,-37.16 278.75,-40.03 278.75,-42.51"/>
<path fill="none" stroke="#ffff00" d="M282.75,-41.37C282.75,-41.37 282.75,-48.63 282.75,-48.63 282.75,-52.25 279.16,-56.44 275.58,-57 275.58,-57 218.71,-65.88 218.71,-65.88 215.13,-66.44 207.92,-67 204.29,-67 204.29,-67 122.71,-67 122.71,-67 119.08,-67 111.87,-66.44 108.29,-65.88 108.29,-65.88 51.42,-57 51.42,-57 47.84,-56.44 44.25,-52.25 44.25,-48.63 44.25,-48.63 44.25,-41.37 44.25,-41.37 44.25,-37.75 47.84,-33.56 51.42,-33 51.42,-33 108.29,-24.12 108.29,-24.12 111.87,-23.56 119.08,-23 122.71,-23 122.71,-23 204.29,-23 204.29,-23 207.92,-23 215.13,-23.56 218.71,-24.12 218.71,-24.12 275.58,-33 275.58,-33 279.16,-33.56 282.75,-37.75 282.75,-41.37"/>
<text text-anchor="middle" x="163.5" y="-41.3" font-family="Times,serif" font-size="14.00" fill="#00f2ff">Technical Efficiency Score</text>
</g>
<!-- Duration&#45;&gt;Efficiency -->
<g id="edge1" class="edge">
<title>Duration&#45;&gt;Efficiency</title>
<path fill="none" stroke="#ff00ff" d="M74.6,-103.98C88.69,-94.79 106.41,-83.24 122.31,-72.86"/>
<polygon fill="#ff00ff" stroke="#ff00ff" points="130.93,-67.24 125.01,-76.48 126.74,-69.98 122.55,-72.71 122.55,-72.71 122.55,-72.71 126.74,-69.98 120.09,-68.94 130.93,-67.24 130.93,-67.24"/>
</g>
<!-- Tokens -->
<g id="node2" class="node">
<title>Tokens</title>
<path fill="#161b22" stroke="#00f2ff" d="M200,-141C200,-141 127,-141 127,-141 121,-141 115,-135 115,-129 115,-129 115,-115 115,-115 115,-109 121,-103 127,-103 127,-103 200,-103 200,-103 206,-103 212,-109 212,-115 212,-115 212,-129 212,-129 212,-135 206,-141 200,-141"/>
<text text-anchor="middle" x="163.5" y="-125.8" font-family="Times,serif" font-size="14.00" fill="#00f2ff">Eval Count</text>
<text text-anchor="middle" x="163.5" y="-110.8" font-family="Times,serif" font-size="14.00" fill="#00f2ff">(Total Tokens)</text>
</g>
<!-- Tokens&#45;&gt;Efficiency -->
<g id="edge2" class="edge">
<title>Tokens&#45;&gt;Efficiency</title>
<path fill="none" stroke="#ff00ff" d="M163.5,-102.84C163.5,-95.2 163.5,-86.08 163.5,-77.41"/>
<polygon fill="#ff00ff" stroke="#ff00ff" points="163.5,-67.18 168,-77.18 163.5,-72.18 163.5,-77.18 163.5,-77.18 163.5,-77.18 163.5,-72.18 159,-77.18 163.5,-67.18 163.5,-67.18"/>
</g>
<!-- Rate -->
<g id="node3" class="node">
<title>Rate</title>
<path fill="#161b22" stroke="#00ff00" stroke-width="2" d="M307,-141C307,-141 242,-141 242,-141 236,-141 230,-135 230,-129 230,-129 230,-115 230,-115 230,-109 236,-103 242,-103 242,-103 307,-103 307,-103 313,-103 319,-109 319,-115 319,-115 319,-129 319,-129 319,-135 313,-141 307,-141"/>
<text text-anchor="middle" x="274.5" y="-125.8" font-family="Times,serif" font-size="14.00" fill="#00f2ff">Eval Rate</text>
<text text-anchor="middle" x="274.5" y="-110.8" font-family="Times,serif" font-size="14.00" fill="#00f2ff">(Tokens/Sec)</text>
</g>
<!-- Rate&#45;&gt;Efficiency -->
<g id="edge3" class="edge">
<title>Rate&#45;&gt;Efficiency</title>
<path fill="none" stroke="#ff00ff" d="M247.63,-102.84C234.33,-93.86 218.01,-82.83 203.29,-72.88"/>
<polygon fill="#ff00ff" stroke="#ff00ff" points="194.84,-67.18 205.65,-69.05 198.99,-69.98 203.13,-72.78 203.13,-72.78 203.13,-72.78 198.99,-69.98 200.61,-76.51 194.84,-67.18 194.84,-67.18"/>
</g>
</g>
</svg>
