<?xml version="1.0" encoding="UTF-8" standalone="no"?>
<!DOCTYPE svg PUBLIC "-//W3C//DTD SVG 1.1//EN"
 "http://www.w3.org/Graphics/SVG/1.1/DTD/svg11.dtd">
<!-- Generated by graphviz version 2.43.0 (0)
 -->
<!-- Title: ForenPipeline Pages: 1 -->
<svg width="237pt" height="300pt"
 viewBox="0.00 0.00 236.71 300.00" xmlns="http://www.w3.org/2000/svg" xmlns:xlink="http://www.w3.org/1999/xlink">
<g id="graph0" class="graph" transform="scale(1 1) rotate(0) translate(4 296)">
<title>ForenPipeline</title>
<polygon fill="#0d1117" stroke="transparent" points="-4,4 -4,-296 232.71,-296 232.71,4 -4,4"/>
<text text-anchor="middle" x="114.35" y="-7.8" font-family="Helvetica,sans-Serif" font-size="14.00" fill="#00f2ff">S4.1: The Forensic Data Pipeline</text>
<!-- Ollama -->
<g id="node1" class="node">
<title>Ollama</title>
<path fill="#161b22" stroke="#00f2ff" d="M151.85,-292C151.85,-292 76.85,-292 76.85,-292 70.85,-292 64.85,-286 64.85,-280 64.85,-280 64.85,-268 64.85,-268 64.85,-262 70.85,-256 76.85,-256 76.85,-256 151.85,-256 151.85,-256 157.85,-256 163.85,-262 163.85,-268 163.85,-268 163.85,-280 163.85,-280 163.85,-286 157.85,-292 151.85,-292"/>
<text text-anchor="middle" x="114.35" y="-270.3" font-family="Times,serif" font-size="14.00" fill="#00f2ff">Ollama Engine</text>
</g>
<!-- Verbose -->
<g id="node2" class="node">
<title>Verbose</title>
<polygon fill="#161b22" stroke="#00f2ff" points="162.85,-219 59.85,-219 59.85,-183 168.85,-183 168.85,-213 162.85,-219"/>
<polyline fill="none" stroke="#00f2ff" points="162.85,-219 162.85,-213 "/>
<polyline fill="none" stroke="#00f2ff" points="168.85,-213 162.85,-213 "/>
<text text-anchor="middle" x="114.35" y="-197.3" font-family="Times,serif" font-size="14.00" fill="#00f2ff">&#45;&#45;verbose Output</text>
</g>
<!-- Ollama&#45;&gt;Verbose -->
<g id="edge1" class="edge">
<title>Ollama&#45;&gt;Verbose</title>
<path fill="none" stroke="#ff00ff" d="M114.35,-255.81C114.35,-247.79 114.35,-238.05 114.35,-229.07"/>
<polygon fill="#ff00ff" stroke="#ff00ff" points="114.35,-219.03 118.85,-229.03 114.35,-224.03 114.35,-229.03 114.35,-229.03 114.35,-229.03 114.35,-224.03 109.85,-229.03 114.35,-219.03 114.35,-219.03"/>
</g>
<!-- Filter -->
<g id="node3" class="node">
<title>Filter</title>
<path fill="#161b22" stroke="#00f2ff" d="M216.56,-146C216.56,-146 58.88,-146 58.88,-146 52.88,-146 42.13,-142.34 37.38,-138.68 37.38,-138.68 9.65,-117.32 9.65,-117.32 4.9,-113.66 6.15,-110 12.15,-110 12.15,-110 169.82,-110 169.82,-110 175.82,-110 186.58,-113.66 191.33,-117.32 191.33,-117.32 219.05,-138.68 219.05,-138.68 223.8,-142.34 222.56,-146 216.56,-146"/>
<text text-anchor="middle" x="114.35" y="-124.3" font-family="Times,serif" font-size="14.00" fill="#00f2ff">Regex / Awk Filter</text>
</g>
<!-- Verbose&#45;&gt;Filter -->
<g id="edge2" class="edge">
<title>Verbose&#45;&gt;Filter</title>
<path fill="none" stroke="#ff00ff" d="M114.35,-182.81C114.35,-174.79 114.35,-165.05 114.35,-156.07"/>
<polygon fill="#ff00ff" stroke="#ff00ff" points="114.35,-146.03 118.85,-156.03 114.35,-151.03 114.35,-156.03 114.35,-156.03 114.35,-156.03 114.35,-151.03 109.85,-156.03 114.35,-146.03 114.35,-146.03"/>
</g>
<!-- JSON -->
<g id="node4" class="node">
<title>JSON</title>
<polygon fill="#161b22" stroke="#ffff00" points="160.85,-59 61.85,-59 61.85,-23 166.85,-23 166.85,-53 160.85,-59"/>
<polyline fill="none" stroke="#ffff00" points="160.85,-59 160.85,-53 "/>
<polyline fill="none" stroke="#ffff00" points="166.85,-53 160.85,-53 "/>
<text text-anchor="middle" x="114.35" y="-37.3" font-family="Times,serif" font-size="14.00" fill="#00f2ff">forensics_*.json</text>
</g>
<!-- Filter&#45;&gt;JSON -->
<g id="edge3" class="edge">
<title>Filter&#45;&gt;JSON</title>
<path fill="none" stroke="#ff00ff" d="M114.35,-109.8C114.35,-98.16 114.35,-82.55 114.35,-69.24"/>
<polygon fill="#ff00ff" stroke="#ff00ff" points="114.35,-59.18 118.85,-69.18 114.35,-64.18 114.35,-69.18 114.35,-69.18 114.35,-69.18 114.35,-64.18 109.85,-69.18 114.35,-59.18 114.35,-59.18"/>
<text text-anchor="middle" x="169.35" y="-80.8" font-family="Times,serif" font-size="14.00"> Structured Metrics </text>
</g>
</g>
</svg>
