<?xml version="1.0" encoding="UTF-8" standalone="no"?>
<!DOCTYPE svg PUBLIC "-//W3C//DTD SVG 1.1//EN"
 "http://www.w3.org/Graphics/SVG/1.1/DTD/svg11.dtd">
<!-- Generated by graphviz version 2.43.0 (0)
 -->
<!-- Title: ForenAudit Pages: 1 -->
<svg width="390pt" height="555pt"
 viewBox="0.00 0.00 390.23 554.53" xmlns="http://www.w3.org/2000/svg" xmlns:xlink="http://www.w3.org/1999/xlink">
<g id="graph0" class="graph" transform="scale(1 1) rotate(0) translate(4 550.53)">
<title>ForenAudit</title>
<polygon fill="#0d1117" stroke="transparent" points="-4,4 -4,-550.53 386.23,-550.53 386.23,4 -4,4"/>
<text text-anchor="middle" x="191.12" y="-7.8" font-family="Helvetica,sans-Serif" font-size="14.00" fill="#00f2ff">S4.3: Session Audit &amp; Reproducibility</text>
<!-- SessionLog -->
<g id="node1" class="node">
<title>SessionLog</title>
<path fill="#161b22" stroke="#00f2ff" d="M229.62,-546.53C229.62,-546.53 152.62,-546.53 152.62,-546.53 146.62,-546.53 140.62,-540.53 140.62,-534.53 140.62,-534.53 140.62,-522.53 140.62,-522.53 140.62,-516.53 146.62,-510.53 152.62,-510.53 152.62,-510.53 229.62,-510.53 229.62,-510.53 235.62,-510.53 241.62,-516.53 241.62,-522.53 241.62,-522.53 241.62,-534.53 241.62,-534.53 241.62,-540.53 235.62,-546.53 229.62,-546.53"/>
<text text-anchor="middle" x="191.12" y="-524.83" font-family="Times,serif" font-size="14.00" fill="#00f2ff">session_log.md</text>
</g>
<!-- AuditTrail -->
<g id="node2" class="node">
<title>AuditTrail</title>
<polygon fill="#161b22" stroke="#ffff00" points="254.12,-473.53 251.12,-477.53 230.12,-477.53 227.12,-473.53 128.12,-473.53 128.12,-437.53 254.12,-437.53 254.12,-473.53"/>
<text text-anchor="middle" x="191.12" y="-451.83" font-family="Times,serif" font-size="14.00" fill="#00f2ff">Forensic Audit Trail</text>
</g>
<!-- SessionLog&#45;&gt;AuditTrail -->
<g id="edge1" class="edge">
<title>SessionLog&#45;&gt;AuditTrail</title>
<path fill="none" stroke="#ff00ff" d="M191.12,-510.34C191.12,-502.31 191.12,-492.57 191.12,-483.59"/>
<polygon fill="#ff00ff" stroke="#ff00ff" points="191.12,-473.55 195.62,-483.55 191.12,-478.55 191.12,-483.55 191.12,-483.55 191.12,-483.55 191.12,-478.55 186.62,-483.55 191.12,-473.55 191.12,-473.55"/>
</g>
<!-- Reproducibility -->
<g id="node3" class="node">
<title>Reproducibility</title>
<path fill="#161b22" stroke="#00ff00" d="M370.35,-247.61C370.35,-247.61 248.26,-247.61 248.26,-247.61 242.26,-247.61 234.4,-253.32 232.55,-259.03 232.55,-259.03 194.83,-374.88 194.83,-374.88 192.97,-380.58 189.26,-380.58 187.4,-374.88 187.4,-374.88 149.69,-259.03 149.69,-259.03 147.83,-253.32 139.97,-247.61 133.97,-247.61 133.97,-247.61 11.88,-247.61 11.88,-247.61 5.88,-247.61 4.74,-244.09 9.6,-240.57 9.6,-240.57 108.36,-168.95 108.36,-168.95 113.21,-165.43 116.21,-156.2 114.36,-150.5 114.36,-150.5 76.64,-34.65 76.64,-34.65 74.79,-28.94 77.79,-26.76 82.64,-30.28 82.64,-30.28 181.4,-101.9 181.4,-101.9 186.26,-105.42 195.97,-105.42 200.83,-101.9 200.83,-101.9 299.59,-30.28 299.59,-30.28 304.45,-26.76 307.45,-28.94 305.59,-34.65 305.59,-34.65 267.88,-150.5 267.88,-150.5 266.02,-156.2 269.02,-165.43 273.88,-168.95 273.88,-168.95 372.63,-240.57 372.63,-240.57 377.49,-244.09 376.35,-247.61 370.35,-247.61"/>
<text text-anchor="middle" x="191.12" y="-201.06" font-family="Times,serif" font-size="14.00" fill="#00f2ff">Session Reproducibility</text>
</g>
<!-- AuditTrail&#45;&gt;Reproducibility -->
<g id="edge2" class="edge">
<title>AuditTrail&#45;&gt;Reproducibility</title>
<path fill="none" stroke="#ff00ff" d="M191.12,-437.43C191.12,-427.29 191.12,-413.28 191.12,-397.11"/>
<polygon fill="#ff00ff" stroke="#ff00ff" points="191.12,-386.78 195.62,-396.78 191.12,-391.78 191.12,-396.78 191.12,-396.78 191.12,-396.78 191.12,-391.78 186.62,-396.78 191.12,-386.78 191.12,-386.78"/>
<text text-anchor="middle" x="265.12" y="-408.33" font-family="Times,serif" font-size="14.00"> Full Context Preservation </text>
</g>
</g>
</svg>
