<?xml version="1.0" encoding="UTF-8" standalone="no"?>
<!DOCTYPE svg PUBLIC "-//W3C//DTD SVG 1.1//EN"
 "http://www.w3.org/Graphics/SVG/1.1/DTD/svg11.dtd">
<!-- Generated by graphviz version 2.43.0 (0)
 -->
<!-- Title: ForenFeedback Pages: 1 -->
<svg width="248pt" height="249pt"
 viewBox="0.00 0.00 248.00 249.00" xmlns="http://www.w3.org/2000/svg" xmlns:xlink="http://www.w3.org/1999/xlink">
<g id="graph0" class="graph" transform="scale(1 1) rotate(0) translate(4 245)">
<title>ForenFeedback</title>
<polygon fill="#0d1117" stroke="transparent" points="-4,4 -4,-245 244,-245 244,4 -4,4"/>
<text text-anchor="middle" x="120" y="-7.8" font-family="Helvetica,sans-Serif" font-size="14.00" fill="#00f2ff">S4.5: Metric&#45;Driven Refinement Loop</text>
<!-- Metrics -->
<g id="node1" class="node">
<title>Metrics</title>
<path fill="#161b22" stroke="#00f2ff" d="M159,-241C159,-241 74,-241 74,-241 68,-241 62,-235 62,-229 62,-229 62,-217 62,-217 62,-211 68,-205 74,-205 74,-205 159,-205 159,-205 165,-205 171,-211 171,-217 171,-217 171,-229 171,-229 171,-235 165,-241 159,-241"/>
<text text-anchor="middle" x="116.5" y="-219.3" font-family="Times,serif" font-size="14.00" fill="#00f2ff">Forensic Metrics</text>
</g>
<!-- Human -->
<g id="node2" class="node">
<title>Human</title>
<path fill="#161b22" stroke="#00ff00" d="M99.5,-154C99.5,-154 21.5,-154 21.5,-154 15.5,-154 9.5,-148 9.5,-142 9.5,-142 9.5,-130 9.5,-130 9.5,-124 15.5,-118 21.5,-118 21.5,-118 99.5,-118 99.5,-118 105.5,-118 111.5,-124 111.5,-130 111.5,-130 111.5,-142 111.5,-142 111.5,-148 105.5,-154 99.5,-154"/>
<text text-anchor="middle" x="60.5" y="-132.3" font-family="Times,serif" font-size="14.00" fill="#00f2ff">Human Auditor</text>
</g>
<!-- Metrics&#45;&gt;Human -->
<g id="edge1" class="edge">
<title>Metrics&#45;&gt;Human</title>
<path fill="none" stroke="#ff00ff" d="M105.17,-204.8C97.2,-192.7 86.39,-176.3 77.41,-162.67"/>
<polygon fill="#ff00ff" stroke="#ff00ff" points="71.82,-154.18 81.07,-160.05 74.57,-158.35 77.32,-162.53 77.32,-162.53 77.32,-162.53 74.57,-158.35 73.56,-165 71.82,-154.18 71.82,-154.18"/>
<text text-anchor="middle" x="115.5" y="-175.8" font-family="Times,serif" font-size="14.00"> Insight </text>
</g>
<!-- Refine -->
<g id="node3" class="node">
<title>Refine</title>
<path fill="#161b22" stroke="#00f2ff" d="M190.96,-42.51C190.96,-42.51 190.96,-47.49 190.96,-47.49 190.96,-49.97 188.52,-52.96 186.09,-53.46 186.09,-53.46 144.59,-62 144.59,-62 142.16,-62.5 137.24,-63 134.76,-63 134.76,-63 72.24,-63 72.24,-63 69.76,-63 64.84,-62.5 62.41,-62 62.41,-62 20.91,-53.46 20.91,-53.46 18.48,-52.96 16.04,-49.97 16.04,-47.49 16.04,-47.49 16.04,-42.51 16.04,-42.51 16.04,-40.03 18.48,-37.04 20.91,-36.54 20.91,-36.54 62.41,-28 62.41,-28 64.84,-27.5 69.76,-27 72.24,-27 72.24,-27 134.76,-27 134.76,-27 137.24,-27 142.16,-27.5 144.59,-28 144.59,-28 186.09,-36.54 186.09,-36.54 188.52,-37.04 190.96,-40.03 190.96,-42.51"/>
<path fill="none" stroke="#00f2ff" d="M194.97,-41.43C194.97,-41.43 194.97,-48.57 194.97,-48.57 194.97,-52.14 191.47,-56.43 187.97,-57.15 187.97,-57.15 147.13,-65.56 147.13,-65.56 143.63,-66.28 136.56,-67 132.99,-67 132.99,-67 74.01,-67 74.01,-67 70.44,-67 63.37,-66.28 59.87,-65.56 59.87,-65.56 19.03,-57.15 19.03,-57.15 15.53,-56.43 12.03,-52.14 12.03,-48.57 12.03,-48.57 12.03,-41.43 12.03,-41.43 12.03,-37.86 15.53,-33.57 19.03,-32.85 19.03,-32.85 59.87,-24.44 59.87,-24.44 63.37,-23.72 70.44,-23 74.01,-23 74.01,-23 132.99,-23 132.99,-23 136.56,-23 143.63,-23.72 147.13,-24.44 147.13,-24.44 187.97,-32.85 187.97,-32.85 191.47,-33.57 194.97,-37.86 194.97,-41.43"/>
<text text-anchor="middle" x="103.5" y="-41.3" font-family="Times,serif" font-size="14.00" fill="#00f2ff">Formal Refinement</text>
</g>
<!-- Human&#45;&gt;Refine -->
<g id="edge2" class="edge">
<title>Human&#45;&gt;Refine</title>
<path fill="none" stroke="#ff00ff" d="M42.97,-117.6C35.33,-107.86 29.37,-95.58 35.5,-85 38.56,-79.72 42.63,-75.09 47.27,-71.05"/>
<polygon fill="#ff00ff" stroke="#ff00ff" points="55.53,-64.79 50.28,-74.42 51.55,-67.81 47.56,-70.83 47.56,-70.83 47.56,-70.83 51.55,-67.81 44.85,-67.24 55.53,-64.79 55.53,-64.79"/>
<text text-anchor="middle" x="97" y="-88.8" font-family="Times,serif" font-size="14.00"> Strategic Adjustment </text>
</g>
<!-- Refine&#45;&gt;Metrics -->
<g id="edge3" class="edge">
<title>Refine&#45;&gt;Metrics</title>
<path fill="none" stroke="#ff00ff" d="M142.73,-66.54C149.09,-71.68 154.79,-77.82 158.5,-85 179.57,-125.77 160.81,-144.92 142.5,-187 141.1,-190.22 139.35,-193.42 137.43,-196.51"/>
<polygon fill="#ff00ff" stroke="#ff00ff" points="131.69,-204.82 133.67,-194.03 134.53,-200.7 137.37,-196.59 137.37,-196.59 137.37,-196.59 134.53,-200.7 141.08,-199.15 131.69,-204.82 131.69,-204.82"/>
<text text-anchor="middle" x="199" y="-132.3" font-family="Times,serif" font-size="14.00"> Validation </text>
</g>
</g>
</svg>
