<?xml version="1.0" encoding="UTF-8" standalone="no"?>
<!DOCTYPE svg PUBLIC "-//W3C//DTD SVG 1.1//EN"
 "http://www.w3.org/Graphics/SVG/1.1/DTD/svg11.dtd">
<!-- Generated by graphviz version 2.43.0 (0)
 -->
<!-- Title: ForenDiagnostic Pages: 1 -->
<svg width="304pt" height="302pt"
 viewBox="0.00 0.00 304.00 302.00" xmlns="http://www.w3.org/2000/svg" xmlns:xlink="http://www.w3.org/1999/xlink">
<g id="graph0" class="graph" transform="scale(1 1) rotate(0) translate(4 298)">
<title>ForenDiagnostic</title>
<polygon fill="#0d1117" stroke="transparent" points="-4,4 -4,-298 300,-298 300,4 -4,4"/>
<text text-anchor="middle" x="148" y="-7.8" font-family="Helvetica,sans-Serif" font-size="14.00" fill="#00f2ff">S4.4: Performance Diagnostics &amp; Optimization</text>
<!-- Failure -->
<g id="node1" class="node">
<title>Failure</title>
<path fill="#161b22" stroke="#ff0000" d="M214.5,-294C214.5,-294 81.5,-294 81.5,-294 75.5,-294 69.5,-288 69.5,-282 69.5,-282 69.5,-270 69.5,-270 69.5,-264 75.5,-258 81.5,-258 81.5,-258 214.5,-258 214.5,-258 220.5,-258 226.5,-264 226.5,-270 226.5,-270 226.5,-282 226.5,-282 226.5,-288 220.5,-294 214.5,-294"/>
<text text-anchor="middle" x="148" y="-272.3" font-family="Times,serif" font-size="14.00" fill="#00f2ff">Performance Degradation</text>
</g>
<!-- Analysis -->
<g id="node2" class="node">
<title>Analysis</title>
<path fill="#161b22" stroke="#00f2ff" d="M136.17,-219C136.17,-219 53.09,-205 53.09,-205 47.17,-204 47.17,-202 53.09,-201 53.09,-201 136.17,-187 136.17,-187 142.08,-186 153.92,-186 159.83,-187 159.83,-187 242.91,-201 242.91,-201 248.83,-202 248.83,-204 242.91,-205 242.91,-205 159.83,-219 159.83,-219 153.92,-220 142.08,-220 136.17,-219"/>
<text text-anchor="middle" x="148" y="-199.3" font-family="Times,serif" font-size="14.00" fill="#00f2ff">Metric Diagnostic</text>
</g>
<!-- Failure&#45;&gt;Analysis -->
<g id="edge1" class="edge">
<title>Failure&#45;&gt;Analysis</title>
<path fill="none" stroke="#ff00ff" d="M148,-257.81C148,-249.79 148,-240.05 148,-231.07"/>
<polygon fill="#ff00ff" stroke="#ff00ff" points="148,-221.03 152.5,-231.03 148,-226.03 148,-231.03 148,-231.03 148,-231.03 148,-226.03 143.5,-231.03 148,-221.03 148,-221.03"/>
</g>
<!-- Resource -->
<g id="node3" class="node">
<title>Resource</title>
<path fill="#161b22" stroke="#ffff00" d="M201.5,-134C201.5,-134 94.5,-134 94.5,-134 88.5,-134 82.5,-128 82.5,-122 82.5,-122 82.5,-108 82.5,-108 82.5,-102 88.5,-96 94.5,-96 94.5,-96 201.5,-96 201.5,-96 207.5,-96 213.5,-102 213.5,-108 213.5,-108 213.5,-122 213.5,-122 213.5,-128 207.5,-134 201.5,-134"/>
<text text-anchor="middle" x="148" y="-118.8" font-family="Times,serif" font-size="14.00" fill="#00f2ff">Resource Contention</text>
<text text-anchor="middle" x="148" y="-103.8" font-family="Times,serif" font-size="14.00" fill="#00f2ff">(VRAM/CPU)</text>
</g>
<!-- Analysis&#45;&gt;Resource -->
<g id="edge2" class="edge">
<title>Analysis&#45;&gt;Resource</title>
<path fill="none" stroke="#ff00ff" d="M148,-184.6C148,-173.06 148,-157.65 148,-144.36"/>
<polygon fill="#ff00ff" stroke="#ff00ff" points="148,-134.27 152.5,-144.27 148,-139.27 148,-144.27 148,-144.27 148,-144.27 148,-139.27 143.5,-144.27 148,-134.27 148,-134.27"/>
<text text-anchor="middle" x="177" y="-155.8" font-family="Times,serif" font-size="14.00"> Correlate </text>
</g>
<!-- Fix -->
<g id="node4" class="node">
<title>Fix</title>
<polygon fill="#161b22" stroke="#00ff00" points="207.5,-53 76.5,-53 76.5,-29 207.5,-29 219.5,-41 207.5,-53"/>
<text text-anchor="middle" x="148" y="-37.3" font-family="Times,serif" font-size="14.00" fill="#00f2ff">Optimization Directive</text>
</g>
<!-- Resource&#45;&gt;Fix -->
<g id="edge3" class="edge">
<title>Resource&#45;&gt;Fix</title>
<path fill="none" stroke="#ff00ff" d="M148,-95.83C148,-87.89 148,-78.41 148,-69.63"/>
<polygon fill="#ff00ff" stroke="#ff00ff" points="148,-59.42 152.5,-69.42 148,-64.42 148,-69.42 148,-69.42 148,-69.42 148,-64.42 143.5,-69.42 148,-59.42 148,-59.42"/>
</g>
</g>
</svg>
