<?xml version="1.0" encoding="UTF-8" standalone="no"?>
<!DOCTYPE svg PUBLIC "-//W3C//DTD SVG 1.1//EN"
 "http://www.w3.org/Graphics/SVG/1.1/DTD/svg11.dtd">
<!-- Generated by graphviz version 2.43.0 (0)
 -->
<!-- Title: SinSteady Pages: 1 -->
<svg width="252pt" height="219pt"
 viewBox="0.00 0.00 252.00 219.00" xmlns="http://www.w3.org/2000/svg" xmlns:xlink="http://www.w3.org/1999/xlink">
<g id="graph0" class="graph" transform="scale(1 1) rotate(0) translate(4 215)">
<title>SinSteady</title>
<polygon fill="#0d1117" stroke="transparent" points="-4,4 -4,-215 248,-215 248,4 -4,4"/>
<text text-anchor="middle" x="122" y="-7.8" font-family="Helvetica,sans-Serif" font-size="14.00" fill="#00f2ff">I.5.5: Transfinite Steady State Monitor</text>
<!-- State -->
<g id="node1" class="node">
<title>State</title>
<path fill="#161b22" stroke="#00f2ff" d="M174,-211C174,-211 70,-211 70,-211 64,-211 58,-205 58,-199 58,-199 58,-187 58,-187 58,-181 64,-175 70,-175 70,-175 174,-175 174,-175 180,-175 186,-181 186,-187 186,-187 186,-199 186,-199 186,-205 180,-211 174,-211"/>
<text text-anchor="middle" x="122" y="-189.3" font-family="Times,serif" font-size="14.00" fill="#00f2ff">System Steady State</text>
</g>
<!-- Monitor -->
<g id="node2" class="node">
<title>Monitor</title>
<path fill="#161b22" stroke="#00ff00" d="M209.88,-114.51C209.88,-114.51 209.88,-119.49 209.88,-119.49 209.88,-121.97 207.44,-124.95 205.01,-125.45 205.01,-125.45 163.27,-134 163.27,-134 160.83,-134.5 155.91,-135 153.43,-135 153.43,-135 90.57,-135 90.57,-135 88.09,-135 83.17,-134.5 80.73,-134 80.73,-134 38.99,-125.45 38.99,-125.45 36.56,-124.95 34.12,-121.97 34.12,-119.49 34.12,-119.49 34.12,-114.51 34.12,-114.51 34.12,-112.03 36.56,-109.05 38.99,-108.55 38.99,-108.55 80.73,-100 80.73,-100 83.17,-99.5 88.09,-99 90.57,-99 90.57,-99 153.43,-99 153.43,-99 155.91,-99 160.83,-99.5 163.27,-100 163.27,-100 205.01,-108.55 205.01,-108.55 207.44,-109.05 209.88,-112.03 209.88,-114.51"/>
<path fill="none" stroke="#00ff00" d="M213.87,-113.43C213.87,-113.43 213.87,-120.57 213.87,-120.57 213.87,-124.15 210.37,-128.44 206.87,-129.15 206.87,-129.15 165.81,-137.57 165.81,-137.57 162.3,-138.28 155.23,-139 151.66,-139 151.66,-139 92.34,-139 92.34,-139 88.77,-139 81.7,-138.28 78.19,-137.57 78.19,-137.57 37.13,-129.15 37.13,-129.15 33.63,-128.44 30.13,-124.15 30.13,-120.57 30.13,-120.57 30.13,-113.43 30.13,-113.43 30.13,-109.85 33.63,-105.56 37.13,-104.85 37.13,-104.85 78.19,-96.43 78.19,-96.43 81.7,-95.72 88.77,-95 92.34,-95 92.34,-95 151.66,-95 151.66,-95 155.23,-95 162.3,-95.72 165.81,-96.43 165.81,-96.43 206.87,-104.85 206.87,-104.85 210.37,-105.56 213.87,-109.85 213.87,-113.43"/>
<text text-anchor="middle" x="122" y="-113.3" font-family="Times,serif" font-size="14.00" fill="#00f2ff">Transfinite Monitor</text>
</g>
<!-- State&#45;&gt;Monitor -->
<g id="edge1" class="edge">
<title>State&#45;&gt;Monitor</title>
<path fill="none" stroke="#ff00ff" d="M122,-174.84C122,-167.16 122,-157.88 122,-149.05"/>
<polygon fill="#ff00ff" stroke="#ff00ff" points="122,-139.03 126.5,-149.03 122,-144.03 122,-149.03 122,-149.03 122,-149.03 122,-144.03 117.5,-149.03 122,-139.03 122,-139.03"/>
</g>
<!-- Health -->
<g id="node3" class="node">
<title>Health</title>
<path fill="#161b22" stroke="#ffff00" d="M197.5,-59C197.5,-59 46.5,-59 46.5,-59 40.5,-59 34.5,-53 34.5,-47 34.5,-47 34.5,-35 34.5,-35 34.5,-29 40.5,-23 46.5,-23 46.5,-23 197.5,-23 197.5,-23 203.5,-23 209.5,-29 209.5,-35 209.5,-35 209.5,-47 209.5,-47 209.5,-53 203.5,-59 197.5,-59"/>
<text text-anchor="middle" x="122" y="-37.3" font-family="Times,serif" font-size="14.00" fill="#00f2ff">Entropy / Alignment Metrics</text>
</g>
<!-- Monitor&#45;&gt;Health -->
<g id="edge2" class="edge">
<title>Monitor&#45;&gt;Health</title>
<path fill="none" stroke="#ff00ff" d="M122,-94.99C122,-87.06 122,-77.91 122,-69.48"/>
<polygon fill="#ff00ff" stroke="#ff00ff" points="122,-59.31 126.5,-69.31 122,-64.31 122,-69.31 122,-69.31 122,-69.31 122,-64.31 117.5,-69.31 122,-59.31 122,-59.31"/>
</g>
</g>
</svg>
