<?xml version="1.0" encoding="UTF-8" standalone="no"?>
<!DOCTYPE svg PUBLIC "-//W3C//DTD SVG 1.1//EN"
 "http://www.w3.org/Graphics/SVG/1.1/DTD/svg11.dtd">
<!-- Generated by graphviz version 2.43.0 (0)
 -->
<!-- Title: ForMetric Pages: 1 -->
<svg width="235pt" height="283pt"
 viewBox="0.00 0.00 235.00 283.00" xmlns="http://www.w3.org/2000/svg" xmlns:xlink="http://www.w3.org/1999/xlink">
<g id="graph0" class="graph" transform="scale(1 1) rotate(0) translate(4 279)">
<title>ForMetric</title>
<polygon fill="#0d1117" stroke="transparent" points="-4,4 -4,-279 231,-279 231,4 -4,4"/>
<text text-anchor="middle" x="113.5" y="-7.8" font-family="Helvetica,sans-Serif" font-size="14.00" fill="#00f2ff">I.3.2: Metric Extraction Architecture</text>
<!-- Log -->
<g id="node1" class="node">
<title>Log</title>
<path fill="#161b22" stroke="#00f2ff" d="M156.5,-275C156.5,-275 70.5,-275 70.5,-275 64.5,-275 58.5,-269 58.5,-263 58.5,-263 58.5,-251 58.5,-251 58.5,-245 64.5,-239 70.5,-239 70.5,-239 156.5,-239 156.5,-239 162.5,-239 168.5,-245 168.5,-251 168.5,-251 168.5,-263 168.5,-263 168.5,-269 162.5,-275 156.5,-275"/>
<text text-anchor="middle" x="113.5" y="-253.3" font-family="Times,serif" font-size="14.00" fill="#00f2ff">Raw Text Output</text>
</g>
<!-- Regex -->
<g id="node2" class="node">
<title>Regex</title>
<path fill="#161b22" stroke="#ffff00" d="M101.7,-200.84C101.7,-200.84 27.1,-187.16 27.1,-187.16 21.2,-186.08 21.2,-183.92 27.1,-182.84 27.1,-182.84 101.7,-169.16 101.7,-169.16 107.6,-168.08 119.4,-168.08 125.3,-169.16 125.3,-169.16 199.9,-182.84 199.9,-182.84 205.8,-183.92 205.8,-186.08 199.9,-187.16 199.9,-187.16 125.3,-200.84 125.3,-200.84 119.4,-201.92 107.6,-201.92 101.7,-200.84"/>
<text text-anchor="middle" x="113.5" y="-181.3" font-family="Times,serif" font-size="14.00" fill="#00f2ff">Grep/Awk Filter</text>
</g>
<!-- Log&#45;&gt;Regex -->
<g id="edge1" class="edge">
<title>Log&#45;&gt;Regex</title>
<path fill="none" stroke="#ff00ff" d="M113.5,-238.7C113.5,-230.98 113.5,-221.71 113.5,-213.11"/>
<polygon fill="#ff00ff" stroke="#ff00ff" points="113.5,-203.1 118,-213.1 113.5,-208.1 113.5,-213.1 113.5,-213.1 113.5,-213.1 113.5,-208.1 109,-213.1 113.5,-203.1 113.5,-203.1"/>
</g>
<!-- Data -->
<g id="node3" class="node">
<title>Data</title>
<path fill="#161b22" stroke="#00ff00" d="M159.5,-131C159.5,-131 67.5,-131 67.5,-131 61.5,-131 55.5,-125 55.5,-119 55.5,-119 55.5,-107 55.5,-107 55.5,-101 61.5,-95 67.5,-95 67.5,-95 159.5,-95 159.5,-95 165.5,-95 171.5,-101 171.5,-107 171.5,-107 171.5,-119 171.5,-119 171.5,-125 165.5,-131 159.5,-131"/>
<text text-anchor="middle" x="113.5" y="-109.3" font-family="Times,serif" font-size="14.00" fill="#00f2ff">Extracted Integers</text>
</g>
<!-- Regex&#45;&gt;Data -->
<g id="edge2" class="edge">
<title>Regex&#45;&gt;Data</title>
<path fill="none" stroke="#ff00ff" d="M113.5,-166.7C113.5,-158.98 113.5,-149.71 113.5,-141.11"/>
<polygon fill="#ff00ff" stroke="#ff00ff" points="113.5,-131.1 118,-141.1 113.5,-136.1 113.5,-141.1 113.5,-141.1 113.5,-141.1 113.5,-136.1 109,-141.1 113.5,-131.1 113.5,-131.1"/>
</g>
<!-- JSON -->
<g id="node4" class="node">
<title>JSON</title>
<polygon fill="#161b22" stroke="#00f2ff" points="153.5,-59 67.5,-59 67.5,-23 159.5,-23 159.5,-53 153.5,-59"/>
<polyline fill="none" stroke="#00f2ff" points="153.5,-59 153.5,-53 "/>
<polyline fill="none" stroke="#00f2ff" points="159.5,-53 153.5,-53 "/>
<text text-anchor="middle" x="113.5" y="-37.3" font-family="Times,serif" font-size="14.00" fill="#00f2ff">forensics.json</text>
</g>
<!-- Data&#45;&gt;JSON -->
<g id="edge3" class="edge">
<title>Data&#45;&gt;JSON</title>
<path fill="none" stroke="#ff00ff" d="M113.5,-94.7C113.5,-86.98 113.5,-77.71 113.5,-69.11"/>
<polygon fill="#ff00ff" stroke="#ff00ff" points="113.5,-59.1 118,-69.1 113.5,-64.1 113.5,-69.1 113.5,-69.1 113.5,-69.1 113.5,-64.1 109,-69.1 113.5,-59.1 113.5,-59.1"/>
</g>
</g>
</svg>
