<?xml version="1.0" encoding="UTF-8" standalone="no"?>
<!DOCTYPE svg PUBLIC "-//W3C//DTD SVG 1.1//EN"
 "http://www.w3.org/Graphics/SVG/1.1/DTD/svg11.dtd">
<!-- Generated by graphviz version 2.43.0 (0)
 -->
<!-- Title: ForArchive Pages: 1 -->
<svg width="196pt" height="322pt"
 viewBox="0.00 0.00 196.00 322.29" xmlns="http://www.w3.org/2000/svg" xmlns:xlink="http://www.w3.org/1999/xlink">
<g id="graph0" class="graph" transform="scale(1 1) rotate(0) translate(4 318.29)">
<title>ForArchive</title>
<polygon fill="#0d1117" stroke="transparent" points="-4,4 -4,-318.29 192,-318.29 192,4 -4,4"/>
<text text-anchor="middle" x="94" y="-7.8" font-family="Helvetica,sans-Serif" font-size="14.00" fill="#00f2ff">I.3.3: Forensic Log Archiving</text>
<!-- Live -->
<g id="node1" class="node">
<title>Live</title>
<path fill="#161b22" stroke="#00f2ff" d="M136,-314.29C136,-314.29 52,-314.29 52,-314.29 46,-314.29 40,-308.29 40,-302.29 40,-302.29 40,-290.29 40,-290.29 40,-284.29 46,-278.29 52,-278.29 52,-278.29 136,-278.29 136,-278.29 142,-278.29 148,-284.29 148,-290.29 148,-290.29 148,-302.29 148,-302.29 148,-308.29 142,-314.29 136,-314.29"/>
<text text-anchor="middle" x="94" y="-292.59" font-family="Times,serif" font-size="14.00" fill="#00f2ff">Active Forensics</text>
</g>
<!-- Scheduler -->
<g id="node2" class="node">
<title>Scheduler</title>
<ellipse fill="#161b22" stroke="#ffff00" cx="94" cy="-175.64" rx="65.79" ry="65.79"/>
<text text-anchor="middle" x="94" y="-171.94" font-family="Times,serif" font-size="14.00" fill="#00f2ff">30&#45;Day Trigger</text>
</g>
<!-- Live&#45;&gt;Scheduler -->
<g id="edge1" class="edge">
<title>Live&#45;&gt;Scheduler</title>
<path fill="none" stroke="#ff00ff" d="M94,-278.04C94,-270.61 94,-261.38 94,-251.53"/>
<polygon fill="#ff00ff" stroke="#ff00ff" points="94,-241.52 98.5,-251.52 94,-246.52 94,-251.52 94,-251.52 94,-251.52 94,-246.52 89.5,-251.52 94,-241.52 94,-241.52"/>
</g>
<!-- Archive -->
<g id="node3" class="node">
<title>Archive</title>
<polygon fill="#161b22" stroke="#00ff00" points="152,-59 149,-63 128,-63 125,-59 36,-59 36,-23 152,-23 152,-59"/>
<text text-anchor="middle" x="94" y="-37.3" font-family="Times,serif" font-size="14.00" fill="#00f2ff">Compressed Store</text>
</g>
<!-- Scheduler&#45;&gt;Archive -->
<g id="edge2" class="edge">
<title>Scheduler&#45;&gt;Archive</title>
<path fill="none" stroke="#ff00ff" d="M94,-109.88C94,-95.48 94,-80.98 94,-69.1"/>
<polygon fill="#ff00ff" stroke="#ff00ff" points="94,-59.01 98.5,-69.01 94,-64.01 94,-69.01 94,-69.01 94,-69.01 94,-64.01 89.5,-69.01 94,-59.01 94,-59.01"/>
<text text-anchor="middle" x="120" y="-80.8" font-family="Times,serif" font-size="14.00"> Migrate </text>
</g>
</g>
</svg>
