<?xml version="1.0" encoding="UTF-8" standalone="no"?>
<!DOCTYPE svg PUBLIC "-//W3C//DTD SVG 1.1//EN"
 "http://www.w3.org/Graphics/SVG/1.1/DTD/svg11.dtd">
<!-- Generated by graphviz version 2.43.0 (0)
 -->
<!-- Title: SinSemantic Pages: 1 -->
<svg width="236pt" height="211pt"
 viewBox="0.00 0.00 236.00 211.00" xmlns="http://www.w3.org/2000/svg" xmlns:xlink="http://www.w3.org/1999/xlink">
<g id="graph0" class="graph" transform="scale(1 1) rotate(0) translate(4 207)">
<title>SinSemantic</title>
<polygon fill="#0d1117" stroke="transparent" points="-4,4 -4,-207 232,-207 232,4 -4,4"/>
<text text-anchor="middle" x="114" y="-7.8" font-family="Helvetica,sans-Serif" font-size="14.00" fill="#00f2ff">I.5.3: Pure Semantic Flow Interface</text>
<!-- Intent -->
<g id="node1" class="node">
<title>Intent</title>
<path fill="#161b22" stroke="#00f2ff" d="M174.5,-203C174.5,-203 53.5,-203 53.5,-203 47.5,-203 41.5,-197 41.5,-191 41.5,-191 41.5,-179 41.5,-179 41.5,-173 47.5,-167 53.5,-167 53.5,-167 174.5,-167 174.5,-167 180.5,-167 186.5,-173 186.5,-179 186.5,-179 186.5,-191 186.5,-191 186.5,-197 180.5,-203 174.5,-203"/>
<text text-anchor="middle" x="114" y="-181.3" font-family="Times,serif" font-size="14.00" fill="#00f2ff">Pure Semantic Thought</text>
</g>
<!-- Stream -->
<g id="node2" class="node">
<title>Stream</title>
<polygon fill="#161b22" stroke="#00ff00" points="164,-125 52,-125 52,-101 164,-101 176,-113 164,-125"/>
<text text-anchor="middle" x="114" y="-109.3" font-family="Times,serif" font-size="14.00" fill="#00f2ff">Intent Stream HUD</text>
</g>
<!-- Intent&#45;&gt;Stream -->
<g id="edge1" class="edge">
<title>Intent&#45;&gt;Stream</title>
<path fill="none" stroke="#ff00ff" d="M114,-166.7C114,-158.98 114,-149.71 114,-141.11"/>
<polygon fill="#ff00ff" stroke="#ff00ff" points="114,-131.1 118.5,-141.1 114,-136.1 114,-141.1 114,-141.1 114,-141.1 114,-136.1 109.5,-141.1 114,-131.1 114,-131.1"/>
</g>
<!-- Manifest -->
<g id="node3" class="node">
<title>Manifest</title>
<path fill="#161b22" stroke="#00f2ff" d="M186,-59C186,-59 42,-59 42,-59 36,-59 30,-53 30,-47 30,-47 30,-35 30,-35 30,-29 36,-23 42,-23 42,-23 186,-23 186,-23 192,-23 198,-29 198,-35 198,-35 198,-47 198,-47 198,-53 192,-59 186,-59"/>
<text text-anchor="middle" x="114" y="-37.3" font-family="Times,serif" font-size="14.00" fill="#00f2ff">Automated Implementation</text>
</g>
<!-- Stream&#45;&gt;Manifest -->
<g id="edge2" class="edge">
<title>Stream&#45;&gt;Manifest</title>
<path fill="none" stroke="#ff00ff" d="M114,-94.7C114,-86.98 114,-77.71 114,-69.11"/>
<polygon fill="#ff00ff" stroke="#ff00ff" points="114,-59.1 118.5,-69.1 114,-64.1 114,-69.1 114,-69.1 114,-69.1 114,-64.1 109.5,-69.1 114,-59.1 114,-59.1"/>
</g>
</g>
</svg>
