<?xml version="1.0" encoding="UTF-8" standalone="no"?>
<!DOCTYPE svg PUBLIC "-//W3C//DTD SVG 1.1//EN"
 "http://www.w3.org/Graphics/SVG/1.1/DTD/svg11.dtd">
<!-- Generated by graphviz version 2.43.0 (0)
 -->
<!-- Title: SubLocal Pages: 1 -->
<svg width="193pt" height="300pt"
 viewBox="0.00 0.00 193.00 300.00" xmlns="http://www.w3.org/2000/svg" xmlns:xlink="http://www.w3.org/1999/xlink">
<g id="graph0" class="graph" transform="scale(1 1) rotate(0) translate(4 296)">
<title>SubLocal</title>
<polygon fill="#0d1117" stroke="transparent" points="-4,4 -4,-296 189,-296 189,4 -4,4"/>
<text text-anchor="middle" x="92.5" y="-7.8" font-family="Helvetica,sans-Serif" font-size="14.00" fill="#00f2ff">I.2.1: Local Model Substrate</text>
<!-- Hardware -->
<g id="node1" class="node">
<title>Hardware</title>
<polygon fill="#161b22" stroke="#ff00ff" points="143,-292 46,-292 42,-288 42,-256 139,-256 143,-260 143,-292"/>
<polyline fill="none" stroke="#ff00ff" points="139,-288 42,-288 "/>
<polyline fill="none" stroke="#ff00ff" points="139,-288 139,-256 "/>
<polyline fill="none" stroke="#ff00ff" points="139,-288 143,-292 "/>
<text text-anchor="middle" x="92.5" y="-270.3" font-family="Times,serif" font-size="14.00" fill="#00f2ff">GPU Hardware</text>
</g>
<!-- Drivers -->
<g id="node2" class="node">
<title>Drivers</title>
<path fill="#161b22" stroke="#00f2ff" d="M153.5,-219C153.5,-219 31.5,-219 31.5,-219 25.5,-219 19.5,-213 19.5,-207 19.5,-207 19.5,-195 19.5,-195 19.5,-189 25.5,-183 31.5,-183 31.5,-183 153.5,-183 153.5,-183 159.5,-183 165.5,-189 165.5,-195 165.5,-195 165.5,-207 165.5,-207 165.5,-213 159.5,-219 153.5,-219"/>
<text text-anchor="middle" x="92.5" y="-197.3" font-family="Times,serif" font-size="14.00" fill="#00f2ff">Nvidia / CUDA Drivers</text>
</g>
<!-- Hardware&#45;&gt;Drivers -->
<g id="edge1" class="edge">
<title>Hardware&#45;&gt;Drivers</title>
<path fill="none" stroke="#ff00ff" d="M92.5,-255.81C92.5,-247.79 92.5,-238.05 92.5,-229.07"/>
<polygon fill="#ff00ff" stroke="#ff00ff" points="92.5,-219.03 97,-229.03 92.5,-224.03 92.5,-229.03 92.5,-229.03 92.5,-229.03 92.5,-224.03 88,-229.03 92.5,-219.03 92.5,-219.03"/>
</g>
<!-- Ollama -->
<g id="node3" class="node">
<title>Ollama</title>
<path fill="#161b22" stroke="#ffff00" d="M134.5,-146C134.5,-146 50.5,-146 50.5,-146 44.5,-146 38.5,-140 38.5,-134 38.5,-134 38.5,-122 38.5,-122 38.5,-116 44.5,-110 50.5,-110 50.5,-110 134.5,-110 134.5,-110 140.5,-110 146.5,-116 146.5,-122 146.5,-122 146.5,-134 146.5,-134 146.5,-140 140.5,-146 134.5,-146"/>
<text text-anchor="middle" x="92.5" y="-124.3" font-family="Times,serif" font-size="14.00" fill="#00f2ff">Ollama Runtime</text>
</g>
<!-- Drivers&#45;&gt;Ollama -->
<g id="edge2" class="edge">
<title>Drivers&#45;&gt;Ollama</title>
<path fill="none" stroke="#ff00ff" d="M92.5,-182.81C92.5,-174.79 92.5,-165.05 92.5,-156.07"/>
<polygon fill="#ff00ff" stroke="#ff00ff" points="92.5,-146.03 97,-156.03 92.5,-151.03 92.5,-156.03 92.5,-156.03 92.5,-156.03 92.5,-151.03 88,-156.03 92.5,-146.03 92.5,-146.03"/>
</g>
<!-- Weights -->
<g id="node4" class="node">
<title>Weights</title>
<path fill="#161b22" stroke="#00f2ff" d="M167.5,-55.73C167.5,-57.53 133.88,-59 92.5,-59 51.12,-59 17.5,-57.53 17.5,-55.73 17.5,-55.73 17.5,-26.27 17.5,-26.27 17.5,-24.47 51.12,-23 92.5,-23 133.88,-23 167.5,-24.47 167.5,-26.27 167.5,-26.27 167.5,-55.73 167.5,-55.73"/>
<path fill="none" stroke="#00f2ff" d="M167.5,-55.73C167.5,-53.92 133.88,-52.45 92.5,-52.45 51.12,-52.45 17.5,-53.92 17.5,-55.73"/>
<text text-anchor="middle" x="92.5" y="-37.3" font-family="Times,serif" font-size="14.00" fill="#00f2ff">Model Weights (GGUF)</text>
</g>
<!-- Ollama&#45;&gt;Weights -->
<g id="edge3" class="edge">
<title>Ollama&#45;&gt;Weights</title>
<path fill="none" stroke="#ff00ff" d="M92.5,-109.8C92.5,-98.16 92.5,-82.55 92.5,-69.24"/>
<polygon fill="#ff00ff" stroke="#ff00ff" points="92.5,-59.18 97,-69.18 92.5,-64.18 92.5,-69.18 92.5,-69.18 92.5,-69.18 92.5,-64.18 88,-69.18 92.5,-59.18 92.5,-59.18"/>
<text text-anchor="middle" x="109.5" y="-80.8" font-family="Times,serif" font-size="14.00"> Map </text>
</g>
</g>
</svg>
