<?xml version="1.0" encoding="UTF-8" standalone="no"?>
<!DOCTYPE svg PUBLIC "-//W3C//DTD SVG 1.1//EN"
 "http://www.w3.org/Graphics/SVG/1.1/DTD/svg11.dtd">
<!-- Generated by graphviz version 2.43.0 (0)
 -->
<!-- Title: AutHouse Pages: 1 -->
<svg width="217pt" height="211pt"
 viewBox="0.00 0.00 217.00 211.00" xmlns="http://www.w3.org/2000/svg" xmlns:xlink="http://www.w3.org/1999/xlink">
<g id="graph0" class="graph" transform="scale(1 1) rotate(0) translate(4 207)">
<title>AutHouse</title>
<polygon fill="#0d1117" stroke="transparent" points="-4,4 -4,-207 213,-207 213,4 -4,4"/>
<text text-anchor="middle" x="104.5" y="-7.8" font-family="Helvetica,sans-Serif" font-size="14.00" fill="#00f2ff">I.4.2: Repository House&#45;keeping</text>
<!-- OldFiles -->
<g id="node1" class="node">
<title>OldFiles</title>
<path fill="#161b22" stroke="#00f2ff" d="M150.5,-203C150.5,-203 58.5,-203 58.5,-203 52.5,-203 46.5,-197 46.5,-191 46.5,-191 46.5,-179 46.5,-179 46.5,-173 52.5,-167 58.5,-167 58.5,-167 150.5,-167 150.5,-167 156.5,-167 162.5,-173 162.5,-179 162.5,-179 162.5,-191 162.5,-191 162.5,-197 156.5,-203 150.5,-203"/>
<text text-anchor="middle" x="104.5" y="-181.3" font-family="Times,serif" font-size="14.00" fill="#00f2ff">Legacy Tmp Files</text>
</g>
<!-- Cron -->
<g id="node2" class="node">
<title>Cron</title>
<path fill="#161b22" stroke="#ffff00" d="M153,-131C153,-131 56,-131 56,-131 50,-131 44,-125 44,-119 44,-119 44,-107 44,-107 44,-101 50,-95 56,-95 56,-95 153,-95 153,-95 159,-95 165,-101 165,-107 165,-107 165,-119 165,-119 165,-125 159,-131 153,-131"/>
<text text-anchor="middle" x="104.5" y="-109.3" font-family="Times,serif" font-size="14.00" fill="#00f2ff">House&#45;keeping Job</text>
</g>
<!-- OldFiles&#45;&gt;Cron -->
<g id="edge1" class="edge">
<title>OldFiles&#45;&gt;Cron</title>
<path fill="none" stroke="#ff00ff" d="M104.5,-166.7C104.5,-158.98 104.5,-149.71 104.5,-141.11"/>
<polygon fill="#ff00ff" stroke="#ff00ff" points="104.5,-131.1 109,-141.1 104.5,-136.1 104.5,-141.1 104.5,-141.1 104.5,-141.1 104.5,-136.1 100,-141.1 104.5,-131.1 104.5,-131.1"/>
</g>
<!-- Clean -->
<g id="node3" class="node">
<title>Clean</title>
<path fill="#161b22" stroke="#00ff00" d="M165.5,-59C165.5,-59 43.5,-59 43.5,-59 37.5,-59 31.5,-53 31.5,-47 31.5,-47 31.5,-35 31.5,-35 31.5,-29 37.5,-23 43.5,-23 43.5,-23 165.5,-23 165.5,-23 171.5,-23 177.5,-29 177.5,-35 177.5,-35 177.5,-47 177.5,-47 177.5,-53 171.5,-59 165.5,-59"/>
<text text-anchor="middle" x="104.5" y="-37.3" font-family="Times,serif" font-size="14.00" fill="#00f2ff">Workspace Sanitization</text>
</g>
<!-- Cron&#45;&gt;Clean -->
<g id="edge2" class="edge">
<title>Cron&#45;&gt;Clean</title>
<path fill="none" stroke="#ff00ff" d="M104.5,-94.7C104.5,-86.98 104.5,-77.71 104.5,-69.11"/>
<polygon fill="#ff00ff" stroke="#ff00ff" points="104.5,-59.1 109,-69.1 104.5,-64.1 104.5,-69.1 104.5,-69.1 104.5,-69.1 104.5,-64.1 100,-69.1 104.5,-59.1 104.5,-59.1"/>
</g>
</g>
</svg>
