<?xml version="1.0" encoding="UTF-8" standalone="no"?>
<!DOCTYPE svg PUBLIC "-//W3C//DTD SVG 1.1//EN"
 "http://www.w3.org/Graphics/SVG/1.1/DTD/svg11.dtd">
<!-- Generated by graphviz version 2.43.0 (0)
 -->
<!-- Title: AutSkill Pages: 1 -->
<svg width="192pt" height="291pt"
 viewBox="0.00 0.00 192.00 291.00" xmlns="http://www.w3.org/2000/svg" xmlns:xlink="http://www.w3.org/1999/xlink">
<g id="graph0" class="graph" transform="scale(1 1) rotate(0) translate(4 287)">
<title>AutSkill</title>
<polygon fill="#0d1117" stroke="transparent" points="-4,4 -4,-287 188,-287 188,4 -4,4"/>
<text text-anchor="middle" x="92" y="-7.8" font-family="Helvetica,sans-Serif" font-size="14.00" fill="#00f2ff">I.4.3: Skill Activation Trigger</text>
<!-- Trigger -->
<g id="node1" class="node">
<title>Trigger</title>
<polygon fill="#161b22" stroke="#00f2ff" points="135.5,-277 36.5,-277 36.5,-253 135.5,-253 147.5,-265 135.5,-277"/>
<text text-anchor="middle" x="92" y="-261.3" font-family="Times,serif" font-size="14.00" fill="#00f2ff">Human Directive</text>
</g>
<!-- Command -->
<g id="node2" class="node">
<title>Command</title>
<path fill="#161b22" stroke="#00ff00" d="M124.5,-211C124.5,-211 59.5,-211 59.5,-211 53.5,-211 47.5,-205 47.5,-199 47.5,-199 47.5,-187 47.5,-187 47.5,-181 53.5,-175 59.5,-175 59.5,-175 124.5,-175 124.5,-175 130.5,-175 136.5,-181 136.5,-187 136.5,-187 136.5,-199 136.5,-199 136.5,-205 130.5,-211 124.5,-211"/>
<text text-anchor="middle" x="92" y="-189.3" font-family="Times,serif" font-size="14.00" fill="#00f2ff">activate_skill</text>
</g>
<!-- Trigger&#45;&gt;Command -->
<g id="edge1" class="edge">
<title>Trigger&#45;&gt;Command</title>
<path fill="none" stroke="#ff00ff" d="M92,-246.7C92,-238.98 92,-229.71 92,-221.11"/>
<polygon fill="#ff00ff" stroke="#ff00ff" points="92,-211.1 96.5,-221.1 92,-216.1 92,-221.1 92,-221.1 92,-221.1 92,-216.1 87.5,-221.1 92,-211.1 92,-211.1"/>
</g>
<!-- Response -->
<g id="node3" class="node">
<title>Response</title>
<polygon fill="#161b22" stroke="#00f2ff" points="144,-139 34,-139 34,-103 150,-103 150,-133 144,-139"/>
<polyline fill="none" stroke="#00f2ff" points="144,-139 144,-133 "/>
<polyline fill="none" stroke="#00f2ff" points="150,-133 144,-133 "/>
<text text-anchor="middle" x="92" y="-117.3" font-family="Times,serif" font-size="14.00" fill="#00f2ff">Injected Guidance</text>
</g>
<!-- Command&#45;&gt;Response -->
<g id="edge2" class="edge">
<title>Command&#45;&gt;Response</title>
<path fill="none" stroke="#ff00ff" d="M92,-174.7C92,-166.98 92,-157.71 92,-149.11"/>
<polygon fill="#ff00ff" stroke="#ff00ff" points="92,-139.1 96.5,-149.1 92,-144.1 92,-149.1 92,-149.1 92,-149.1 92,-144.1 87.5,-149.1 92,-139.1 92,-139.1"/>
</g>
<!-- Power -->
<g id="node4" class="node">
<title>Power</title>
<path fill="#161b22" stroke="#ffff00" d="M173.71,-42.51C173.71,-42.51 173.71,-47.49 173.71,-47.49 173.71,-49.97 171.28,-52.99 168.85,-53.53 168.85,-53.53 130.7,-61.93 130.7,-61.93 128.27,-62.47 123.36,-63 120.87,-63 120.87,-63 63.13,-63 63.13,-63 60.64,-63 55.73,-62.47 53.3,-61.93 53.3,-61.93 15.15,-53.53 15.15,-53.53 12.72,-52.99 10.29,-49.97 10.29,-47.49 10.29,-47.49 10.29,-42.51 10.29,-42.51 10.29,-40.03 12.72,-37.01 15.15,-36.47 15.15,-36.47 53.3,-28.07 53.3,-28.07 55.73,-27.53 60.64,-27 63.13,-27 63.13,-27 120.87,-27 120.87,-27 123.36,-27 128.27,-27.53 130.7,-28.07 130.7,-28.07 168.85,-36.47 168.85,-36.47 171.28,-37.01 173.71,-40.03 173.71,-42.51"/>
<path fill="none" stroke="#ffff00" d="M177.71,-41.44C177.71,-41.44 177.71,-48.56 177.71,-48.56 177.71,-52.11 174.24,-56.43 170.76,-57.2 170.76,-57.2 133.23,-65.47 133.23,-65.47 129.75,-66.23 122.72,-67 119.17,-67 119.17,-67 64.83,-67 64.83,-67 61.28,-67 54.25,-66.23 50.77,-65.47 50.77,-65.47 13.24,-57.2 13.24,-57.2 9.76,-56.43 6.29,-52.11 6.29,-48.56 6.29,-48.56 6.29,-41.44 6.29,-41.44 6.29,-37.89 9.76,-33.57 13.24,-32.8 13.24,-32.8 50.77,-24.53 50.77,-24.53 54.25,-23.77 61.28,-23 64.83,-23 64.83,-23 119.17,-23 119.17,-23 122.72,-23 129.75,-23.77 133.23,-24.53 133.23,-24.53 170.76,-32.8 170.76,-32.8 174.24,-33.57 177.71,-37.89 177.71,-41.44"/>
<text text-anchor="middle" x="92" y="-41.3" font-family="Times,serif" font-size="14.00" fill="#00f2ff">Augmented Agent</text>
</g>
<!-- Response&#45;&gt;Power -->
<g id="edge3" class="edge">
<title>Response&#45;&gt;Power</title>
<path fill="none" stroke="#ff00ff" d="M92,-102.84C92,-95.16 92,-85.88 92,-77.05"/>
<polygon fill="#ff00ff" stroke="#ff00ff" points="92,-67.03 96.5,-77.03 92,-72.03 92,-77.03 92,-77.03 92,-77.03 92,-72.03 87.5,-77.03 92,-67.03 92,-67.03"/>
</g>
</g>
</svg>
