<?xml version="1.0" encoding="UTF-8" standalone="no"?>
<!DOCTYPE svg PUBLIC "-//W3C//DTD SVG 1.1//EN"
 "http://www.w3.org/Graphics/SVG/1.1/DTD/svg11.dtd">
<!-- Generated by graphviz version 2.43.0 (0)
 -->
<!-- Title: ForStream Pages: 1 -->
<svg width="292pt" height="283pt"
 viewBox="0.00 0.00 291.98 283.00" xmlns="http://www.w3.org/2000/svg" xmlns:xlink="http://www.w3.org/1999/xlink">
<g id="graph0" class="graph" transform="scale(1 1) rotate(0) translate(4 279)">
<title>ForStream</title>
<polygon fill="#0d1117" stroke="transparent" points="-4,4 -4,-279 287.98,-279 287.98,4 -4,4"/>
<text text-anchor="middle" x="141.99" y="-7.8" font-family="Helvetica,sans-Serif" font-size="14.00" fill="#00f2ff">I.3.1: Token Stream Ingestion</text>
<!-- Ollama -->
<g id="node1" class="node">
<title>Ollama</title>
<path fill="#161b22" stroke="#00f2ff" d="M170.99,-275C170.99,-275 112.99,-275 112.99,-275 106.99,-275 100.99,-269 100.99,-263 100.99,-263 100.99,-251 100.99,-251 100.99,-245 106.99,-239 112.99,-239 112.99,-239 170.99,-239 170.99,-239 176.99,-239 182.99,-245 182.99,-251 182.99,-251 182.99,-263 182.99,-263 182.99,-269 176.99,-275 170.99,-275"/>
<text text-anchor="middle" x="141.99" y="-253.3" font-family="Times,serif" font-size="14.00" fill="#00f2ff">Ollama API</text>
</g>
<!-- Chunks -->
<g id="node2" class="node">
<title>Chunks</title>
<path fill="#161b22" stroke="#00f2ff" d="M271.96,-203C271.96,-203 70.11,-203 70.11,-203 64.11,-203 53.01,-199.84 47.91,-196.68 47.91,-196.68 10.21,-173.32 10.21,-173.32 5.11,-170.16 6.01,-167 12.01,-167 12.01,-167 213.86,-167 213.86,-167 219.86,-167 230.96,-170.16 236.06,-173.32 236.06,-173.32 273.76,-196.68 273.76,-196.68 278.86,-199.84 277.96,-203 271.96,-203"/>
<text text-anchor="middle" x="141.99" y="-181.3" font-family="Times,serif" font-size="14.00" fill="#00f2ff">JSON Response Chunks</text>
</g>
<!-- Ollama&#45;&gt;Chunks -->
<g id="edge1" class="edge">
<title>Ollama&#45;&gt;Chunks</title>
<path fill="none" stroke="#ff00ff" d="M141.99,-238.7C141.99,-230.98 141.99,-221.71 141.99,-213.11"/>
<polygon fill="#ff00ff" stroke="#ff00ff" points="141.99,-203.1 146.49,-213.1 141.99,-208.1 141.99,-213.1 141.99,-213.1 141.99,-213.1 141.99,-208.1 137.49,-213.1 141.99,-203.1 141.99,-203.1"/>
</g>
<!-- Capture -->
<g id="node3" class="node">
<title>Capture</title>
<path fill="#161b22" stroke="#ffff00" d="M177.49,-131C177.49,-131 106.49,-131 106.49,-131 100.49,-131 94.49,-125 94.49,-119 94.49,-119 94.49,-107 94.49,-107 94.49,-101 100.49,-95 106.49,-95 106.49,-95 177.49,-95 177.49,-95 183.49,-95 189.49,-101 189.49,-107 189.49,-107 189.49,-119 189.49,-119 189.49,-125 183.49,-131 177.49,-131"/>
<text text-anchor="middle" x="141.99" y="-109.3" font-family="Times,serif" font-size="14.00" fill="#00f2ff">Stream Buffer</text>
</g>
<!-- Chunks&#45;&gt;Capture -->
<g id="edge2" class="edge">
<title>Chunks&#45;&gt;Capture</title>
<path fill="none" stroke="#ff00ff" d="M141.99,-166.7C141.99,-158.98 141.99,-149.71 141.99,-141.11"/>
<polygon fill="#ff00ff" stroke="#ff00ff" points="141.99,-131.1 146.49,-141.1 141.99,-136.1 141.99,-141.1 141.99,-141.1 141.99,-141.1 141.99,-136.1 137.49,-141.1 141.99,-131.1 141.99,-131.1"/>
</g>
<!-- Display -->
<g id="node4" class="node">
<title>Display</title>
<path fill="#161b22" stroke="#00f2ff" d="M163.99,-59C163.99,-59 119.99,-59 119.99,-59 113.99,-59 107.99,-53 107.99,-47 107.99,-47 107.99,-35 107.99,-35 107.99,-29 113.99,-23 119.99,-23 119.99,-23 163.99,-23 163.99,-23 169.99,-23 175.99,-29 175.99,-35 175.99,-35 175.99,-47 175.99,-47 175.99,-53 169.99,-59 163.99,-59"/>
<text text-anchor="middle" x="141.99" y="-37.3" font-family="Times,serif" font-size="14.00" fill="#00f2ff">User TUI</text>
</g>
<!-- Capture&#45;&gt;Display -->
<g id="edge3" class="edge">
<title>Capture&#45;&gt;Display</title>
<path fill="none" stroke="#ff00ff" d="M141.99,-94.7C141.99,-86.98 141.99,-77.71 141.99,-69.11"/>
<polygon fill="#ff00ff" stroke="#ff00ff" points="141.99,-59.1 146.49,-69.1 141.99,-64.1 141.99,-69.1 141.99,-69.1 141.99,-69.1 141.99,-64.1 137.49,-69.1 141.99,-59.1 141.99,-59.1"/>
</g>
</g>
</svg>
