<?xml version="1.0" encoding="UTF-8" standalone="no"?>
<!DOCTYPE svg PUBLIC "-//W3C//DTD SVG 1.1//EN"
 "http://www.w3.org/Graphics/SVG/1.1/DTD/svg11.dtd">
<!-- Generated by graphviz version 2.43.0 (0)
 -->
<!-- Title: ForDrift Pages: 1 -->
<svg width="207pt" height="219pt"
 viewBox="0.00 0.00 206.54 219.00" xmlns="http://www.w3.org/2000/svg" xmlns:xlink="http://www.w3.org/1999/xlink">
<g id="graph0" class="graph" transform="scale(1 1) rotate(0) translate(4 215)">
<title>ForDrift</title>
<polygon fill="#0d1117" stroke="transparent" points="-4,4 -4,-215 202.54,-215 202.54,4 -4,4"/>
<text text-anchor="middle" x="99.27" y="-7.8" font-family="Helvetica,sans-Serif" font-size="14.00" fill="#00f2ff">I.3.4: Drift Quantification Logic</text>
<!-- Expectation -->
<g id="node1" class="node">
<title>Expectation</title>
<path fill="#161b22" stroke="#00f2ff" d="M77.77,-211C77.77,-211 14.77,-211 14.77,-211 8.77,-211 2.77,-205 2.77,-199 2.77,-199 2.77,-187 2.77,-187 2.77,-181 8.77,-175 14.77,-175 14.77,-175 77.77,-175 77.77,-175 83.77,-175 89.77,-181 89.77,-187 89.77,-187 89.77,-199 89.77,-199 89.77,-205 83.77,-211 77.77,-211"/>
<text text-anchor="middle" x="46.27" y="-189.3" font-family="Times,serif" font-size="14.00" fill="#00f2ff">Human Goal</text>
</g>
<!-- Delta -->
<g id="node3" class="node">
<title>Delta</title>
<path fill="#161b22" stroke="#ff0000" d="M87.46,-136.85C87.46,-136.85 12.04,-123.15 12.04,-123.15 6.13,-122.07 6.13,-119.93 12.04,-118.85 12.04,-118.85 87.46,-105.15 87.46,-105.15 93.37,-104.07 105.17,-104.07 111.08,-105.15 111.08,-105.15 186.5,-118.85 186.5,-118.85 192.4,-119.93 192.4,-122.07 186.5,-123.15 186.5,-123.15 111.08,-136.85 111.08,-136.85 105.17,-137.93 93.37,-137.93 87.46,-136.85"/>
<text text-anchor="middle" x="99.27" y="-117.3" font-family="Times,serif" font-size="14.00" fill="#00f2ff">Alignment Delta</text>
</g>
<!-- Expectation&#45;&gt;Delta -->
<g id="edge1" class="edge">
<title>Expectation&#45;&gt;Delta</title>
<path fill="none" stroke="#ff00ff" d="M59.37,-174.7C66.1,-165.8 74.4,-154.84 81.69,-145.22"/>
<polygon fill="#ff00ff" stroke="#ff00ff" points="87.76,-137.2 85.31,-147.89 84.74,-141.19 81.72,-145.18 81.72,-145.18 81.72,-145.18 84.74,-141.19 78.13,-142.46 87.76,-137.2 87.76,-137.2"/>
</g>
<!-- Reality -->
<g id="node2" class="node">
<title>Reality</title>
<path fill="#161b22" stroke="#00f2ff" d="M184.77,-211C184.77,-211 119.77,-211 119.77,-211 113.77,-211 107.77,-205 107.77,-199 107.77,-199 107.77,-187 107.77,-187 107.77,-181 113.77,-175 119.77,-175 119.77,-175 184.77,-175 184.77,-175 190.77,-175 196.77,-181 196.77,-187 196.77,-187 196.77,-199 196.77,-199 196.77,-205 190.77,-211 184.77,-211"/>
<text text-anchor="middle" x="152.27" y="-189.3" font-family="Times,serif" font-size="14.00" fill="#00f2ff">AI Execution</text>
</g>
<!-- Reality&#45;&gt;Delta -->
<g id="edge2" class="edge">
<title>Reality&#45;&gt;Delta</title>
<path fill="none" stroke="#ff00ff" d="M139.17,-174.7C132.43,-165.8 124.14,-154.84 116.85,-145.22"/>
<polygon fill="#ff00ff" stroke="#ff00ff" points="110.78,-137.2 120.4,-142.46 113.8,-141.19 116.82,-145.18 116.82,-145.18 116.82,-145.18 113.8,-141.19 113.23,-147.89 110.78,-137.2 110.78,-137.2"/>
</g>
<!-- Score -->
<g id="node4" class="node">
<title>Score</title>
<path fill="#161b22" stroke="#00ff00" d="M153.6,-42.51C153.6,-42.51 153.6,-47.49 153.6,-47.49 153.6,-49.97 151.24,-53.24 148.88,-54.02 148.88,-54.02 126.49,-61.44 126.49,-61.44 124.13,-62.22 119.29,-63 116.8,-63 116.8,-63 81.74,-63 81.74,-63 79.25,-63 74.41,-62.22 72.05,-61.44 72.05,-61.44 49.66,-54.02 49.66,-54.02 47.3,-53.24 44.94,-49.97 44.94,-47.49 44.94,-47.49 44.94,-42.51 44.94,-42.51 44.94,-40.03 47.3,-36.76 49.66,-35.98 49.66,-35.98 72.05,-28.56 72.05,-28.56 74.41,-27.78 79.25,-27 81.74,-27 81.74,-27 116.8,-27 116.8,-27 119.29,-27 124.13,-27.78 126.49,-28.56 126.49,-28.56 148.88,-35.98 148.88,-35.98 151.24,-36.76 153.6,-40.03 153.6,-42.51"/>
<path fill="none" stroke="#00ff00" d="M157.61,-41.55C157.61,-41.55 157.61,-48.45 157.61,-48.45 157.61,-51.89 154.34,-56.43 151.06,-57.51 151.06,-57.51 128.97,-64.83 128.97,-64.83 125.69,-65.92 118.97,-67 115.53,-67 115.53,-67 83.01,-67 83.01,-67 79.56,-67 72.84,-65.92 69.57,-64.83 69.57,-64.83 47.48,-57.51 47.48,-57.51 44.2,-56.43 40.93,-51.89 40.93,-48.45 40.93,-48.45 40.93,-41.55 40.93,-41.55 40.93,-38.11 44.2,-33.57 47.48,-32.49 47.48,-32.49 69.57,-25.17 69.57,-25.17 72.84,-24.08 79.56,-23 83.01,-23 83.01,-23 115.53,-23 115.53,-23 118.97,-23 125.69,-24.08 128.97,-25.17 128.97,-25.17 151.06,-32.49 151.06,-32.49 154.34,-33.57 157.61,-38.11 157.61,-41.55"/>
<text text-anchor="middle" x="99.27" y="-41.3" font-family="Times,serif" font-size="14.00" fill="#00f2ff">Synergy %</text>
</g>
<!-- Delta&#45;&gt;Score -->
<g id="edge3" class="edge">
<title>Delta&#45;&gt;Score</title>
<path fill="none" stroke="#ff00ff" d="M99.27,-102.84C99.27,-95.16 99.27,-85.88 99.27,-77.05"/>
<polygon fill="#ff00ff" stroke="#ff00ff" points="99.27,-67.03 103.77,-77.03 99.27,-72.03 99.27,-77.03 99.27,-77.03 99.27,-77.03 99.27,-72.03 94.77,-77.03 99.27,-67.03 99.27,-67.03"/>
</g>
</g>
</svg>
