<?xml version="1.0" encoding="UTF-8" standalone="no"?>
<!DOCTYPE svg PUBLIC "-//W3C//DTD SVG 1.1//EN"
 "http://www.w3.org/Graphics/SVG/1.1/DTD/svg11.dtd">
<!-- Generated by graphviz version 2.43.0 (0)
 -->
<!-- Title: SubVRAM Pages: 1 -->
<svg width="409pt" height="139pt"
 viewBox="0.00 0.00 408.50 139.00" xmlns="http://www.w3.org/2000/svg" xmlns:xlink="http://www.w3.org/1999/xlink">
<g id="graph0" class="graph" transform="scale(1 1) rotate(0) translate(4 135)">
<title>SubVRAM</title>
<polygon fill="#0d1117" stroke="transparent" points="-4,4 -4,-135 404.5,-135 404.5,4 -4,4"/>
<text text-anchor="middle" x="200.25" y="-7.8" font-family="Helvetica,sans-Serif" font-size="14.00" fill="#00f2ff">I.2.4: VRAM Allocation Logic</text>
<!-- Total -->
<g id="node1" class="node">
<title>Total</title>
<path fill="#161b22" stroke="#00f2ff" d="M256,-131C256,-131 146,-131 146,-131 140,-131 134,-125 134,-119 134,-119 134,-107 134,-107 134,-101 140,-95 146,-95 146,-95 256,-95 256,-95 262,-95 268,-101 268,-107 268,-107 268,-119 268,-119 268,-125 262,-131 256,-131"/>
<text text-anchor="middle" x="201" y="-109.3" font-family="Times,serif" font-size="14.00" fill="#00f2ff">Total VRAM (16GB)</text>
</g>
<!-- System -->
<g id="node2" class="node">
<title>System</title>
<path fill="#161b22" stroke="#00f2ff" d="M114,-59C114,-59 12,-59 12,-59 6,-59 0,-53 0,-47 0,-47 0,-35 0,-35 0,-29 6,-23 12,-23 12,-23 114,-23 114,-23 120,-23 126,-29 126,-35 126,-35 126,-47 126,-47 126,-53 120,-59 114,-59"/>
<text text-anchor="middle" x="63" y="-37.3" font-family="Times,serif" font-size="14.00" fill="#00f2ff">OS / Display Buffer</text>
</g>
<!-- Total&#45;&gt;System -->
<g id="edge1" class="edge">
<title>Total&#45;&gt;System</title>
<path fill="none" stroke="#ff00ff" d="M167.24,-94.88C148.78,-85.51 125.72,-73.81 105.98,-63.8"/>
<polygon fill="#ff00ff" stroke="#ff00ff" points="96.89,-59.19 107.84,-59.7 101.35,-61.45 105.81,-63.71 105.81,-63.71 105.81,-63.71 101.35,-61.45 103.77,-67.73 96.89,-59.19 96.89,-59.19"/>
</g>
<!-- ModelSpace -->
<g id="node3" class="node">
<title>ModelSpace</title>
<path fill="#161b22" stroke="#ffff00" d="M245.5,-59C245.5,-59 156.5,-59 156.5,-59 150.5,-59 144.5,-53 144.5,-47 144.5,-47 144.5,-35 144.5,-35 144.5,-29 150.5,-23 156.5,-23 156.5,-23 245.5,-23 245.5,-23 251.5,-23 257.5,-29 257.5,-35 257.5,-35 257.5,-47 257.5,-47 257.5,-53 251.5,-59 245.5,-59"/>
<text text-anchor="middle" x="201" y="-37.3" font-family="Times,serif" font-size="14.00" fill="#00f2ff">Model KV Cache</text>
</g>
<!-- Total&#45;&gt;ModelSpace -->
<g id="edge2" class="edge">
<title>Total&#45;&gt;ModelSpace</title>
<path fill="none" stroke="#ff00ff" d="M201,-94.7C201,-86.98 201,-77.71 201,-69.11"/>
<polygon fill="#ff00ff" stroke="#ff00ff" points="201,-59.1 205.5,-69.1 201,-64.1 201,-69.1 201,-69.1 201,-69.1 201,-64.1 196.5,-69.1 201,-59.1 201,-59.1"/>
</g>
<!-- Free -->
<g id="node4" class="node">
<title>Free</title>
<path fill="#161b22" stroke="#00ff00" d="M388.5,-59C388.5,-59 287.5,-59 287.5,-59 281.5,-59 275.5,-53 275.5,-47 275.5,-47 275.5,-35 275.5,-35 275.5,-29 281.5,-23 287.5,-23 287.5,-23 388.5,-23 388.5,-23 394.5,-23 400.5,-29 400.5,-35 400.5,-35 400.5,-47 400.5,-47 400.5,-53 394.5,-59 388.5,-59"/>
<text text-anchor="middle" x="338" y="-37.3" font-family="Times,serif" font-size="14.00" fill="#00f2ff">Available Overhead</text>
</g>
<!-- Total&#45;&gt;Free -->
<g id="edge3" class="edge">
<title>Total&#45;&gt;Free</title>
<path fill="none" stroke="#ff00ff" d="M234.51,-94.88C252.84,-85.51 275.74,-73.81 295.33,-63.8"/>
<polygon fill="#ff00ff" stroke="#ff00ff" points="304.36,-59.19 297.5,-67.75 299.9,-61.46 295.45,-63.74 295.45,-63.74 295.45,-63.74 299.9,-61.46 293.4,-59.73 304.36,-59.19 304.36,-59.19"/>
</g>
</g>
</svg>
