<?xml version="1.0" encoding="UTF-8" standalone="no"?>
<!DOCTYPE svg PUBLIC "-//W3C//DTD SVG 1.1//EN"
 "http://www.w3.org/Graphics/SVG/1.1/DTD/svg11.dtd">
<!-- Generated by graphviz version 2.43.0 (0)
 -->
<!-- Title: DashHUD Pages: 1 -->
<svg width="384pt" height="275pt"
 viewBox="0.00 0.00 384.26 275.17" xmlns="http://www.w3.org/2000/svg" xmlns:xlink="http://www.w3.org/1999/xlink">
<g id="graph0" class="graph" transform="scale(1 1) rotate(0) translate(4 271.17)">
<title>DashHUD</title>
<polygon fill="#0d1117" stroke="transparent" points="-4,4 -4,-271.17 380.26,-271.17 380.26,4 -4,4"/>
<text text-anchor="middle" x="188.13" y="-7.8" font-family="Helvetica,sans-Serif" font-size="14.00" fill="#00f2ff">I1: Neon TUI Dashboard Architecture</text>
<!-- Controller -->
<g id="node1" class="node">
<title>Controller</title>
<path fill="#161b22" stroke="#00ff00" stroke-width="3" d="M317.76,-267.17C317.76,-267.17 206.76,-267.17 206.76,-267.17 200.76,-267.17 194.76,-261.17 194.76,-255.17 194.76,-255.17 194.76,-241.17 194.76,-241.17 194.76,-235.17 200.76,-229.17 206.76,-229.17 206.76,-229.17 317.76,-229.17 317.76,-229.17 323.76,-229.17 329.76,-235.17 329.76,-241.17 329.76,-241.17 329.76,-255.17 329.76,-255.17 329.76,-261.17 323.76,-267.17 317.76,-267.17"/>
<text text-anchor="middle" x="262.26" y="-251.97" font-family="Times,serif" font-size="14.00" fill="#00f2ff">Transfinite Controller</text>
<text text-anchor="middle" x="262.26" y="-236.97" font-family="Times,serif" font-size="14.00" fill="#00f2ff">(Python TUI)</text>
</g>
<!-- Metrics -->
<g id="node2" class="node">
<title>Metrics</title>
<path fill="#161b22" stroke="#ffff00" d="M204.3,-141.06C204.3,-141.06 204.3,-149.11 204.3,-149.11 204.3,-153.14 200.43,-158.29 196.57,-159.41 196.57,-159.41 153.43,-171.99 153.43,-171.99 149.56,-173.12 141.67,-174.24 137.65,-174.24 137.65,-174.24 70.88,-174.24 70.88,-174.24 66.85,-174.24 58.96,-173.12 55.1,-171.99 55.1,-171.99 11.96,-159.41 11.96,-159.41 8.09,-158.29 4.23,-153.14 4.23,-149.11 4.23,-149.11 4.23,-141.06 4.23,-141.06 4.23,-137.03 8.09,-131.88 11.96,-130.75 11.96,-130.75 55.1,-118.18 55.1,-118.18 58.96,-117.05 66.85,-115.93 70.88,-115.93 70.88,-115.93 137.65,-115.93 137.65,-115.93 141.67,-115.93 149.56,-117.05 153.43,-118.18 153.43,-118.18 196.57,-130.75 196.57,-130.75 200.43,-131.88 204.3,-137.03 204.3,-141.06"/>
<path fill="none" stroke="#ffff00" d="M208.29,-140.05C208.29,-140.05 208.29,-150.11 208.29,-150.11 208.29,-155.14 203.46,-161.58 198.63,-162.99 198.63,-162.99 155.92,-175.44 155.92,-175.44 151.1,-176.84 141.24,-178.25 136.21,-178.25 136.21,-178.25 72.32,-178.25 72.32,-178.25 67.29,-178.25 57.43,-176.84 52.6,-175.44 52.6,-175.44 9.89,-162.99 9.89,-162.99 5.07,-161.58 0.24,-155.14 0.24,-150.11 0.24,-150.11 0.24,-140.05 0.24,-140.05 0.24,-135.02 5.07,-128.59 9.89,-127.18 9.89,-127.18 52.6,-114.73 52.6,-114.73 57.43,-113.32 67.29,-111.92 72.32,-111.92 72.32,-111.92 136.21,-111.92 136.21,-111.92 141.24,-111.92 151.1,-113.32 155.92,-114.73 155.92,-114.73 198.63,-127.18 198.63,-127.18 203.46,-128.59 208.29,-135.02 208.29,-140.05"/>
<text text-anchor="middle" x="104.26" y="-148.88" font-family="Times,serif" font-size="14.00" fill="#00f2ff">HUD Metrics</text>
<text text-anchor="middle" x="104.26" y="-133.88" font-family="Times,serif" font-size="14.00" fill="#00f2ff">(VRAM, T/S, Align)</text>
</g>
<!-- Controller&#45;&gt;Metrics -->
<g id="edge1" class="edge">
<title>Controller&#45;&gt;Metrics</title>
<path fill="none" stroke="#ff00ff" d="M234.02,-229.1C213.69,-216.09 185.59,-198.11 160.73,-182.21"/>
<polygon fill="#ff00ff" stroke="#ff00ff" points="152.1,-176.69 162.95,-178.29 156.31,-179.38 160.52,-182.08 160.52,-182.08 160.52,-182.08 156.31,-179.38 158.1,-185.87 152.1,-176.69 152.1,-176.69"/>
<text text-anchor="middle" x="227.26" y="-199.97" font-family="Times,serif" font-size="14.00"> Display </text>
</g>
<!-- Commands -->
<g id="node3" class="node">
<title>Commands</title>
<path fill="#161b22" stroke="#00f2ff" d="M286.26,-164.08C286.26,-164.08 238.26,-164.08 238.26,-164.08 232.26,-164.08 226.26,-158.08 226.26,-152.08 226.26,-152.08 226.26,-138.08 226.26,-138.08 226.26,-132.08 232.26,-126.08 238.26,-126.08 238.26,-126.08 286.26,-126.08 286.26,-126.08 292.26,-126.08 298.26,-132.08 298.26,-138.08 298.26,-138.08 298.26,-152.08 298.26,-152.08 298.26,-158.08 292.26,-164.08 286.26,-164.08"/>
<text text-anchor="middle" x="262.26" y="-148.88" font-family="Times,serif" font-size="14.00" fill="#00f2ff">Directives</text>
<text text-anchor="middle" x="262.26" y="-133.88" font-family="Times,serif" font-size="14.00" fill="#00f2ff">(1&#45;5, Q)</text>
</g>
<!-- Controller&#45;&gt;Commands -->
<g id="edge2" class="edge">
<title>Controller&#45;&gt;Commands</title>
<path fill="none" stroke="#ff00ff" d="M262.26,-229.1C262.26,-213.95 262.26,-192.07 262.26,-174.57"/>
<polygon fill="#ff00ff" stroke="#ff00ff" points="262.26,-164.34 266.76,-174.34 262.26,-169.34 262.26,-174.34 262.26,-174.34 262.26,-174.34 262.26,-169.34 257.76,-174.34 262.26,-164.34 262.26,-164.34"/>
<text text-anchor="middle" x="282.76" y="-199.97" font-family="Times,serif" font-size="14.00"> Ingest </text>
</g>
<!-- Substrates -->
<g id="node4" class="node">
<title>Substrates</title>
<path fill="#161b22" stroke="#00f2ff" d="M333.26,-61C333.26,-61 263.26,-61 263.26,-61 257.26,-61 251.26,-55 251.26,-49 251.26,-49 251.26,-35 251.26,-35 251.26,-29 257.26,-23 263.26,-23 263.26,-23 333.26,-23 333.26,-23 339.26,-23 345.26,-29 345.26,-35 345.26,-35 345.26,-49 345.26,-49 345.26,-55 339.26,-61 333.26,-61"/>
<text text-anchor="middle" x="298.26" y="-45.8" font-family="Times,serif" font-size="14.00" fill="#00f2ff">Sub&#45;Tools</text>
<text text-anchor="middle" x="298.26" y="-30.8" font-family="Times,serif" font-size="14.00" fill="#00f2ff">(sh/py scripts)</text>
</g>
<!-- Commands&#45;&gt;Substrates -->
<g id="edge3" class="edge">
<title>Commands&#45;&gt;Substrates</title>
<path fill="none" stroke="#ff00ff" d="M259.46,-125.96C258.16,-112.49 258.06,-93.93 264.26,-79 265.7,-75.54 267.63,-72.22 269.85,-69.08"/>
<polygon fill="#ff00ff" stroke="#ff00ff" points="276.24,-61.26 273.4,-71.85 273.08,-65.13 269.91,-69.01 269.91,-69.01 269.91,-69.01 273.08,-65.13 266.43,-66.16 276.24,-61.26 276.24,-61.26"/>
<text text-anchor="middle" x="292.26" y="-82.8" font-family="Times,serif" font-size="14.00"> Dispatch </text>
</g>
<!-- Substrates&#45;&gt;Controller -->
<g id="edge4" class="edge">
<title>Substrates&#45;&gt;Controller</title>
<path fill="none" stroke="#ff00ff" d="M312,-61.15C315.37,-66.6 318.52,-72.8 320.26,-79 336.25,-135.82 335.73,-159.46 307.26,-211.17 305.09,-215.12 302.28,-218.8 299.14,-222.17"/>
<polygon fill="#ff00ff" stroke="#ff00ff" points="291.82,-229.07 296.01,-218.94 295.46,-225.64 299.09,-222.21 299.09,-222.21 299.09,-222.21 295.46,-225.64 302.18,-225.49 291.82,-229.07 291.82,-229.07"/>
<text text-anchor="middle" x="353.76" y="-141.38" font-family="Times,serif" font-size="14.00"> Report </text>
</g>
</g>
</svg>
