<?xml version="1.0" encoding="UTF-8" standalone="no"?>
<!DOCTYPE svg PUBLIC "-//W3C//DTD SVG 1.1//EN"
 "http://www.w3.org/Graphics/SVG/1.1/DTD/svg11.dtd">
<!-- Generated by graphviz version 2.43.0 (0)
 -->
<!-- Title: SubContext Pages: 1 -->
<svg width="278pt" height="227pt"
 viewBox="0.00 0.00 278.42 227.00" xmlns="http://www.w3.org/2000/svg" xmlns:xlink="http://www.w3.org/1999/xlink">
<g id="graph0" class="graph" transform="scale(1 1) rotate(0) translate(4 223)">
<title>SubContext</title>
<polygon fill="#0d1117" stroke="transparent" points="-4,4 -4,-223 274.42,-223 274.42,4 -4,4"/>
<text text-anchor="middle" x="135.21" y="-7.8" font-family="Helvetica,sans-Serif" font-size="14.00" fill="#00f2ff">I.2.3: Context Window Management</text>
<!-- RawContext -->
<g id="node1" class="node">
<title>RawContext</title>
<path fill="#161b22" stroke="#00f2ff" d="M213,-219C213,-219 76,-219 76,-219 70,-219 64,-213 64,-207 64,-207 64,-195 64,-195 64,-189 70,-183 76,-183 76,-183 213,-183 213,-183 219,-183 225,-189 225,-195 225,-195 225,-207 225,-207 225,-213 219,-219 213,-219"/>
<text text-anchor="middle" x="144.5" y="-197.3" font-family="Times,serif" font-size="14.00" fill="#00f2ff">Raw Conversation History</text>
</g>
<!-- Compressor -->
<g id="node2" class="node">
<title>Compressor</title>
<path fill="#161b22" stroke="#ffff00" d="M132.62,-144.3C132.62,-144.3 30.53,-129.7 30.53,-129.7 24.59,-128.85 24.59,-127.15 30.53,-126.3 30.53,-126.3 132.62,-111.7 132.62,-111.7 138.56,-110.85 150.44,-110.85 156.38,-111.7 156.38,-111.7 258.47,-126.3 258.47,-126.3 264.41,-127.15 264.41,-128.85 258.47,-129.7 258.47,-129.7 156.38,-144.3 156.38,-144.3 150.44,-145.15 138.56,-145.15 132.62,-144.3"/>
<text text-anchor="middle" x="144.5" y="-124.3" font-family="Times,serif" font-size="14.00" fill="#00f2ff">Semantic Compressor</text>
</g>
<!-- RawContext&#45;&gt;Compressor -->
<g id="edge1" class="edge">
<title>RawContext&#45;&gt;Compressor</title>
<path fill="none" stroke="#ff00ff" d="M144.5,-182.81C144.5,-174.79 144.5,-165.05 144.5,-156.07"/>
<polygon fill="#ff00ff" stroke="#ff00ff" points="144.5,-146.03 149,-156.03 144.5,-151.03 144.5,-156.03 144.5,-156.03 144.5,-156.03 144.5,-151.03 140,-156.03 144.5,-146.03 144.5,-146.03"/>
</g>
<!-- ActiveWindow -->
<g id="node3" class="node">
<title>ActiveWindow</title>
<path fill="#161b22" stroke="#00ff00" d="M149,-55.73C149,-57.53 115.61,-59 74.5,-59 33.39,-59 0,-57.53 0,-55.73 0,-55.73 0,-26.27 0,-26.27 0,-24.47 33.39,-23 74.5,-23 115.61,-23 149,-24.47 149,-26.27 149,-26.27 149,-55.73 149,-55.73"/>
<path fill="none" stroke="#00ff00" d="M149,-55.73C149,-53.92 115.61,-52.45 74.5,-52.45 33.39,-52.45 0,-53.92 0,-55.73"/>
<text text-anchor="middle" x="74.5" y="-37.3" font-family="Times,serif" font-size="14.00" fill="#00f2ff">Active Context Window</text>
</g>
<!-- Compressor&#45;&gt;ActiveWindow -->
<g id="edge2" class="edge">
<title>Compressor&#45;&gt;ActiveWindow</title>
<path fill="none" stroke="#ff00ff" d="M131.66,-111.41C121.5,-99.07 107.1,-81.59 95.3,-67.26"/>
<polygon fill="#ff00ff" stroke="#ff00ff" points="88.7,-59.25 98.53,-64.1 91.88,-63.11 95.06,-66.97 95.06,-66.97 95.06,-66.97 91.88,-63.11 91.59,-69.83 88.7,-59.25 88.7,-59.25"/>
<text text-anchor="middle" x="136" y="-80.8" font-family="Times,serif" font-size="14.00"> Retain </text>
</g>
<!-- Discard -->
<g id="node4" class="node">
<title>Discard</title>
<path fill="#161b22" stroke="#ff0000" d="M250,-59C250,-59 179,-59 179,-59 173,-59 167,-53 167,-47 167,-47 167,-35 167,-35 167,-29 173,-23 179,-23 179,-23 250,-23 250,-23 256,-23 262,-29 262,-35 262,-35 262,-47 262,-47 262,-53 256,-59 250,-59"/>
<text text-anchor="middle" x="214.5" y="-37.3" font-family="Times,serif" font-size="14.00" fill="#00f2ff">Legacy Buffer</text>
</g>
<!-- Compressor&#45;&gt;Discard -->
<g id="edge3" class="edge">
<title>Compressor&#45;&gt;Discard</title>
<path fill="none" stroke="#ff00ff" d="M157.34,-111.41C167.5,-99.07 181.9,-81.59 193.7,-67.26"/>
<polygon fill="#ff00ff" stroke="#ff00ff" points="200.3,-59.25 197.41,-69.83 197.12,-63.11 193.94,-66.97 193.94,-66.97 193.94,-66.97 197.12,-63.11 190.47,-64.1 200.3,-59.25 200.3,-59.25"/>
<text text-anchor="middle" x="203.5" y="-80.8" font-family="Times,serif" font-size="14.00"> Prune </text>
</g>
</g>
</svg>
