<?xml version="1.0" encoding="UTF-8" standalone="no"?>
<!DOCTYPE svg PUBLIC "-//W3C//DTD SVG 1.1//EN"
 "http://www.w3.org/Graphics/SVG/1.1/DTD/svg11.dtd">
<!-- Generated by graphviz version 2.43.0 (0)
 -->
<!-- Title: IntAxiomaticShift Pages: 1 -->
<svg width="244pt" height="300pt"
 viewBox="0.00 0.00 244.33 300.00" xmlns="http://www.w3.org/2000/svg" xmlns:xlink="http://www.w3.org/1999/xlink">
<g id="graph0" class="graph" transform="scale(1 1) rotate(0) translate(4 296)">
<title>IntAxiomaticShift</title>
<polygon fill="#0d1117" stroke="transparent" points="-4,4 -4,-296 240.33,-296 240.33,4 -4,4"/>
<text text-anchor="middle" x="118.16" y="-7.8" font-family="Helvetica,sans-Serif" font-size="14.00" fill="#00f2ff">I4: UI&#45;Triggered Axiomatic Shift</text>
<!-- UI -->
<g id="node1" class="node">
<title>UI</title>
<path fill="#161b22" stroke="#00f2ff" d="M190.66,-292C190.66,-292 45.66,-292 45.66,-292 39.66,-292 33.66,-286 33.66,-280 33.66,-280 33.66,-268 33.66,-268 33.66,-262 39.66,-256 45.66,-256 45.66,-256 190.66,-256 190.66,-256 196.66,-256 202.66,-262 202.66,-268 202.66,-268 202.66,-280 202.66,-280 202.66,-286 196.66,-292 190.66,-292"/>
<text text-anchor="middle" x="118.16" y="-270.3" font-family="Times,serif" font-size="14.00" fill="#00f2ff">Controller Menu (Option 4)</text>
</g>
<!-- Input -->
<g id="node2" class="node">
<title>Input</title>
<path fill="#161b22" stroke="#00f2ff" d="M224.49,-219C224.49,-219 60.26,-219 60.26,-219 54.26,-219 43.44,-215.42 38.63,-211.84 38.63,-211.84 9.47,-190.16 9.47,-190.16 4.65,-186.58 5.84,-183 11.84,-183 11.84,-183 176.07,-183 176.07,-183 182.07,-183 192.89,-186.58 197.7,-190.16 197.7,-190.16 226.86,-211.84 226.86,-211.84 231.68,-215.42 230.49,-219 224.49,-219"/>
<text text-anchor="middle" x="118.16" y="-197.3" font-family="Times,serif" font-size="14.00" fill="#00f2ff">Shift Name Prompt</text>
</g>
<!-- UI&#45;&gt;Input -->
<g id="edge1" class="edge">
<title>UI&#45;&gt;Input</title>
<path fill="none" stroke="#ff00ff" d="M118.16,-255.81C118.16,-247.79 118.16,-238.05 118.16,-229.07"/>
<polygon fill="#ff00ff" stroke="#ff00ff" points="118.16,-219.03 122.66,-229.03 118.16,-224.03 118.16,-229.03 118.16,-229.03 118.16,-229.03 118.16,-224.03 113.66,-229.03 118.16,-219.03 118.16,-219.03"/>
</g>
<!-- Script -->
<g id="node3" class="node">
<title>Script</title>
<path fill="#161b22" stroke="#ffff00" d="M155.16,-146C155.16,-146 81.16,-146 81.16,-146 75.16,-146 69.16,-140 69.16,-134 69.16,-134 69.16,-122 69.16,-122 69.16,-116 75.16,-110 81.16,-110 81.16,-110 155.16,-110 155.16,-110 161.16,-110 167.16,-116 167.16,-122 167.16,-122 167.16,-134 167.16,-134 167.16,-140 161.16,-146 155.16,-146"/>
<text text-anchor="middle" x="118.16" y="-124.3" font-family="Times,serif" font-size="14.00" fill="#00f2ff">axiom_shift.sh</text>
</g>
<!-- Input&#45;&gt;Script -->
<g id="edge2" class="edge">
<title>Input&#45;&gt;Script</title>
<path fill="none" stroke="#ff00ff" d="M118.16,-182.81C118.16,-174.79 118.16,-165.05 118.16,-156.07"/>
<polygon fill="#ff00ff" stroke="#ff00ff" points="118.16,-146.03 122.66,-156.03 118.16,-151.03 118.16,-156.03 118.16,-156.03 118.16,-156.03 118.16,-151.03 113.66,-156.03 118.16,-146.03 118.16,-146.03"/>
</g>
<!-- Visuals -->
<g id="node4" class="node">
<title>Visuals</title>
<path fill="#161b22" stroke="#00ff00" d="M152.66,-59C152.66,-59 83.66,-59 83.66,-59 77.66,-59 71.66,-53 71.66,-47 71.66,-47 71.66,-35 71.66,-35 71.66,-29 77.66,-23 83.66,-23 83.66,-23 152.66,-23 152.66,-23 158.66,-23 164.66,-29 164.66,-35 164.66,-35 164.66,-47 164.66,-47 164.66,-53 158.66,-59 152.66,-59"/>
<text text-anchor="middle" x="118.16" y="-37.3" font-family="Times,serif" font-size="14.00" fill="#00f2ff">viz_refresh.sh</text>
</g>
<!-- Script&#45;&gt;Visuals -->
<g id="edge3" class="edge">
<title>Script&#45;&gt;Visuals</title>
<path fill="none" stroke="#ff00ff" d="M118.16,-109.8C118.16,-98.16 118.16,-82.55 118.16,-69.24"/>
<polygon fill="#ff00ff" stroke="#ff00ff" points="118.16,-59.18 122.66,-69.18 118.16,-64.18 118.16,-69.18 118.16,-69.18 118.16,-69.18 118.16,-64.18 113.66,-69.18 118.16,-59.18 118.16,-59.18"/>
<text text-anchor="middle" x="165.16" y="-80.8" font-family="Times,serif" font-size="14.00"> Trigger Refresh </text>
</g>
</g>
</svg>
