<?xml version="1.0" encoding="UTF-8" standalone="no"?>
<!DOCTYPE svg PUBLIC "-//W3C//DTD SVG 1.1//EN"
 "http://www.w3.org/Graphics/SVG/1.1/DTD/svg11.dtd">
<!-- Generated by graphviz version 2.43.0 (0)
 -->
<!-- Title: AutSync Pages: 1 -->
<svg width="183pt" height="283pt"
 viewBox="0.00 0.00 183.00 283.00" xmlns="http://www.w3.org/2000/svg" xmlns:xlink="http://www.w3.org/1999/xlink">
<g id="graph0" class="graph" transform="scale(1 1) rotate(0) translate(4 279)">
<title>AutSync</title>
<polygon fill="#0d1117" stroke="transparent" points="-4,4 -4,-279 179,-279 179,4 -4,4"/>
<text text-anchor="middle" x="87.5" y="-7.8" font-family="Helvetica,sans-Serif" font-size="14.00" fill="#00f2ff">I.4.2: Git Sync Automation</text>
<!-- Changes -->
<g id="node1" class="node">
<title>Changes</title>
<path fill="#161b22" stroke="#00f2ff" d="M124.5,-275C124.5,-275 50.5,-275 50.5,-275 44.5,-275 38.5,-269 38.5,-263 38.5,-263 38.5,-251 38.5,-251 38.5,-245 44.5,-239 50.5,-239 50.5,-239 124.5,-239 124.5,-239 130.5,-239 136.5,-245 136.5,-251 136.5,-251 136.5,-263 136.5,-263 136.5,-269 130.5,-275 124.5,-275"/>
<text text-anchor="middle" x="87.5" y="-253.3" font-family="Times,serif" font-size="14.00" fill="#00f2ff">Local Changes</text>
</g>
<!-- Git -->
<g id="node2" class="node">
<title>Git</title>
<polygon fill="#161b22" stroke="#00f2ff" points="114,-197 49,-197 49,-173 114,-173 126,-185 114,-197"/>
<text text-anchor="middle" x="87.5" y="-181.3" font-family="Times,serif" font-size="14.00" fill="#00f2ff">git commit</text>
</g>
<!-- Changes&#45;&gt;Git -->
<g id="edge1" class="edge">
<title>Changes&#45;&gt;Git</title>
<path fill="none" stroke="#ff00ff" d="M87.5,-238.7C87.5,-230.98 87.5,-221.71 87.5,-213.11"/>
<polygon fill="#ff00ff" stroke="#ff00ff" points="87.5,-203.1 92,-213.1 87.5,-208.1 87.5,-213.1 87.5,-213.1 87.5,-213.1 87.5,-208.1 83,-213.1 87.5,-203.1 87.5,-203.1"/>
</g>
<!-- Push -->
<g id="node3" class="node">
<title>Push</title>
<polygon fill="#161b22" stroke="#00f2ff" points="105.5,-125 57.5,-125 57.5,-101 105.5,-101 117.5,-113 105.5,-125"/>
<text text-anchor="middle" x="87.5" y="-109.3" font-family="Times,serif" font-size="14.00" fill="#00f2ff">git push</text>
</g>
<!-- Git&#45;&gt;Push -->
<g id="edge2" class="edge">
<title>Git&#45;&gt;Push</title>
<path fill="none" stroke="#ff00ff" d="M87.5,-166.7C87.5,-158.98 87.5,-149.71 87.5,-141.11"/>
<polygon fill="#ff00ff" stroke="#ff00ff" points="87.5,-131.1 92,-141.1 87.5,-136.1 87.5,-141.1 87.5,-141.1 87.5,-141.1 87.5,-136.1 83,-141.1 87.5,-131.1 87.5,-131.1"/>
</g>
<!-- GitHub -->
<g id="node4" class="node">
<title>GitHub</title>
<path fill="#161b22" stroke="#ffff00" d="M121.5,-59C121.5,-59 53.5,-59 53.5,-59 47.5,-59 41.5,-53 41.5,-47 41.5,-47 41.5,-35 41.5,-35 41.5,-29 47.5,-23 53.5,-23 53.5,-23 121.5,-23 121.5,-23 127.5,-23 133.5,-29 133.5,-35 133.5,-35 133.5,-47 133.5,-47 133.5,-53 127.5,-59 121.5,-59"/>
<text text-anchor="middle" x="87.5" y="-37.3" font-family="Times,serif" font-size="14.00" fill="#00f2ff">Remote Repo</text>
</g>
<!-- Push&#45;&gt;GitHub -->
<g id="edge3" class="edge">
<title>Push&#45;&gt;GitHub</title>
<path fill="none" stroke="#ff00ff" d="M87.5,-94.7C87.5,-86.98 87.5,-77.71 87.5,-69.11"/>
<polygon fill="#ff00ff" stroke="#ff00ff" points="87.5,-59.1 92,-69.1 87.5,-64.1 87.5,-69.1 87.5,-69.1 87.5,-69.1 87.5,-64.1 83,-69.1 87.5,-59.1 87.5,-59.1"/>
</g>
</g>
</svg>
