<?xml version="1.0" encoding="UTF-8" standalone="no"?>
<!DOCTYPE svg PUBLIC "-//W3C//DTD SVG 1.1//EN"
 "http://www.w3.org/Graphics/SVG/1.1/DTD/svg11.dtd">
<!-- Generated by graphviz version 2.43.0 (0)
 -->
<!-- Title: IntInteraction Pages: 1 -->
<svg width="244pt" height="332pt"
 viewBox="0.00 0.00 244.00 331.74" xmlns="http://www.w3.org/2000/svg" xmlns:xlink="http://www.w3.org/1999/xlink">
<g id="graph0" class="graph" transform="scale(1 1) rotate(0) translate(4 327.74)">
<title>IntInteraction</title>
<polygon fill="#0d1117" stroke="transparent" points="-4,4 -4,-327.74 240,-327.74 240,4 -4,4"/>
<text text-anchor="middle" x="118" y="-7.8" font-family="Helvetica,sans-Serif" font-size="14.00" fill="#00f2ff">I2: Human&#45;Terminal Interaction Loop</text>
<!-- User -->
<g id="node1" class="node">
<title>User</title>
<ellipse fill="#161b22" stroke="#00ff00" cx="102.62" cy="-268.5" rx="55.49" ry="55.49"/>
<text text-anchor="middle" x="102.62" y="-264.8" font-family="Times,serif" font-size="14.00" fill="#00f2ff">Human (+1)</text>
</g>
<!-- Terminal -->
<g id="node2" class="node">
<title>Terminal</title>
<path fill="#161b22" stroke="#00f2ff" d="M155.62,-157.6C155.62,-160.24 131.87,-162.38 102.62,-162.38 73.38,-162.38 49.62,-160.24 49.62,-157.6 49.62,-157.6 49.62,-114.65 49.62,-114.65 49.62,-112.01 73.38,-109.87 102.62,-109.87 131.87,-109.87 155.62,-112.01 155.62,-114.65 155.62,-114.65 155.62,-157.6 155.62,-157.6"/>
<path fill="none" stroke="#00f2ff" d="M155.62,-157.6C155.62,-154.97 131.87,-152.83 102.62,-152.83 73.38,-152.83 49.62,-154.97 49.62,-157.6"/>
<text text-anchor="middle" x="102.62" y="-139.93" font-family="Times,serif" font-size="14.00" fill="#00f2ff">Terminal Buffer</text>
<text text-anchor="middle" x="102.62" y="-124.92" font-family="Times,serif" font-size="14.00" fill="#00f2ff">(ANSI Neon)</text>
</g>
<!-- User&#45;&gt;Terminal -->
<g id="edge1" class="edge">
<title>User&#45;&gt;Terminal</title>
<path fill="none" stroke="#ff00ff" d="M68.8,-224.38C61.79,-210.43 58.02,-194.8 63.62,-180.25 64.89,-176.95 66.55,-173.74 68.46,-170.66"/>
<polygon fill="#ff00ff" stroke="#ff00ff" points="74.41,-162.37 72.23,-173.12 71.49,-166.44 68.58,-170.5 68.58,-170.5 68.58,-170.5 71.49,-166.44 64.92,-167.88 74.41,-162.37 74.41,-162.37"/>
<text text-anchor="middle" x="92.62" y="-184.05" font-family="Times,serif" font-size="14.00"> Directive </text>
</g>
<!-- Terminal&#45;&gt;User -->
<g id="edge4" class="edge">
<title>Terminal&#45;&gt;User</title>
<path fill="none" stroke="#ff00ff" d="M115.89,-162.54C118.26,-168.22 120.38,-174.33 121.62,-180.25 123.39,-188.65 123.51,-197.49 122.6,-206.19"/>
<polygon fill="#ff00ff" stroke="#ff00ff" points="121.11,-216.31 118.11,-205.76 121.84,-211.37 122.57,-206.42 122.57,-206.42 122.57,-206.42 121.84,-211.37 127.02,-207.08 121.11,-216.31 121.11,-216.31"/>
<text text-anchor="middle" x="155.62" y="-184.05" font-family="Times,serif" font-size="14.00"> Perception </text>
</g>
<!-- Kernel -->
<g id="node3" class="node">
<title>Kernel</title>
<path fill="#161b22" stroke="#ffff00" d="M145.62,-59C145.62,-59 59.62,-59 59.62,-59 53.62,-59 47.62,-53 47.62,-47 47.62,-47 47.62,-35 47.62,-35 47.62,-29 53.62,-23 59.62,-23 59.62,-23 145.62,-23 145.62,-23 151.62,-23 157.62,-29 157.62,-35 157.62,-35 157.62,-47 157.62,-47 157.62,-53 151.62,-59 145.62,-59"/>
<text text-anchor="middle" x="102.62" y="-37.3" font-family="Times,serif" font-size="14.00" fill="#00f2ff">Axiomatic Logic</text>
</g>
<!-- Terminal&#45;&gt;Kernel -->
<g id="edge2" class="edge">
<title>Terminal&#45;&gt;Kernel</title>
<path fill="none" stroke="#ff00ff" d="M71.85,-109.68C67.27,-104.35 63.22,-98.39 60.62,-92 56.84,-82.71 60.7,-73.86 67.36,-66.27"/>
<polygon fill="#ff00ff" stroke="#ff00ff" points="74.78,-59.12 70.7,-69.3 71.17,-62.59 67.57,-66.06 67.57,-66.06 67.57,-66.06 71.17,-62.59 64.45,-62.82 74.78,-59.12 74.78,-59.12"/>
<text text-anchor="middle" x="92.12" y="-80.8" font-family="Times,serif" font-size="14.00"> Execution </text>
</g>
<!-- Kernel&#45;&gt;Terminal -->
<g id="edge3" class="edge">
<title>Kernel&#45;&gt;Terminal</title>
<path fill="none" stroke="#ff00ff" d="M115.51,-59.31C118.82,-64.7 121.92,-70.85 123.62,-77 125.76,-84.71 124.87,-92.85 122.54,-100.53"/>
<polygon fill="#ff00ff" stroke="#ff00ff" points="118.93,-109.93 118.31,-98.98 120.72,-105.26 122.51,-100.6 122.51,-100.6 122.51,-100.6 120.72,-105.26 126.71,-102.21 118.93,-109.93 118.93,-109.93"/>
<text text-anchor="middle" x="156.62" y="-80.8" font-family="Times,serif" font-size="14.00"> Telemetry </text>
</g>
</g>
</svg>
