<?xml version="1.0" encoding="UTF-8" standalone="no"?>
<!DOCTYPE svg PUBLIC "-//W3C//DTD SVG 1.1//EN"
 "http://www.w3.org/Graphics/SVG/1.1/DTD/svg11.dtd">
<!-- Generated by graphviz version 2.43.0 (0)
 -->
<!-- Title: AutCorr Pages: 1 -->
<svg width="197pt" height="300pt"
 viewBox="0.00 0.00 197.00 300.00" xmlns="http://www.w3.org/2000/svg" xmlns:xlink="http://www.w3.org/1999/xlink">
<g id="graph0" class="graph" transform="scale(1 1) rotate(0) translate(4 296)">
<title>AutCorr</title>
<polygon fill="#0d1117" stroke="transparent" points="-4,4 -4,-296 193,-296 193,4 -4,4"/>
<text text-anchor="middle" x="94.5" y="-7.8" font-family="Helvetica,sans-Serif" font-size="14.00" fill="#00f2ff">I.4.4: Auto&#45;Correction Cycle</text>
<!-- Error -->
<g id="node1" class="node">
<title>Error</title>
<path fill="#161b22" stroke="#ff0000" d="M154.5,-292C154.5,-292 89.5,-292 89.5,-292 83.5,-292 77.5,-286 77.5,-280 77.5,-280 77.5,-268 77.5,-268 77.5,-262 83.5,-256 89.5,-256 89.5,-256 154.5,-256 154.5,-256 160.5,-256 166.5,-262 166.5,-268 166.5,-268 166.5,-280 166.5,-280 166.5,-286 160.5,-292 154.5,-292"/>
<text text-anchor="middle" x="122" y="-270.3" font-family="Times,serif" font-size="14.00" fill="#00f2ff">Formal Error</text>
</g>
<!-- Script -->
<g id="node2" class="node">
<title>Script</title>
<path fill="#161b22" stroke="#ffff00" d="M132,-219C132,-219 12,-219 12,-219 6,-219 0,-213 0,-207 0,-207 0,-195 0,-195 0,-189 6,-183 12,-183 12,-183 132,-183 132,-183 138,-183 144,-189 144,-195 144,-195 144,-207 144,-207 144,-213 138,-219 132,-219"/>
<text text-anchor="middle" x="72" y="-197.3" font-family="Times,serif" font-size="14.00" fill="#00f2ff">self_correction_loop.sh</text>
</g>
<!-- Error&#45;&gt;Script -->
<g id="edge1" class="edge">
<title>Error&#45;&gt;Script</title>
<path fill="none" stroke="#ff00ff" d="M109.9,-255.81C103.88,-247.27 96.49,-236.77 89.83,-227.32"/>
<polygon fill="#ff00ff" stroke="#ff00ff" points="83.99,-219.03 93.43,-224.61 86.87,-223.12 89.75,-227.2 89.75,-227.2 89.75,-227.2 86.87,-223.12 86.07,-229.8 83.99,-219.03 83.99,-219.03"/>
</g>
<!-- Fix -->
<g id="node3" class="node">
<title>Fix</title>
<path fill="#161b22" stroke="#00f2ff" d="M127.5,-132C127.5,-132 44.5,-132 44.5,-132 38.5,-132 32.5,-126 32.5,-120 32.5,-120 32.5,-108 32.5,-108 32.5,-102 38.5,-96 44.5,-96 44.5,-96 127.5,-96 127.5,-96 133.5,-96 139.5,-102 139.5,-108 139.5,-108 139.5,-120 139.5,-120 139.5,-126 133.5,-132 127.5,-132"/>
<text text-anchor="middle" x="86" y="-110.3" font-family="Times,serif" font-size="14.00" fill="#00f2ff">AI Proposed Fix</text>
</g>
<!-- Script&#45;&gt;Fix -->
<g id="edge2" class="edge">
<title>Script&#45;&gt;Fix</title>
<path fill="none" stroke="#ff00ff" d="M74.83,-182.8C76.75,-171.16 79.32,-155.55 81.51,-142.24"/>
<polygon fill="#ff00ff" stroke="#ff00ff" points="83.17,-132.18 85.99,-142.77 82.36,-137.11 81.55,-142.04 81.55,-142.04 81.55,-142.04 82.36,-137.11 77.11,-141.31 83.17,-132.18 83.17,-132.18"/>
</g>
<!-- ReVerify -->
<g id="node4" class="node">
<title>ReVerify</title>
<path fill="#161b22" stroke="#00ff00" d="M171,-59C171,-59 87,-59 87,-59 81,-59 75,-53 75,-47 75,-47 75,-35 75,-35 75,-29 81,-23 87,-23 87,-23 171,-23 171,-23 177,-23 183,-29 183,-35 183,-35 183,-47 183,-47 183,-53 177,-59 171,-59"/>
<text text-anchor="middle" x="129" y="-37.3" font-family="Times,serif" font-size="14.00" fill="#00f2ff">Verification Pass</text>
</g>
<!-- Fix&#45;&gt;ReVerify -->
<g id="edge3" class="edge">
<title>Fix&#45;&gt;ReVerify</title>
<path fill="none" stroke="#ff00ff" d="M96.41,-95.81C101.53,-87.35 107.81,-76.98 113.49,-67.61"/>
<polygon fill="#ff00ff" stroke="#ff00ff" points="118.69,-59.03 117.36,-69.91 116.1,-63.31 113.51,-67.58 113.51,-67.58 113.51,-67.58 116.1,-63.31 109.66,-65.25 118.69,-59.03 118.69,-59.03"/>
</g>
<!-- ReVerify&#45;&gt;Error -->
<g id="edge4" class="edge">
<title>ReVerify&#45;&gt;Error</title>
<path fill="none" stroke="#ff00ff" d="M136.43,-59.16C140.6,-69.6 145.46,-83.33 148,-96 153.67,-124.27 158.47,-198.47 153,-219 150.42,-228.66 145.66,-238.4 140.63,-246.89"/>
<polygon fill="#ff00ff" stroke="#ff00ff" points="135.15,-255.55 136.69,-244.69 137.82,-251.32 140.49,-247.1 140.49,-247.1 140.49,-247.1 137.82,-251.32 144.3,-249.5 135.15,-255.55 135.15,-255.55"/>
<text text-anchor="middle" x="172" y="-153.8" font-family="Times,serif" font-size="14.00"> Fails </text>
</g>
</g>
</svg>
