<?xml version="1.0" encoding="UTF-8" standalone="no"?>
<!DOCTYPE svg PUBLIC "-//W3C//DTD SVG 1.1//EN"
 "http://www.w3.org/Graphics/SVG/1.1/DTD/svg11.dtd">
<!-- Generated by graphviz version 2.43.0 (0)
 -->
<!-- Title: SubSwap Pages: 1 -->
<svg width="205pt" height="283pt"
 viewBox="0.00 0.00 205.00 283.00" xmlns="http://www.w3.org/2000/svg" xmlns:xlink="http://www.w3.org/1999/xlink">
<g id="graph0" class="graph" transform="scale(1 1) rotate(0) translate(4 279)">
<title>SubSwap</title>
<polygon fill="#0d1117" stroke="transparent" points="-4,4 -4,-279 201,-279 201,4 -4,4"/>
<text text-anchor="middle" x="98.5" y="-7.8" font-family="Helvetica,sans-Serif" font-size="14.00" fill="#00f2ff">I.2.5: Model Weight Swapping</text>
<!-- Current -->
<g id="node1" class="node">
<title>Current</title>
<path fill="#161b22" stroke="#00f2ff" d="M143,-275C143,-275 54,-275 54,-275 48,-275 42,-269 42,-263 42,-263 42,-251 42,-251 42,-245 48,-239 54,-239 54,-239 143,-239 143,-239 149,-239 155,-245 155,-251 155,-251 155,-263 155,-263 155,-269 149,-275 143,-275"/>
<text text-anchor="middle" x="98.5" y="-253.3" font-family="Times,serif" font-size="14.00" fill="#00f2ff">Model A (Active)</text>
</g>
<!-- Request -->
<g id="node2" class="node">
<title>Request</title>
<polygon fill="#161b22" stroke="#00f2ff" points="143,-197 42,-197 42,-173 143,-173 155,-185 143,-197"/>
<text text-anchor="middle" x="98.5" y="-181.3" font-family="Times,serif" font-size="14.00" fill="#00f2ff">Model B Request</text>
</g>
<!-- Current&#45;&gt;Request -->
<g id="edge1" class="edge">
<title>Current&#45;&gt;Request</title>
<path fill="none" stroke="#ff00ff" d="M98.5,-238.7C98.5,-230.98 98.5,-221.71 98.5,-213.11"/>
<polygon fill="#ff00ff" stroke="#ff00ff" points="98.5,-203.1 103,-213.1 98.5,-208.1 98.5,-213.1 98.5,-213.1 98.5,-213.1 98.5,-208.1 94,-213.1 98.5,-203.1 98.5,-203.1"/>
</g>
<!-- Unload -->
<g id="node3" class="node">
<title>Unload</title>
<path fill="#161b22" stroke="#ff0000" d="M121,-131C121,-131 76,-131 76,-131 70,-131 64,-125 64,-119 64,-119 64,-107 64,-107 64,-101 70,-95 76,-95 76,-95 121,-95 121,-95 127,-95 133,-101 133,-107 133,-107 133,-119 133,-119 133,-125 127,-131 121,-131"/>
<text text-anchor="middle" x="98.5" y="-109.3" font-family="Times,serif" font-size="14.00" fill="#00f2ff">Unload A</text>
</g>
<!-- Request&#45;&gt;Unload -->
<g id="edge2" class="edge">
<title>Request&#45;&gt;Unload</title>
<path fill="none" stroke="#ff00ff" d="M98.5,-166.7C98.5,-158.98 98.5,-149.71 98.5,-141.11"/>
<polygon fill="#ff00ff" stroke="#ff00ff" points="98.5,-131.1 103,-141.1 98.5,-136.1 98.5,-141.1 98.5,-141.1 98.5,-141.1 98.5,-136.1 94,-141.1 98.5,-131.1 98.5,-131.1"/>
</g>
<!-- Load -->
<g id="node4" class="node">
<title>Load</title>
<path fill="#161b22" stroke="#00ff00" d="M115,-59C115,-59 82,-59 82,-59 76,-59 70,-53 70,-47 70,-47 70,-35 70,-35 70,-29 76,-23 82,-23 82,-23 115,-23 115,-23 121,-23 127,-29 127,-35 127,-35 127,-47 127,-47 127,-53 121,-59 115,-59"/>
<text text-anchor="middle" x="98.5" y="-37.3" font-family="Times,serif" font-size="14.00" fill="#00f2ff">Load B</text>
</g>
<!-- Unload&#45;&gt;Load -->
<g id="edge3" class="edge">
<title>Unload&#45;&gt;Load</title>
<path fill="none" stroke="#ff00ff" d="M98.5,-94.7C98.5,-86.98 98.5,-77.71 98.5,-69.11"/>
<polygon fill="#ff00ff" stroke="#ff00ff" points="98.5,-59.1 103,-69.1 98.5,-64.1 98.5,-69.1 98.5,-69.1 98.5,-69.1 98.5,-64.1 94,-69.1 98.5,-59.1 98.5,-59.1"/>
</g>
</g>
</svg>
