<?xml version="1.0" encoding="UTF-8" standalone="no"?>
<!DOCTYPE svg PUBLIC "-//W3C//DTD SVG 1.1//EN"
 "http://www.w3.org/Graphics/SVG/1.1/DTD/svg11.dtd">
<!-- Generated by graphviz version 2.43.0 (0)
 -->
<!-- Title: SinCore Pages: 1 -->
<svg width="435pt" height="509pt"
 viewBox="0.00 0.00 434.74 508.85" xmlns="http://www.w3.org/2000/svg" xmlns:xlink="http://www.w3.org/1999/xlink">
<g id="graph0" class="graph" transform="scale(1 1) rotate(0) translate(4 504.85)">
<title>SinCore</title>
<polygon fill="#0d1117" stroke="transparent" points="-4,4 -4,-504.85 430.74,-504.85 430.74,4 -4,4"/>
<text text-anchor="middle" x="213.37" y="-7.8" font-family="Helvetica,sans-Serif" font-size="14.00" fill="#00f2ff">I.5.1: Kinetic Core Fusion</text>
<!-- Controller -->
<g id="node1" class="node">
<title>Controller</title>
<path fill="#161b22" stroke="#00f2ff" d="M187.37,-500.85C187.37,-500.85 113.37,-500.85 113.37,-500.85 107.37,-500.85 101.37,-494.85 101.37,-488.85 101.37,-488.85 101.37,-476.85 101.37,-476.85 101.37,-470.85 107.37,-464.85 113.37,-464.85 113.37,-464.85 187.37,-464.85 187.37,-464.85 193.37,-464.85 199.37,-470.85 199.37,-476.85 199.37,-476.85 199.37,-488.85 199.37,-488.85 199.37,-494.85 193.37,-500.85 187.37,-500.85"/>
<text text-anchor="middle" x="150.37" y="-479.15" font-family="Times,serif" font-size="14.00" fill="#00f2ff">Controller TUI</text>
</g>
<!-- Fusion -->
<g id="node3" class="node">
<title>Fusion</title>
<path fill="#161b22" stroke="#ffffff" stroke-width="4" d="M414.61,-273.81C414.61,-273.81 275.71,-273.81 275.71,-273.81 269.71,-273.81 261.86,-279.52 260,-285.23 260,-285.23 217.08,-417.37 217.08,-417.37 215.22,-423.07 211.52,-423.07 209.66,-417.37 209.66,-417.37 166.74,-285.23 166.74,-285.23 164.88,-279.52 157.03,-273.81 151.03,-273.81 151.03,-273.81 12.13,-273.81 12.13,-273.81 6.13,-273.81 4.98,-270.29 9.84,-266.76 9.84,-266.76 122.21,-185.09 122.21,-185.09 127.07,-181.57 130.07,-172.33 128.21,-166.63 128.21,-166.63 85.29,-34.49 85.29,-34.49 83.43,-28.78 86.43,-26.6 91.29,-30.13 91.29,-30.13 203.66,-111.79 203.66,-111.79 208.52,-115.32 218.22,-115.32 223.08,-111.79 223.08,-111.79 335.45,-30.13 335.45,-30.13 340.31,-26.6 343.31,-28.78 341.45,-34.49 341.45,-34.49 298.53,-166.63 298.53,-166.63 296.67,-172.33 299.67,-181.57 304.53,-185.09 304.53,-185.09 416.9,-266.76 416.9,-266.76 421.76,-270.29 420.61,-273.81 414.61,-273.81"/>
<text text-anchor="middle" x="213.37" y="-222.23" font-family="Times,serif" font-size="14.00" fill="#00f2ff">KINETIC CORE FUSION</text>
</g>
<!-- Controller&#45;&gt;Fusion -->
<g id="edge1" class="edge">
<title>Controller&#45;&gt;Fusion</title>
<path fill="none" stroke="#ff00ff" d="M154.6,-464.73C160.46,-441.02 171.57,-396.05 182.57,-351.55"/>
<polygon fill="#ff00ff" stroke="#ff00ff" points="184.99,-341.76 186.96,-352.55 183.79,-346.62 182.59,-351.47 182.59,-351.47 182.59,-351.47 183.79,-346.62 178.22,-350.39 184.99,-341.76 184.99,-341.76"/>
</g>
<!-- Substrates -->
<g id="node2" class="node">
<title>Substrates</title>
<path fill="#161b22" stroke="#00f2ff" d="M325.37,-500.85C325.37,-500.85 229.37,-500.85 229.37,-500.85 223.37,-500.85 217.37,-494.85 217.37,-488.85 217.37,-488.85 217.37,-476.85 217.37,-476.85 217.37,-470.85 223.37,-464.85 229.37,-464.85 229.37,-464.85 325.37,-464.85 325.37,-464.85 331.37,-464.85 337.37,-470.85 337.37,-476.85 337.37,-476.85 337.37,-488.85 337.37,-488.85 337.37,-494.85 331.37,-500.85 325.37,-500.85"/>
<text text-anchor="middle" x="277.37" y="-479.15" font-family="Times,serif" font-size="14.00" fill="#00f2ff">Agent Foundations</text>
</g>
<!-- Substrates&#45;&gt;Fusion -->
<g id="edge2" class="edge">
<title>Substrates&#45;&gt;Fusion</title>
<path fill="none" stroke="#ff00ff" d="M273.07,-464.73C267.09,-440.91 255.73,-395.66 244.51,-350.96"/>
<polygon fill="#ff00ff" stroke="#ff00ff" points="242.04,-341.14 248.84,-349.74 243.26,-345.99 244.48,-350.84 244.48,-350.84 244.48,-350.84 243.26,-345.99 240.11,-351.93 242.04,-341.14 242.04,-341.14"/>
</g>
</g>
</svg>
