<?xml version="1.0" encoding="UTF-8" standalone="no"?>
<!DOCTYPE svg PUBLIC "-//W3C//DTD SVG 1.1//EN"
 "http://www.w3.org/Graphics/SVG/1.1/DTD/svg11.dtd">
<!-- Generated by graphviz version 2.43.0 (0)
 -->
<!-- Title: IntTelemetry Pages: 1 -->
<svg width="366pt" height="162pt"
 viewBox="0.00 0.00 366.00 162.00" xmlns="http://www.w3.org/2000/svg" xmlns:xlink="http://www.w3.org/1999/xlink">
<g id="graph0" class="graph" transform="scale(1 1) rotate(0) translate(4 158)">
<title>IntTelemetry</title>
<polygon fill="#0d1117" stroke="transparent" points="-4,4 -4,-158 362,-158 362,4 -4,4"/>
<text text-anchor="middle" x="179" y="-7.8" font-family="Helvetica,sans-Serif" font-size="14.00" fill="#00f2ff">I3: Telemetry Aggregation Path</text>
<!-- Ollama -->
<g id="node1" class="node">
<title>Ollama</title>
<path fill="#161b22" stroke="#00f2ff" d="M98,-154C98,-154 12,-154 12,-154 6,-154 0,-148 0,-142 0,-142 0,-130 0,-130 0,-124 6,-118 12,-118 12,-118 98,-118 98,-118 104,-118 110,-124 110,-130 110,-130 110,-142 110,-142 110,-148 104,-154 98,-154"/>
<text text-anchor="middle" x="55" y="-132.3" font-family="Times,serif" font-size="14.00" fill="#00f2ff">Inference Engine</text>
</g>
<!-- Controller -->
<g id="node4" class="node">
<title>Controller</title>
<path fill="#161b22" stroke="#00ff00" d="M273.05,-42.51C273.05,-42.51 273.05,-47.49 273.05,-47.49 273.05,-49.97 270.6,-52.92 268.16,-53.39 268.16,-53.39 222.84,-62.07 222.84,-62.07 220.4,-62.53 215.47,-63 212.98,-63 212.98,-63 145.02,-63 145.02,-63 142.53,-63 137.6,-62.53 135.16,-62.07 135.16,-62.07 89.84,-53.39 89.84,-53.39 87.4,-52.92 84.95,-49.97 84.95,-47.49 84.95,-47.49 84.95,-42.51 84.95,-42.51 84.95,-40.03 87.4,-37.08 89.84,-36.61 89.84,-36.61 135.16,-27.93 135.16,-27.93 137.6,-27.47 142.53,-27 145.02,-27 145.02,-27 212.98,-27 212.98,-27 215.47,-27 220.4,-27.47 222.84,-27.93 222.84,-27.93 268.16,-36.61 268.16,-36.61 270.6,-37.08 273.05,-40.03 273.05,-42.51"/>
<path fill="none" stroke="#00ff00" d="M277.04,-41.41C277.04,-41.41 277.04,-48.59 277.04,-48.59 277.04,-52.18 273.51,-56.44 269.99,-57.11 269.99,-57.11 225.38,-65.65 225.38,-65.65 221.86,-66.33 214.74,-67 211.16,-67 211.16,-67 146.84,-67 146.84,-67 143.26,-67 136.14,-66.33 132.62,-65.65 132.62,-65.65 88.01,-57.11 88.01,-57.11 84.49,-56.44 80.96,-52.18 80.96,-48.59 80.96,-48.59 80.96,-41.41 80.96,-41.41 80.96,-37.82 84.49,-33.56 88.01,-32.89 88.01,-32.89 132.62,-24.35 132.62,-24.35 136.14,-23.67 143.26,-23 146.84,-23 146.84,-23 211.16,-23 211.16,-23 214.74,-23 221.86,-23.67 225.38,-24.35 225.38,-24.35 269.99,-32.89 269.99,-32.89 273.51,-33.56 277.04,-37.82 277.04,-41.41"/>
<text text-anchor="middle" x="179" y="-41.3" font-family="Times,serif" font-size="14.00" fill="#00f2ff">Controller Dashboard</text>
</g>
<!-- Ollama&#45;&gt;Controller -->
<g id="edge1" class="edge">
<title>Ollama&#45;&gt;Controller</title>
<path fill="none" stroke="#ff00ff" d="M67.43,-117.68C75.54,-107.26 86.86,-94.25 99,-85 106.05,-79.62 113.96,-74.7 122,-70.29"/>
<polygon fill="#ff00ff" stroke="#ff00ff" points="131.07,-65.54 124.3,-74.16 126.64,-67.86 122.22,-70.17 122.22,-70.17 122.22,-70.17 126.64,-67.86 120.13,-66.19 131.07,-65.54 131.07,-65.54"/>
<text text-anchor="middle" x="137" y="-88.8" font-family="Times,serif" font-size="14.00"> Token Rates </text>
</g>
<!-- Nvidia -->
<g id="node2" class="node">
<title>Nvidia</title>
<path fill="#161b22" stroke="#00f2ff" d="M217.5,-154C217.5,-154 140.5,-154 140.5,-154 134.5,-154 128.5,-148 128.5,-142 128.5,-142 128.5,-130 128.5,-130 128.5,-124 134.5,-118 140.5,-118 140.5,-118 217.5,-118 217.5,-118 223.5,-118 229.5,-124 229.5,-130 229.5,-130 229.5,-142 229.5,-142 229.5,-148 223.5,-154 217.5,-154"/>
<text text-anchor="middle" x="179" y="-132.3" font-family="Times,serif" font-size="14.00" fill="#00f2ff">GPU Hardware</text>
</g>
<!-- Nvidia&#45;&gt;Controller -->
<g id="edge2" class="edge">
<title>Nvidia&#45;&gt;Controller</title>
<path fill="none" stroke="#ff00ff" d="M179,-117.84C179,-106.44 179,-91.13 179,-77.58"/>
<polygon fill="#ff00ff" stroke="#ff00ff" points="179,-67.19 183.5,-77.19 179,-72.19 179,-77.19 179,-77.19 179,-77.19 179,-72.19 174.5,-77.19 179,-67.19 179,-67.19"/>
<text text-anchor="middle" x="220" y="-88.8" font-family="Times,serif" font-size="14.00"> VRAM HUD </text>
</g>
<!-- Git -->
<g id="node3" class="node">
<title>Git</title>
<path fill="#161b22" stroke="#00f2ff" d="M322,-154C322,-154 260,-154 260,-154 254,-154 248,-148 248,-142 248,-142 248,-130 248,-130 248,-124 254,-118 260,-118 260,-118 322,-118 322,-118 328,-118 334,-124 334,-130 334,-130 334,-142 334,-142 334,-148 328,-154 322,-154"/>
<text text-anchor="middle" x="291" y="-132.3" font-family="Times,serif" font-size="14.00" fill="#00f2ff">Project State</text>
</g>
<!-- Git&#45;&gt;Controller -->
<g id="edge3" class="edge">
<title>Git&#45;&gt;Controller</title>
<path fill="none" stroke="#ff00ff" d="M285.4,-117.9C281.19,-107.29 274.52,-94.02 265,-85 258.45,-78.79 250.73,-73.45 242.66,-68.88"/>
<polygon fill="#ff00ff" stroke="#ff00ff" points="233.8,-64.24 244.74,-64.9 238.22,-66.56 242.65,-68.88 242.65,-68.88 242.65,-68.88 238.22,-66.56 240.56,-72.87 233.8,-64.24 233.8,-64.24"/>
<text text-anchor="middle" x="317" y="-88.8" font-family="Times,serif" font-size="14.00"> Alignment % </text>
</g>
</g>
</svg>
