<?xml version="1.0" encoding="UTF-8" standalone="no"?>
<!DOCTYPE svg PUBLIC "-//W3C//DTD SVG 1.1//EN"
 "http://www.w3.org/Graphics/SVG/1.1/DTD/svg11.dtd">
<!-- Generated by graphviz version 2.43.0 (0)
 -->
<!-- Title: SinTool Pages: 1 -->
<svg width="260pt" height="213pt"
 viewBox="0.00 0.00 259.50 213.00" xmlns="http://www.w3.org/2000/svg" xmlns:xlink="http://www.w3.org/1999/xlink">
<g id="graph0" class="graph" transform="scale(1 1) rotate(0) translate(4 209)">
<title>SinTool</title>
<polygon fill="#0d1117" stroke="transparent" points="-4,4 -4,-209 255.5,-209 255.5,4 -4,4"/>
<text text-anchor="middle" x="125.75" y="-7.8" font-family="Helvetica,sans-Serif" font-size="14.00" fill="#00f2ff">I.5.4: Recursive Tool Synthesis</text>
<!-- Framework -->
<g id="node1" class="node">
<title>Framework</title>
<path fill="#161b22" stroke="#00f2ff" d="M185,-205C185,-205 84,-205 84,-205 78,-205 72,-199 72,-193 72,-193 72,-181 72,-181 72,-175 78,-169 84,-169 84,-169 185,-169 185,-169 191,-169 197,-175 197,-181 197,-181 197,-193 197,-193 197,-199 191,-205 185,-205"/>
<text text-anchor="middle" x="134.5" y="-183.3" font-family="Times,serif" font-size="14.00" fill="#00f2ff">Current Framework</text>
</g>
<!-- Synthesis -->
<g id="node2" class="node">
<title>Synthesis</title>
<path fill="#161b22" stroke="#ffff00" d="M143,-132C143,-132 12,-132 12,-132 6,-132 0,-126 0,-120 0,-120 0,-108 0,-108 0,-102 6,-96 12,-96 12,-96 143,-96 143,-96 149,-96 155,-102 155,-108 155,-108 155,-120 155,-120 155,-126 149,-132 143,-132"/>
<text text-anchor="middle" x="77.5" y="-110.3" font-family="Times,serif" font-size="14.00" fill="#00f2ff">Recursive Tool Synthesis</text>
</g>
<!-- Framework&#45;&gt;Synthesis -->
<g id="edge1" class="edge">
<title>Framework&#45;&gt;Synthesis</title>
<path fill="none" stroke="#ff00ff" d="M120.7,-168.81C113.77,-160.18 105.24,-149.56 97.6,-140.03"/>
<polygon fill="#ff00ff" stroke="#ff00ff" points="91.17,-132.03 100.94,-137.01 94.3,-135.93 97.43,-139.83 97.43,-139.83 97.43,-139.83 94.3,-135.93 93.92,-142.64 91.17,-132.03 91.17,-132.03"/>
</g>
<!-- NewTools -->
<g id="node3" class="node">
<title>NewTools</title>
<path fill="#161b22" stroke="#00ff00" d="M182.5,-59C182.5,-59 86.5,-59 86.5,-59 80.5,-59 74.5,-53 74.5,-47 74.5,-47 74.5,-35 74.5,-35 74.5,-29 80.5,-23 86.5,-23 86.5,-23 182.5,-23 182.5,-23 188.5,-23 194.5,-29 194.5,-35 194.5,-35 194.5,-47 194.5,-47 194.5,-53 188.5,-59 182.5,-59"/>
<text text-anchor="middle" x="134.5" y="-37.3" font-family="Times,serif" font-size="14.00" fill="#00f2ff">vNext Utility Suite</text>
</g>
<!-- Synthesis&#45;&gt;NewTools -->
<g id="edge2" class="edge">
<title>Synthesis&#45;&gt;NewTools</title>
<path fill="none" stroke="#ff00ff" d="M91.3,-95.81C98.23,-87.18 106.76,-76.56 114.4,-67.03"/>
<polygon fill="#ff00ff" stroke="#ff00ff" points="120.83,-59.03 118.08,-69.64 117.7,-62.93 114.57,-66.83 114.57,-66.83 114.57,-66.83 117.7,-62.93 111.06,-64.01 120.83,-59.03 120.83,-59.03"/>
</g>
<!-- NewTools&#45;&gt;Framework -->
<g id="edge3" class="edge">
<title>NewTools&#45;&gt;Framework</title>
<path fill="none" stroke="#ff00ff" stroke-dasharray="5,2" d="M146.51,-59.09C152.93,-69.29 160.18,-82.79 163.5,-96 167.4,-111.52 167.4,-116.48 163.5,-132 161.06,-141.7 156.5,-151.56 151.71,-160.15"/>
<polygon fill="#ff00ff" stroke="#ff00ff" points="146.51,-168.91 147.75,-158.01 149.06,-164.61 151.61,-160.31 151.61,-160.31 151.61,-160.31 149.06,-164.61 155.48,-162.61 146.51,-168.91 146.51,-168.91"/>
<text text-anchor="middle" x="209" y="-110.3" font-family="Times,serif" font-size="14.00"> Self&#45;Augment </text>
</g>
</g>
</svg>
