<?xml version="1.0" encoding="UTF-8" standalone="no"?>
<!DOCTYPE svg PUBLIC "-//W3C//DTD SVG 1.1//EN"
 "http://www.w3.org/Graphics/SVG/1.1/DTD/svg11.dtd">
<!-- Generated by graphviz version 2.43.0 (0)
 -->
<!-- Title: ForAnomaly Pages: 1 -->
<svg width="264pt" height="227pt"
 viewBox="0.00 0.00 264.00 227.00" xmlns="http://www.w3.org/2000/svg" xmlns:xlink="http://www.w3.org/1999/xlink">
<g id="graph0" class="graph" transform="scale(1 1) rotate(0) translate(4 223)">
<title>ForAnomaly</title>
<polygon fill="#0d1117" stroke="transparent" points="-4,4 -4,-223 260,-223 260,4 -4,4"/>
<text text-anchor="middle" x="128" y="-7.8" font-family="Helvetica,sans-Serif" font-size="14.00" fill="#00f2ff">I.3.5: Anomaly Alerting Pipeline</text>
<!-- Pattern -->
<g id="node1" class="node">
<title>Pattern</title>
<path fill="#161b22" stroke="#00f2ff" d="M101,-219C101,-219 12,-219 12,-219 6,-219 0,-213 0,-207 0,-207 0,-195 0,-195 0,-189 6,-183 12,-183 12,-183 101,-183 101,-183 107,-183 113,-189 113,-195 113,-195 113,-207 113,-207 113,-213 107,-219 101,-219"/>
<text text-anchor="middle" x="56.5" y="-197.3" font-family="Times,serif" font-size="14.00" fill="#00f2ff">Forensic Baseline</text>
</g>
<!-- Detector -->
<g id="node3" class="node">
<title>Detector</title>
<path fill="#161b22" stroke="#ffff00" d="M112.66,-144.03C112.66,-144.03 27.92,-129.97 27.92,-129.97 22,-128.98 22,-127.02 27.92,-126.03 27.92,-126.03 112.66,-111.97 112.66,-111.97 118.58,-110.98 130.42,-110.98 136.34,-111.97 136.34,-111.97 221.08,-126.03 221.08,-126.03 227,-127.02 227,-128.98 221.08,-129.97 221.08,-129.97 136.34,-144.03 136.34,-144.03 130.42,-145.02 118.58,-145.02 112.66,-144.03"/>
<text text-anchor="middle" x="124.5" y="-124.3" font-family="Times,serif" font-size="14.00" fill="#00f2ff">Anomaly Detector</text>
</g>
<!-- Pattern&#45;&gt;Detector -->
<g id="edge1" class="edge">
<title>Pattern&#45;&gt;Detector</title>
<path fill="none" stroke="#ff00ff" d="M72.96,-182.81C81.98,-173.39 93.27,-161.61 102.98,-151.47"/>
<polygon fill="#ff00ff" stroke="#ff00ff" points="110.04,-144.1 106.37,-154.44 106.58,-147.71 103.12,-151.32 103.12,-151.32 103.12,-151.32 106.58,-147.71 99.87,-148.21 110.04,-144.1 110.04,-144.1"/>
</g>
<!-- Input -->
<g id="node2" class="node">
<title>Input</title>
<path fill="#161b22" stroke="#00f2ff" d="M244,-219C244,-219 143,-219 143,-219 137,-219 131,-213 131,-207 131,-207 131,-195 131,-195 131,-189 137,-183 143,-183 143,-183 244,-183 244,-183 250,-183 256,-189 256,-195 256,-195 256,-207 256,-207 256,-213 250,-219 244,-219"/>
<text text-anchor="middle" x="193.5" y="-197.3" font-family="Times,serif" font-size="14.00" fill="#00f2ff">Live Metric Stream</text>
</g>
<!-- Input&#45;&gt;Detector -->
<g id="edge2" class="edge">
<title>Input&#45;&gt;Detector</title>
<path fill="none" stroke="#ff00ff" d="M176.8,-182.81C167.64,-173.39 156.19,-161.61 146.33,-151.47"/>
<polygon fill="#ff00ff" stroke="#ff00ff" points="139.18,-144.1 149.37,-148.14 142.66,-147.69 146.14,-151.27 146.14,-151.27 146.14,-151.27 142.66,-147.69 142.92,-154.41 139.18,-144.1 139.18,-144.1"/>
</g>
<!-- Alert -->
<g id="node4" class="node">
<title>Alert</title>
<path fill="#161b22" stroke="#ff0000" d="M168,-59C168,-59 81,-59 81,-59 75,-59 69,-53 69,-47 69,-47 69,-35 69,-35 69,-29 75,-23 81,-23 81,-23 168,-23 168,-23 174,-23 180,-29 180,-35 180,-35 180,-47 180,-47 180,-53 174,-59 168,-59"/>
<text text-anchor="middle" x="124.5" y="-37.3" font-family="Times,serif" font-size="14.00" fill="#00f2ff">HUD Alert / Bolt</text>
</g>
<!-- Detector&#45;&gt;Alert -->
<g id="edge3" class="edge">
<title>Detector&#45;&gt;Alert</title>
<path fill="none" stroke="#ff00ff" d="M124.5,-109.8C124.5,-98.16 124.5,-82.55 124.5,-69.24"/>
<polygon fill="#ff00ff" stroke="#ff00ff" points="124.5,-59.18 129,-69.18 124.5,-64.18 124.5,-69.18 124.5,-69.18 124.5,-69.18 124.5,-64.18 120,-69.18 124.5,-59.18 124.5,-59.18"/>
<text text-anchor="middle" x="173.5" y="-80.8" font-family="Times,serif" font-size="14.00"> Outlier Detected </text>
</g>
</g>
</svg>
