<?xml version="1.0" encoding="UTF-8" standalone="no"?>
<!DOCTYPE svg PUBLIC "-//W3C//DTD SVG 1.1//EN"
 "http://www.w3.org/Graphics/SVG/1.1/DTD/svg11.dtd">
<!-- Generated by graphviz version 2.43.0 (0)
 -->
<!-- Title: SinConsensus Pages: 1 -->
<svg width="255pt" height="219pt"
 viewBox="0.00 0.00 255.00 219.00" xmlns="http://www.w3.org/2000/svg" xmlns:xlink="http://www.w3.org/1999/xlink">
<g id="graph0" class="graph" transform="scale(1 1) rotate(0) translate(4 215)">
<title>SinConsensus</title>
<polygon fill="#0d1117" stroke="transparent" points="-4,4 -4,-215 251,-215 251,4 -4,4"/>
<text text-anchor="middle" x="123.5" y="-7.8" font-family="Helvetica,sans-Serif" font-size="14.00" fill="#00f2ff">I.5.2: Multi&#45;Agent Consensus Interface</text>
<!-- Proposal -->
<g id="node1" class="node">
<title>Proposal</title>
<path fill="#161b22" stroke="#00f2ff" d="M179.5,-211C179.5,-211 67.5,-211 67.5,-211 61.5,-211 55.5,-205 55.5,-199 55.5,-199 55.5,-187 55.5,-187 55.5,-181 61.5,-175 67.5,-175 67.5,-175 179.5,-175 179.5,-175 185.5,-175 191.5,-181 191.5,-187 191.5,-187 191.5,-199 191.5,-199 191.5,-205 185.5,-211 179.5,-211"/>
<text text-anchor="middle" x="123.5" y="-189.3" font-family="Times,serif" font-size="14.00" fill="#00f2ff">Multi&#45;Agent Proposal</text>
</g>
<!-- Interface -->
<g id="node2" class="node">
<title>Interface</title>
<path fill="#161b22" stroke="#ffff00" d="M219.76,-114.51C219.76,-114.51 219.76,-119.49 219.76,-119.49 219.76,-121.97 217.32,-124.91 214.88,-125.37 214.88,-125.37 168.26,-134.09 168.26,-134.09 165.82,-134.54 160.89,-135 158.4,-135 158.4,-135 88.6,-135 88.6,-135 86.11,-135 81.18,-134.54 78.74,-134.09 78.74,-134.09 32.12,-125.37 32.12,-125.37 29.68,-124.91 27.24,-121.97 27.24,-119.49 27.24,-119.49 27.24,-114.51 27.24,-114.51 27.24,-112.03 29.68,-109.09 32.12,-108.63 32.12,-108.63 78.74,-99.91 78.74,-99.91 81.18,-99.46 86.11,-99 88.6,-99 88.6,-99 158.4,-99 158.4,-99 160.89,-99 165.82,-99.46 168.26,-99.91 168.26,-99.91 214.88,-108.63 214.88,-108.63 217.32,-109.09 219.76,-112.03 219.76,-114.51"/>
<path fill="none" stroke="#ffff00" d="M223.76,-113.41C223.76,-113.41 223.76,-120.59 223.76,-120.59 223.76,-124.19 220.23,-128.44 216.69,-129.1 216.69,-129.1 170.81,-137.68 170.81,-137.68 167.27,-138.34 160.15,-139 156.56,-139 156.56,-139 90.44,-139 90.44,-139 86.85,-139 79.73,-138.34 76.19,-137.68 76.19,-137.68 30.31,-129.1 30.31,-129.1 26.77,-128.44 23.24,-124.19 23.24,-120.59 23.24,-120.59 23.24,-113.41 23.24,-113.41 23.24,-109.81 26.77,-105.56 30.31,-104.9 30.31,-104.9 76.19,-96.32 76.19,-96.32 79.73,-95.66 86.85,-95 90.44,-95 90.44,-95 156.56,-95 156.56,-95 160.15,-95 167.27,-95.66 170.81,-96.32 170.81,-96.32 216.69,-104.9 216.69,-104.9 220.23,-105.56 223.76,-109.81 223.76,-113.41"/>
<text text-anchor="middle" x="123.5" y="-113.3" font-family="Times,serif" font-size="14.00" fill="#00f2ff">Consensus Dashboard</text>
</g>
<!-- Proposal&#45;&gt;Interface -->
<g id="edge1" class="edge">
<title>Proposal&#45;&gt;Interface</title>
<path fill="none" stroke="#ff00ff" d="M123.5,-174.84C123.5,-167.16 123.5,-157.88 123.5,-149.05"/>
<polygon fill="#ff00ff" stroke="#ff00ff" points="123.5,-139.03 128,-149.03 123.5,-144.03 123.5,-149.03 123.5,-149.03 123.5,-149.03 123.5,-144.03 119,-149.03 123.5,-139.03 123.5,-139.03"/>
</g>
<!-- HumanApproval -->
<g id="node3" class="node">
<title>HumanApproval</title>
<path fill="#161b22" stroke="#00ff00" d="M111.63,-57.21C111.63,-57.21 15.89,-42.79 15.89,-42.79 9.95,-41.89 9.95,-40.11 15.89,-39.21 15.89,-39.21 111.63,-24.79 111.63,-24.79 117.57,-23.89 129.43,-23.89 135.37,-24.79 135.37,-24.79 231.11,-39.21 231.11,-39.21 237.05,-40.11 237.05,-41.89 231.11,-42.79 231.11,-42.79 135.37,-57.21 135.37,-57.21 129.43,-58.11 117.57,-58.11 111.63,-57.21"/>
<text text-anchor="middle" x="123.5" y="-37.3" font-family="Times,serif" font-size="14.00" fill="#00f2ff">Human +1 Approval</text>
</g>
<!-- Interface&#45;&gt;HumanApproval -->
<g id="edge2" class="edge">
<title>Interface&#45;&gt;HumanApproval</title>
<path fill="none" stroke="#ff00ff" d="M123.5,-94.99C123.5,-87.06 123.5,-77.91 123.5,-69.48"/>
<polygon fill="#ff00ff" stroke="#ff00ff" points="123.5,-59.31 128,-69.31 123.5,-64.31 123.5,-69.31 123.5,-69.31 123.5,-69.31 123.5,-64.31 119,-69.31 123.5,-59.31 123.5,-59.31"/>
</g>
</g>
</svg>
