<?xml version="1.0" encoding="UTF-8" standalone="no"?>
<!DOCTYPE svg PUBLIC "-//W3C//DTD SVG 1.1//EN"
 "http://www.w3.org/Graphics/SVG/1.1/DTD/svg11.dtd">
<!-- Generated by graphviz version 2.43.0 (0)
 -->
<!-- Title: AutRender Pages: 1 -->
<svg width="212pt" height="283pt"
 viewBox="0.00 0.00 212.00 283.00" xmlns="http://www.w3.org/2000/svg" xmlns:xlink="http://www.w3.org/1999/xlink">
<g id="graph0" class="graph" transform="scale(1 1) rotate(0) translate(4 279)">
<title>AutRender</title>
<polygon fill="#0d1117" stroke="transparent" points="-4,4 -4,-279 208,-279 208,4 -4,4"/>
<text text-anchor="middle" x="102" y="-7.8" font-family="Helvetica,sans-Serif" font-size="14.00" fill="#00f2ff">I.4.1: Recursive Render Engine</text>
<!-- Files -->
<g id="node1" class="node">
<title>Files</title>
<polygon fill="#161b22" stroke="#00f2ff" points="133,-275 65,-275 65,-239 139,-239 139,-269 133,-275"/>
<polyline fill="none" stroke="#00f2ff" points="133,-275 133,-269 "/>
<polyline fill="none" stroke="#00f2ff" points="139,-269 133,-269 "/>
<text text-anchor="middle" x="102" y="-253.3" font-family="Times,serif" font-size="14.00" fill="#00f2ff">*.dot Files</text>
</g>
<!-- Find -->
<g id="node2" class="node">
<title>Find</title>
<path fill="#161b22" stroke="#00f2ff" d="M184.18,-203C184.18,-203 58.36,-203 58.36,-203 52.36,-203 41.97,-198.9 37.59,-194.81 37.59,-194.81 16.59,-175.19 16.59,-175.19 12.2,-171.1 13.82,-167 19.82,-167 19.82,-167 145.64,-167 145.64,-167 151.64,-167 162.03,-171.1 166.41,-175.19 166.41,-175.19 187.41,-194.81 187.41,-194.81 191.8,-198.9 190.18,-203 184.18,-203"/>
<text text-anchor="middle" x="102" y="-181.3" font-family="Times,serif" font-size="14.00" fill="#00f2ff">Recursive Find</text>
</g>
<!-- Files&#45;&gt;Find -->
<g id="edge1" class="edge">
<title>Files&#45;&gt;Find</title>
<path fill="none" stroke="#ff00ff" d="M102,-238.7C102,-230.98 102,-221.71 102,-213.11"/>
<polygon fill="#ff00ff" stroke="#ff00ff" points="102,-203.1 106.5,-213.1 102,-208.1 102,-213.1 102,-213.1 102,-213.1 102,-208.1 97.5,-213.1 102,-203.1 102,-203.1"/>
</g>
<!-- Engine -->
<g id="node3" class="node">
<title>Engine</title>
<path fill="#161b22" stroke="#ffff00" d="M144.5,-131C144.5,-131 59.5,-131 59.5,-131 53.5,-131 47.5,-125 47.5,-119 47.5,-119 47.5,-107 47.5,-107 47.5,-101 53.5,-95 59.5,-95 59.5,-95 144.5,-95 144.5,-95 150.5,-95 156.5,-101 156.5,-107 156.5,-107 156.5,-119 156.5,-119 156.5,-125 150.5,-131 144.5,-131"/>
<text text-anchor="middle" x="102" y="-109.3" font-family="Times,serif" font-size="14.00" fill="#00f2ff">Graphviz Engine</text>
</g>
<!-- Find&#45;&gt;Engine -->
<g id="edge2" class="edge">
<title>Find&#45;&gt;Engine</title>
<path fill="none" stroke="#ff00ff" d="M102,-166.7C102,-158.98 102,-149.71 102,-141.11"/>
<polygon fill="#ff00ff" stroke="#ff00ff" points="102,-131.1 106.5,-141.1 102,-136.1 102,-141.1 102,-141.1 102,-141.1 102,-136.1 97.5,-141.1 102,-131.1 102,-131.1"/>
</g>
<!-- Renders -->
<g id="node4" class="node">
<title>Renders</title>
<path fill="#161b22" stroke="#00ff00" d="M131,-59C131,-59 73,-59 73,-59 67,-59 61,-53 61,-47 61,-47 61,-35 61,-35 61,-29 67,-23 73,-23 73,-23 131,-23 131,-23 137,-23 143,-29 143,-35 143,-35 143,-47 143,-47 143,-53 137,-59 131,-59"/>
<text text-anchor="middle" x="102" y="-37.3" font-family="Times,serif" font-size="14.00" fill="#00f2ff">SVG / PNG</text>
</g>
<!-- Engine&#45;&gt;Renders -->
<g id="edge3" class="edge">
<title>Engine&#45;&gt;Renders</title>
<path fill="none" stroke="#ff00ff" d="M102,-94.7C102,-86.98 102,-77.71 102,-69.11"/>
<polygon fill="#ff00ff" stroke="#ff00ff" points="102,-59.1 106.5,-69.1 102,-64.1 102,-69.1 102,-69.1 102,-69.1 102,-64.1 97.5,-69.1 102,-59.1 102,-59.1"/>
</g>
</g>
</svg>
