<?xml version="1.0" encoding="UTF-8" standalone="no"?>
<!DOCTYPE svg PUBLIC "-//W3C//DTD SVG 1.1//EN"
 "http://www.w3.org/Graphics/SVG/1.1/DTD/svg11.dtd">
<!-- Generated by graphviz version 2.43.0 (0)
 -->
<!-- Title: IntFutureOS Pages: 1 -->
<svg width="395pt" height="574pt"
 viewBox="0.00 0.00 395.47 573.50" xmlns="http://www.w3.org/2000/svg" xmlns:xlink="http://www.w3.org/1999/xlink">
<g id="graph0" class="graph" transform="scale(1 1) rotate(0) translate(4 569.5)">
<title>IntFutureOS</title>
<polygon fill="#0d1117" stroke="transparent" points="-4,4 -4,-569.5 391.47,-569.5 391.47,4 -4,4"/>
<text text-anchor="middle" x="193.73" y="-7.8" font-family="Helvetica,sans-Serif" font-size="14.00" fill="#00f2ff">I5: Evolution of the Hybrid Interface</text>
<!-- Controller -->
<g id="node1" class="node">
<title>Controller</title>
<path fill="#161b22" stroke="#00f2ff" d="M244.23,-565.5C244.23,-565.5 143.23,-565.5 143.23,-565.5 137.23,-565.5 131.23,-559.5 131.23,-553.5 131.23,-553.5 131.23,-541.5 131.23,-541.5 131.23,-535.5 137.23,-529.5 143.23,-529.5 143.23,-529.5 244.23,-529.5 244.23,-529.5 250.23,-529.5 256.23,-535.5 256.23,-541.5 256.23,-541.5 256.23,-553.5 256.23,-553.5 256.23,-559.5 250.23,-565.5 244.23,-565.5"/>
<text text-anchor="middle" x="193.73" y="-543.8" font-family="Times,serif" font-size="14.00" fill="#00f2ff">Current Python TUI</text>
</g>
<!-- Stage2 -->
<g id="node2" class="node">
<title>Stage2</title>
<path fill="#161b22" stroke="#ffff00" d="M254.73,-478.5C254.73,-478.5 132.73,-478.5 132.73,-478.5 126.73,-478.5 120.73,-472.5 120.73,-466.5 120.73,-466.5 120.73,-454.5 120.73,-454.5 120.73,-448.5 126.73,-442.5 132.73,-442.5 132.73,-442.5 254.73,-442.5 254.73,-442.5 260.73,-442.5 266.73,-448.5 266.73,-454.5 266.73,-454.5 266.73,-466.5 266.73,-466.5 266.73,-472.5 260.73,-478.5 254.73,-478.5"/>
<text text-anchor="middle" x="193.73" y="-456.8" font-family="Times,serif" font-size="14.00" fill="#00f2ff">Hybrid Integrated HUD</text>
</g>
<!-- Controller&#45;&gt;Stage2 -->
<g id="edge1" class="edge">
<title>Controller&#45;&gt;Stage2</title>
<path fill="none" stroke="#ff00ff" d="M193.73,-529.3C193.73,-517.67 193.73,-502.05 193.73,-488.74"/>
<polygon fill="#ff00ff" stroke="#ff00ff" points="193.73,-478.68 198.23,-488.68 193.73,-483.68 193.73,-488.68 193.73,-488.68 193.73,-488.68 193.73,-483.68 189.23,-488.68 193.73,-478.68 193.73,-478.68"/>
<text text-anchor="middle" x="230.23" y="-500.3" font-family="Times,serif" font-size="14.00"> Tool Fusion </text>
</g>
<!-- Stage3 -->
<g id="node3" class="node">
<title>Stage3</title>
<path fill="#161b22" stroke="#00ff00" stroke-width="3" d="M375.7,-250.69C375.7,-250.69 251.52,-250.69 251.52,-250.69 245.52,-250.69 237.67,-256.4 235.81,-262.1 235.81,-262.1 197.45,-379.85 197.45,-379.85 195.59,-385.55 191.88,-385.55 190.02,-379.85 190.02,-379.85 151.66,-262.1 151.66,-262.1 149.8,-256.4 141.94,-250.69 135.94,-250.69 135.94,-250.69 11.77,-250.69 11.77,-250.69 5.77,-250.69 4.62,-247.17 9.48,-243.65 9.48,-243.65 109.93,-170.86 109.93,-170.86 114.79,-167.34 117.79,-158.11 115.93,-152.4 115.93,-152.4 77.57,-34.66 77.57,-34.66 75.71,-28.95 78.71,-26.77 83.57,-30.29 83.57,-30.29 184.02,-103.08 184.02,-103.08 188.88,-106.6 198.59,-106.6 203.45,-103.08 203.45,-103.08 303.9,-30.29 303.9,-30.29 308.76,-26.77 311.76,-28.95 309.9,-34.66 309.9,-34.66 271.54,-152.4 271.54,-152.4 269.68,-158.11 272.68,-167.34 277.54,-170.86 277.54,-170.86 377.99,-243.65 377.99,-243.65 382.85,-247.17 381.7,-250.69 375.7,-250.69"/>
<text text-anchor="middle" x="193.73" y="-203.55" font-family="Times,serif" font-size="14.00" fill="#00f2ff">Pure Semantic Interface</text>
</g>
<!-- Stage2&#45;&gt;Stage3 -->
<g id="edge2" class="edge">
<title>Stage2&#45;&gt;Stage3</title>
<path fill="none" stroke="#ff00ff" d="M193.73,-442.24C193.73,-432.09 193.73,-418.1 193.73,-401.96"/>
<polygon fill="#ff00ff" stroke="#ff00ff" points="193.73,-391.64 198.23,-401.64 193.73,-396.64 193.73,-401.64 193.73,-401.64 193.73,-401.64 193.73,-396.64 189.23,-401.64 193.73,-391.64 193.73,-391.64"/>
<text text-anchor="middle" x="249.73" y="-413.3" font-family="Times,serif" font-size="14.00"> Axiom Dissolution </text>
</g>
</g>
</svg>
