<?xml version="1.0" encoding="UTF-8" standalone="no"?>
<!DOCTYPE svg PUBLIC "-//W3C//DTD SVG 1.1//EN"
 "http://www.w3.org/Graphics/SVG/1.1/DTD/svg11.dtd">
<!-- Generated by graphviz version 2.43.0 (0)
 -->
<!-- Title: LifeP5Finalize Pages: 1 -->
<svg width="288pt" height="513pt"
 viewBox="0.00 0.00 288.13 513.42" xmlns="http://www.w3.org/2000/svg" xmlns:xlink="http://www.w3.org/1999/xlink">
<g id="graph0" class="graph" transform="scale(1 1) rotate(0) translate(4 509.42)">
<title>LifeP5Finalize</title>
<polygon fill="#0d1117" stroke="transparent" points="-4,4 -4,-509.42 284.13,-509.42 284.13,4 -4,4"/>
<text text-anchor="middle" x="140.06" y="-7.8" font-family="Helvetica,sans-Serif" font-size="14.00" fill="#00f2ff">S2.5: Phase 5 &#45; Finalization &amp; Sync</text>
<!-- Elegant -->
<g id="node1" class="node">
<title>Elegant</title>
<path fill="#161b22" stroke="#00f2ff" d="M172.56,-505.42C172.56,-505.42 107.56,-505.42 107.56,-505.42 101.56,-505.42 95.56,-499.42 95.56,-493.42 95.56,-493.42 95.56,-481.42 95.56,-481.42 95.56,-475.42 101.56,-469.42 107.56,-469.42 107.56,-469.42 172.56,-469.42 172.56,-469.42 178.56,-469.42 184.56,-475.42 184.56,-481.42 184.56,-481.42 184.56,-493.42 184.56,-493.42 184.56,-499.42 178.56,-505.42 172.56,-505.42"/>
<text text-anchor="middle" x="140.06" y="-483.72" font-family="Times,serif" font-size="14.00" fill="#00f2ff">Final Artifact</text>
</g>
<!-- Docs -->
<g id="node2" class="node">
<title>Docs</title>
<polygon fill="#161b22" stroke="#00f2ff" points="210.06,-433.42 207.06,-437.42 186.06,-437.42 183.06,-433.42 70.06,-433.42 70.06,-397.42 210.06,-397.42 210.06,-433.42"/>
<text text-anchor="middle" x="140.06" y="-411.72" font-family="Times,serif" font-size="14.00" fill="#00f2ff">Session Logs / Visuals</text>
</g>
<!-- Elegant&#45;&gt;Docs -->
<g id="edge1" class="edge">
<title>Elegant&#45;&gt;Docs</title>
<path fill="none" stroke="#ff00ff" d="M140.06,-469.12C140.06,-461.4 140.06,-452.13 140.06,-443.53"/>
<polygon fill="#ff00ff" stroke="#ff00ff" points="140.06,-433.52 144.56,-443.52 140.06,-438.52 140.06,-443.52 140.06,-443.52 140.06,-443.52 140.06,-438.52 135.56,-443.52 140.06,-433.52 140.06,-433.52"/>
</g>
<!-- Sync -->
<g id="node3" class="node">
<title>Sync</title>
<path fill="#161b22" stroke="#00ff00" stroke-width="2" d="M185.06,-361.42C185.06,-361.42 95.06,-361.42 95.06,-361.42 89.06,-361.42 83.06,-355.42 83.06,-349.42 83.06,-349.42 83.06,-337.42 83.06,-337.42 83.06,-331.42 89.06,-325.42 95.06,-325.42 95.06,-325.42 185.06,-325.42 185.06,-325.42 191.06,-325.42 197.06,-331.42 197.06,-337.42 197.06,-337.42 197.06,-349.42 197.06,-349.42 197.06,-355.42 191.06,-361.42 185.06,-361.42"/>
<text text-anchor="middle" x="140.06" y="-339.72" font-family="Times,serif" font-size="14.00" fill="#00f2ff">Git Sync (master)</text>
</g>
<!-- Docs&#45;&gt;Sync -->
<g id="edge2" class="edge">
<title>Docs&#45;&gt;Sync</title>
<path fill="none" stroke="#ff00ff" d="M140.06,-397.12C140.06,-389.4 140.06,-380.13 140.06,-371.53"/>
<polygon fill="#ff00ff" stroke="#ff00ff" points="140.06,-361.52 144.56,-371.52 140.06,-366.52 140.06,-371.52 140.06,-371.52 140.06,-371.52 140.06,-366.52 135.56,-371.52 140.06,-361.52 140.06,-361.52"/>
</g>
<!-- Release -->
<g id="node4" class="node">
<title>Release</title>
<path fill="#161b22" stroke="#ffff00" d="M268.19,-187.71C268.19,-187.71 185.14,-187.71 185.14,-187.71 179.14,-187.71 171.29,-193.41 169.44,-199.12 169.44,-199.12 143.77,-278.22 143.77,-278.22 141.92,-283.92 138.21,-283.92 136.36,-278.22 136.36,-278.22 110.69,-199.12 110.69,-199.12 108.84,-193.41 100.98,-187.71 94.98,-187.71 94.98,-187.71 11.94,-187.71 11.94,-187.71 5.94,-187.71 4.79,-184.18 9.64,-180.65 9.64,-180.65 76.84,-131.77 76.84,-131.77 81.69,-128.24 84.69,-119.01 82.84,-113.3 82.84,-113.3 57.16,-34.2 57.16,-34.2 55.31,-28.5 58.31,-26.32 63.16,-29.85 63.16,-29.85 130.36,-78.72 130.36,-78.72 135.21,-82.25 144.92,-82.25 149.77,-78.72 149.77,-78.72 216.97,-29.85 216.97,-29.85 221.82,-26.32 224.82,-28.5 222.97,-34.2 222.97,-34.2 197.29,-113.3 197.29,-113.3 195.44,-119.01 198.44,-128.24 203.29,-131.77 203.29,-131.77 270.49,-180.65 270.49,-180.65 275.34,-184.18 274.19,-187.71 268.19,-187.71"/>
<text text-anchor="middle" x="140.06" y="-152.51" font-family="Times,serif" font-size="14.00" fill="#00f2ff">System State +1</text>
</g>
<!-- Sync&#45;&gt;Release -->
<g id="edge3" class="edge">
<title>Sync&#45;&gt;Release</title>
<path fill="none" stroke="#ff00ff" d="M140.06,-325.33C140.06,-318.34 140.06,-309.58 140.06,-299.75"/>
<polygon fill="#ff00ff" stroke="#ff00ff" points="140.06,-289.59 144.56,-299.59 140.06,-294.59 140.06,-299.59 140.06,-299.59 140.06,-299.59 140.06,-294.59 135.56,-299.59 140.06,-289.59 140.06,-289.59"/>
</g>
</g>
</svg>
