<?xml version="1.0" encoding="UTF-8" standalone="no"?>
<!DOCTYPE svg PUBLIC "-//W3C//DTD SVG 1.1//EN"
 "http://www.w3.org/Graphics/SVG/1.1/DTD/svg11.dtd">
<!-- Generated by graphviz version 2.43.0 (0)
 -->
<!-- Title: LifeP2Decomp Pages: 1 -->
<svg width="258pt" height="283pt"
 viewBox="0.00 0.00 258.00 283.00" xmlns="http://www.w3.org/2000/svg" xmlns:xlink="http://www.w3.org/1999/xlink">
<g id="graph0" class="graph" transform="scale(1 1) rotate(0) translate(4 279)">
<title>LifeP2Decomp</title>
<polygon fill="#0d1117" stroke="transparent" points="-4,4 -4,-279 254,-279 254,4 -4,4"/>
<text text-anchor="middle" x="125" y="-7.8" font-family="Helvetica,sans-Serif" font-size="14.00" fill="#00f2ff">S2.2: Phase 2 &#45; Formal Decomposition</text>
<!-- Objective -->
<g id="node1" class="node">
<title>Objective</title>
<path fill="#161b22" stroke="#00f2ff" d="M177,-275C177,-275 73,-275 73,-275 67,-275 61,-269 61,-263 61,-263 61,-251 61,-251 61,-245 67,-239 73,-239 73,-239 177,-239 177,-239 183,-239 189,-245 189,-251 189,-251 189,-263 189,-263 189,-269 183,-275 177,-275"/>
<text text-anchor="middle" x="125" y="-253.3" font-family="Times,serif" font-size="14.00" fill="#00f2ff">Objective Definition</text>
</g>
<!-- AI -->
<g id="node2" class="node">
<title>AI</title>
<path fill="#161b22" stroke="#00f2ff" stroke-width="2" d="M179,-203C179,-203 71,-203 71,-203 65,-203 59,-197 59,-191 59,-191 59,-179 59,-179 59,-173 65,-167 71,-167 71,-167 179,-167 179,-167 185,-167 191,-173 191,-179 191,-179 191,-191 191,-191 191,-197 185,-203 179,-203"/>
<text text-anchor="middle" x="125" y="-181.3" font-family="Times,serif" font-size="14.00" fill="#00f2ff">AI Formal Agent (ω)</text>
</g>
<!-- Objective&#45;&gt;AI -->
<g id="edge1" class="edge">
<title>Objective&#45;&gt;AI</title>
<path fill="none" stroke="#ff00ff" d="M125,-238.7C125,-230.98 125,-221.71 125,-213.11"/>
<polygon fill="#ff00ff" stroke="#ff00ff" points="125,-203.1 129.5,-213.1 125,-208.1 125,-213.1 125,-213.1 125,-213.1 125,-208.1 120.5,-213.1 125,-203.1 125,-203.1"/>
</g>
<!-- Tasks -->
<g id="node3" class="node">
<title>Tasks</title>
<path fill="#161b22" stroke="#00f2ff" d="M172.5,-131C172.5,-131 77.5,-131 77.5,-131 71.5,-131 65.5,-125 65.5,-119 65.5,-119 65.5,-107 65.5,-107 65.5,-101 71.5,-95 77.5,-95 77.5,-95 172.5,-95 172.5,-95 178.5,-95 184.5,-101 184.5,-107 184.5,-107 184.5,-119 184.5,-119 184.5,-125 178.5,-131 172.5,-131"/>
<text text-anchor="middle" x="125" y="-109.3" font-family="Times,serif" font-size="14.00" fill="#00f2ff">Logical Sub&#45;Tasks</text>
</g>
<!-- AI&#45;&gt;Tasks -->
<g id="edge2" class="edge">
<title>AI&#45;&gt;Tasks</title>
<path fill="none" stroke="#ff00ff" d="M125,-166.7C125,-158.98 125,-149.71 125,-141.11"/>
<polygon fill="#ff00ff" stroke="#ff00ff" points="125,-131.1 129.5,-141.1 125,-136.1 125,-141.1 125,-141.1 125,-141.1 125,-136.1 120.5,-141.1 125,-131.1 125,-131.1"/>
</g>
<!-- Draft -->
<g id="node4" class="node">
<title>Draft</title>
<path fill="#161b22" stroke="#ffff00" d="M180,-59C180,-59 70,-59 70,-59 64,-59 58,-53 58,-47 58,-47 58,-35 58,-35 58,-29 64,-23 70,-23 70,-23 180,-23 180,-23 186,-23 192,-29 192,-35 192,-35 192,-47 192,-47 192,-53 186,-59 180,-59"/>
<text text-anchor="middle" x="125" y="-37.3" font-family="Times,serif" font-size="14.00" fill="#00f2ff">Functional Code Pass</text>
</g>
<!-- Tasks&#45;&gt;Draft -->
<g id="edge3" class="edge">
<title>Tasks&#45;&gt;Draft</title>
<path fill="none" stroke="#ff00ff" d="M125,-94.7C125,-86.98 125,-77.71 125,-69.11"/>
<polygon fill="#ff00ff" stroke="#ff00ff" points="125,-59.1 129.5,-69.1 125,-64.1 125,-69.1 125,-69.1 125,-69.1 125,-64.1 120.5,-69.1 125,-59.1 125,-59.1"/>
</g>
</g>
</svg>
