<?xml version="1.0" encoding="UTF-8" standalone="no"?>
<!DOCTYPE svg PUBLIC "-//W3C//DTD SVG 1.1//EN"
 "http://www.w3.org/Graphics/SVG/1.1/DTD/svg11.dtd">
<!-- Generated by graphviz version 2.43.0 (0)
 -->
<!-- Title: LifeP4Pruning Pages: 1 -->
<svg width="339pt" height="211pt"
 viewBox="0.00 0.00 338.90 211.00" xmlns="http://www.w3.org/2000/svg" xmlns:xlink="http://www.w3.org/1999/xlink">
<g id="graph0" class="graph" transform="scale(1 1) rotate(0) translate(4 207)">
<title>LifeP4Pruning</title>
<polygon fill="#0d1117" stroke="transparent" points="-4,4 -4,-207 334.9,-207 334.9,4 -4,4"/>
<text text-anchor="middle" x="165.45" y="-7.8" font-family="Helvetica,sans-Serif" font-size="14.00" fill="#00f2ff">S2.4: Phase 4 &#45; Aesthetic Pruning</text>
<!-- Candidates -->
<g id="node1" class="node">
<title>Candidates</title>
<polygon fill="#161b22" stroke="#00f2ff" points="236.95,-203 233.95,-207 212.95,-207 209.95,-203 93.95,-203 93.95,-167 236.95,-167 236.95,-203"/>
<text text-anchor="middle" x="165.45" y="-181.3" font-family="Times,serif" font-size="14.00" fill="#00f2ff">Functional Alternatives</text>
</g>
<!-- Aesthetics -->
<g id="node2" class="node">
<title>Aesthetics</title>
<path fill="#161b22" stroke="#00ff00" d="M250.04,-131C250.04,-131 80.85,-131 80.85,-131 74.85,-131 63.54,-128.22 58.22,-125.44 58.22,-125.44 10.68,-100.56 10.68,-100.56 5.37,-97.78 6.05,-95 12.05,-95 12.05,-95 318.84,-95 318.84,-95 324.84,-95 325.53,-97.78 320.21,-100.56 320.21,-100.56 272.68,-125.44 272.68,-125.44 267.36,-128.22 256.04,-131 250.04,-131"/>
<text text-anchor="middle" x="165.45" y="-109.3" font-family="Times,serif" font-size="14.00" fill="#00f2ff">Human Heuristic Choice (+1)</text>
</g>
<!-- Candidates&#45;&gt;Aesthetics -->
<g id="edge1" class="edge">
<title>Candidates&#45;&gt;Aesthetics</title>
<path fill="none" stroke="#ff00ff" d="M165.45,-166.7C165.45,-158.98 165.45,-149.71 165.45,-141.11"/>
<polygon fill="#ff00ff" stroke="#ff00ff" points="165.45,-131.1 169.95,-141.1 165.45,-136.1 165.45,-141.1 165.45,-141.1 165.45,-141.1 165.45,-136.1 160.95,-141.1 165.45,-131.1 165.45,-131.1"/>
</g>
<!-- PruningReport -->
<g id="node3" class="node">
<title>PruningReport</title>
<polygon fill="#161b22" stroke="#00f2ff" points="148.95,-59 35.95,-59 35.95,-23 154.95,-23 154.95,-53 148.95,-59"/>
<polyline fill="none" stroke="#00f2ff" points="148.95,-59 148.95,-53 "/>
<polyline fill="none" stroke="#00f2ff" points="154.95,-53 148.95,-53 "/>
<text text-anchor="middle" x="95.45" y="-37.3" font-family="Times,serif" font-size="14.00" fill="#00f2ff">pruning_report.md</text>
</g>
<!-- Aesthetics&#45;&gt;PruningReport -->
<g id="edge2" class="edge">
<title>Aesthetics&#45;&gt;PruningReport</title>
<path fill="none" stroke="#ff00ff" d="M148.14,-94.7C139.58,-86.14 129.1,-75.66 119.75,-66.3"/>
<polygon fill="#ff00ff" stroke="#ff00ff" points="112.55,-59.1 122.81,-62.99 116.09,-62.64 119.62,-66.18 119.62,-66.18 119.62,-66.18 116.09,-62.64 116.44,-69.36 112.55,-59.1 112.55,-59.1"/>
</g>
<!-- Elegant -->
<g id="node4" class="node">
<title>Elegant</title>
<path fill="#161b22" stroke="#00f2ff" stroke-width="3" d="M287.95,-59C287.95,-59 184.95,-59 184.95,-59 178.95,-59 172.95,-53 172.95,-47 172.95,-47 172.95,-35 172.95,-35 172.95,-29 178.95,-23 184.95,-23 184.95,-23 287.95,-23 287.95,-23 293.95,-23 299.95,-29 299.95,-35 299.95,-35 299.95,-47 299.95,-47 299.95,-53 293.95,-59 287.95,-59"/>
<text text-anchor="middle" x="236.45" y="-37.3" font-family="Times,serif" font-size="14.00" fill="#00f2ff">Elegant Code (ω+1)</text>
</g>
<!-- Aesthetics&#45;&gt;Elegant -->
<g id="edge3" class="edge">
<title>Aesthetics&#45;&gt;Elegant</title>
<path fill="none" stroke="#ff00ff" d="M183,-94.7C191.68,-86.14 202.31,-75.66 211.8,-66.3"/>
<polygon fill="#ff00ff" stroke="#ff00ff" points="219.1,-59.1 215.14,-69.33 215.54,-62.61 211.98,-66.13 211.98,-66.13 211.98,-66.13 215.54,-62.61 208.82,-62.92 219.1,-59.1 219.1,-59.1"/>
</g>
</g>
</svg>
