<?xml version="1.0" encoding="UTF-8" standalone="no"?>
<!DOCTYPE svg PUBLIC "-//W3C//DTD SVG 1.1//EN"
 "http://www.w3.org/Graphics/SVG/1.1/DTD/svg11.dtd">
<!-- Generated by graphviz version 2.43.0 (0)
 -->
<!-- Title: LifeP1Grounding Pages: 1 -->
<svg width="326pt" height="227pt"
 viewBox="0.00 0.00 326.28 227.00" xmlns="http://www.w3.org/2000/svg" xmlns:xlink="http://www.w3.org/1999/xlink">
<g id="graph0" class="graph" transform="scale(1 1) rotate(0) translate(4 223)">
<title>LifeP1Grounding</title>
<polygon fill="#0d1117" stroke="transparent" points="-4,4 -4,-223 322.28,-223 322.28,4 -4,4"/>
<text text-anchor="middle" x="159.14" y="-7.8" font-family="Helvetica,sans-Serif" font-size="14.00" fill="#00f2ff">S2.1: Phase 1 &#45; Semantic Grounding</text>
<!-- Idea -->
<g id="node1" class="node">
<title>Idea</title>
<path fill="#161b22" stroke="#00ff00" d="M207.64,-219C207.64,-219 110.64,-219 110.64,-219 104.64,-219 98.64,-213 98.64,-207 98.64,-207 98.64,-195 98.64,-195 98.64,-189 104.64,-183 110.64,-183 110.64,-183 207.64,-183 207.64,-183 213.64,-183 219.64,-189 219.64,-195 219.64,-195 219.64,-207 219.64,-207 219.64,-213 213.64,-219 207.64,-219"/>
<text text-anchor="middle" x="159.14" y="-197.3" font-family="Times,serif" font-size="14.00" fill="#00f2ff">Fuzzy Human Idea</text>
</g>
<!-- Context -->
<g id="node2" class="node">
<title>Context</title>
<path fill="#161b22" stroke="#00f2ff" d="M306.42,-146C306.42,-146 77.04,-146 77.04,-146 71.04,-146 59.79,-143.1 54.54,-140.2 54.54,-140.2 10.36,-115.8 10.36,-115.8 5.11,-112.9 5.86,-110 11.86,-110 11.86,-110 241.24,-110 241.24,-110 247.24,-110 258.49,-112.9 263.75,-115.8 263.75,-115.8 307.92,-140.2 307.92,-140.2 313.17,-143.1 312.42,-146 306.42,-146"/>
<text text-anchor="middle" x="159.14" y="-124.3" font-family="Times,serif" font-size="14.00" fill="#00f2ff">Semantic Contextualization</text>
</g>
<!-- Idea&#45;&gt;Context -->
<g id="edge1" class="edge">
<title>Idea&#45;&gt;Context</title>
<path fill="none" stroke="#ff00ff" d="M159.14,-182.81C159.14,-174.79 159.14,-165.05 159.14,-156.07"/>
<polygon fill="#ff00ff" stroke="#ff00ff" points="159.14,-146.03 163.64,-156.03 159.14,-151.03 159.14,-156.03 159.14,-156.03 159.14,-156.03 159.14,-151.03 154.64,-156.03 159.14,-146.03 159.14,-146.03"/>
</g>
<!-- Objective -->
<g id="node3" class="node">
<title>Objective</title>
<polygon fill="#161b22" stroke="#ffff00" points="226.64,-59 85.64,-59 85.64,-23 232.64,-23 232.64,-53 226.64,-59"/>
<polyline fill="none" stroke="#ffff00" points="226.64,-59 226.64,-53 "/>
<polyline fill="none" stroke="#ffff00" points="232.64,-53 226.64,-53 "/>
<text text-anchor="middle" x="159.14" y="-37.3" font-family="Times,serif" font-size="14.00" fill="#00f2ff">objective_definition.md</text>
</g>
<!-- Context&#45;&gt;Objective -->
<g id="edge2" class="edge">
<title>Context&#45;&gt;Objective</title>
<path fill="none" stroke="#ff00ff" d="M159.14,-109.8C159.14,-98.16 159.14,-82.55 159.14,-69.24"/>
<polygon fill="#ff00ff" stroke="#ff00ff" points="159.14,-59.18 163.64,-69.18 159.14,-64.18 159.14,-69.18 159.14,-69.18 159.14,-69.18 159.14,-64.18 154.64,-69.18 159.14,-59.18 159.14,-59.18"/>
<text text-anchor="middle" x="201.14" y="-80.8" font-family="Times,serif" font-size="14.00"> Crystalization </text>
</g>
</g>
</svg>
