<?xml version="1.0" encoding="UTF-8" standalone="no"?>
<!DOCTYPE svg PUBLIC "-//W3C//DTD SVG 1.1//EN"
 "http://www.w3.org/Graphics/SVG/1.1/DTD/svg11.dtd">
<!-- Generated by graphviz version 2.43.0 (0)
 -->
<!-- Title: LifeP3Alignment Pages: 1 -->
<svg width="262pt" height="227pt"
 viewBox="0.00 0.00 261.50 227.00" xmlns="http://www.w3.org/2000/svg" xmlns:xlink="http://www.w3.org/1999/xlink">
<g id="graph0" class="graph" transform="scale(1 1) rotate(0) translate(4 223)">
<title>LifeP3Alignment</title>
<polygon fill="#0d1117" stroke="transparent" points="-4,4 -4,-223 257.5,-223 257.5,4 -4,4"/>
<text text-anchor="middle" x="126.75" y="-7.8" font-family="Helvetica,sans-Serif" font-size="14.00" fill="#00f2ff">S2.3: Phase 3 &#45; Semantic Alignment</text>
<!-- Draft -->
<g id="node1" class="node">
<title>Draft</title>
<path fill="#161b22" stroke="#00f2ff" d="M110,-219C110,-219 12,-219 12,-219 6,-219 0,-213 0,-207 0,-207 0,-195 0,-195 0,-189 6,-183 12,-183 12,-183 110,-183 110,-183 116,-183 122,-189 122,-195 122,-195 122,-207 122,-207 122,-213 116,-219 110,-219"/>
<text text-anchor="middle" x="61" y="-197.3" font-family="Times,serif" font-size="14.00" fill="#00f2ff">AI Implementation</text>
</g>
<!-- Check -->
<g id="node2" class="node">
<title>Check</title>
<path fill="#161b22" stroke="#ffff00" d="M117.15,-144.09C117.15,-144.09 29.41,-129.91 29.41,-129.91 23.49,-128.96 23.49,-127.04 29.41,-126.09 29.41,-126.09 117.15,-111.91 117.15,-111.91 123.08,-110.96 134.92,-110.96 140.85,-111.91 140.85,-111.91 228.59,-126.09 228.59,-126.09 234.51,-127.04 234.51,-128.96 228.59,-129.91 228.59,-129.91 140.85,-144.09 140.85,-144.09 134.92,-145.04 123.08,-145.04 117.15,-144.09"/>
<text text-anchor="middle" x="129" y="-124.3" font-family="Times,serif" font-size="14.00" fill="#00f2ff">semantic_check.py</text>
</g>
<!-- Draft&#45;&gt;Check -->
<g id="edge1" class="edge">
<title>Draft&#45;&gt;Check</title>
<path fill="none" stroke="#ff00ff" d="M77.46,-182.81C86.48,-173.39 97.77,-161.61 107.48,-151.47"/>
<polygon fill="#ff00ff" stroke="#ff00ff" points="114.54,-144.1 110.87,-154.44 111.08,-147.71 107.62,-151.32 107.62,-151.32 107.62,-151.32 111.08,-147.71 104.37,-148.21 114.54,-144.1 114.54,-144.1"/>
</g>
<!-- Drift -->
<g id="node4" class="node">
<title>Drift</title>
<polygon fill="#161b22" stroke="#ff0000" points="169,-53 77,-53 77,-29 169,-29 181,-41 169,-53"/>
<text text-anchor="middle" x="129" y="-37.3" font-family="Times,serif" font-size="14.00" fill="#00f2ff">Drift Correction</text>
</g>
<!-- Check&#45;&gt;Drift -->
<g id="edge3" class="edge">
<title>Check&#45;&gt;Drift</title>
<path fill="none" stroke="#ff00ff" d="M129,-109.8C129,-98.16 129,-82.55 129,-69.24"/>
<polygon fill="#ff00ff" stroke="#ff00ff" points="129,-59.18 133.5,-69.18 129,-64.18 129,-69.18 129,-69.18 129,-69.18 129,-64.18 124.5,-69.18 129,-59.18 129,-59.18"/>
<text text-anchor="middle" x="179" y="-80.8" font-family="Times,serif" font-size="14.00"> Deviation Found </text>
</g>
<!-- Objective -->
<g id="node3" class="node">
<title>Objective</title>
<path fill="#161b22" stroke="#00f2ff" d="M241.5,-219C241.5,-219 152.5,-219 152.5,-219 146.5,-219 140.5,-213 140.5,-207 140.5,-207 140.5,-195 140.5,-195 140.5,-189 146.5,-183 152.5,-183 152.5,-183 241.5,-183 241.5,-183 247.5,-183 253.5,-189 253.5,-195 253.5,-195 253.5,-207 253.5,-207 253.5,-213 247.5,-219 241.5,-219"/>
<text text-anchor="middle" x="197" y="-197.3" font-family="Times,serif" font-size="14.00" fill="#00f2ff">Human Objective</text>
</g>
<!-- Objective&#45;&gt;Check -->
<g id="edge2" class="edge">
<title>Objective&#45;&gt;Check</title>
<path fill="none" stroke="#ff00ff" d="M180.54,-182.81C171.52,-173.39 160.23,-161.61 150.52,-151.47"/>
<polygon fill="#ff00ff" stroke="#ff00ff" points="143.46,-144.1 153.63,-148.21 146.92,-147.71 150.38,-151.32 150.38,-151.32 150.38,-151.32 146.92,-147.71 147.13,-154.44 143.46,-144.1 143.46,-144.1"/>
</g>
</g>
</svg>
