<?xml version="1.0" encoding="UTF-8" standalone="no"?>
<!DOCTYPE svg PUBLIC "-//W3C//DTD SVG 1.1//EN"
 "http://www.w3.org/Graphics/SVG/1.1/DTD/svg11.dtd">
<!-- Generated by graphviz version 2.43.0 (0)
 -->
<!-- Title: AxiomDissolution Pages: 1 -->
<svg width="367pt" height="709pt"
 viewBox="0.00 0.00 366.67 709.40" xmlns="http://www.w3.org/2000/svg" xmlns:xlink="http://www.w3.org/1999/xlink">
<g id="graph0" class="graph" transform="scale(1 1) rotate(0) translate(4 705.4)">
<title>AxiomDissolution</title>
<polygon fill="#0d1117" stroke="transparent" points="-4,4 -4,-705.4 362.67,-705.4 362.67,4 -4,4"/>
<text text-anchor="middle" x="179.34" y="-7.8" font-family="Helvetica,sans-Serif" font-size="14.00" fill="#00f2ff">S3: Axiom Dissolution Mechanism</text>
<!-- Static -->
<g id="node1" class="node">
<title>Static</title>
<path fill="#161b22" stroke="#ff0000" d="M229.84,-701.4C229.84,-701.4 128.84,-701.4 128.84,-701.4 122.84,-701.4 116.84,-695.4 116.84,-689.4 116.84,-689.4 116.84,-677.4 116.84,-677.4 116.84,-671.4 122.84,-665.4 128.84,-665.4 128.84,-665.4 229.84,-665.4 229.84,-665.4 235.84,-665.4 241.84,-671.4 241.84,-677.4 241.84,-677.4 241.84,-689.4 241.84,-689.4 241.84,-695.4 235.84,-701.4 229.84,-701.4"/>
<text text-anchor="middle" x="179.34" y="-679.7" font-family="Times,serif" font-size="14.00" fill="#00f2ff">Static Formal Rules</text>
</g>
<!-- MetaAwareness -->
<g id="node2" class="node">
<title>MetaAwareness</title>
<path fill="#161b22" stroke="#00ff00" d="M167.43,-627.87C167.43,-627.87 51.31,-612.93 51.31,-612.93 45.36,-612.17 45.36,-610.64 51.31,-609.87 51.31,-609.87 167.43,-594.93 167.43,-594.93 173.38,-594.17 185.29,-594.17 191.24,-594.93 191.24,-594.93 307.36,-609.87 307.36,-609.87 313.31,-610.64 313.31,-612.17 307.36,-612.93 307.36,-612.93 191.24,-627.87 191.24,-627.87 185.29,-628.64 173.38,-628.64 167.43,-627.87"/>
<text text-anchor="middle" x="179.34" y="-607.7" font-family="Times,serif" font-size="14.00" fill="#00f2ff">Meta&#45;System Awareness</text>
</g>
<!-- Static&#45;&gt;MetaAwareness -->
<g id="edge1" class="edge">
<title>Static&#45;&gt;MetaAwareness</title>
<path fill="none" stroke="#ff00ff" d="M179.34,-665.1C179.34,-657.38 179.34,-648.11 179.34,-639.51"/>
<polygon fill="#ff00ff" stroke="#ff00ff" points="179.34,-629.51 183.84,-639.51 179.34,-634.51 179.34,-639.51 179.34,-639.51 179.34,-639.51 179.34,-634.51 174.84,-639.51 179.34,-629.51 179.34,-629.51"/>
</g>
<!-- Dissolution -->
<g id="node3" class="node">
<title>Dissolution</title>
<ellipse fill="#161b22" stroke="#ffff00" cx="179.34" cy="-478.76" rx="78.79" ry="78.79"/>
<text text-anchor="middle" x="179.34" y="-475.06" font-family="Times,serif" font-size="14.00" fill="#00f2ff">Axiom Dissolution</text>
</g>
<!-- MetaAwareness&#45;&gt;Dissolution -->
<g id="edge2" class="edge">
<title>MetaAwareness&#45;&gt;Dissolution</title>
<path fill="none" stroke="#ff00ff" d="M179.34,-593.32C179.34,-586.19 179.34,-577.32 179.34,-567.7"/>
<polygon fill="#ff00ff" stroke="#ff00ff" points="179.34,-557.45 183.84,-567.45 179.34,-562.45 179.34,-567.45 179.34,-567.45 179.34,-567.45 179.34,-562.45 174.84,-567.45 179.34,-557.45 179.34,-557.45"/>
</g>
<!-- Fluid -->
<g id="node4" class="node">
<title>Fluid</title>
<path fill="#161b22" stroke="#00f2ff" d="M346.51,-233.84C346.51,-233.84 233.63,-233.84 233.63,-233.84 227.63,-233.84 219.78,-239.54 217.93,-245.25 217.93,-245.25 183.04,-352.76 183.04,-352.76 181.19,-358.47 177.48,-358.47 175.63,-352.76 175.63,-352.76 140.74,-245.25 140.74,-245.25 138.89,-239.54 131.04,-233.84 125.04,-233.84 125.04,-233.84 12.16,-233.84 12.16,-233.84 6.16,-233.84 5.02,-230.31 9.87,-226.78 9.87,-226.78 101.19,-160.34 101.19,-160.34 106.05,-156.81 109.05,-147.57 107.19,-141.87 107.19,-141.87 72.31,-34.36 72.31,-34.36 70.45,-28.65 73.45,-26.47 78.31,-30 78.31,-30 169.63,-96.44 169.63,-96.44 174.48,-99.97 184.19,-99.97 189.04,-96.44 189.04,-96.44 280.36,-30 280.36,-30 285.22,-26.47 288.22,-28.65 286.36,-34.36 286.36,-34.36 251.48,-141.87 251.48,-141.87 249.62,-147.57 252.62,-156.81 257.48,-160.34 257.48,-160.34 348.8,-226.78 348.8,-226.78 353.65,-230.31 352.51,-233.84 346.51,-233.84"/>
<text text-anchor="middle" x="179.34" y="-189.86" font-family="Times,serif" font-size="14.00" fill="#00f2ff">Fluid Axiomatic State</text>
</g>
<!-- Dissolution&#45;&gt;Fluid -->
<g id="edge3" class="edge">
<title>Dissolution&#45;&gt;Fluid</title>
<path fill="none" stroke="#ff00ff" d="M179.34,-400C179.34,-391.73 179.34,-383.09 179.34,-374.24"/>
<polygon fill="#ff00ff" stroke="#ff00ff" points="179.34,-364.17 183.84,-374.17 179.34,-369.17 179.34,-374.17 179.34,-374.17 179.34,-374.17 179.34,-369.17 174.84,-374.17 179.34,-364.17 179.34,-364.17"/>
</g>
</g>
</svg>
