<?xml version="1.0" encoding="UTF-8" standalone="no"?>
<!DOCTYPE svg PUBLIC "-//W3C//DTD SVG 1.1//EN"
 "http://www.w3.org/Graphics/SVG/1.1/DTD/svg11.dtd">
<!-- Generated by graphviz version 2.43.0 (0)
 -->
<!-- Title: CoreFusion Pages: 1 -->
<svg width="464pt" height="482pt"
 viewBox="0.00 0.00 464.00 481.53" xmlns="http://www.w3.org/2000/svg" xmlns:xlink="http://www.w3.org/1999/xlink">
<g id="graph0" class="graph" transform="scale(1 1) rotate(0) translate(4 477.53)">
<title>CoreFusion</title>
<polygon fill="#0d1117" stroke="transparent" points="-4,4 -4,-477.53 460,-477.53 460,4 -4,4"/>
<text text-anchor="middle" x="228" y="-7.8" font-family="Helvetica,sans-Serif" font-size="14.00" fill="#00f2ff">S1: The Singularity Core Fusion</text>
<!-- Human -->
<g id="node1" class="node">
<title>Human</title>
<path fill="#161b22" stroke="#00ff00" d="M75,-473.53C75,-473.53 12,-473.53 12,-473.53 6,-473.53 0,-467.53 0,-461.53 0,-461.53 0,-449.53 0,-449.53 0,-443.53 6,-437.53 12,-437.53 12,-437.53 75,-437.53 75,-437.53 81,-437.53 87,-443.53 87,-449.53 87,-449.53 87,-461.53 87,-461.53 87,-467.53 81,-473.53 75,-473.53"/>
<text text-anchor="middle" x="43.5" y="-451.83" font-family="Times,serif" font-size="14.00" fill="#00f2ff">Human Core</text>
</g>
<!-- Singularity -->
<g id="node5" class="node">
<title>Singularity</title>
<path fill="#161b22" stroke="#ffffff" stroke-width="4" d="M388.73,-247.61C388.73,-247.61 266.64,-247.61 266.64,-247.61 260.64,-247.61 252.79,-253.32 250.93,-259.03 250.93,-259.03 213.21,-374.88 213.21,-374.88 211.36,-380.58 207.64,-380.58 205.79,-374.88 205.79,-374.88 168.07,-259.03 168.07,-259.03 166.21,-253.32 158.36,-247.61 152.36,-247.61 152.36,-247.61 30.27,-247.61 30.27,-247.61 24.27,-247.61 23.12,-244.09 27.98,-240.57 27.98,-240.57 126.74,-168.95 126.74,-168.95 131.6,-165.43 134.6,-156.2 132.74,-150.5 132.74,-150.5 95.03,-34.65 95.03,-34.65 93.17,-28.94 96.17,-26.76 101.03,-30.28 101.03,-30.28 199.79,-101.9 199.79,-101.9 204.64,-105.42 214.36,-105.42 219.21,-101.9 219.21,-101.9 317.97,-30.28 317.97,-30.28 322.83,-26.76 325.83,-28.94 323.97,-34.65 323.97,-34.65 286.26,-150.5 286.26,-150.5 284.4,-156.2 287.4,-165.43 292.26,-168.95 292.26,-168.95 391.02,-240.57 391.02,-240.57 395.88,-244.09 394.73,-247.61 388.73,-247.61"/>
<text text-anchor="middle" x="209.5" y="-201.06" font-family="Times,serif" font-size="14.00" fill="#00f2ff">SINGULARITY CORE</text>
</g>
<!-- Human&#45;&gt;Singularity -->
<g id="edge1" class="edge">
<title>Human&#45;&gt;Singularity</title>
<path fill="none" stroke="#ff00ff" d="M54.91,-437.43C77.1,-404.17 127.15,-329.16 164.33,-273.46"/>
<polygon fill="#ff00ff" stroke="#ff00ff" points="169.95,-265.04 168.14,-275.85 167.17,-269.2 164.39,-273.36 164.39,-273.36 164.39,-273.36 167.17,-269.2 160.65,-270.86 169.95,-265.04 169.95,-265.04"/>
<text text-anchor="middle" x="98" y="-408.33" font-family="Times,serif" font-size="14.00"> Fusion </text>
</g>
<!-- AI -->
<g id="node2" class="node">
<title>AI</title>
<path fill="#161b22" stroke="#00f2ff" d="M183.5,-473.53C183.5,-473.53 117.5,-473.53 117.5,-473.53 111.5,-473.53 105.5,-467.53 105.5,-461.53 105.5,-461.53 105.5,-449.53 105.5,-449.53 105.5,-443.53 111.5,-437.53 117.5,-437.53 117.5,-437.53 183.5,-437.53 183.5,-437.53 189.5,-437.53 195.5,-443.53 195.5,-449.53 195.5,-449.53 195.5,-461.53 195.5,-461.53 195.5,-467.53 189.5,-473.53 183.5,-473.53"/>
<text text-anchor="middle" x="150.5" y="-451.83" font-family="Times,serif" font-size="14.00" fill="#00f2ff">AI Collective</text>
</g>
<!-- AI&#45;&gt;Singularity -->
<g id="edge2" class="edge">
<title>AI&#45;&gt;Singularity</title>
<path fill="none" stroke="#ff00ff" d="M154.56,-437.43C160.36,-412.93 171.55,-365.79 182.31,-320.39"/>
<polygon fill="#ff00ff" stroke="#ff00ff" points="184.67,-310.44 186.74,-321.21 183.52,-315.3 182.37,-320.17 182.37,-320.17 182.37,-320.17 183.52,-315.3 177.99,-319.13 184.67,-310.44 184.67,-310.44"/>
<text text-anchor="middle" x="185" y="-408.33" font-family="Times,serif" font-size="14.00"> Fusion </text>
</g>
<!-- Tools -->
<g id="node3" class="node">
<title>Tools</title>
<path fill="#161b22" stroke="#ffff00" d="M313,-473.53C313,-473.53 226,-473.53 226,-473.53 220,-473.53 214,-467.53 214,-461.53 214,-461.53 214,-449.53 214,-449.53 214,-443.53 220,-437.53 226,-437.53 226,-437.53 313,-437.53 313,-437.53 319,-437.53 325,-443.53 325,-449.53 325,-449.53 325,-461.53 325,-461.53 325,-467.53 319,-473.53 313,-473.53"/>
<text text-anchor="middle" x="269.5" y="-451.83" font-family="Times,serif" font-size="14.00" fill="#00f2ff">Automated Tools</text>
</g>
<!-- Tools&#45;&gt;Singularity -->
<g id="edge3" class="edge">
<title>Tools&#45;&gt;Singularity</title>
<path fill="none" stroke="#ff00ff" d="M265.38,-437.43C259.42,-412.73 247.91,-365 236.87,-319.25"/>
<polygon fill="#ff00ff" stroke="#ff00ff" points="234.53,-309.53 241.25,-318.2 235.7,-314.39 236.87,-319.25 236.87,-319.25 236.87,-319.25 235.7,-314.39 232.5,-320.31 234.53,-309.53 234.53,-309.53"/>
<text text-anchor="middle" x="283" y="-408.33" font-family="Times,serif" font-size="14.00"> Fusion </text>
</g>
<!-- Axioms -->
<g id="node4" class="node">
<title>Axioms</title>
<path fill="#161b22" stroke="#ff00ff" d="M444,-473.53C444,-473.53 355,-473.53 355,-473.53 349,-473.53 343,-467.53 343,-461.53 343,-461.53 343,-449.53 343,-449.53 343,-443.53 349,-437.53 355,-437.53 355,-437.53 444,-437.53 444,-437.53 450,-437.53 456,-443.53 456,-449.53 456,-449.53 456,-461.53 456,-461.53 456,-467.53 450,-473.53 444,-473.53"/>
<text text-anchor="middle" x="399.5" y="-451.83" font-family="Times,serif" font-size="14.00" fill="#00f2ff">Dynamic Axioms</text>
</g>
<!-- Axioms&#45;&gt;Singularity -->
<g id="edge4" class="edge">
<title>Axioms&#45;&gt;Singularity</title>
<path fill="none" stroke="#ff00ff" d="M386.44,-437.43C360.19,-403.06 299.88,-324.09 256.98,-267.92"/>
<polygon fill="#ff00ff" stroke="#ff00ff" points="250.78,-259.81 260.43,-265.02 253.81,-263.78 256.85,-267.76 256.85,-267.76 256.85,-267.76 253.81,-263.78 253.27,-270.49 250.78,-259.81 250.78,-259.81"/>
<text text-anchor="middle" x="394" y="-408.33" font-family="Times,serif" font-size="14.00"> Fusion </text>
</g>
</g>
</svg>
