<?xml version="1.0" encoding="UTF-8" standalone="no"?>
<!DOCTYPE svg PUBLIC "-//W3C//DTD SVG 1.1//EN"
 "http://www.w3.org/Graphics/SVG/1.1/DTD/svg11.dtd">
<!-- Generated by graphviz version 2.43.0 (0)
 -->
<!-- Title: HiveEmergence Pages: 1 -->
<svg width="269pt" height="211pt"
 viewBox="0.00 0.00 269.04 211.00" xmlns="http://www.w3.org/2000/svg" xmlns:xlink="http://www.w3.org/1999/xlink">
<g id="graph0" class="graph" transform="scale(1 1) rotate(0) translate(4 207)">
<title>HiveEmergence</title>
<polygon fill="#0d1117" stroke="transparent" points="-4,4 -4,-207 265.04,-207 265.04,4 -4,4"/>
<text text-anchor="middle" x="130.52" y="-7.8" font-family="Helvetica,sans-Serif" font-size="14.00" fill="#00f2ff">S4: Hive Emergence Loop</text>
<!-- Agent1 -->
<g id="node1" class="node">
<title>Agent1</title>
<path fill="#161b22" stroke="#00f2ff" d="M70.52,-203C70.52,-203 34.52,-203 34.52,-203 28.52,-203 22.52,-197 22.52,-191 22.52,-191 22.52,-179 22.52,-179 22.52,-173 28.52,-167 34.52,-167 34.52,-167 70.52,-167 70.52,-167 76.52,-167 82.52,-173 82.52,-179 82.52,-179 82.52,-191 82.52,-191 82.52,-197 76.52,-203 70.52,-203"/>
<text text-anchor="middle" x="52.52" y="-181.3" font-family="Times,serif" font-size="14.00" fill="#00f2ff">Agent 1</text>
</g>
<!-- Negotiation -->
<g id="node4" class="node">
<title>Negotiation</title>
<path fill="#161b22" stroke="#ffff00" d="M118.63,-129.36C118.63,-129.36 11.87,-114.64 11.87,-114.64 5.92,-113.82 5.92,-112.18 11.87,-111.36 11.87,-111.36 118.63,-96.64 118.63,-96.64 124.58,-95.82 136.46,-95.82 142.41,-96.64 142.41,-96.64 249.17,-111.36 249.17,-111.36 255.12,-112.18 255.12,-113.82 249.17,-114.64 249.17,-114.64 142.41,-129.36 142.41,-129.36 136.46,-130.18 124.58,-130.18 118.63,-129.36"/>
<text text-anchor="middle" x="130.52" y="-109.3" font-family="Times,serif" font-size="14.00" fill="#00f2ff">Consensus Negotiation</text>
</g>
<!-- Agent1&#45;&gt;Negotiation -->
<g id="edge1" class="edge">
<title>Agent1&#45;&gt;Negotiation</title>
<path fill="none" stroke="#ff00ff" d="M71.8,-166.7C82.26,-157.31 95.28,-145.63 106.4,-135.65"/>
<polygon fill="#ff00ff" stroke="#ff00ff" points="114.1,-128.74 109.66,-138.77 110.38,-132.08 106.66,-135.42 106.66,-135.42 106.66,-135.42 110.38,-132.08 103.65,-132.07 114.1,-128.74 114.1,-128.74"/>
</g>
<!-- Agent2 -->
<g id="node2" class="node">
<title>Agent2</title>
<path fill="#161b22" stroke="#00f2ff" d="M148.52,-203C148.52,-203 112.52,-203 112.52,-203 106.52,-203 100.52,-197 100.52,-191 100.52,-191 100.52,-179 100.52,-179 100.52,-173 106.52,-167 112.52,-167 112.52,-167 148.52,-167 148.52,-167 154.52,-167 160.52,-173 160.52,-179 160.52,-179 160.52,-191 160.52,-191 160.52,-197 154.52,-203 148.52,-203"/>
<text text-anchor="middle" x="130.52" y="-181.3" font-family="Times,serif" font-size="14.00" fill="#00f2ff">Agent 2</text>
</g>
<!-- Agent2&#45;&gt;Negotiation -->
<g id="edge2" class="edge">
<title>Agent2&#45;&gt;Negotiation</title>
<path fill="none" stroke="#ff00ff" d="M130.52,-166.7C130.52,-158.98 130.52,-149.71 130.52,-141.11"/>
<polygon fill="#ff00ff" stroke="#ff00ff" points="130.52,-131.1 135.02,-141.1 130.52,-136.1 130.52,-141.1 130.52,-141.1 130.52,-141.1 130.52,-136.1 126.02,-141.1 130.52,-131.1 130.52,-131.1"/>
</g>
<!-- AgentN -->
<g id="node3" class="node">
<title>AgentN</title>
<path fill="#161b22" stroke="#00f2ff" d="M230.02,-203C230.02,-203 191.02,-203 191.02,-203 185.02,-203 179.02,-197 179.02,-191 179.02,-191 179.02,-179 179.02,-179 179.02,-173 185.02,-167 191.02,-167 191.02,-167 230.02,-167 230.02,-167 236.02,-167 242.02,-173 242.02,-179 242.02,-179 242.02,-191 242.02,-191 242.02,-197 236.02,-203 230.02,-203"/>
<text text-anchor="middle" x="210.52" y="-181.3" font-family="Times,serif" font-size="14.00" fill="#00f2ff">Agent N</text>
</g>
<!-- AgentN&#45;&gt;Negotiation -->
<g id="edge3" class="edge">
<title>AgentN&#45;&gt;Negotiation</title>
<path fill="none" stroke="#ff00ff" d="M190.75,-166.7C179.92,-157.22 166.41,-145.4 154.93,-135.36"/>
<polygon fill="#ff00ff" stroke="#ff00ff" points="147.36,-128.74 157.85,-131.94 151.13,-132.03 154.89,-135.32 154.89,-135.32 154.89,-135.32 151.13,-132.03 151.93,-138.71 147.36,-128.74 147.36,-128.74"/>
</g>
<!-- Emergence -->
<g id="node5" class="node">
<title>Emergence</title>
<path fill="#161b22" stroke="#00ff00" stroke-width="2" d="M188.52,-59C188.52,-59 72.52,-59 72.52,-59 66.52,-59 60.52,-53 60.52,-47 60.52,-47 60.52,-35 60.52,-35 60.52,-29 66.52,-23 72.52,-23 72.52,-23 188.52,-23 188.52,-23 194.52,-23 200.52,-29 200.52,-35 200.52,-35 200.52,-47 200.52,-47 200.52,-53 194.52,-59 188.52,-59"/>
<text text-anchor="middle" x="130.52" y="-37.3" font-family="Times,serif" font-size="14.00" fill="#00f2ff">Collective Intelligence</text>
</g>
<!-- Negotiation&#45;&gt;Emergence -->
<g id="edge4" class="edge">
<title>Negotiation&#45;&gt;Emergence</title>
<path fill="none" stroke="#ff00ff" d="M130.52,-94.7C130.52,-86.98 130.52,-77.71 130.52,-69.11"/>
<polygon fill="#ff00ff" stroke="#ff00ff" points="130.52,-59.1 135.02,-69.1 130.52,-64.1 130.52,-69.1 130.52,-69.1 130.52,-69.1 130.52,-64.1 126.02,-69.1 130.52,-59.1 130.52,-59.1"/>
</g>
</g>
</svg>
