<?xml version="1.0" encoding="UTF-8" standalone="no"?>
<!DOCTYPE svg PUBLIC "-//W3C//DTD SVG 1.1//EN"
 "http://www.w3.org/Graphics/SVG/1.1/DTD/svg11.dtd">
<!-- Generated by graphviz version 2.43.0 (0)
 -->
<!-- Title: IntentStream Pages: 1 -->
<svg width="415pt" height="308pt"
 viewBox="0.00 0.00 415.46 308.00" xmlns="http://www.w3.org/2000/svg" xmlns:xlink="http://www.w3.org/1999/xlink">
<g id="graph0" class="graph" transform="scale(1 1) rotate(0) translate(4 304)">
<title>IntentStream</title>
<polygon fill="#0d1117" stroke="transparent" points="-4,4 -4,-304 411.46,-304 411.46,4 -4,4"/>
<text text-anchor="middle" x="203.73" y="-7.8" font-family="Helvetica,sans-Serif" font-size="14.00" fill="#00f2ff">S2: Pure Semantic Intent Stream</text>
<!-- Intent -->
<g id="node1" class="node">
<title>Intent</title>
<path fill="#161b22" stroke="#00ff00" d="M136.1,-275.44C136.1,-275.44 205.82,-264.99 205.82,-264.99 209.14,-264.5 215.78,-264.5 219.09,-264.99 219.09,-264.99 288.82,-275.44 288.82,-275.44 292.14,-275.94 295.44,-279.79 295.43,-283.15 295.43,-283.15 295.4,-289.85 295.4,-289.85 295.39,-293.21 292.02,-296.56 288.67,-296.56 288.67,-296.56 136.25,-296.56 136.25,-296.56 132.89,-296.56 129.53,-293.21 129.51,-289.85 129.51,-289.85 129.49,-283.15 129.49,-283.15 129.48,-279.79 132.78,-275.94 136.1,-275.44"/>
<text text-anchor="middle" x="212.46" y="-278.3" font-family="Times,serif" font-size="14.00" fill="#00f2ff">Semantic Intent</text>
</g>
<!-- Translation -->
<g id="node2" class="node">
<title>Translation</title>
<path fill="#161b22" stroke="#00f2ff" d="M252.88,-227C252.88,-227 66.23,-227 66.23,-227 60.23,-227 49.23,-223.68 44.23,-220.36 44.23,-220.36 10.04,-197.64 10.04,-197.64 5.04,-194.32 6.04,-191 12.04,-191 12.04,-191 198.69,-191 198.69,-191 204.69,-191 215.69,-194.32 220.68,-197.64 220.68,-197.64 254.88,-220.36 254.88,-220.36 259.88,-223.68 258.88,-227 252.88,-227"/>
<text text-anchor="middle" x="132.46" y="-205.3" font-family="Times,serif" font-size="14.00" fill="#00f2ff">Automatic Translation</text>
</g>
<!-- Intent&#45;&gt;Translation -->
<g id="edge1" class="edge">
<title>Intent&#45;&gt;Translation</title>
<path fill="none" stroke="#ff00ff" d="M195.88,-266.29C185.37,-256.96 171.53,-244.67 159.45,-233.96"/>
<polygon fill="#ff00ff" stroke="#ff00ff" points="151.83,-227.19 162.3,-230.46 155.57,-230.51 159.31,-233.83 159.31,-233.83 159.31,-233.83 155.57,-230.51 156.32,-237.2 151.83,-227.19 151.83,-227.19"/>
</g>
<!-- Logic -->
<g id="node3" class="node">
<title>Logic</title>
<path fill="#161b22" stroke="#00f2ff" d="M233.96,-140C233.96,-140 138.96,-140 138.96,-140 132.96,-140 126.96,-134 126.96,-128 126.96,-128 126.96,-116 126.96,-116 126.96,-110 132.96,-104 138.96,-104 138.96,-104 233.96,-104 233.96,-104 239.96,-104 245.96,-110 245.96,-116 245.96,-116 245.96,-128 245.96,-128 245.96,-134 239.96,-140 233.96,-140"/>
<text text-anchor="middle" x="186.46" y="-118.3" font-family="Times,serif" font-size="14.00" fill="#00f2ff">Pure Logic Stream</text>
</g>
<!-- Translation&#45;&gt;Logic -->
<g id="edge2" class="edge">
<title>Translation&#45;&gt;Logic</title>
<path fill="none" stroke="#ff00ff" d="M143.39,-190.8C151.07,-178.7 161.49,-162.3 170.15,-148.67"/>
<polygon fill="#ff00ff" stroke="#ff00ff" points="175.55,-140.18 173.98,-151.03 172.87,-144.4 170.18,-148.62 170.18,-148.62 170.18,-148.62 172.87,-144.4 166.39,-146.2 175.55,-140.18 175.55,-140.18"/>
</g>
<!-- Artifact -->
<g id="node4" class="node">
<title>Artifact</title>
<path fill="#161b22" stroke="#ffff00" d="M321.16,-42.51C321.16,-42.51 321.16,-47.49 321.16,-47.49 321.16,-49.97 318.74,-52.99 316.31,-53.53 316.31,-53.53 278.16,-61.93 278.16,-61.93 275.73,-62.47 270.82,-63 268.33,-63 268.33,-63 210.59,-63 210.59,-63 208.1,-63 203.19,-62.47 200.76,-61.93 200.76,-61.93 162.61,-53.53 162.61,-53.53 160.18,-52.99 157.75,-49.97 157.75,-47.49 157.75,-47.49 157.75,-42.51 157.75,-42.51 157.75,-40.03 160.18,-37.01 162.61,-36.47 162.61,-36.47 200.76,-28.07 200.76,-28.07 203.19,-27.53 208.1,-27 210.59,-27 210.59,-27 268.33,-27 268.33,-27 270.82,-27 275.73,-27.53 278.16,-28.07 278.16,-28.07 316.31,-36.47 316.31,-36.47 318.74,-37.01 321.16,-40.03 321.16,-42.51"/>
<path fill="none" stroke="#ffff00" d="M325.17,-41.44C325.17,-41.44 325.17,-48.56 325.17,-48.56 325.17,-52.11 321.7,-56.43 318.22,-57.2 318.22,-57.2 280.69,-65.47 280.69,-65.47 277.21,-66.23 270.18,-67 266.63,-67 266.63,-67 212.29,-67 212.29,-67 208.74,-67 201.71,-66.23 198.23,-65.47 198.23,-65.47 160.69,-57.2 160.69,-57.2 157.22,-56.43 153.75,-52.11 153.75,-48.56 153.75,-48.56 153.75,-41.44 153.75,-41.44 153.75,-37.89 157.22,-33.57 160.69,-32.8 160.69,-32.8 198.23,-24.53 198.23,-24.53 201.71,-23.77 208.74,-23 212.29,-23 212.29,-23 266.63,-23 266.63,-23 270.18,-23 277.21,-23.77 280.69,-24.53 280.69,-24.53 318.22,-32.8 318.22,-32.8 321.7,-33.57 325.17,-37.89 325.17,-41.44"/>
<text text-anchor="middle" x="239.46" y="-41.3" font-family="Times,serif" font-size="14.00" fill="#00f2ff">Functional Output</text>
</g>
<!-- Logic&#45;&gt;Artifact -->
<g id="edge3" class="edge">
<title>Logic&#45;&gt;Artifact</title>
<path fill="none" stroke="#ff00ff" d="M198.49,-103.98C204.44,-95.56 211.8,-85.15 218.63,-75.48"/>
<polygon fill="#ff00ff" stroke="#ff00ff" points="224.45,-67.24 222.35,-78.01 221.56,-71.33 218.67,-75.41 218.67,-75.41 218.67,-75.41 221.56,-71.33 215,-72.81 224.45,-67.24 224.45,-67.24"/>
</g>
<!-- Artifact&#45;&gt;Intent -->
<g id="edge4" class="edge">
<title>Artifact&#45;&gt;Intent</title>
<path fill="none" stroke="#ff00ff" stroke-dasharray="5,2" d="M251.17,-67.04C268.86,-101.8 297.88,-172.77 273.46,-227 267.24,-240.8 255.56,-252.5 244.07,-261.44"/>
<polygon fill="#ff00ff" stroke="#ff00ff" points="235.82,-267.46 241.25,-257.93 239.86,-264.51 243.9,-261.57 243.9,-261.57 243.9,-261.57 239.86,-264.51 246.55,-265.21 235.82,-267.46 235.82,-267.46"/>
<text text-anchor="middle" x="345.46" y="-161.8" font-family="Times,serif" font-size="14.00"> Real&#45;time Alignment </text>
</g>
</g>
</svg>
