<?xml version="1.0" encoding="UTF-8" standalone="no"?>
<!DOCTYPE svg PUBLIC "-//W3C//DTD SVG 1.1//EN"
 "http://www.w3.org/Graphics/SVG/1.1/DTD/svg11.dtd">
<!-- Generated by graphviz version 2.43.0 (0)
 -->
<!-- Title: PhilEthicsMatrix Pages: 1 -->
<svg width="560pt" height="162pt"
 viewBox="0.00 0.00 560.00 162.00" xmlns="http://www.w3.org/2000/svg" xmlns:xlink="http://www.w3.org/1999/xlink">
<g id="graph0" class="graph" transform="scale(1 1) rotate(0) translate(4 158)">
<title>PhilEthicsMatrix</title>
<polygon fill="#0d1117" stroke="transparent" points="-4,4 -4,-158 556,-158 556,4 -4,4"/>
<text text-anchor="middle" x="276" y="-7.8" font-family="Helvetica,sans-Serif" font-size="14.00" fill="#00f2ff">P5: The Transfinite Ethics Matrix</text>
<!-- Grounding -->
<g id="node1" class="node">
<title>Grounding</title>
<path fill="#161b22" stroke="#00ff00" d="M118,-154C118,-154 12,-154 12,-154 6,-154 0,-148 0,-142 0,-142 0,-130 0,-130 0,-124 6,-118 12,-118 12,-118 118,-118 118,-118 124,-118 130,-124 130,-130 130,-130 130,-142 130,-142 130,-148 124,-154 118,-154"/>
<text text-anchor="middle" x="65" y="-132.3" font-family="Times,serif" font-size="14.00" fill="#00f2ff">Semantic Grounding</text>
</g>
<!-- Singularity -->
<g id="node5" class="node">
<title>Singularity</title>
<path fill="#161b22" stroke="#ffff00" d="M400.37,-42.51C400.37,-42.51 400.37,-47.49 400.37,-47.49 400.37,-49.97 397.91,-52.83 395.45,-53.2 395.45,-53.2 335.94,-62.25 335.94,-62.25 333.49,-62.63 328.54,-63 326.06,-63 326.06,-63 237.94,-63 237.94,-63 235.46,-63 230.51,-62.63 228.06,-62.25 228.06,-62.25 168.55,-53.2 168.55,-53.2 166.09,-52.83 163.63,-49.97 163.63,-47.49 163.63,-47.49 163.63,-42.51 163.63,-42.51 163.63,-40.03 166.09,-37.17 168.55,-36.8 168.55,-36.8 228.06,-27.75 228.06,-27.75 230.51,-27.37 235.46,-27 237.94,-27 237.94,-27 326.06,-27 326.06,-27 328.54,-27 333.49,-27.37 335.94,-27.75 335.94,-27.75 395.45,-36.8 395.45,-36.8 397.91,-37.17 400.37,-40.03 400.37,-42.51"/>
<path fill="none" stroke="#ffff00" d="M404.37,-41.37C404.37,-41.37 404.37,-48.63 404.37,-48.63 404.37,-52.26 400.78,-56.44 397.19,-56.98 397.19,-56.98 338.51,-65.91 338.51,-65.91 334.92,-66.45 327.7,-67 324.07,-67 324.07,-67 239.93,-67 239.93,-67 236.3,-67 229.08,-66.45 225.49,-65.91 225.49,-65.91 166.81,-56.98 166.81,-56.98 163.22,-56.44 159.63,-52.26 159.63,-48.63 159.63,-48.63 159.63,-41.37 159.63,-41.37 159.63,-37.74 163.22,-33.56 166.81,-33.02 166.81,-33.02 225.49,-24.09 225.49,-24.09 229.08,-23.55 236.3,-23 239.93,-23 239.93,-23 324.07,-23 324.07,-23 327.7,-23 334.92,-23.55 338.51,-24.09 338.51,-24.09 397.19,-33.02 397.19,-33.02 400.78,-33.56 404.37,-37.74 404.37,-41.37"/>
<text text-anchor="middle" x="282" y="-41.3" font-family="Times,serif" font-size="14.00" fill="#00f2ff">ETHICAL SINGULARITY</text>
</g>
<!-- Grounding&#45;&gt;Singularity -->
<g id="edge1" class="edge">
<title>Grounding&#45;&gt;Singularity</title>
<path fill="none" stroke="#ff00ff" d="M106.58,-117.95C139.12,-104.6 184.82,-85.86 221.43,-70.84"/>
<polygon fill="#ff00ff" stroke="#ff00ff" points="231,-66.92 223.46,-74.87 226.38,-68.81 221.75,-70.71 221.75,-70.71 221.75,-70.71 226.38,-68.81 220.04,-66.55 231,-66.92 231,-66.92"/>
</g>
<!-- Elegance -->
<g id="node2" class="node">
<title>Elegance</title>
<path fill="#161b22" stroke="#00ff00" d="M264,-154C264,-154 160,-154 160,-154 154,-154 148,-148 148,-142 148,-142 148,-130 148,-130 148,-124 154,-118 160,-118 160,-118 264,-118 264,-118 270,-118 276,-124 276,-130 276,-130 276,-142 276,-142 276,-148 270,-154 264,-154"/>
<text text-anchor="middle" x="212" y="-132.3" font-family="Times,serif" font-size="14.00" fill="#00f2ff">Axiomatic Elegance</text>
</g>
<!-- Elegance&#45;&gt;Singularity -->
<g id="edge2" class="edge">
<title>Elegance&#45;&gt;Singularity</title>
<path fill="none" stroke="#ff00ff" d="M225.5,-117.84C235,-105.76 247.94,-89.3 259.05,-75.18"/>
<polygon fill="#ff00ff" stroke="#ff00ff" points="265.33,-67.19 262.69,-77.83 262.24,-71.12 259.15,-75.05 259.15,-75.05 259.15,-75.05 262.24,-71.12 255.61,-72.27 265.33,-67.19 265.33,-67.19"/>
</g>
<!-- Chaos -->
<g id="node3" class="node">
<title>Chaos</title>
<path fill="#161b22" stroke="#ff0000" d="M400,-154C400,-154 306,-154 306,-154 300,-154 294,-148 294,-142 294,-142 294,-130 294,-130 294,-124 300,-118 306,-118 306,-118 400,-118 400,-118 406,-118 412,-124 412,-130 412,-130 412,-142 412,-142 412,-148 406,-154 400,-154"/>
<text text-anchor="middle" x="353" y="-132.3" font-family="Times,serif" font-size="14.00" fill="#00f2ff">Unhinged Leaping</text>
</g>
<!-- Chaos&#45;&gt;Singularity -->
<g id="edge3" class="edge">
<title>Chaos&#45;&gt;Singularity</title>
<path fill="none" stroke="#ff0000" d="M339.31,-117.84C329.68,-105.76 316.54,-89.3 305.28,-75.18"/>
<polygon fill="#ff0000" stroke="#ff0000" points="298.9,-67.19 308.66,-72.2 302.02,-71.1 305.14,-75.01 305.14,-75.01 305.14,-75.01 302.02,-71.1 301.62,-77.81 298.9,-67.19 298.9,-67.19"/>
<text text-anchor="middle" x="351.5" y="-88.8" font-family="Times,serif" font-size="14.00"> REJECT </text>
</g>
<!-- Stagnation -->
<g id="node4" class="node">
<title>Stagnation</title>
<path fill="#161b22" stroke="#ff0000" d="M540,-154C540,-154 442,-154 442,-154 436,-154 430,-148 430,-142 430,-142 430,-130 430,-130 430,-124 436,-118 442,-118 442,-118 540,-118 540,-118 546,-118 552,-124 552,-130 552,-130 552,-142 552,-142 552,-148 546,-154 540,-154"/>
<text text-anchor="middle" x="491" y="-132.3" font-family="Times,serif" font-size="14.00" fill="#00f2ff">Axiomatic Rigidity</text>
</g>
<!-- Stagnation&#45;&gt;Singularity -->
<g id="edge4" class="edge">
<title>Stagnation&#45;&gt;Singularity</title>
<path fill="none" stroke="#ff0000" d="M455.75,-117.98C434.77,-108.02 407.54,-95.41 383,-85 371.07,-79.94 358.24,-74.78 345.87,-69.94"/>
<polygon fill="#ff0000" stroke="#ff0000" points="336.51,-66.3 347.46,-65.73 341.17,-68.11 345.83,-69.92 345.83,-69.92 345.83,-69.92 341.17,-68.11 344.2,-74.12 336.51,-66.3 336.51,-66.3"/>
<text text-anchor="middle" x="442.5" y="-88.8" font-family="Times,serif" font-size="14.00"> REJECT </text>
</g>
</g>
</svg>
