<?xml version="1.0" encoding="UTF-8" standalone="no"?>
<!DOCTYPE svg PUBLIC "-//W3C//DTD SVG 1.1//EN"
 "http://www.w3.org/Graphics/SVG/1.1/DTD/svg11.dtd">
<!-- Generated by graphviz version 2.43.0 (0)
 -->
<!-- Title: PhilSemanticPermanence Pages: 1 -->
<svg width="342pt" height="261pt"
 viewBox="0.00 0.00 342.00 261.25" xmlns="http://www.w3.org/2000/svg" xmlns:xlink="http://www.w3.org/1999/xlink">
<g id="graph0" class="graph" transform="scale(1 1) rotate(0) translate(4 257.25)">
<title>PhilSemanticPermanence</title>
<polygon fill="#0d1117" stroke="transparent" points="-4,4 -4,-257.25 338,-257.25 338,4 -4,4"/>
<text text-anchor="middle" x="167" y="-7.8" font-family="Helvetica,sans-Serif" font-size="14.00" fill="#00f2ff">P3: Semantic Permanence through Morphing Syntax</text>
<!-- Syntax1 -->
<g id="node1" class="node">
<title>Syntax1</title>
<path fill="#161b22" stroke="#ff0000" d="M189.75,-253.25C189.75,-253.25 135.75,-253.25 135.75,-253.25 129.75,-253.25 123.75,-247.25 123.75,-241.25 123.75,-241.25 123.75,-227.25 123.75,-227.25 123.75,-221.25 129.75,-215.25 135.75,-215.25 135.75,-215.25 189.75,-215.25 189.75,-215.25 195.75,-215.25 201.75,-221.25 201.75,-227.25 201.75,-227.25 201.75,-241.25 201.75,-241.25 201.75,-247.25 195.75,-253.25 189.75,-253.25"/>
<text text-anchor="middle" x="162.75" y="-238.05" font-family="Times,serif" font-size="14.00" fill="#00f2ff">Syntax A</text>
<text text-anchor="middle" x="162.75" y="-223.05" font-family="Times,serif" font-size="14.00" fill="#00f2ff">(Old Code)</text>
</g>
<!-- Syntax2 -->
<g id="node2" class="node">
<title>Syntax2</title>
<path fill="#161b22" stroke="#00f2ff" d="M122.25,-164.25C122.25,-164.25 63.25,-164.25 63.25,-164.25 57.25,-164.25 51.25,-158.25 51.25,-152.25 51.25,-152.25 51.25,-138.25 51.25,-138.25 51.25,-132.25 57.25,-126.25 63.25,-126.25 63.25,-126.25 122.25,-126.25 122.25,-126.25 128.25,-126.25 134.25,-132.25 134.25,-138.25 134.25,-138.25 134.25,-152.25 134.25,-152.25 134.25,-158.25 128.25,-164.25 122.25,-164.25"/>
<text text-anchor="middle" x="92.75" y="-149.05" font-family="Times,serif" font-size="14.00" fill="#00f2ff">Syntax B</text>
<text text-anchor="middle" x="92.75" y="-134.05" font-family="Times,serif" font-size="14.00" fill="#00f2ff">(New Code)</text>
</g>
<!-- Syntax1&#45;&gt;Syntax2 -->
<g id="edge3" class="edge">
<title>Syntax1&#45;&gt;Syntax2</title>
<path fill="none" stroke="#ff00ff" stroke-dasharray="5,2" d="M148.25,-215.22C138.3,-202.86 124.94,-186.25 113.82,-172.43"/>
<polygon fill="#ff00ff" stroke="#ff00ff" points="107.24,-164.25 117.01,-169.22 110.37,-168.15 113.5,-172.04 113.5,-172.04 113.5,-172.04 110.37,-168.15 110,-174.87 107.24,-164.25 107.24,-164.25"/>
<text text-anchor="middle" x="167.75" y="-186.05" font-family="Times,serif" font-size="14.00"> Dissolution </text>
</g>
<!-- Intent -->
<g id="node3" class="node">
<title>Intent</title>
<path fill="#161b22" stroke="#00ff00" stroke-width="3" d="M213.75,-70.6C213.75,-73.24 184.62,-75.38 148.75,-75.38 112.88,-75.38 83.75,-73.24 83.75,-70.6 83.75,-70.6 83.75,-27.65 83.75,-27.65 83.75,-25.01 112.88,-22.87 148.75,-22.87 184.62,-22.87 213.75,-25.01 213.75,-27.65 213.75,-27.65 213.75,-70.6 213.75,-70.6"/>
<path fill="none" stroke="#00ff00" stroke-width="3" d="M213.75,-70.6C213.75,-67.97 184.62,-65.83 148.75,-65.83 112.88,-65.83 83.75,-67.97 83.75,-70.6"/>
<text text-anchor="middle" x="148.75" y="-52.92" font-family="Times,serif" font-size="14.00" fill="#00f2ff">ETERNAL INTENT</text>
<text text-anchor="middle" x="148.75" y="-37.92" font-family="Times,serif" font-size="14.00" fill="#00f2ff">(The &#39;Why&#39;)</text>
</g>
<!-- Syntax1&#45;&gt;Intent -->
<g id="edge1" class="edge">
<title>Syntax1&#45;&gt;Intent</title>
<path fill="none" stroke="#ff00ff" d="M198.67,-208.03C201.49,-204.72 203.94,-201.12 205.75,-197.25 225.31,-155.37 226.33,-134.64 205.75,-93.25 202.32,-86.36 197.21,-80.28 191.44,-75.02"/>
<polygon fill="#ff00ff" stroke="#ff00ff" points="196.1,-205.65 191.55,-215.22 201.07,-210.58 196.1,-205.65"/>
<text text-anchor="middle" x="251.75" y="-141.55" font-family="Times,serif" font-size="14.00"> Expresses </text>
</g>
<!-- Syntax2&#45;&gt;Intent -->
<g id="edge2" class="edge">
<title>Syntax2&#45;&gt;Intent</title>
<path fill="none" stroke="#ff00ff" d="M77.53,-116.46C75.24,-108.65 74.78,-100.35 78.75,-93.25 82.86,-85.9 88.79,-79.64 95.49,-74.37"/>
<polygon fill="#ff00ff" stroke="#ff00ff" points="74.34,-117.91 81.22,-125.97 80.87,-115.38 74.34,-117.91"/>
<text text-anchor="middle" x="142.25" y="-97.05" font-family="Times,serif" font-size="14.00"> Expresses (High&#45;Res) </text>
</g>
</g>
</svg>
