<?xml version="1.0" encoding="UTF-8" standalone="no"?>
<!DOCTYPE svg PUBLIC "-//W3C//DTD SVG 1.1//EN"
 "http://www.w3.org/Graphics/SVG/1.1/DTD/svg11.dtd">
<!-- Generated by graphviz version 2.43.0 (0)
 -->
<!-- Title: PhilLogicJump Pages: 1 -->
<svg width="294pt" height="312pt"
 viewBox="0.00 0.00 294.00 312.00" xmlns="http://www.w3.org/2000/svg" xmlns:xlink="http://www.w3.org/1999/xlink">
<g id="graph0" class="graph" transform="scale(1 1) rotate(0) translate(4 308)">
<title>PhilLogicJump</title>
<polygon fill="#0d1117" stroke="transparent" points="-4,4 -4,-308 290,-308 290,4 -4,4"/>
<text text-anchor="middle" x="143" y="-7.8" font-family="Helvetica,sans-Serif" font-size="14.00" fill="#00f2ff">P1: Linear Stagnation vs. Transfinite Leaping</text>
<!-- Linear -->
<g id="node1" class="node">
<title>Linear</title>
<path fill="#161b22" stroke="#ff0000" d="M202,-304C202,-304 84,-304 84,-304 78,-304 72,-298 72,-292 72,-292 72,-278 72,-278 72,-272 78,-266 84,-266 84,-266 202,-266 202,-266 208,-266 214,-272 214,-278 214,-278 214,-292 214,-292 214,-298 208,-304 202,-304"/>
<text text-anchor="middle" x="143" y="-288.8" font-family="Times,serif" font-size="14.00" fill="#00f2ff">Linear Computation</text>
<text text-anchor="middle" x="143" y="-273.8" font-family="Times,serif" font-size="14.00" fill="#00f2ff">(Incremental Patching)</text>
</g>
<!-- Wall -->
<g id="node2" class="node">
<title>Wall</title>
<path fill="#161b22" stroke="#ff0000" d="M178.5,-229C178.5,-229 107.5,-229 107.5,-229 101.5,-229 95.5,-223 95.5,-217 95.5,-217 95.5,-205 95.5,-205 95.5,-199 101.5,-193 107.5,-193 107.5,-193 178.5,-193 178.5,-193 184.5,-193 190.5,-199 190.5,-205 190.5,-205 190.5,-217 190.5,-217 190.5,-223 184.5,-229 178.5,-229"/>
<text text-anchor="middle" x="143" y="-207.3" font-family="Times,serif" font-size="14.00" fill="#00f2ff">Gödelian Wall</text>
</g>
<!-- Linear&#45;&gt;Wall -->
<g id="edge1" class="edge">
<title>Linear&#45;&gt;Wall</title>
<path fill="none" stroke="#ff00ff" d="M143,-265.83C143,-257.89 143,-248.41 143,-239.63"/>
<polygon fill="#ff00ff" stroke="#ff00ff" points="143,-229.42 147.5,-239.42 143,-234.42 143,-239.42 143,-239.42 143,-239.42 143,-234.42 138.5,-239.42 143,-229.42 143,-229.42"/>
</g>
<!-- Transfinite -->
<g id="node3" class="node">
<title>Transfinite</title>
<path fill="#161b22" stroke="#00ff00" stroke-width="3" d="M189.5,-142C189.5,-142 96.5,-142 96.5,-142 90.5,-142 84.5,-136 84.5,-130 84.5,-130 84.5,-116 84.5,-116 84.5,-110 90.5,-104 96.5,-104 96.5,-104 189.5,-104 189.5,-104 195.5,-104 201.5,-110 201.5,-116 201.5,-116 201.5,-130 201.5,-130 201.5,-136 195.5,-142 189.5,-142"/>
<text text-anchor="middle" x="143" y="-126.8" font-family="Times,serif" font-size="14.00" fill="#00f2ff">Transfinite Leap</text>
<text text-anchor="middle" x="143" y="-111.8" font-family="Times,serif" font-size="14.00" fill="#00f2ff">(Axiomatic Reset)</text>
</g>
<!-- Wall&#45;&gt;Transfinite -->
<g id="edge2" class="edge">
<title>Wall&#45;&gt;Transfinite</title>
<path fill="none" stroke="#ff00ff" d="M143,-192.6C143,-181.06 143,-165.65 143,-152.36"/>
<polygon fill="#ff00ff" stroke="#ff00ff" points="143,-142.27 147.5,-152.27 143,-147.27 143,-152.27 143,-152.27 143,-152.27 143,-147.27 138.5,-152.27 143,-142.27 143,-142.27"/>
<text text-anchor="middle" x="184.5" y="-163.8" font-family="Times,serif" font-size="14.00"> The +1 Move </text>
</g>
<!-- HigherState -->
<g id="node4" class="node">
<title>HigherState</title>
<path fill="#161b22" stroke="#ffff00" d="M237.05,-42.51C237.05,-42.51 237.05,-47.49 237.05,-47.49 237.05,-49.97 234.6,-52.92 232.16,-53.39 232.16,-53.39 186.84,-62.07 186.84,-62.07 184.4,-62.53 179.47,-63 176.98,-63 176.98,-63 109.02,-63 109.02,-63 106.53,-63 101.6,-62.53 99.16,-62.07 99.16,-62.07 53.84,-53.39 53.84,-53.39 51.4,-52.92 48.95,-49.97 48.95,-47.49 48.95,-47.49 48.95,-42.51 48.95,-42.51 48.95,-40.03 51.4,-37.08 53.84,-36.61 53.84,-36.61 99.16,-27.93 99.16,-27.93 101.6,-27.47 106.53,-27 109.02,-27 109.02,-27 176.98,-27 176.98,-27 179.47,-27 184.4,-27.47 186.84,-27.93 186.84,-27.93 232.16,-36.61 232.16,-36.61 234.6,-37.08 237.05,-40.03 237.05,-42.51"/>
<path fill="none" stroke="#ffff00" d="M241.04,-41.41C241.04,-41.41 241.04,-48.59 241.04,-48.59 241.04,-52.18 237.51,-56.44 233.99,-57.11 233.99,-57.11 189.38,-65.65 189.38,-65.65 185.86,-66.33 178.74,-67 175.16,-67 175.16,-67 110.84,-67 110.84,-67 107.26,-67 100.14,-66.33 96.62,-65.65 96.62,-65.65 52.01,-57.11 52.01,-57.11 48.49,-56.44 44.96,-52.18 44.96,-48.59 44.96,-48.59 44.96,-41.41 44.96,-41.41 44.96,-37.82 48.49,-33.56 52.01,-32.89 52.01,-32.89 96.62,-24.35 96.62,-24.35 100.14,-23.67 107.26,-23 110.84,-23 110.84,-23 175.16,-23 175.16,-23 178.74,-23 185.86,-23.67 189.38,-24.35 189.38,-24.35 233.99,-32.89 233.99,-32.89 237.51,-33.56 241.04,-37.82 241.04,-41.41"/>
<text text-anchor="middle" x="143" y="-41.3" font-family="Times,serif" font-size="14.00" fill="#00f2ff">Higher&#45;Order System</text>
</g>
<!-- Transfinite&#45;&gt;HigherState -->
<g id="edge3" class="edge">
<title>Transfinite&#45;&gt;HigherState</title>
<path fill="none" stroke="#ff00ff" d="M143,-103.99C143,-96.04 143,-86.46 143,-77.39"/>
<polygon fill="#ff00ff" stroke="#ff00ff" points="143,-67.12 147.5,-77.12 143,-72.12 143,-77.12 143,-77.12 143,-77.12 143,-72.12 138.5,-77.12 143,-67.12 143,-67.12"/>
</g>
</g>
</svg>
