<?xml version="1.0" encoding="UTF-8" standalone="no"?>
<!DOCTYPE svg PUBLIC "-//W3C//DTD SVG 1.1//EN"
 "http://www.w3.org/Graphics/SVG/1.1/DTD/svg11.dtd">
<!-- Generated by graphviz version 2.43.0 (0)
 -->
<!-- Title: PhilLeapMechanic Pages: 1 -->
<svg width="430pt" height="231pt"
 viewBox="0.00 0.00 430.26 231.00" xmlns="http://www.w3.org/2000/svg" xmlns:xlink="http://www.w3.org/1999/xlink">
<g id="graph0" class="graph" transform="scale(1 1) rotate(0) translate(4 227)">
<title>PhilLeapMechanic</title>
<polygon fill="#0d1117" stroke="transparent" points="-4,4 -4,-227 426.26,-227 426.26,4 -4,4"/>
<text text-anchor="middle" x="211.13" y="-7.8" font-family="Helvetica,sans-Serif" font-size="14.00" fill="#00f2ff">P4: The Mechanics of the Transfinite Leap</text>
<!-- Inside -->
<g id="node1" class="node">
<title>Inside</title>
<path fill="#161b22" stroke="#00f2ff" d="M345.26,-223C345.26,-223 255.26,-223 255.26,-223 249.26,-223 243.26,-217 243.26,-211 243.26,-211 243.26,-197 243.26,-197 243.26,-191 249.26,-185 255.26,-185 255.26,-185 345.26,-185 345.26,-185 351.26,-185 357.26,-191 357.26,-197 357.26,-197 357.26,-211 357.26,-211 357.26,-217 351.26,-223 345.26,-223"/>
<text text-anchor="middle" x="300.26" y="-207.8" font-family="Times,serif" font-size="14.00" fill="#00f2ff">Inside the System</text>
<text text-anchor="middle" x="300.26" y="-192.8" font-family="Times,serif" font-size="14.00" fill="#00f2ff">(Provable Truths)</text>
</g>
<!-- Bridge -->
<g id="node3" class="node">
<title>Bridge</title>
<path fill="#161b22" stroke="#ffff00" stroke-width="2" d="M144.34,-146.62C144.34,-146.62 12.16,-131.38 12.16,-131.38 6.2,-130.69 6.2,-129.31 12.16,-128.62 12.16,-128.62 144.34,-113.38 144.34,-113.38 150.3,-112.69 162.22,-112.69 168.18,-113.38 168.18,-113.38 300.35,-128.62 300.35,-128.62 306.31,-129.31 306.31,-130.69 300.35,-131.38 300.35,-131.38 168.18,-146.62 168.18,-146.62 162.22,-147.31 150.3,-147.31 144.34,-146.62"/>
<text text-anchor="middle" x="156.26" y="-126.3" font-family="Times,serif" font-size="14.00" fill="#00f2ff">THE TRANSFINITE LEAP</text>
</g>
<!-- Inside&#45;&gt;Bridge -->
<g id="edge1" class="edge">
<title>Inside&#45;&gt;Bridge</title>
<path fill="none" stroke="#ff00ff" d="M263.92,-184.83C242.19,-173.97 214.67,-160.21 192.9,-149.32"/>
<polygon fill="#ff00ff" stroke="#ff00ff" points="183.95,-144.85 194.9,-145.29 188.42,-147.08 192.89,-149.32 192.89,-149.32 192.89,-149.32 188.42,-147.08 190.88,-153.34 183.95,-144.85 183.95,-144.85"/>
</g>
<!-- Outside -->
<g id="node2" class="node">
<title>Outside</title>
<path fill="#161b22" stroke="#00ff00" d="M304.26,-61C304.26,-61 200.26,-61 200.26,-61 194.26,-61 188.26,-55 188.26,-49 188.26,-49 188.26,-35 188.26,-35 188.26,-29 194.26,-23 200.26,-23 200.26,-23 304.26,-23 304.26,-23 310.26,-23 316.26,-29 316.26,-35 316.26,-35 316.26,-49 316.26,-49 316.26,-55 310.26,-61 304.26,-61"/>
<text text-anchor="middle" x="252.26" y="-45.8" font-family="Times,serif" font-size="14.00" fill="#00f2ff">Outside the System</text>
<text text-anchor="middle" x="252.26" y="-30.8" font-family="Times,serif" font-size="14.00" fill="#00f2ff">(Unprovable Truths)</text>
</g>
<!-- Outside&#45;&gt;Inside -->
<g id="edge3" class="edge">
<title>Outside&#45;&gt;Inside</title>
<path fill="none" stroke="#ff00ff" stroke-dasharray="1,5" d="M294.47,-61.02C302,-65.89 309.07,-71.84 314.26,-79 334.52,-106.97 324.11,-148.19 313.38,-175.31"/>
<polygon fill="#ff00ff" stroke="#ff00ff" points="309.47,-184.62 309.2,-173.66 311.41,-180.01 313.35,-175.4 313.35,-175.4 313.35,-175.4 311.41,-180.01 317.49,-177.14 309.47,-184.62 309.47,-184.62"/>
<text text-anchor="middle" x="373.76" y="-126.3" font-family="Times,serif" font-size="14.00"> New Provability </text>
</g>
<!-- Bridge&#45;&gt;Outside -->
<g id="edge2" class="edge">
<title>Bridge&#45;&gt;Outside</title>
<path fill="none" stroke="#ff00ff" d="M173.42,-113.62C187.51,-101 207.75,-82.87 224.19,-68.14"/>
<polygon fill="#ff00ff" stroke="#ff00ff" points="231.91,-61.23 227.47,-71.25 228.19,-64.56 224.46,-67.9 224.46,-67.9 224.46,-67.9 228.19,-64.56 221.46,-64.55 231.91,-61.23 231.91,-61.23"/>
<text text-anchor="middle" x="260.26" y="-82.8" font-family="Times,serif" font-size="14.00"> Faith in Intuition </text>
</g>
</g>
</svg>
