<?xml version="1.0" encoding="UTF-8" standalone="no"?>
<!DOCTYPE svg PUBLIC "-//W3C//DTD SVG 1.1//EN"
 "http://www.w3.org/Graphics/SVG/1.1/DTD/svg11.dtd">
<!-- Generated by graphviz version 2.43.0 (0)
 -->
<!-- Title: PhilAxiomChoice Pages: 1 -->
<svg width="235pt" height="394pt"
 viewBox="0.00 0.00 234.72 394.19" xmlns="http://www.w3.org/2000/svg" xmlns:xlink="http://www.w3.org/1999/xlink">
<g id="graph0" class="graph" transform="scale(1 1) rotate(0) translate(4 390.19)">
<title>PhilAxiomChoice</title>
<polygon fill="#0d1117" stroke="transparent" points="-4,4 -4,-390.19 230.72,-390.19 230.72,4 -4,4"/>
<text text-anchor="middle" x="113.36" y="-7.8" font-family="Helvetica,sans-Serif" font-size="14.00" fill="#00f2ff">P2: The True Act of Engineering</text>
<!-- Calculation -->
<g id="node1" class="node">
<title>Calculation</title>
<path fill="#161b22" stroke="#00f2ff" d="M143.22,-386.19C143.22,-386.19 66.22,-386.19 66.22,-386.19 60.22,-386.19 54.22,-380.19 54.22,-374.19 54.22,-374.19 54.22,-360.19 54.22,-360.19 54.22,-354.19 60.22,-348.19 66.22,-348.19 66.22,-348.19 143.22,-348.19 143.22,-348.19 149.22,-348.19 155.22,-354.19 155.22,-360.19 155.22,-360.19 155.22,-374.19 155.22,-374.19 155.22,-380.19 149.22,-386.19 143.22,-386.19"/>
<text text-anchor="middle" x="104.72" y="-370.99" font-family="Times,serif" font-size="14.00" fill="#00f2ff">Calculation</text>
<text text-anchor="middle" x="104.72" y="-355.99" font-family="Times,serif" font-size="14.00" fill="#00f2ff">(Formal Labor)</text>
</g>
<!-- Engineering -->
<g id="node2" class="node">
<title>Engineering</title>
<path fill="#161b22" stroke="#00ff00" stroke-width="2" d="M141.22,-297.19C141.22,-297.19 68.22,-297.19 68.22,-297.19 62.22,-297.19 56.22,-291.19 56.22,-285.19 56.22,-285.19 56.22,-271.19 56.22,-271.19 56.22,-265.19 62.22,-259.19 68.22,-259.19 68.22,-259.19 141.22,-259.19 141.22,-259.19 147.22,-259.19 153.22,-265.19 153.22,-271.19 153.22,-271.19 153.22,-285.19 153.22,-285.19 153.22,-291.19 147.22,-297.19 141.22,-297.19"/>
<text text-anchor="middle" x="104.72" y="-281.99" font-family="Times,serif" font-size="14.00" fill="#00f2ff">Axiom Choice</text>
<text text-anchor="middle" x="104.72" y="-266.99" font-family="Times,serif" font-size="14.00" fill="#00f2ff">(Creative Act)</text>
</g>
<!-- Calculation&#45;&gt;Engineering -->
<g id="edge1" class="edge">
<title>Calculation&#45;&gt;Engineering</title>
<path fill="none" stroke="#ff00ff" d="M104.72,-348.17C104.72,-336.38 104.72,-320.75 104.72,-307.35"/>
<polygon fill="#ff00ff" stroke="#ff00ff" points="104.72,-297.2 109.22,-307.2 104.72,-302.2 104.72,-307.2 104.72,-307.2 104.72,-307.2 104.72,-302.2 100.22,-307.2 104.72,-297.2 104.72,-297.2"/>
<text text-anchor="middle" x="165.72" y="-318.99" font-family="Times,serif" font-size="14.00"> Diminishing Returns </text>
</g>
<!-- Choice -->
<g id="node3" class="node">
<title>Choice</title>
<path fill="#161b22" stroke="#ffff00" d="M197.66,-146.13C197.66,-146.13 141.5,-146.13 141.5,-146.13 135.5,-146.13 127.64,-151.84 125.78,-157.54 125.78,-157.54 108.43,-210.88 108.43,-210.88 106.58,-216.58 102.87,-216.58 101.01,-210.88 101.01,-210.88 83.66,-157.54 83.66,-157.54 81.8,-151.84 73.95,-146.13 67.95,-146.13 67.95,-146.13 11.78,-146.13 11.78,-146.13 5.78,-146.13 4.63,-142.61 9.49,-139.08 9.49,-139.08 54.92,-106.11 54.92,-106.11 59.78,-102.59 62.78,-93.36 60.92,-87.65 60.92,-87.65 43.57,-34.32 43.57,-34.32 41.72,-28.61 44.72,-26.43 49.57,-29.95 49.57,-29.95 95.01,-62.92 95.01,-62.92 99.87,-66.45 109.58,-66.45 114.43,-62.92 114.43,-62.92 159.87,-29.95 159.87,-29.95 164.72,-26.43 167.72,-28.61 165.87,-34.32 165.87,-34.32 148.52,-87.65 148.52,-87.65 146.66,-93.36 149.66,-102.59 154.52,-106.11 154.52,-106.11 199.95,-139.08 199.95,-139.08 204.81,-142.61 203.66,-146.13 197.66,-146.13"/>
<text text-anchor="middle" x="104.72" y="-118.9" font-family="Times,serif" font-size="14.00" fill="#00f2ff">THE LEAP</text>
</g>
<!-- Engineering&#45;&gt;Choice -->
<g id="edge2" class="edge">
<title>Engineering&#45;&gt;Choice</title>
<path fill="none" stroke="#ff00ff" d="M104.72,-258.97C104.72,-251.64 104.72,-242.55 104.72,-232.59"/>
<polygon fill="#ff00ff" stroke="#ff00ff" points="104.72,-222.36 109.22,-232.36 104.72,-227.36 104.72,-232.36 104.72,-232.36 104.72,-232.36 104.72,-227.36 100.22,-232.36 104.72,-222.36 104.72,-222.36"/>
</g>
</g>
</svg>
