<?xml version="1.0" encoding="UTF-8" standalone="no"?>
<!DOCTYPE svg PUBLIC "-//W3C//DTD SVG 1.1//EN"
 "http://www.w3.org/Graphics/SVG/1.1/DTD/svg11.dtd">
<!-- Generated by graphviz version 2.43.0 (0)
 -->
<!-- Title: SteadyState Pages: 1 -->
<svg width="359pt" height="701pt"
 viewBox="0.00 0.00 358.82 700.93" xmlns="http://www.w3.org/2000/svg" xmlns:xlink="http://www.w3.org/1999/xlink">
<g id="graph0" class="graph" transform="scale(1 1) rotate(0) translate(4 696.93)">
<title>SteadyState</title>
<polygon fill="#0d1117" stroke="transparent" points="-4,4 -4,-696.93 354.82,-696.93 354.82,4 -4,4"/>
<text text-anchor="middle" x="175.41" y="-7.8" font-family="Helvetica,sans-Serif" font-size="14.00" fill="#00f2ff">S5: Transfinite Steady State</text>
<!-- Input -->
<g id="node1" class="node">
<title>Input</title>
<path fill="#161b22" stroke="#00f2ff" d="M212.41,-692.93C212.41,-692.93 138.41,-692.93 138.41,-692.93 132.41,-692.93 126.41,-686.93 126.41,-680.93 126.41,-680.93 126.41,-668.93 126.41,-668.93 126.41,-662.93 132.41,-656.93 138.41,-656.93 138.41,-656.93 212.41,-656.93 212.41,-656.93 218.41,-656.93 224.41,-662.93 224.41,-668.93 224.41,-668.93 224.41,-680.93 224.41,-680.93 224.41,-686.93 218.41,-692.93 212.41,-692.93"/>
<text text-anchor="middle" x="175.41" y="-671.23" font-family="Times,serif" font-size="14.00" fill="#00f2ff">Semantic Goal</text>
</g>
<!-- Singularity -->
<g id="node2" class="node">
<title>Singularity</title>
<path fill="#161b22" stroke="#ffff00" d="M338.72,-492.45C338.72,-492.45 228.79,-492.45 228.79,-492.45 222.79,-492.45 214.94,-498.16 213.08,-503.86 213.08,-503.86 179.12,-608.35 179.12,-608.35 177.26,-614.05 173.55,-614.05 171.7,-608.35 171.7,-608.35 137.73,-503.86 137.73,-503.86 135.88,-498.16 128.02,-492.45 122.02,-492.45 122.02,-492.45 12.09,-492.45 12.09,-492.45 6.09,-492.45 4.95,-488.93 9.8,-485.4 9.8,-485.4 98.73,-420.82 98.73,-420.82 103.59,-417.3 106.59,-408.07 104.73,-402.36 104.73,-402.36 70.77,-297.88 70.77,-297.88 68.91,-292.17 71.91,-289.99 76.77,-293.52 76.77,-293.52 165.7,-358.09 165.7,-358.09 170.55,-361.62 180.26,-361.62 185.12,-358.09 185.12,-358.09 274.05,-293.52 274.05,-293.52 278.9,-289.99 281.9,-292.17 280.05,-297.88 280.05,-297.88 246.08,-402.36 246.08,-402.36 244.23,-408.07 247.23,-417.3 252.08,-420.82 252.08,-420.82 341.01,-485.4 341.01,-485.4 345.87,-488.93 344.72,-492.45 338.72,-492.45"/>
<text text-anchor="middle" x="175.41" y="-449.41" font-family="Times,serif" font-size="14.00" fill="#00f2ff">Integrated Processing</text>
</g>
<!-- Input&#45;&gt;Singularity -->
<g id="edge1" class="edge">
<title>Input&#45;&gt;Singularity</title>
<path fill="none" stroke="#ff00ff" d="M175.41,-656.69C175.41,-649.55 175.41,-640.54 175.41,-630.31"/>
<polygon fill="#ff00ff" stroke="#ff00ff" points="175.41,-620.15 179.91,-630.15 175.41,-625.15 175.41,-630.15 175.41,-630.15 175.41,-630.15 175.41,-625.15 170.91,-630.15 175.41,-620.15 175.41,-620.15"/>
</g>
<!-- Audit -->
<g id="node3" class="node">
<title>Audit</title>
<ellipse fill="#161b22" stroke="#00ff00" cx="175.41" cy="-169.64" rx="65.79" ry="65.79"/>
<text text-anchor="middle" x="175.41" y="-165.94" font-family="Times,serif" font-size="14.00" fill="#00f2ff">Self&#45;Correction</text>
</g>
<!-- Singularity&#45;&gt;Audit -->
<g id="edge2" class="edge">
<title>Singularity&#45;&gt;Audit</title>
<path fill="none" stroke="#ff00ff" d="M173.68,-363.53C173.23,-329.11 172.97,-289.36 173.41,-253.29 173.44,-250.78 173.47,-248.22 173.51,-245.64"/>
<polygon fill="#ff00ff" stroke="#ff00ff" points="173.69,-235.61 178.01,-245.68 173.6,-240.6 173.51,-245.6 173.51,-245.6 173.51,-245.6 173.6,-240.6 169.02,-245.53 173.69,-235.61 173.69,-235.61"/>
</g>
<!-- Audit&#45;&gt;Singularity -->
<g id="edge3" class="edge">
<title>Audit&#45;&gt;Singularity</title>
<path fill="none" stroke="#ff00ff" d="M175.41,-235.47C175.41,-270.85 175.41,-315.35 175.41,-354.8"/>
<polygon fill="#ff00ff" stroke="#ff00ff" points="175.41,-364.98 170.91,-354.98 175.41,-359.98 175.41,-354.98 175.41,-354.98 175.41,-354.98 175.41,-359.98 179.91,-354.98 175.41,-364.98 175.41,-364.98"/>
<text text-anchor="middle" x="193.91" y="-257.09" font-family="Times,serif" font-size="14.00"> Loop </text>
</g>
<!-- State -->
<g id="node4" class="node">
<title>State</title>
<path fill="#161b22" stroke="#00f2ff" stroke-width="3" d="M278.74,-42.51C278.74,-42.51 278.74,-47.49 278.74,-47.49 278.74,-49.97 276.29,-52.88 273.84,-53.31 273.84,-53.31 223.11,-62.15 223.11,-62.15 220.66,-62.57 215.72,-63 213.24,-63 213.24,-63 137.58,-63 137.58,-63 135.09,-63 130.16,-62.57 127.71,-62.15 127.71,-62.15 76.98,-53.31 76.98,-53.31 74.53,-52.88 72.08,-49.97 72.08,-47.49 72.08,-47.49 72.08,-42.51 72.08,-42.51 72.08,-40.03 74.53,-37.12 76.98,-36.69 76.98,-36.69 127.71,-27.85 127.71,-27.85 130.16,-27.43 135.09,-27 137.58,-27 137.58,-27 213.24,-27 213.24,-27 215.72,-27 220.66,-27.43 223.11,-27.85 223.11,-27.85 273.84,-36.69 273.84,-36.69 276.29,-37.12 278.74,-40.03 278.74,-42.51"/>
<path fill="none" stroke="#00f2ff" stroke-width="3" d="M282.74,-41.39C282.74,-41.39 282.74,-48.61 282.74,-48.61 282.74,-52.21 279.18,-56.44 275.63,-57.06 275.63,-57.06 225.66,-65.76 225.66,-65.76 222.11,-66.38 214.95,-67 211.34,-67 211.34,-67 139.48,-67 139.48,-67 135.87,-67 128.71,-66.38 125.16,-65.76 125.16,-65.76 75.19,-57.06 75.19,-57.06 71.63,-56.44 68.08,-52.21 68.08,-48.61 68.08,-48.61 68.08,-41.39 68.08,-41.39 68.08,-37.79 71.63,-33.56 75.19,-32.94 75.19,-32.94 125.16,-24.24 125.16,-24.24 128.71,-23.62 135.87,-23 139.48,-23 139.48,-23 211.34,-23 211.34,-23 214.95,-23 222.11,-23.62 225.66,-24.24 225.66,-24.24 275.63,-32.94 275.63,-32.94 279.18,-33.56 282.74,-37.79 282.74,-41.39"/>
<text text-anchor="middle" x="175.41" y="-41.3" font-family="Times,serif" font-size="14.00" fill="#00f2ff">Transfinite Steady State</text>
</g>
<!-- Audit&#45;&gt;State -->
<g id="edge4" class="edge">
<title>Audit&#45;&gt;State</title>
<path fill="none" stroke="#ff00ff" d="M175.41,-103.73C175.41,-94.54 175.41,-85.46 175.41,-77.32"/>
<polygon fill="#ff00ff" stroke="#ff00ff" points="175.41,-67.22 179.91,-77.22 175.41,-72.22 175.41,-77.22 175.41,-77.22 175.41,-77.22 175.41,-72.22 170.91,-77.22 175.41,-67.22 175.41,-67.22"/>
</g>
</g>
</svg>
