<?xml version="1.0" encoding="UTF-8" standalone="no"?>
<!DOCTYPE svg PUBLIC "-//W3C//DTD SVG 1.1//EN"
 "http://www.w3.org/Graphics/SVG/1.1/DTD/svg11.dtd">
<!-- Generated by graphviz version 2.43.0 (0)
 -->
<!-- Title: G Pages: 1 -->
<svg width="620pt" height="173pt"
 viewBox="0.00 0.00 620.00 173.00" xmlns="http://www.w3.org/2000/svg" xmlns:xlink="http://www.w3.org/1999/xlink">
<g id="graph0" class="graph" transform="scale(1 1) rotate(0) translate(4 169)">
<title>G</title>
<polygon fill="white" stroke="transparent" points="-4,4 -4,-169 616,-169 616,4 -4,4"/>
<g id="clust1" class="cluster">
<title>cluster_lan</title>
<polygon fill="none" stroke="black" stroke-dasharray="5,2" points="8,-8 8,-157 396,-157 396,-8 8,-8"/>
<text text-anchor="middle" x="202" y="-141.8" font-family="Times,serif" font-size="14.00">Local Area Network (192.168.1.0/24)</text>
</g>
<!-- cam -->
<g id="node1" class="node">
<title>cam</title>
<polygon fill="gold" stroke="black" points="132,-87 16,-87 16,-49 132,-49 132,-87"/>
<text text-anchor="middle" x="74" y="-71.8" font-family="Times,serif" font-size="14.00">Hikvision Camera</text>
<text text-anchor="middle" x="74" y="-56.8" font-family="Times,serif" font-size="14.00">(192.168.1.64)</text>
</g>
<!-- rpi -->
<g id="node2" class="node">
<title>rpi</title>
<polygon fill="lightgreen" stroke="black" points="383.5,-69.5 279.5,-69.5 279.5,-16.5 383.5,-16.5 383.5,-69.5"/>
<text text-anchor="middle" x="331.5" y="-54.3" font-family="Times,serif" font-size="14.00">Raspberry Pi 4</text>
<text text-anchor="middle" x="331.5" y="-39.3" font-family="Times,serif" font-size="14.00">(192.168.1.165)</text>
<text text-anchor="middle" x="331.5" y="-24.3" font-family="Times,serif" font-size="14.00">go2rtc + Nginx</text>
</g>
<!-- cam&#45;&gt;rpi -->
<g id="edge1" class="edge">
<title>cam&#45;&gt;rpi</title>
<path fill="none" stroke="black" d="M132.02,-62.42C172.78,-58.43 227.57,-53.07 269.26,-48.99"/>
<polygon fill="black" stroke="black" points="269.68,-52.47 279.29,-48.01 268.99,-45.5 269.68,-52.47"/>
<text text-anchor="middle" x="203.5" y="-63.8" font-family="Times,serif" font-size="14.00">ISAPI / RTSP</text>
</g>
<!-- worlock -->
<g id="node3" class="node">
<title>worlock</title>
<polygon fill="orange" stroke="black" points="388,-126 275,-126 275,-88 388,-88 388,-126"/>
<text text-anchor="middle" x="331.5" y="-110.8" font-family="Times,serif" font-size="14.00">Worlock Desktop</text>
<text text-anchor="middle" x="331.5" y="-95.8" font-family="Times,serif" font-size="14.00">ffmpeg recorder</text>
</g>
<!-- cam&#45;&gt;worlock -->
<g id="edge2" class="edge">
<title>cam&#45;&gt;worlock</title>
<path fill="none" stroke="black" d="M132.02,-76.7C171.42,-82.72 223.93,-90.73 265.05,-97.01"/>
<polygon fill="black" stroke="black" points="264.56,-100.47 274.97,-98.52 265.61,-93.55 264.56,-100.47"/>
<text text-anchor="middle" x="203.5" y="-98.8" font-family="Times,serif" font-size="14.00">RTSP (Continuous)</text>
</g>
<!-- Client Browser -->
<g id="node4" class="node">
<title>Client Browser</title>
<polygon fill="lightblue" stroke="black" points="612,-61 513,-61 513,-25 612,-25 612,-61"/>
<text text-anchor="middle" x="562.5" y="-39.3" font-family="Times,serif" font-size="14.00">Client Browser</text>
</g>
<!-- rpi&#45;&gt;Client Browser -->
<g id="edge3" class="edge">
<title>rpi&#45;&gt;Client Browser</title>
<path fill="none" stroke="black" d="M383.61,-43C418.91,-43 465.96,-43 502.8,-43"/>
<polygon fill="black" stroke="black" points="502.9,-46.5 512.9,-43 502.9,-39.5 502.9,-46.5"/>
<text text-anchor="middle" x="450.5" y="-61.8" font-family="Times,serif" font-size="14.00">WebRTC / HLS</text>
<text text-anchor="middle" x="450.5" y="-46.8" font-family="Times,serif" font-size="14.00">(Port 80/443)</text>
</g>
</g>
</svg>
