<?xml version="1.0" encoding="UTF-8" standalone="no"?>
<!DOCTYPE svg PUBLIC "-//W3C//DTD SVG 1.1//EN"
 "http://www.w3.org/Graphics/SVG/1.1/DTD/svg11.dtd">
<!-- Generated by graphviz version 2.43.0 (0)
 -->
<!-- Title: G Pages: 1 -->
<svg width="714pt" height="153pt"
 viewBox="0.00 0.00 714.00 153.00" xmlns="http://www.w3.org/2000/svg" xmlns:xlink="http://www.w3.org/1999/xlink">
<g id="graph0" class="graph" transform="scale(1 1) rotate(0) translate(4 149)">
<title>G</title>
<polygon fill="white" stroke="transparent" points="-4,4 -4,-149 710,-149 710,4 -4,4"/>
<g id="clust1" class="cluster">
<title>cluster_lan</title>
<polygon fill="none" stroke="black" stroke-dasharray="5,2" points="8,-44 8,-137 698,-137 698,-44 8,-44"/>
<text text-anchor="middle" x="353" y="-121.8" font-family="Times,serif" font-size="14.00">Local Area Network (192.168.1.0/24)</text>
</g>
<!-- cam -->
<g id="node1" class="node">
<title>cam</title>
<polygon fill="gold" stroke="black" points="132,-98 16,-98 16,-60 132,-60 132,-98"/>
<text text-anchor="middle" x="74" y="-82.8" font-family="Times,serif" font-size="14.00">Hikvision Camera</text>
<text text-anchor="middle" x="74" y="-67.8" font-family="Times,serif" font-size="14.00">(192.168.1.64)</text>
</g>
<!-- rpi -->
<g id="node2" class="node">
<title>rpi</title>
<polygon fill="lightgreen" stroke="black" points="452,-105.5 277,-105.5 277,-52.5 452,-52.5 452,-105.5"/>
<text text-anchor="middle" x="364.5" y="-90.3" font-family="Times,serif" font-size="14.00">Raspberry Pi 4 (Relay Node)</text>
<text text-anchor="middle" x="364.5" y="-75.3" font-family="Times,serif" font-size="14.00">(192.168.1.165)</text>
<text text-anchor="middle" x="364.5" y="-60.3" font-family="Times,serif" font-size="14.00">go2rtc + Nginx</text>
</g>
<!-- cam&#45;&gt;rpi -->
<g id="edge1" class="edge">
<title>cam&#45;&gt;rpi</title>
<path fill="none" stroke="black" d="M132.34,-79C170.77,-79 222.3,-79 266.96,-79"/>
<polygon fill="black" stroke="black" points="266.97,-82.5 276.97,-79 266.97,-75.5 266.97,-82.5"/>
<text text-anchor="middle" x="204.5" y="-82.8" font-family="Times,serif" font-size="14.00">RTSP (Single Feed)</text>
</g>
<!-- worlock -->
<g id="node3" class="node">
<title>worlock</title>
<polygon fill="orange" stroke="black" points="690,-98 577,-98 577,-60 690,-60 690,-98"/>
<text text-anchor="middle" x="633.5" y="-82.8" font-family="Times,serif" font-size="14.00">Worlock Desktop</text>
<text text-anchor="middle" x="633.5" y="-67.8" font-family="Times,serif" font-size="14.00">ffmpeg recorder</text>
</g>
<!-- rpi&#45;&gt;worlock -->
<g id="edge2" class="edge">
<title>rpi&#45;&gt;worlock</title>
<path fill="none" stroke="black" d="M452.19,-79C489.31,-79 531.96,-79 566.46,-79"/>
<polygon fill="black" stroke="black" points="566.88,-82.5 576.88,-79 566.88,-75.5 566.88,-82.5"/>
<text text-anchor="middle" x="514.5" y="-82.8" font-family="Times,serif" font-size="14.00">RTSP Relay</text>
</g>
<!-- Client Browser -->
<g id="node4" class="node">
<title>Client Browser</title>
<polygon fill="lightblue" stroke="black" points="683,-36 584,-36 584,0 683,0 683,-36"/>
<text text-anchor="middle" x="633.5" y="-14.3" font-family="Times,serif" font-size="14.00">Client Browser</text>
</g>
<!-- rpi&#45;&gt;Client Browser -->
<g id="edge3" class="edge">
<title>rpi&#45;&gt;Client Browser</title>
<path fill="none" stroke="black" d="M452.19,-59.2C492.13,-50.07 538.48,-39.48 574.18,-31.32"/>
<polygon fill="black" stroke="black" points="574.99,-34.73 583.96,-29.09 573.43,-27.91 574.99,-34.73"/>
<text text-anchor="middle" x="514.5" y="-56.8" font-family="Times,serif" font-size="14.00">WebRTC / HLS</text>
</g>
</g>
</svg>
