<?xml version="1.0" encoding="UTF-8" standalone="no"?>
<!DOCTYPE svg PUBLIC "-//W3C//DTD SVG 1.1//EN"
 "http://www.w3.org/Graphics/SVG/1.1/DTD/svg11.dtd">
<!-- Generated by graphviz version 2.43.0 (0)
 -->
<!-- Title: G Pages: 1 -->
<svg width="300pt" height="326pt"
 viewBox="0.00 0.00 299.60 326.00" xmlns="http://www.w3.org/2000/svg" xmlns:xlink="http://www.w3.org/1999/xlink">
<g id="graph0" class="graph" transform="scale(1 1) rotate(0) translate(4 322)">
<title>G</title>
<polygon fill="white" stroke="transparent" points="-4,4 -4,-322 295.6,-322 295.6,4 -4,4"/>
<g id="clust1" class="cluster">
<title>cluster_rpi</title>
<polygon fill="none" stroke="black" points="56.6,-79 56.6,-241 184.6,-241 184.6,-79 56.6,-79"/>
<text text-anchor="middle" x="120.6" y="-225.8" font-family="Times,serif" font-size="14.00">RPI4 Node</text>
</g>
<!-- Hikvision DS&#45;2CD2742FWD -->
<g id="node1" class="node">
<title>Hikvision DS&#45;2CD2742FWD</title>
<polygon fill="gold" stroke="black" points="181.1,-318 2.1,-318 2.1,-282 181.1,-282 181.1,-318"/>
<text text-anchor="middle" x="91.6" y="-296.3" font-family="Times,serif" font-size="14.00">Hikvision DS&#45;2CD2742FWD</text>
</g>
<!-- go2rtc -->
<g id="node2" class="node">
<title>go2rtc</title>
<polygon fill="lightgreen" stroke="black" points="118.6,-210 64.6,-210 64.6,-174 118.6,-174 118.6,-210"/>
<text text-anchor="middle" x="91.6" y="-188.3" font-family="Times,serif" font-size="14.00">go2rtc</text>
</g>
<!-- Hikvision DS&#45;2CD2742FWD&#45;&gt;go2rtc -->
<g id="edge1" class="edge">
<title>Hikvision DS&#45;2CD2742FWD&#45;&gt;go2rtc</title>
<path fill="none" stroke="black" d="M24.19,-281.87C16.49,-277.27 9.61,-271.42 4.6,-264 -12.49,-238.71 23.86,-217.8 54.68,-205.37"/>
<polygon fill="black" stroke="black" points="56.33,-208.48 64.42,-201.64 53.83,-201.95 56.33,-208.48"/>
<text text-anchor="middle" x="81.1" y="-252.8" font-family="Times,serif" font-size="14.00">Main Stream (1080p/12fps)</text>
</g>
<!-- Hikvision DS&#45;2CD2742FWD&#45;&gt;go2rtc -->
<g id="edge2" class="edge">
<title>Hikvision DS&#45;2CD2742FWD&#45;&gt;go2rtc</title>
<path fill="none" stroke="black" d="M139.41,-281.9C146.66,-277.21 153.19,-271.33 157.6,-264 169.72,-243.85 148.94,-224.54 127.57,-211.16"/>
<polygon fill="black" stroke="black" points="129.18,-208.04 118.79,-205.98 125.62,-214.07 129.18,-208.04"/>
<text text-anchor="middle" x="226.1" y="-252.8" font-family="Times,serif" font-size="14.00">Sub Stream (360p/6fps)</text>
</g>
<!-- Nginx Proxy -->
<g id="node3" class="node">
<title>Nginx Proxy</title>
<polygon fill="lightcyan" stroke="black" points="150.6,-123 64.6,-123 64.6,-87 150.6,-87 150.6,-123"/>
<text text-anchor="middle" x="107.6" y="-101.3" font-family="Times,serif" font-size="14.00">Nginx Proxy</text>
</g>
<!-- go2rtc&#45;&gt;Nginx Proxy -->
<g id="edge3" class="edge">
<title>go2rtc&#45;&gt;Nginx Proxy</title>
<path fill="none" stroke="black" d="M94.84,-173.8C97.03,-162.16 99.97,-146.55 102.47,-133.24"/>
<polygon fill="black" stroke="black" points="105.96,-133.65 104.37,-123.18 99.08,-132.36 105.96,-133.65"/>
<text text-anchor="middle" x="146.6" y="-144.8" font-family="Times,serif" font-size="14.00">WS/HTTP Proxy</text>
</g>
<!-- User Viewport -->
<g id="node4" class="node">
<title>User Viewport</title>
<polygon fill="none" stroke="black" points="155.6,-36 59.6,-36 59.6,0 155.6,0 155.6,-36"/>
<text text-anchor="middle" x="107.6" y="-14.3" font-family="Times,serif" font-size="14.00">User Viewport</text>
</g>
<!-- Nginx Proxy&#45;&gt;User Viewport -->
<g id="edge4" class="edge">
<title>Nginx Proxy&#45;&gt;User Viewport</title>
<path fill="none" stroke="black" d="M107.6,-86.8C107.6,-75.16 107.6,-59.55 107.6,-46.24"/>
<polygon fill="black" stroke="black" points="111.1,-46.18 107.6,-36.18 104.1,-46.18 111.1,-46.18"/>
<text text-anchor="middle" x="151.1" y="-57.8" font-family="Times,serif" font-size="14.00">WebRTC/JPEG</text>
</g>
</g>
</svg>
