<?xml version="1.0" encoding="UTF-8" standalone="no"?>
<!DOCTYPE svg PUBLIC "-//W3C//DTD SVG 1.1//EN"
 "http://www.w3.org/Graphics/SVG/1.1/DTD/svg11.dtd">
<!-- Generated by graphviz version 2.43.0 (0)
 -->
<!-- Title: G Pages: 1 -->
<svg width="695pt" height="73pt"
 viewBox="0.00 0.00 694.99 72.99" xmlns="http://www.w3.org/2000/svg" xmlns:xlink="http://www.w3.org/1999/xlink">
<g id="graph0" class="graph" transform="scale(1 1) rotate(0) translate(4 68.99)">
<title>G</title>
<polygon fill="white" stroke="transparent" points="-4,4 -4,-68.99 690.99,-68.99 690.99,4 -4,4"/>
<!-- client -->
<g id="node1" class="node">
<title>client</title>
<ellipse fill="none" stroke="black" cx="32.5" cy="-32.5" rx="32.49" ry="32.49"/>
<text text-anchor="middle" x="32.5" y="-28.8" font-family="Times,serif" font-size="14.00">Client</text>
</g>
<!-- nginx -->
<g id="node2" class="node">
<title>nginx</title>
<polygon fill="none" stroke="black" points="271.99,-50.5 177.99,-50.5 177.99,-14.5 271.99,-14.5 271.99,-50.5"/>
<text text-anchor="middle" x="224.99" y="-28.8" font-family="Times,serif" font-size="14.00">Nginx Port 80</text>
</g>
<!-- client&#45;&gt;nginx -->
<g id="edge1" class="edge">
<title>client&#45;&gt;nginx</title>
<path fill="none" stroke="black" d="M65.38,-32.5C93.22,-32.5 134.27,-32.5 167.63,-32.5"/>
<polygon fill="black" stroke="black" points="167.72,-36 177.72,-32.5 167.72,-29 167.72,-36"/>
<text text-anchor="middle" x="121.49" y="-36.3" font-family="Times,serif" font-size="14.00">GET /camera/</text>
</g>
<!-- go2rtc -->
<g id="node3" class="node">
<title>go2rtc</title>
<polygon fill="none" stroke="black" points="476.99,-50.5 368.99,-50.5 368.99,-14.5 476.99,-14.5 476.99,-50.5"/>
<text text-anchor="middle" x="422.99" y="-28.8" font-family="Times,serif" font-size="14.00">go2rtc Port 1984</text>
</g>
<!-- nginx&#45;&gt;go2rtc -->
<g id="edge2" class="edge">
<title>nginx&#45;&gt;go2rtc</title>
<path fill="none" stroke="black" d="M272.44,-32.5C298.25,-32.5 330.73,-32.5 358.82,-32.5"/>
<polygon fill="black" stroke="black" points="358.95,-36 368.95,-32.5 358.95,-29 358.95,-36"/>
<text text-anchor="middle" x="320.49" y="-36.3" font-family="Times,serif" font-size="14.00">Proxy Pass</text>
</g>
<!-- isapi -->
<g id="node4" class="node">
<title>isapi</title>
<polygon fill="none" stroke="black" points="686.99,-50.5 583.99,-50.5 583.99,-14.5 686.99,-14.5 686.99,-50.5"/>
<text text-anchor="middle" x="635.49" y="-28.8" font-family="Times,serif" font-size="14.00">Camera Port 80</text>
</g>
<!-- go2rtc&#45;&gt;isapi -->
<g id="edge3" class="edge">
<title>go2rtc&#45;&gt;isapi</title>
<path fill="none" stroke="black" d="M477.11,-32.5C506.55,-32.5 543.26,-32.5 573.82,-32.5"/>
<polygon fill="black" stroke="black" points="573.93,-36 583.93,-32.5 573.93,-29 573.93,-36"/>
<text text-anchor="middle" x="530.49" y="-36.3" font-family="Times,serif" font-size="14.00">ISAPI Ingest</text>
</g>
</g>
</svg>
