<?xml version="1.0" encoding="UTF-8" standalone="no"?>
<!DOCTYPE svg PUBLIC "-//W3C//DTD SVG 1.1//EN"
 "http://www.w3.org/Graphics/SVG/1.1/DTD/svg11.dtd">
<!-- Generated by graphviz version 2.43.0 (0)
 -->
<!-- Title: G Pages: 1 -->
<svg width="211pt" height="387pt"
 viewBox="0.00 0.00 211.00 387.00" xmlns="http://www.w3.org/2000/svg" xmlns:xlink="http://www.w3.org/1999/xlink">
<g id="graph0" class="graph" transform="scale(1 1) rotate(0) translate(4 383)">
<title>G</title>
<polygon fill="white" stroke="transparent" points="-4,4 -4,-383 207,-383 207,4 -4,4"/>
<!-- physical -->
<g id="node1" class="node">
<title>physical</title>
<polygon fill="none" stroke="black" points="0,-0.5 0,-46.5 203,-46.5 203,-0.5 0,-0.5"/>
<text text-anchor="middle" x="101.5" y="-31.3" font-family="Times,serif" font-size="14.00">Hardware</text>
<polyline fill="none" stroke="black" points="0,-23.5 203,-23.5 "/>
<text text-anchor="middle" x="101.5" y="-8.3" font-family="Times,serif" font-size="14.00">Hikvision DS&#45;2CD2742FWD&#45;IZS</text>
</g>
<!-- firmware -->
<g id="node2" class="node">
<title>firmware</title>
<polygon fill="none" stroke="black" points="35.5,-83.5 35.5,-129.5 167.5,-129.5 167.5,-83.5 35.5,-83.5"/>
<text text-anchor="middle" x="101.5" y="-114.3" font-family="Times,serif" font-size="14.00">Firmware</text>
<polyline fill="none" stroke="black" points="35.5,-106.5 167.5,-106.5 "/>
<text text-anchor="middle" x="101.5" y="-91.3" font-family="Times,serif" font-size="14.00">V5.4.0 Build 160511</text>
</g>
<!-- physical&#45;&gt;firmware -->
<g id="edge1" class="edge">
<title>physical&#45;&gt;firmware</title>
<path fill="none" stroke="black" d="M101.5,-46.63C101.5,-54.85 101.5,-64.34 101.5,-73.27"/>
<polygon fill="black" stroke="black" points="98,-73.39 101.5,-83.39 105,-73.39 98,-73.39"/>
</g>
<!-- transport -->
<g id="node3" class="node">
<title>transport</title>
<polygon fill="none" stroke="black" points="37.5,-166.5 37.5,-212.5 165.5,-212.5 165.5,-166.5 37.5,-166.5"/>
<text text-anchor="middle" x="101.5" y="-197.3" font-family="Times,serif" font-size="14.00">Transport</text>
<polyline fill="none" stroke="black" points="37.5,-189.5 165.5,-189.5 "/>
<text text-anchor="middle" x="101.5" y="-174.3" font-family="Times,serif" font-size="14.00">ISAPI (Over HTTP)</text>
</g>
<!-- firmware&#45;&gt;transport -->
<g id="edge2" class="edge">
<title>firmware&#45;&gt;transport</title>
<path fill="none" stroke="black" d="M101.5,-129.63C101.5,-137.85 101.5,-147.34 101.5,-156.27"/>
<polygon fill="black" stroke="black" points="98,-156.39 101.5,-166.39 105,-156.39 98,-156.39"/>
</g>
<!-- codec -->
<g id="node4" class="node">
<title>codec</title>
<polygon fill="none" stroke="black" points="47,-249.5 47,-295.5 156,-295.5 156,-249.5 47,-249.5"/>
<text text-anchor="middle" x="101.5" y="-280.3" font-family="Times,serif" font-size="14.00">Codec</text>
<polyline fill="none" stroke="black" points="47,-272.5 156,-272.5 "/>
<text text-anchor="middle" x="101.5" y="-257.3" font-family="Times,serif" font-size="14.00">H.264 @ 2Mbps</text>
</g>
<!-- transport&#45;&gt;codec -->
<g id="edge3" class="edge">
<title>transport&#45;&gt;codec</title>
<path fill="none" stroke="black" d="M101.5,-212.63C101.5,-220.85 101.5,-230.34 101.5,-239.27"/>
<polygon fill="black" stroke="black" points="98,-239.39 101.5,-249.39 105,-239.39 98,-239.39"/>
</g>
<!-- delivery -->
<g id="node5" class="node">
<title>delivery</title>
<polygon fill="none" stroke="black" points="48.5,-332.5 48.5,-378.5 154.5,-378.5 154.5,-332.5 48.5,-332.5"/>
<text text-anchor="middle" x="101.5" y="-363.3" font-family="Times,serif" font-size="14.00">Delivery</text>
<polyline fill="none" stroke="black" points="48.5,-355.5 154.5,-355.5 "/>
<text text-anchor="middle" x="101.5" y="-340.3" font-family="Times,serif" font-size="14.00">go2rtc WebRTC</text>
</g>
<!-- codec&#45;&gt;delivery -->
<g id="edge4" class="edge">
<title>codec&#45;&gt;delivery</title>
<path fill="none" stroke="black" d="M101.5,-295.63C101.5,-303.85 101.5,-313.34 101.5,-322.27"/>
<polygon fill="black" stroke="black" points="98,-322.39 101.5,-332.39 105,-322.39 98,-322.39"/>
</g>
</g>
</svg>
