<?xml version="1.0" encoding="UTF-8" standalone="no"?>
<!DOCTYPE svg PUBLIC "-//W3C//DTD SVG 1.1//EN"
 "http://www.w3.org/Graphics/SVG/1.1/DTD/svg11.dtd">
<!-- Generated by graphviz version 2.43.0 (0)
 -->
<!-- Title: G Pages: 1 -->
<svg width="258pt" height="423pt"
 viewBox="0.00 0.00 257.61 423.00" xmlns="http://www.w3.org/2000/svg" xmlns:xlink="http://www.w3.org/1999/xlink">
<g id="graph0" class="graph" transform="scale(1 1) rotate(0) translate(4 419)">
<title>G</title>
<polygon fill="white" stroke="transparent" points="-4,4 -4,-419 253.61,-419 253.61,4 -4,4"/>
<!-- start -->
<g id="node1" class="node">
<title>start</title>
<ellipse fill="none" stroke="black" cx="173.32" cy="-397" rx="60.39" ry="18"/>
<text text-anchor="middle" x="173.32" y="-393.3" font-family="Times,serif" font-size="14.00">Worlock Start</text>
</g>
<!-- stream -->
<g id="node2" class="node">
<title>stream</title>
<polygon fill="none" stroke="black" points="173.32,-342 97.24,-324 173.32,-306 249.4,-324 173.32,-342"/>
<text text-anchor="middle" x="173.32" y="-320.3" font-family="Times,serif" font-size="14.00">Fetch RTSP</text>
</g>
<!-- start&#45;&gt;stream -->
<g id="edge1" class="edge">
<title>start&#45;&gt;stream</title>
<path fill="none" stroke="black" d="M173.32,-378.81C173.32,-370.79 173.32,-361.05 173.32,-352.07"/>
<polygon fill="black" stroke="black" points="176.82,-352.03 173.32,-342.03 169.82,-352.03 176.82,-352.03"/>
</g>
<!-- segment -->
<g id="node3" class="node">
<title>segment</title>
<polygon fill="none" stroke="black" points="87.32,-269 0.18,-251 87.32,-233 174.46,-251 87.32,-269"/>
<text text-anchor="middle" x="87.32" y="-247.3" font-family="Times,serif" font-size="14.00">Segment (3m)</text>
</g>
<!-- stream&#45;&gt;segment -->
<g id="edge2" class="edge">
<title>stream&#45;&gt;segment</title>
<path fill="none" stroke="black" d="M157.14,-309.65C144.45,-299.17 126.57,-284.41 112.08,-272.45"/>
<polygon fill="black" stroke="black" points="113.95,-269.45 104.01,-265.78 109.49,-274.84 113.95,-269.45"/>
</g>
<!-- retention -->
<g id="node4" class="node">
<title>retention</title>
<polygon fill="none" stroke="black" points="87.32,-196 0.18,-178 87.32,-160 174.46,-178 87.32,-196"/>
<text text-anchor="middle" x="87.32" y="-174.3" font-family="Times,serif" font-size="14.00">Retention (2d)</text>
</g>
<!-- segment&#45;&gt;retention -->
<g id="edge3" class="edge">
<title>segment&#45;&gt;retention</title>
<path fill="none" stroke="black" d="M87.32,-232.81C87.32,-224.79 87.32,-215.05 87.32,-206.07"/>
<polygon fill="black" stroke="black" points="90.82,-206.03 87.32,-196.03 83.82,-206.03 90.82,-206.03"/>
</g>
<!-- fail -->
<g id="node5" class="node">
<title>fail</title>
<polygon fill="none" stroke="black" points="122.32,-123 81.1,-105 122.32,-87 163.54,-105 122.32,-123"/>
<text text-anchor="middle" x="122.32" y="-101.3" font-family="Times,serif" font-size="14.00">Exit?</text>
</g>
<!-- retention&#45;&gt;fail -->
<g id="edge4" class="edge">
<title>retention&#45;&gt;fail</title>
<path fill="none" stroke="black" d="M95.09,-161.24C99.71,-151.86 105.67,-139.78 110.83,-129.31"/>
<polygon fill="black" stroke="black" points="114,-130.78 115.29,-120.27 107.73,-127.69 114,-130.78"/>
</g>
<!-- restart -->
<g id="node6" class="node">
<title>restart</title>
<polygon fill="none" stroke="black" points="168.32,-36 94.75,-18 168.32,0 241.89,-18 168.32,-36"/>
<text text-anchor="middle" x="168.32" y="-14.3" font-family="Times,serif" font-size="14.00">Restart (5s)</text>
</g>
<!-- fail&#45;&gt;restart -->
<g id="edge5" class="edge">
<title>fail&#45;&gt;restart</title>
<path fill="none" stroke="black" d="M129.92,-89.96C136.81,-77.23 147.11,-58.2 155.31,-43.05"/>
<polygon fill="black" stroke="black" points="158.41,-44.67 160.09,-34.21 152.25,-41.33 158.41,-44.67"/>
<text text-anchor="middle" x="158.82" y="-57.8" font-family="Times,serif" font-size="14.00">Yes</text>
</g>
<!-- restart&#45;&gt;stream -->
<g id="edge6" class="edge">
<title>restart&#45;&gt;stream</title>
<path fill="none" stroke="black" d="M178.15,-33.64C188.2,-50.05 202.32,-77.78 202.32,-104 202.32,-252 202.32,-252 202.32,-252 202.32,-268.61 195.44,-285.89 188.38,-299.24"/>
<polygon fill="black" stroke="black" points="185.18,-297.78 183.3,-308.2 191.27,-301.23 185.18,-297.78"/>
</g>
</g>
</svg>
