<?xml version="1.0" encoding="UTF-8" standalone="no"?>
<!DOCTYPE svg PUBLIC "-//W3C//DTD SVG 1.1//EN"
 "http://www.w3.org/Graphics/SVG/1.1/DTD/svg11.dtd">
<!-- Generated by graphviz version 2.43.0 (0)
 -->
<!-- Title: AutoAxiom Pages: 1 -->
<svg width="312pt" height="251pt"
 viewBox="0.00 0.00 312.00 251.00" xmlns="http://www.w3.org/2000/svg" xmlns:xlink="http://www.w3.org/1999/xlink">
<g id="graph0" class="graph" transform="scale(1 1) rotate(0) translate(4 247)">
<title>AutoAxiom</title>
<polygon fill="#0d1117" stroke="transparent" points="-4,4 -4,-247 308,-247 308,4 -4,4"/>
<text text-anchor="middle" x="152" y="-7.8" font-family="Helvetica,sans-Serif" font-size="14.00" fill="#00f2ff">T12.4: Automated Axiom Synthesis</text>
<!-- History -->
<g id="node1" class="node">
<title>History</title>
<polygon fill="#161b22" stroke="#00f2ff" points="145,-243 142,-247 121,-247 118,-243 5,-243 5,-207 145,-207 145,-243"/>
<text text-anchor="middle" x="75" y="-221.3" font-family="Times,serif" font-size="14.00" fill="#00f2ff">Previous Axiom Shifts</text>
</g>
<!-- Synthesis -->
<g id="node3" class="node">
<title>Synthesis</title>
<path fill="#161b22" stroke="#ffff00" d="M140.36,-168.09C140.36,-168.09 11.64,-135.91 11.64,-135.91 5.82,-134.46 5.82,-131.54 11.64,-130.09 11.64,-130.09 140.36,-97.91 140.36,-97.91 146.18,-96.46 157.82,-96.46 163.64,-97.91 163.64,-97.91 292.36,-130.09 292.36,-130.09 298.18,-131.54 298.18,-134.46 292.36,-135.91 292.36,-135.91 163.64,-168.09 163.64,-168.09 157.82,-169.54 146.18,-169.54 140.36,-168.09"/>
<text text-anchor="middle" x="152" y="-136.8" font-family="Times,serif" font-size="14.00" fill="#00f2ff">Axiom Synthesis Engine</text>
<text text-anchor="middle" x="152" y="-121.8" font-family="Times,serif" font-size="14.00" fill="#00f2ff">(Pattern Matcher)</text>
</g>
<!-- History&#45;&gt;Synthesis -->
<g id="edge1" class="edge">
<title>History&#45;&gt;Synthesis</title>
<path fill="none" stroke="#ff00ff" d="M89.85,-206.65C98.16,-196.93 108.88,-184.39 119.07,-172.48"/>
<polygon fill="#ff00ff" stroke="#ff00ff" points="125.66,-164.78 122.58,-175.31 122.41,-168.58 119.16,-172.38 119.16,-172.38 119.16,-172.38 122.41,-168.58 115.74,-169.46 125.66,-164.78 125.66,-164.78"/>
</g>
<!-- Failure -->
<g id="node2" class="node">
<title>Failure</title>
<path fill="#161b22" stroke="#ff0000" d="M282.5,-243C282.5,-243 175.5,-243 175.5,-243 169.5,-243 163.5,-237 163.5,-231 163.5,-231 163.5,-219 163.5,-219 163.5,-213 169.5,-207 175.5,-207 175.5,-207 282.5,-207 282.5,-207 288.5,-207 294.5,-213 294.5,-219 294.5,-219 294.5,-231 294.5,-231 294.5,-237 288.5,-243 282.5,-243"/>
<text text-anchor="middle" x="229" y="-221.3" font-family="Times,serif" font-size="14.00" fill="#00f2ff">Current Failure State</text>
</g>
<!-- Failure&#45;&gt;Synthesis -->
<g id="edge2" class="edge">
<title>Failure&#45;&gt;Synthesis</title>
<path fill="none" stroke="#ff00ff" d="M214.15,-206.65C205.84,-196.93 195.12,-184.39 184.93,-172.48"/>
<polygon fill="#ff00ff" stroke="#ff00ff" points="178.34,-164.78 188.26,-169.46 181.59,-168.58 184.84,-172.38 184.84,-172.38 184.84,-172.38 181.59,-168.58 181.42,-175.31 178.34,-164.78 178.34,-164.78"/>
</g>
<!-- Suggestion -->
<g id="node4" class="node">
<title>Suggestion</title>
<path fill="#161b22" stroke="#00ff00" d="M276.04,-59C276.04,-59 83.63,-59 83.63,-59 77.63,-59 66.59,-55.74 61.55,-52.48 61.55,-52.48 26.04,-29.52 26.04,-29.52 21,-26.26 21.96,-23 27.96,-23 27.96,-23 220.37,-23 220.37,-23 226.37,-23 237.41,-26.26 242.45,-29.52 242.45,-29.52 277.96,-52.48 277.96,-52.48 283,-55.74 282.04,-59 276.04,-59"/>
<text text-anchor="middle" x="152" y="-37.3" font-family="Times,serif" font-size="14.00" fill="#00f2ff">Proposed New Axioms</text>
</g>
<!-- Synthesis&#45;&gt;Suggestion -->
<g id="edge3" class="edge">
<title>Synthesis&#45;&gt;Suggestion</title>
<path fill="none" stroke="#ff00ff" d="M152,-94.87C152,-86.26 152,-77.24 152,-69.14"/>
<polygon fill="#ff00ff" stroke="#ff00ff" points="152,-59.14 156.5,-69.14 152,-64.14 152,-69.14 152,-69.14 152,-69.14 152,-64.14 147.5,-69.14 152,-59.14 152,-59.14"/>
</g>
</g>
</svg>
