<?xml version="1.0" encoding="UTF-8" standalone="no"?>
<!DOCTYPE svg PUBLIC "-//W3C//DTD SVG 1.1//EN"
 "http://www.w3.org/Graphics/SVG/1.1/DTD/svg11.dtd">
<!-- Generated by graphviz version 2.43.0 (0)
 -->
<!-- Title: Modules Pages: 1 -->
<svg width="374pt" height="141pt"
 viewBox="0.00 0.00 374.00 141.00" xmlns="http://www.w3.org/2000/svg" xmlns:xlink="http://www.w3.org/1999/xlink">
<g id="graph0" class="graph" transform="scale(1 1) rotate(0) translate(4 137)">
<title>Modules</title>
<polygon fill="#0d1117" stroke="transparent" points="-4,4 -4,-137 370,-137 370,4 -4,4"/>
<text text-anchor="middle" x="183" y="-7.8" font-family="Helvetica,sans-Serif" font-size="14.00" fill="#00f2ff">Future State: Expansion Modules</text>
<!-- Core -->
<g id="node1" class="node">
<title>Core</title>
<path fill="#161b22" stroke="#00f2ff" d="M232.5,-133C232.5,-133 146.5,-133 146.5,-133 140.5,-133 134.5,-127 134.5,-121 134.5,-121 134.5,-109 134.5,-109 134.5,-103 140.5,-97 146.5,-97 146.5,-97 232.5,-97 232.5,-97 238.5,-97 244.5,-103 244.5,-109 244.5,-109 244.5,-121 244.5,-121 244.5,-127 238.5,-133 232.5,-133"/>
<text text-anchor="middle" x="189.5" y="-111.3" font-family="Times,serif" font-size="14.00" fill="#00f2ff">Framework Core</text>
</g>
<!-- Oracle -->
<g id="node2" class="node">
<title>Oracle</title>
<path fill="#161b22" stroke="#ffff00" d="M65,-61C65,-61 12,-61 12,-61 6,-61 0,-55 0,-49 0,-49 0,-35 0,-35 0,-29 6,-23 12,-23 12,-23 65,-23 65,-23 71,-23 77,-29 77,-35 77,-35 77,-49 77,-49 77,-55 71,-61 65,-61"/>
<text text-anchor="middle" x="38.5" y="-45.8" font-family="Times,serif" font-size="14.00" fill="#00f2ff">The Oracle</text>
<text text-anchor="middle" x="38.5" y="-30.8" font-family="Times,serif" font-size="14.00" fill="#00f2ff">(Forensics)</text>
</g>
<!-- Core&#45;&gt;Oracle -->
<g id="edge1" class="edge">
<title>Core&#45;&gt;Oracle</title>
<path fill="none" stroke="#ff00ff" d="M153.33,-96.99C133.18,-87.52 107.83,-75.6 86.09,-65.38"/>
<polygon fill="#ff00ff" stroke="#ff00ff" points="77.01,-61.11 87.98,-61.29 81.54,-63.24 86.06,-65.36 86.06,-65.36 86.06,-65.36 81.54,-63.24 84.15,-69.44 77.01,-61.11 77.01,-61.11"/>
</g>
<!-- Weaver -->
<g id="node3" class="node">
<title>Weaver</title>
<path fill="#161b22" stroke="#ffff00" d="M172,-61C172,-61 107,-61 107,-61 101,-61 95,-55 95,-49 95,-49 95,-35 95,-35 95,-29 101,-23 107,-23 107,-23 172,-23 172,-23 178,-23 184,-29 184,-35 184,-35 184,-49 184,-49 184,-55 178,-61 172,-61"/>
<text text-anchor="middle" x="139.5" y="-45.8" font-family="Times,serif" font-size="14.00" fill="#00f2ff">The Weaver</text>
<text text-anchor="middle" x="139.5" y="-30.8" font-family="Times,serif" font-size="14.00" fill="#00f2ff">(Cross&#45;Repo)</text>
</g>
<!-- Core&#45;&gt;Weaver -->
<g id="edge2" class="edge">
<title>Core&#45;&gt;Weaver</title>
<path fill="none" stroke="#ff00ff" d="M177.4,-96.81C171.61,-88.6 164.56,-78.59 158.12,-69.44"/>
<polygon fill="#ff00ff" stroke="#ff00ff" points="152.19,-61.02 161.63,-66.6 155.07,-65.11 157.95,-69.2 157.95,-69.2 157.95,-69.2 155.07,-65.11 154.27,-71.79 152.19,-61.02 152.19,-61.02"/>
</g>
<!-- Prism -->
<g id="node4" class="node">
<title>Prism</title>
<path fill="#161b22" stroke="#00ff00" d="M264.5,-61C264.5,-61 214.5,-61 214.5,-61 208.5,-61 202.5,-55 202.5,-49 202.5,-49 202.5,-35 202.5,-35 202.5,-29 208.5,-23 214.5,-23 214.5,-23 264.5,-23 264.5,-23 270.5,-23 276.5,-29 276.5,-35 276.5,-35 276.5,-49 276.5,-49 276.5,-55 270.5,-61 264.5,-61"/>
<text text-anchor="middle" x="239.5" y="-45.8" font-family="Times,serif" font-size="14.00" fill="#00f2ff">The Prism</text>
<text text-anchor="middle" x="239.5" y="-30.8" font-family="Times,serif" font-size="14.00" fill="#00f2ff">(Visual)</text>
</g>
<!-- Core&#45;&gt;Prism -->
<g id="edge3" class="edge">
<title>Core&#45;&gt;Prism</title>
<path fill="none" stroke="#ff00ff" d="M201.6,-96.81C207.39,-88.6 214.44,-78.59 220.88,-69.44"/>
<polygon fill="#ff00ff" stroke="#ff00ff" points="226.81,-61.02 224.73,-71.79 223.93,-65.11 221.05,-69.2 221.05,-69.2 221.05,-69.2 223.93,-65.11 217.37,-66.6 226.81,-61.02 226.81,-61.02"/>
</g>
<!-- Anvil -->
<g id="node5" class="node">
<title>Anvil</title>
<path fill="#161b22" stroke="#ff0000" d="M354,-61C354,-61 307,-61 307,-61 301,-61 295,-55 295,-49 295,-49 295,-35 295,-35 295,-29 301,-23 307,-23 307,-23 354,-23 354,-23 360,-23 366,-29 366,-35 366,-35 366,-49 366,-49 366,-55 360,-61 354,-61"/>
<text text-anchor="middle" x="330.5" y="-45.8" font-family="Times,serif" font-size="14.00" fill="#00f2ff">The Anvil</text>
<text text-anchor="middle" x="330.5" y="-30.8" font-family="Times,serif" font-size="14.00" fill="#00f2ff">(Chaos)</text>
</g>
<!-- Core&#45;&gt;Anvil -->
<g id="edge4" class="edge">
<title>Core&#45;&gt;Anvil</title>
<path fill="none" stroke="#ff00ff" d="M223.27,-96.99C241.92,-87.6 265.34,-75.81 285.52,-65.65"/>
<polygon fill="#ff00ff" stroke="#ff00ff" points="294.54,-61.11 287.63,-69.63 290.07,-63.36 285.61,-65.61 285.61,-65.61 285.61,-65.61 290.07,-63.36 283.58,-61.59 294.54,-61.11 294.54,-61.11"/>
</g>
</g>
</svg>
