<?xml version="1.0" encoding="UTF-8" standalone="no"?>
<!DOCTYPE svg PUBLIC "-//W3C//DTD SVG 1.1//EN"
 "http://www.w3.org/Graphics/SVG/1.1/DTD/svg11.dtd">
<!-- Generated by graphviz version 2.43.0 (0)
 -->
<!-- Title: ImpatientAssembly Pages: 1 -->
<svg width="1134pt" height="594pt"
 viewBox="0.00 0.00 1133.73 593.95" xmlns="http://www.w3.org/2000/svg" xmlns:xlink="http://www.w3.org/1999/xlink">
<g id="graph0" class="graph" transform="scale(1 1) rotate(0) translate(4 589.95)">
<title>ImpatientAssembly</title>
<polygon fill="#0d1117" stroke="transparent" points="-4,4 -4,-589.95 1129.73,-589.95 1129.73,4 -4,4"/>
<text text-anchor="middle" x="562.86" y="-7.8" font-family="Helvetica,sans-Serif" font-size="14.00" fill="#00f2ff">T11.1: The Principle of Impatient Assembly</text>
<!-- D30 -->
<g id="node1" class="node">
<title>D30</title>
<ellipse fill="#161b22" stroke="#00ff00" cx="116.99" cy="-567.95" rx="116.98" ry="18"/>
<text text-anchor="middle" x="116.99" y="-564.25" font-family="Times,serif" font-size="14.00" fill="#00f2ff">1931: Gödel&#39;s Incompleteness</text>
</g>
<!-- Welder -->
<g id="node6" class="node">
<title>Welder</title>
<path fill="#161b22" stroke="#00ff00" stroke-width="3" d="M755.05,-353.44C755.05,-353.44 626.22,-353.44 626.22,-353.44 620.22,-353.44 612.36,-359.14 610.51,-364.85 610.51,-364.85 570.69,-487.52 570.69,-487.52 568.84,-493.22 565.14,-493.22 563.28,-487.52 563.28,-487.52 523.47,-364.85 523.47,-364.85 521.61,-359.14 513.76,-353.44 507.76,-353.44 507.76,-353.44 378.93,-353.44 378.93,-353.44 372.93,-353.44 371.78,-349.91 376.64,-346.38 376.64,-346.38 480.87,-270.57 480.87,-270.57 485.72,-267.05 488.72,-257.81 486.87,-252.1 486.87,-252.1 447.05,-129.44 447.05,-129.44 445.2,-123.73 448.2,-121.55 453.05,-125.08 453.05,-125.08 557.28,-200.89 557.28,-200.89 562.14,-204.41 571.84,-204.41 576.69,-200.89 576.69,-200.89 680.93,-125.08 680.93,-125.08 685.78,-121.55 688.78,-123.73 686.93,-129.44 686.93,-129.44 647.11,-252.1 647.11,-252.1 645.26,-257.81 648.26,-267.05 653.11,-270.57 653.11,-270.57 757.34,-346.38 757.34,-346.38 762.2,-349.91 761.05,-353.44 755.05,-353.44"/>
<text text-anchor="middle" x="566.99" y="-312.28" font-family="Times,serif" font-size="14.00" fill="#00f2ff">The &#39;Someone Impatient&#39;</text>
<text text-anchor="middle" x="566.99" y="-297.28" font-family="Times,serif" font-size="14.00" fill="#00f2ff">(The +1 Meta&#45;Observer)</text>
</g>
<!-- D30&#45;&gt;Welder -->
<g id="edge1" class="edge">
<title>D30&#45;&gt;Welder</title>
<path fill="none" stroke="#ff00ff" d="M145.82,-550.46C212.27,-512.44 378.3,-417.44 480.94,-358.71"/>
<polygon fill="#ff00ff" stroke="#ff00ff" points="489.74,-353.67 483.3,-362.55 485.4,-356.16 481.07,-358.64 481.07,-358.64 481.07,-358.64 485.4,-356.16 478.83,-354.73 489.74,-353.67 489.74,-353.67"/>
<text text-anchor="middle" x="226.99" y="-520.75" font-family="Times,serif" font-size="14.00"> Theory </text>
</g>
<!-- D70 -->
<g id="node2" class="node">
<title>D70</title>
<ellipse fill="#161b22" stroke="#00f2ff" cx="354.99" cy="-567.95" rx="102.88" ry="18"/>
<text text-anchor="middle" x="354.99" y="-564.25" font-family="Times,serif" font-size="14.00" fill="#00f2ff">1970s: Unix / Bash / Awk</text>
</g>
<!-- D70&#45;&gt;Welder -->
<g id="edge2" class="edge">
<title>D70&#45;&gt;Welder</title>
<path fill="none" stroke="#ff00ff" d="M368.9,-550.06C398.3,-514.35 468.02,-429.67 516.37,-370.95"/>
<polygon fill="#ff00ff" stroke="#ff00ff" points="522.75,-363.21 519.87,-373.79 519.57,-367.07 516.39,-370.93 516.39,-370.93 516.39,-370.93 519.57,-367.07 512.92,-368.07 522.75,-363.21 522.75,-363.21"/>
<text text-anchor="middle" x="420.99" y="-520.75" font-family="Times,serif" font-size="14.00"> Tooling </text>
</g>
<!-- D90 -->
<g id="node3" class="node">
<title>D90</title>
<ellipse fill="#161b22" stroke="#ffff00" cx="566.99" cy="-567.95" rx="90.98" ry="18"/>
<text text-anchor="middle" x="566.99" y="-564.25" font-family="Times,serif" font-size="14.00" fill="#00f2ff">1991: Graphviz / DOT</text>
</g>
<!-- D90&#45;&gt;Welder -->
<g id="edge3" class="edge">
<title>D90&#45;&gt;Welder</title>
<path fill="none" stroke="#ff00ff" d="M566.99,-549.66C566.99,-539.53 566.99,-525.56 566.99,-509.4"/>
<polygon fill="#ff00ff" stroke="#ff00ff" points="566.99,-499.08 571.49,-509.08 566.99,-504.08 566.99,-509.08 566.99,-509.08 566.99,-509.08 566.99,-504.08 562.49,-509.08 566.99,-499.08 566.99,-499.08"/>
<text text-anchor="middle" x="606.49" y="-520.75" font-family="Times,serif" font-size="14.00"> Visualization </text>
</g>
<!-- D20 -->
<g id="node4" class="node">
<title>D20</title>
<ellipse fill="#161b22" stroke="#ff00ff" cx="764.99" cy="-567.95" rx="89.08" ry="18"/>
<text text-anchor="middle" x="764.99" y="-564.25" font-family="Times,serif" font-size="14.00" fill="#00f2ff">2020s: LLM / Ollama</text>
</g>
<!-- D20&#45;&gt;Welder -->
<g id="edge4" class="edge">
<title>D20&#45;&gt;Welder</title>
<path fill="none" stroke="#ff00ff" d="M752,-550.06C725.01,-514.96 661.62,-432.54 616.59,-373.97"/>
<polygon fill="#ff00ff" stroke="#ff00ff" points="610.36,-365.87 620.02,-371.06 613.41,-369.84 616.45,-373.8 616.45,-373.8 616.45,-373.8 613.41,-369.84 612.89,-376.54 610.36,-365.87 610.36,-365.87"/>
<text text-anchor="middle" x="757.49" y="-520.75" font-family="Times,serif" font-size="14.00"> Power </text>
</g>
<!-- D26 -->
<g id="node5" class="node">
<title>D26</title>
<ellipse fill="#161b22" stroke="#ffffff" cx="998.99" cy="-567.95" rx="126.98" ry="18"/>
<text text-anchor="middle" x="998.99" y="-564.25" font-family="Times,serif" font-size="14.00" fill="#00f2ff">2026: Gemini CLI Orchestration</text>
</g>
<!-- D26&#45;&gt;Welder -->
<g id="edge5" class="edge">
<title>D26&#45;&gt;Welder</title>
<path fill="none" stroke="#ff00ff" d="M970.98,-550.26C907,-512.13 748.1,-417.42 649.73,-358.79"/>
<polygon fill="#ff00ff" stroke="#ff00ff" points="640.99,-353.58 651.89,-354.84 645.29,-356.14 649.58,-358.7 649.58,-358.7 649.58,-358.7 645.29,-356.14 647.28,-362.57 640.99,-353.58 640.99,-353.58"/>
<text text-anchor="middle" x="960.49" y="-520.75" font-family="Times,serif" font-size="14.00"> Control </text>
</g>
<!-- WeldPoint -->
<g id="node7" class="node">
<title>WeldPoint</title>
<path fill="#161b22" stroke="#ffff00" stroke-width="4" d="M698.59,-42.51C698.59,-42.51 698.59,-47.49 698.59,-47.49 698.59,-49.97 696.13,-52.79 693.67,-53.13 693.67,-53.13 626.43,-62.33 626.43,-62.33 623.96,-62.66 619.02,-63 616.53,-63 616.53,-63 517.45,-63 517.45,-63 514.96,-63 510.01,-62.66 507.55,-62.33 507.55,-62.33 440.31,-53.13 440.31,-53.13 437.85,-52.79 435.38,-49.97 435.38,-47.49 435.38,-47.49 435.38,-42.51 435.38,-42.51 435.38,-40.03 437.85,-37.21 440.31,-36.87 440.31,-36.87 507.55,-27.67 507.55,-27.67 510.01,-27.34 514.96,-27 517.45,-27 517.45,-27 616.53,-27 616.53,-27 619.02,-27 623.96,-27.34 626.43,-27.67 626.43,-27.67 693.67,-36.87 693.67,-36.87 696.13,-37.21 698.59,-40.03 698.59,-42.51"/>
<path fill="none" stroke="#ffff00" stroke-width="4" d="M702.6,-41.35C702.6,-41.35 702.6,-48.65 702.6,-48.65 702.6,-52.3 698.98,-56.44 695.37,-56.93 695.37,-56.93 629,-66.01 629,-66.01 625.39,-66.51 618.13,-67 614.48,-67 614.48,-67 519.5,-67 519.5,-67 515.85,-67 508.59,-66.51 504.97,-66.01 504.97,-66.01 438.61,-56.93 438.61,-56.93 435,-56.44 431.38,-52.3 431.38,-48.65 431.38,-48.65 431.38,-41.35 431.38,-41.35 431.38,-37.7 435,-33.56 438.61,-33.07 438.61,-33.07 504.97,-23.99 504.97,-23.99 508.59,-23.49 515.85,-23 519.5,-23 519.5,-23 614.48,-23 614.48,-23 618.13,-23 625.39,-23.49 629,-23.99 629,-23.99 695.37,-33.07 695.37,-33.07 698.98,-33.56 702.6,-37.7 702.6,-41.35"/>
<text text-anchor="middle" x="566.99" y="-41.3" font-family="Times,serif" font-size="14.00" fill="#00f2ff">THE TRANSFINITE ENGINE</text>
</g>
<!-- Welder&#45;&gt;WeldPoint -->
<g id="edge6" class="edge">
<title>Welder&#45;&gt;WeldPoint</title>
<path fill="none" stroke="#ff00ff" d="M566.99,-207.88C566.99,-161.46 566.99,-109.48 566.99,-77.24"/>
<polygon fill="#ff00ff" stroke="#ff00ff" points="566.99,-67.1 571.49,-77.1 566.99,-72.1 566.99,-77.1 566.99,-77.1 566.99,-77.1 566.99,-72.1 562.49,-77.1 566.99,-67.1 566.99,-67.1"/>
<text text-anchor="middle" x="643.99" y="-88.8" font-family="Times,serif" font-size="14.00"> IMPATIENT ASSEMBLY </text>
</g>
</g>
</svg>
