<?xml version="1.0" encoding="UTF-8" standalone="no"?>
<!DOCTYPE svg PUBLIC "-//W3C//DTD SVG 1.1//EN"
 "http://www.w3.org/Graphics/SVG/1.1/DTD/svg11.dtd">
<!-- Generated by graphviz version 2.43.0 (0)
 -->
<!-- Title: MaintArchive Pages: 1 -->
<svg width="368pt" height="389pt"
 viewBox="0.00 0.00 367.79 388.58" xmlns="http://www.w3.org/2000/svg" xmlns:xlink="http://www.w3.org/1999/xlink">
<g id="graph0" class="graph" transform="scale(1 1) rotate(0) translate(4 384.58)">
<title>MaintArchive</title>
<polygon fill="#0d1117" stroke="transparent" points="-4,4 -4,-384.58 363.79,-384.58 363.79,4 -4,4"/>
<text text-anchor="middle" x="179.9" y="-7.8" font-family="Helvetica,sans-Serif" font-size="14.00" fill="#00f2ff">T3.4: Automated Archiving Strategy</text>
<!-- ActiveLogs -->
<g id="node1" class="node">
<title>ActiveLogs</title>
<path fill="#161b22" stroke="#ffff00" d="M230,-380.58C230,-380.58 102,-380.58 102,-380.58 96,-380.58 90,-374.58 90,-368.58 90,-368.58 90,-356.58 90,-356.58 90,-350.58 96,-344.58 102,-344.58 102,-344.58 230,-344.58 230,-344.58 236,-344.58 242,-350.58 242,-356.58 242,-356.58 242,-368.58 242,-368.58 242,-374.58 236,-380.58 230,-380.58"/>
<text text-anchor="middle" x="166" y="-358.88" font-family="Times,serif" font-size="14.00" fill="#00f2ff">Current Logs (&gt;30 days)</text>
</g>
<!-- ArchiveJob -->
<g id="node2" class="node">
<title>ArchiveJob</title>
<path fill="#161b22" stroke="#00f2ff" d="M154.19,-305.46C154.19,-305.46 77.43,-291.7 77.43,-291.7 71.53,-290.64 71.53,-288.52 77.43,-287.46 77.43,-287.46 154.19,-273.7 154.19,-273.7 160.09,-272.64 171.91,-272.64 177.81,-273.7 177.81,-273.7 254.57,-287.46 254.57,-287.46 260.47,-288.52 260.47,-290.64 254.57,-291.7 254.57,-291.7 177.81,-305.46 177.81,-305.46 171.91,-306.52 160.09,-306.52 154.19,-305.46"/>
<text text-anchor="middle" x="166" y="-285.88" font-family="Times,serif" font-size="14.00" fill="#00f2ff">Archive Strategy</text>
</g>
<!-- ActiveLogs&#45;&gt;ArchiveJob -->
<g id="edge1" class="edge">
<title>ActiveLogs&#45;&gt;ArchiveJob</title>
<path fill="none" stroke="#ff00ff" d="M166,-344.4C166,-336.37 166,-326.63 166,-317.65"/>
<polygon fill="#ff00ff" stroke="#ff00ff" points="166,-307.61 170.5,-317.61 166,-312.61 166,-317.61 166,-317.61 166,-317.61 166,-312.61 161.5,-317.61 166,-307.61 166,-307.61"/>
</g>
<!-- Storage -->
<g id="node3" class="node">
<title>Storage</title>
<polygon fill="#161b22" stroke="#00ff00" points="144,-139.79 141,-143.79 120,-143.79 117,-139.79 0,-139.79 0,-103.79 144,-103.79 144,-139.79"/>
<text text-anchor="middle" x="72" y="-118.09" font-family="Times,serif" font-size="14.00" fill="#00f2ff">/archive/ (Compressed)</text>
</g>
<!-- ArchiveJob&#45;&gt;Storage -->
<g id="edge2" class="edge">
<title>ArchiveJob&#45;&gt;Storage</title>
<path fill="none" stroke="#ff00ff" d="M157.16,-272.99C141.03,-244.54 106.69,-183.98 86.9,-149.07"/>
<polygon fill="#ff00ff" stroke="#ff00ff" points="81.73,-139.95 90.58,-146.43 84.19,-144.3 86.66,-148.65 86.66,-148.65 86.66,-148.65 84.19,-144.3 82.75,-150.87 81.73,-139.95 81.73,-139.95"/>
<text text-anchor="middle" x="166" y="-242.38" font-family="Times,serif" font-size="14.00"> Move </text>
</g>
<!-- Prune -->
<g id="node4" class="node">
<title>Prune</title>
<ellipse fill="#161b22" stroke="#ff0000" cx="261" cy="-121.79" rx="98.58" ry="98.58"/>
<text text-anchor="middle" x="261" y="-118.09" font-family="Times,serif" font-size="14.00" fill="#00f2ff">Delete Redundant Assets</text>
</g>
<!-- ArchiveJob&#45;&gt;Prune -->
<g id="edge3" class="edge">
<title>ArchiveJob&#45;&gt;Prune</title>
<path fill="none" stroke="#ff00ff" d="M176.86,-273.48C181.11,-267.39 185.92,-260.24 190,-253.58 196.82,-242.43 203.73,-230.58 210.41,-218.74"/>
<polygon fill="#ff00ff" stroke="#ff00ff" points="215.47,-209.7 214.51,-220.62 213.02,-214.06 210.58,-218.42 210.58,-218.42 210.58,-218.42 213.02,-214.06 206.65,-216.22 215.47,-209.7 215.47,-209.7"/>
<text text-anchor="middle" x="224.5" y="-242.38" font-family="Times,serif" font-size="14.00"> Cleanup </text>
</g>
</g>
</svg>
