<?xml version="1.0" encoding="UTF-8" standalone="no"?>
<!DOCTYPE svg PUBLIC "-//W3C//DTD SVG 1.1//EN"
 "http://www.w3.org/Graphics/SVG/1.1/DTD/svg11.dtd">
<!-- Generated by graphviz version 2.43.0 (0)
 -->
<!-- Title: MaintTUI Pages: 1 -->
<svg width="234pt" height="393pt"
 viewBox="0.00 0.00 234.15 392.75" xmlns="http://www.w3.org/2000/svg" xmlns:xlink="http://www.w3.org/1999/xlink">
<g id="graph0" class="graph" transform="scale(1 1) rotate(0) translate(4 388.75)">
<title>MaintTUI</title>
<polygon fill="#0d1117" stroke="transparent" points="-4,4 -4,-388.75 230.15,-388.75 230.15,4 -4,4"/>
<text text-anchor="middle" x="113.08" y="-7.8" font-family="Helvetica,sans-Serif" font-size="14.00" fill="#00f2ff">T3.5: TUI / Dashboard Interface</text>
<!-- CLI -->
<g id="node1" class="node">
<title>CLI</title>
<path fill="#161b22" stroke="#00f2ff" d="M140.65,-384.75C140.65,-384.75 81.65,-384.75 81.65,-384.75 75.65,-384.75 69.65,-378.75 69.65,-372.75 69.65,-372.75 69.65,-360.75 69.65,-360.75 69.65,-354.75 75.65,-348.75 81.65,-348.75 81.65,-348.75 140.65,-348.75 140.65,-348.75 146.65,-348.75 152.65,-354.75 152.65,-360.75 152.65,-360.75 152.65,-372.75 152.65,-372.75 152.65,-378.75 146.65,-384.75 140.65,-384.75"/>
<text text-anchor="middle" x="111.15" y="-363.05" font-family="Times,serif" font-size="14.00" fill="#00f2ff">CLI Prompt</text>
</g>
<!-- Dashboard -->
<g id="node2" class="node">
<title>Dashboard</title>
<path fill="#161b22" stroke="#ffff00" d="M218.45,-274.64C218.45,-274.64 218.45,-282.69 218.45,-282.69 218.45,-286.72 214.56,-291.8 210.68,-292.86 210.68,-292.86 163.37,-305.72 163.37,-305.72 159.48,-306.77 151.57,-307.83 147.54,-307.83 147.54,-307.83 74.76,-307.83 74.76,-307.83 70.73,-307.83 62.82,-306.77 58.94,-305.72 58.94,-305.72 11.62,-292.86 11.62,-292.86 7.74,-291.8 3.85,-286.72 3.85,-282.69 3.85,-282.69 3.85,-274.64 3.85,-274.64 3.85,-270.62 7.74,-265.54 11.62,-264.48 11.62,-264.48 58.94,-251.62 58.94,-251.62 62.82,-250.57 70.73,-249.51 74.76,-249.51 74.76,-249.51 147.54,-249.51 147.54,-249.51 151.57,-249.51 159.48,-250.57 163.37,-251.62 163.37,-251.62 210.68,-264.48 210.68,-264.48 214.56,-265.54 218.45,-270.62 218.45,-274.64"/>
<path fill="none" stroke="#ffff00" d="M222.45,-273.62C222.45,-273.62 222.45,-283.72 222.45,-283.72 222.45,-288.76 217.58,-295.14 212.71,-296.46 212.71,-296.46 165.87,-309.19 165.87,-309.19 161,-310.51 151.08,-311.84 146.03,-311.84 146.03,-311.84 76.27,-311.84 76.27,-311.84 71.22,-311.84 61.3,-310.51 56.43,-309.19 56.43,-309.19 9.59,-296.46 9.59,-296.46 4.72,-295.14 -0.15,-288.76 -0.15,-283.72 -0.15,-283.72 -0.15,-273.62 -0.15,-273.62 -0.15,-268.57 4.72,-262.2 9.59,-260.88 9.59,-260.88 56.43,-248.15 56.43,-248.15 61.3,-246.82 71.22,-245.5 76.27,-245.5 76.27,-245.5 146.03,-245.5 146.03,-245.5 151.08,-245.5 161,-246.82 165.87,-248.15 165.87,-248.15 212.71,-260.88 212.71,-260.88 217.58,-262.2 222.45,-268.57 222.45,-273.62"/>
<text text-anchor="middle" x="111.15" y="-282.47" font-family="Times,serif" font-size="14.00" fill="#00f2ff">TUI Dashboard</text>
<text text-anchor="middle" x="111.15" y="-267.47" font-family="Times,serif" font-size="14.00" fill="#00f2ff">(Capability Scorecard)</text>
</g>
<!-- CLI&#45;&gt;Dashboard -->
<g id="edge1" class="edge">
<title>CLI&#45;&gt;Dashboard</title>
<path fill="none" stroke="#ff00ff" d="M111.15,-348.75C111.15,-341.04 111.15,-331.56 111.15,-322.12"/>
<polygon fill="#ff00ff" stroke="#ff00ff" points="111.15,-311.97 115.65,-321.97 111.15,-316.97 111.15,-321.97 111.15,-321.97 111.15,-321.97 111.15,-316.97 106.65,-321.97 111.15,-311.97 111.15,-311.97"/>
</g>
<!-- User -->
<g id="node3" class="node">
<title>User</title>
<ellipse fill="#161b22" stroke="#00ff00" cx="111.15" cy="-108.79" rx="85.59" ry="85.59"/>
<text text-anchor="middle" x="111.15" y="-105.09" font-family="Times,serif" font-size="14.00" fill="#00f2ff">Human +1 Interactor</text>
</g>
<!-- Dashboard&#45;&gt;User -->
<g id="edge2" class="edge">
<title>Dashboard&#45;&gt;User</title>
<path fill="none" stroke="#ff00ff" d="M62.88,-246.11C54.19,-236.49 48.81,-225.11 52.15,-212.58 54.16,-205.04 56.88,-197.46 60.04,-190.04"/>
<polygon fill="#ff00ff" stroke="#ff00ff" points="64.27,-180.74 64.23,-191.7 62.2,-185.29 60.13,-189.84 60.13,-189.84 60.13,-189.84 62.2,-185.29 56.03,-187.98 64.27,-180.74 64.27,-180.74"/>
<text text-anchor="middle" x="101.15" y="-216.38" font-family="Times,serif" font-size="14.00"> Visual Feedback </text>
</g>
<!-- User&#45;&gt;Dashboard -->
<g id="edge3" class="edge">
<title>User&#45;&gt;Dashboard</title>
<path fill="none" stroke="#ff00ff" d="M151.13,-184.97C154.4,-199.14 154.87,-213.83 150.15,-227.58 149.08,-230.71 147.72,-233.79 146.16,-236.8"/>
<polygon fill="#ff00ff" stroke="#ff00ff" points="140.95,-245.55 142.2,-234.65 143.51,-241.25 146.07,-236.95 146.07,-236.95 146.07,-236.95 143.51,-241.25 149.93,-239.26 140.95,-245.55 140.95,-245.55"/>
<text text-anchor="middle" x="189.15" y="-216.38" font-family="Times,serif" font-size="14.00"> Direct Input </text>
</g>
</g>
</svg>
