<?xml version="1.0" encoding="UTF-8" standalone="no"?>
<!DOCTYPE svg PUBLIC "-//W3C//DTD SVG 1.1//EN"
 "http://www.w3.org/Graphics/SVG/1.1/DTD/svg11.dtd">
<!-- Generated by graphviz version 2.43.0 (0)
 -->
<!-- Title: MaintVizRecursive Pages: 1 -->
<svg width="280pt" height="291pt"
 viewBox="0.00 0.00 280.00 291.00" xmlns="http://www.w3.org/2000/svg" xmlns:xlink="http://www.w3.org/1999/xlink">
<g id="graph0" class="graph" transform="scale(1 1) rotate(0) translate(4 287)">
<title>MaintVizRecursive</title>
<polygon fill="#0d1117" stroke="transparent" points="-4,4 -4,-287 276,-287 276,4 -4,4"/>
<text text-anchor="middle" x="136" y="-7.8" font-family="Helvetica,sans-Serif" font-size="14.00" fill="#00f2ff">T3.2: Recursive Visualization Maintenance</text>
<!-- Trigger -->
<g id="node1" class="node">
<title>Trigger</title>
<path fill="#161b22" stroke="#00f2ff" d="M180.5,-283C180.5,-283 91.5,-283 91.5,-283 85.5,-283 79.5,-277 79.5,-271 79.5,-271 79.5,-259 79.5,-259 79.5,-253 85.5,-247 91.5,-247 91.5,-247 180.5,-247 180.5,-247 186.5,-247 192.5,-253 192.5,-259 192.5,-259 192.5,-271 192.5,-271 192.5,-277 186.5,-283 180.5,-283"/>
<text text-anchor="middle" x="136" y="-261.3" font-family="Times,serif" font-size="14.00" fill="#00f2ff">DOT File Change</text>
</g>
<!-- Find -->
<g id="node2" class="node">
<title>Find</title>
<path fill="#161b22" stroke="#00f2ff" d="M238.21,-211C238.21,-211 80.53,-211 80.53,-211 74.53,-211 63.78,-207.34 59.02,-203.68 59.02,-203.68 31.3,-182.32 31.3,-182.32 26.55,-178.66 27.79,-175 33.79,-175 33.79,-175 191.47,-175 191.47,-175 197.47,-175 208.22,-178.66 212.98,-182.32 212.98,-182.32 240.7,-203.68 240.7,-203.68 245.45,-207.34 244.21,-211 238.21,-211"/>
<text text-anchor="middle" x="136" y="-189.3" font-family="Times,serif" font-size="14.00" fill="#00f2ff">find . &#45;name &#39;*.dot&#39;</text>
</g>
<!-- Trigger&#45;&gt;Find -->
<g id="edge1" class="edge">
<title>Trigger&#45;&gt;Find</title>
<path fill="none" stroke="#ff00ff" d="M136,-246.7C136,-238.98 136,-229.71 136,-221.11"/>
<polygon fill="#ff00ff" stroke="#ff00ff" points="136,-211.1 140.5,-221.1 136,-216.1 136,-221.1 136,-221.1 136,-221.1 136,-216.1 131.5,-221.1 136,-211.1 136,-211.1"/>
</g>
<!-- Render -->
<g id="node3" class="node">
<title>Render</title>
<path fill="#161b22" stroke="#00f2ff" d="M170.5,-139C170.5,-139 101.5,-139 101.5,-139 95.5,-139 89.5,-133 89.5,-127 89.5,-127 89.5,-115 89.5,-115 89.5,-109 95.5,-103 101.5,-103 101.5,-103 170.5,-103 170.5,-103 176.5,-103 182.5,-109 182.5,-115 182.5,-115 182.5,-127 182.5,-127 182.5,-133 176.5,-139 170.5,-139"/>
<text text-anchor="middle" x="136" y="-117.3" font-family="Times,serif" font-size="14.00" fill="#00f2ff">dot &#45;Tpng/svg</text>
</g>
<!-- Find&#45;&gt;Render -->
<g id="edge2" class="edge">
<title>Find&#45;&gt;Render</title>
<path fill="none" stroke="#ff00ff" d="M136,-174.7C136,-166.98 136,-157.71 136,-149.11"/>
<polygon fill="#ff00ff" stroke="#ff00ff" points="136,-139.1 140.5,-149.1 136,-144.1 136,-149.1 136,-149.1 136,-149.1 136,-144.1 131.5,-149.1 136,-139.1 136,-139.1"/>
</g>
<!-- Update -->
<g id="node4" class="node">
<title>Update</title>
<path fill="#161b22" stroke="#00ff00" d="M251.25,-42.51C251.25,-42.51 251.25,-47.49 251.25,-47.49 251.25,-49.97 248.79,-52.84 246.34,-53.22 246.34,-53.22 188.65,-62.23 188.65,-62.23 186.19,-62.62 181.25,-63 178.77,-63 178.77,-63 93.23,-63 93.23,-63 90.75,-63 85.81,-62.62 83.35,-62.23 83.35,-62.23 25.66,-53.22 25.66,-53.22 23.21,-52.84 20.75,-49.97 20.75,-47.49 20.75,-47.49 20.75,-42.51 20.75,-42.51 20.75,-40.03 23.21,-37.16 25.66,-36.78 25.66,-36.78 83.35,-27.77 83.35,-27.77 85.81,-27.38 90.75,-27 93.23,-27 93.23,-27 178.77,-27 178.77,-27 181.25,-27 186.19,-27.38 188.65,-27.77 188.65,-27.77 246.34,-36.78 246.34,-36.78 248.79,-37.16 251.25,-40.03 251.25,-42.51"/>
<path fill="none" stroke="#00ff00" d="M255.25,-41.37C255.25,-41.37 255.25,-48.63 255.25,-48.63 255.25,-52.25 251.66,-56.44 248.08,-57 248.08,-57 191.21,-65.88 191.21,-65.88 187.63,-66.44 180.42,-67 176.79,-67 176.79,-67 95.21,-67 95.21,-67 91.58,-67 84.37,-66.44 80.79,-65.88 80.79,-65.88 23.92,-57 23.92,-57 20.34,-56.44 16.75,-52.25 16.75,-48.63 16.75,-48.63 16.75,-41.37 16.75,-41.37 16.75,-37.75 20.34,-33.56 23.92,-33 23.92,-33 80.79,-24.12 80.79,-24.12 84.37,-23.56 91.58,-23 95.21,-23 95.21,-23 176.79,-23 176.79,-23 180.42,-23 187.63,-23.56 191.21,-24.12 191.21,-24.12 248.08,-33 248.08,-33 251.66,-33.56 255.25,-37.75 255.25,-41.37"/>
<text text-anchor="middle" x="136" y="-41.3" font-family="Times,serif" font-size="14.00" fill="#00f2ff">Repository Assets Updated</text>
</g>
<!-- Render&#45;&gt;Update -->
<g id="edge3" class="edge">
<title>Render&#45;&gt;Update</title>
<path fill="none" stroke="#ff00ff" d="M136,-102.84C136,-95.16 136,-85.88 136,-77.05"/>
<polygon fill="#ff00ff" stroke="#ff00ff" points="136,-67.03 140.5,-77.03 136,-72.03 136,-77.03 136,-77.03 136,-77.03 136,-72.03 131.5,-77.03 136,-67.03 136,-67.03"/>
</g>
</g>
</svg>
