<?xml version="1.0" encoding="UTF-8" standalone="no"?>
<!DOCTYPE svg PUBLIC "-//W3C//DTD SVG 1.1//EN"
 "http://www.w3.org/Graphics/SVG/1.1/DTD/svg11.dtd">
<!-- Generated by graphviz version 2.43.0 (0)
 -->
<!-- Title: MaintLogStandard Pages: 1 -->
<svg width="321pt" height="251pt"
 viewBox="0.00 0.00 321.10 251.00" xmlns="http://www.w3.org/2000/svg" xmlns:xlink="http://www.w3.org/1999/xlink">
<g id="graph0" class="graph" transform="scale(1 1) rotate(0) translate(4 247)">
<title>MaintLogStandard</title>
<polygon fill="#0d1117" stroke="transparent" points="-4,4 -4,-247 317.1,-247 317.1,4 -4,4"/>
<text text-anchor="middle" x="156.55" y="-7.8" font-family="Helvetica,sans-Serif" font-size="14.00" fill="#00f2ff">T3.3: Log Standardization &amp; Normalization</text>
<!-- RawLog -->
<g id="node1" class="node">
<title>RawLog</title>
<path fill="#161b22" stroke="#00f2ff" d="M204.05,-243C204.05,-243 109.05,-243 109.05,-243 103.05,-243 97.05,-237 97.05,-231 97.05,-231 97.05,-219 97.05,-219 97.05,-213 103.05,-207 109.05,-207 109.05,-207 204.05,-207 204.05,-207 210.05,-207 216.05,-213 216.05,-219 216.05,-219 216.05,-231 216.05,-231 216.05,-237 210.05,-243 204.05,-243"/>
<text text-anchor="middle" x="156.55" y="-221.3" font-family="Times,serif" font-size="14.00" fill="#00f2ff">Mixed JSON Logs</text>
</g>
<!-- Format -->
<g id="node2" class="node">
<title>Format</title>
<path fill="#161b22" stroke="#ffff00" d="M301.15,-171C301.15,-171 76.03,-171 76.03,-171 70.03,-171 60.17,-166.41 56.3,-161.83 56.3,-161.83 7.69,-104.17 7.69,-104.17 3.82,-99.59 5.95,-95 11.95,-95 11.95,-95 237.06,-95 237.06,-95 243.06,-95 252.93,-99.59 256.8,-104.17 256.8,-104.17 305.41,-161.83 305.41,-161.83 309.28,-166.41 307.15,-171 301.15,-171"/>
<text text-anchor="middle" x="156.55" y="-136.8" font-family="Times,serif" font-size="14.00" fill="#00f2ff">Standardize Timestamps</text>
<text text-anchor="middle" x="156.55" y="-121.8" font-family="Times,serif" font-size="14.00" fill="#00f2ff">(ISO&#45;8601)</text>
</g>
<!-- RawLog&#45;&gt;Format -->
<g id="edge1" class="edge">
<title>RawLog&#45;&gt;Format</title>
<path fill="none" stroke="#ff00ff" d="M156.55,-206.65C156.55,-199.3 156.55,-190.34 156.55,-181.27"/>
<polygon fill="#ff00ff" stroke="#ff00ff" points="156.55,-171.04 161.05,-181.04 156.55,-176.04 156.55,-181.04 156.55,-181.04 156.55,-181.04 156.55,-176.04 152.05,-181.04 156.55,-171.04 156.55,-171.04"/>
</g>
<!-- ValidatedLog -->
<g id="node3" class="node">
<title>ValidatedLog</title>
<polygon fill="#161b22" stroke="#00ff00" points="214.55,-59 92.55,-59 92.55,-23 220.55,-23 220.55,-53 214.55,-59"/>
<polyline fill="none" stroke="#00ff00" points="214.55,-59 214.55,-53 "/>
<polyline fill="none" stroke="#00ff00" points="220.55,-53 214.55,-53 "/>
<text text-anchor="middle" x="156.55" y="-37.3" font-family="Times,serif" font-size="14.00" fill="#00f2ff">Clean Forensic Data</text>
</g>
<!-- Format&#45;&gt;ValidatedLog -->
<g id="edge2" class="edge">
<title>Format&#45;&gt;ValidatedLog</title>
<path fill="none" stroke="#ff00ff" d="M156.55,-94.87C156.55,-86.26 156.55,-77.24 156.55,-69.14"/>
<polygon fill="#ff00ff" stroke="#ff00ff" points="156.55,-59.14 161.05,-69.14 156.55,-64.14 156.55,-69.14 156.55,-69.14 156.55,-69.14 156.55,-64.14 152.05,-69.14 156.55,-59.14 156.55,-59.14"/>
</g>
</g>
</svg>
