<?xml version="1.0" encoding="UTF-8" standalone="no"?>
<!DOCTYPE svg PUBLIC "-//W3C//DTD SVG 1.1//EN"
 "http://www.w3.org/Graphics/SVG/1.1/DTD/svg11.dtd">
<!-- Generated by graphviz version 2.43.0 (0)
 -->
<!-- Title: MetaEvolution Pages: 1 -->
<svg width="375pt" height="558pt"
 viewBox="0.00 0.00 374.52 557.59" xmlns="http://www.w3.org/2000/svg" xmlns:xlink="http://www.w3.org/1999/xlink">
<g id="graph0" class="graph" transform="scale(1 1) rotate(0) translate(4 553.59)">
<title>MetaEvolution</title>
<polygon fill="#0d1117" stroke="transparent" points="-4,4 -4,-553.59 370.52,-553.59 370.52,4 -4,4"/>
<text text-anchor="middle" x="183.26" y="-7.8" font-family="Helvetica,sans-Serif" font-size="14.00" fill="#00f2ff">T12.5: Meta&#45;Evolutionary Roadmap</text>
<!-- v1 -->
<g id="node1" class="node">
<title>v1</title>
<path fill="#161b22" stroke="#00f2ff" d="M245.76,-549.59C245.76,-549.59 120.76,-549.59 120.76,-549.59 114.76,-549.59 108.76,-543.59 108.76,-537.59 108.76,-537.59 108.76,-523.59 108.76,-523.59 108.76,-517.59 114.76,-511.59 120.76,-511.59 120.76,-511.59 245.76,-511.59 245.76,-511.59 251.76,-511.59 257.76,-517.59 257.76,-523.59 257.76,-523.59 257.76,-537.59 257.76,-537.59 257.76,-543.59 251.76,-549.59 245.76,-549.59"/>
<text text-anchor="middle" x="183.26" y="-534.39" font-family="Times,serif" font-size="14.00" fill="#00f2ff">Hybrid Framework v1.0</text>
<text text-anchor="middle" x="183.26" y="-519.39" font-family="Times,serif" font-size="14.00" fill="#00f2ff">(Modular Tools)</text>
</g>
<!-- v2 -->
<g id="node2" class="node">
<title>v2</title>
<path fill="#161b22" stroke="#ffff00" d="M231.76,-460.59C231.76,-460.59 134.76,-460.59 134.76,-460.59 128.76,-460.59 122.76,-454.59 122.76,-448.59 122.76,-448.59 122.76,-434.59 122.76,-434.59 122.76,-428.59 128.76,-422.59 134.76,-422.59 134.76,-422.59 231.76,-422.59 231.76,-422.59 237.76,-422.59 243.76,-428.59 243.76,-434.59 243.76,-434.59 243.76,-448.59 243.76,-448.59 243.76,-454.59 237.76,-460.59 231.76,-460.59"/>
<text text-anchor="middle" x="183.26" y="-445.39" font-family="Times,serif" font-size="14.00" fill="#00f2ff">Hybrid OS v2.0</text>
<text text-anchor="middle" x="183.26" y="-430.39" font-family="Times,serif" font-size="14.00" fill="#00f2ff">(Integrated Kernel)</text>
</g>
<!-- v1&#45;&gt;v2 -->
<g id="edge1" class="edge">
<title>v1&#45;&gt;v2</title>
<path fill="none" stroke="#ff00ff" d="M183.26,-511.56C183.26,-499.78 183.26,-484.15 183.26,-470.74"/>
<polygon fill="#ff00ff" stroke="#ff00ff" points="183.26,-460.59 187.76,-470.59 183.26,-465.59 183.26,-470.59 183.26,-470.59 183.26,-470.59 183.26,-465.59 178.76,-470.59 183.26,-460.59 183.26,-460.59"/>
<text text-anchor="middle" x="219.76" y="-482.39" font-family="Times,serif" font-size="14.00"> Tool Fusion </text>
</g>
<!-- v3 -->
<g id="node3" class="node">
<title>v3</title>
<path fill="#161b22" stroke="#00ff00" stroke-width="3" d="M354.29,-238.39C354.29,-238.39 238.47,-238.39 238.47,-238.39 232.47,-238.39 224.61,-244.1 222.76,-249.8 222.76,-249.8 186.97,-359.97 186.97,-359.97 185.12,-365.67 181.41,-365.67 179.55,-359.97 179.55,-359.97 143.76,-249.8 143.76,-249.8 141.91,-244.1 134.06,-238.39 128.06,-238.39 128.06,-238.39 12.24,-238.39 12.24,-238.39 6.24,-238.39 5.09,-234.86 9.95,-231.34 9.95,-231.34 103.65,-163.25 103.65,-163.25 108.5,-159.72 111.5,-150.49 109.65,-144.78 109.65,-144.78 73.85,-34.62 73.85,-34.62 72,-28.91 75,-26.73 79.85,-30.26 79.85,-30.26 173.55,-98.35 173.55,-98.35 178.41,-101.87 188.12,-101.87 192.97,-98.35 192.97,-98.35 286.67,-30.26 286.67,-30.26 291.52,-26.73 294.52,-28.91 292.67,-34.62 292.67,-34.62 256.88,-144.78 256.88,-144.78 255.03,-150.49 258.03,-159.72 262.88,-163.25 262.88,-163.25 356.58,-231.34 356.58,-231.34 361.43,-234.86 360.29,-238.39 354.29,-238.39"/>
<text text-anchor="middle" x="183.26" y="-201.09" font-family="Times,serif" font-size="14.00" fill="#00f2ff">Transfinite Singularity</text>
<text text-anchor="middle" x="183.26" y="-186.09" font-family="Times,serif" font-size="14.00" fill="#00f2ff">(Pure Semantic Flow)</text>
</g>
<!-- v2&#45;&gt;v3 -->
<g id="edge2" class="edge">
<title>v2&#45;&gt;v3</title>
<path fill="none" stroke="#ff00ff" d="M183.26,-422.37C183.26,-412.08 183.26,-398.06 183.26,-382.02"/>
<polygon fill="#ff00ff" stroke="#ff00ff" points="183.26,-371.79 187.76,-381.79 183.26,-376.79 183.26,-381.79 183.26,-381.79 183.26,-381.79 183.26,-376.79 178.76,-381.79 183.26,-371.79 183.26,-371.79"/>
<text text-anchor="middle" x="239.26" y="-393.39" font-family="Times,serif" font-size="14.00"> Axiom Dissolution </text>
</g>
</g>
</svg>
