<?xml version="1.0" encoding="UTF-8" standalone="no"?>
<!DOCTYPE svg PUBLIC "-//W3C//DTD SVG 1.1//EN"
 "http://www.w3.org/Graphics/SVG/1.1/DTD/svg11.dtd">
<!-- Generated by graphviz version 2.43.0 (0)
 -->
<!-- Title: ModPrism Pages: 1 -->
<svg width="310pt" height="321pt"
 viewBox="0.00 0.00 310.00 321.43" xmlns="http://www.w3.org/2000/svg" xmlns:xlink="http://www.w3.org/1999/xlink">
<g id="graph0" class="graph" transform="scale(1 1) rotate(0) translate(4 317.43)">
<title>ModPrism</title>
<polygon fill="#0d1117" stroke="transparent" points="-4,4 -4,-317.43 306,-317.43 306,4 -4,4"/>
<text text-anchor="middle" x="151" y="-7.8" font-family="Helvetica,sans-Serif" font-size="14.00" fill="#00f2ff">M2.4: Module C &#45; The Prism (Visual Refraction)</text>
<!-- DOT -->
<g id="node1" class="node">
<title>DOT</title>
<path fill="#161b22" stroke="#00f2ff" d="M194,-313.43C194,-313.43 108,-313.43 108,-313.43 102,-313.43 96,-307.43 96,-301.43 96,-301.43 96,-289.43 96,-289.43 96,-283.43 102,-277.43 108,-277.43 108,-277.43 194,-277.43 194,-277.43 200,-277.43 206,-283.43 206,-289.43 206,-289.43 206,-301.43 206,-301.43 206,-307.43 200,-313.43 194,-313.43"/>
<text text-anchor="middle" x="151" y="-291.73" font-family="Times,serif" font-size="14.00" fill="#00f2ff">DOT Graph Data</text>
</g>
<!-- Prism -->
<g id="node2" class="node">
<title>Prism</title>
<path fill="#161b22" stroke="#00f2ff" d="M55.96,-195.35C55.96,-195.35 139.27,-177.32 139.27,-177.32 145.14,-176.05 156.86,-176.05 162.73,-177.32 162.73,-177.32 246.04,-195.35 246.04,-195.35 251.9,-196.61 257.75,-203.88 257.73,-209.88 257.73,-209.88 257.7,-223.26 257.7,-223.26 257.68,-229.26 251.66,-235.26 245.66,-235.26 245.66,-235.26 56.34,-235.26 56.34,-235.26 50.34,-235.26 44.32,-229.26 44.3,-223.26 44.3,-223.26 44.27,-209.88 44.27,-209.88 44.25,-203.88 50.1,-196.61 55.96,-195.35"/>
<text text-anchor="middle" x="151" y="-212.01" font-family="Times,serif" font-size="14.00" fill="#00f2ff">The Prism</text>
<text text-anchor="middle" x="151" y="-197.01" font-family="Times,serif" font-size="14.00" fill="#00f2ff">(Visual Refraction)</text>
</g>
<!-- DOT&#45;&gt;Prism -->
<g id="edge1" class="edge">
<title>DOT&#45;&gt;Prism</title>
<path fill="none" stroke="#ff00ff" d="M151,-277.18C151,-268.12 151,-256.64 151,-245.71"/>
<polygon fill="#ff00ff" stroke="#ff00ff" points="151,-235.5 155.5,-245.5 151,-240.5 151,-245.5 151,-245.5 151,-245.5 151,-240.5 146.5,-245.5 151,-235.5 151,-235.5"/>
</g>
<!-- ThreeJS -->
<g id="node3" class="node">
<title>ThreeJS</title>
<ellipse fill="#161b22" stroke="#00f2ff" cx="151" cy="-121" rx="79.09" ry="18"/>
<text text-anchor="middle" x="151" y="-117.3" font-family="Times,serif" font-size="14.00" fill="#00f2ff">WebGL 3D Engine</text>
</g>
<!-- Prism&#45;&gt;ThreeJS -->
<g id="edge2" class="edge">
<title>Prism&#45;&gt;ThreeJS</title>
<path fill="none" stroke="#ff00ff" d="M151,-175C151,-166.61 151,-157.65 151,-149.52"/>
<polygon fill="#ff00ff" stroke="#ff00ff" points="151,-139.45 155.5,-149.45 151,-144.45 151,-149.45 151,-149.45 151,-149.45 151,-144.45 146.5,-149.45 151,-139.45 151,-139.45"/>
</g>
<!-- InteractiveViz -->
<g id="node4" class="node">
<title>InteractiveViz</title>
<path fill="#161b22" stroke="#ff00ff" d="M239.77,-42.51C239.77,-42.51 239.77,-47.49 239.77,-47.49 239.77,-49.97 237.34,-52.95 234.9,-53.44 234.9,-53.44 192.64,-62.01 192.64,-62.01 190.21,-62.51 185.29,-63 182.8,-63 182.8,-63 119.2,-63 119.2,-63 116.71,-63 111.79,-62.51 109.36,-62.01 109.36,-62.01 67.1,-53.44 67.1,-53.44 64.66,-52.95 62.23,-49.97 62.23,-47.49 62.23,-47.49 62.23,-42.51 62.23,-42.51 62.23,-40.03 64.66,-37.05 67.1,-36.56 67.1,-36.56 109.36,-27.99 109.36,-27.99 111.79,-27.49 116.71,-27 119.2,-27 119.2,-27 182.8,-27 182.8,-27 185.29,-27 190.21,-27.49 192.64,-27.99 192.64,-27.99 234.9,-36.56 234.9,-36.56 237.34,-37.05 239.77,-40.03 239.77,-42.51"/>
<path fill="none" stroke="#ff00ff" d="M243.78,-41.42C243.78,-41.42 243.78,-48.58 243.78,-48.58 243.78,-52.15 240.28,-56.44 236.77,-57.15 236.77,-57.15 195.18,-65.58 195.18,-65.58 191.68,-66.29 184.6,-67 181.02,-67 181.02,-67 120.98,-67 120.98,-67 117.4,-67 110.32,-66.29 106.82,-65.58 106.82,-65.58 65.23,-57.15 65.23,-57.15 61.72,-56.44 58.22,-52.15 58.22,-48.58 58.22,-48.58 58.22,-41.42 58.22,-41.42 58.22,-37.85 61.72,-33.56 65.23,-32.85 65.23,-32.85 106.82,-24.42 106.82,-24.42 110.32,-23.71 117.4,-23 120.98,-23 120.98,-23 181.02,-23 181.02,-23 184.6,-23 191.68,-23.71 195.18,-24.42 195.18,-24.42 236.77,-32.85 236.77,-32.85 240.28,-33.56 243.78,-37.85 243.78,-41.42"/>
<text text-anchor="middle" x="151" y="-41.3" font-family="Times,serif" font-size="14.00" fill="#00f2ff">Explorable 3D Arch</text>
</g>
<!-- ThreeJS&#45;&gt;InteractiveViz -->
<g id="edge3" class="edge">
<title>ThreeJS&#45;&gt;InteractiveViz</title>
<path fill="none" stroke="#ff00ff" d="M151,-102.84C151,-95.16 151,-85.88 151,-77.05"/>
<polygon fill="#ff00ff" stroke="#ff00ff" points="151,-67.03 155.5,-77.03 151,-72.03 151,-77.03 151,-77.03 151,-77.03 151,-72.03 146.5,-77.03 151,-67.03 151,-67.03"/>
</g>
</g>
</svg>
