<?xml version="1.0" encoding="UTF-8" standalone="no"?>
<!DOCTYPE svg PUBLIC "-//W3C//DTD SVG 1.1//EN"
 "http://www.w3.org/Graphics/SVG/1.1/DTD/svg11.dtd">
<!-- Generated by graphviz version 2.43.0 (0)
 -->
<!-- Title: ModWeaver Pages: 1 -->
<svg width="344pt" height="285pt"
 viewBox="0.00 0.00 344.00 285.00" xmlns="http://www.w3.org/2000/svg" xmlns:xlink="http://www.w3.org/1999/xlink">
<g id="graph0" class="graph" transform="scale(1 1) rotate(0) translate(4 281)">
<title>ModWeaver</title>
<polygon fill="#0d1117" stroke="transparent" points="-4,4 -4,-281 340,-281 340,4 -4,4"/>
<text text-anchor="middle" x="168" y="-7.8" font-family="Helvetica,sans-Serif" font-size="14.00" fill="#00f2ff">M2.3: Module B &#45; The Weaver (Cross&#45;Repo Synergy)</text>
<!-- RepoA -->
<g id="node1" class="node">
<title>RepoA</title>
<path fill="#161b22" stroke="#00f2ff" d="M202.5,-277C202.5,-277 110.5,-277 110.5,-277 104.5,-277 98.5,-271 98.5,-265 98.5,-265 98.5,-253 98.5,-253 98.5,-247 104.5,-241 110.5,-241 110.5,-241 202.5,-241 202.5,-241 208.5,-241 214.5,-247 214.5,-253 214.5,-253 214.5,-265 214.5,-265 214.5,-271 208.5,-277 202.5,-277"/>
<text text-anchor="middle" x="156.5" y="-255.3" font-family="Times,serif" font-size="14.00" fill="#00f2ff">Hybrid Instance A</text>
</g>
<!-- Weaver -->
<g id="node3" class="node">
<title>Weaver</title>
<path fill="#161b22" stroke="#00ff00" d="M156,-205C156,-205 79,-205 79,-205 73,-205 67,-199 67,-193 67,-193 67,-179 67,-179 67,-173 73,-167 79,-167 79,-167 156,-167 156,-167 162,-167 168,-173 168,-179 168,-179 168,-193 168,-193 168,-199 162,-205 156,-205"/>
<text text-anchor="middle" x="117.5" y="-189.8" font-family="Times,serif" font-size="14.00" fill="#00f2ff">The Weaver</text>
<text text-anchor="middle" x="117.5" y="-174.8" font-family="Times,serif" font-size="14.00" fill="#00f2ff">(Synergy Sync)</text>
</g>
<!-- RepoA&#45;&gt;Weaver -->
<g id="edge1" class="edge">
<title>RepoA&#45;&gt;Weaver</title>
<path fill="none" stroke="#ff00ff" d="M147.06,-240.81C142.64,-232.77 137.28,-223 132.34,-214.01"/>
<polygon fill="#ff00ff" stroke="#ff00ff" points="127.4,-205.02 136.16,-211.62 129.81,-209.4 132.21,-213.78 132.21,-213.78 132.21,-213.78 129.81,-209.4 128.27,-215.95 127.4,-205.02 127.4,-205.02"/>
</g>
<!-- RepoB -->
<g id="node2" class="node">
<title>RepoB</title>
<path fill="#161b22" stroke="#00f2ff" d="M191.5,-59C191.5,-59 99.5,-59 99.5,-59 93.5,-59 87.5,-53 87.5,-47 87.5,-47 87.5,-35 87.5,-35 87.5,-29 93.5,-23 99.5,-23 99.5,-23 191.5,-23 191.5,-23 197.5,-23 203.5,-29 203.5,-35 203.5,-35 203.5,-47 203.5,-47 203.5,-53 197.5,-59 191.5,-59"/>
<text text-anchor="middle" x="145.5" y="-37.3" font-family="Times,serif" font-size="14.00" fill="#00f2ff">Hybrid Instance B</text>
</g>
<!-- RepoB&#45;&gt;Weaver -->
<g id="edge2" class="edge">
<title>RepoB&#45;&gt;Weaver</title>
<path fill="none" stroke="#ff00ff" d="M132.35,-59.09C125.58,-68.99 118.01,-82.04 114.5,-95 109.06,-115.09 110.09,-138.62 112.33,-156.58"/>
<polygon fill="#ff00ff" stroke="#ff00ff" points="113.79,-166.71 107.91,-157.46 113.08,-161.76 112.36,-156.81 112.36,-156.81 112.36,-156.81 113.08,-161.76 116.81,-156.17 113.79,-166.71 113.79,-166.71"/>
</g>
<!-- SharedHeuristics -->
<g id="node4" class="node">
<title>SharedHeuristics</title>
<path fill="#161b22" stroke="#ffff00" d="M269,-127.73C269,-129.53 236.5,-131 196.5,-131 156.5,-131 124,-129.53 124,-127.73 124,-127.73 124,-98.27 124,-98.27 124,-96.47 156.5,-95 196.5,-95 236.5,-95 269,-96.47 269,-98.27 269,-98.27 269,-127.73 269,-127.73"/>
<path fill="none" stroke="#ffff00" d="M269,-127.73C269,-125.92 236.5,-124.45 196.5,-124.45 156.5,-124.45 124,-125.92 124,-127.73"/>
<text text-anchor="middle" x="196.5" y="-109.3" font-family="Times,serif" font-size="14.00" fill="#00f2ff">Global Meta&#45;Heuristics</text>
</g>
<!-- Weaver&#45;&gt;SharedHeuristics -->
<g id="edge3" class="edge">
<title>Weaver&#45;&gt;SharedHeuristics</title>
<path fill="none" stroke="#ff00ff" d="M137.84,-166.72C147.61,-157.94 159.43,-147.31 169.9,-137.91"/>
<polygon fill="#ff00ff" stroke="#ff00ff" points="177.58,-131 173.15,-141.03 173.86,-134.35 170.14,-137.69 170.14,-137.69 170.14,-137.69 173.86,-134.35 167.14,-134.34 177.58,-131 177.58,-131"/>
</g>
<!-- SharedHeuristics&#45;&gt;RepoA -->
<g id="edge4" class="edge">
<title>SharedHeuristics&#45;&gt;RepoA</title>
<path fill="none" stroke="#ff00ff" stroke-dasharray="5,2" d="M193.79,-131.33C190.7,-149.8 185.06,-179.8 177.5,-205 174.88,-213.72 171.43,-223.02 168.09,-231.35"/>
<polygon fill="#ff00ff" stroke="#ff00ff" points="164.27,-240.6 163.93,-229.64 166.18,-235.98 168.09,-231.36 168.09,-231.36 168.09,-231.36 166.18,-235.98 172.25,-233.08 164.27,-240.6 164.27,-240.6"/>
</g>
<!-- SharedHeuristics&#45;&gt;RepoB -->
<g id="edge5" class="edge">
<title>SharedHeuristics&#45;&gt;RepoB</title>
<path fill="none" stroke="#ff00ff" stroke-dasharray="5,2" d="M183.89,-94.7C177.9,-86.47 170.62,-76.48 164.02,-67.42"/>
<polygon fill="#ff00ff" stroke="#ff00ff" points="157.96,-59.1 167.49,-64.54 160.91,-63.15 163.85,-67.19 163.85,-67.19 163.85,-67.19 160.91,-63.15 160.21,-69.84 157.96,-59.1 157.96,-59.1"/>
</g>
</g>
</svg>
