<?xml version="1.0" encoding="UTF-8" standalone="no"?>
<!DOCTYPE svg PUBLIC "-//W3C//DTD SVG 1.1//EN"
 "http://www.w3.org/Graphics/SVG/1.1/DTD/svg11.dtd">
<!-- Generated by graphviz version 2.43.0 (0)
 -->
<!-- Title: ModOracle Pages: 1 -->
<svg width="334pt" height="300pt"
 viewBox="0.00 0.00 334.00 300.00" xmlns="http://www.w3.org/2000/svg" xmlns:xlink="http://www.w3.org/1999/xlink">
<g id="graph0" class="graph" transform="scale(1 1) rotate(0) translate(4 296)">
<title>ModOracle</title>
<polygon fill="#0d1117" stroke="transparent" points="-4,4 -4,-296 330,-296 330,4 -4,4"/>
<text text-anchor="middle" x="163" y="-7.8" font-family="Helvetica,sans-Serif" font-size="14.00" fill="#00f2ff">M2.2: Module A &#45; The Oracle (Predictive Forensics)</text>
<!-- Tokens -->
<g id="node1" class="node">
<title>Tokens</title>
<path fill="#161b22" stroke="#00f2ff" d="M198,-292C198,-292 128,-292 128,-292 122,-292 116,-286 116,-280 116,-280 116,-268 116,-268 116,-262 122,-256 128,-256 128,-256 198,-256 198,-256 204,-256 210,-262 210,-268 210,-268 210,-280 210,-280 210,-286 204,-292 198,-292"/>
<text text-anchor="middle" x="163" y="-270.3" font-family="Times,serif" font-size="14.00" fill="#00f2ff">Token Stream</text>
</g>
<!-- Entropy -->
<g id="node2" class="node">
<title>Entropy</title>
<path fill="#161b22" stroke="#00f2ff" d="M258.86,-219C258.86,-219 111.28,-219 111.28,-219 105.28,-219 94.63,-215.21 89.98,-211.42 89.98,-211.42 64.43,-190.58 64.43,-190.58 59.79,-186.79 61.14,-183 67.14,-183 67.14,-183 214.72,-183 214.72,-183 220.72,-183 231.37,-186.79 236.02,-190.58 236.02,-190.58 261.57,-211.42 261.57,-211.42 266.21,-215.21 264.86,-219 258.86,-219"/>
<text text-anchor="middle" x="163" y="-197.3" font-family="Times,serif" font-size="14.00" fill="#00f2ff">Entropy Analyzer</text>
</g>
<!-- Tokens&#45;&gt;Entropy -->
<g id="edge1" class="edge">
<title>Tokens&#45;&gt;Entropy</title>
<path fill="none" stroke="#ff00ff" d="M163,-255.81C163,-247.79 163,-238.05 163,-229.07"/>
<polygon fill="#ff00ff" stroke="#ff00ff" points="163,-219.03 167.5,-229.03 163,-224.03 163,-229.03 163,-229.03 163,-229.03 163,-224.03 158.5,-229.03 163,-219.03 163,-219.03"/>
</g>
<!-- Predictor -->
<g id="node3" class="node">
<title>Predictor</title>
<path fill="#161b22" stroke="#ffff00" stroke-width="2" d="M151.08,-144.62C151.08,-144.62 18.91,-129.38 18.91,-129.38 12.95,-128.69 12.95,-127.31 18.91,-126.62 18.91,-126.62 151.08,-111.38 151.08,-111.38 157.04,-110.69 168.96,-110.69 174.92,-111.38 174.92,-111.38 307.09,-126.62 307.09,-126.62 313.05,-127.31 313.05,-128.69 307.09,-129.38 307.09,-129.38 174.92,-144.62 174.92,-144.62 168.96,-145.31 157.04,-145.31 151.08,-144.62"/>
<text text-anchor="middle" x="163" y="-124.3" font-family="Times,serif" font-size="14.00" fill="#00f2ff">Oracle: Predictive Forensics</text>
</g>
<!-- Entropy&#45;&gt;Predictor -->
<g id="edge2" class="edge">
<title>Entropy&#45;&gt;Predictor</title>
<path fill="none" stroke="#ff00ff" d="M163,-182.81C163,-174.79 163,-165.05 163,-156.07"/>
<polygon fill="#ff00ff" stroke="#ff00ff" points="163,-146.03 167.5,-156.03 163,-151.03 163,-156.03 163,-156.03 163,-156.03 163,-151.03 158.5,-156.03 163,-146.03 163,-146.03"/>
</g>
<!-- Alert -->
<g id="node4" class="node">
<title>Alert</title>
<path fill="#161b22" stroke="#ff0000" d="M222.5,-59C222.5,-59 103.5,-59 103.5,-59 97.5,-59 91.5,-53 91.5,-47 91.5,-47 91.5,-35 91.5,-35 91.5,-29 97.5,-23 103.5,-23 103.5,-23 222.5,-23 222.5,-23 228.5,-23 234.5,-29 234.5,-35 234.5,-35 234.5,-47 234.5,-47 234.5,-53 228.5,-59 222.5,-59"/>
<text text-anchor="middle" x="163" y="-37.3" font-family="Times,serif" font-size="14.00" fill="#00f2ff">Pre&#45;emptive Wall Alert</text>
</g>
<!-- Predictor&#45;&gt;Alert -->
<g id="edge3" class="edge">
<title>Predictor&#45;&gt;Alert</title>
<path fill="none" stroke="#ff00ff" d="M163,-109.8C163,-98.16 163,-82.55 163,-69.24"/>
<polygon fill="#ff00ff" stroke="#ff00ff" points="163,-59.18 167.5,-69.18 163,-64.18 163,-69.18 163,-69.18 163,-69.18 163,-64.18 158.5,-69.18 163,-59.18 163,-59.18"/>
<text text-anchor="middle" x="212" y="-80.8" font-family="Times,serif" font-size="14.00"> Pattern Detected </text>
</g>
</g>
</svg>
