<?xml version="1.0" encoding="UTF-8" standalone="no"?>
<!DOCTYPE svg PUBLIC "-//W3C//DTD SVG 1.1//EN"
 "http://www.w3.org/Graphics/SVG/1.1/DTD/svg11.dtd">
<!-- Generated by graphviz version 2.43.0 (0)
 -->
<!-- Title: ModAnvil Pages: 1 -->
<svg width="334pt" height="372pt"
 viewBox="0.00 0.00 334.00 371.98" xmlns="http://www.w3.org/2000/svg" xmlns:xlink="http://www.w3.org/1999/xlink">
<g id="graph0" class="graph" transform="scale(1 1) rotate(0) translate(4 367.98)">
<title>ModAnvil</title>
<polygon fill="#0d1117" stroke="transparent" points="-4,4 -4,-367.98 330,-367.98 330,4 -4,4"/>
<text text-anchor="middle" x="163" y="-7.8" font-family="Helvetica,sans-Serif" font-size="14.00" fill="#00f2ff">M2.5: Module D &#45; The Anvil (Formal Stress Testing)</text>
<!-- Axioms -->
<g id="node1" class="node">
<title>Axioms</title>
<path fill="#161b22" stroke="#00f2ff" d="M114.76,-303.49C114.76,-303.49 49.76,-303.49 49.76,-303.49 43.76,-303.49 37.76,-297.49 37.76,-291.49 37.76,-291.49 37.76,-279.49 37.76,-279.49 37.76,-273.49 43.76,-267.49 49.76,-267.49 49.76,-267.49 114.76,-267.49 114.76,-267.49 120.76,-267.49 126.76,-273.49 126.76,-279.49 126.76,-279.49 126.76,-291.49 126.76,-291.49 126.76,-297.49 120.76,-303.49 114.76,-303.49"/>
<text text-anchor="middle" x="82.26" y="-281.79" font-family="Times,serif" font-size="14.00" fill="#00f2ff">Core Axioms</text>
</g>
<!-- Anvil -->
<g id="node3" class="node">
<title>Anvil</title>
<path fill="#161b22" stroke="#ffff00" d="M140.75,-167.58C140.75,-167.58 35.76,-136.42 35.76,-136.42 30.01,-134.71 30.01,-131.29 35.76,-129.58 35.76,-129.58 140.75,-98.42 140.75,-98.42 146.5,-96.71 158.01,-96.71 163.76,-98.42 163.76,-98.42 268.75,-129.58 268.75,-129.58 274.5,-131.29 274.5,-134.71 268.75,-136.42 268.75,-136.42 163.76,-167.58 163.76,-167.58 158.01,-169.29 146.5,-169.29 140.75,-167.58"/>
<text text-anchor="middle" x="152.26" y="-136.8" font-family="Times,serif" font-size="14.00" fill="#00f2ff">The Anvil</text>
<text text-anchor="middle" x="152.26" y="-121.8" font-family="Times,serif" font-size="14.00" fill="#00f2ff">(Formal Stress Test)</text>
</g>
<!-- Axioms&#45;&gt;Anvil -->
<g id="edge1" class="edge">
<title>Axioms&#45;&gt;Anvil</title>
<path fill="none" stroke="#ff00ff" d="M90.29,-267.23C100.56,-245.14 118.69,-206.15 132.7,-176.04"/>
<polygon fill="#ff00ff" stroke="#ff00ff" points="137.09,-166.6 136.95,-177.57 134.98,-171.14 132.87,-175.67 132.87,-175.67 132.87,-175.67 134.98,-171.14 128.79,-173.77 137.09,-166.6 137.09,-166.6"/>
</g>
<!-- Noise -->
<g id="node2" class="node">
<title>Noise</title>
<ellipse fill="#161b22" stroke="#ff0000" cx="223.26" cy="-285.49" rx="78.48" ry="78.48"/>
<text text-anchor="middle" x="223.26" y="-289.29" font-family="Times,serif" font-size="14.00" fill="#00f2ff">Intentional Noise</text>
<text text-anchor="middle" x="223.26" y="-274.29" font-family="Times,serif" font-size="14.00" fill="#00f2ff">(Chaos Injection)</text>
</g>
<!-- Noise&#45;&gt;Anvil -->
<g id="edge2" class="edge">
<title>Noise&#45;&gt;Anvil</title>
<path fill="none" stroke="#ff00ff" d="M190.04,-214.09C183.89,-201.05 177.65,-187.82 172.06,-175.97"/>
<polygon fill="#ff00ff" stroke="#ff00ff" points="167.72,-166.79 176.06,-173.91 169.86,-171.31 171.99,-175.83 171.99,-175.83 171.99,-175.83 169.86,-171.31 167.92,-177.75 167.72,-166.79 167.72,-166.79"/>
</g>
<!-- Report -->
<g id="node4" class="node">
<title>Report</title>
<polygon fill="#161b22" stroke="#00ff00" points="218.76,-59 79.76,-59 79.76,-23 224.76,-23 224.76,-53 218.76,-59"/>
<polyline fill="none" stroke="#00ff00" points="218.76,-59 218.76,-53 "/>
<polyline fill="none" stroke="#00ff00" points="224.76,-53 218.76,-53 "/>
<text text-anchor="middle" x="152.26" y="-37.3" font-family="Times,serif" font-size="14.00" fill="#00f2ff">Axiom Stability Profile</text>
</g>
<!-- Anvil&#45;&gt;Report -->
<g id="edge3" class="edge">
<title>Anvil&#45;&gt;Report</title>
<path fill="none" stroke="#ff00ff" d="M152.26,-94.87C152.26,-86.26 152.26,-77.24 152.26,-69.14"/>
<polygon fill="#ff00ff" stroke="#ff00ff" points="152.26,-59.14 156.76,-69.14 152.26,-64.14 152.26,-69.14 152.26,-69.14 152.26,-69.14 152.26,-64.14 147.76,-69.14 152.26,-59.14 152.26,-59.14"/>
</g>
</g>
</svg>
