<?xml version="1.0" encoding="UTF-8" standalone="no"?>
<!DOCTYPE svg PUBLIC "-//W3C//DTD SVG 1.1//EN"
 "http://www.w3.org/Graphics/SVG/1.1/DTD/svg11.dtd">
<!-- Generated by graphviz version 2.43.0 (0)
 -->
<!-- Title: PropVRAMHUD Pages: 1 -->
<svg width="274pt" height="344pt"
 viewBox="0.00 0.00 274.00 344.17" xmlns="http://www.w3.org/2000/svg" xmlns:xlink="http://www.w3.org/1999/xlink">
<g id="graph0" class="graph" transform="scale(1 1) rotate(0) translate(4 340.17)">
<title>PropVRAMHUD</title>
<polygon fill="#0d1117" stroke="transparent" points="-4,4 -4,-340.17 270,-340.17 270,4 -4,4"/>
<text text-anchor="middle" x="133" y="-7.8" font-family="Helvetica,sans-Serif" font-size="14.00" fill="#00f2ff">P1.3: Real&#45;time VRAM Visualization HUD</text>
<!-- GPU -->
<g id="node1" class="node">
<title>GPU</title>
<polygon fill="#161b22" stroke="#ff00ff" points="179.5,-336.17 90.5,-336.17 86.5,-332.17 86.5,-300.17 175.5,-300.17 179.5,-304.17 179.5,-336.17"/>
<polyline fill="none" stroke="#ff00ff" points="175.5,-332.17 86.5,-332.17 "/>
<polyline fill="none" stroke="#ff00ff" points="175.5,-332.17 175.5,-300.17 "/>
<polyline fill="none" stroke="#ff00ff" points="175.5,-332.17 179.5,-336.17 "/>
<text text-anchor="middle" x="133" y="-314.47" font-family="Times,serif" font-size="14.00" fill="#00f2ff">Physical GPU</text>
</g>
<!-- SMI -->
<g id="node2" class="node">
<title>SMI</title>
<path fill="#161b22" stroke="#00f2ff" d="M232.49,-249.17C232.49,-249.17 79.14,-249.17 79.14,-249.17 73.14,-249.17 62.43,-245.45 57.72,-241.73 57.72,-241.73 30.93,-220.6 30.93,-220.6 26.22,-216.88 27.51,-213.17 33.51,-213.17 33.51,-213.17 186.86,-213.17 186.86,-213.17 192.86,-213.17 203.57,-216.88 208.28,-220.6 208.28,-220.6 235.07,-241.73 235.07,-241.73 239.78,-245.45 238.49,-249.17 232.49,-249.17"/>
<text text-anchor="middle" x="133" y="-227.47" font-family="Times,serif" font-size="14.00" fill="#00f2ff">nvidia&#45;smi / nvtop</text>
</g>
<!-- GPU&#45;&gt;SMI -->
<g id="edge1" class="edge">
<title>GPU&#45;&gt;SMI</title>
<path fill="none" stroke="#ff00ff" d="M133,-299.97C133,-288.33 133,-272.72 133,-259.4"/>
<polygon fill="#ff00ff" stroke="#ff00ff" points="133,-249.34 137.5,-259.34 133,-254.34 133,-259.34 133,-259.34 133,-259.34 133,-254.34 128.5,-259.34 133,-249.34 133,-249.34"/>
<text text-anchor="middle" x="148" y="-270.97" font-family="Times,serif" font-size="14.00"> Poll </text>
</g>
<!-- Metrics -->
<g id="node3" class="node">
<title>Metrics</title>
<path fill="#161b22" stroke="#ffff00" d="M193,-176.17C193,-176.17 73,-176.17 73,-176.17 67,-176.17 61,-170.17 61,-164.17 61,-164.17 61,-152.17 61,-152.17 61,-146.17 67,-140.17 73,-140.17 73,-140.17 193,-140.17 193,-140.17 199,-140.17 205,-146.17 205,-152.17 205,-152.17 205,-164.17 205,-164.17 205,-170.17 199,-176.17 193,-176.17"/>
<text text-anchor="middle" x="133" y="-154.47" font-family="Times,serif" font-size="14.00" fill="#00f2ff">Real&#45;time VRAM Data</text>
</g>
<!-- SMI&#45;&gt;Metrics -->
<g id="edge2" class="edge">
<title>SMI&#45;&gt;Metrics</title>
<path fill="none" stroke="#ff00ff" d="M133,-212.98C133,-204.96 133,-195.22 133,-186.24"/>
<polygon fill="#ff00ff" stroke="#ff00ff" points="133,-176.2 137.5,-186.2 133,-181.2 133,-186.2 133,-186.2 133,-186.2 133,-181.2 128.5,-186.2 133,-176.2 133,-176.2"/>
</g>
<!-- HUD -->
<g id="node4" class="node">
<title>HUD</title>
<path fill="#161b22" stroke="#00ff00" d="M229.38,-52.06C229.38,-52.06 229.38,-60.11 229.38,-60.11 229.38,-64.14 225.52,-69.33 221.67,-70.49 221.67,-70.49 180.63,-82.91 180.63,-82.91 176.77,-84.08 168.89,-85.24 164.87,-85.24 164.87,-85.24 101.13,-85.24 101.13,-85.24 97.11,-85.24 89.23,-84.08 85.37,-82.91 85.37,-82.91 44.33,-70.49 44.33,-70.49 40.48,-69.33 36.62,-64.14 36.62,-60.11 36.62,-60.11 36.62,-52.06 36.62,-52.06 36.62,-48.03 40.48,-42.84 44.33,-41.67 44.33,-41.67 85.37,-29.26 85.37,-29.26 89.23,-28.09 97.11,-26.93 101.13,-26.93 101.13,-26.93 164.87,-26.93 164.87,-26.93 168.89,-26.93 176.77,-28.09 180.63,-29.26 180.63,-29.26 221.67,-41.67 221.67,-41.67 225.52,-42.84 229.38,-48.03 229.38,-52.06"/>
<path fill="none" stroke="#00ff00" d="M233.37,-51.07C233.37,-51.07 233.37,-61.1 233.37,-61.1 233.37,-66.12 228.57,-72.59 223.76,-74.05 223.76,-74.05 183.12,-86.35 183.12,-86.35 178.31,-87.8 168.49,-89.25 163.47,-89.25 163.47,-89.25 102.53,-89.25 102.53,-89.25 97.51,-89.25 87.69,-87.8 82.88,-86.35 82.88,-86.35 42.24,-74.05 42.24,-74.05 37.43,-72.59 32.63,-66.12 32.63,-61.1 32.63,-61.1 32.63,-51.07 32.63,-51.07 32.63,-46.05 37.43,-39.57 42.24,-38.12 42.24,-38.12 82.88,-25.82 82.88,-25.82 87.69,-24.37 97.51,-22.92 102.53,-22.92 102.53,-22.92 163.47,-22.92 163.47,-22.92 168.49,-22.92 178.31,-24.37 183.12,-25.82 183.12,-25.82 223.76,-38.12 223.76,-38.12 228.57,-39.57 233.37,-46.05 233.37,-51.07"/>
<text text-anchor="middle" x="133" y="-59.88" font-family="Times,serif" font-size="14.00" fill="#00f2ff">Neon HUD Overlay</text>
<text text-anchor="middle" x="133" y="-44.88" font-family="Times,serif" font-size="14.00" fill="#00f2ff">(TUI/CLI)</text>
</g>
<!-- Metrics&#45;&gt;HUD -->
<g id="edge3" class="edge">
<title>Metrics&#45;&gt;HUD</title>
<path fill="none" stroke="#ff00ff" d="M133,-139.73C133,-128.56 133,-113.54 133,-99.37"/>
<polygon fill="#ff00ff" stroke="#ff00ff" points="133,-89.27 137.5,-99.27 133,-94.27 133,-99.27 133,-99.27 133,-99.27 133,-94.27 128.5,-99.27 133,-89.27 133,-89.27"/>
<text text-anchor="middle" x="156.5" y="-110.97" font-family="Times,serif" font-size="14.00"> Stream </text>
</g>
</g>
</svg>
