<?xml version="1.0" encoding="UTF-8" standalone="no"?>
<!DOCTYPE svg PUBLIC "-//W3C//DTD SVG 1.1//EN"
 "http://www.w3.org/Graphics/SVG/1.1/DTD/svg11.dtd">
<!-- Generated by graphviz version 2.43.0 (0)
 -->
<!-- Title: ProposedExp Pages: 1 -->
<svg width="594pt" height="147pt"
 viewBox="0.00 0.00 593.50 147.00" xmlns="http://www.w3.org/2000/svg" xmlns:xlink="http://www.w3.org/1999/xlink">
<g id="graph0" class="graph" transform="scale(1 1) rotate(0) translate(4 143)">
<title>ProposedExp</title>
<polygon fill="#0d1117" stroke="transparent" points="-4,4 -4,-143 589.5,-143 589.5,4 -4,4"/>
<text text-anchor="middle" x="292.75" y="-7.8" font-family="Helvetica,sans-Serif" font-size="14.00" fill="#00f2ff">Future State: Proposed Expansions</text>
<!-- Current -->
<g id="node1" class="node">
<title>Current</title>
<path fill="#161b22" stroke="#00ff00" d="M390.15,-114.51C390.15,-114.51 390.15,-119.49 390.15,-119.49 390.15,-121.97 387.7,-124.88 385.25,-125.3 385.25,-125.3 333.75,-134.16 333.75,-134.16 331.3,-134.58 326.36,-135 323.88,-135 323.88,-135 247.12,-135 247.12,-135 244.64,-135 239.7,-134.58 237.25,-134.16 237.25,-134.16 185.75,-125.3 185.75,-125.3 183.3,-124.88 180.85,-121.97 180.85,-119.49 180.85,-119.49 180.85,-114.51 180.85,-114.51 180.85,-112.03 183.3,-109.12 185.75,-108.7 185.75,-108.7 237.25,-99.84 237.25,-99.84 239.7,-99.42 244.64,-99 247.12,-99 247.12,-99 323.88,-99 323.88,-99 326.36,-99 331.3,-99.42 333.75,-99.84 333.75,-99.84 385.25,-108.7 385.25,-108.7 387.7,-109.12 390.15,-112.03 390.15,-114.51"/>
<path fill="none" stroke="#00ff00" d="M394.14,-113.39C394.14,-113.39 394.14,-120.61 394.14,-120.61 394.14,-124.22 390.58,-128.44 387.03,-129.05 387.03,-129.05 336.3,-137.78 336.3,-137.78 332.74,-138.39 325.58,-139 321.97,-139 321.97,-139 249.03,-139 249.03,-139 245.42,-139 238.26,-138.39 234.7,-137.78 234.7,-137.78 183.97,-129.05 183.97,-129.05 180.42,-128.44 176.86,-124.22 176.86,-120.61 176.86,-120.61 176.86,-113.39 176.86,-113.39 176.86,-109.78 180.42,-105.56 183.97,-104.95 183.97,-104.95 234.7,-96.22 234.7,-96.22 238.26,-95.61 245.42,-95 249.03,-95 249.03,-95 321.97,-95 321.97,-95 325.58,-95 332.74,-95.61 336.3,-96.22 336.3,-96.22 387.03,-104.95 387.03,-104.95 390.58,-105.56 394.14,-109.78 394.14,-113.39"/>
<text text-anchor="middle" x="285.5" y="-113.3" font-family="Times,serif" font-size="14.00" fill="#00f2ff">Hybrid Framework v1.0</text>
</g>
<!-- Hive -->
<g id="node2" class="node">
<title>Hive</title>
<path fill="#161b22" stroke="#ffff00" d="M103,-59C103,-59 12,-59 12,-59 6,-59 0,-53 0,-47 0,-47 0,-35 0,-35 0,-29 6,-23 12,-23 12,-23 103,-23 103,-23 109,-23 115,-29 115,-35 115,-35 115,-47 115,-47 115,-53 109,-59 103,-59"/>
<text text-anchor="middle" x="57.5" y="-37.3" font-family="Times,serif" font-size="14.00" fill="#00f2ff">Multi&#45;Agent Hive</text>
</g>
<!-- Current&#45;&gt;Hive -->
<g id="edge1" class="edge">
<title>Current&#45;&gt;Hive</title>
<path fill="none" stroke="#ff00ff" d="M227.97,-97.33C194.95,-86.61 153.47,-73.15 119.7,-62.19"/>
<polygon fill="#ff00ff" stroke="#ff00ff" points="109.94,-59.02 120.84,-57.83 114.7,-60.56 119.45,-62.11 119.45,-62.11 119.45,-62.11 114.7,-60.56 118.06,-66.39 109.94,-59.02 109.94,-59.02"/>
</g>
<!-- VRAMHUD -->
<g id="node3" class="node">
<title>VRAMHUD</title>
<path fill="#161b22" stroke="#00f2ff" d="M269.5,-59C269.5,-59 145.5,-59 145.5,-59 139.5,-59 133.5,-53 133.5,-47 133.5,-47 133.5,-35 133.5,-35 133.5,-29 139.5,-23 145.5,-23 145.5,-23 269.5,-23 269.5,-23 275.5,-23 281.5,-29 281.5,-35 281.5,-35 281.5,-47 281.5,-47 281.5,-53 275.5,-59 269.5,-59"/>
<text text-anchor="middle" x="207.5" y="-37.3" font-family="Times,serif" font-size="14.00" fill="#00f2ff">Real&#45;time VRAM HUD</text>
</g>
<!-- Current&#45;&gt;VRAMHUD -->
<g id="edge2" class="edge">
<title>Current&#45;&gt;VRAMHUD</title>
<path fill="none" stroke="#ff00ff" d="M263.36,-94.99C253.9,-86.02 242.81,-75.5 233.02,-66.21"/>
<polygon fill="#ff00ff" stroke="#ff00ff" points="225.5,-59.07 235.85,-62.69 229.12,-62.51 232.75,-65.96 232.75,-65.96 232.75,-65.96 229.12,-62.51 229.65,-69.22 225.5,-59.07 225.5,-59.07"/>
</g>
<!-- GitHooks -->
<g id="node4" class="node">
<title>GitHooks</title>
<path fill="#161b22" stroke="#00f2ff" d="M415.5,-59C415.5,-59 311.5,-59 311.5,-59 305.5,-59 299.5,-53 299.5,-47 299.5,-47 299.5,-35 299.5,-35 299.5,-29 305.5,-23 311.5,-23 311.5,-23 415.5,-23 415.5,-23 421.5,-23 427.5,-29 427.5,-35 427.5,-35 427.5,-47 427.5,-47 427.5,-53 421.5,-59 415.5,-59"/>
<text text-anchor="middle" x="363.5" y="-37.3" font-family="Times,serif" font-size="14.00" fill="#00f2ff">Semantic Git Hooks</text>
</g>
<!-- Current&#45;&gt;GitHooks -->
<g id="edge3" class="edge">
<title>Current&#45;&gt;GitHooks</title>
<path fill="none" stroke="#ff00ff" d="M307.64,-94.99C317.1,-86.02 328.19,-75.5 337.98,-66.21"/>
<polygon fill="#ff00ff" stroke="#ff00ff" points="345.5,-59.07 341.35,-69.22 341.88,-62.51 338.25,-65.96 338.25,-65.96 338.25,-65.96 341.88,-62.51 335.15,-62.69 345.5,-59.07 345.5,-59.07"/>
</g>
<!-- AutoAxiom -->
<g id="node5" class="node">
<title>AutoAxiom</title>
<path fill="#161b22" stroke="#ffff00" stroke-width="2" d="M573.5,-59C573.5,-59 457.5,-59 457.5,-59 451.5,-59 445.5,-53 445.5,-47 445.5,-47 445.5,-35 445.5,-35 445.5,-29 451.5,-23 457.5,-23 457.5,-23 573.5,-23 573.5,-23 579.5,-23 585.5,-29 585.5,-35 585.5,-35 585.5,-47 585.5,-47 585.5,-53 579.5,-59 573.5,-59"/>
<text text-anchor="middle" x="515.5" y="-37.3" font-family="Times,serif" font-size="14.00" fill="#00f2ff">Auto Axiom Synthesis</text>
</g>
<!-- Current&#45;&gt;AutoAxiom -->
<g id="edge4" class="edge">
<title>Current&#45;&gt;AutoAxiom</title>
<path fill="none" stroke="#ff00ff" d="M343.54,-97.33C376.85,-86.61 418.68,-73.15 452.75,-62.19"/>
<polygon fill="#ff00ff" stroke="#ff00ff" points="462.6,-59.02 454.46,-66.37 457.84,-60.55 453.08,-62.08 453.08,-62.08 453.08,-62.08 457.84,-60.55 451.7,-57.8 462.6,-59.02 462.6,-59.02"/>
</g>
</g>
</svg>
