<?xml version="1.0" encoding="UTF-8" standalone="no"?>
<!DOCTYPE svg PUBLIC "-//W3C//DTD SVG 1.1//EN"
 "http://www.w3.org/Graphics/SVG/1.1/DTD/svg11.dtd">
<!-- Generated by graphviz version 2.43.0 (0)
 -->
<!-- Title: PropAxiomSynth Pages: 1 -->
<svg width="364pt" height="514pt"
 viewBox="0.00 0.00 364.05 513.63" xmlns="http://www.w3.org/2000/svg" xmlns:xlink="http://www.w3.org/1999/xlink">
<g id="graph0" class="graph" transform="scale(1 1) rotate(0) translate(4 509.63)">
<title>PropAxiomSynth</title>
<polygon fill="#0d1117" stroke="transparent" points="-4,4 -4,-509.63 360.05,-509.63 360.05,4 -4,4"/>
<text text-anchor="middle" x="178.03" y="-7.8" font-family="Helvetica,sans-Serif" font-size="14.00" fill="#00f2ff">P1.5: Automated Axiom Synthesis Engine</text>
<!-- Wall -->
<g id="node1" class="node">
<title>Wall</title>
<path fill="#161b22" stroke="#ff0000" d="M148.53,-505.63C148.53,-505.63 77.53,-505.63 77.53,-505.63 71.53,-505.63 65.53,-499.63 65.53,-493.63 65.53,-493.63 65.53,-481.63 65.53,-481.63 65.53,-475.63 71.53,-469.63 77.53,-469.63 77.53,-469.63 148.53,-469.63 148.53,-469.63 154.53,-469.63 160.53,-475.63 160.53,-481.63 160.53,-481.63 160.53,-493.63 160.53,-493.63 160.53,-499.63 154.53,-505.63 148.53,-505.63"/>
<text text-anchor="middle" x="113.03" y="-483.93" font-family="Times,serif" font-size="14.00" fill="#00f2ff">Gödelian Wall</text>
</g>
<!-- Synthesizer -->
<g id="node3" class="node">
<title>Synthesizer</title>
<path fill="#161b22" stroke="#ffff00" stroke-width="2" d="M166.1,-432.28C166.1,-432.28 30.08,-416.97 30.08,-416.97 24.12,-416.3 24.12,-414.95 30.08,-414.28 30.08,-414.28 166.1,-398.97 166.1,-398.97 172.06,-398.3 183.99,-398.3 189.95,-398.97 189.95,-398.97 325.97,-414.28 325.97,-414.28 331.93,-414.95 331.93,-416.3 325.97,-416.97 325.97,-416.97 189.95,-432.28 189.95,-432.28 183.99,-432.95 172.06,-432.95 166.1,-432.28"/>
<text text-anchor="middle" x="178.03" y="-411.93" font-family="Times,serif" font-size="14.00" fill="#00f2ff">Automated Axiom Synthesis</text>
</g>
<!-- Wall&#45;&gt;Synthesizer -->
<g id="edge1" class="edge">
<title>Wall&#45;&gt;Synthesizer</title>
<path fill="none" stroke="#ff00ff" d="M129.09,-469.32C137.4,-460.38 147.65,-449.34 156.62,-439.68"/>
<polygon fill="#ff00ff" stroke="#ff00ff" points="163.47,-432.3 159.97,-442.69 160.07,-435.96 156.67,-439.63 156.67,-439.63 156.67,-439.63 160.07,-435.96 153.37,-436.56 163.47,-432.3 163.47,-432.3"/>
</g>
<!-- History -->
<g id="node2" class="node">
<title>History</title>
<polygon fill="#161b22" stroke="#00f2ff" points="307.53,-505.63 304.53,-509.63 283.53,-509.63 280.53,-505.63 178.53,-505.63 178.53,-469.63 307.53,-469.63 307.53,-505.63"/>
<text text-anchor="middle" x="243.03" y="-483.93" font-family="Times,serif" font-size="14.00" fill="#00f2ff">Axiom Shift History</text>
</g>
<!-- History&#45;&gt;Synthesizer -->
<g id="edge2" class="edge">
<title>History&#45;&gt;Synthesizer</title>
<path fill="none" stroke="#ff00ff" d="M226.96,-469.32C218.65,-460.38 208.4,-449.34 199.43,-439.68"/>
<polygon fill="#ff00ff" stroke="#ff00ff" points="192.58,-432.3 202.68,-436.56 195.98,-435.96 199.38,-439.63 199.38,-439.63 199.38,-439.63 195.98,-435.96 196.09,-442.69 192.58,-432.3 192.58,-432.3"/>
</g>
<!-- NewAxiom -->
<g id="node4" class="node">
<title>NewAxiom</title>
<path fill="#161b22" stroke="#00ff00" d="M344.08,-232.24C344.08,-232.24 232.06,-232.24 232.06,-232.24 226.06,-232.24 218.2,-237.94 216.35,-243.65 216.35,-243.65 181.74,-350.03 181.74,-350.03 179.88,-355.73 176.17,-355.73 174.31,-350.03 174.31,-350.03 139.71,-243.65 139.71,-243.65 137.85,-237.94 129.99,-232.24 123.99,-232.24 123.99,-232.24 11.97,-232.24 11.97,-232.24 5.97,-232.24 4.83,-228.71 9.69,-225.19 9.69,-225.19 100.3,-159.44 100.3,-159.44 105.16,-155.91 108.16,-146.68 106.3,-140.98 106.3,-140.98 71.7,-34.6 71.7,-34.6 69.84,-28.89 72.84,-26.71 77.7,-30.23 77.7,-30.23 168.31,-95.99 168.31,-95.99 173.17,-99.51 182.88,-99.51 187.74,-95.99 187.74,-95.99 278.36,-30.23 278.36,-30.23 283.21,-26.71 286.21,-28.89 284.36,-34.6 284.36,-34.6 249.75,-140.98 249.75,-140.98 247.89,-146.68 250.89,-155.91 255.75,-159.44 255.75,-159.44 346.37,-225.19 346.37,-225.19 351.22,-228.71 350.08,-232.24 344.08,-232.24"/>
<text text-anchor="middle" x="178.03" y="-188.61" font-family="Times,serif" font-size="14.00" fill="#00f2ff">Suggested Meta&#45;Leap</text>
</g>
<!-- Synthesizer&#45;&gt;NewAxiom -->
<g id="edge3" class="edge">
<title>Synthesizer&#45;&gt;NewAxiom</title>
<path fill="none" stroke="#ff00ff" d="M178.03,-397.26C178.03,-390.38 178.03,-381.77 178.03,-372.01"/>
<polygon fill="#ff00ff" stroke="#ff00ff" points="178.03,-361.88 182.53,-371.88 178.03,-366.88 178.03,-371.88 178.03,-371.88 178.03,-371.88 178.03,-366.88 173.53,-371.88 178.03,-361.88 178.03,-361.88"/>
</g>
</g>
</svg>
