<?xml version="1.0" encoding="UTF-8" standalone="no"?>
<!DOCTYPE svg PUBLIC "-//W3C//DTD SVG 1.1//EN"
 "http://www.w3.org/Graphics/SVG/1.1/DTD/svg11.dtd">
<!-- Generated by graphviz version 2.43.0 (0)
 -->
<!-- Title: PropSemanticGit Pages: 1 -->
<svg width="263pt" height="302pt"
 viewBox="0.00 0.00 263.00 302.00" xmlns="http://www.w3.org/2000/svg" xmlns:xlink="http://www.w3.org/1999/xlink">
<g id="graph0" class="graph" transform="scale(1 1) rotate(0) translate(4 298)">
<title>PropSemanticGit</title>
<polygon fill="#0d1117" stroke="transparent" points="-4,4 -4,-298 259,-298 259,4 -4,4"/>
<text text-anchor="middle" x="127.5" y="-7.8" font-family="Helvetica,sans-Serif" font-size="14.00" fill="#00f2ff">P1.4: Semantic Git Hook Integration</text>
<!-- Git -->
<g id="node1" class="node">
<title>Git</title>
<polygon fill="#161b22" stroke="#00f2ff" points="150.5,-288 85.5,-288 85.5,-264 150.5,-264 162.5,-276 150.5,-288"/>
<text text-anchor="middle" x="124" y="-272.3" font-family="Times,serif" font-size="14.00" fill="#00f2ff">git commit</text>
</g>
<!-- Hook -->
<g id="node2" class="node">
<title>Hook</title>
<path fill="#161b22" stroke="#ffff00" d="M112.16,-219.05C112.16,-219.05 26.58,-204.95 26.58,-204.95 20.66,-203.98 20.66,-202.02 26.58,-201.05 26.58,-201.05 112.16,-186.95 112.16,-186.95 118.08,-185.98 129.92,-185.98 135.84,-186.95 135.84,-186.95 221.42,-201.05 221.42,-201.05 227.34,-202.02 227.34,-203.98 221.42,-204.95 221.42,-204.95 135.84,-219.05 135.84,-219.05 129.92,-220.02 118.08,-220.02 112.16,-219.05"/>
<text text-anchor="middle" x="124" y="-199.3" font-family="Times,serif" font-size="14.00" fill="#00f2ff">Pre&#45;Commit Hook</text>
</g>
<!-- Git&#45;&gt;Hook -->
<g id="edge1" class="edge">
<title>Git&#45;&gt;Hook</title>
<path fill="none" stroke="#ff00ff" d="M124,-257.81C124,-249.79 124,-240.05 124,-231.07"/>
<polygon fill="#ff00ff" stroke="#ff00ff" points="124,-221.03 128.5,-231.03 124,-226.03 124,-231.03 124,-231.03 124,-231.03 124,-226.03 119.5,-231.03 124,-221.03 124,-221.03"/>
</g>
<!-- SemCheck -->
<g id="node3" class="node">
<title>SemCheck</title>
<path fill="#161b22" stroke="#00f2ff" d="M172.5,-148C172.5,-148 75.5,-148 75.5,-148 69.5,-148 63.5,-142 63.5,-136 63.5,-136 63.5,-124 63.5,-124 63.5,-118 69.5,-112 75.5,-112 75.5,-112 172.5,-112 172.5,-112 178.5,-112 184.5,-118 184.5,-124 184.5,-124 184.5,-136 184.5,-136 184.5,-142 178.5,-148 172.5,-148"/>
<text text-anchor="middle" x="124" y="-126.3" font-family="Times,serif" font-size="14.00" fill="#00f2ff">semantic_check.py</text>
</g>
<!-- Hook&#45;&gt;SemCheck -->
<g id="edge2" class="edge">
<title>Hook&#45;&gt;SemCheck</title>
<path fill="none" stroke="#ff00ff" d="M124,-184.81C124,-176.79 124,-167.05 124,-158.07"/>
<polygon fill="#ff00ff" stroke="#ff00ff" points="124,-148.03 128.5,-158.03 124,-153.03 124,-158.03 124,-158.03 124,-158.03 124,-153.03 119.5,-158.03 124,-148.03 124,-148.03"/>
</g>
<!-- Pass -->
<g id="node4" class="node">
<title>Pass</title>
<path fill="#161b22" stroke="#00ff00" d="M104,-60C104,-60 12,-60 12,-60 6,-60 0,-54 0,-48 0,-48 0,-36 0,-36 0,-30 6,-24 12,-24 12,-24 104,-24 104,-24 110,-24 116,-30 116,-36 116,-36 116,-48 116,-48 116,-54 110,-60 104,-60"/>
<text text-anchor="middle" x="58" y="-38.3" font-family="Times,serif" font-size="14.00" fill="#00f2ff">Commit Accepted</text>
</g>
<!-- SemCheck&#45;&gt;Pass -->
<g id="edge3" class="edge">
<title>SemCheck&#45;&gt;Pass</title>
<path fill="none" stroke="#ff00ff" d="M105.32,-111.97C99.78,-106.49 93.88,-100.22 89,-94 82.95,-86.3 77.15,-77.34 72.23,-69.1"/>
<polygon fill="#ff00ff" stroke="#ff00ff" points="67.09,-60.2 75.99,-66.61 69.59,-64.53 72.09,-68.86 72.09,-68.86 72.09,-68.86 69.59,-64.53 68.2,-71.11 67.09,-60.2 67.09,-60.2"/>
<text text-anchor="middle" x="128.5" y="-82.8" font-family="Times,serif" font-size="14.00"> Align &gt; 80% </text>
</g>
<!-- Fail -->
<g id="node5" class="node">
<title>Fail</title>
<path fill="#161b22" stroke="#ff0000" d="M233.5,-61C233.5,-61 146.5,-61 146.5,-61 140.5,-61 134.5,-55 134.5,-49 134.5,-49 134.5,-35 134.5,-35 134.5,-29 140.5,-23 146.5,-23 146.5,-23 233.5,-23 233.5,-23 239.5,-23 245.5,-29 245.5,-35 245.5,-35 245.5,-49 245.5,-49 245.5,-55 239.5,-61 233.5,-61"/>
<text text-anchor="middle" x="190" y="-45.8" font-family="Times,serif" font-size="14.00" fill="#00f2ff">Commit Blocked</text>
<text text-anchor="middle" x="190" y="-30.8" font-family="Times,serif" font-size="14.00" fill="#00f2ff">(Drift Detected)</text>
</g>
<!-- SemCheck&#45;&gt;Fail -->
<g id="edge4" class="edge">
<title>SemCheck&#45;&gt;Fail</title>
<path fill="none" stroke="#ff00ff" d="M150.15,-111.65C156.57,-106.52 163.02,-100.51 168,-94 173.33,-87.03 177.65,-78.57 181.01,-70.56"/>
<polygon fill="#ff00ff" stroke="#ff00ff" points="184.62,-61.15 185.24,-72.1 182.83,-65.82 181.04,-70.48 181.04,-70.48 181.04,-70.48 182.83,-65.82 176.84,-68.87 184.62,-61.15 184.62,-61.15"/>
<text text-anchor="middle" x="215.5" y="-82.8" font-family="Times,serif" font-size="14.00"> Align &lt; 80% </text>
</g>
</g>
</svg>
