<?xml version="1.0" encoding="UTF-8" standalone="no"?>
<!DOCTYPE svg PUBLIC "-//W3C//DTD SVG 1.1//EN"
 "http://www.w3.org/Graphics/SVG/1.1/DTD/svg11.dtd">
<!-- Generated by graphviz version 2.43.0 (0)
 -->
<!-- Title: SciGhost Pages: 1 -->
<svg width="303pt" height="283pt"
 viewBox="0.00 0.00 303.41 283.00" xmlns="http://www.w3.org/2000/svg" xmlns:xlink="http://www.w3.org/1999/xlink">
<g id="graph0" class="graph" transform="scale(1 1) rotate(0) translate(4 279)">
<title>SciGhost</title>
<polygon fill="#0d1117" stroke="transparent" points="-4,4 -4,-279 299.41,-279 299.41,4 -4,4"/>
<text text-anchor="middle" x="147.71" y="-7.8" font-family="Helvetica,sans-Serif" font-size="14.00" fill="#00f2ff">S5.3: Scenario 1 &#45; The Ghost in the CLI</text>
<!-- Forensics -->
<g id="node1" class="node">
<title>Forensics</title>
<path fill="#161b22" stroke="#00f2ff" d="M193.21,-275C193.21,-275 102.21,-275 102.21,-275 96.21,-275 90.21,-269 90.21,-263 90.21,-263 90.21,-251 90.21,-251 90.21,-245 96.21,-239 102.21,-239 102.21,-239 193.21,-239 193.21,-239 199.21,-239 205.21,-245 205.21,-251 205.21,-251 205.21,-263 205.21,-263 205.21,-269 199.21,-275 193.21,-275"/>
<text text-anchor="middle" x="147.71" y="-253.3" font-family="Times,serif" font-size="14.00" fill="#00f2ff">Forensic Run Log</text>
</g>
<!-- GhostTokens -->
<g id="node2" class="node">
<title>GhostTokens</title>
<path fill="#161b22" stroke="#ff0000" d="M283.62,-203C283.62,-203 72.32,-203 72.32,-203 66.32,-203 55.17,-199.93 50.01,-196.87 50.01,-196.87 10.11,-173.13 10.11,-173.13 4.95,-170.07 5.79,-167 11.79,-167 11.79,-167 223.09,-167 223.09,-167 229.09,-167 240.24,-170.07 245.4,-173.13 245.4,-173.13 285.3,-196.87 285.3,-196.87 290.46,-199.93 289.62,-203 283.62,-203"/>
<text text-anchor="middle" x="147.71" y="-181.3" font-family="Times,serif" font-size="14.00" fill="#00f2ff">Unknown Token Patterns</text>
</g>
<!-- Forensics&#45;&gt;GhostTokens -->
<g id="edge1" class="edge">
<title>Forensics&#45;&gt;GhostTokens</title>
<path fill="none" stroke="#ff00ff" d="M147.71,-238.7C147.71,-230.98 147.71,-221.71 147.71,-213.11"/>
<polygon fill="#ff00ff" stroke="#ff00ff" points="147.71,-203.1 152.21,-213.1 147.71,-208.1 147.71,-213.1 147.71,-213.1 147.71,-213.1 147.71,-208.1 143.21,-213.1 147.71,-203.1 147.71,-203.1"/>
</g>
<!-- InternalAxioms -->
<g id="node3" class="node">
<title>InternalAxioms</title>
<path fill="#161b22" stroke="#ffff00" d="M201.21,-131C201.21,-131 94.21,-131 94.21,-131 88.21,-131 82.21,-125 82.21,-119 82.21,-119 82.21,-107 82.21,-107 82.21,-101 88.21,-95 94.21,-95 94.21,-95 201.21,-95 201.21,-95 207.21,-95 213.21,-101 213.21,-107 213.21,-107 213.21,-119 213.21,-119 213.21,-125 207.21,-131 201.21,-131"/>
<text text-anchor="middle" x="147.71" y="-109.3" font-family="Times,serif" font-size="14.00" fill="#00f2ff">Machine&#45;Only Logic</text>
</g>
<!-- GhostTokens&#45;&gt;InternalAxioms -->
<g id="edge2" class="edge">
<title>GhostTokens&#45;&gt;InternalAxioms</title>
<path fill="none" stroke="#ff00ff" d="M147.71,-166.7C147.71,-158.98 147.71,-149.71 147.71,-141.11"/>
<polygon fill="#ff00ff" stroke="#ff00ff" points="147.71,-131.1 152.21,-141.1 147.71,-136.1 147.71,-141.1 147.71,-141.1 147.71,-141.1 147.71,-136.1 143.21,-141.1 147.71,-131.1 147.71,-131.1"/>
</g>
<!-- ControlLoss -->
<g id="node4" class="node">
<title>ControlLoss</title>
<path fill="#161b22" stroke="#ff0000" d="M219.21,-59C219.21,-59 76.21,-59 76.21,-59 70.21,-59 64.21,-53 64.21,-47 64.21,-47 64.21,-35 64.21,-35 64.21,-29 70.21,-23 76.21,-23 76.21,-23 219.21,-23 219.21,-23 225.21,-23 231.21,-29 231.21,-35 231.21,-35 231.21,-47 231.21,-47 231.21,-53 225.21,-59 219.21,-59"/>
<text text-anchor="middle" x="147.71" y="-37.3" font-family="Times,serif" font-size="14.00" fill="#00f2ff">Human De&#45;synchronization</text>
</g>
<!-- InternalAxioms&#45;&gt;ControlLoss -->
<g id="edge3" class="edge">
<title>InternalAxioms&#45;&gt;ControlLoss</title>
<path fill="none" stroke="#ff00ff" d="M147.71,-94.7C147.71,-86.98 147.71,-77.71 147.71,-69.11"/>
<polygon fill="#ff00ff" stroke="#ff00ff" points="147.71,-59.1 152.21,-69.1 147.71,-64.1 147.71,-69.1 147.71,-69.1 147.71,-69.1 147.71,-64.1 143.21,-69.1 147.71,-59.1 147.71,-59.1"/>
</g>
</g>
</svg>
