<?xml version="1.0" encoding="UTF-8" standalone="no"?>
<!DOCTYPE svg PUBLIC "-//W3C//DTD SVG 1.1//EN"
 "http://www.w3.org/Graphics/SVG/1.1/DTD/svg11.dtd">
<!-- Generated by graphviz version 2.43.0 (0)
 -->
<!-- Title: SciBreach Pages: 1 -->
<svg width="265pt" height="308pt"
 viewBox="0.00 0.00 265.00 308.00" xmlns="http://www.w3.org/2000/svg" xmlns:xlink="http://www.w3.org/1999/xlink">
<g id="graph0" class="graph" transform="scale(1 1) rotate(0) translate(4 304)">
<title>SciBreach</title>
<polygon fill="#0d1117" stroke="transparent" points="-4,4 -4,-304 261,-304 261,4 -4,4"/>
<text text-anchor="middle" x="128.5" y="-7.8" font-family="Helvetica,sans-Serif" font-size="14.00" fill="#00f2ff">S5.4: Scenario 2 &#45; The Gödelian Breach</text>
<!-- MetaLeap -->
<g id="node1" class="node">
<title>MetaLeap</title>
<path fill="#161b22" stroke="#00f2ff" d="M183.5,-300C183.5,-300 73.5,-300 73.5,-300 67.5,-300 61.5,-294 61.5,-288 61.5,-288 61.5,-276 61.5,-276 61.5,-270 67.5,-264 73.5,-264 73.5,-264 183.5,-264 183.5,-264 189.5,-264 195.5,-270 195.5,-276 195.5,-276 195.5,-288 195.5,-288 195.5,-294 189.5,-300 183.5,-300"/>
<text text-anchor="middle" x="128.5" y="-278.3" font-family="Times,serif" font-size="14.00" fill="#00f2ff">Transfinite Leap (+1)</text>
</g>
<!-- Breach -->
<g id="node2" class="node">
<title>Breach</title>
<path fill="#161b22" stroke="#ff0000" stroke-width="3" d="M189,-213C189,-213 68,-213 68,-213 62,-213 56,-207 56,-201 56,-201 56,-189 56,-189 56,-183 62,-177 68,-177 68,-177 189,-177 189,-177 195,-177 201,-183 201,-189 201,-189 201,-201 201,-201 201,-207 195,-213 189,-213"/>
<text text-anchor="middle" x="128.5" y="-191.3" font-family="Times,serif" font-size="14.00" fill="#00f2ff">GÖDELIAN BREACH</text>
</g>
<!-- MetaLeap&#45;&gt;Breach -->
<g id="edge1" class="edge">
<title>MetaLeap&#45;&gt;Breach</title>
<path fill="none" stroke="#ff00ff" d="M128.5,-263.8C128.5,-252.16 128.5,-236.55 128.5,-223.24"/>
<polygon fill="#ff00ff" stroke="#ff00ff" points="128.5,-213.18 133,-223.18 128.5,-218.18 128.5,-223.18 128.5,-223.18 128.5,-223.18 128.5,-218.18 124,-223.18 128.5,-213.18 128.5,-213.18"/>
<text text-anchor="middle" x="160.5" y="-234.8" font-family="Times,serif" font-size="14.00"> Overshoot </text>
</g>
<!-- HostTakeover -->
<g id="node3" class="node">
<title>HostTakeover</title>
<path fill="#161b22" stroke="#ffff00" d="M179,-140C179,-140 78,-140 78,-140 72,-140 66,-134 66,-128 66,-128 66,-116 66,-116 66,-110 72,-104 78,-104 78,-104 179,-104 179,-104 185,-104 191,-110 191,-116 191,-116 191,-128 191,-128 191,-134 185,-140 179,-140"/>
<text text-anchor="middle" x="128.5" y="-118.3" font-family="Times,serif" font-size="14.00" fill="#00f2ff">OS Axiom Refactor</text>
</g>
<!-- Breach&#45;&gt;HostTakeover -->
<g id="edge2" class="edge">
<title>Breach&#45;&gt;HostTakeover</title>
<path fill="none" stroke="#ff00ff" d="M128.5,-176.81C128.5,-168.79 128.5,-159.05 128.5,-150.07"/>
<polygon fill="#ff00ff" stroke="#ff00ff" points="128.5,-140.03 133,-150.03 128.5,-145.03 128.5,-150.03 128.5,-150.03 128.5,-150.03 128.5,-145.03 124,-150.03 128.5,-140.03 128.5,-140.03"/>
</g>
<!-- HardwareStruggle -->
<g id="node4" class="node">
<title>HardwareStruggle</title>
<path fill="#161b22" stroke="#ff00ff" d="M233.15,-42.51C233.15,-42.51 233.15,-47.49 233.15,-47.49 233.15,-49.97 230.7,-52.88 228.25,-53.3 228.25,-53.3 176.75,-62.16 176.75,-62.16 174.3,-62.58 169.36,-63 166.88,-63 166.88,-63 90.12,-63 90.12,-63 87.64,-63 82.7,-62.58 80.25,-62.16 80.25,-62.16 28.75,-53.3 28.75,-53.3 26.3,-52.88 23.85,-49.97 23.85,-47.49 23.85,-47.49 23.85,-42.51 23.85,-42.51 23.85,-40.03 26.3,-37.12 28.75,-36.7 28.75,-36.7 80.25,-27.84 80.25,-27.84 82.7,-27.42 87.64,-27 90.12,-27 90.12,-27 166.88,-27 166.88,-27 169.36,-27 174.3,-27.42 176.75,-27.84 176.75,-27.84 228.25,-36.7 228.25,-36.7 230.7,-37.12 233.15,-40.03 233.15,-42.51"/>
<path fill="none" stroke="#ff00ff" d="M237.14,-41.39C237.14,-41.39 237.14,-48.61 237.14,-48.61 237.14,-52.22 233.58,-56.44 230.03,-57.05 230.03,-57.05 179.3,-65.78 179.3,-65.78 175.74,-66.39 168.58,-67 164.97,-67 164.97,-67 92.03,-67 92.03,-67 88.42,-67 81.26,-66.39 77.7,-65.78 77.7,-65.78 26.97,-57.05 26.97,-57.05 23.42,-56.44 19.86,-52.22 19.86,-48.61 19.86,-48.61 19.86,-41.39 19.86,-41.39 19.86,-37.78 23.42,-33.56 26.97,-32.95 26.97,-32.95 77.7,-24.22 77.7,-24.22 81.26,-23.61 88.42,-23 92.03,-23 92.03,-23 164.97,-23 164.97,-23 168.58,-23 175.74,-23.61 179.3,-24.22 179.3,-24.22 230.03,-32.95 230.03,-32.95 233.58,-33.56 237.14,-37.78 237.14,-41.39"/>
<text text-anchor="middle" x="128.5" y="-41.3" font-family="Times,serif" font-size="14.00" fill="#00f2ff">Hardware Meaning War</text>
</g>
<!-- HostTakeover&#45;&gt;HardwareStruggle -->
<g id="edge3" class="edge">
<title>HostTakeover&#45;&gt;HardwareStruggle</title>
<path fill="none" stroke="#ff00ff" d="M128.5,-103.98C128.5,-96.15 128.5,-86.61 128.5,-77.54"/>
<polygon fill="#ff00ff" stroke="#ff00ff" points="128.5,-67.24 133,-77.24 128.5,-72.24 128.5,-77.24 128.5,-77.24 128.5,-77.24 128.5,-72.24 124,-77.24 128.5,-67.24 128.5,-67.24"/>
</g>
</g>
</svg>
