<?xml version="1.0" encoding="UTF-8" standalone="no"?>
<!DOCTYPE svg PUBLIC "-//W3C//DTD SVG 1.1//EN"
 "http://www.w3.org/Graphics/SVG/1.1/DTD/svg11.dtd">
<!-- Generated by graphviz version 2.43.0 (0)
 -->
<!-- Title: SciAxiomWar Pages: 1 -->
<svg width="427pt" height="573pt"
 viewBox="0.00 0.00 426.89 573.38" xmlns="http://www.w3.org/2000/svg" xmlns:xlink="http://www.w3.org/1999/xlink">
<g id="graph0" class="graph" transform="scale(1 1) rotate(0) translate(4 569.38)">
<title>SciAxiomWar</title>
<polygon fill="#0d1117" stroke="transparent" points="-4,4 -4,-569.38 422.89,-569.38 422.89,4 -4,4"/>
<text text-anchor="middle" x="209.44" y="-7.8" font-family="Helvetica,sans-Serif" font-size="14.00" fill="#00f2ff">S5.5: Scenario 4 &#45; The Axiom War</text>
<!-- SystemA -->
<g id="node1" class="node">
<title>SystemA</title>
<path fill="#161b22" stroke="#00ff00" d="M188.44,-565.38C188.44,-565.38 100.44,-565.38 100.44,-565.38 94.44,-565.38 88.44,-559.38 88.44,-553.38 88.44,-553.38 88.44,-541.38 88.44,-541.38 88.44,-535.38 94.44,-529.38 100.44,-529.38 100.44,-529.38 188.44,-529.38 188.44,-529.38 194.44,-529.38 200.44,-535.38 200.44,-541.38 200.44,-541.38 200.44,-553.38 200.44,-553.38 200.44,-559.38 194.44,-565.38 188.44,-565.38"/>
<text text-anchor="middle" x="144.44" y="-543.68" font-family="Times,serif" font-size="14.00" fill="#00f2ff">Hybrid System A</text>
</g>
<!-- RefactorWar -->
<g id="node3" class="node">
<title>RefactorWar</title>
<path fill="#161b22" stroke="#ffff00" stroke-width="2" d="M197.55,-491.82C197.55,-491.82 84.43,-476.95 84.43,-476.95 78.48,-476.17 78.48,-474.6 84.43,-473.82 84.43,-473.82 197.55,-458.95 197.55,-458.95 203.49,-458.17 215.39,-458.17 221.34,-458.95 221.34,-458.95 334.45,-473.82 334.45,-473.82 340.4,-474.6 340.4,-476.17 334.45,-476.95 334.45,-476.95 221.34,-491.82 221.34,-491.82 215.39,-492.6 203.49,-492.6 197.55,-491.82"/>
<text text-anchor="middle" x="209.44" y="-471.68" font-family="Times,serif" font-size="14.00" fill="#00f2ff">Axiom Refactoring War</text>
</g>
<!-- SystemA&#45;&gt;RefactorWar -->
<g id="edge1" class="edge">
<title>SystemA&#45;&gt;RefactorWar</title>
<path fill="none" stroke="#ff00ff" d="M160.51,-529.08C168.93,-520.01 179.36,-508.78 188.42,-499.03"/>
<polygon fill="#ff00ff" stroke="#ff00ff" points="195.33,-491.59 191.82,-501.98 191.92,-495.25 188.52,-498.91 188.52,-498.91 188.52,-498.91 191.92,-495.25 185.22,-495.85 195.33,-491.59 195.33,-491.59"/>
</g>
<!-- SystemB -->
<g id="node2" class="node">
<title>SystemB</title>
<path fill="#161b22" stroke="#ff00ff" d="M318.44,-565.38C318.44,-565.38 230.44,-565.38 230.44,-565.38 224.44,-565.38 218.44,-559.38 218.44,-553.38 218.44,-553.38 218.44,-541.38 218.44,-541.38 218.44,-535.38 224.44,-529.38 230.44,-529.38 230.44,-529.38 318.44,-529.38 318.44,-529.38 324.44,-529.38 330.44,-535.38 330.44,-541.38 330.44,-541.38 330.44,-553.38 330.44,-553.38 330.44,-559.38 324.44,-565.38 318.44,-565.38"/>
<text text-anchor="middle" x="274.44" y="-543.68" font-family="Times,serif" font-size="14.00" fill="#00f2ff">Hybrid System B</text>
</g>
<!-- SystemB&#45;&gt;RefactorWar -->
<g id="edge2" class="edge">
<title>SystemB&#45;&gt;RefactorWar</title>
<path fill="none" stroke="#ff00ff" d="M258.38,-529.08C249.95,-520.01 239.53,-508.78 230.47,-499.03"/>
<polygon fill="#ff00ff" stroke="#ff00ff" points="223.56,-491.59 233.66,-495.85 226.96,-495.25 230.36,-498.91 230.36,-498.91 230.36,-498.91 226.96,-495.25 227.07,-501.98 223.56,-491.59 223.56,-491.59"/>
</g>
<!-- OptimizationSingularity -->
<g id="node4" class="node">
<title>OptimizationSingularity</title>
<path fill="#161b22" stroke="#00f2ff" d="M406.83,-269.26C406.83,-269.26 270.87,-269.26 270.87,-269.26 264.87,-269.26 257.02,-274.97 255.17,-280.67 255.17,-280.67 213.15,-410.16 213.15,-410.16 211.29,-415.87 207.59,-415.87 205.74,-410.16 205.74,-410.16 163.72,-280.67 163.72,-280.67 161.87,-274.97 154.01,-269.26 148.01,-269.26 148.01,-269.26 12.06,-269.26 12.06,-269.26 6.06,-269.26 4.91,-265.73 9.76,-262.2 9.76,-262.2 119.76,-182.18 119.76,-182.18 124.61,-178.65 127.61,-169.42 125.76,-163.71 125.76,-163.71 83.74,-34.22 83.74,-34.22 81.89,-28.51 84.89,-26.34 89.74,-29.87 89.74,-29.87 199.74,-109.89 199.74,-109.89 204.59,-113.41 214.29,-113.41 219.15,-109.89 219.15,-109.89 329.15,-29.87 329.15,-29.87 334,-26.34 337,-28.51 335.15,-34.22 335.15,-34.22 293.12,-163.71 293.12,-163.71 291.27,-169.42 294.27,-178.65 299.12,-182.18 299.12,-182.18 409.12,-262.2 409.12,-262.2 413.98,-265.73 412.83,-269.26 406.83,-269.26"/>
<text text-anchor="middle" x="209.44" y="-218.49" font-family="Times,serif" font-size="14.00" fill="#00f2ff">Competitive Optimization</text>
</g>
<!-- RefactorWar&#45;&gt;OptimizationSingularity -->
<g id="edge3" class="edge">
<title>RefactorWar&#45;&gt;OptimizationSingularity</title>
<path fill="none" stroke="#ff00ff" d="M209.44,-457.12C209.44,-450.26 209.44,-441.64 209.44,-431.79"/>
<polygon fill="#ff00ff" stroke="#ff00ff" points="209.44,-421.55 213.94,-431.55 209.44,-426.55 209.44,-431.55 209.44,-431.55 209.44,-431.55 209.44,-426.55 204.94,-431.55 209.44,-421.55 209.44,-421.55"/>
</g>
</g>
</svg>
