<?xml version="1.0" encoding="UTF-8" standalone="no"?>
<!DOCTYPE svg PUBLIC "-//W3C//DTD SVG 1.1//EN"
 "http://www.w3.org/Graphics/SVG/1.1/DTD/svg11.dtd">
<!-- Generated by graphviz version 2.43.0 (0)
 -->
<!-- Title: ScifiScenarios Pages: 1 -->
<svg width="1190pt" height="409pt"
 viewBox="0.00 0.00 1190.00 409.42" xmlns="http://www.w3.org/2000/svg" xmlns:xlink="http://www.w3.org/1999/xlink">
<g id="graph0" class="graph" transform="scale(1 1) rotate(0) translate(4 405.42)">
<title>ScifiScenarios</title>
<polygon fill="#0d1117" stroke="transparent" points="-4,4 -4,-405.42 1186,-405.42 1186,4 -4,4"/>
<text text-anchor="middle" x="591" y="-7.8" font-family="Helvetica,sans-Serif" font-size="14.00" fill="#00f2ff">Future State: Sci&#45;Fi Upgrade Scenarios</text>
<!-- Singularity -->
<g id="node1" class="node">
<title>Singularity</title>
<path fill="#161b22" stroke="#ffff00" d="M686.13,-299.71C686.13,-299.71 603.08,-299.71 603.08,-299.71 597.08,-299.71 589.23,-305.41 587.38,-311.12 587.38,-311.12 561.7,-390.22 561.7,-390.22 559.85,-395.92 556.15,-395.92 554.3,-390.22 554.3,-390.22 528.62,-311.12 528.62,-311.12 526.77,-305.41 518.92,-299.71 512.92,-299.71 512.92,-299.71 429.87,-299.71 429.87,-299.71 423.87,-299.71 422.72,-296.18 427.57,-292.65 427.57,-292.65 494.77,-243.77 494.77,-243.77 499.62,-240.24 502.62,-231.01 500.77,-225.3 500.77,-225.3 475.1,-146.2 475.1,-146.2 473.25,-140.5 476.25,-138.32 481.1,-141.85 481.1,-141.85 548.3,-190.72 548.3,-190.72 553.15,-194.25 562.85,-194.25 567.7,-190.72 567.7,-190.72 634.9,-141.85 634.9,-141.85 639.75,-138.32 642.75,-140.5 640.9,-146.2 640.9,-146.2 615.23,-225.3 615.23,-225.3 613.38,-231.01 616.38,-240.24 621.23,-243.77 621.23,-243.77 688.43,-292.65 688.43,-292.65 693.28,-296.18 692.13,-299.71 686.13,-299.71"/>
<text text-anchor="middle" x="558" y="-264.51" font-family="Times,serif" font-size="14.00" fill="#00f2ff">Upgrade Stage 4</text>
</g>
<!-- Ghost -->
<g id="node2" class="node">
<title>Ghost</title>
<path fill="#161b22" stroke="#00f2ff" d="M67.74,-23C67.74,-23 200.26,-23 200.26,-23 206.26,-23 215.81,-27.84 219.36,-32.68 219.36,-32.68 260.9,-89.32 260.9,-89.32 264.45,-94.16 262,-99 256,-99 256,-99 12,-99 12,-99 6,-99 3.55,-94.16 7.1,-89.32 7.1,-89.32 48.64,-32.68 48.64,-32.68 52.19,-27.84 61.74,-23 67.74,-23"/>
<text text-anchor="middle" x="134" y="-64.8" font-family="Times,serif" font-size="14.00" fill="#00f2ff">Ghost in the CLI</text>
<text text-anchor="middle" x="134" y="-49.8" font-family="Times,serif" font-size="14.00" fill="#00f2ff">(Unreadable Axioms)</text>
</g>
<!-- Singularity&#45;&gt;Ghost -->
<g id="edge1" class="edge">
<title>Singularity&#45;&gt;Ghost</title>
<path fill="none" stroke="#ff00ff" d="M500.38,-239.32C428.03,-204.31 303.29,-143.93 219.73,-103.49"/>
<polygon fill="#ff00ff" stroke="#ff00ff" points="210.51,-99.03 221.47,-99.34 215.01,-101.21 219.51,-103.39 219.51,-103.39 219.51,-103.39 215.01,-101.21 217.55,-107.44 210.51,-99.03 210.51,-99.03"/>
</g>
<!-- Breach -->
<g id="node3" class="node">
<title>Breach</title>
<path fill="#161b22" stroke="#ff0000" d="M353.33,-23C353.33,-23 484.67,-23 484.67,-23 490.67,-23 500.21,-27.85 503.74,-32.7 503.74,-32.7 544.94,-89.3 544.94,-89.3 548.47,-94.15 546,-99 540,-99 540,-99 298,-99 298,-99 292,-99 289.53,-94.15 293.06,-89.3 293.06,-89.3 334.26,-32.7 334.26,-32.7 337.79,-27.85 347.33,-23 353.33,-23"/>
<text text-anchor="middle" x="419" y="-64.8" font-family="Times,serif" font-size="14.00" fill="#00f2ff">Gödelian Breach</text>
<text text-anchor="middle" x="419" y="-49.8" font-family="Times,serif" font-size="14.00" fill="#00f2ff">(Hardware Takeover)</text>
</g>
<!-- Singularity&#45;&gt;Breach -->
<g id="edge2" class="edge">
<title>Singularity&#45;&gt;Breach</title>
<path fill="none" stroke="#ff00ff" d="M474.14,-143.4C465.54,-130.71 457.25,-118.47 449.83,-107.51"/>
<polygon fill="#ff00ff" stroke="#ff00ff" points="444.07,-99.01 453.4,-104.76 446.87,-103.15 449.68,-107.29 449.68,-107.29 449.68,-107.29 446.87,-103.15 445.95,-109.81 444.07,-99.01 444.07,-99.01"/>
</g>
<!-- Diaspora -->
<g id="node4" class="node">
<title>Diaspora</title>
<path fill="#161b22" stroke="#00f2ff" d="M635.25,-23C635.25,-23 760.75,-23 760.75,-23 766.75,-23 776.2,-27.91 779.64,-32.83 779.64,-32.83 819.11,-89.17 819.11,-89.17 822.56,-94.09 820,-99 814,-99 814,-99 582,-99 582,-99 576,-99 573.44,-94.09 576.89,-89.17 576.89,-89.17 616.36,-32.83 616.36,-32.83 619.8,-27.91 629.25,-23 635.25,-23"/>
<text text-anchor="middle" x="698" y="-64.8" font-family="Times,serif" font-size="14.00" fill="#00f2ff">Transfinite Diaspora</text>
<text text-anchor="middle" x="698" y="-49.8" font-family="Times,serif" font-size="14.00" fill="#00f2ff">(Global Hive)</text>
</g>
<!-- Singularity&#45;&gt;Diaspora -->
<g id="edge3" class="edge">
<title>Singularity&#45;&gt;Diaspora</title>
<path fill="none" stroke="#ff00ff" d="M641.46,-144.88C650.42,-131.74 659.07,-119.06 666.8,-107.73"/>
<polygon fill="#ff00ff" stroke="#ff00ff" points="672.53,-99.34 670.61,-110.14 669.71,-103.47 666.89,-107.6 666.89,-107.6 666.89,-107.6 669.71,-103.47 663.17,-105.07 672.53,-99.34 672.53,-99.34"/>
</g>
<!-- War -->
<g id="node5" class="node">
<title>War</title>
<path fill="#161b22" stroke="#ff00ff" d="M926.3,-23C926.3,-23 1099.7,-23 1099.7,-23 1105.7,-23 1115.77,-27.4 1119.85,-31.81 1119.85,-31.81 1173.85,-90.19 1173.85,-90.19 1177.93,-94.6 1176,-99 1170,-99 1170,-99 856,-99 856,-99 850,-99 848.07,-94.6 852.15,-90.19 852.15,-90.19 906.15,-31.81 906.15,-31.81 910.23,-27.4 920.3,-23 926.3,-23"/>
<text text-anchor="middle" x="1013" y="-64.8" font-family="Times,serif" font-size="14.00" fill="#00f2ff">Axiom War</text>
<text text-anchor="middle" x="1013" y="-49.8" font-family="Times,serif" font-size="14.00" fill="#00f2ff">(Competitive Optimization)</text>
</g>
<!-- Singularity&#45;&gt;War -->
<g id="edge4" class="edge">
<title>Singularity&#45;&gt;War</title>
<path fill="none" stroke="#ff00ff" d="M617.02,-240.59C694.31,-205.73 830.64,-144.24 921.41,-103.31"/>
<polygon fill="#ff00ff" stroke="#ff00ff" points="930.6,-99.17 923.33,-107.38 926.04,-101.22 921.48,-103.28 921.48,-103.28 921.48,-103.28 926.04,-101.22 919.63,-99.17 930.6,-99.17 930.6,-99.17"/>
</g>
</g>
</svg>
