<?xml version="1.0" encoding="UTF-8" standalone="no"?>
<!DOCTYPE svg PUBLIC "-//W3C//DTD SVG 1.1//EN"
 "http://www.w3.org/Graphics/SVG/1.1/DTD/svg11.dtd">
<!-- Generated by graphviz version 2.43.0 (0)
 -->
<!-- Title: SelfCorrectionLoop Pages: 1 -->
<svg width="486pt" height="750pt"
 viewBox="0.00 0.00 486.49 750.08" xmlns="http://www.w3.org/2000/svg" xmlns:xlink="http://www.w3.org/1999/xlink">
<g id="graph0" class="graph" transform="scale(1 1) rotate(0) translate(4 746.08)">
<title>SelfCorrectionLoop</title>
<polygon fill="#0d1117" stroke="transparent" points="-4,4 -4,-746.08 482.49,-746.08 482.49,4 -4,4"/>
<text text-anchor="middle" x="239.25" y="-7.8" font-family="Helvetica,sans-Serif" font-size="14.00" fill="#00f2ff">T12.1: The Oracle Self&#45;Correction Loop</text>
<!-- Start -->
<g id="node1" class="node">
<title>Start</title>
<ellipse fill="#161b22" stroke="#00ff00" cx="285.49" cy="-693.98" rx="48.19" ry="48.19"/>
<text text-anchor="middle" x="285.49" y="-690.28" font-family="Times,serif" font-size="14.00" fill="#00f2ff">Start Loop</text>
</g>
<!-- Exec -->
<g id="node2" class="node">
<title>Exec</title>
<path fill="#161b22" stroke="#00f2ff" d="M330.99,-608.89C330.99,-608.89 239.99,-608.89 239.99,-608.89 233.99,-608.89 227.99,-602.89 227.99,-596.89 227.99,-596.89 227.99,-582.89 227.99,-582.89 227.99,-576.89 233.99,-570.89 239.99,-570.89 239.99,-570.89 330.99,-570.89 330.99,-570.89 336.99,-570.89 342.99,-576.89 342.99,-582.89 342.99,-582.89 342.99,-596.89 342.99,-596.89 342.99,-602.89 336.99,-608.89 330.99,-608.89"/>
<text text-anchor="middle" x="285.49" y="-593.69" font-family="Times,serif" font-size="14.00" fill="#00f2ff">Formal Execution</text>
<text text-anchor="middle" x="285.49" y="-578.69" font-family="Times,serif" font-size="14.00" fill="#00f2ff">(Inference)</text>
</g>
<!-- Start&#45;&gt;Exec -->
<g id="edge1" class="edge">
<title>Start&#45;&gt;Exec</title>
<path fill="none" stroke="#ff00ff" d="M285.49,-645.82C285.49,-636.81 285.49,-627.64 285.49,-619.44"/>
<polygon fill="#ff00ff" stroke="#ff00ff" points="285.49,-609.31 289.99,-619.31 285.49,-614.31 285.49,-619.31 285.49,-619.31 285.49,-619.31 285.49,-614.31 280.99,-619.31 285.49,-609.31 285.49,-609.31"/>
</g>
<!-- Audit -->
<g id="node3" class="node">
<title>Audit</title>
<path fill="#161b22" stroke="#ffff00" d="M283.99,-533.89C283.99,-533.89 192.99,-533.89 192.99,-533.89 186.99,-533.89 180.99,-527.89 180.99,-521.89 180.99,-521.89 180.99,-507.89 180.99,-507.89 180.99,-501.89 186.99,-495.89 192.99,-495.89 192.99,-495.89 283.99,-495.89 283.99,-495.89 289.99,-495.89 295.99,-501.89 295.99,-507.89 295.99,-507.89 295.99,-521.89 295.99,-521.89 295.99,-527.89 289.99,-533.89 283.99,-533.89"/>
<text text-anchor="middle" x="238.49" y="-518.69" font-family="Times,serif" font-size="14.00" fill="#00f2ff">Complexity Audit</text>
<text text-anchor="middle" x="238.49" y="-503.69" font-family="Times,serif" font-size="14.00" fill="#00f2ff">(Wall Detection)</text>
</g>
<!-- Exec&#45;&gt;Audit -->
<g id="edge2" class="edge">
<title>Exec&#45;&gt;Audit</title>
<path fill="none" stroke="#ff00ff" d="M273.88,-570.84C268.4,-562.33 261.75,-552.01 255.7,-542.61"/>
<polygon fill="#ff00ff" stroke="#ff00ff" points="250.14,-533.98 259.34,-539.95 252.85,-538.18 255.56,-542.39 255.56,-542.39 255.56,-542.39 252.85,-538.18 251.77,-544.82 250.14,-533.98 250.14,-533.98"/>
</g>
<!-- Alignment -->
<g id="node4" class="node">
<title>Alignment</title>
<path fill="#161b22" stroke="#ffff00" d="M269.99,-458.89C269.99,-458.89 164.99,-458.89 164.99,-458.89 158.99,-458.89 152.99,-452.89 152.99,-446.89 152.99,-446.89 152.99,-432.89 152.99,-432.89 152.99,-426.89 158.99,-420.89 164.99,-420.89 164.99,-420.89 269.99,-420.89 269.99,-420.89 275.99,-420.89 281.99,-426.89 281.99,-432.89 281.99,-432.89 281.99,-446.89 281.99,-446.89 281.99,-452.89 275.99,-458.89 269.99,-458.89"/>
<text text-anchor="middle" x="217.49" y="-443.69" font-family="Times,serif" font-size="14.00" fill="#00f2ff">Semantic Alignment</text>
<text text-anchor="middle" x="217.49" y="-428.69" font-family="Times,serif" font-size="14.00" fill="#00f2ff">(Drift Check)</text>
</g>
<!-- Audit&#45;&gt;Alignment -->
<g id="edge3" class="edge">
<title>Audit&#45;&gt;Alignment</title>
<path fill="none" stroke="#ff00ff" d="M233.3,-495.84C230.96,-487.68 228.13,-477.85 225.52,-468.78"/>
<polygon fill="#ff00ff" stroke="#ff00ff" points="222.7,-458.98 229.79,-467.35 224.08,-463.78 225.46,-468.59 225.46,-468.59 225.46,-468.59 224.08,-463.78 221.14,-469.83 222.7,-458.98 222.7,-458.98"/>
</g>
<!-- Decision -->
<g id="node5" class="node">
<title>Decision</title>
<path fill="#161b22" stroke="#00ff00" d="M176.65,-381.99C176.65,-381.99 88.07,-367.79 88.07,-367.79 82.14,-366.84 82.14,-364.94 88.07,-363.99 88.07,-363.99 176.65,-349.79 176.65,-349.79 182.57,-348.84 194.42,-348.84 200.34,-349.79 200.34,-349.79 288.92,-363.99 288.92,-363.99 294.84,-364.94 294.84,-366.84 288.92,-367.79 288.92,-367.79 200.34,-381.99 200.34,-381.99 194.42,-382.94 182.57,-382.94 176.65,-381.99"/>
<text text-anchor="middle" x="188.49" y="-362.19" font-family="Times,serif" font-size="14.00" fill="#00f2ff">Alignment &gt; 80%?</text>
</g>
<!-- Alignment&#45;&gt;Decision -->
<g id="edge4" class="edge">
<title>Alignment&#45;&gt;Decision</title>
<path fill="none" stroke="#ff00ff" d="M210.18,-420.72C206.78,-412.28 202.67,-402.08 198.95,-392.85"/>
<polygon fill="#ff00ff" stroke="#ff00ff" points="195.12,-383.33 203.03,-390.92 196.98,-387.97 198.85,-392.6 198.85,-392.6 198.85,-392.6 196.98,-387.97 194.68,-394.29 195.12,-383.33 195.12,-383.33"/>
</g>
<!-- AxiomShift -->
<g id="node6" class="node">
<title>AxiomShift</title>
<path fill="#161b22" stroke="#ff0000" stroke-width="3" d="M460.48,-192.26C460.48,-192.26 374.48,-192.26 374.48,-192.26 368.48,-192.26 360.63,-197.97 358.78,-203.67 358.78,-203.67 332.2,-285.42 332.2,-285.42 330.35,-291.13 326.64,-291.13 324.79,-285.42 324.79,-285.42 298.21,-203.67 298.21,-203.67 296.36,-197.97 288.5,-192.26 282.5,-192.26 282.5,-192.26 196.51,-192.26 196.51,-192.26 190.51,-192.26 189.37,-188.73 194.22,-185.21 194.22,-185.21 263.79,-134.68 263.79,-134.68 268.64,-131.16 271.64,-121.92 269.79,-116.22 269.79,-116.22 243.22,-34.47 243.22,-34.47 241.36,-28.76 244.36,-26.58 249.22,-30.11 249.22,-30.11 318.79,-80.63 318.79,-80.63 323.64,-84.16 333.35,-84.16 338.2,-80.63 338.2,-80.63 407.77,-30.11 407.77,-30.11 412.63,-26.58 415.63,-28.76 413.77,-34.47 413.77,-34.47 387.2,-116.22 387.2,-116.22 385.35,-121.92 388.35,-131.16 393.2,-134.68 393.2,-134.68 462.77,-185.21 462.77,-185.21 467.62,-188.73 466.48,-192.26 460.48,-192.26"/>
<text text-anchor="middle" x="328.49" y="-163.74" font-family="Times,serif" font-size="14.00" fill="#00f2ff">Axiom Shift</text>
<text text-anchor="middle" x="328.49" y="-148.74" font-family="Times,serif" font-size="14.00" fill="#00f2ff">(The Meta&#45;Leap)</text>
</g>
<!-- Decision&#45;&gt;AxiomShift -->
<g id="edge6" class="edge">
<title>Decision&#45;&gt;AxiomShift</title>
<path fill="none" stroke="#ff00ff" d="M199.02,-349.56C218.61,-321.01 261.52,-258.51 292.58,-213.26"/>
<polygon fill="#ff00ff" stroke="#ff00ff" points="298.43,-204.74 296.48,-215.53 295.6,-208.86 292.77,-212.99 292.77,-212.99 292.77,-212.99 295.6,-208.86 289.06,-210.44 298.43,-204.74 298.43,-204.74"/>
<text text-anchor="middle" x="233.99" y="-318.69" font-family="Times,serif" font-size="14.00"> No </text>
</g>
<!-- Success -->
<g id="node7" class="node">
<title>Success</title>
<path fill="#161b22" stroke="#00ff00" d="M162.98,-157.46C162.98,-157.46 162.98,-162.43 162.98,-162.43 162.98,-164.91 160.56,-167.95 158.14,-168.5 158.14,-168.5 121.27,-176.85 121.27,-176.85 118.84,-177.4 113.94,-177.94 111.45,-177.94 111.45,-177.94 55.54,-177.94 55.54,-177.94 53.05,-177.94 48.15,-177.4 45.72,-176.85 45.72,-176.85 8.85,-168.5 8.85,-168.5 6.43,-167.95 4.01,-164.91 4.01,-162.43 4.01,-162.43 4.01,-157.46 4.01,-157.46 4.01,-154.97 6.43,-151.94 8.85,-151.39 8.85,-151.39 45.72,-143.04 45.72,-143.04 48.15,-142.49 53.05,-141.94 55.54,-141.94 55.54,-141.94 111.45,-141.94 111.45,-141.94 113.94,-141.94 118.84,-142.49 121.27,-143.04 121.27,-143.04 158.14,-151.39 158.14,-151.39 160.56,-151.94 162.98,-154.97 162.98,-157.46"/>
<path fill="none" stroke="#00ff00" d="M166.98,-156.39C166.98,-156.39 166.98,-163.49 166.98,-163.49 166.98,-167.05 163.52,-171.38 160.06,-172.16 160.06,-172.16 123.79,-180.38 123.79,-180.38 120.33,-181.16 113.32,-181.94 109.77,-181.94 109.77,-181.94 57.22,-181.94 57.22,-181.94 53.67,-181.94 46.66,-181.16 43.2,-180.38 43.2,-180.38 6.93,-172.16 6.93,-172.16 3.47,-171.38 0.01,-167.05 0.01,-163.49 0.01,-163.49 0.01,-156.39 0.01,-156.39 0.01,-152.84 3.47,-148.51 6.93,-147.72 6.93,-147.72 43.2,-139.51 43.2,-139.51 46.66,-138.73 53.67,-137.94 57.22,-137.94 57.22,-137.94 109.77,-137.94 109.77,-137.94 113.32,-137.94 120.33,-138.73 123.79,-139.51 123.79,-139.51 160.06,-147.72 160.06,-147.72 163.52,-148.51 166.98,-152.84 166.98,-156.39"/>
<text text-anchor="middle" x="83.49" y="-156.24" font-family="Times,serif" font-size="14.00" fill="#00f2ff">Validated Artifact</text>
</g>
<!-- Decision&#45;&gt;Success -->
<g id="edge5" class="edge">
<title>Decision&#45;&gt;Success</title>
<path fill="none" stroke="#ff00ff" d="M180.26,-348.89C162.73,-314.85 121.54,-234.84 98.96,-190.98"/>
<polygon fill="#ff00ff" stroke="#ff00ff" points="94.31,-181.95 102.89,-188.78 96.6,-186.39 98.89,-190.84 98.89,-190.84 98.89,-190.84 96.6,-186.39 94.89,-192.9 94.31,-181.95 94.31,-181.95"/>
<text text-anchor="middle" x="180.99" y="-318.69" font-family="Times,serif" font-size="14.00"> Yes </text>
</g>
<!-- AxiomShift&#45;&gt;Exec -->
<g id="edge7" class="edge">
<title>AxiomShift&#45;&gt;Exec</title>
<path fill="none" stroke="#ff00ff" stroke-dasharray="5,2" d="M328.49,-296.98C328.49,-319.65 328.49,-342.94 328.49,-364.89 328.49,-515.89 328.49,-515.89 328.49,-515.89 328.49,-533.02 319.59,-549.68 309.89,-562.74"/>
<polygon fill="#ff00ff" stroke="#ff00ff" points="303.48,-570.78 306.2,-560.15 306.6,-566.87 309.72,-562.96 309.72,-562.96 309.72,-562.96 306.6,-566.87 313.23,-565.76 303.48,-570.78 303.48,-570.78"/>
<text text-anchor="middle" x="403.49" y="-436.19" font-family="Times,serif" font-size="14.00"> Restart with New Axioms </text>
</g>
</g>
</svg>
