<?xml version="1.0" encoding="UTF-8" standalone="no"?>
<!DOCTYPE svg PUBLIC "-//W3C//DTD SVG 1.1//EN"
 "http://www.w3.org/Graphics/SVG/1.1/DTD/svg11.dtd">
<!-- Generated by graphviz version 2.43.0 (0)
 -->
<!-- Title: Todo Pages: 1 -->
<svg width="265pt" height="289pt"
 viewBox="0.00 0.00 265.00 289.00" xmlns="http://www.w3.org/2000/svg" xmlns:xlink="http://www.w3.org/1999/xlink">
<g id="graph0" class="graph" transform="scale(1 1) rotate(0) translate(4 285)">
<title>Todo</title>
<polygon fill="#0d1117" stroke="transparent" points="-4,4 -4,-285 261,-285 261,4 -4,4"/>
<text text-anchor="middle" x="128.5" y="-7.8" font-family="Helvetica,sans-Serif" font-size="14.00" fill="#00f2ff">Future State: House&#45;keeping TODO List</text>
<!-- CurrentState -->
<g id="node1" class="node">
<title>CurrentState</title>
<path fill="#161b22" stroke="#00f2ff" d="M192.5,-281C192.5,-281 64.5,-281 64.5,-281 58.5,-281 52.5,-275 52.5,-269 52.5,-269 52.5,-257 52.5,-257 52.5,-251 58.5,-245 64.5,-245 64.5,-245 192.5,-245 192.5,-245 198.5,-245 204.5,-251 204.5,-257 204.5,-257 204.5,-269 204.5,-269 204.5,-275 198.5,-281 192.5,-281"/>
<text text-anchor="middle" x="128.5" y="-259.3" font-family="Times,serif" font-size="14.00" fill="#00f2ff">Current Repository State</text>
</g>
<!-- P0 -->
<g id="node2" class="node">
<title>P0</title>
<path fill="#161b22" stroke="#ff0000" d="M212.5,-209C212.5,-209 44.5,-209 44.5,-209 38.5,-209 32.5,-203 32.5,-197 32.5,-197 32.5,-183 32.5,-183 32.5,-177 38.5,-171 44.5,-171 44.5,-171 212.5,-171 212.5,-171 218.5,-171 224.5,-177 224.5,-183 224.5,-183 224.5,-197 224.5,-197 224.5,-203 218.5,-209 212.5,-209"/>
<text text-anchor="middle" x="128.5" y="-193.8" font-family="Times,serif" font-size="14.00" fill="#00f2ff">P0: Stabilization</text>
<text text-anchor="middle" x="128.5" y="-178.8" font-family="Times,serif" font-size="14.00" fill="#00f2ff">(Recursive Viz, Error Handling)</text>
</g>
<!-- CurrentState&#45;&gt;P0 -->
<g id="edge1" class="edge">
<title>CurrentState&#45;&gt;P0</title>
<path fill="none" stroke="#ff00ff" d="M128.5,-244.81C128.5,-237.11 128.5,-227.82 128.5,-219.15"/>
<polygon fill="#ff00ff" stroke="#ff00ff" points="128.5,-209.02 133,-219.02 128.5,-214.02 128.5,-219.02 128.5,-219.02 128.5,-219.02 128.5,-214.02 124,-219.02 128.5,-209.02 128.5,-209.02"/>
</g>
<!-- P1 -->
<g id="node3" class="node">
<title>P1</title>
<path fill="#161b22" stroke="#ffff00" d="M183,-135C183,-135 74,-135 74,-135 68,-135 62,-129 62,-123 62,-123 62,-109 62,-109 62,-103 68,-97 74,-97 74,-97 183,-97 183,-97 189,-97 195,-103 195,-109 195,-109 195,-123 195,-123 195,-129 189,-135 183,-135"/>
<text text-anchor="middle" x="128.5" y="-119.8" font-family="Times,serif" font-size="14.00" fill="#00f2ff">P1: Maintenance</text>
<text text-anchor="middle" x="128.5" y="-104.8" font-family="Times,serif" font-size="14.00" fill="#00f2ff">(Archiving, Cleanup)</text>
</g>
<!-- P0&#45;&gt;P1 -->
<g id="edge2" class="edge">
<title>P0&#45;&gt;P1</title>
<path fill="none" stroke="#ff00ff" d="M128.5,-170.83C128.5,-163.13 128.5,-153.97 128.5,-145.42"/>
<polygon fill="#ff00ff" stroke="#ff00ff" points="128.5,-135.41 133,-145.41 128.5,-140.41 128.5,-145.41 128.5,-145.41 128.5,-145.41 128.5,-140.41 124,-145.41 128.5,-135.41 128.5,-135.41"/>
</g>
<!-- P2 -->
<g id="node4" class="node">
<title>P2</title>
<path fill="#161b22" stroke="#00ff00" d="M171.5,-61C171.5,-61 85.5,-61 85.5,-61 79.5,-61 73.5,-55 73.5,-49 73.5,-49 73.5,-35 73.5,-35 73.5,-29 79.5,-23 85.5,-23 85.5,-23 171.5,-23 171.5,-23 177.5,-23 183.5,-29 183.5,-35 183.5,-35 183.5,-49 183.5,-49 183.5,-55 177.5,-61 171.5,-61"/>
<text text-anchor="middle" x="128.5" y="-45.8" font-family="Times,serif" font-size="14.00" fill="#00f2ff">P2: Optimization</text>
<text text-anchor="middle" x="128.5" y="-30.8" font-family="Times,serif" font-size="14.00" fill="#00f2ff">(Go Port, TUI)</text>
</g>
<!-- P1&#45;&gt;P2 -->
<g id="edge3" class="edge">
<title>P1&#45;&gt;P2</title>
<path fill="none" stroke="#ff00ff" d="M128.5,-96.83C128.5,-89.13 128.5,-79.97 128.5,-71.42"/>
<polygon fill="#ff00ff" stroke="#ff00ff" points="128.5,-61.41 133,-71.41 128.5,-66.41 128.5,-71.41 128.5,-71.41 128.5,-71.41 128.5,-66.41 124,-71.41 128.5,-61.41 128.5,-61.41"/>
</g>
</g>
</svg>
