<?xml version="1.0" encoding="UTF-8" standalone="no"?>
<!DOCTYPE svg PUBLIC "-//W3C//DTD SVG 1.1//EN"
 "http://www.w3.org/Graphics/SVG/1.1/DTD/svg11.dtd">
<!-- Generated by graphviz version 2.43.0 (0)
 -->
<!-- Title: TransfiniteOS Pages: 1 -->
<svg width="396pt" height="328pt"
 viewBox="0.00 0.00 396.00 328.25" xmlns="http://www.w3.org/2000/svg" xmlns:xlink="http://www.w3.org/1999/xlink">
<g id="graph0" class="graph" transform="scale(1 1) rotate(0) translate(4 324.25)">
<title>TransfiniteOS</title>
<polygon fill="#0d1117" stroke="transparent" points="-4,4 -4,-324.25 392,-324.25 392,4 -4,4"/>
<text text-anchor="middle" x="194" y="-7.8" font-family="Helvetica,sans-Serif" font-size="14.00" fill="#00f2ff">T12.2: Proposed Transfinite OS Architecture</text>
<!-- Kernel -->
<g id="node1" class="node">
<title>Kernel</title>
<path fill="#161b22" stroke="#ffff00" stroke-width="3" d="M307,-320.25C307,-320.25 191,-320.25 191,-320.25 185,-320.25 179,-314.25 179,-308.25 179,-308.25 179,-294.25 179,-294.25 179,-288.25 185,-282.25 191,-282.25 191,-282.25 307,-282.25 307,-282.25 313,-282.25 319,-288.25 319,-294.25 319,-294.25 319,-308.25 319,-308.25 319,-314.25 313,-320.25 307,-320.25"/>
<text text-anchor="middle" x="249" y="-305.05" font-family="Times,serif" font-size="14.00" fill="#00f2ff">Axiomatic Kernel</text>
<text text-anchor="middle" x="249" y="-290.05" font-family="Times,serif" font-size="14.00" fill="#00f2ff">(Pure Semantic Intent)</text>
</g>
<!-- Scheduler -->
<g id="node3" class="node">
<title>Scheduler</title>
<path fill="#161b22" stroke="#00f2ff" d="M260,-245.25C260,-245.25 136,-245.25 136,-245.25 130,-245.25 124,-239.25 124,-233.25 124,-233.25 124,-219.25 124,-219.25 124,-213.25 130,-207.25 136,-207.25 136,-207.25 260,-207.25 260,-207.25 266,-207.25 272,-213.25 272,-219.25 272,-219.25 272,-233.25 272,-233.25 272,-239.25 266,-245.25 260,-245.25"/>
<text text-anchor="middle" x="198" y="-230.05" font-family="Times,serif" font-size="14.00" fill="#00f2ff">Orchestration Scheduler</text>
<text text-anchor="middle" x="198" y="-215.05" font-family="Times,serif" font-size="14.00" fill="#00f2ff">(Multi&#45;Agent Hive)</text>
</g>
<!-- Kernel&#45;&gt;Scheduler -->
<g id="edge1" class="edge">
<title>Kernel&#45;&gt;Scheduler</title>
<path fill="none" stroke="#ff00ff" d="M236.39,-282.21C230.39,-273.61 223.08,-263.15 216.47,-253.68"/>
<polygon fill="#ff00ff" stroke="#ff00ff" points="210.64,-245.34 220.05,-250.96 213.5,-249.44 216.37,-253.54 216.37,-253.54 216.37,-253.54 213.5,-249.44 212.68,-256.12 210.64,-245.34 210.64,-245.34"/>
</g>
<!-- Memory -->
<g id="node2" class="node">
<title>Memory</title>
<path fill="#161b22" stroke="#00f2ff" d="M128,-151.6C128,-154.24 99.31,-156.38 64,-156.38 28.69,-156.38 0,-154.24 0,-151.6 0,-151.6 0,-108.65 0,-108.65 0,-106.01 28.69,-103.87 64,-103.87 99.31,-103.87 128,-106.01 128,-108.65 128,-108.65 128,-151.6 128,-151.6"/>
<path fill="none" stroke="#00f2ff" d="M128,-151.6C128,-148.97 99.31,-146.83 64,-146.83 28.69,-146.83 0,-148.97 0,-151.6"/>
<text text-anchor="middle" x="64" y="-133.93" font-family="Times,serif" font-size="14.00" fill="#00f2ff">Transfinite Memory</text>
<text text-anchor="middle" x="64" y="-118.92" font-family="Times,serif" font-size="14.00" fill="#00f2ff">(Recursive Logs)</text>
</g>
<!-- Scheduler&#45;&gt;Memory -->
<g id="edge2" class="edge">
<title>Scheduler&#45;&gt;Memory</title>
<path fill="none" stroke="#ff00ff" d="M172.16,-207.1C154.04,-194.37 129.34,-177.02 108.13,-162.12"/>
<polygon fill="#ff00ff" stroke="#ff00ff" points="99.89,-156.33 110.66,-158.4 103.98,-159.21 108.07,-162.08 108.07,-162.08 108.07,-162.08 103.98,-159.21 105.48,-165.76 99.89,-156.33 99.89,-156.33"/>
</g>
<!-- Drivers -->
<g id="node4" class="node">
<title>Drivers</title>
<path fill="#161b22" stroke="#00f2ff" d="M259.5,-149.12C259.5,-149.12 158.5,-149.12 158.5,-149.12 152.5,-149.12 146.5,-143.12 146.5,-137.12 146.5,-137.12 146.5,-123.12 146.5,-123.12 146.5,-117.12 152.5,-111.12 158.5,-111.12 158.5,-111.12 259.5,-111.12 259.5,-111.12 265.5,-111.12 271.5,-117.12 271.5,-123.12 271.5,-123.12 271.5,-137.12 271.5,-137.12 271.5,-143.12 265.5,-149.12 259.5,-149.12"/>
<text text-anchor="middle" x="209" y="-133.93" font-family="Times,serif" font-size="14.00" fill="#00f2ff">Tool Drivers</text>
<text text-anchor="middle" x="209" y="-118.92" font-family="Times,serif" font-size="14.00" fill="#00f2ff">(Bash/Python Utils)</text>
</g>
<!-- Scheduler&#45;&gt;Drivers -->
<g id="edge3" class="edge">
<title>Scheduler&#45;&gt;Drivers</title>
<path fill="none" stroke="#ff00ff" d="M200.12,-207.1C201.7,-193.56 203.9,-174.8 205.71,-159.31"/>
<polygon fill="#ff00ff" stroke="#ff00ff" points="206.89,-149.22 210.19,-159.67 206.31,-154.18 205.72,-159.15 205.72,-159.15 205.72,-159.15 206.31,-154.18 201.26,-158.63 206.89,-149.22 206.89,-149.22"/>
</g>
<!-- UI -->
<g id="node5" class="node">
<title>UI</title>
<path fill="#161b22" stroke="#00ff00" d="M332.59,-42.51C332.59,-42.51 332.59,-47.49 332.59,-47.49 332.59,-49.97 330.17,-53.01 327.75,-53.57 327.75,-53.57 291.4,-61.89 291.4,-61.89 288.98,-62.45 284.07,-63 281.58,-63 281.58,-63 226.42,-63 226.42,-63 223.93,-63 219.02,-62.45 216.6,-61.89 216.6,-61.89 180.25,-53.57 180.25,-53.57 177.83,-53.01 175.41,-49.97 175.41,-47.49 175.41,-47.49 175.41,-42.51 175.41,-42.51 175.41,-40.03 177.83,-36.99 180.25,-36.43 180.25,-36.43 216.6,-28.11 216.6,-28.11 219.02,-27.55 223.93,-27 226.42,-27 226.42,-27 281.58,-27 281.58,-27 284.07,-27 288.98,-27.55 291.4,-28.11 291.4,-28.11 327.75,-36.43 327.75,-36.43 330.17,-36.99 332.59,-40.03 332.59,-42.51"/>
<path fill="none" stroke="#00ff00" d="M336.58,-41.45C336.58,-41.45 336.58,-48.55 336.58,-48.55 336.58,-52.1 333.12,-56.44 329.67,-57.23 329.67,-57.23 293.92,-65.42 293.92,-65.42 290.46,-66.21 283.46,-67 279.91,-67 279.91,-67 228.09,-67 228.09,-67 224.54,-67 217.54,-66.21 214.08,-65.42 214.08,-65.42 178.33,-57.23 178.33,-57.23 174.88,-56.44 171.42,-52.1 171.42,-48.55 171.42,-48.55 171.42,-41.45 171.42,-41.45 171.42,-37.9 174.88,-33.56 178.33,-32.77 178.33,-32.77 214.08,-24.58 214.08,-24.58 217.54,-23.79 224.54,-23 228.09,-23 228.09,-23 279.91,-23 279.91,-23 283.46,-23 290.46,-23.79 293.92,-24.58 293.92,-24.58 329.67,-32.77 329.67,-32.77 333.12,-33.56 336.58,-37.9 336.58,-41.45"/>
<text text-anchor="middle" x="254" y="-41.3" font-family="Times,serif" font-size="14.00" fill="#00f2ff">Neon TUI / HUD</text>
</g>
<!-- Drivers&#45;&gt;UI -->
<g id="edge4" class="edge">
<title>Drivers&#45;&gt;UI</title>
<path fill="none" stroke="#ff00ff" d="M218.76,-111.09C224.27,-100.92 231.3,-87.94 237.62,-76.25"/>
<polygon fill="#ff00ff" stroke="#ff00ff" points="242.5,-67.24 241.7,-78.17 240.12,-71.63 237.74,-76.03 237.74,-76.03 237.74,-76.03 240.12,-71.63 233.79,-73.89 242.5,-67.24 242.5,-67.24"/>
</g>
<!-- UI&#45;&gt;Kernel -->
<g id="edge5" class="edge">
<title>UI&#45;&gt;Kernel</title>
<path fill="none" stroke="#ff00ff" d="M265.96,-67.03C271.38,-77.74 277.19,-91.17 280,-104 292.36,-160.45 286.1,-226.35 281,-245.25 278.35,-255.07 273.47,-264.93 268.31,-273.54"/>
<polygon fill="#ff00ff" stroke="#ff00ff" points="262.9,-282.01 264.49,-271.16 265.59,-277.8 268.28,-273.58 268.28,-273.58 268.28,-273.58 265.59,-277.8 272.08,-276 262.9,-282.01 262.9,-282.01"/>
<text text-anchor="middle" x="338" y="-178.05" font-family="Times,serif" font-size="14.00"> Human +1 Input </text>
</g>
</g>
</svg>
