<?xml version="1.0" encoding="UTF-8" standalone="no"?>
<!DOCTYPE svg PUBLIC "-//W3C//DTD SVG 1.1//EN"
 "http://www.w3.org/Graphics/SVG/1.1/DTD/svg11.dtd">
<!-- Generated by graphviz version 2.43.0 (0)
 -->
<!-- Title: UpCoProcessor Pages: 1 -->
<svg width="326pt" height="235pt"
 viewBox="0.00 0.00 326.00 235.00" xmlns="http://www.w3.org/2000/svg" xmlns:xlink="http://www.w3.org/1999/xlink">
<g id="graph0" class="graph" transform="scale(1 1) rotate(0) translate(4 231)">
<title>UpCoProcessor</title>
<polygon fill="#0d1117" stroke="transparent" points="-4,4 -4,-231 322,-231 322,4 -4,4"/>
<text text-anchor="middle" x="159" y="-7.8" font-family="Helvetica,sans-Serif" font-size="14.00" fill="#00f2ff">U4.2: Upgrade Stage 2 &#45; The Co&#45;Processor Phase</text>
<!-- Human -->
<g id="node1" class="node">
<title>Human</title>
<path fill="#161b22" stroke="#00ff00" d="M179.4,-227C179.4,-227 60.4,-227 60.4,-227 54.4,-227 48.4,-221 48.4,-215 48.4,-215 48.4,-203 48.4,-203 48.4,-197 54.4,-191 60.4,-191 60.4,-191 179.4,-191 179.4,-191 185.4,-191 191.4,-197 191.4,-203 191.4,-203 191.4,-215 191.4,-215 191.4,-221 185.4,-227 179.4,-227"/>
<text text-anchor="middle" x="119.9" y="-205.3" font-family="Times,serif" font-size="14.00" fill="#00f2ff">Human (Master Intent)</text>
</g>
<!-- AI -->
<g id="node2" class="node">
<title>AI</title>
<path fill="#161b22" stroke="#ffff00" stroke-width="2" d="M161.4,-140C161.4,-140 78.4,-140 78.4,-140 72.4,-140 66.4,-134 66.4,-128 66.4,-128 66.4,-116 66.4,-116 66.4,-110 72.4,-104 78.4,-104 78.4,-104 161.4,-104 161.4,-104 167.4,-104 173.4,-110 173.4,-116 173.4,-116 173.4,-128 173.4,-128 173.4,-134 167.4,-140 161.4,-140"/>
<text text-anchor="middle" x="119.9" y="-118.3" font-family="Times,serif" font-size="14.00" fill="#00f2ff">AI Co&#45;Processor</text>
</g>
<!-- Human&#45;&gt;AI -->
<g id="edge1" class="edge">
<title>Human&#45;&gt;AI</title>
<path fill="none" stroke="#ff00ff" d="M80.89,-190.94C74.08,-186.15 67.9,-180.22 63.9,-173 58.27,-162.85 63.33,-153.71 72.33,-146.1"/>
<polygon fill="#ff00ff" stroke="#ff00ff" points="80.67,-140.09 75.19,-149.59 76.62,-143.01 72.56,-145.94 72.56,-145.94 72.56,-145.94 76.62,-143.01 69.93,-142.29 80.67,-140.09 80.67,-140.09"/>
<text text-anchor="middle" x="80.9" y="-161.8" font-family="Times,serif" font-size="14.00"> Goal </text>
</g>
<!-- Sync -->
<g id="node3" class="node">
<title>Sync</title>
<path fill="#161b22" stroke="#00f2ff" d="M265.81,-42.51C265.81,-42.51 265.81,-47.49 265.81,-47.49 265.81,-49.97 263.36,-52.88 260.91,-53.31 260.91,-53.31 210.42,-62.14 210.42,-62.14 207.97,-62.57 203.04,-63 200.55,-63 200.55,-63 125.24,-63 125.24,-63 122.75,-63 117.82,-62.57 115.37,-62.14 115.37,-62.14 64.88,-53.31 64.88,-53.31 62.43,-52.88 59.98,-49.97 59.98,-47.49 59.98,-47.49 59.98,-42.51 59.98,-42.51 59.98,-40.03 62.43,-37.12 64.88,-36.69 64.88,-36.69 115.37,-27.86 115.37,-27.86 117.82,-27.43 122.75,-27 125.24,-27 125.24,-27 200.55,-27 200.55,-27 203.04,-27 207.97,-27.43 210.42,-27.86 210.42,-27.86 260.91,-36.69 260.91,-36.69 263.36,-37.12 265.81,-40.03 265.81,-42.51"/>
<path fill="none" stroke="#00f2ff" d="M269.82,-41.39C269.82,-41.39 269.82,-48.61 269.82,-48.61 269.82,-52.21 266.26,-56.44 262.71,-57.06 262.71,-57.06 212.97,-65.76 212.97,-65.76 209.42,-66.38 202.27,-67 198.66,-67 198.66,-67 127.13,-67 127.13,-67 123.52,-67 116.37,-66.38 112.82,-65.76 112.82,-65.76 63.08,-57.06 63.08,-57.06 59.53,-56.44 55.97,-52.21 55.97,-48.61 55.97,-48.61 55.97,-41.39 55.97,-41.39 55.97,-37.79 59.53,-33.56 63.08,-32.94 63.08,-32.94 112.82,-24.24 112.82,-24.24 116.37,-23.62 123.52,-23 127.13,-23 127.13,-23 198.66,-23 198.66,-23 202.27,-23 209.42,-23.62 212.97,-24.24 212.97,-24.24 262.71,-32.94 262.71,-32.94 266.26,-33.56 269.82,-37.79 269.82,-41.39"/>
<text text-anchor="middle" x="162.9" y="-41.3" font-family="Times,serif" font-size="14.00" fill="#00f2ff">Synchronous Execution</text>
</g>
<!-- Human&#45;&gt;Sync -->
<g id="edge4" class="edge">
<title>Human&#45;&gt;Sync</title>
<path fill="none" stroke="#ff00ff" d="M174.13,-190.87C181.58,-186.23 188.25,-180.37 192.9,-173 211.47,-143.5 196.88,-103.59 182.28,-76.43"/>
<polygon fill="#ff00ff" stroke="#ff00ff" points="177.17,-67.4 186.01,-73.89 179.63,-71.75 182.09,-76.1 182.09,-76.1 182.09,-76.1 179.63,-71.75 178.18,-78.32 177.17,-67.4 177.17,-67.4"/>
</g>
<!-- AI&#45;&gt;Human -->
<g id="edge2" class="edge">
<title>AI&#45;&gt;Human</title>
<path fill="none" stroke="#ff00ff" d="M119.9,-140.18C119.9,-151.81 119.9,-167.42 119.9,-180.73"/>
<polygon fill="#ff00ff" stroke="#ff00ff" points="119.9,-190.8 115.4,-180.8 119.9,-185.8 119.9,-180.8 119.9,-180.8 119.9,-180.8 119.9,-185.8 124.4,-180.8 119.9,-190.8 119.9,-190.8"/>
<text text-anchor="middle" x="155.9" y="-161.8" font-family="Times,serif" font-size="14.00"> Refinement </text>
</g>
<!-- AI&#45;&gt;Sync -->
<g id="edge3" class="edge">
<title>AI&#45;&gt;Sync</title>
<path fill="none" stroke="#ff00ff" d="M129.65,-103.98C134.38,-95.73 140.21,-85.56 145.66,-76.07"/>
<polygon fill="#ff00ff" stroke="#ff00ff" points="150.71,-67.24 149.64,-78.16 148.23,-71.58 145.74,-75.92 145.74,-75.92 145.74,-75.92 148.23,-71.58 141.84,-73.68 150.71,-67.24 150.71,-67.24"/>
</g>
</g>
</svg>
