<?xml version="1.0" encoding="UTF-8" standalone="no"?>
<!DOCTYPE svg PUBLIC "-//W3C//DTD SVG 1.1//EN"
 "http://www.w3.org/Graphics/SVG/1.1/DTD/svg11.dtd">
<!-- Generated by graphviz version 2.43.0 (0)
 -->
<!-- Title: UpIntegratedHive Pages: 1 -->
<svg width="299pt" height="294pt"
 viewBox="0.00 0.00 298.50 294.00" xmlns="http://www.w3.org/2000/svg" xmlns:xlink="http://www.w3.org/1999/xlink">
<g id="graph0" class="graph" transform="scale(1 1) rotate(0) translate(4 290)">
<title>UpIntegratedHive</title>
<polygon fill="#0d1117" stroke="transparent" points="-4,4 -4,-290 294.5,-290 294.5,4 -4,4"/>
<text text-anchor="middle" x="145.25" y="-7.8" font-family="Helvetica,sans-Serif" font-size="14.00" fill="#00f2ff">U4.3: Upgrade Stage 3 &#45; The Integrated Hive</text>
<!-- GlobalIntent -->
<g id="node1" class="node">
<title>GlobalIntent</title>
<path fill="#161b22" stroke="#00ff00" stroke-width="3" d="M178,-286C178,-286 69,-286 69,-286 63,-286 57,-280 57,-274 57,-274 57,-262 57,-262 57,-256 63,-250 69,-250 69,-250 178,-250 178,-250 184,-250 190,-256 190,-262 190,-262 190,-274 190,-274 190,-280 184,-286 178,-286"/>
<text text-anchor="middle" x="123.5" y="-264.3" font-family="Times,serif" font-size="14.00" fill="#00f2ff">Global Human Intent</text>
</g>
<!-- Hive -->
<g id="node2" class="node">
<title>Hive</title>
<path fill="#161b22" stroke="#ffff00" d="M198,-213C198,-213 49,-213 49,-213 43,-213 37,-207 37,-201 37,-201 37,-189 37,-189 37,-183 43,-177 49,-177 49,-177 198,-177 198,-177 204,-177 210,-183 210,-189 210,-189 210,-201 210,-201 210,-207 204,-213 198,-213"/>
<text text-anchor="middle" x="123.5" y="-191.3" font-family="Times,serif" font-size="14.00" fill="#00f2ff">Multi&#45;Agent Integrated Hive</text>
</g>
<!-- GlobalIntent&#45;&gt;Hive -->
<g id="edge1" class="edge">
<title>GlobalIntent&#45;&gt;Hive</title>
<path fill="none" stroke="#ff00ff" d="M123.5,-249.81C123.5,-241.79 123.5,-232.05 123.5,-223.07"/>
<polygon fill="#ff00ff" stroke="#ff00ff" points="123.5,-213.03 128,-223.03 123.5,-218.03 123.5,-223.03 123.5,-223.03 123.5,-223.03 123.5,-218.03 119,-223.03 123.5,-213.03 123.5,-213.03"/>
</g>
<!-- SelfHeal -->
<g id="node3" class="node">
<title>SelfHeal</title>
<path fill="#161b22" stroke="#00f2ff" d="M129,-140C129,-140 12,-140 12,-140 6,-140 0,-134 0,-128 0,-128 0,-116 0,-116 0,-110 6,-104 12,-104 12,-104 129,-104 129,-104 135,-104 141,-110 141,-116 141,-116 141,-128 141,-128 141,-134 135,-140 129,-140"/>
<text text-anchor="middle" x="70.5" y="-118.3" font-family="Times,serif" font-size="14.00" fill="#00f2ff">Auto&#45;Correction Logic</text>
</g>
<!-- Hive&#45;&gt;SelfHeal -->
<g id="edge2" class="edge">
<title>Hive&#45;&gt;SelfHeal</title>
<path fill="none" stroke="#ff00ff" d="M110.67,-176.81C104.29,-168.27 96.45,-157.77 89.4,-148.32"/>
<polygon fill="#ff00ff" stroke="#ff00ff" points="83.21,-140.03 92.8,-145.35 86.2,-144.04 89.19,-148.04 89.19,-148.04 89.19,-148.04 86.2,-144.04 85.59,-150.73 83.21,-140.03 83.21,-140.03"/>
</g>
<!-- Artifact -->
<g id="node4" class="node">
<title>Artifact</title>
<path fill="#161b22" stroke="#00f2ff" d="M214.91,-42.51C214.91,-42.51 214.91,-47.49 214.91,-47.49 214.91,-49.97 212.47,-52.94 210.03,-53.42 210.03,-53.42 166.24,-62.04 166.24,-62.04 163.8,-62.52 158.88,-63 156.39,-63 156.39,-63 90.61,-63 90.61,-63 88.12,-63 83.2,-62.52 80.76,-62.04 80.76,-62.04 36.97,-53.42 36.97,-53.42 34.53,-52.94 32.09,-49.97 32.09,-47.49 32.09,-47.49 32.09,-42.51 32.09,-42.51 32.09,-40.03 34.53,-37.06 36.97,-36.58 36.97,-36.58 80.76,-27.96 80.76,-27.96 83.2,-27.48 88.12,-27 90.61,-27 90.61,-27 156.39,-27 156.39,-27 158.88,-27 163.8,-27.48 166.24,-27.96 166.24,-27.96 210.03,-36.58 210.03,-36.58 212.47,-37.06 214.91,-40.03 214.91,-42.51"/>
<path fill="none" stroke="#00f2ff" d="M218.91,-41.42C218.91,-41.42 218.91,-48.58 218.91,-48.58 218.91,-52.16 215.39,-56.44 211.88,-57.13 211.88,-57.13 168.78,-65.62 168.78,-65.62 165.27,-66.31 158.17,-67 154.59,-67 154.59,-67 92.41,-67 92.41,-67 88.83,-67 81.73,-66.31 78.22,-65.62 78.22,-65.62 35.12,-57.13 35.12,-57.13 31.61,-56.44 28.09,-52.16 28.09,-48.58 28.09,-48.58 28.09,-41.42 28.09,-41.42 28.09,-37.84 31.61,-33.56 35.12,-32.87 35.12,-32.87 78.22,-24.38 78.22,-24.38 81.73,-23.69 88.83,-23 92.41,-23 92.41,-23 154.59,-23 154.59,-23 158.17,-23 165.27,-23.69 168.78,-24.38 168.78,-24.38 211.88,-32.87 211.88,-32.87 215.39,-33.56 218.91,-37.84 218.91,-41.42"/>
<text text-anchor="middle" x="123.5" y="-41.3" font-family="Times,serif" font-size="14.00" fill="#00f2ff">Healed System State</text>
</g>
<!-- SelfHeal&#45;&gt;Artifact -->
<g id="edge3" class="edge">
<title>SelfHeal&#45;&gt;Artifact</title>
<path fill="none" stroke="#ff00ff" d="M82.53,-103.98C88.48,-95.56 95.84,-85.15 102.67,-75.48"/>
<polygon fill="#ff00ff" stroke="#ff00ff" points="108.49,-67.24 106.39,-78.01 105.6,-71.33 102.72,-75.41 102.72,-75.41 102.72,-75.41 105.6,-71.33 99.04,-72.81 108.49,-67.24 108.49,-67.24"/>
</g>
<!-- Artifact&#45;&gt;Hive -->
<g id="edge4" class="edge">
<title>Artifact&#45;&gt;Hive</title>
<path fill="none" stroke="#ff00ff" stroke-dasharray="5,2" d="M135.51,-67.02C140.94,-77.72 146.75,-91.16 149.5,-104 152.85,-119.65 153.06,-124.4 149.5,-140 147.35,-149.43 143.33,-159.14 139.08,-167.68"/>
<polygon fill="#ff00ff" stroke="#ff00ff" points="134.28,-176.74 134.98,-165.8 136.62,-172.32 138.96,-167.9 138.96,-167.9 138.96,-167.9 136.62,-172.32 142.94,-170.01 134.28,-176.74 134.28,-176.74"/>
<text text-anchor="middle" x="221.5" y="-118.3" font-family="Times,serif" font-size="14.00"> Recursive Optimization </text>
</g>
</g>
</svg>
