<?xml version="1.0" encoding="UTF-8" standalone="no"?>
<!DOCTYPE svg PUBLIC "-//W3C//DTD SVG 1.1//EN"
 "http://www.w3.org/Graphics/SVG/1.1/DTD/svg11.dtd">
<!-- Generated by graphviz version 2.43.0 (0)
 -->
<!-- Title: UpSingularity Pages: 1 -->
<svg width="526pt" height="668pt"
 viewBox="0.00 0.00 526.37 668.00" xmlns="http://www.w3.org/2000/svg" xmlns:xlink="http://www.w3.org/1999/xlink">
<g id="graph0" class="graph" transform="scale(1 1) rotate(0) translate(4 664)">
<title>UpSingularity</title>
<polygon fill="#0d1117" stroke="transparent" points="-4,4 -4,-664 522.37,-664 522.37,4 -4,4"/>
<text text-anchor="middle" x="259.19" y="-7.8" font-family="Helvetica,sans-Serif" font-size="14.00" fill="#00f2ff">U4.4: Upgrade Stage 4 &#45; Transfinite Singularity</text>
<!-- Intent -->
<g id="node1" class="node">
<title>Intent</title>
<path fill="#161b22" stroke="#00ff00" d="M312.69,-660C312.69,-660 205.69,-660 205.69,-660 199.69,-660 193.69,-654 193.69,-648 193.69,-648 193.69,-636 193.69,-636 193.69,-630 199.69,-624 205.69,-624 205.69,-624 312.69,-624 312.69,-624 318.69,-624 324.69,-630 324.69,-636 324.69,-636 324.69,-648 324.69,-648 324.69,-654 318.69,-660 312.69,-660"/>
<text text-anchor="middle" x="259.19" y="-638.3" font-family="Times,serif" font-size="14.00" fill="#00f2ff">Pure Semantic Intent</text>
</g>
<!-- Singularity -->
<g id="node2" class="node">
<title>Singularity</title>
<path fill="#161b22" stroke="#ffff00" stroke-width="5" d="M506.56,-399.69C506.56,-399.69 332.41,-399.69 332.41,-399.69 326.41,-399.69 318.56,-405.4 316.7,-411.1 316.7,-411.1 262.9,-576.59 262.9,-576.59 261.04,-582.29 257.33,-582.29 255.47,-576.59 255.47,-576.59 201.67,-411.1 201.67,-411.1 199.81,-405.4 191.96,-399.69 185.96,-399.69 185.96,-399.69 11.81,-399.69 11.81,-399.69 5.81,-399.69 4.67,-396.17 9.53,-392.64 9.53,-392.64 150.4,-290.36 150.4,-290.36 155.26,-286.83 158.26,-277.6 156.4,-271.9 156.4,-271.9 102.6,-106.41 102.6,-106.41 100.74,-100.71 103.74,-98.53 108.6,-102.05 108.6,-102.05 249.47,-204.33 249.47,-204.33 254.33,-207.86 264.04,-207.86 268.9,-204.33 268.9,-204.33 409.77,-102.05 409.77,-102.05 414.63,-98.53 417.63,-100.71 415.77,-106.41 415.77,-106.41 361.97,-271.9 361.97,-271.9 360.11,-277.6 363.11,-286.83 367.97,-290.36 367.97,-290.36 508.85,-392.64 508.85,-392.64 513.7,-396.17 512.56,-399.69 506.56,-399.69"/>
<text text-anchor="middle" x="259.19" y="-337.8" font-family="Times,serif" font-size="14.00" fill="#00f2ff">TRANSFINITE SINGULARITY</text>
</g>
<!-- Intent&#45;&gt;Singularity -->
<g id="edge1" class="edge">
<title>Intent&#45;&gt;Singularity</title>
<path fill="none" stroke="#ff00ff" d="M259.19,-623.66C259.19,-616.85 259.19,-608.28 259.19,-598.4"/>
<polygon fill="#ff00ff" stroke="#ff00ff" points="259.19,-588.11 263.69,-598.11 259.19,-593.11 259.19,-598.11 259.19,-598.11 259.19,-598.11 259.19,-593.11 254.69,-598.11 259.19,-588.11 259.19,-588.11"/>
</g>
<!-- Flow -->
<g id="node3" class="node">
<title>Flow</title>
<path fill="#161b22" stroke="#00f2ff" d="M306.69,-59C306.69,-59 211.69,-59 211.69,-59 205.69,-59 199.69,-53 199.69,-47 199.69,-47 199.69,-35 199.69,-35 199.69,-29 205.69,-23 211.69,-23 211.69,-23 306.69,-23 306.69,-23 312.69,-23 318.69,-29 318.69,-35 318.69,-35 318.69,-47 318.69,-47 318.69,-53 312.69,-59 306.69,-59"/>
<text text-anchor="middle" x="259.19" y="-37.3" font-family="Times,serif" font-size="14.00" fill="#00f2ff">Pure Logic Stream</text>
</g>
<!-- Singularity&#45;&gt;Flow -->
<g id="edge2" class="edge">
<title>Singularity&#45;&gt;Flow</title>
<path fill="none" stroke="#ff00ff" d="M252.47,-206.09C252.26,-154.6 253.13,-100.73 255.09,-69.32"/>
<polygon fill="#ff00ff" stroke="#ff00ff" points="255.82,-59.19 259.59,-69.49 255.46,-64.17 255.1,-69.16 255.1,-69.16 255.1,-69.16 255.46,-64.17 250.61,-68.83 255.82,-59.19 255.82,-59.19"/>
</g>
<!-- Flow&#45;&gt;Singularity -->
<g id="edge3" class="edge">
<title>Flow&#45;&gt;Singularity</title>
<path fill="none" stroke="#ff00ff" stroke-dasharray="5,2" d="M262.55,-59.19C264.87,-86.3 266,-141.54 265.93,-195.95"/>
<polygon fill="#ff00ff" stroke="#ff00ff" points="265.91,-206.09 261.43,-196.08 265.92,-201.09 265.93,-196.09 265.93,-196.09 265.93,-196.09 265.92,-201.09 270.43,-196.11 265.91,-206.09 265.91,-206.09"/>
</g>
</g>
</svg>
