<?xml version="1.0" encoding="UTF-8" standalone="no"?>
<!DOCTYPE svg PUBLIC "-//W3C//DTD SVG 1.1//EN"
 "http://www.w3.org/Graphics/SVG/1.1/DTD/svg11.dtd">
<!-- Generated by graphviz version 2.43.0 (0)
 -->
<!-- Title: UpgradePath Pages: 1 -->
<svg width="498pt" height="736pt"
 viewBox="0.00 0.00 497.57 735.61" xmlns="http://www.w3.org/2000/svg" xmlns:xlink="http://www.w3.org/1999/xlink">
<g id="graph0" class="graph" transform="scale(1 1) rotate(0) translate(4 731.61)">
<title>UpgradePath</title>
<polygon fill="#0d1117" stroke="transparent" points="-4,4 -4,-731.61 493.57,-731.61 493.57,4 -4,4"/>
<text text-anchor="middle" x="244.79" y="-7.8" font-family="Helvetica,sans-Serif" font-size="14.00" fill="#00f2ff">Future State: Speculative Upgrade Path</text>
<!-- S1 -->
<g id="node1" class="node">
<title>S1</title>
<path fill="#161b22" stroke="#00ff00" d="M302.79,-727.61C302.79,-727.61 186.79,-727.61 186.79,-727.61 180.79,-727.61 174.79,-721.61 174.79,-715.61 174.79,-715.61 174.79,-701.61 174.79,-701.61 174.79,-695.61 180.79,-689.61 186.79,-689.61 186.79,-689.61 302.79,-689.61 302.79,-689.61 308.79,-689.61 314.79,-695.61 314.79,-701.61 314.79,-701.61 314.79,-715.61 314.79,-715.61 314.79,-721.61 308.79,-727.61 302.79,-727.61"/>
<text text-anchor="middle" x="244.79" y="-712.41" font-family="Times,serif" font-size="14.00" fill="#00f2ff">Stage 1: Tool&#45;Assisted</text>
<text text-anchor="middle" x="244.79" y="-697.41" font-family="Times,serif" font-size="14.00" fill="#00f2ff">(Current)</text>
</g>
<!-- S2 -->
<g id="node2" class="node">
<title>S2</title>
<path fill="#161b22" stroke="#ffff00" d="M301.29,-652.61C301.29,-652.61 188.29,-652.61 188.29,-652.61 182.29,-652.61 176.29,-646.61 176.29,-640.61 176.29,-640.61 176.29,-626.61 176.29,-626.61 176.29,-620.61 182.29,-614.61 188.29,-614.61 188.29,-614.61 301.29,-614.61 301.29,-614.61 307.29,-614.61 313.29,-620.61 313.29,-626.61 313.29,-626.61 313.29,-640.61 313.29,-640.61 313.29,-646.61 307.29,-652.61 301.29,-652.61"/>
<text text-anchor="middle" x="244.79" y="-637.41" font-family="Times,serif" font-size="14.00" fill="#00f2ff">Stage 2: Co&#45;Processor</text>
<text text-anchor="middle" x="244.79" y="-622.41" font-family="Times,serif" font-size="14.00" fill="#00f2ff">(Short&#45;term)</text>
</g>
<!-- S1&#45;&gt;S2 -->
<g id="edge1" class="edge">
<title>S1&#45;&gt;S2</title>
<path fill="none" stroke="#ff00ff" d="M244.79,-689.57C244.79,-681.49 244.79,-671.79 244.79,-662.79"/>
<polygon fill="#ff00ff" stroke="#ff00ff" points="244.79,-652.7 249.29,-662.7 244.79,-657.7 244.79,-662.7 244.79,-662.7 244.79,-662.7 244.79,-657.7 240.29,-662.7 244.79,-652.7 244.79,-652.7"/>
</g>
<!-- S3 -->
<g id="node3" class="node">
<title>S3</title>
<path fill="#161b22" stroke="#00f2ff" d="M307.29,-577.61C307.29,-577.61 182.29,-577.61 182.29,-577.61 176.29,-577.61 170.29,-571.61 170.29,-565.61 170.29,-565.61 170.29,-551.61 170.29,-551.61 170.29,-545.61 176.29,-539.61 182.29,-539.61 182.29,-539.61 307.29,-539.61 307.29,-539.61 313.29,-539.61 319.29,-545.61 319.29,-551.61 319.29,-551.61 319.29,-565.61 319.29,-565.61 319.29,-571.61 313.29,-577.61 307.29,-577.61"/>
<text text-anchor="middle" x="244.79" y="-562.41" font-family="Times,serif" font-size="14.00" fill="#00f2ff">Stage 3: Integrated Hive</text>
<text text-anchor="middle" x="244.79" y="-547.41" font-family="Times,serif" font-size="14.00" fill="#00f2ff">(Mid&#45;term)</text>
</g>
<!-- S2&#45;&gt;S3 -->
<g id="edge2" class="edge">
<title>S2&#45;&gt;S3</title>
<path fill="none" stroke="#ff00ff" d="M244.79,-614.57C244.79,-606.49 244.79,-596.79 244.79,-587.79"/>
<polygon fill="#ff00ff" stroke="#ff00ff" points="244.79,-577.7 249.29,-587.7 244.79,-582.7 244.79,-587.7 244.79,-587.7 244.79,-587.7 244.79,-582.7 240.29,-587.7 244.79,-577.7 244.79,-577.7"/>
</g>
<!-- S4 -->
<g id="node4" class="node">
<title>S4</title>
<path fill="#161b22" stroke="#ff00ff" stroke-width="3" d="M477.36,-310.72C477.36,-310.72 314.52,-310.72 314.52,-310.72 308.52,-310.72 300.67,-316.42 298.81,-322.13 298.81,-322.13 248.49,-477 248.49,-477 246.64,-482.71 242.93,-482.71 241.08,-477 241.08,-477 190.76,-322.13 190.76,-322.13 188.9,-316.42 181.05,-310.72 175.05,-310.72 175.05,-310.72 12.21,-310.72 12.21,-310.72 6.21,-310.72 5.07,-307.19 9.92,-303.66 9.92,-303.66 141.66,-207.95 141.66,-207.95 146.51,-204.42 149.51,-195.19 147.66,-189.48 147.66,-189.48 97.34,-34.61 97.34,-34.61 95.49,-28.9 98.49,-26.72 103.34,-30.25 103.34,-30.25 235.08,-125.96 235.08,-125.96 239.93,-129.49 249.64,-129.49 254.49,-125.96 254.49,-125.96 386.23,-30.25 386.23,-30.25 391.09,-26.72 394.09,-28.9 392.23,-34.61 392.23,-34.61 341.91,-189.48 341.91,-189.48 340.06,-195.19 343.06,-204.42 347.91,-207.95 347.91,-207.95 479.65,-303.66 479.65,-303.66 484.5,-307.19 483.36,-310.72 477.36,-310.72"/>
<text text-anchor="middle" x="244.79" y="-259.61" font-family="Times,serif" font-size="14.00" fill="#00f2ff">Stage 4: Transfinite Singularity</text>
<text text-anchor="middle" x="244.79" y="-244.61" font-family="Times,serif" font-size="14.00" fill="#00f2ff">(Long&#45;term)</text>
</g>
<!-- S3&#45;&gt;S4 -->
<g id="edge3" class="edge">
<title>S3&#45;&gt;S4</title>
<path fill="none" stroke="#ff00ff" d="M244.79,-539.25C244.79,-529.11 244.79,-515.31 244.79,-499.22"/>
<polygon fill="#ff00ff" stroke="#ff00ff" points="244.79,-488.93 249.29,-498.93 244.79,-493.93 244.79,-498.93 244.79,-498.93 244.79,-498.93 244.79,-493.93 240.29,-498.93 244.79,-488.93 244.79,-488.93"/>
<text text-anchor="middle" x="300.79" y="-510.41" font-family="Times,serif" font-size="14.00"> Axiom Dissolution </text>
</g>
</g>
</svg>
