<?xml version="1.0" encoding="UTF-8" standalone="no"?>
<!DOCTYPE svg PUBLIC "-//W3C//DTD SVG 1.1//EN"
 "http://www.w3.org/Graphics/SVG/1.1/DTD/svg11.dtd">
<!-- Generated by graphviz version 2.43.0 (0)
 -->
<!-- Title: WallDetection Pages: 1 -->
<svg width="398pt" height="213pt"
 viewBox="0.00 0.00 397.50 213.00" xmlns="http://www.w3.org/2000/svg" xmlns:xlink="http://www.w3.org/1999/xlink">
<g id="graph0" class="graph" transform="scale(1 1) rotate(0) translate(4 209)">
<title>WallDetection</title>
<polygon fill="#0d1117" stroke="transparent" points="-4,4 -4,-209 393.5,-209 393.5,4 -4,4"/>
<text text-anchor="middle" x="194.75" y="-7.8" font-family="Helvetica,sans-Serif" font-size="14.00" fill="#00f2ff">T12.3: Wall Detection Algorithm</text>
<!-- Entropy -->
<g id="node1" class="node">
<title>Entropy</title>
<path fill="#161b22" stroke="#ff00ff" d="M104,-205C104,-205 12,-205 12,-205 6,-205 0,-199 0,-193 0,-193 0,-179 0,-179 0,-173 6,-167 12,-167 12,-167 104,-167 104,-167 110,-167 116,-173 116,-179 116,-179 116,-193 116,-193 116,-199 110,-205 104,-205"/>
<text text-anchor="middle" x="58" y="-189.8" font-family="Times,serif" font-size="14.00" fill="#00f2ff">Token Entropy</text>
<text text-anchor="middle" x="58" y="-174.8" font-family="Times,serif" font-size="14.00" fill="#00f2ff">(Repetition Spike)</text>
</g>
<!-- Wall -->
<g id="node4" class="node">
<title>Wall</title>
<path fill="#161b22" stroke="#ff0000" stroke-width="5" d="M246.5,-131C246.5,-131 143.5,-131 143.5,-131 137.5,-131 131.5,-125 131.5,-119 131.5,-119 131.5,-107 131.5,-107 131.5,-101 137.5,-95 143.5,-95 143.5,-95 246.5,-95 246.5,-95 252.5,-95 258.5,-101 258.5,-107 258.5,-107 258.5,-119 258.5,-119 258.5,-125 252.5,-131 246.5,-131"/>
<text text-anchor="middle" x="195" y="-109.3" font-family="Times,serif" font-size="14.00" fill="#00f2ff">GÖDELIAN WALL</text>
</g>
<!-- Entropy&#45;&gt;Wall -->
<g id="edge1" class="edge">
<title>Entropy&#45;&gt;Wall</title>
<path fill="none" stroke="#ff00ff" d="M92.93,-166.9C111.18,-157.44 133.67,-145.78 152.89,-135.83"/>
<polygon fill="#ff00ff" stroke="#ff00ff" points="162.02,-131.09 155.22,-139.69 157.59,-133.39 153.15,-135.69 153.15,-135.69 153.15,-135.69 157.59,-133.39 151.08,-131.7 162.02,-131.09 162.02,-131.09"/>
</g>
<!-- Complexity -->
<g id="node2" class="node">
<title>Complexity</title>
<path fill="#161b22" stroke="#ff0000" d="M244,-205C244,-205 146,-205 146,-205 140,-205 134,-199 134,-193 134,-193 134,-179 134,-179 134,-173 140,-167 146,-167 146,-167 244,-167 244,-167 250,-167 256,-173 256,-179 256,-179 256,-193 256,-193 256,-199 250,-205 244,-205"/>
<text text-anchor="middle" x="195" y="-189.8" font-family="Times,serif" font-size="14.00" fill="#00f2ff">Code Complexity</text>
<text text-anchor="middle" x="195" y="-174.8" font-family="Times,serif" font-size="14.00" fill="#00f2ff">(Line Count Surge)</text>
</g>
<!-- Complexity&#45;&gt;Wall -->
<g id="edge2" class="edge">
<title>Complexity&#45;&gt;Wall</title>
<path fill="none" stroke="#ff00ff" d="M195,-166.72C195,-158.97 195,-149.79 195,-141.27"/>
<polygon fill="#ff00ff" stroke="#ff00ff" points="195,-131 199.5,-141 195,-136 195,-141 195,-141 195,-141 195,-136 190.5,-141 195,-131 195,-131"/>
</g>
<!-- Latency -->
<g id="node3" class="node">
<title>Latency</title>
<path fill="#161b22" stroke="#ffff00" d="M377.5,-205C377.5,-205 286.5,-205 286.5,-205 280.5,-205 274.5,-199 274.5,-193 274.5,-193 274.5,-179 274.5,-179 274.5,-173 280.5,-167 286.5,-167 286.5,-167 377.5,-167 377.5,-167 383.5,-167 389.5,-173 389.5,-179 389.5,-179 389.5,-193 389.5,-193 389.5,-199 383.5,-205 377.5,-205"/>
<text text-anchor="middle" x="332" y="-189.8" font-family="Times,serif" font-size="14.00" fill="#00f2ff">Inference Latency</text>
<text text-anchor="middle" x="332" y="-174.8" font-family="Times,serif" font-size="14.00" fill="#00f2ff">(Stagnation)</text>
</g>
<!-- Latency&#45;&gt;Wall -->
<g id="edge3" class="edge">
<title>Latency&#45;&gt;Wall</title>
<path fill="none" stroke="#ff00ff" d="M297.07,-166.9C278.82,-157.44 256.33,-145.78 237.11,-135.83"/>
<polygon fill="#ff00ff" stroke="#ff00ff" points="227.98,-131.09 238.92,-131.7 232.41,-133.39 236.85,-135.69 236.85,-135.69 236.85,-135.69 232.41,-133.39 234.78,-139.69 227.98,-131.09 227.98,-131.09"/>
</g>
<!-- Alert -->
<g id="node5" class="node">
<title>Alert</title>
<path fill="#161b22" stroke="#00ff00" d="M247,-59C247,-59 143,-59 143,-59 137,-59 131,-53 131,-47 131,-47 131,-35 131,-35 131,-29 137,-23 143,-23 143,-23 247,-23 247,-23 253,-23 259,-29 259,-35 259,-35 259,-47 259,-47 259,-53 253,-59 247,-59"/>
<text text-anchor="middle" x="195" y="-37.3" font-family="Times,serif" font-size="14.00" fill="#00f2ff">Axiom Shift Trigger</text>
</g>
<!-- Wall&#45;&gt;Alert -->
<g id="edge4" class="edge">
<title>Wall&#45;&gt;Alert</title>
<path fill="none" stroke="#ff00ff" d="M195,-94.7C195,-86.98 195,-77.71 195,-69.11"/>
<polygon fill="#ff00ff" stroke="#ff00ff" points="195,-59.1 199.5,-69.1 195,-64.1 195,-69.1 195,-69.1 195,-69.1 195,-64.1 190.5,-69.1 195,-59.1 195,-59.1"/>
</g>
</g>
</svg>
