<?xml version="1.0" encoding="UTF-8" standalone="no"?>
<!DOCTYPE svg PUBLIC "-//W3C//DTD SVG 1.1//EN"
 "http://www.w3.org/Graphics/SVG/1.1/DTD/svg11.dtd">
<!-- Generated by graphviz version 2.43.0 (0)
 -->
<!-- Title: Ampere_Neon_Arch Pages: 1 -->
<svg width="389pt" height="402pt"
 viewBox="0.00 0.00 389.00 402.25" xmlns="http://www.w3.org/2000/svg" xmlns:xlink="http://www.w3.org/1999/xlink">
<g id="graph0" class="graph" transform="scale(1 1) rotate(0) translate(4 398.25)">
<title>Ampere_Neon_Arch</title>
<polygon fill="#0a0a0a" stroke="transparent" points="-4,4 -4,-398.25 385,-398.25 385,4 -4,4"/>
<g id="clust1" class="cluster">
<title>cluster_gpu</title>
<polygon fill="#0a0a0a" stroke="#00ffff" points="8,-8 8,-174 373,-174 373,-8 8,-8"/>
<text text-anchor="middle" x="190.5" y="-158.8" font-family="Times,serif" font-size="14.00" fill="#00ffff">NVIDIA AMPERE (GA102)</text>
</g>
<!-- SM -->
<g id="node1" class="node">
<title>SM</title>
<polygon fill="#002222" stroke="#00ffff" points="320.5,-143 97.5,-143 97.5,-105 320.5,-105 320.5,-143"/>
<text text-anchor="middle" x="209" y="-127.8" font-family="Courier New" font-size="14.00" fill="#00ffff">Streaming Multiprocessors</text>
<text text-anchor="middle" x="209" y="-112.8" font-family="Courier New" font-size="14.00" fill="#00ffff">(RTX 3080)</text>
</g>
<!-- Tensor -->
<g id="node2" class="node">
<title>Tensor</title>
<polygon fill="#220022" stroke="#ff00ff" points="198,-54 16,-54 16,-16 198,-16 198,-54"/>
<text text-anchor="middle" x="107" y="-38.8" font-family="Courier New" font-size="14.00" fill="#ff00ff">3rd Gen Tensor Cores</text>
<text text-anchor="middle" x="107" y="-23.8" font-family="Courier New" font-size="14.00" fill="#ff00ff">(AI Acceleration)</text>
</g>
<!-- SM&#45;&gt;Tensor -->
<g id="edge3" class="edge">
<title>SM&#45;&gt;Tensor</title>
<path fill="none" stroke="#ff00ff" d="M187.87,-104.97C172.82,-92.14 152.42,-74.74 135.88,-60.63"/>
<polygon fill="#ff00ff" stroke="#ff00ff" points="137.99,-57.83 128.11,-54 133.44,-63.16 137.99,-57.83"/>
<text text-anchor="middle" x="197.5" y="-75.8" font-family="Courier New" font-size="14.00" fill="#ff00ff">OP_SCALE</text>
</g>
<!-- RT -->
<g id="node3" class="node">
<title>RT</title>
<polygon fill="#222200" stroke="#ffff00" points="365.5,-54 216.5,-54 216.5,-16 365.5,-16 365.5,-54"/>
<text text-anchor="middle" x="291" y="-38.8" font-family="Courier New" font-size="14.00" fill="#ffff00">2nd Gen RT Cores</text>
<text text-anchor="middle" x="291" y="-23.8" font-family="Courier New" font-size="14.00" fill="#ffff00">(Ray Tracing)</text>
</g>
<!-- SM&#45;&gt;RT -->
<g id="edge4" class="edge">
<title>SM&#45;&gt;RT</title>
<path fill="none" stroke="#ff00ff" d="M225.99,-104.97C237.86,-92.38 253.89,-75.38 267.05,-61.41"/>
<polygon fill="#ff00ff" stroke="#ff00ff" points="269.72,-63.68 274.03,-54 264.63,-58.88 269.72,-63.68"/>
<text text-anchor="middle" x="279" y="-75.8" font-family="Courier New" font-size="14.00" fill="#ff00ff">BOUNCE</text>
</g>
<!-- VRAM -->
<g id="node4" class="node">
<title>VRAM</title>
<path fill="#002200" stroke="#00ff00" d="M262.5,-262.6C262.5,-265.24 238.52,-267.38 209,-267.38 179.48,-267.38 155.5,-265.24 155.5,-262.6 155.5,-262.6 155.5,-219.65 155.5,-219.65 155.5,-217.01 179.48,-214.87 209,-214.87 238.52,-214.87 262.5,-217.01 262.5,-219.65 262.5,-219.65 262.5,-262.6 262.5,-262.6"/>
<path fill="none" stroke="#00ff00" d="M262.5,-262.6C262.5,-259.97 238.52,-257.83 209,-257.83 179.48,-257.83 155.5,-259.97 155.5,-262.6"/>
<text text-anchor="middle" x="209" y="-244.93" font-family="Courier New" font-size="14.00" fill="#00ff00">10GB GDDR6X</text>
<text text-anchor="middle" x="209" y="-229.93" font-family="Courier New" font-size="14.00" fill="#00ff00">(760 GB/s)</text>
</g>
<!-- VRAM&#45;&gt;SM -->
<g id="edge2" class="edge">
<title>VRAM&#45;&gt;SM</title>
<path fill="none" stroke="#ff00ff" d="M209,-214.86C209,-196.63 209,-172 209,-153.14"/>
<polygon fill="#ff00ff" stroke="#ff00ff" points="212.5,-153.06 209,-143.06 205.5,-153.06 212.5,-153.06"/>
<text text-anchor="middle" x="246.5" y="-185.8" font-family="Courier New" font-size="14.00" fill="#ff00ff">BANDWIDTH</text>
</g>
<!-- PCIE -->
<g id="node5" class="node">
<title>PCIE</title>
<polygon fill="#1a1a1a" stroke="#00ffff" points="209,-394.25 93,-356.25 209,-318.25 325,-356.25 209,-394.25"/>
<text text-anchor="middle" x="209" y="-360.05" font-family="Courier New" font-size="14.00" fill="#00ffff">PCIe Gen 4.0</text>
<text text-anchor="middle" x="209" y="-345.05" font-family="Courier New" font-size="14.00" fill="#00ffff">(31.5 GB/s)</text>
</g>
<!-- PCIE&#45;&gt;VRAM -->
<g id="edge1" class="edge">
<title>PCIE&#45;&gt;VRAM</title>
<path fill="none" stroke="#ff00ff" d="M209,-318.21C209,-305.22 209,-290.67 209,-277.79"/>
<polygon fill="#ff00ff" stroke="#ff00ff" points="212.5,-277.45 209,-267.45 205.5,-277.45 212.5,-277.45"/>
<text text-anchor="middle" x="246.5" y="-289.05" font-family="Courier New" font-size="14.00" fill="#ff00ff">DATA_LOAD</text>
</g>
</g>
</svg>
