<?xml version="1.0" encoding="UTF-8" standalone="no"?>
<!DOCTYPE svg PUBLIC "-//W3C//DTD SVG 1.1//EN"
 "http://www.w3.org/Graphics/SVG/1.1/DTD/svg11.dtd">
<!-- Generated by graphviz version 2.43.0 (0)
 -->
<!-- Title: Neon_Persistence Pages: 1 -->
<svg width="1075pt" height="74pt"
 viewBox="0.00 0.00 1074.57 74.17" xmlns="http://www.w3.org/2000/svg" xmlns:xlink="http://www.w3.org/1999/xlink">
<g id="graph0" class="graph" transform="scale(1 1) rotate(0) translate(4 70.17)">
<title>Neon_Persistence</title>
<polygon fill="#0a0a0a" stroke="transparent" points="-4,4 -4,-70.17 1070.57,-70.17 1070.57,4 -4,4"/>
<!-- Kernel -->
<g id="node1" class="node">
<title>Kernel</title>
<polygon fill="#111111" stroke="#00ffff" points="116,-51.08 0,-51.08 0,-15.08 116,-15.08 116,-51.08"/>
<text text-anchor="middle" x="58" y="-29.38" font-family="Courier New" font-size="14.00" fill="#00ffff">LINUX KERNEL</text>
</g>
<!-- Systemd -->
<g id="node2" class="node">
<title>Systemd</title>
<polygon fill="#002200" stroke="#00ff00" points="260,-51.08 186,-51.08 186,-15.08 260,-15.08 260,-51.08"/>
<text text-anchor="middle" x="223" y="-29.38" font-family="Courier New" font-size="14.00" fill="#00ff00">SYSTEMD</text>
</g>
<!-- Kernel&#45;&gt;Systemd -->
<g id="edge1" class="edge">
<title>Kernel&#45;&gt;Systemd</title>
<path fill="none" stroke="#00ff00" d="M116.01,-33.08C135.44,-33.08 156.92,-33.08 175.43,-33.08"/>
<polygon fill="#00ff00" stroke="#00ff00" points="175.66,-36.58 185.66,-33.08 175.66,-29.58 175.66,-36.58"/>
<text text-anchor="middle" x="151" y="-36.88" font-family="Courier New" font-size="14.00" fill="#00ff00">BOOT</text>
</g>
<!-- Service -->
<g id="node3" class="node">
<title>Service</title>
<polygon fill="#002244" stroke="#00ffff" points="536,-51.08 354,-51.08 354,-15.08 536,-15.08 536,-51.08"/>
<text text-anchor="middle" x="445" y="-29.38" font-family="Courier New" font-size="14.00" fill="#00ffff">gpu&#45;eco&#45;mode.service</text>
</g>
<!-- Systemd&#45;&gt;Service -->
<g id="edge2" class="edge">
<title>Systemd&#45;&gt;Service</title>
<path fill="none" stroke="#00ff00" d="M260.33,-33.08C283.25,-33.08 314.06,-33.08 343.89,-33.08"/>
<polygon fill="#00ff00" stroke="#00ff00" points="343.96,-36.58 353.96,-33.08 343.96,-29.58 343.96,-36.58"/>
<text text-anchor="middle" x="307" y="-36.88" font-family="Courier New" font-size="14.00" fill="#00ff00">TRIGGER</text>
</g>
<!-- Driver -->
<g id="node4" class="node">
<title>Driver</title>
<polygon fill="#222200" stroke="#ffff00" points="787,-51.08 663,-51.08 663,-15.08 787,-15.08 787,-51.08"/>
<text text-anchor="middle" x="725" y="-29.38" font-family="Courier New" font-size="14.00" fill="#ffff00">NVIDIA DRIVER</text>
</g>
<!-- Service&#45;&gt;Driver -->
<g id="edge3" class="edge">
<title>Service&#45;&gt;Driver</title>
<path fill="none" stroke="#00ff00" d="M536.26,-33.08C573.92,-33.08 617.05,-33.08 652.46,-33.08"/>
<polygon fill="#00ff00" stroke="#00ff00" points="652.71,-36.58 662.71,-33.08 652.71,-29.58 652.71,-36.58"/>
<text text-anchor="middle" x="599.5" y="-36.88" font-family="Courier New" font-size="14.00" fill="#00ff00">LOCK_CLOCKS</text>
</g>
<!-- Locked -->
<g id="node5" class="node">
<title>Locked</title>
<polygon fill="#004400" stroke="#00ff00" points="1062.36,-21.01 1062.36,-45.16 1010.47,-62.24 937.09,-62.24 885.21,-45.16 885.21,-21.01 937.09,-3.93 1010.47,-3.93 1062.36,-21.01"/>
<polygon fill="none" stroke="#00ff00" points="1066.35,-18.1 1066.35,-48.07 1011.11,-66.25 936.46,-66.25 881.22,-48.07 881.22,-18.1 936.46,0.08 1011.11,0.08 1066.35,-18.1"/>
<text text-anchor="middle" x="973.78" y="-36.88" font-family="Courier New" font-size="14.00" fill="#00ff00">LOCKED STATE</text>
<text text-anchor="middle" x="973.78" y="-21.88" font-family="Courier New" font-size="14.00" fill="#00ff00">(Durable)</text>
</g>
<!-- Driver&#45;&gt;Locked -->
<g id="edge4" class="edge">
<title>Driver&#45;&gt;Locked</title>
<path fill="none" stroke="#00ff00" d="M787,-33.08C812.17,-33.08 842.04,-33.08 870.39,-33.08"/>
<polygon fill="#00ff00" stroke="#00ff00" points="870.75,-36.58 880.75,-33.08 870.75,-29.58 870.75,-36.58"/>
<text text-anchor="middle" x="834" y="-36.88" font-family="Courier New" font-size="14.00" fill="#00ff00">PERSIST</text>
</g>
</g>
</svg>
