<?xml version="1.0" encoding="UTF-8" standalone="no"?>
<!DOCTYPE svg PUBLIC "-//W3C//DTD SVG 1.1//EN"
 "http://www.w3.org/Graphics/SVG/1.1/DTD/svg11.dtd">
<!-- Generated by graphviz version 2.43.0 (0)
 -->
<!-- Title: PatternRecognition Pages: 1 -->
<svg width="234pt" height="308pt"
 viewBox="0.00 0.00 234.00 308.00" xmlns="http://www.w3.org/2000/svg" xmlns:xlink="http://www.w3.org/1999/xlink">
<g id="graph0" class="graph" transform="scale(1 1) rotate(0) translate(4 304)">
<title>PatternRecognition</title>
<polygon fill="#0d1117" stroke="transparent" points="-4,4 -4,-304 230,-304 230,4 -4,4"/>
<text text-anchor="middle" x="113" y="-7.8" font-family="Helvetica,sans-Serif" font-size="14.00" fill="#00f2ff">T9.4: Heuristic Pattern Recognition</text>
<!-- History -->
<g id="node1" class="node">
<title>History</title>
<path fill="#161b22" stroke="#00f2ff" d="M152,-300C152,-300 74,-300 74,-300 68,-300 62,-294 62,-288 62,-288 62,-276 62,-276 62,-270 68,-264 74,-264 74,-264 152,-264 152,-264 158,-264 164,-270 164,-276 164,-276 164,-288 164,-288 164,-294 158,-300 152,-300"/>
<text text-anchor="middle" x="113" y="-278.3" font-family="Times,serif" font-size="14.00" fill="#00f2ff">Session History</text>
</g>
<!-- Analyzer -->
<g id="node2" class="node">
<title>Analyzer</title>
<path fill="#161b22" stroke="#ffff00" d="M101.16,-225.05C101.16,-225.05 15.58,-210.95 15.58,-210.95 9.66,-209.98 9.66,-208.02 15.58,-207.05 15.58,-207.05 101.16,-192.95 101.16,-192.95 107.08,-191.98 118.92,-191.98 124.84,-192.95 124.84,-192.95 210.42,-207.05 210.42,-207.05 216.34,-208.02 216.34,-209.98 210.42,-210.95 210.42,-210.95 124.84,-225.05 124.84,-225.05 118.92,-226.02 107.08,-226.02 101.16,-225.05"/>
<text text-anchor="middle" x="113" y="-205.3" font-family="Times,serif" font-size="14.00" fill="#00f2ff">Heuristic Analyzer</text>
</g>
<!-- History&#45;&gt;Analyzer -->
<g id="edge1" class="edge">
<title>History&#45;&gt;Analyzer</title>
<path fill="none" stroke="#ff00ff" d="M113,-263.81C113,-255.79 113,-246.05 113,-237.07"/>
<polygon fill="#ff00ff" stroke="#ff00ff" points="113,-227.03 117.5,-237.03 113,-232.03 113,-237.03 113,-237.03 113,-237.03 113,-232.03 108.5,-237.03 113,-227.03 113,-227.03"/>
</g>
<!-- Patterns -->
<g id="node3" class="node">
<title>Patterns</title>
<path fill="#161b22" stroke="#00ff00" d="M202.93,-154C202.93,-154 64.78,-154 64.78,-154 58.78,-154 48.24,-150.08 43.7,-146.16 43.7,-146.16 20.16,-125.84 20.16,-125.84 15.61,-121.92 17.07,-118 23.07,-118 23.07,-118 161.22,-118 161.22,-118 167.22,-118 177.76,-121.92 182.3,-125.84 182.3,-125.84 205.84,-146.16 205.84,-146.16 210.39,-150.08 208.93,-154 202.93,-154"/>
<text text-anchor="middle" x="113" y="-132.3" font-family="Times,serif" font-size="14.00" fill="#00f2ff">Success Patterns</text>
</g>
<!-- Analyzer&#45;&gt;Patterns -->
<g id="edge2" class="edge">
<title>Analyzer&#45;&gt;Patterns</title>
<path fill="none" stroke="#ff00ff" d="M113,-190.81C113,-182.79 113,-173.05 113,-164.07"/>
<polygon fill="#ff00ff" stroke="#ff00ff" points="113,-154.03 117.5,-164.03 113,-159.03 113,-164.03 113,-164.03 113,-164.03 113,-159.03 108.5,-164.03 113,-154.03 113,-154.03"/>
</g>
<!-- RefinedFramework -->
<g id="node4" class="node">
<title>RefinedFramework</title>
<path fill="#161b22" stroke="#00f2ff" d="M185.42,-42.51C185.42,-42.51 185.42,-47.49 185.42,-47.49 185.42,-49.97 183.01,-53.06 180.6,-53.65 180.6,-53.65 147.82,-61.8 147.82,-61.8 145.41,-62.4 140.51,-63 138.03,-63 138.03,-63 87.97,-63 87.97,-63 85.49,-63 80.59,-62.4 78.18,-61.8 78.18,-61.8 45.4,-53.65 45.4,-53.65 42.99,-53.06 40.58,-49.97 40.58,-47.49 40.58,-47.49 40.58,-42.51 40.58,-42.51 40.58,-40.03 42.99,-36.94 45.4,-36.35 45.4,-36.35 78.18,-28.2 78.18,-28.2 80.59,-27.6 85.49,-27 87.97,-27 87.97,-27 138.03,-27 138.03,-27 140.51,-27 145.41,-27.6 147.82,-28.2 147.82,-28.2 180.6,-36.35 180.6,-36.35 183.01,-36.94 185.42,-40.03 185.42,-42.51"/>
<path fill="none" stroke="#00f2ff" d="M189.42,-41.47C189.42,-41.47 189.42,-48.53 189.42,-48.53 189.42,-52.06 186,-56.43 182.57,-57.29 182.57,-57.29 150.33,-65.3 150.33,-65.3 146.91,-66.15 139.96,-67 136.43,-67 136.43,-67 89.57,-67 89.57,-67 86.04,-67 79.09,-66.15 75.67,-65.3 75.67,-65.3 43.43,-57.29 43.43,-57.29 40,-56.43 36.58,-52.06 36.58,-48.53 36.58,-48.53 36.58,-41.47 36.58,-41.47 36.58,-37.94 40,-33.57 43.43,-32.71 43.43,-32.71 75.67,-24.7 75.67,-24.7 79.09,-23.85 86.04,-23 89.57,-23 89.57,-23 136.43,-23 136.43,-23 139.96,-23 146.91,-23.85 150.33,-24.7 150.33,-24.7 182.57,-32.71 182.57,-32.71 186,-33.57 189.42,-37.94 189.42,-41.47"/>
<text text-anchor="middle" x="113" y="-41.3" font-family="Times,serif" font-size="14.00" fill="#00f2ff">Optimized SOP</text>
</g>
<!-- Patterns&#45;&gt;RefinedFramework -->
<g id="edge3" class="edge">
<title>Patterns&#45;&gt;RefinedFramework</title>
<path fill="none" stroke="#ff00ff" d="M113,-117.84C113,-106.44 113,-91.13 113,-77.58"/>
<polygon fill="#ff00ff" stroke="#ff00ff" points="113,-67.19 117.5,-77.19 113,-72.19 113,-77.19 113,-77.19 113,-77.19 113,-72.19 108.5,-77.19 113,-67.19 113,-67.19"/>
<text text-anchor="middle" x="151" y="-88.8" font-family="Times,serif" font-size="14.00"> Codification </text>
</g>
</g>
</svg>
