<?xml version="1.0" encoding="UTF-8" standalone="no"?>
<!DOCTYPE svg PUBLIC "-//W3C//DTD SVG 1.1//EN"
 "http://www.w3.org/Graphics/SVG/1.1/DTD/svg11.dtd">
<!-- Generated by graphviz version 2.43.0 (0)
 -->
<!-- Title: Singularity Pages: 1 -->
<svg width="528pt" height="596pt"
 viewBox="0.00 0.00 527.69 596.00" xmlns="http://www.w3.org/2000/svg" xmlns:xlink="http://www.w3.org/1999/xlink">
<g id="graph0" class="graph" transform="scale(1 1) rotate(0) translate(4 592)">
<title>Singularity</title>
<polygon fill="#0d1117" stroke="transparent" points="-4,4 -4,-592 523.69,-592 523.69,4 -4,4"/>
<text text-anchor="middle" x="259.84" y="-7.8" font-family="Helvetica,sans-Serif" font-size="14.00" fill="#00f2ff">T9.5: Transfinite System Singularity</text>
<!-- Human -->
<g id="node1" class="node">
<title>Human</title>
<path fill="#161b22" stroke="#00f2ff" d="M104.69,-588C104.69,-588 13.69,-588 13.69,-588 7.69,-588 1.69,-582 1.69,-576 1.69,-576 1.69,-564 1.69,-564 1.69,-558 7.69,-552 13.69,-552 13.69,-552 104.69,-552 104.69,-552 110.69,-552 116.69,-558 116.69,-564 116.69,-564 116.69,-576 116.69,-576 116.69,-582 110.69,-588 104.69,-588"/>
<text text-anchor="middle" x="59.19" y="-566.3" font-family="Times,serif" font-size="14.00" fill="#00f2ff">Human Core (+1)</text>
</g>
<!-- Center -->
<g id="node5" class="node">
<title>Center</title>
<path fill="#161b22" stroke="#ffff00" stroke-width="4" d="M506.56,-327.69C506.56,-327.69 332.41,-327.69 332.41,-327.69 326.41,-327.69 318.56,-333.4 316.7,-339.1 316.7,-339.1 262.9,-504.59 262.9,-504.59 261.04,-510.29 257.33,-510.29 255.47,-504.59 255.47,-504.59 201.67,-339.1 201.67,-339.1 199.81,-333.4 191.96,-327.69 185.96,-327.69 185.96,-327.69 11.81,-327.69 11.81,-327.69 5.81,-327.69 4.67,-324.17 9.53,-320.64 9.53,-320.64 150.4,-218.36 150.4,-218.36 155.26,-214.83 158.26,-205.6 156.4,-199.9 156.4,-199.9 102.6,-34.41 102.6,-34.41 100.74,-28.71 103.74,-26.53 108.6,-30.05 108.6,-30.05 249.47,-132.33 249.47,-132.33 254.33,-135.86 264.04,-135.86 268.9,-132.33 268.9,-132.33 409.77,-30.05 409.77,-30.05 414.63,-26.53 417.63,-28.71 415.77,-34.41 415.77,-34.41 361.97,-199.9 361.97,-199.9 360.11,-205.6 363.11,-214.83 367.97,-218.36 367.97,-218.36 508.85,-320.64 508.85,-320.64 513.7,-324.17 512.56,-327.69 506.56,-327.69"/>
<text text-anchor="middle" x="259.19" y="-265.8" font-family="Times,serif" font-size="14.00" fill="#00f2ff">TRANSFINITE SINGULARITY</text>
</g>
<!-- Human&#45;&gt;Center -->
<g id="edge1" class="edge">
<title>Human&#45;&gt;Center</title>
<path fill="none" stroke="#ff00ff" d="M70.8,-551.66C95.39,-514.97 154.14,-427.28 199.55,-359.5"/>
<polygon fill="#ff00ff" stroke="#ff00ff" points="205.3,-350.92 203.47,-361.73 202.52,-355.07 199.74,-359.23 199.74,-359.23 199.74,-359.23 202.52,-355.07 196,-356.72 205.3,-350.92 205.3,-350.92"/>
</g>
<!-- AI -->
<g id="node2" class="node">
<title>AI</title>
<path fill="#161b22" stroke="#00f2ff" d="M235.19,-588C235.19,-588 147.19,-588 147.19,-588 141.19,-588 135.19,-582 135.19,-576 135.19,-576 135.19,-564 135.19,-564 135.19,-558 141.19,-552 147.19,-552 147.19,-552 235.19,-552 235.19,-552 241.19,-552 247.19,-558 247.19,-564 247.19,-564 247.19,-576 247.19,-576 247.19,-582 241.19,-588 235.19,-588"/>
<text text-anchor="middle" x="191.19" y="-566.3" font-family="Times,serif" font-size="14.00" fill="#00f2ff">AI Collective (ω)</text>
</g>
<!-- AI&#45;&gt;Center -->
<g id="edge2" class="edge">
<title>AI&#45;&gt;Center</title>
<path fill="none" stroke="#ff00ff" d="M195.14,-551.66C200.95,-526.12 212.4,-475.87 224.03,-424.82"/>
<polygon fill="#ff00ff" stroke="#ff00ff" points="226.28,-414.95 228.45,-425.7 225.17,-419.82 224.06,-424.7 224.06,-424.7 224.06,-424.7 225.17,-419.82 219.67,-423.7 226.28,-414.95 226.28,-414.95"/>
</g>
<!-- Tools -->
<g id="node3" class="node">
<title>Tools</title>
<path fill="#161b22" stroke="#00f2ff" d="M376.69,-588C376.69,-588 277.69,-588 277.69,-588 271.69,-588 265.69,-582 265.69,-576 265.69,-576 265.69,-564 265.69,-564 265.69,-558 271.69,-552 277.69,-552 277.69,-552 376.69,-552 376.69,-552 382.69,-552 388.69,-558 388.69,-564 388.69,-564 388.69,-576 388.69,-576 388.69,-582 382.69,-588 376.69,-588"/>
<text text-anchor="middle" x="327.19" y="-566.3" font-family="Times,serif" font-size="14.00" fill="#00f2ff">Automated Tooling</text>
</g>
<!-- Tools&#45;&gt;Center -->
<g id="edge3" class="edge">
<title>Tools&#45;&gt;Center</title>
<path fill="none" stroke="#ff00ff" d="M323.24,-551.66C317.42,-526.12 305.97,-475.87 294.34,-424.82"/>
<polygon fill="#ff00ff" stroke="#ff00ff" points="292.09,-414.95 298.7,-423.7 293.2,-419.82 294.31,-424.7 294.31,-424.7 294.31,-424.7 293.2,-419.82 289.92,-425.7 292.09,-414.95 292.09,-414.95"/>
</g>
<!-- Axioms -->
<g id="node4" class="node">
<title>Axioms</title>
<path fill="#161b22" stroke="#00f2ff" d="M507.69,-588C507.69,-588 418.69,-588 418.69,-588 412.69,-588 406.69,-582 406.69,-576 406.69,-576 406.69,-564 406.69,-564 406.69,-558 412.69,-552 418.69,-552 418.69,-552 507.69,-552 507.69,-552 513.69,-552 519.69,-558 519.69,-564 519.69,-564 519.69,-576 519.69,-576 519.69,-582 513.69,-588 507.69,-588"/>
<text text-anchor="middle" x="463.19" y="-566.3" font-family="Times,serif" font-size="14.00" fill="#00f2ff">Dynamic Axioms</text>
</g>
<!-- Axioms&#45;&gt;Center -->
<g id="edge4" class="edge">
<title>Axioms&#45;&gt;Center</title>
<path fill="none" stroke="#ff00ff" d="M451.34,-551.66C426.14,-514.79 365.74,-426.42 319.33,-358.51"/>
<polygon fill="#ff00ff" stroke="#ff00ff" points="313.46,-349.92 322.82,-355.63 316.28,-354.04 319.1,-358.17 319.1,-358.17 319.1,-358.17 316.28,-354.04 315.39,-360.71 313.46,-349.92 313.46,-349.92"/>
</g>
</g>
</svg>
