<?xml version="1.0" encoding="UTF-8" standalone="no"?>
<!DOCTYPE svg PUBLIC "-//W3C//DTD SVG 1.1//EN"
 "http://www.w3.org/Graphics/SVG/1.1/DTD/svg11.dtd">
<!-- Generated by graphviz version 2.43.0 (0)
 -->
<!-- Title: ToolCreation Pages: 1 -->
<svg width="258pt" height="283pt"
 viewBox="0.00 0.00 258.00 283.00" xmlns="http://www.w3.org/2000/svg" xmlns:xlink="http://www.w3.org/1999/xlink">
<g id="graph0" class="graph" transform="scale(1 1) rotate(0) translate(4 279)">
<title>ToolCreation</title>
<polygon fill="#0d1117" stroke="transparent" points="-4,4 -4,-279 254,-279 254,4 -4,4"/>
<text text-anchor="middle" x="125" y="-7.8" font-family="Helvetica,sans-Serif" font-size="14.00" fill="#00f2ff">T9.2: Tool Creation &amp; Automation Loop</text>
<!-- ManualProcess -->
<g id="node1" class="node">
<title>ManualProcess</title>
<path fill="#161b22" stroke="#ff0000" d="M186.5,-275C186.5,-275 63.5,-275 63.5,-275 57.5,-275 51.5,-269 51.5,-263 51.5,-263 51.5,-251 51.5,-251 51.5,-245 57.5,-239 63.5,-239 63.5,-239 186.5,-239 186.5,-239 192.5,-239 198.5,-245 198.5,-251 198.5,-251 198.5,-263 198.5,-263 198.5,-269 192.5,-275 186.5,-275"/>
<text text-anchor="middle" x="125" y="-253.3" font-family="Times,serif" font-size="14.00" fill="#00f2ff">Manual Repetitive Task</text>
</g>
<!-- CodeGeneration -->
<g id="node2" class="node">
<title>CodeGeneration</title>
<path fill="#161b22" stroke="#00f2ff" d="M166,-203C166,-203 84,-203 84,-203 78,-203 72,-197 72,-191 72,-191 72,-179 72,-179 72,-173 78,-167 84,-167 84,-167 166,-167 166,-167 172,-167 178,-173 178,-179 178,-179 178,-191 178,-191 178,-197 172,-203 166,-203"/>
<text text-anchor="middle" x="125" y="-181.3" font-family="Times,serif" font-size="14.00" fill="#00f2ff">AI Scripting (ω)</text>
</g>
<!-- ManualProcess&#45;&gt;CodeGeneration -->
<g id="edge1" class="edge">
<title>ManualProcess&#45;&gt;CodeGeneration</title>
<path fill="none" stroke="#ff00ff" d="M125,-238.7C125,-230.98 125,-221.71 125,-213.11"/>
<polygon fill="#ff00ff" stroke="#ff00ff" points="125,-203.1 129.5,-213.1 125,-208.1 125,-213.1 125,-213.1 125,-213.1 125,-208.1 120.5,-213.1 125,-203.1 125,-203.1"/>
</g>
<!-- NewTool -->
<g id="node3" class="node">
<title>NewTool</title>
<polygon fill="#161b22" stroke="#00ff00" points="166,-131 78,-131 78,-95 172,-95 172,-125 166,-131"/>
<polyline fill="none" stroke="#00ff00" points="166,-131 166,-125 "/>
<polyline fill="none" stroke="#00ff00" points="172,-125 166,-125 "/>
<text text-anchor="middle" x="125" y="-109.3" font-family="Times,serif" font-size="14.00" fill="#00f2ff">tools/utility.sh</text>
</g>
<!-- CodeGeneration&#45;&gt;NewTool -->
<g id="edge2" class="edge">
<title>CodeGeneration&#45;&gt;NewTool</title>
<path fill="none" stroke="#ff00ff" d="M125,-166.7C125,-158.98 125,-149.71 125,-141.11"/>
<polygon fill="#ff00ff" stroke="#ff00ff" points="125,-131.1 129.5,-141.1 125,-136.1 125,-141.1 125,-141.1 125,-141.1 125,-136.1 120.5,-141.1 125,-131.1 125,-131.1"/>
</g>
<!-- Automation -->
<g id="node4" class="node">
<title>Automation</title>
<path fill="#161b22" stroke="#00f2ff" d="M175.5,-59C175.5,-59 74.5,-59 74.5,-59 68.5,-59 62.5,-53 62.5,-47 62.5,-47 62.5,-35 62.5,-35 62.5,-29 68.5,-23 74.5,-23 74.5,-23 175.5,-23 175.5,-23 181.5,-23 187.5,-29 187.5,-35 187.5,-35 187.5,-47 187.5,-47 187.5,-53 181.5,-59 175.5,-59"/>
<text text-anchor="middle" x="125" y="-37.3" font-family="Times,serif" font-size="14.00" fill="#00f2ff">Formal Automation</text>
</g>
<!-- NewTool&#45;&gt;Automation -->
<g id="edge3" class="edge">
<title>NewTool&#45;&gt;Automation</title>
<path fill="none" stroke="#ff00ff" d="M125,-94.7C125,-86.98 125,-77.71 125,-69.11"/>
<polygon fill="#ff00ff" stroke="#ff00ff" points="125,-59.1 129.5,-69.1 125,-64.1 125,-69.1 125,-69.1 125,-69.1 125,-64.1 120.5,-69.1 125,-59.1 125,-59.1"/>
</g>
</g>
</svg>
