<?xml version="1.0" encoding="UTF-8" standalone="no"?>
<!DOCTYPE svg PUBLIC "-//W3C//DTD SVG 1.1//EN"
 "http://www.w3.org/Graphics/SVG/1.1/DTD/svg11.dtd">
<!-- Generated by graphviz version 2.43.0 (0)
 -->
<!-- Title: SkillActivation Pages: 1 -->
<svg width="289pt" height="291pt"
 viewBox="0.00 0.00 289.00 291.00" xmlns="http://www.w3.org/2000/svg" xmlns:xlink="http://www.w3.org/1999/xlink">
<g id="graph0" class="graph" transform="scale(1 1) rotate(0) translate(4 287)">
<title>SkillActivation</title>
<polygon fill="#0d1117" stroke="transparent" points="-4,4 -4,-287 285,-287 285,4 -4,4"/>
<text text-anchor="middle" x="140.5" y="-7.8" font-family="Helvetica,sans-Serif" font-size="14.00" fill="#00f2ff">T9.1: Skill Activation &amp; Capability Expansion</text>
<!-- Agent -->
<g id="node1" class="node">
<title>Agent</title>
<path fill="#161b22" stroke="#00f2ff" d="M162,-283C162,-283 119,-283 119,-283 113,-283 107,-277 107,-271 107,-271 107,-259 107,-259 107,-253 113,-247 119,-247 119,-247 162,-247 162,-247 168,-247 174,-253 174,-259 174,-259 174,-271 174,-271 174,-277 168,-283 162,-283"/>
<text text-anchor="middle" x="140.5" y="-261.3" font-family="Times,serif" font-size="14.00" fill="#00f2ff">AI Agent</text>
</g>
<!-- Trigger -->
<g id="node2" class="node">
<title>Trigger</title>
<polygon fill="#161b22" stroke="#00ff00" points="173,-205 96,-205 96,-181 173,-181 185,-193 173,-205"/>
<text text-anchor="middle" x="140.5" y="-189.3" font-family="Times,serif" font-size="14.00" fill="#00f2ff">activate_skill</text>
</g>
<!-- Agent&#45;&gt;Trigger -->
<g id="edge1" class="edge">
<title>Agent&#45;&gt;Trigger</title>
<path fill="none" stroke="#ff00ff" d="M140.5,-246.7C140.5,-238.98 140.5,-229.71 140.5,-221.11"/>
<polygon fill="#ff00ff" stroke="#ff00ff" points="140.5,-211.1 145,-221.1 140.5,-216.1 140.5,-221.1 140.5,-221.1 140.5,-221.1 140.5,-216.1 136,-221.1 140.5,-211.1 140.5,-211.1"/>
</g>
<!-- NewLogic -->
<g id="node3" class="node">
<title>NewLogic</title>
<polygon fill="#161b22" stroke="#ffff00" points="219.5,-139 55.5,-139 55.5,-103 225.5,-103 225.5,-133 219.5,-139"/>
<polyline fill="none" stroke="#ffff00" points="219.5,-139 219.5,-133 "/>
<polyline fill="none" stroke="#ffff00" points="225.5,-133 219.5,-133 "/>
<text text-anchor="middle" x="140.5" y="-117.3" font-family="Times,serif" font-size="14.00" fill="#00f2ff">Expert Procedural Guidance</text>
</g>
<!-- Trigger&#45;&gt;NewLogic -->
<g id="edge2" class="edge">
<title>Trigger&#45;&gt;NewLogic</title>
<path fill="none" stroke="#ff00ff" d="M140.5,-174.7C140.5,-166.98 140.5,-157.71 140.5,-149.11"/>
<polygon fill="#ff00ff" stroke="#ff00ff" points="140.5,-139.1 145,-149.1 140.5,-144.1 140.5,-149.1 140.5,-149.1 140.5,-149.1 140.5,-144.1 136,-149.1 140.5,-139.1 140.5,-139.1"/>
</g>
<!-- Power -->
<g id="node4" class="node">
<title>Power</title>
<path fill="#161b22" stroke="#00f2ff" d="M245.15,-42.51C245.15,-42.51 245.15,-47.49 245.15,-47.49 245.15,-49.97 242.7,-52.88 240.25,-53.3 240.25,-53.3 188.75,-62.16 188.75,-62.16 186.3,-62.58 181.36,-63 178.88,-63 178.88,-63 102.12,-63 102.12,-63 99.64,-63 94.7,-62.58 92.25,-62.16 92.25,-62.16 40.75,-53.3 40.75,-53.3 38.3,-52.88 35.85,-49.97 35.85,-47.49 35.85,-47.49 35.85,-42.51 35.85,-42.51 35.85,-40.03 38.3,-37.12 40.75,-36.7 40.75,-36.7 92.25,-27.84 92.25,-27.84 94.7,-27.42 99.64,-27 102.12,-27 102.12,-27 178.88,-27 178.88,-27 181.36,-27 186.3,-27.42 188.75,-27.84 188.75,-27.84 240.25,-36.7 240.25,-36.7 242.7,-37.12 245.15,-40.03 245.15,-42.51"/>
<path fill="none" stroke="#00f2ff" d="M249.14,-41.39C249.14,-41.39 249.14,-48.61 249.14,-48.61 249.14,-52.22 245.58,-56.44 242.03,-57.05 242.03,-57.05 191.3,-65.78 191.3,-65.78 187.74,-66.39 180.58,-67 176.97,-67 176.97,-67 104.03,-67 104.03,-67 100.42,-67 93.26,-66.39 89.7,-65.78 89.7,-65.78 38.97,-57.05 38.97,-57.05 35.42,-56.44 31.86,-52.22 31.86,-48.61 31.86,-48.61 31.86,-41.39 31.86,-41.39 31.86,-37.78 35.42,-33.56 38.97,-32.95 38.97,-32.95 89.7,-24.22 89.7,-24.22 93.26,-23.61 100.42,-23 104.03,-23 104.03,-23 176.97,-23 176.97,-23 180.58,-23 187.74,-23.61 191.3,-24.22 191.3,-24.22 242.03,-32.95 242.03,-32.95 245.58,-33.56 249.14,-37.78 249.14,-41.39"/>
<text text-anchor="middle" x="140.5" y="-41.3" font-family="Times,serif" font-size="14.00" fill="#00f2ff">Augmented Capabilities</text>
</g>
<!-- NewLogic&#45;&gt;Power -->
<g id="edge3" class="edge">
<title>NewLogic&#45;&gt;Power</title>
<path fill="none" stroke="#ff00ff" d="M140.5,-102.84C140.5,-95.16 140.5,-85.88 140.5,-77.05"/>
<polygon fill="#ff00ff" stroke="#ff00ff" points="140.5,-67.03 145,-77.03 140.5,-72.03 140.5,-77.03 140.5,-77.03 140.5,-77.03 140.5,-72.03 136,-77.03 140.5,-67.03 140.5,-67.03"/>
</g>
</g>
</svg>
