<?xml version="1.0" encoding="UTF-8" standalone="no"?>
<!DOCTYPE svg PUBLIC "-//W3C//DTD SVG 1.1//EN"
 "http://www.w3.org/Graphics/SVG/1.1/DTD/svg11.dtd">
<!-- Generated by graphviz version 2.43.0 (0)
 -->
<!-- Title: KnowledgeIngestion Pages: 1 -->
<svg width="248pt" height="283pt"
 viewBox="0.00 0.00 248.00 283.00" xmlns="http://www.w3.org/2000/svg" xmlns:xlink="http://www.w3.org/1999/xlink">
<g id="graph0" class="graph" transform="scale(1 1) rotate(0) translate(4 279)">
<title>KnowledgeIngestion</title>
<polygon fill="#0d1117" stroke="transparent" points="-4,4 -4,-279 244,-279 244,4 -4,4"/>
<text text-anchor="middle" x="120" y="-7.8" font-family="Helvetica,sans-Serif" font-size="14.00" fill="#00f2ff">T9.3: Recursive Knowledge Ingestion</text>
<!-- Source -->
<g id="node1" class="node">
<title>Source</title>
<path fill="#161b22" stroke="#00f2ff" d="M183,-275C183,-275 57,-275 57,-275 51,-275 45,-269 45,-263 45,-263 45,-251 45,-251 45,-245 51,-239 57,-239 57,-239 183,-239 183,-239 189,-239 195,-245 195,-251 195,-251 195,-263 195,-263 195,-269 189,-275 183,-275"/>
<text text-anchor="middle" x="120" y="-253.3" font-family="Times,serif" font-size="14.00" fill="#00f2ff">External Documentation</text>
</g>
<!-- Fetch -->
<g id="node2" class="node">
<title>Fetch</title>
<polygon fill="#161b22" stroke="#00f2ff" points="174,-197 54,-197 54,-173 174,-173 186,-185 174,-197"/>
<text text-anchor="middle" x="120" y="-181.3" font-family="Times,serif" font-size="14.00" fill="#00f2ff">web_fetch / read_file</text>
</g>
<!-- Source&#45;&gt;Fetch -->
<g id="edge1" class="edge">
<title>Source&#45;&gt;Fetch</title>
<path fill="none" stroke="#ff00ff" d="M120,-238.7C120,-230.98 120,-221.71 120,-213.11"/>
<polygon fill="#ff00ff" stroke="#ff00ff" points="120,-203.1 124.5,-213.1 120,-208.1 120,-213.1 120,-213.1 120,-213.1 120,-208.1 115.5,-213.1 120,-203.1 120,-203.1"/>
</g>
<!-- Consolidation -->
<g id="node3" class="node">
<title>Consolidation</title>
<path fill="#161b22" stroke="#00f2ff" d="M225.42,-131C225.42,-131 62.63,-131 62.63,-131 56.63,-131 45.83,-127.4 41.03,-123.81 41.03,-123.81 12.18,-102.19 12.18,-102.19 7.38,-98.6 8.58,-95 14.58,-95 14.58,-95 177.37,-95 177.37,-95 183.37,-95 194.17,-98.6 198.97,-102.19 198.97,-102.19 227.82,-123.81 227.82,-123.81 232.62,-127.4 231.42,-131 225.42,-131"/>
<text text-anchor="middle" x="120" y="-109.3" font-family="Times,serif" font-size="14.00" fill="#00f2ff">Semantic Synthesis</text>
</g>
<!-- Fetch&#45;&gt;Consolidation -->
<g id="edge2" class="edge">
<title>Fetch&#45;&gt;Consolidation</title>
<path fill="none" stroke="#ff00ff" d="M120,-166.7C120,-158.98 120,-149.71 120,-141.11"/>
<polygon fill="#ff00ff" stroke="#ff00ff" points="120,-131.1 124.5,-141.1 120,-136.1 120,-141.1 120,-141.1 120,-141.1 120,-136.1 115.5,-141.1 120,-131.1 120,-131.1"/>
</g>
<!-- KnowledgeBase -->
<g id="node4" class="node">
<title>KnowledgeBase</title>
<path fill="#161b22" stroke="#00ff00" d="M214.5,-55.73C214.5,-57.53 172.14,-59 120,-59 67.86,-59 25.5,-57.53 25.5,-55.73 25.5,-55.73 25.5,-26.27 25.5,-26.27 25.5,-24.47 67.86,-23 120,-23 172.14,-23 214.5,-24.47 214.5,-26.27 214.5,-26.27 214.5,-55.73 214.5,-55.73"/>
<path fill="none" stroke="#00ff00" d="M214.5,-55.73C214.5,-53.92 172.14,-52.45 120,-52.45 67.86,-52.45 25.5,-53.92 25.5,-55.73"/>
<text text-anchor="middle" x="120" y="-37.3" font-family="Times,serif" font-size="14.00" fill="#00f2ff">GEMINI.md / Private Memory</text>
</g>
<!-- Consolidation&#45;&gt;KnowledgeBase -->
<g id="edge3" class="edge">
<title>Consolidation&#45;&gt;KnowledgeBase</title>
<path fill="none" stroke="#ff00ff" d="M120,-94.7C120,-86.98 120,-77.71 120,-69.11"/>
<polygon fill="#ff00ff" stroke="#ff00ff" points="120,-59.1 124.5,-69.1 120,-64.1 120,-69.1 120,-69.1 120,-69.1 120,-64.1 115.5,-69.1 120,-59.1 120,-59.1"/>
</g>
</g>
</svg>
