<?xml version="1.0" encoding="UTF-8" standalone="no"?>
<!DOCTYPE svg PUBLIC "-//W3C//DTD SVG 1.1//EN"
 "http://www.w3.org/Graphics/SVG/1.1/DTD/svg11.dtd">
<!-- Generated by graphviz version 2.43.0 (0)
 -->
<!-- Title: AxiomConflict Pages: 1 -->
<svg width="244pt" height="213pt"
 viewBox="0.00 0.00 244.33 213.00" xmlns="http://www.w3.org/2000/svg" xmlns:xlink="http://www.w3.org/1999/xlink">
<g id="graph0" class="graph" transform="scale(1 1) rotate(0) translate(4 209)">
<title>AxiomConflict</title>
<polygon fill="#0d1117" stroke="transparent" points="-4,4 -4,-209 240.33,-209 240.33,4 -4,4"/>
<text text-anchor="middle" x="118.16" y="-7.8" font-family="Helvetica,sans-Serif" font-size="14.00" fill="#00f2ff">T7.1: Axiom Conflict &amp; Resolution</text>
<!-- OldAxiom -->
<g id="node1" class="node">
<title>OldAxiom</title>
<path fill="#161b22" stroke="#ff0000" d="M93.66,-205C93.66,-205 44.66,-205 44.66,-205 38.66,-205 32.66,-199 32.66,-193 32.66,-193 32.66,-179 32.66,-179 32.66,-173 38.66,-167 44.66,-167 44.66,-167 93.66,-167 93.66,-167 99.66,-167 105.66,-173 105.66,-179 105.66,-179 105.66,-193 105.66,-193 105.66,-199 99.66,-205 93.66,-205"/>
<text text-anchor="middle" x="69.16" y="-189.8" font-family="Times,serif" font-size="14.00" fill="#00f2ff">Axiom A</text>
<text text-anchor="middle" x="69.16" y="-174.8" font-family="Times,serif" font-size="14.00" fill="#00f2ff">(The Past)</text>
</g>
<!-- Collision -->
<g id="node3" class="node">
<title>Collision</title>
<path fill="#161b22" stroke="#00f2ff" d="M164.16,-131C164.16,-131 72.16,-131 72.16,-131 66.16,-131 60.16,-125 60.16,-119 60.16,-119 60.16,-107 60.16,-107 60.16,-101 66.16,-95 72.16,-95 72.16,-95 164.16,-95 164.16,-95 170.16,-95 176.16,-101 176.16,-107 176.16,-107 176.16,-119 176.16,-119 176.16,-125 170.16,-131 164.16,-131"/>
<text text-anchor="middle" x="118.16" y="-109.3" font-family="Times,serif" font-size="14.00" fill="#00f2ff">Structural Friction</text>
</g>
<!-- OldAxiom&#45;&gt;Collision -->
<g id="edge1" class="edge">
<title>OldAxiom&#45;&gt;Collision</title>
<path fill="none" stroke="#ff00ff" d="M81.78,-166.72C87.54,-158.37 94.46,-148.35 100.7,-139.3"/>
<polygon fill="#ff00ff" stroke="#ff00ff" points="106.43,-131 104.45,-141.79 103.59,-135.12 100.75,-139.23 100.75,-139.23 100.75,-139.23 103.59,-135.12 97.05,-136.68 106.43,-131 106.43,-131"/>
</g>
<!-- NewAxiom -->
<g id="node2" class="node">
<title>NewAxiom</title>
<path fill="#161b22" stroke="#00ff00" d="M198.16,-205C198.16,-205 136.16,-205 136.16,-205 130.16,-205 124.16,-199 124.16,-193 124.16,-193 124.16,-179 124.16,-179 124.16,-173 130.16,-167 136.16,-167 136.16,-167 198.16,-167 198.16,-167 204.16,-167 210.16,-173 210.16,-179 210.16,-179 210.16,-193 210.16,-193 210.16,-199 204.16,-205 198.16,-205"/>
<text text-anchor="middle" x="167.16" y="-189.8" font-family="Times,serif" font-size="14.00" fill="#00f2ff">Axiom B</text>
<text text-anchor="middle" x="167.16" y="-174.8" font-family="Times,serif" font-size="14.00" fill="#00f2ff">(The Future)</text>
</g>
<!-- NewAxiom&#45;&gt;Collision -->
<g id="edge2" class="edge">
<title>NewAxiom&#45;&gt;Collision</title>
<path fill="none" stroke="#ff00ff" d="M154.55,-166.72C148.79,-158.37 141.87,-148.35 135.62,-139.3"/>
<polygon fill="#ff00ff" stroke="#ff00ff" points="129.9,-131 139.28,-136.68 132.74,-135.12 135.58,-139.23 135.58,-139.23 135.58,-139.23 132.74,-135.12 131.88,-141.79 129.9,-131 129.9,-131"/>
</g>
<!-- Resolution -->
<g id="node4" class="node">
<title>Resolution</title>
<path fill="#161b22" stroke="#ffff00" d="M224.49,-59C224.49,-59 60.26,-59 60.26,-59 54.26,-59 43.44,-55.42 38.63,-51.84 38.63,-51.84 9.47,-30.16 9.47,-30.16 4.65,-26.58 5.84,-23 11.84,-23 11.84,-23 176.07,-23 176.07,-23 182.07,-23 192.89,-26.58 197.7,-30.16 197.7,-30.16 226.86,-51.84 226.86,-51.84 231.68,-55.42 230.49,-59 224.49,-59"/>
<text text-anchor="middle" x="118.16" y="-37.3" font-family="Times,serif" font-size="14.00" fill="#00f2ff">Axiom Substitution</text>
</g>
<!-- Collision&#45;&gt;Resolution -->
<g id="edge3" class="edge">
<title>Collision&#45;&gt;Resolution</title>
<path fill="none" stroke="#ff00ff" d="M118.16,-94.7C118.16,-86.98 118.16,-77.71 118.16,-69.11"/>
<polygon fill="#ff00ff" stroke="#ff00ff" points="118.16,-59.1 122.66,-69.1 118.16,-64.1 118.16,-69.1 118.16,-69.1 118.16,-69.1 118.16,-64.1 113.66,-69.1 118.16,-59.1 118.16,-59.1"/>
</g>
</g>
</svg>
