<?xml version="1.0" encoding="UTF-8" standalone="no"?>
<!DOCTYPE svg PUBLIC "-//W3C//DTD SVG 1.1//EN"
 "http://www.w3.org/Graphics/SVG/1.1/DTD/svg11.dtd">
<!-- Generated by graphviz version 2.43.0 (0)
 -->
<!-- Title: AxiomSelection Pages: 1 -->
<svg width="240pt" height="308pt"
 viewBox="0.00 0.00 239.63 308.00" xmlns="http://www.w3.org/2000/svg" xmlns:xlink="http://www.w3.org/1999/xlink">
<g id="graph0" class="graph" transform="scale(1 1) rotate(0) translate(4 304)">
<title>AxiomSelection</title>
<polygon fill="#0d1117" stroke="transparent" points="-4,4 -4,-304 235.63,-304 235.63,4 -4,4"/>
<text text-anchor="middle" x="115.81" y="-7.8" font-family="Helvetica,sans-Serif" font-size="14.00" fill="#00f2ff">T7.2: Axiom Selection Process</text>
<!-- PotentialAxioms -->
<g id="node1" class="node">
<title>PotentialAxioms</title>
<path fill="#161b22" stroke="#00f2ff" d="M163.31,-300C163.31,-300 68.31,-300 68.31,-300 62.31,-300 56.31,-294 56.31,-288 56.31,-288 56.31,-276 56.31,-276 56.31,-270 62.31,-264 68.31,-264 68.31,-264 163.31,-264 163.31,-264 169.31,-264 175.31,-270 175.31,-276 175.31,-276 175.31,-288 175.31,-288 175.31,-294 169.31,-300 163.31,-300"/>
<text text-anchor="middle" x="115.81" y="-278.3" font-family="Times,serif" font-size="14.00" fill="#00f2ff">Axiom Candidates</text>
</g>
<!-- Human -->
<g id="node2" class="node">
<title>Human</title>
<path fill="#161b22" stroke="#00ff00" d="M170.31,-227C170.31,-227 61.31,-227 61.31,-227 55.31,-227 49.31,-221 49.31,-215 49.31,-215 49.31,-203 49.31,-203 49.31,-197 55.31,-191 61.31,-191 61.31,-191 170.31,-191 170.31,-191 176.31,-191 182.31,-197 182.31,-203 182.31,-203 182.31,-215 182.31,-215 182.31,-221 176.31,-227 170.31,-227"/>
<text text-anchor="middle" x="115.81" y="-205.3" font-family="Times,serif" font-size="14.00" fill="#00f2ff">Human Selector (+1)</text>
</g>
<!-- PotentialAxioms&#45;&gt;Human -->
<g id="edge1" class="edge">
<title>PotentialAxioms&#45;&gt;Human</title>
<path fill="none" stroke="#ff00ff" d="M115.81,-263.81C115.81,-255.79 115.81,-246.05 115.81,-237.07"/>
<polygon fill="#ff00ff" stroke="#ff00ff" points="115.81,-227.03 120.31,-237.03 115.81,-232.03 115.81,-237.03 115.81,-237.03 115.81,-237.03 115.81,-232.03 111.31,-237.03 115.81,-227.03 115.81,-227.03"/>
</g>
<!-- Criteria -->
<g id="node3" class="node">
<title>Criteria</title>
<path fill="#161b22" stroke="#00f2ff" d="M103.96,-152.15C103.96,-152.15 12.04,-137.85 12.04,-137.85 6.11,-136.92 6.11,-135.08 12.04,-134.15 12.04,-134.15 103.96,-119.85 103.96,-119.85 109.89,-118.92 121.74,-118.92 127.67,-119.85 127.67,-119.85 219.58,-134.15 219.58,-134.15 225.51,-135.08 225.51,-136.92 219.58,-137.85 219.58,-137.85 127.67,-152.15 127.67,-152.15 121.74,-153.08 109.89,-153.08 103.96,-152.15"/>
<text text-anchor="middle" x="115.81" y="-132.3" font-family="Times,serif" font-size="14.00" fill="#00f2ff">Heuristic Suitability</text>
</g>
<!-- Human&#45;&gt;Criteria -->
<g id="edge2" class="edge">
<title>Human&#45;&gt;Criteria</title>
<path fill="none" stroke="#ff00ff" d="M115.81,-190.81C115.81,-182.79 115.81,-173.05 115.81,-164.07"/>
<polygon fill="#ff00ff" stroke="#ff00ff" points="115.81,-154.03 120.31,-164.03 115.81,-159.03 115.81,-164.03 115.81,-164.03 115.81,-164.03 115.81,-159.03 111.31,-164.03 115.81,-154.03 115.81,-154.03"/>
</g>
<!-- Selected -->
<g id="node4" class="node">
<title>Selected</title>
<path fill="#161b22" stroke="#ffff00" d="M195.3,-42.51C195.3,-42.51 195.3,-47.49 195.3,-47.49 195.3,-49.97 192.88,-53 190.46,-53.55 190.46,-53.55 153.59,-61.9 153.59,-61.9 151.16,-62.45 146.25,-63 143.77,-63 143.77,-63 87.86,-63 87.86,-63 85.37,-63 80.46,-62.45 78.04,-61.9 78.04,-61.9 41.17,-53.55 41.17,-53.55 38.75,-53 36.32,-49.97 36.32,-47.49 36.32,-47.49 36.32,-42.51 36.32,-42.51 36.32,-40.03 38.75,-37 41.17,-36.45 41.17,-36.45 78.04,-28.1 78.04,-28.1 80.46,-27.55 85.37,-27 87.86,-27 87.86,-27 143.77,-27 143.77,-27 146.25,-27 151.16,-27.55 153.59,-28.1 153.59,-28.1 190.46,-36.45 190.46,-36.45 192.88,-37 195.3,-40.03 195.3,-42.51"/>
<path fill="none" stroke="#ffff00" d="M199.3,-41.45C199.3,-41.45 199.3,-48.55 199.3,-48.55 199.3,-52.1 195.84,-56.44 192.38,-57.22 192.38,-57.22 156.11,-65.43 156.11,-65.43 152.65,-66.22 145.64,-67 142.09,-67 142.09,-67 89.54,-67 89.54,-67 85.99,-67 78.98,-66.22 75.52,-65.43 75.52,-65.43 39.25,-57.22 39.25,-57.22 35.79,-56.44 32.32,-52.1 32.32,-48.55 32.32,-48.55 32.32,-41.45 32.32,-41.45 32.32,-37.9 35.79,-33.56 39.25,-32.78 39.25,-32.78 75.52,-24.57 75.52,-24.57 78.98,-23.78 85.99,-23 89.54,-23 89.54,-23 142.09,-23 142.09,-23 145.64,-23 152.65,-23.78 156.11,-24.57 156.11,-24.57 192.38,-32.78 192.38,-32.78 195.84,-33.56 199.3,-37.9 199.3,-41.45"/>
<text text-anchor="middle" x="115.81" y="-41.3" font-family="Times,serif" font-size="14.00" fill="#00f2ff">Dominant Axiom</text>
</g>
<!-- Criteria&#45;&gt;Selected -->
<g id="edge3" class="edge">
<title>Criteria&#45;&gt;Selected</title>
<path fill="none" stroke="#ff00ff" d="M115.81,-117.84C115.81,-106.44 115.81,-91.13 115.81,-77.58"/>
<polygon fill="#ff00ff" stroke="#ff00ff" points="115.81,-67.19 120.31,-77.19 115.81,-72.19 115.81,-77.19 115.81,-77.19 115.81,-77.19 115.81,-72.19 111.31,-77.19 115.81,-67.19 115.81,-67.19"/>
<text text-anchor="middle" x="151.81" y="-88.8" font-family="Times,serif" font-size="14.00"> Optimal Fit </text>
</g>
</g>
</svg>
