<?xml version="1.0" encoding="UTF-8" standalone="no"?>
<!DOCTYPE svg PUBLIC "-//W3C//DTD SVG 1.1//EN"
 "http://www.w3.org/Graphics/SVG/1.1/DTD/svg11.dtd">
<!-- Generated by graphviz version 2.43.0 (0)
 -->
<!-- Title: AxiomStabilization Pages: 1 -->
<svg width="208pt" height="251pt"
 viewBox="0.00 0.00 208.00 251.00" xmlns="http://www.w3.org/2000/svg" xmlns:xlink="http://www.w3.org/1999/xlink">
<g id="graph0" class="graph" transform="scale(1 1) rotate(0) translate(4 247)">
<title>AxiomStabilization</title>
<polygon fill="#0d1117" stroke="transparent" points="-4,4 -4,-247 204,-247 204,4 -4,4"/>
<text text-anchor="middle" x="100" y="-7.8" font-family="Helvetica,sans-Serif" font-size="14.00" fill="#00f2ff">T7.4: Axiom Stabilization Loop</text>
<!-- NewAxiom -->
<g id="node1" class="node">
<title>NewAxiom</title>
<path fill="#161b22" stroke="#ffff00" d="M141,-243C141,-243 59,-243 59,-243 53,-243 47,-237 47,-231 47,-231 47,-219 47,-219 47,-213 53,-207 59,-207 59,-207 141,-207 141,-207 147,-207 153,-213 153,-219 153,-219 153,-231 153,-231 153,-237 147,-243 141,-243"/>
<text text-anchor="middle" x="100" y="-221.3" font-family="Times,serif" font-size="14.00" fill="#00f2ff">Unstable Axiom</text>
</g>
<!-- Tests -->
<g id="node2" class="node">
<title>Tests</title>
<path fill="#161b22" stroke="#00f2ff" d="M149.5,-156C149.5,-156 50.5,-156 50.5,-156 44.5,-156 38.5,-150 38.5,-144 38.5,-144 38.5,-130 38.5,-130 38.5,-124 44.5,-118 50.5,-118 50.5,-118 149.5,-118 149.5,-118 155.5,-118 161.5,-124 161.5,-130 161.5,-130 161.5,-144 161.5,-144 161.5,-150 155.5,-156 149.5,-156"/>
<text text-anchor="middle" x="100" y="-140.8" font-family="Times,serif" font-size="14.00" fill="#00f2ff">Formal Verification</text>
<text text-anchor="middle" x="100" y="-125.8" font-family="Times,serif" font-size="14.00" fill="#00f2ff">(AI ω)</text>
</g>
<!-- NewAxiom&#45;&gt;Tests -->
<g id="edge1" class="edge">
<title>NewAxiom&#45;&gt;Tests</title>
<path fill="none" stroke="#ff00ff" d="M80.49,-206.79C72.41,-197.51 65.8,-185.61 70,-174 71.2,-170.69 72.85,-167.46 74.77,-164.4"/>
<polygon fill="#ff00ff" stroke="#ff00ff" points="80.72,-156.21 78.48,-166.95 77.78,-160.26 74.84,-164.3 74.84,-164.3 74.84,-164.3 77.78,-160.26 71.2,-161.65 80.72,-156.21 80.72,-156.21"/>
<text text-anchor="middle" x="90" y="-177.8" font-family="Times,serif" font-size="14.00"> Stress </text>
</g>
<!-- Tests&#45;&gt;NewAxiom -->
<g id="edge2" class="edge">
<title>Tests&#45;&gt;NewAxiom</title>
<path fill="none" stroke="#ff00ff" d="M106.61,-156.33C109.33,-166 111.53,-178.1 110,-189 109.64,-191.57 109.14,-194.22 108.55,-196.86"/>
<polygon fill="#ff00ff" stroke="#ff00ff" points="105.96,-206.76 104.13,-195.95 107.22,-201.92 108.49,-197.08 108.49,-197.08 108.49,-197.08 107.22,-201.92 112.84,-198.22 105.96,-206.76 105.96,-206.76"/>
<text text-anchor="middle" x="132" y="-177.8" font-family="Times,serif" font-size="14.00"> Refine </text>
</g>
<!-- Stability -->
<g id="node3" class="node">
<title>Stability</title>
<path fill="#161b22" stroke="#00ff00" d="M195.84,-42.51C195.84,-42.51 195.84,-47.49 195.84,-47.49 195.84,-49.97 193.4,-52.91 190.96,-53.37 190.96,-53.37 144.58,-62.08 144.58,-62.08 142.14,-62.54 137.21,-63 134.73,-63 134.73,-63 65.27,-63 65.27,-63 62.79,-63 57.86,-62.54 55.42,-62.08 55.42,-62.08 9.04,-53.37 9.04,-53.37 6.6,-52.91 4.16,-49.97 4.16,-47.49 4.16,-47.49 4.16,-42.51 4.16,-42.51 4.16,-40.03 6.6,-37.09 9.04,-36.63 9.04,-36.63 55.42,-27.92 55.42,-27.92 57.86,-27.46 62.79,-27 65.27,-27 65.27,-27 134.73,-27 134.73,-27 137.21,-27 142.14,-27.46 144.58,-27.92 144.58,-27.92 190.96,-36.63 190.96,-36.63 193.4,-37.09 195.84,-40.03 195.84,-42.51"/>
<path fill="none" stroke="#00ff00" d="M199.85,-41.41C199.85,-41.41 199.85,-48.59 199.85,-48.59 199.85,-52.18 196.32,-56.44 192.79,-57.1 192.79,-57.1 147.13,-65.67 147.13,-65.67 143.6,-66.34 136.48,-67 132.89,-67 132.89,-67 67.11,-67 67.11,-67 63.52,-67 56.4,-66.34 52.87,-65.67 52.87,-65.67 7.21,-57.1 7.21,-57.1 3.68,-56.44 0.15,-52.18 0.15,-48.59 0.15,-48.59 0.15,-41.41 0.15,-41.41 0.15,-37.82 3.68,-33.56 7.21,-32.9 7.21,-32.9 52.87,-24.33 52.87,-24.33 56.4,-23.66 63.52,-23 67.11,-23 67.11,-23 132.89,-23 132.89,-23 136.48,-23 143.6,-23.66 147.13,-24.33 147.13,-24.33 192.79,-32.9 192.79,-32.9 196.32,-33.56 199.85,-37.82 199.85,-41.41"/>
<text text-anchor="middle" x="100" y="-41.3" font-family="Times,serif" font-size="14.00" fill="#00f2ff">Stabilized Foundation</text>
</g>
<!-- Tests&#45;&gt;Stability -->
<g id="edge3" class="edge">
<title>Tests&#45;&gt;Stability</title>
<path fill="none" stroke="#ff00ff" d="M100,-117.79C100,-106.2 100,-90.88 100,-77.37"/>
<polygon fill="#ff00ff" stroke="#ff00ff" points="100,-67.03 104.5,-77.03 100,-72.03 100,-77.03 100,-77.03 100,-77.03 100,-72.03 95.5,-77.03 100,-67.03 100,-67.03"/>
<text text-anchor="middle" x="133" y="-88.8" font-family="Times,serif" font-size="14.00"> Consensus </text>
</g>
</g>
</svg>
