<?xml version="1.0" encoding="UTF-8" standalone="no"?>
<!DOCTYPE svg PUBLIC "-//W3C//DTD SVG 1.1//EN"
 "http://www.w3.org/Graphics/SVG/1.1/DTD/svg11.dtd">
<!-- Generated by graphviz version 2.43.0 (0)
 -->
<!-- Title: AxiomScaling Pages: 1 -->
<svg width="390pt" height="217pt"
 viewBox="0.00 0.00 389.74 217.00" xmlns="http://www.w3.org/2000/svg" xmlns:xlink="http://www.w3.org/1999/xlink">
<g id="graph0" class="graph" transform="scale(1 1) rotate(0) translate(4 213)">
<title>AxiomScaling</title>
<polygon fill="#0d1117" stroke="transparent" points="-4,4 -4,-213 385.74,-213 385.74,4 -4,4"/>
<text text-anchor="middle" x="190.87" y="-7.8" font-family="Helvetica,sans-Serif" font-size="14.00" fill="#00f2ff">Symmetric Scaling of New Axioms</text>
<!-- SingleNode -->
<g id="node1" class="node">
<title>SingleNode</title>
<path fill="#161b22" stroke="#00f2ff" d="M268.74,-209C268.74,-209 146.74,-209 146.74,-209 140.74,-209 134.74,-203 134.74,-197 134.74,-197 134.74,-183 134.74,-183 134.74,-177 140.74,-171 146.74,-171 146.74,-171 268.74,-171 268.74,-171 274.74,-171 280.74,-177 280.74,-183 280.74,-183 280.74,-197 280.74,-197 280.74,-203 274.74,-209 268.74,-209"/>
<text text-anchor="middle" x="207.74" y="-193.8" font-family="Times,serif" font-size="14.00" fill="#00f2ff">Axiom Implementation</text>
<text text-anchor="middle" x="207.74" y="-178.8" font-family="Times,serif" font-size="14.00" fill="#00f2ff">(Micro&#45;level)</text>
</g>
<!-- Integration -->
<g id="node2" class="node">
<title>Integration</title>
<path fill="#161b22" stroke="#00f2ff" d="M241.72,-134C241.72,-134 63.72,-134 63.72,-134 57.72,-134 46.79,-130.58 41.86,-127.17 41.86,-127.17 9.62,-104.83 9.62,-104.83 4.69,-101.42 5.76,-98 11.76,-98 11.76,-98 189.76,-98 189.76,-98 195.76,-98 206.69,-101.42 211.62,-104.83 211.62,-104.83 243.86,-127.17 243.86,-127.17 248.79,-130.58 247.72,-134 241.72,-134"/>
<text text-anchor="middle" x="126.74" y="-112.3" font-family="Times,serif" font-size="14.00" fill="#00f2ff">Structural Integration</text>
</g>
<!-- SingleNode&#45;&gt;Integration -->
<g id="edge1" class="edge">
<title>SingleNode&#45;&gt;Integration</title>
<path fill="none" stroke="#ff00ff" d="M187.3,-170.83C177.12,-161.78 164.67,-150.72 153.72,-140.98"/>
<polygon fill="#ff00ff" stroke="#ff00ff" points="146.06,-134.17 156.52,-137.45 149.8,-137.49 153.53,-140.82 153.53,-140.82 153.53,-140.82 149.8,-137.49 150.54,-144.18 146.06,-134.17 146.06,-134.17"/>
</g>
<!-- MacroSystem -->
<g id="node3" class="node">
<title>MacroSystem</title>
<path fill="#161b22" stroke="#00ff00" stroke-width="3" d="M276.24,-61C276.24,-61 139.24,-61 139.24,-61 133.24,-61 127.24,-55 127.24,-49 127.24,-49 127.24,-35 127.24,-35 127.24,-29 133.24,-23 139.24,-23 139.24,-23 276.24,-23 276.24,-23 282.24,-23 288.24,-29 288.24,-35 288.24,-35 288.24,-49 288.24,-49 288.24,-55 282.24,-61 276.24,-61"/>
<text text-anchor="middle" x="207.74" y="-45.8" font-family="Times,serif" font-size="14.00" fill="#00f2ff">Transfinite Macro&#45;System</text>
<text text-anchor="middle" x="207.74" y="-30.8" font-family="Times,serif" font-size="14.00" fill="#00f2ff">(ω+1 Ecosystem)</text>
</g>
<!-- Integration&#45;&gt;MacroSystem -->
<g id="edge2" class="edge">
<title>Integration&#45;&gt;MacroSystem</title>
<path fill="none" stroke="#ff00ff" d="M145.94,-97.94C155.95,-89.04 168.39,-77.98 179.48,-68.12"/>
<polygon fill="#ff00ff" stroke="#ff00ff" points="187.27,-61.2 182.78,-71.21 183.53,-64.52 179.79,-67.84 179.79,-67.84 179.79,-67.84 183.53,-64.52 176.8,-64.48 187.27,-61.2 187.27,-61.2"/>
</g>
<!-- MacroSystem&#45;&gt;SingleNode -->
<g id="edge3" class="edge">
<title>MacroSystem&#45;&gt;SingleNode</title>
<path fill="none" stroke="#ff00ff" stroke-dasharray="1,5" d="M233.43,-61.13C244.69,-70.66 256.69,-83.4 262.74,-98 268.86,-112.78 268.86,-119.22 262.74,-134 258.02,-145.4 249.66,-155.68 240.85,-164.17"/>
<polygon fill="#ff00ff" stroke="#ff00ff" points="233.43,-170.87 237.84,-160.83 237.14,-167.52 240.85,-164.17 240.85,-164.17 240.85,-164.17 237.14,-167.52 243.87,-167.51 233.43,-170.87 233.43,-170.87"/>
<text text-anchor="middle" x="324.74" y="-112.3" font-family="Times,serif" font-size="14.00"> Contextual Support </text>
</g>
</g>
</svg>
