<?xml version="1.0" encoding="UTF-8" standalone="no"?>
<!DOCTYPE svg PUBLIC "-//W3C//DTD SVG 1.1//EN"
 "http://www.w3.org/Graphics/SVG/1.1/DTD/svg11.dtd">
<!-- Generated by graphviz version 2.43.0 (0)
 -->
<!-- Title: AxiomLeap Pages: 1 -->
<svg width="351pt" height="735pt"
 viewBox="0.00 0.00 350.96 734.56" xmlns="http://www.w3.org/2000/svg" xmlns:xlink="http://www.w3.org/1999/xlink">
<g id="graph0" class="graph" transform="scale(1 1) rotate(0) translate(4 730.56)">
<title>AxiomLeap</title>
<polygon fill="#0d1117" stroke="transparent" points="-4,4 -4,-730.56 346.96,-730.56 346.96,4 -4,4"/>
<text text-anchor="middle" x="171.48" y="-7.8" font-family="Helvetica,sans-Serif" font-size="14.00" fill="#00f2ff">T7.3: The Leap Mechanism (Syntax Dissolution)</text>
<!-- CurrentCode -->
<g id="node1" class="node">
<title>CurrentCode</title>
<path fill="#161b22" stroke="#ff0000" d="M208.48,-726.56C208.48,-726.56 134.48,-726.56 134.48,-726.56 128.48,-726.56 122.48,-720.56 122.48,-714.56 122.48,-714.56 122.48,-702.56 122.48,-702.56 122.48,-696.56 128.48,-690.56 134.48,-690.56 134.48,-690.56 208.48,-690.56 208.48,-690.56 214.48,-690.56 220.48,-696.56 220.48,-702.56 220.48,-702.56 220.48,-714.56 220.48,-714.56 220.48,-720.56 214.48,-726.56 208.48,-726.56"/>
<text text-anchor="middle" x="171.48" y="-704.86" font-family="Times,serif" font-size="14.00" fill="#00f2ff">Legacy Syntax</text>
</g>
<!-- Dissolution -->
<g id="node2" class="node">
<title>Dissolution</title>
<ellipse fill="#161b22" stroke="#00f2ff" cx="171.48" cy="-570.37" rx="83.39" ry="83.39"/>
<text text-anchor="middle" x="171.48" y="-566.67" font-family="Times,serif" font-size="14.00" fill="#00f2ff">Semantic Extraction</text>
</g>
<!-- CurrentCode&#45;&gt;Dissolution -->
<g id="edge1" class="edge">
<title>CurrentCode&#45;&gt;Dissolution</title>
<path fill="none" stroke="#ff00ff" d="M171.48,-690.31C171.48,-683.01 171.48,-673.9 171.48,-663.99"/>
<polygon fill="#ff00ff" stroke="#ff00ff" points="171.48,-653.84 175.98,-663.84 171.48,-658.84 171.48,-663.84 171.48,-663.84 171.48,-663.84 171.48,-658.84 166.98,-663.85 171.48,-653.84 171.48,-653.84"/>
</g>
<!-- TheLeap -->
<g id="node3" class="node">
<title>TheLeap</title>
<path fill="#161b22" stroke="#ffff00" stroke-width="2" d="M330.94,-311.61C330.94,-311.61 223.96,-311.61 223.96,-311.61 217.96,-311.61 210.11,-317.32 208.25,-323.02 208.25,-323.02 175.19,-424.85 175.19,-424.85 173.33,-430.56 169.63,-430.56 167.78,-424.85 167.78,-424.85 134.71,-323.02 134.71,-323.02 132.86,-317.32 125,-311.61 119,-311.61 119,-311.61 12.02,-311.61 12.02,-311.61 6.02,-311.61 4.87,-308.08 9.72,-304.55 9.72,-304.55 96.28,-241.62 96.28,-241.62 101.14,-238.1 104.14,-228.86 102.28,-223.15 102.28,-223.15 69.22,-121.33 69.22,-121.33 67.36,-115.62 70.36,-113.44 75.22,-116.97 75.22,-116.97 161.78,-179.9 161.78,-179.9 166.63,-183.42 176.33,-183.42 181.19,-179.9 181.19,-179.9 267.74,-116.97 267.74,-116.97 272.6,-113.44 275.6,-115.62 273.74,-121.33 273.74,-121.33 240.68,-223.15 240.68,-223.15 238.83,-228.86 241.83,-238.1 246.68,-241.62 246.68,-241.62 333.24,-304.55 333.24,-304.55 338.09,-308.08 336.94,-311.61 330.94,-311.61"/>
<text text-anchor="middle" x="171.48" y="-269.39" font-family="Times,serif" font-size="14.00" fill="#00f2ff">The Transfinite Leap</text>
</g>
<!-- Dissolution&#45;&gt;TheLeap -->
<g id="edge2" class="edge">
<title>Dissolution&#45;&gt;TheLeap</title>
<path fill="none" stroke="#ff00ff" d="M171.48,-487.12C171.48,-474.28 171.48,-460.61 171.48,-446.64"/>
<polygon fill="#ff00ff" stroke="#ff00ff" points="171.48,-436.42 175.98,-446.42 171.48,-441.42 171.48,-446.42 171.48,-446.42 171.48,-446.42 171.48,-441.42 166.98,-446.42 171.48,-436.42 171.48,-436.42"/>
<text text-anchor="middle" x="209.48" y="-457.98" font-family="Times,serif" font-size="14.00"> De&#45;coupling </text>
</g>
<!-- NewCode -->
<g id="node4" class="node">
<title>NewCode</title>
<path fill="#161b22" stroke="#00ff00" d="M212.48,-59C212.48,-59 130.48,-59 130.48,-59 124.48,-59 118.48,-53 118.48,-47 118.48,-47 118.48,-35 118.48,-35 118.48,-29 124.48,-23 130.48,-23 130.48,-23 212.48,-23 212.48,-23 218.48,-23 224.48,-29 224.48,-35 224.48,-35 224.48,-47 224.48,-47 224.48,-53 218.48,-59 212.48,-59"/>
<text text-anchor="middle" x="171.48" y="-37.3" font-family="Times,serif" font-size="14.00" fill="#00f2ff">New Formalism</text>
</g>
<!-- TheLeap&#45;&gt;NewCode -->
<g id="edge3" class="edge">
<title>TheLeap&#45;&gt;NewCode</title>
<path fill="none" stroke="#ff00ff" d="M171.48,-186.74C171.48,-145.23 171.48,-98.19 171.48,-69.31"/>
<polygon fill="#ff00ff" stroke="#ff00ff" points="171.48,-59.18 175.98,-69.18 171.48,-64.18 171.48,-69.18 171.48,-69.18 171.48,-69.18 171.48,-64.18 166.98,-69.18 171.48,-59.18 171.48,-59.18"/>
<text text-anchor="middle" x="208.98" y="-80.8" font-family="Times,serif" font-size="14.00"> Re&#45;coupling </text>
</g>
</g>
</svg>
