<?xml version="1.0" encoding="UTF-8" standalone="no"?>
<!DOCTYPE svg PUBLIC "-//W3C//DTD SVG 1.1//EN"
 "http://www.w3.org/Graphics/SVG/1.1/DTD/svg11.dtd">
<!-- Generated by graphviz version 2.43.0 (0)
 -->
<!-- Title: MetaObserverPos Pages: 1 -->
<svg width="277pt" height="158pt"
 viewBox="0.00 0.00 277.00 158.00" xmlns="http://www.w3.org/2000/svg" xmlns:xlink="http://www.w3.org/1999/xlink">
<g id="graph0" class="graph" transform="scale(1 1) rotate(0) translate(4 154)">
<title>MetaObserverPos</title>
<polygon fill="#0d1117" stroke="transparent" points="-4,4 -4,-154 273,-154 273,4 -4,4"/>
<text text-anchor="middle" x="134.5" y="-7.8" font-family="Helvetica,sans-Serif" font-size="14.00" fill="#00f2ff">T6.1: Observer Positioning (External to ω)</text>
<!-- FormalSystem -->
<g id="node1" class="node">
<title>FormalSystem</title>
<path fill="#161b22" stroke="#ff00ff" d="M152.75,-150C152.75,-150 50.75,-150 50.75,-150 44.75,-150 38.75,-144 38.75,-138 38.75,-138 38.75,-124 38.75,-124 38.75,-118 44.75,-112 50.75,-112 50.75,-112 152.75,-112 152.75,-112 158.75,-112 164.75,-118 164.75,-124 164.75,-124 164.75,-138 164.75,-138 164.75,-144 158.75,-150 152.75,-150"/>
<text text-anchor="middle" x="101.75" y="-134.8" font-family="Times,serif" font-size="14.00" fill="#00f2ff">Formal System (ω)</text>
<text text-anchor="middle" x="101.75" y="-119.8" font-family="Times,serif" font-size="14.00" fill="#00f2ff">(Deterministic Box)</text>
</g>
<!-- Observer -->
<g id="node2" class="node">
<title>Observer</title>
<path fill="#161b22" stroke="#00ff00" stroke-width="3" d="M175.25,-61C175.25,-61 28.25,-61 28.25,-61 22.25,-61 16.25,-55 16.25,-49 16.25,-49 16.25,-35 16.25,-35 16.25,-29 22.25,-23 28.25,-23 28.25,-23 175.25,-23 175.25,-23 181.25,-23 187.25,-29 187.25,-35 187.25,-35 187.25,-49 187.25,-49 187.25,-55 181.25,-61 175.25,-61"/>
<text text-anchor="middle" x="101.75" y="-45.8" font-family="Times,serif" font-size="14.00" fill="#00f2ff">Human Meta&#45;Observer (+1)</text>
<text text-anchor="middle" x="101.75" y="-30.8" font-family="Times,serif" font-size="14.00" fill="#00f2ff">(External Positioning)</text>
</g>
<!-- FormalSystem&#45;&gt;Observer -->
<g id="edge2" class="edge">
<title>FormalSystem&#45;&gt;Observer</title>
<path fill="none" stroke="#ff00ff" stroke-dasharray="1,5" d="M50.03,-112C42.75,-107.26 36.23,-101.35 31.75,-94 25.2,-83.26 30.41,-74.09 40.39,-66.62"/>
<polygon fill="#ff00ff" stroke="#ff00ff" points="48.83,-61.23 42.82,-70.4 44.62,-63.92 40.4,-66.61 40.4,-66.61 40.4,-66.61 44.62,-63.92 37.98,-62.81 48.83,-61.23 48.83,-61.23"/>
<text text-anchor="middle" x="64.75" y="-82.8" font-family="Times,serif" font-size="14.00"> Constrains </text>
</g>
<!-- Observer&#45;&gt;FormalSystem -->
<g id="edge1" class="edge">
<title>Observer&#45;&gt;FormalSystem</title>
<path fill="none" stroke="#ff00ff" d="M101.75,-61C101.75,-72.78 101.75,-88.41 101.75,-101.82"/>
<polygon fill="#ff00ff" stroke="#ff00ff" points="101.75,-111.97 97.25,-101.97 101.75,-106.97 101.75,-101.97 101.75,-101.97 101.75,-101.97 101.75,-106.97 106.25,-101.97 101.75,-111.97 101.75,-111.97"/>
<text text-anchor="middle" x="130.75" y="-82.8" font-family="Times,serif" font-size="14.00"> Analyzes </text>
</g>
<!-- Observer&#45;&gt;FormalSystem -->
<g id="edge3" class="edge">
<title>Observer&#45;&gt;FormalSystem</title>
<path fill="none" stroke="#ffff00" d="M144.54,-61.17C158.17,-69.77 168.04,-81.01 160.75,-94 158.34,-98.29 155.2,-102.12 151.61,-105.54"/>
<polygon fill="#ffff00" stroke="#ffff00" points="143.71,-111.99 148.61,-102.18 147.59,-108.83 151.46,-105.67 151.46,-105.67 151.46,-105.67 147.59,-108.83 154.31,-109.15 143.71,-111.99 143.71,-111.99"/>
<text text-anchor="middle" x="207.75" y="-82.8" font-family="Times,serif" font-size="14.00"> Resets Axioms </text>
</g>
</g>
</svg>
