<?xml version="1.0" encoding="UTF-8" standalone="no"?>
<!DOCTYPE svg PUBLIC "-//W3C//DTD SVG 1.1//EN"
 "http://www.w3.org/Graphics/SVG/1.1/DTD/svg11.dtd">
<!-- Generated by graphviz version 2.43.0 (0)
 -->
<!-- Title: MetaConservation Pages: 1 -->
<svg width="322pt" height="231pt"
 viewBox="0.00 0.00 322.00 231.00" xmlns="http://www.w3.org/2000/svg" xmlns:xlink="http://www.w3.org/1999/xlink">
<g id="graph0" class="graph" transform="scale(1 1) rotate(0) translate(4 227)">
<title>MetaConservation</title>
<polygon fill="#0d1117" stroke="transparent" points="-4,4 -4,-227 318,-227 318,4 -4,4"/>
<text text-anchor="middle" x="157" y="-7.8" font-family="Helvetica,sans-Serif" font-size="14.00" fill="#00f2ff">T6.3: Semantic Conservation across Axiom Shifts</text>
<!-- Objective -->
<g id="node1" class="node">
<title>Objective</title>
<path fill="#161b22" stroke="#00ff00" stroke-width="2" d="M187.25,-223C187.25,-223 87.25,-223 87.25,-223 81.25,-223 75.25,-217 75.25,-211 75.25,-211 75.25,-199 75.25,-199 75.25,-193 81.25,-187 87.25,-187 87.25,-187 187.25,-187 187.25,-187 193.25,-187 199.25,-193 199.25,-199 199.25,-199 199.25,-211 199.25,-211 199.25,-217 193.25,-223 187.25,-223"/>
<text text-anchor="middle" x="137.25" y="-201.3" font-family="Times,serif" font-size="14.00" fill="#00f2ff">Semantic Objective</text>
</g>
<!-- Implementation1 -->
<g id="node2" class="node">
<title>Implementation1</title>
<path fill="#161b22" stroke="#00f2ff" d="M126.75,-150C126.75,-150 29.75,-150 29.75,-150 23.75,-150 17.75,-144 17.75,-138 17.75,-138 17.75,-124 17.75,-124 17.75,-118 23.75,-112 29.75,-112 29.75,-112 126.75,-112 126.75,-112 132.75,-112 138.75,-118 138.75,-124 138.75,-124 138.75,-138 138.75,-138 138.75,-144 132.75,-150 126.75,-150"/>
<text text-anchor="middle" x="78.25" y="-134.8" font-family="Times,serif" font-size="14.00" fill="#00f2ff">Implementation v1</text>
<text text-anchor="middle" x="78.25" y="-119.8" font-family="Times,serif" font-size="14.00" fill="#00f2ff">(Axioms A)</text>
</g>
<!-- Objective&#45;&gt;Implementation1 -->
<g id="edge1" class="edge">
<title>Objective&#45;&gt;Implementation1</title>
<path fill="none" stroke="#ff00ff" d="M123.27,-186.94C116.19,-178.3 107.44,-167.62 99.54,-157.98"/>
<polygon fill="#ff00ff" stroke="#ff00ff" points="93.16,-150.2 102.98,-155.08 96.33,-154.07 99.5,-157.93 99.5,-157.93 99.5,-157.93 96.33,-154.07 96.02,-160.79 93.16,-150.2 93.16,-150.2"/>
</g>
<!-- Implementation2 -->
<g id="node3" class="node">
<title>Implementation2</title>
<path fill="#161b22" stroke="#00f2ff" d="M174.75,-61C174.75,-61 77.75,-61 77.75,-61 71.75,-61 65.75,-55 65.75,-49 65.75,-49 65.75,-35 65.75,-35 65.75,-29 71.75,-23 77.75,-23 77.75,-23 174.75,-23 174.75,-23 180.75,-23 186.75,-29 186.75,-35 186.75,-35 186.75,-49 186.75,-49 186.75,-55 180.75,-61 174.75,-61"/>
<text text-anchor="middle" x="126.25" y="-45.8" font-family="Times,serif" font-size="14.00" fill="#00f2ff">Implementation v2</text>
<text text-anchor="middle" x="126.25" y="-30.8" font-family="Times,serif" font-size="14.00" fill="#00f2ff">(Axioms B)</text>
</g>
<!-- Objective&#45;&gt;Implementation2 -->
<g id="edge2" class="edge">
<title>Objective&#45;&gt;Implementation2</title>
<path fill="none" stroke="#ff00ff" d="M149.64,-186.72C165.77,-161.93 189.92,-115.26 172.25,-79 170.35,-75.1 167.8,-71.5 164.88,-68.21"/>
<polygon fill="#ff00ff" stroke="#ff00ff" points="157.49,-61.09 167.81,-64.79 161.09,-64.56 164.69,-68.03 164.69,-68.03 164.69,-68.03 161.09,-64.56 161.57,-71.27 157.49,-61.09 157.49,-61.09"/>
<text text-anchor="middle" x="237.25" y="-127.3" font-family="Times,serif" font-size="14.00"> Conserved Meaning </text>
</g>
<!-- Implementation1&#45;&gt;Implementation2 -->
<g id="edge3" class="edge">
<title>Implementation1&#45;&gt;Implementation2</title>
<path fill="none" stroke="#ff0000" stroke-dasharray="5,2" d="M68.86,-111.59C65.06,-101.44 62.72,-88.93 68.25,-79 70.61,-74.76 73.7,-70.95 77.23,-67.55"/>
<polygon fill="#ff0000" stroke="#ff0000" points="84.98,-61.12 80.15,-70.97 81.13,-64.31 77.28,-67.5 77.28,-67.5 77.28,-67.5 81.13,-64.31 74.41,-64.04 84.98,-61.12 84.98,-61.12"/>
<text text-anchor="middle" x="120.25" y="-82.8" font-family="Times,serif" font-size="14.00"> Discarded Syntax </text>
</g>
</g>
</svg>
