<?xml version="1.0" encoding="UTF-8" standalone="no"?>
<!DOCTYPE svg PUBLIC "-//W3C//DTD SVG 1.1//EN"
 "http://www.w3.org/Graphics/SVG/1.1/DTD/svg11.dtd">
<!-- Generated by graphviz version 2.43.0 (0)
 -->
<!-- Title: MetaInjection Pages: 1 -->
<svg width="265pt" height="460pt"
 viewBox="0.00 0.00 265.00 460.09" xmlns="http://www.w3.org/2000/svg" xmlns:xlink="http://www.w3.org/1999/xlink">
<g id="graph0" class="graph" transform="scale(1 1) rotate(0) translate(4 456.09)">
<title>MetaInjection</title>
<polygon fill="#0d1117" stroke="transparent" points="-4,4 -4,-456.09 261,-456.09 261,4 -4,4"/>
<text text-anchor="middle" x="128.5" y="-7.8" font-family="Helvetica,sans-Serif" font-size="14.00" fill="#00f2ff">T6.4: Axiom Injection (The Creative Act)</text>
<!-- Void -->
<g id="node1" class="node">
<title>Void</title>
<ellipse fill="#161b22" stroke="#00f2ff" cx="128.5" cy="-358.05" rx="94.09" ry="94.09"/>
<text text-anchor="middle" x="128.5" y="-361.85" font-family="Times,serif" font-size="14.00" fill="#00f2ff">Gödelian Void</text>
<text text-anchor="middle" x="128.5" y="-346.85" font-family="Times,serif" font-size="14.00" fill="#00f2ff">(The Problem Space)</text>
</g>
<!-- Creativity -->
<g id="node2" class="node">
<title>Creativity</title>
<path fill="#161b22" stroke="#00ff00" d="M20.4,-202.71C20.4,-202.71 121.83,-191.72 121.83,-191.72 125.17,-191.36 131.83,-191.36 135.17,-191.72 135.17,-191.72 236.6,-202.71 236.6,-202.71 239.93,-203.08 243.25,-206.79 243.23,-210.15 243.23,-210.15 243.19,-216.85 243.19,-216.85 243.18,-220.21 239.8,-223.56 236.45,-223.56 236.45,-223.56 20.55,-223.56 20.55,-223.56 17.2,-223.56 13.82,-220.21 13.81,-216.85 13.81,-216.85 13.77,-210.15 13.77,-210.15 13.75,-206.79 17.07,-203.08 20.4,-202.71"/>
<text text-anchor="middle" x="128.5" y="-205.3" font-family="Times,serif" font-size="14.00" fill="#00f2ff">Human Creativity (+1)</text>
</g>
<!-- Void&#45;&gt;Creativity -->
<g id="edge1" class="edge">
<title>Void&#45;&gt;Creativity</title>
<path fill="none" stroke="#ff00ff" d="M128.5,-263.92C128.5,-252.98 128.5,-242.67 128.5,-234.05"/>
<polygon fill="#ff00ff" stroke="#ff00ff" points="128.5,-223.78 133,-233.78 128.5,-228.78 128.5,-233.78 128.5,-233.78 128.5,-233.78 128.5,-228.78 124,-233.78 128.5,-223.78 128.5,-223.78"/>
</g>
<!-- NewAxiom -->
<g id="node3" class="node">
<title>NewAxiom</title>
<path fill="#161b22" stroke="#ffff00" d="M237.55,-140C237.55,-140 68.99,-140 68.99,-140 62.99,-140 52.13,-136.47 47.28,-132.95 47.28,-132.95 17.16,-111.05 17.16,-111.05 12.31,-107.53 13.45,-104 19.45,-104 19.45,-104 188.01,-104 188.01,-104 194.01,-104 204.87,-107.53 209.72,-111.05 209.72,-111.05 239.84,-132.95 239.84,-132.95 244.69,-136.47 243.55,-140 237.55,-140"/>
<text text-anchor="middle" x="128.5" y="-118.3" font-family="Times,serif" font-size="14.00" fill="#00f2ff">New Formal Axiom</text>
</g>
<!-- Creativity&#45;&gt;NewAxiom -->
<g id="edge2" class="edge">
<title>Creativity&#45;&gt;NewAxiom</title>
<path fill="none" stroke="#ff00ff" d="M128.5,-190.8C128.5,-179.16 128.5,-163.55 128.5,-150.24"/>
<polygon fill="#ff00ff" stroke="#ff00ff" points="128.5,-140.18 133,-150.18 128.5,-145.18 128.5,-150.18 128.5,-150.18 128.5,-150.18 128.5,-145.18 124,-150.18 128.5,-140.18 128.5,-140.18"/>
<text text-anchor="middle" x="156.5" y="-161.8" font-family="Times,serif" font-size="14.00"> Injection </text>
</g>
<!-- Expansion -->
<g id="node4" class="node">
<title>Expansion</title>
<path fill="#161b22" stroke="#00f2ff" d="M234.05,-42.51C234.05,-42.51 234.05,-47.49 234.05,-47.49 234.05,-49.97 231.6,-52.87 229.15,-53.29 229.15,-53.29 177.12,-62.16 177.12,-62.16 174.67,-62.58 169.73,-63 167.25,-63 167.25,-63 89.75,-63 89.75,-63 87.27,-63 82.33,-62.58 79.88,-62.16 79.88,-62.16 27.85,-53.29 27.85,-53.29 25.4,-52.87 22.95,-49.97 22.95,-47.49 22.95,-47.49 22.95,-42.51 22.95,-42.51 22.95,-40.03 25.4,-37.13 27.85,-36.71 27.85,-36.71 79.88,-27.84 79.88,-27.84 82.33,-27.42 87.27,-27 89.75,-27 89.75,-27 167.25,-27 167.25,-27 169.73,-27 174.67,-27.42 177.12,-27.84 177.12,-27.84 229.15,-36.71 229.15,-36.71 231.6,-37.13 234.05,-40.03 234.05,-42.51"/>
<path fill="none" stroke="#00f2ff" d="M238.05,-41.39C238.05,-41.39 238.05,-48.61 238.05,-48.61 238.05,-52.22 234.49,-56.44 230.93,-57.05 230.93,-57.05 179.68,-65.79 179.68,-65.79 176.12,-66.39 168.95,-67 165.34,-67 165.34,-67 91.66,-67 91.66,-67 88.05,-67 80.88,-66.39 77.32,-65.79 77.32,-65.79 26.07,-57.05 26.07,-57.05 22.51,-56.44 18.95,-52.22 18.95,-48.61 18.95,-48.61 18.95,-41.39 18.95,-41.39 18.95,-37.78 22.51,-33.56 26.07,-32.95 26.07,-32.95 77.32,-24.21 77.32,-24.21 80.88,-23.61 88.05,-23 91.66,-23 91.66,-23 165.34,-23 165.34,-23 168.95,-23 176.12,-23.61 179.68,-24.21 179.68,-24.21 230.93,-32.95 230.93,-32.95 234.49,-33.56 238.05,-37.78 238.05,-41.39"/>
<text text-anchor="middle" x="128.5" y="-41.3" font-family="Times,serif" font-size="14.00" fill="#00f2ff">Expanded Formal Space</text>
</g>
<!-- NewAxiom&#45;&gt;Expansion -->
<g id="edge3" class="edge">
<title>NewAxiom&#45;&gt;Expansion</title>
<path fill="none" stroke="#ff00ff" d="M128.5,-103.98C128.5,-96.15 128.5,-86.61 128.5,-77.54"/>
<polygon fill="#ff00ff" stroke="#ff00ff" points="128.5,-67.24 133,-77.24 128.5,-72.24 128.5,-77.24 128.5,-77.24 128.5,-77.24 128.5,-72.24 124,-77.24 128.5,-67.24 128.5,-67.24"/>
</g>
</g>
</svg>
