<?xml version="1.0" encoding="UTF-8" standalone="no"?>
<!DOCTYPE svg PUBLIC "-//W3C//DTD SVG 1.1//EN"
 "http://www.w3.org/Graphics/SVG/1.1/DTD/svg11.dtd">
<!-- Generated by graphviz version 2.43.0 (0)
 -->
<!-- Title: MetaIntuition Pages: 1 -->
<svg width="322pt" height="603pt"
 viewBox="0.00 0.00 322.16 602.79" xmlns="http://www.w3.org/2000/svg" xmlns:xlink="http://www.w3.org/1999/xlink">
<g id="graph0" class="graph" transform="scale(1 1) rotate(0) translate(4 598.79)">
<title>MetaIntuition</title>
<polygon fill="#0d1117" stroke="transparent" points="-4,4 -4,-598.79 318.16,-598.79 318.16,4 -4,4"/>
<text text-anchor="middle" x="157.08" y="-7.8" font-family="Helvetica,sans-Serif" font-size="14.00" fill="#00f2ff">T6.2: Intuitive Signal Processing</text>
<!-- Data -->
<g id="node1" class="node">
<title>Data</title>
<path fill="#161b22" stroke="#00f2ff" d="M214.58,-594.79C214.58,-594.79 99.58,-594.79 99.58,-594.79 93.58,-594.79 87.58,-588.79 87.58,-582.79 87.58,-582.79 87.58,-570.79 87.58,-570.79 87.58,-564.79 93.58,-558.79 99.58,-558.79 99.58,-558.79 214.58,-558.79 214.58,-558.79 220.58,-558.79 226.58,-564.79 226.58,-570.79 226.58,-570.79 226.58,-582.79 226.58,-582.79 226.58,-588.79 220.58,-594.79 214.58,-594.79"/>
<text text-anchor="middle" x="157.08" y="-573.09" font-family="Times,serif" font-size="14.00" fill="#00f2ff">Formal Data / Metrics</text>
</g>
<!-- Anomaly -->
<g id="node2" class="node">
<title>Anomaly</title>
<path fill="#161b22" stroke="#ffff00" d="M145.46,-518.8C145.46,-518.8 20.71,-486.77 20.71,-486.77 14.89,-485.28 14.89,-482.3 20.71,-480.8 20.71,-480.8 145.46,-448.77 145.46,-448.77 151.27,-447.28 162.89,-447.28 168.71,-448.77 168.71,-448.77 293.46,-480.8 293.46,-480.8 299.27,-482.3 299.27,-485.28 293.46,-486.77 293.46,-486.77 168.71,-518.8 168.71,-518.8 162.89,-520.3 151.27,-520.3 145.46,-518.8"/>
<text text-anchor="middle" x="157.08" y="-487.59" font-family="Times,serif" font-size="14.00" fill="#00f2ff">Semantic Anomaly</text>
<text text-anchor="middle" x="157.08" y="-472.59" font-family="Times,serif" font-size="14.00" fill="#00f2ff">(The &#39;Uncanny&#39; Feeling)</text>
</g>
<!-- Data&#45;&gt;Anomaly -->
<g id="edge1" class="edge">
<title>Data&#45;&gt;Anomaly</title>
<path fill="none" stroke="#ff00ff" d="M157.08,-558.67C157.08,-551.03 157.08,-541.62 157.08,-532.1"/>
<polygon fill="#ff00ff" stroke="#ff00ff" points="157.08,-521.81 161.58,-531.81 157.08,-526.81 157.08,-531.81 157.08,-531.81 157.08,-531.81 157.08,-526.81 152.58,-531.81 157.08,-521.81 157.08,-521.81"/>
</g>
<!-- Heuristic -->
<g id="node3" class="node">
<title>Heuristic</title>
<path fill="#161b22" stroke="#00f2ff" d="M274.78,-394.79C274.78,-394.79 92.46,-394.79 92.46,-394.79 86.46,-394.79 75.49,-391.42 70.53,-388.05 70.53,-388.05 37.31,-365.52 37.31,-365.52 32.35,-362.16 33.38,-358.79 39.38,-358.79 39.38,-358.79 221.71,-358.79 221.71,-358.79 227.71,-358.79 238.67,-362.16 243.64,-365.52 243.64,-365.52 276.85,-388.05 276.85,-388.05 281.82,-391.42 280.78,-394.79 274.78,-394.79"/>
<text text-anchor="middle" x="157.08" y="-373.09" font-family="Times,serif" font-size="14.00" fill="#00f2ff">Heuristic Recognition</text>
</g>
<!-- Anomaly&#45;&gt;Heuristic -->
<g id="edge2" class="edge">
<title>Anomaly&#45;&gt;Heuristic</title>
<path fill="none" stroke="#ff00ff" d="M157.08,-445.77C157.08,-432.34 157.08,-417.43 157.08,-405.01"/>
<polygon fill="#ff00ff" stroke="#ff00ff" points="157.08,-394.82 161.58,-404.82 157.08,-399.82 157.08,-404.82 157.08,-404.82 157.08,-404.82 157.08,-399.82 152.58,-404.82 157.08,-394.82 157.08,-394.82"/>
<text text-anchor="middle" x="187.58" y="-416.59" font-family="Times,serif" font-size="14.00"> Detection </text>
</g>
<!-- Signal -->
<g id="node4" class="node">
<title>Signal</title>
<path fill="#161b22" stroke="#00ff00" d="M302.25,-207.64C302.25,-207.64 206.18,-207.64 206.18,-207.64 200.18,-207.64 192.33,-213.34 190.47,-219.05 190.47,-219.05 160.79,-310.27 160.79,-310.27 158.94,-315.98 155.23,-315.98 153.37,-310.27 153.37,-310.27 123.69,-219.05 123.69,-219.05 121.84,-213.34 113.98,-207.64 107.98,-207.64 107.98,-207.64 11.92,-207.64 11.92,-207.64 5.92,-207.64 4.77,-204.11 9.63,-200.59 9.63,-200.59 87.34,-144.2 87.34,-144.2 92.19,-140.68 95.19,-131.45 93.34,-125.74 93.34,-125.74 63.66,-34.52 63.66,-34.52 61.81,-28.81 64.81,-26.63 69.66,-30.15 69.66,-30.15 147.37,-86.54 147.37,-86.54 152.23,-90.07 161.94,-90.07 166.79,-86.54 166.79,-86.54 244.5,-30.15 244.5,-30.15 249.36,-26.63 252.36,-28.81 250.5,-34.52 250.5,-34.52 220.83,-125.74 220.83,-125.74 218.97,-131.45 221.97,-140.68 226.83,-144.2 226.83,-144.2 304.53,-200.59 304.53,-200.59 309.39,-204.11 308.25,-207.64 302.25,-207.64"/>
<text text-anchor="middle" x="157.08" y="-168.69" font-family="Times,serif" font-size="14.00" fill="#00f2ff">Meta&#45;Leap Trigger</text>
</g>
<!-- Heuristic&#45;&gt;Signal -->
<g id="edge3" class="edge">
<title>Heuristic&#45;&gt;Signal</title>
<path fill="none" stroke="#ff00ff" d="M157.08,-358.53C157.08,-351.36 157.08,-342.31 157.08,-332.1"/>
<polygon fill="#ff00ff" stroke="#ff00ff" points="157.08,-321.97 161.58,-331.97 157.08,-326.97 157.08,-331.97 157.08,-331.97 157.08,-331.97 157.08,-326.97 152.58,-331.97 157.08,-321.97 157.08,-321.97"/>
</g>
</g>
</svg>
