<?xml version="1.0" encoding="UTF-8" standalone="no"?>
<!DOCTYPE svg PUBLIC "-//W3C//DTD SVG 1.1//EN"
 "http://www.w3.org/Graphics/SVG/1.1/DTD/svg11.dtd">
<!-- Generated by graphviz version 2.43.0 (0)
 -->
<!-- Title: MetaLoop Pages: 1 -->
<svg width="364pt" height="617pt"
 viewBox="0.00 0.00 364.05 616.63" xmlns="http://www.w3.org/2000/svg" xmlns:xlink="http://www.w3.org/1999/xlink">
<g id="graph0" class="graph" transform="scale(1 1) rotate(0) translate(4 612.63)">
<title>MetaLoop</title>
<polygon fill="#0d1117" stroke="transparent" points="-4,4 -4,-612.63 360.05,-612.63 360.05,4 -4,4"/>
<text text-anchor="middle" x="178.03" y="-7.8" font-family="Helvetica,sans-Serif" font-size="14.00" fill="#00f2ff">T6.5: Meta&#45;Loop (Refining the Hybrid)</text>
<!-- Session -->
<g id="node1" class="node">
<title>Session</title>
<path fill="#161b22" stroke="#00f2ff" d="M242.03,-608.63C242.03,-608.63 166.03,-608.63 166.03,-608.63 160.03,-608.63 154.03,-602.63 154.03,-596.63 154.03,-596.63 154.03,-584.63 154.03,-584.63 154.03,-578.63 160.03,-572.63 166.03,-572.63 166.03,-572.63 242.03,-572.63 242.03,-572.63 248.03,-572.63 254.03,-578.63 254.03,-584.63 254.03,-584.63 254.03,-596.63 254.03,-596.63 254.03,-602.63 248.03,-608.63 242.03,-608.63"/>
<text text-anchor="middle" x="204.03" y="-586.93" font-family="Times,serif" font-size="14.00" fill="#00f2ff">Hybrid Session</text>
</g>
<!-- Experience -->
<g id="node2" class="node">
<title>Experience</title>
<polygon fill="#161b22" stroke="#00f2ff" points="192.03,-535.63 80.03,-535.63 80.03,-499.63 198.03,-499.63 198.03,-529.63 192.03,-535.63"/>
<polyline fill="none" stroke="#00f2ff" points="192.03,-535.63 192.03,-529.63 "/>
<polyline fill="none" stroke="#00f2ff" points="198.03,-529.63 192.03,-529.63 "/>
<text text-anchor="middle" x="139.03" y="-513.93" font-family="Times,serif" font-size="14.00" fill="#00f2ff">Refined Heuristics</text>
</g>
<!-- Session&#45;&gt;Experience -->
<g id="edge1" class="edge">
<title>Session&#45;&gt;Experience</title>
<path fill="none" stroke="#ff00ff" d="M188.29,-572.44C180.23,-563.63 170.27,-552.75 161.42,-543.08"/>
<polygon fill="#ff00ff" stroke="#ff00ff" points="154.62,-535.66 164.69,-539.99 157.99,-539.34 161.37,-543.03 161.37,-543.03 161.37,-543.03 157.99,-539.34 158.05,-546.07 154.62,-535.66 154.62,-535.66"/>
</g>
<!-- Framework -->
<g id="node3" class="node">
<title>Framework</title>
<polygon fill="#161b22" stroke="#00ff00" points="205.03,-448.63 202.03,-452.63 181.03,-452.63 178.03,-448.63 41.03,-448.63 41.03,-412.63 205.03,-412.63 205.03,-448.63"/>
<text text-anchor="middle" x="123.03" y="-426.93" font-family="Times,serif" font-size="14.00" fill="#00f2ff">Hybrid Framework Update</text>
</g>
<!-- Experience&#45;&gt;Framework -->
<g id="edge2" class="edge">
<title>Experience&#45;&gt;Framework</title>
<path fill="none" stroke="#ff00ff" d="M135.79,-499.43C133.6,-487.79 130.66,-472.17 128.15,-458.86"/>
<polygon fill="#ff00ff" stroke="#ff00ff" points="126.26,-448.8 132.53,-457.8 127.18,-453.72 128.11,-458.63 128.11,-458.63 128.11,-458.63 127.18,-453.72 123.69,-459.46 126.26,-448.8 126.26,-448.8"/>
<text text-anchor="middle" x="166.53" y="-470.43" font-family="Times,serif" font-size="14.00"> Persistence </text>
</g>
<!-- NextLeap -->
<g id="node4" class="node">
<title>NextLeap</title>
<path fill="#161b22" stroke="#ffff00" d="M344.08,-232.24C344.08,-232.24 232.06,-232.24 232.06,-232.24 226.06,-232.24 218.2,-237.94 216.35,-243.65 216.35,-243.65 181.74,-350.03 181.74,-350.03 179.88,-355.73 176.17,-355.73 174.31,-350.03 174.31,-350.03 139.71,-243.65 139.71,-243.65 137.85,-237.94 129.99,-232.24 123.99,-232.24 123.99,-232.24 11.97,-232.24 11.97,-232.24 5.97,-232.24 4.83,-228.71 9.69,-225.19 9.69,-225.19 100.3,-159.44 100.3,-159.44 105.16,-155.91 108.16,-146.68 106.3,-140.98 106.3,-140.98 71.7,-34.6 71.7,-34.6 69.84,-28.89 72.84,-26.71 77.7,-30.23 77.7,-30.23 168.31,-95.99 168.31,-95.99 173.17,-99.51 182.88,-99.51 187.74,-95.99 187.74,-95.99 278.36,-30.23 278.36,-30.23 283.21,-26.71 286.21,-28.89 284.36,-34.6 284.36,-34.6 249.75,-140.98 249.75,-140.98 247.89,-146.68 250.89,-155.91 255.75,-159.44 255.75,-159.44 346.37,-225.19 346.37,-225.19 351.22,-228.71 350.08,-232.24 344.08,-232.24"/>
<text text-anchor="middle" x="178.03" y="-188.61" font-family="Times,serif" font-size="14.00" fill="#00f2ff">Next Transfinite Leap</text>
</g>
<!-- Framework&#45;&gt;NextLeap -->
<g id="edge3" class="edge">
<title>Framework&#45;&gt;NextLeap</title>
<path fill="none" stroke="#ff00ff" d="M127.07,-412.25C132.58,-388.57 142.91,-344.21 152.83,-301.58"/>
<polygon fill="#ff00ff" stroke="#ff00ff" points="155.14,-291.66 157.25,-302.42 154,-296.53 152.87,-301.4 152.87,-301.4 152.87,-301.4 154,-296.53 148.49,-300.38 155.14,-291.66 155.14,-291.66"/>
<text text-anchor="middle" x="165.53" y="-383.43" font-family="Times,serif" font-size="14.00"> Readiness </text>
</g>
<!-- NextLeap&#45;&gt;Session -->
<g id="edge4" class="edge">
<title>NextLeap&#45;&gt;Session</title>
<path fill="none" stroke="#ff00ff" d="M198.77,-298.02C204.99,-334.17 210.96,-375.03 214.03,-412.63 215.33,-428.57 214.59,-432.64 214.03,-448.63 212.62,-488.21 209.02,-533.92 206.54,-562.3"/>
<polygon fill="#ff00ff" stroke="#ff00ff" points="205.65,-572.28 202.06,-561.92 206.1,-567.3 206.54,-562.32 206.54,-562.32 206.54,-562.32 206.1,-567.3 211.02,-562.72 205.65,-572.28 205.65,-572.28"/>
<text text-anchor="middle" x="244.53" y="-470.43" font-family="Times,serif" font-size="14.00"> Execution </text>
</g>
</g>
</svg>
