<?xml version="1.0" encoding="UTF-8" standalone="no"?>
<!DOCTYPE svg PUBLIC "-//W3C//DTD SVG 1.1//EN"
 "http://www.w3.org/Graphics/SVG/1.1/DTD/svg11.dtd">
<!-- Generated by graphviz version 2.43.0 (0)
 -->
<!-- Title: FormalProof Pages: 1 -->
<svg width="240pt" height="291pt"
 viewBox="0.00 0.00 240.00 291.00" xmlns="http://www.w3.org/2000/svg" xmlns:xlink="http://www.w3.org/1999/xlink">
<g id="graph0" class="graph" transform="scale(1 1) rotate(0) translate(4 287)">
<title>FormalProof</title>
<polygon fill="#0d1117" stroke="transparent" points="-4,4 -4,-287 236,-287 236,4 -4,4"/>
<text text-anchor="middle" x="116" y="-7.8" font-family="Helvetica,sans-Serif" font-size="14.00" fill="#00f2ff">T10.1: Formal Proof (ω Verification)</text>
<!-- Code -->
<g id="node1" class="node">
<title>Code</title>
<path fill="#161b22" stroke="#00f2ff" d="M156,-283C156,-283 76,-283 76,-283 70,-283 64,-277 64,-271 64,-271 64,-259 64,-259 64,-253 70,-247 76,-247 76,-247 156,-247 156,-247 162,-247 168,-253 168,-259 168,-259 168,-271 168,-271 168,-277 162,-283 156,-283"/>
<text text-anchor="middle" x="116" y="-261.3" font-family="Times,serif" font-size="14.00" fill="#00f2ff">Candidate Code</text>
</g>
<!-- Linters -->
<g id="node2" class="node">
<title>Linters</title>
<path fill="#161b22" stroke="#00f2ff" d="M153,-211C153,-211 79,-211 79,-211 73,-211 67,-205 67,-199 67,-199 67,-187 67,-187 67,-181 73,-175 79,-175 79,-175 153,-175 153,-175 159,-175 165,-181 165,-187 165,-187 165,-199 165,-199 165,-205 159,-211 153,-211"/>
<text text-anchor="middle" x="116" y="-189.3" font-family="Times,serif" font-size="14.00" fill="#00f2ff">Static Analysis</text>
</g>
<!-- Code&#45;&gt;Linters -->
<g id="edge1" class="edge">
<title>Code&#45;&gt;Linters</title>
<path fill="none" stroke="#ff00ff" d="M116,-246.7C116,-238.98 116,-229.71 116,-221.11"/>
<polygon fill="#ff00ff" stroke="#ff00ff" points="116,-211.1 120.5,-221.1 116,-216.1 116,-221.1 116,-221.1 116,-221.1 116,-216.1 111.5,-221.1 116,-211.1 116,-211.1"/>
</g>
<!-- Tests -->
<g id="node3" class="node">
<title>Tests</title>
<path fill="#161b22" stroke="#00f2ff" d="M171.5,-139C171.5,-139 60.5,-139 60.5,-139 54.5,-139 48.5,-133 48.5,-127 48.5,-127 48.5,-115 48.5,-115 48.5,-109 54.5,-103 60.5,-103 60.5,-103 171.5,-103 171.5,-103 177.5,-103 183.5,-109 183.5,-115 183.5,-115 183.5,-127 183.5,-127 183.5,-133 177.5,-139 171.5,-139"/>
<text text-anchor="middle" x="116" y="-117.3" font-family="Times,serif" font-size="14.00" fill="#00f2ff">Unit/Integration Tests</text>
</g>
<!-- Linters&#45;&gt;Tests -->
<g id="edge2" class="edge">
<title>Linters&#45;&gt;Tests</title>
<path fill="none" stroke="#ff00ff" d="M116,-174.7C116,-166.98 116,-157.71 116,-149.11"/>
<polygon fill="#ff00ff" stroke="#ff00ff" points="116,-139.1 120.5,-149.1 116,-144.1 116,-149.1 116,-149.1 116,-149.1 116,-144.1 111.5,-149.1 116,-139.1 116,-139.1"/>
</g>
<!-- FormalProof -->
<g id="node4" class="node">
<title>FormalProof</title>
<path fill="#161b22" stroke="#00f2ff" d="M218.01,-42.51C218.01,-42.51 218.01,-47.49 218.01,-47.49 218.01,-49.97 215.57,-52.89 213.12,-53.32 213.12,-53.32 163.15,-62.14 163.15,-62.14 160.7,-62.57 155.77,-63 153.28,-63 153.28,-63 78.72,-63 78.72,-63 76.23,-63 71.3,-62.57 68.85,-62.14 68.85,-62.14 18.88,-53.32 18.88,-53.32 16.43,-52.89 13.99,-49.97 13.99,-47.49 13.99,-47.49 13.99,-42.51 13.99,-42.51 13.99,-40.03 16.43,-37.11 18.88,-36.68 18.88,-36.68 68.85,-27.86 68.85,-27.86 71.3,-27.43 76.23,-27 78.72,-27 78.72,-27 153.28,-27 153.28,-27 155.77,-27 160.7,-27.43 163.15,-27.86 163.15,-27.86 213.12,-36.68 213.12,-36.68 215.57,-37.11 218.01,-40.03 218.01,-42.51"/>
<path fill="none" stroke="#00f2ff" d="M222.01,-41.4C222.01,-41.4 222.01,-48.6 222.01,-48.6 222.01,-52.21 218.46,-56.44 214.91,-57.06 214.91,-57.06 165.7,-65.75 165.7,-65.75 162.15,-66.37 155,-67 151.4,-67 151.4,-67 80.6,-67 80.6,-67 77,-67 69.85,-66.37 66.3,-65.75 66.3,-65.75 17.09,-57.06 17.09,-57.06 13.54,-56.44 9.99,-52.21 9.99,-48.6 9.99,-48.6 9.99,-41.4 9.99,-41.4 9.99,-37.79 13.54,-33.56 17.09,-32.94 17.09,-32.94 66.3,-24.25 66.3,-24.25 69.85,-23.63 77,-23 80.6,-23 80.6,-23 151.4,-23 151.4,-23 155,-23 162.15,-23.63 165.7,-24.25 165.7,-24.25 214.91,-32.94 214.91,-32.94 218.46,-33.56 222.01,-37.79 222.01,-41.4"/>
<text text-anchor="middle" x="116" y="-41.3" font-family="Times,serif" font-size="14.00" fill="#00f2ff">Formal Verification (ω)</text>
</g>
<!-- Tests&#45;&gt;FormalProof -->
<g id="edge3" class="edge">
<title>Tests&#45;&gt;FormalProof</title>
<path fill="none" stroke="#ff00ff" d="M116,-102.84C116,-95.16 116,-85.88 116,-77.05"/>
<polygon fill="#ff00ff" stroke="#ff00ff" points="116,-67.03 120.5,-77.03 116,-72.03 116,-77.03 116,-77.03 116,-77.03 116,-72.03 111.5,-77.03 116,-67.03 116,-67.03"/>
</g>
</g>
</svg>
