<?xml version="1.0" encoding="UTF-8" standalone="no"?>
<!DOCTYPE svg PUBLIC "-//W3C//DTD SVG 1.1//EN"
 "http://www.w3.org/Graphics/SVG/1.1/DTD/svg11.dtd">
<!-- Generated by graphviz version 2.43.0 (0)
 -->
<!-- Title: SemanticProof Pages: 1 -->
<svg width="280pt" height="308pt"
 viewBox="0.00 0.00 280.07 308.00" xmlns="http://www.w3.org/2000/svg" xmlns:xlink="http://www.w3.org/1999/xlink">
<g id="graph0" class="graph" transform="scale(1 1) rotate(0) translate(4 304)">
<title>SemanticProof</title>
<polygon fill="#0d1117" stroke="transparent" points="-4,4 -4,-304 276.07,-304 276.07,4 -4,4"/>
<text text-anchor="middle" x="136.04" y="-7.8" font-family="Helvetica,sans-Serif" font-size="14.00" fill="#00f2ff">T10.2: Semantic Verification (+1 Check)</text>
<!-- Artifact -->
<g id="node1" class="node">
<title>Artifact</title>
<path fill="#161b22" stroke="#00f2ff" d="M174.54,-300C174.54,-300 97.54,-300 97.54,-300 91.54,-300 85.54,-294 85.54,-288 85.54,-288 85.54,-276 85.54,-276 85.54,-270 91.54,-264 97.54,-264 97.54,-264 174.54,-264 174.54,-264 180.54,-264 186.54,-270 186.54,-276 186.54,-276 186.54,-288 186.54,-288 186.54,-294 180.54,-300 174.54,-300"/>
<text text-anchor="middle" x="136.04" y="-278.3" font-family="Times,serif" font-size="14.00" fill="#00f2ff">Formal Artifact</text>
</g>
<!-- Review -->
<g id="node2" class="node">
<title>Review</title>
<path fill="#161b22" stroke="#00ff00" d="M189.04,-227C189.04,-227 83.04,-227 83.04,-227 77.04,-227 71.04,-221 71.04,-215 71.04,-215 71.04,-203 71.04,-203 71.04,-197 77.04,-191 83.04,-191 83.04,-191 189.04,-191 189.04,-191 195.04,-191 201.04,-197 201.04,-203 201.04,-203 201.04,-215 201.04,-215 201.04,-221 195.04,-227 189.04,-227"/>
<text text-anchor="middle" x="136.04" y="-205.3" font-family="Times,serif" font-size="14.00" fill="#00f2ff">Human Review (+1)</text>
</g>
<!-- Artifact&#45;&gt;Review -->
<g id="edge1" class="edge">
<title>Artifact&#45;&gt;Review</title>
<path fill="none" stroke="#ff00ff" d="M136.04,-263.81C136.04,-255.79 136.04,-246.05 136.04,-237.07"/>
<polygon fill="#ff00ff" stroke="#ff00ff" points="136.04,-227.03 140.54,-237.03 136.04,-232.03 136.04,-237.03 136.04,-237.03 136.04,-237.03 136.04,-232.03 131.54,-237.03 136.04,-227.03 136.04,-227.03"/>
</g>
<!-- IntentMatch -->
<g id="node3" class="node">
<title>IntentMatch</title>
<path fill="#161b22" stroke="#ffff00" d="M124.14,-152.43C124.14,-152.43 11.86,-137.57 11.86,-137.57 5.91,-136.79 5.91,-135.21 11.86,-134.43 11.86,-134.43 124.14,-119.57 124.14,-119.57 130.09,-118.79 141.98,-118.79 147.93,-119.57 147.93,-119.57 260.21,-134.43 260.21,-134.43 266.16,-135.21 266.16,-136.79 260.21,-137.57 260.21,-137.57 147.93,-152.43 147.93,-152.43 141.98,-153.21 130.09,-153.21 124.14,-152.43"/>
<text text-anchor="middle" x="136.04" y="-132.3" font-family="Times,serif" font-size="14.00" fill="#00f2ff">Intent Alignment Check</text>
</g>
<!-- Review&#45;&gt;IntentMatch -->
<g id="edge2" class="edge">
<title>Review&#45;&gt;IntentMatch</title>
<path fill="none" stroke="#ff00ff" d="M136.04,-190.81C136.04,-182.79 136.04,-173.05 136.04,-164.07"/>
<polygon fill="#ff00ff" stroke="#ff00ff" points="136.04,-154.03 140.54,-164.03 136.04,-159.03 136.04,-164.03 136.04,-164.03 136.04,-164.03 136.04,-159.03 131.54,-164.03 136.04,-154.03 136.04,-154.03"/>
</g>
<!-- SemanticProof -->
<g id="node4" class="node">
<title>SemanticProof</title>
<path fill="#161b22" stroke="#00ff00" d="M230.08,-42.51C230.08,-42.51 230.08,-47.49 230.08,-47.49 230.08,-49.97 227.64,-52.92 225.2,-53.39 225.2,-53.39 179.87,-62.07 179.87,-62.07 177.43,-62.53 172.51,-63 170.02,-63 170.02,-63 102.05,-63 102.05,-63 99.57,-63 94.64,-62.53 92.2,-62.07 92.2,-62.07 46.87,-53.39 46.87,-53.39 44.43,-52.92 41.99,-49.97 41.99,-47.49 41.99,-47.49 41.99,-42.51 41.99,-42.51 41.99,-40.03 44.43,-37.08 46.87,-36.61 46.87,-36.61 92.2,-27.93 92.2,-27.93 94.64,-27.47 99.57,-27 102.05,-27 102.05,-27 170.02,-27 170.02,-27 172.51,-27 177.43,-27.47 179.87,-27.93 179.87,-27.93 225.2,-36.61 225.2,-36.61 227.64,-37.08 230.08,-40.03 230.08,-42.51"/>
<path fill="none" stroke="#00ff00" d="M234.07,-41.41C234.07,-41.41 234.07,-48.59 234.07,-48.59 234.07,-52.18 230.55,-56.44 227.02,-57.11 227.02,-57.11 182.42,-65.65 182.42,-65.65 178.89,-66.33 171.78,-67 168.19,-67 168.19,-67 103.88,-67 103.88,-67 100.29,-67 93.18,-66.33 89.65,-65.65 89.65,-65.65 45.05,-57.11 45.05,-57.11 41.52,-56.44 38,-52.18 38,-48.59 38,-48.59 38,-41.41 38,-41.41 38,-37.82 41.52,-33.56 45.05,-32.89 45.05,-32.89 89.65,-24.35 89.65,-24.35 93.18,-23.67 100.29,-23 103.88,-23 103.88,-23 168.19,-23 168.19,-23 171.78,-23 178.89,-23.67 182.42,-24.35 182.42,-24.35 227.02,-32.89 227.02,-32.89 230.55,-33.56 234.07,-37.82 234.07,-41.41"/>
<text text-anchor="middle" x="136.04" y="-41.3" font-family="Times,serif" font-size="14.00" fill="#00f2ff">Semantic Verification</text>
</g>
<!-- IntentMatch&#45;&gt;SemanticProof -->
<g id="edge3" class="edge">
<title>IntentMatch&#45;&gt;SemanticProof</title>
<path fill="none" stroke="#ff00ff" d="M136.04,-117.84C136.04,-106.44 136.04,-91.13 136.04,-77.58"/>
<polygon fill="#ff00ff" stroke="#ff00ff" points="136.04,-67.19 140.54,-77.19 136.04,-72.19 136.04,-77.19 136.04,-77.19 136.04,-77.19 136.04,-72.19 131.54,-77.19 136.04,-67.19 136.04,-67.19"/>
<text text-anchor="middle" x="165.04" y="-88.8" font-family="Times,serif" font-size="14.00"> Validated </text>
</g>
</g>
</svg>
