<?xml version="1.0" encoding="UTF-8" standalone="no"?>
<!DOCTYPE svg PUBLIC "-//W3C//DTD SVG 1.1//EN"
 "http://www.w3.org/Graphics/SVG/1.1/DTD/svg11.dtd">
<!-- Generated by graphviz version 2.43.0 (0)
 -->
<!-- Title: ProofImmutability Pages: 1 -->
<svg width="263pt" height="211pt"
 viewBox="0.00 0.00 263.00 211.00" xmlns="http://www.w3.org/2000/svg" xmlns:xlink="http://www.w3.org/1999/xlink">
<g id="graph0" class="graph" transform="scale(1 1) rotate(0) translate(4 207)">
<title>ProofImmutability</title>
<polygon fill="#0d1117" stroke="transparent" points="-4,4 -4,-207 259,-207 259,4 -4,4"/>
<text text-anchor="middle" x="127.5" y="-7.8" font-family="Helvetica,sans-Serif" font-size="14.00" fill="#00f2ff">T10.4: Proof Immutability &amp; Persistence</text>
<!-- Fact -->
<g id="node1" class="node">
<title>Fact</title>
<path fill="#161b22" stroke="#00f2ff" d="M162,-203C162,-203 93,-203 93,-203 87,-203 81,-197 81,-191 81,-191 81,-179 81,-179 81,-173 87,-167 93,-167 93,-167 162,-167 162,-167 168,-167 174,-173 174,-179 174,-179 174,-191 174,-191 174,-197 168,-203 162,-203"/>
<text text-anchor="middle" x="127.5" y="-181.3" font-family="Times,serif" font-size="14.00" fill="#00f2ff">Verified Truth</text>
</g>
<!-- Commit -->
<g id="node2" class="node">
<title>Commit</title>
<polygon fill="#161b22" stroke="#00f2ff" points="180,-125 63,-125 63,-101 180,-101 192,-113 180,-125"/>
<text text-anchor="middle" x="127.5" y="-109.3" font-family="Times,serif" font-size="14.00" fill="#00f2ff">Git / Permanent Log</text>
</g>
<!-- Fact&#45;&gt;Commit -->
<g id="edge1" class="edge">
<title>Fact&#45;&gt;Commit</title>
<path fill="none" stroke="#ff00ff" d="M127.5,-166.7C127.5,-158.98 127.5,-149.71 127.5,-141.11"/>
<polygon fill="#ff00ff" stroke="#ff00ff" points="127.5,-131.1 132,-141.1 127.5,-136.1 127.5,-141.1 127.5,-141.1 127.5,-141.1 127.5,-136.1 123,-141.1 127.5,-131.1 127.5,-131.1"/>
</g>
<!-- Immutable -->
<g id="node3" class="node">
<title>Immutable</title>
<path fill="#161b22" stroke="#00ff00" d="M202,-55.73C202,-57.53 168.61,-59 127.5,-59 86.39,-59 53,-57.53 53,-55.73 53,-55.73 53,-26.27 53,-26.27 53,-24.47 86.39,-23 127.5,-23 168.61,-23 202,-24.47 202,-26.27 202,-26.27 202,-55.73 202,-55.73"/>
<path fill="none" stroke="#00ff00" d="M202,-55.73C202,-53.92 168.61,-52.45 127.5,-52.45 86.39,-52.45 53,-53.92 53,-55.73"/>
<text text-anchor="middle" x="127.5" y="-37.3" font-family="Times,serif" font-size="14.00" fill="#00f2ff">Immutable Project State</text>
</g>
<!-- Commit&#45;&gt;Immutable -->
<g id="edge2" class="edge">
<title>Commit&#45;&gt;Immutable</title>
<path fill="none" stroke="#ff00ff" d="M127.5,-94.7C127.5,-86.98 127.5,-77.71 127.5,-69.11"/>
<polygon fill="#ff00ff" stroke="#ff00ff" points="127.5,-59.1 132,-69.1 127.5,-64.1 127.5,-69.1 127.5,-69.1 127.5,-69.1 127.5,-64.1 123,-69.1 127.5,-59.1 127.5,-59.1"/>
</g>
</g>
</svg>
