<?xml version="1.0" encoding="UTF-8" standalone="no"?>
<!DOCTYPE svg PUBLIC "-//W3C//DTD SVG 1.1//EN"
 "http://www.w3.org/Graphics/SVG/1.1/DTD/svg11.dtd">
<!-- Generated by graphviz version 2.43.0 (0)
 -->
<!-- Title: TransfiniteStability Pages: 1 -->
<svg width="372pt" height="235pt"
 viewBox="0.00 0.00 371.63 235.00" xmlns="http://www.w3.org/2000/svg" xmlns:xlink="http://www.w3.org/1999/xlink">
<g id="graph0" class="graph" transform="scale(1 1) rotate(0) translate(4 231)">
<title>TransfiniteStability</title>
<polygon fill="#0d1117" stroke="transparent" points="-4,4 -4,-231 367.63,-231 367.63,4 -4,4"/>
<text text-anchor="middle" x="181.82" y="-7.8" font-family="Helvetica,sans-Serif" font-size="14.00" fill="#00f2ff">T10.5: Transfinite Stability &amp; Order</text>
<!-- Chaos -->
<g id="node1" class="node">
<title>Chaos</title>
<path fill="#161b22" stroke="#ff0000" d="M284.63,-227C284.63,-227 172.63,-227 172.63,-227 166.63,-227 160.63,-221 160.63,-215 160.63,-215 160.63,-203 160.63,-203 160.63,-197 166.63,-191 172.63,-191 172.63,-191 284.63,-191 284.63,-191 290.63,-191 296.63,-197 296.63,-203 296.63,-203 296.63,-215 296.63,-215 296.63,-221 290.63,-227 284.63,-227"/>
<text text-anchor="middle" x="228.63" y="-205.3" font-family="Times,serif" font-size="14.00" fill="#00f2ff">Entropy / Complexity</text>
</g>
<!-- Framework -->
<g id="node2" class="node">
<title>Framework</title>
<path fill="#161b22" stroke="#00ff00" d="M210.84,-154C210.84,-154 70.42,-154 70.42,-154 64.42,-154 53.31,-150.86 48.2,-147.72 48.2,-147.72 10.09,-124.28 10.09,-124.28 4.98,-121.14 5.87,-118 11.87,-118 11.87,-118 269.39,-118 269.39,-118 275.39,-118 276.28,-121.14 271.17,-124.28 271.17,-124.28 233.06,-147.72 233.06,-147.72 227.95,-150.86 216.84,-154 210.84,-154"/>
<text text-anchor="middle" x="140.63" y="-132.3" font-family="Times,serif" font-size="14.00" fill="#00f2ff">Transfinite Methodology</text>
</g>
<!-- Chaos&#45;&gt;Framework -->
<g id="edge1" class="edge">
<title>Chaos&#45;&gt;Framework</title>
<path fill="none" stroke="#ff00ff" d="M207.33,-190.81C195.98,-181.66 181.85,-170.26 169.53,-160.32"/>
<polygon fill="#ff00ff" stroke="#ff00ff" points="161.74,-154.03 172.35,-156.81 165.63,-157.17 169.52,-160.31 169.52,-160.31 169.52,-160.31 165.63,-157.17 166.69,-163.81 161.74,-154.03 161.74,-154.03"/>
</g>
<!-- Stability -->
<g id="node3" class="node">
<title>Stability</title>
<path fill="#161b22" stroke="#ffff00" stroke-width="4" d="M316.51,-42.51C316.51,-42.51 316.51,-47.49 316.51,-47.49 316.51,-49.97 314.07,-52.95 311.64,-53.45 311.64,-53.45 269.9,-62 269.9,-62 267.47,-62.5 262.55,-63 260.06,-63 260.06,-63 197.2,-63 197.2,-63 194.72,-63 189.8,-62.5 187.36,-62 187.36,-62 145.62,-53.45 145.62,-53.45 143.19,-52.95 140.76,-49.97 140.76,-47.49 140.76,-47.49 140.76,-42.51 140.76,-42.51 140.76,-40.03 143.19,-37.05 145.62,-36.55 145.62,-36.55 187.36,-28 187.36,-28 189.8,-27.5 194.72,-27 197.2,-27 197.2,-27 260.06,-27 260.06,-27 262.55,-27 267.47,-27.5 269.9,-28 269.9,-28 311.64,-36.55 311.64,-36.55 314.07,-37.05 316.51,-40.03 316.51,-42.51"/>
<path fill="none" stroke="#ffff00" stroke-width="4" d="M320.5,-41.43C320.5,-41.43 320.5,-48.57 320.5,-48.57 320.5,-52.15 317,-56.44 313.5,-57.15 313.5,-57.15 272.44,-65.57 272.44,-65.57 268.94,-66.28 261.86,-67 258.29,-67 258.29,-67 198.97,-67 198.97,-67 195.4,-67 188.33,-66.28 184.83,-65.57 184.83,-65.57 143.76,-57.15 143.76,-57.15 140.26,-56.44 136.76,-52.15 136.76,-48.57 136.76,-48.57 136.76,-41.43 136.76,-41.43 136.76,-37.85 140.26,-33.56 143.76,-32.85 143.76,-32.85 184.83,-24.43 184.83,-24.43 188.33,-23.72 195.4,-23 198.97,-23 198.97,-23 258.29,-23 258.29,-23 261.86,-23 268.94,-23.72 272.44,-24.43 272.44,-24.43 313.5,-32.85 313.5,-32.85 317,-33.56 320.5,-37.85 320.5,-41.43"/>
<text text-anchor="middle" x="228.63" y="-41.3" font-family="Times,serif" font-size="14.00" fill="#00f2ff">Transfinite Stability</text>
</g>
<!-- Framework&#45;&gt;Stability -->
<g id="edge2" class="edge">
<title>Framework&#45;&gt;Stability</title>
<path fill="none" stroke="#ff00ff" d="M157.6,-117.84C169.76,-105.54 186.43,-88.68 200.56,-74.39"/>
<polygon fill="#ff00ff" stroke="#ff00ff" points="207.68,-67.19 203.85,-77.47 204.16,-70.75 200.65,-74.3 200.65,-74.3 200.65,-74.3 204.16,-70.75 197.45,-71.14 207.68,-67.19 207.68,-67.19"/>
<text text-anchor="middle" x="235.63" y="-88.8" font-family="Times,serif" font-size="14.00"> Order Creation </text>
</g>
<!-- Stability&#45;&gt;Chaos -->
<g id="edge3" class="edge">
<title>Stability&#45;&gt;Chaos</title>
<path fill="none" stroke="#ff00ff" stroke-dasharray="1,5" d="M267.26,-66.8C273.93,-71.95 280.15,-78.02 284.63,-85 301.27,-110.9 303.38,-125.98 290.63,-154 285.17,-165.99 275.59,-176.36 265.56,-184.71"/>
<polygon fill="#ff00ff" stroke="#ff00ff" points="257.5,-190.97 262.64,-181.29 261.45,-187.91 265.4,-184.84 265.4,-184.84 265.4,-184.84 261.45,-187.91 268.16,-188.39 257.5,-190.97 257.5,-190.97"/>
<text text-anchor="middle" x="331.63" y="-132.3" font-family="Times,serif" font-size="14.00"> Resilience </text>
</g>
</g>
</svg>
