<?xml version="1.0" encoding="UTF-8" standalone="no"?>
<!DOCTYPE svg PUBLIC "-//W3C//DTD SVG 1.1//EN"
 "http://www.w3.org/Graphics/SVG/1.1/DTD/svg11.dtd">
<!-- Generated by graphviz version 2.43.0 (0)
 -->
<!-- Title: GodelianWall Pages: 1 -->
<svg width="359pt" height="541pt"
 viewBox="0.00 0.00 358.82 540.65" xmlns="http://www.w3.org/2000/svg" xmlns:xlink="http://www.w3.org/1999/xlink">
<g id="graph0" class="graph" transform="scale(1 1) rotate(0) translate(4 536.65)">
<title>GodelianWall</title>
<polygon fill="#0d1117" stroke="transparent" points="-4,4 -4,-536.65 354.82,-536.65 354.82,4 -4,4"/>
<text text-anchor="middle" x="175.41" y="-7.8" font-family="Helvetica,sans-Serif" font-size="14.00" fill="#00f2ff">T8.5: The Gödelian Barrier Visualization</text>
<!-- Progress -->
<g id="node1" class="node">
<title>Progress</title>
<path fill="#161b22" stroke="#00f2ff" d="M227.41,-532.65C227.41,-532.65 123.41,-532.65 123.41,-532.65 117.41,-532.65 111.41,-526.65 111.41,-520.65 111.41,-520.65 111.41,-508.65 111.41,-508.65 111.41,-502.65 117.41,-496.65 123.41,-496.65 123.41,-496.65 227.41,-496.65 227.41,-496.65 233.41,-496.65 239.41,-502.65 239.41,-508.65 239.41,-508.65 239.41,-520.65 239.41,-520.65 239.41,-526.65 233.41,-532.65 227.41,-532.65"/>
<text text-anchor="middle" x="175.41" y="-510.95" font-family="Times,serif" font-size="14.00" fill="#00f2ff">Formal Progress (ω)</text>
</g>
<!-- TheWall -->
<g id="node2" class="node">
<title>TheWall</title>
<path fill="#161b22" stroke="#ff0000" stroke-width="5" d="M223.41,-445.65C223.41,-445.65 127.41,-445.65 127.41,-445.65 121.41,-445.65 115.41,-439.65 115.41,-433.65 115.41,-433.65 115.41,-419.65 115.41,-419.65 115.41,-413.65 121.41,-407.65 127.41,-407.65 127.41,-407.65 223.41,-407.65 223.41,-407.65 229.41,-407.65 235.41,-413.65 235.41,-419.65 235.41,-419.65 235.41,-433.65 235.41,-433.65 235.41,-439.65 229.41,-445.65 223.41,-445.65"/>
<text text-anchor="middle" x="175.41" y="-430.45" font-family="Times,serif" font-size="14.00" fill="#00f2ff">The Gödelian Wall</text>
<text text-anchor="middle" x="175.41" y="-415.45" font-family="Times,serif" font-size="14.00" fill="#00f2ff">(Axiomatic Limit)</text>
</g>
<!-- Progress&#45;&gt;TheWall -->
<g id="edge1" class="edge">
<title>Progress&#45;&gt;TheWall</title>
<path fill="none" stroke="#ff00ff" d="M175.41,-496.24C175.41,-484.7 175.41,-469.29 175.41,-456"/>
<polygon fill="#ff00ff" stroke="#ff00ff" points="175.41,-445.91 179.91,-455.91 175.41,-450.91 175.41,-455.91 175.41,-455.91 175.41,-455.91 175.41,-450.91 170.91,-455.91 175.41,-445.91 175.41,-445.91"/>
<text text-anchor="middle" x="204.41" y="-467.45" font-family="Times,serif" font-size="14.00"> Collision </text>
</g>
<!-- TheLeap -->
<g id="node3" class="node">
<title>TheLeap</title>
<path fill="#161b22" stroke="#00ff00" d="M338.72,-229.16C338.72,-229.16 228.79,-229.16 228.79,-229.16 222.79,-229.16 214.94,-234.87 213.08,-240.58 213.08,-240.58 179.12,-345.06 179.12,-345.06 177.26,-350.76 173.55,-350.76 171.7,-345.06 171.7,-345.06 137.73,-240.58 137.73,-240.58 135.88,-234.87 128.02,-229.16 122.02,-229.16 122.02,-229.16 12.09,-229.16 12.09,-229.16 6.09,-229.16 4.95,-225.64 9.8,-222.11 9.8,-222.11 98.73,-157.53 98.73,-157.53 103.59,-154.01 106.59,-144.78 104.73,-139.07 104.73,-139.07 70.77,-34.59 70.77,-34.59 68.91,-28.88 71.91,-26.7 76.77,-30.23 76.77,-30.23 165.7,-94.81 165.7,-94.81 170.55,-98.33 180.26,-98.33 185.12,-94.81 185.12,-94.81 274.05,-30.23 274.05,-30.23 278.9,-26.7 281.9,-28.88 280.05,-34.59 280.05,-34.59 246.08,-139.07 246.08,-139.07 244.23,-144.78 247.23,-154.01 252.08,-157.53 252.08,-157.53 341.01,-222.11 341.01,-222.11 345.87,-225.64 344.72,-229.16 338.72,-229.16"/>
<text text-anchor="middle" x="175.41" y="-186.12" font-family="Times,serif" font-size="14.00" fill="#00f2ff">Transfinite Leap (+1)</text>
</g>
<!-- TheWall&#45;&gt;TheLeap -->
<g id="edge2" class="edge">
<title>TheWall&#45;&gt;TheLeap</title>
<path fill="none" stroke="#ff00ff" stroke-dasharray="5,2" d="M175.41,-407.61C175.41,-397.25 175.41,-383.1 175.41,-366.95"/>
<polygon fill="#ff00ff" stroke="#ff00ff" points="175.41,-356.65 179.91,-366.65 175.41,-361.65 175.41,-366.65 175.41,-366.65 175.41,-366.65 175.41,-361.65 170.91,-366.65 175.41,-356.65 175.41,-356.65"/>
<text text-anchor="middle" x="215.91" y="-378.45" font-family="Times,serif" font-size="14.00"> Transcending </text>
</g>
</g>
</svg>
