<?xml version="1.0" encoding="UTF-8" standalone="no"?>
<!DOCTYPE svg PUBLIC "-//W3C//DTD SVG 1.1//EN"
 "http://www.w3.org/Graphics/SVG/1.1/DTD/svg11.dtd">
<!-- Generated by graphviz version 2.43.0 (0)
 -->
<!-- Title: ComplexityExplosion Pages: 1 -->
<svg width="231pt" height="241pt"
 viewBox="0.00 0.00 231.00 241.00" xmlns="http://www.w3.org/2000/svg" xmlns:xlink="http://www.w3.org/1999/xlink">
<g id="graph0" class="graph" transform="scale(1 1) rotate(0) translate(4 237)">
<title>ComplexityExplosion</title>
<polygon fill="#0d1117" stroke="transparent" points="-4,4 -4,-237 227,-237 227,4 -4,4"/>
<text text-anchor="middle" x="111.5" y="-7.8" font-family="Helvetica,sans-Serif" font-size="14.00" fill="#00f2ff">T8.1: Complexity Explosion Phase</text>
<!-- Time -->
<g id="node1" class="node">
<title>Time</title>
<path fill="#161b22" stroke="#00f2ff" d="M154.5,-233C154.5,-233 56.5,-233 56.5,-233 50.5,-233 44.5,-227 44.5,-221 44.5,-221 44.5,-209 44.5,-209 44.5,-203 50.5,-197 56.5,-197 56.5,-197 154.5,-197 154.5,-197 160.5,-197 166.5,-203 166.5,-209 166.5,-209 166.5,-221 166.5,-221 166.5,-227 160.5,-233 154.5,-233"/>
<text text-anchor="middle" x="105.5" y="-211.3" font-family="Times,serif" font-size="14.00" fill="#00f2ff">Development Time</text>
</g>
<!-- Complexity -->
<g id="node2" class="node">
<title>Complexity</title>
<path fill="#161b22" stroke="#ff0000" d="M150,-146C150,-146 61,-146 61,-146 55,-146 49,-140 49,-134 49,-134 49,-122 49,-122 49,-116 55,-110 61,-110 61,-110 150,-110 150,-110 156,-110 162,-116 162,-122 162,-122 162,-134 162,-134 162,-140 156,-146 150,-146"/>
<text text-anchor="middle" x="105.5" y="-124.3" font-family="Times,serif" font-size="14.00" fill="#00f2ff">Code Complexity</text>
</g>
<!-- Time&#45;&gt;Complexity -->
<g id="edge1" class="edge">
<title>Time&#45;&gt;Complexity</title>
<path fill="none" stroke="#ff00ff" d="M105.5,-196.8C105.5,-185.16 105.5,-169.55 105.5,-156.24"/>
<polygon fill="#ff00ff" stroke="#ff00ff" points="105.5,-146.18 110,-156.18 105.5,-151.18 105.5,-156.18 105.5,-156.18 105.5,-156.18 105.5,-151.18 101,-156.18 105.5,-146.18 105.5,-146.18"/>
<text text-anchor="middle" x="127" y="-167.8" font-family="Times,serif" font-size="14.00"> Linear </text>
</g>
<!-- Singularity -->
<g id="node3" class="node">
<title>Singularity</title>
<path fill="#161b22" stroke="#ff0000" d="M147.5,-59C147.5,-59 63.5,-59 63.5,-59 57.5,-59 51.5,-53 51.5,-47 51.5,-47 51.5,-35 51.5,-35 51.5,-29 57.5,-23 63.5,-23 63.5,-23 147.5,-23 147.5,-23 153.5,-23 159.5,-29 159.5,-35 159.5,-35 159.5,-47 159.5,-47 159.5,-53 153.5,-59 147.5,-59"/>
<text text-anchor="middle" x="105.5" y="-37.3" font-family="Times,serif" font-size="14.00" fill="#00f2ff">System Collapse</text>
</g>
<!-- Complexity&#45;&gt;Singularity -->
<g id="edge2" class="edge">
<title>Complexity&#45;&gt;Singularity</title>
<path fill="none" stroke="#ff00ff" d="M105.5,-109.8C105.5,-98.16 105.5,-82.55 105.5,-69.24"/>
<polygon fill="#ff00ff" stroke="#ff00ff" points="105.5,-59.18 110,-69.18 105.5,-64.18 105.5,-69.18 105.5,-69.18 105.5,-69.18 105.5,-64.18 101,-69.18 105.5,-59.18 105.5,-59.18"/>
<text text-anchor="middle" x="142" y="-80.8" font-family="Times,serif" font-size="14.00"> Exponential </text>
</g>
</g>
</svg>
