<?xml version="1.0" encoding="UTF-8" standalone="no"?>
<!DOCTYPE svg PUBLIC "-//W3C//DTD SVG 1.1//EN"
 "http://www.w3.org/Graphics/SVG/1.1/DTD/svg11.dtd">
<!-- Generated by graphviz version 2.43.0 (0)
 -->
<!-- Title: DiminishingReturns Pages: 1 -->
<svg width="304pt" height="387pt"
 viewBox="0.00 0.00 304.00 386.98" xmlns="http://www.w3.org/2000/svg" xmlns:xlink="http://www.w3.org/1999/xlink">
<g id="graph0" class="graph" transform="scale(1 1) rotate(0) translate(4 382.98)">
<title>DiminishingReturns</title>
<polygon fill="#0d1117" stroke="transparent" points="-4,4 -4,-382.98 300,-382.98 300,4 -4,4"/>
<text text-anchor="middle" x="148" y="-7.8" font-family="Helvetica,sans-Serif" font-size="14.00" fill="#00f2ff">T8.2: Diminishing Returns (Formal Stagnation)</text>
<!-- Effort -->
<g id="node1" class="node">
<title>Effort</title>
<path fill="#161b22" stroke="#00f2ff" d="M220,-378.98C220,-378.98 76,-378.98 76,-378.98 70,-378.98 64,-372.98 64,-366.98 64,-366.98 64,-354.98 64,-354.98 64,-348.98 70,-342.98 76,-342.98 76,-342.98 220,-342.98 220,-342.98 226,-342.98 232,-348.98 232,-354.98 232,-354.98 232,-366.98 232,-366.98 232,-372.98 226,-378.98 220,-378.98"/>
<text text-anchor="middle" x="148" y="-357.28" font-family="Times,serif" font-size="14.00" fill="#00f2ff">Formal Optimization Effort</text>
</g>
<!-- Saturation -->
<g id="node3" class="node">
<title>Saturation</title>
<ellipse fill="#161b22" stroke="#ff0000" cx="148" cy="-200.99" rx="90.98" ry="90.98"/>
<text text-anchor="middle" x="148" y="-197.29" font-family="Times,serif" font-size="14.00" fill="#00f2ff">Asymptotic Saturation</text>
</g>
<!-- Effort&#45;&gt;Saturation -->
<g id="edge1" class="edge">
<title>Effort&#45;&gt;Saturation</title>
<path fill="none" stroke="#ff00ff" d="M148,-342.78C148,-332.34 148,-318.09 148,-302.64"/>
<polygon fill="#ff00ff" stroke="#ff00ff" points="148,-292.34 152.5,-302.34 148,-297.34 148,-302.34 148,-302.34 148,-302.34 148,-297.34 143.5,-302.34 148,-292.34 148,-292.34"/>
<text text-anchor="middle" x="186" y="-313.78" font-family="Times,serif" font-size="14.00"> Logarithmic </text>
</g>
<!-- Improvement -->
<g id="node2" class="node">
<title>Improvement</title>
<path fill="#161b22" stroke="#00ff00" d="M212,-59C212,-59 84,-59 84,-59 78,-59 72,-53 72,-47 72,-47 72,-35 72,-35 72,-29 78,-23 84,-23 84,-23 212,-23 212,-23 218,-23 224,-29 224,-35 224,-35 224,-47 224,-47 224,-53 218,-59 212,-59"/>
<text text-anchor="middle" x="148" y="-37.3" font-family="Times,serif" font-size="14.00" fill="#00f2ff">Functional Improvement</text>
</g>
<!-- Saturation&#45;&gt;Improvement -->
<g id="edge2" class="edge">
<title>Saturation&#45;&gt;Improvement</title>
<path fill="none" stroke="#ff00ff" d="M148,-109.92C148,-95.22 148,-81.03 148,-69.47"/>
<polygon fill="#ff00ff" stroke="#ff00ff" points="148,-59.25 152.5,-69.25 148,-64.25 148,-69.25 148,-69.25 148,-69.25 148,-64.25 143.5,-69.25 148,-59.25 148,-59.25"/>
<text text-anchor="middle" x="181.5" y="-80.8" font-family="Times,serif" font-size="14.00"> Zero Delta </text>
</g>
</g>
</svg>
