<?xml version="1.0" encoding="UTF-8" standalone="no"?>
<!DOCTYPE svg PUBLIC "-//W3C//DTD SVG 1.1//EN"
 "http://www.w3.org/Graphics/SVG/1.1/DTD/svg11.dtd">
<!-- Generated by graphviz version 2.43.0 (0)
 -->
<!-- Title: ParadoxTrap Pages: 1 -->
<svg width="290pt" height="213pt"
 viewBox="0.00 0.00 290.00 213.00" xmlns="http://www.w3.org/2000/svg" xmlns:xlink="http://www.w3.org/1999/xlink">
<g id="graph0" class="graph" transform="scale(1 1) rotate(0) translate(4 209)">
<title>ParadoxTrap</title>
<polygon fill="#0d1117" stroke="transparent" points="-4,4 -4,-209 286,-209 286,4 -4,4"/>
<text text-anchor="middle" x="141" y="-7.8" font-family="Helvetica,sans-Serif" font-size="14.00" fill="#00f2ff">T8.3: The Paradox Trap (Formal Oscillation)</text>
<!-- Bug -->
<g id="node1" class="node">
<title>Bug</title>
<path fill="#161b22" stroke="#00f2ff" d="M207.5,-205C207.5,-205 99.5,-205 99.5,-205 93.5,-205 87.5,-199 87.5,-193 87.5,-193 87.5,-181 87.5,-181 87.5,-175 93.5,-169 99.5,-169 99.5,-169 207.5,-169 207.5,-169 213.5,-169 219.5,-175 219.5,-181 219.5,-181 219.5,-193 219.5,-193 219.5,-199 213.5,-205 207.5,-205"/>
<text text-anchor="middle" x="153.5" y="-183.3" font-family="Times,serif" font-size="14.00" fill="#00f2ff">Circular Dependency</text>
</g>
<!-- Fix -->
<g id="node2" class="node">
<title>Fix</title>
<path fill="#161b22" stroke="#00f2ff" d="M125.5,-132C125.5,-132 63.5,-132 63.5,-132 57.5,-132 51.5,-126 51.5,-120 51.5,-120 51.5,-108 51.5,-108 51.5,-102 57.5,-96 63.5,-96 63.5,-96 125.5,-96 125.5,-96 131.5,-96 137.5,-102 137.5,-108 137.5,-108 137.5,-120 137.5,-120 137.5,-126 131.5,-132 125.5,-132"/>
<text text-anchor="middle" x="94.5" y="-110.3" font-family="Times,serif" font-size="14.00" fill="#00f2ff">Linear Patch</text>
</g>
<!-- Bug&#45;&gt;Fix -->
<g id="edge1" class="edge">
<title>Bug&#45;&gt;Fix</title>
<path fill="none" stroke="#ff00ff" d="M139.22,-168.81C131.97,-160.09 123.04,-149.34 115.06,-139.75"/>
<polygon fill="#ff00ff" stroke="#ff00ff" points="108.65,-132.03 118.5,-136.84 111.85,-135.87 115.04,-139.72 115.04,-139.72 115.04,-139.72 111.85,-135.87 111.58,-142.6 108.65,-132.03 108.65,-132.03"/>
</g>
<!-- RecursiveBug -->
<g id="node3" class="node">
<title>RecursiveBug</title>
<path fill="#161b22" stroke="#ff0000" d="M182,-59C182,-59 85,-59 85,-59 79,-59 73,-53 73,-47 73,-47 73,-35 73,-35 73,-29 79,-23 85,-23 85,-23 182,-23 182,-23 188,-23 194,-29 194,-35 194,-35 194,-47 194,-47 194,-53 188,-59 182,-59"/>
<text text-anchor="middle" x="133.5" y="-37.3" font-family="Times,serif" font-size="14.00" fill="#00f2ff">New Circular State</text>
</g>
<!-- Fix&#45;&gt;RecursiveBug -->
<g id="edge2" class="edge">
<title>Fix&#45;&gt;RecursiveBug</title>
<path fill="none" stroke="#ff00ff" d="M103.94,-95.81C108.54,-87.44 114.17,-77.2 119.27,-67.9"/>
<polygon fill="#ff00ff" stroke="#ff00ff" points="124.15,-59.03 123.28,-69.96 121.74,-63.41 119.33,-67.79 119.33,-67.79 119.33,-67.79 121.74,-63.41 115.39,-65.63 124.15,-59.03 124.15,-59.03"/>
</g>
<!-- RecursiveBug&#45;&gt;Bug -->
<g id="edge3" class="edge">
<title>RecursiveBug&#45;&gt;Bug</title>
<path fill="none" stroke="#ff00ff" d="M138.42,-59.37C141.22,-69.89 144.54,-83.62 146.5,-96 149.82,-116.99 151.59,-141 152.52,-158.94"/>
<polygon fill="#ff00ff" stroke="#ff00ff" points="152.98,-168.99 148.02,-159.21 152.75,-163.99 152.52,-159 152.52,-159 152.52,-159 152.75,-163.99 157.01,-158.79 152.98,-168.99 152.98,-168.99"/>
<text text-anchor="middle" x="190.5" y="-110.3" font-family="Times,serif" font-size="14.00"> Infinite Loop </text>
</g>
</g>
</svg>
