<?xml version="1.0" encoding="UTF-8" standalone="no"?>
<!DOCTYPE svg PUBLIC "-//W3C//DTD SVG 1.1//EN"
 "http://www.w3.org/Graphics/SVG/1.1/DTD/svg11.dtd">
<!-- Generated by graphviz version 2.43.0 (0)
 -->
<!-- Title: ResourceExhaustion Pages: 1 -->
<svg width="298pt" height="227pt"
 viewBox="0.00 0.00 298.00 227.00" xmlns="http://www.w3.org/2000/svg" xmlns:xlink="http://www.w3.org/1999/xlink">
<g id="graph0" class="graph" transform="scale(1 1) rotate(0) translate(4 223)">
<title>ResourceExhaustion</title>
<polygon fill="#0d1117" stroke="transparent" points="-4,4 -4,-223 294,-223 294,4 -4,4"/>
<text text-anchor="middle" x="145" y="-7.8" font-family="Helvetica,sans-Serif" font-size="14.00" fill="#00f2ff">T8.4: Physical Resource Exhaustion (ω Limit)</text>
<!-- Growth -->
<g id="node1" class="node">
<title>Growth</title>
<path fill="#161b22" stroke="#00f2ff" d="M193,-219C193,-219 97,-219 97,-219 91,-219 85,-213 85,-207 85,-207 85,-195 85,-195 85,-189 91,-183 97,-183 97,-183 193,-183 193,-183 199,-183 205,-189 205,-195 205,-195 205,-207 205,-207 205,-213 199,-219 193,-219"/>
<text text-anchor="middle" x="145" y="-197.3" font-family="Times,serif" font-size="14.00" fill="#00f2ff">Context Expansion</text>
</g>
<!-- VRAM -->
<g id="node2" class="node">
<title>VRAM</title>
<path fill="#161b22" stroke="#ffff00" d="M188,-146C188,-146 102,-146 102,-146 96,-146 90,-140 90,-134 90,-134 90,-122 90,-122 90,-116 96,-110 102,-110 102,-110 188,-110 188,-110 194,-110 200,-116 200,-122 200,-122 200,-134 200,-134 200,-140 194,-146 188,-146"/>
<text text-anchor="middle" x="145" y="-124.3" font-family="Times,serif" font-size="14.00" fill="#00f2ff">VRAM Capacity</text>
</g>
<!-- Growth&#45;&gt;VRAM -->
<g id="edge1" class="edge">
<title>Growth&#45;&gt;VRAM</title>
<path fill="none" stroke="#ff00ff" d="M145,-182.81C145,-174.79 145,-165.05 145,-156.07"/>
<polygon fill="#ff00ff" stroke="#ff00ff" points="145,-146.03 149.5,-156.03 145,-151.03 145,-156.03 145,-156.03 145,-156.03 145,-151.03 140.5,-156.03 145,-146.03 145,-146.03"/>
</g>
<!-- Halt -->
<g id="node3" class="node">
<title>Halt</title>
<path fill="#161b22" stroke="#ff0000" d="M235.09,-38.51C235.09,-38.51 235.09,-43.49 235.09,-43.49 235.09,-45.97 232.66,-48.94 230.22,-49.43 230.22,-49.43 187.19,-58.03 187.19,-58.03 184.76,-58.51 179.83,-59 177.35,-59 177.35,-59 112.65,-59 112.65,-59 110.17,-59 105.24,-58.51 102.81,-58.03 102.81,-58.03 59.78,-49.43 59.78,-49.43 57.34,-48.94 54.91,-45.97 54.91,-43.49 54.91,-43.49 54.91,-38.51 54.91,-38.51 54.91,-36.03 57.34,-33.06 59.78,-32.57 59.78,-32.57 102.81,-23.97 102.81,-23.97 105.24,-23.49 110.17,-23 112.65,-23 112.65,-23 177.35,-23 177.35,-23 179.83,-23 184.76,-23.49 187.19,-23.97 187.19,-23.97 230.22,-32.57 230.22,-32.57 232.66,-33.06 235.09,-36.03 235.09,-38.51"/>
<text text-anchor="middle" x="145" y="-37.3" font-family="Times,serif" font-size="14.00" fill="#00f2ff">OOM / System Halt</text>
</g>
<!-- VRAM&#45;&gt;Halt -->
<g id="edge2" class="edge">
<title>VRAM&#45;&gt;Halt</title>
<path fill="none" stroke="#ff00ff" d="M145,-109.8C145,-98.16 145,-82.55 145,-69.24"/>
<polygon fill="#ff00ff" stroke="#ff00ff" points="145,-59.18 149.5,-69.18 145,-64.18 145,-69.18 145,-69.18 145,-69.18 145,-64.18 140.5,-69.18 145,-59.18 145,-59.18"/>
<text text-anchor="middle" x="175" y="-80.8" font-family="Times,serif" font-size="14.00"> Overflow </text>
</g>
</g>
</svg>
