<?xml version="1.0" encoding="UTF-8" standalone="no"?>
<!DOCTYPE svg PUBLIC "-//W3C//DTD SVG 1.1//EN"
 "http://www.w3.org/Graphics/SVG/1.1/DTD/svg11.dtd">
<!-- Generated by graphviz version 2.43.0 (0)
 -->
<!-- Title: ArchZlibNg Pages: 1 -->
<svg width="344pt" height="215pt"
 viewBox="0.00 0.00 343.50 215.00" xmlns="http://www.w3.org/2000/svg" xmlns:xlink="http://www.w3.org/1999/xlink">
<g id="graph0" class="graph" transform="scale(1 1) rotate(0) translate(4 211)">
<title>ArchZlibNg</title>
<polygon fill="#0d1117" stroke="transparent" points="-4,4 -4,-211 339.5,-211 339.5,4 -4,4"/>
<text text-anchor="middle" x="167.75" y="-7.8" font-family="Helvetica,sans-Serif" font-size="14.00" fill="#00f2ff">A1.2: zlib&#45;ng 2.3.3 Compatibility Layout</text>
<!-- ZlibNg_Source -->
<g id="node1" class="node">
<title>ZlibNg_Source</title>
<path fill="#161b22" stroke="#00f2ff" d="M217.5,-207C217.5,-207 113.5,-207 113.5,-207 107.5,-207 101.5,-201 101.5,-195 101.5,-195 101.5,-181 101.5,-181 101.5,-175 107.5,-169 113.5,-169 113.5,-169 217.5,-169 217.5,-169 223.5,-169 229.5,-175 229.5,-181 229.5,-181 229.5,-195 229.5,-195 229.5,-201 223.5,-207 217.5,-207"/>
<text text-anchor="middle" x="165.5" y="-191.8" font-family="Helvetica,sans-Serif" font-size="14.00" fill="#00f2ff">zlib&#45;ng Source</text>
<text text-anchor="middle" x="165.5" y="-176.8" font-family="Helvetica,sans-Serif" font-size="14.00" fill="#00f2ff">(GitHub Tag 2.3.3)</text>
</g>
<!-- Compat_Flag -->
<g id="node2" class="node">
<title>Compat_Flag</title>
<path fill="#161b22" stroke="#ffff00" d="M272.73,-133C272.73,-133 107.06,-133 107.06,-133 101.06,-133 90.23,-129.44 85.4,-125.88 85.4,-125.88 55.92,-104.12 55.92,-104.12 51.09,-100.56 52.27,-97 58.27,-97 58.27,-97 223.94,-97 223.94,-97 229.94,-97 240.77,-100.56 245.6,-104.12 245.6,-104.12 275.08,-125.88 275.08,-125.88 279.91,-129.44 278.73,-133 272.73,-133"/>
<text text-anchor="middle" x="165.5" y="-111.3" font-family="Helvetica,sans-Serif" font-size="14.00" fill="#00f2ff">&#45;&#45;zlib&#45;compat Flag</text>
</g>
<!-- ZlibNg_Source&#45;&gt;Compat_Flag -->
<g id="edge1" class="edge">
<title>ZlibNg_Source&#45;&gt;Compat_Flag</title>
<path fill="none" stroke="#ff00ff" d="M165.5,-168.72C165.5,-160.97 165.5,-151.79 165.5,-143.27"/>
<polygon fill="#ff00ff" stroke="#ff00ff" points="165.5,-133 170,-143 165.5,-138 165.5,-143 165.5,-143 165.5,-143 165.5,-138 161,-143 165.5,-133 165.5,-133"/>
</g>
<!-- LibZ_Shared -->
<g id="node3" class="node">
<title>LibZ_Shared</title>
<path fill="#161b22" stroke="#00ff00" d="M143,-61C143,-61 12,-61 12,-61 6,-61 0,-55 0,-49 0,-49 0,-35 0,-35 0,-29 6,-23 12,-23 12,-23 143,-23 143,-23 149,-23 155,-29 155,-35 155,-35 155,-49 155,-49 155,-55 149,-61 143,-61"/>
<text text-anchor="middle" x="77.5" y="-45.8" font-family="Helvetica,sans-Serif" font-size="14.00" fill="#00f2ff">libz.so.1</text>
<text text-anchor="middle" x="77.5" y="-30.8" font-family="Helvetica,sans-Serif" font-size="14.00" fill="#00f2ff">(Compatibility Symlink)</text>
</g>
<!-- Compat_Flag&#45;&gt;LibZ_Shared -->
<g id="edge2" class="edge">
<title>Compat_Flag&#45;&gt;LibZ_Shared</title>
<path fill="none" stroke="#ff00ff" d="M144.2,-96.81C133.29,-88.01 119.81,-77.14 107.84,-67.48"/>
<polygon fill="#ff00ff" stroke="#ff00ff" points="99.83,-61.02 110.44,-63.8 103.73,-64.16 107.62,-67.3 107.62,-67.3 107.62,-67.3 103.73,-64.16 104.79,-70.8 99.83,-61.02 99.83,-61.02"/>
</g>
<!-- LibZ_Static -->
<g id="node4" class="node">
<title>LibZ_Static</title>
<path fill="#161b22" stroke="#00ff00" d="M323.5,-61C323.5,-61 185.5,-61 185.5,-61 179.5,-61 173.5,-55 173.5,-49 173.5,-49 173.5,-35 173.5,-35 173.5,-29 179.5,-23 185.5,-23 185.5,-23 323.5,-23 323.5,-23 329.5,-23 335.5,-29 335.5,-35 335.5,-35 335.5,-49 335.5,-49 335.5,-55 329.5,-61 323.5,-61"/>
<text text-anchor="middle" x="254.5" y="-45.8" font-family="Helvetica,sans-Serif" font-size="14.00" fill="#00f2ff">libz.a</text>
<text text-anchor="middle" x="254.5" y="-30.8" font-family="Helvetica,sans-Serif" font-size="14.00" fill="#00f2ff">(Standard API Symbols)</text>
</g>
<!-- Compat_Flag&#45;&gt;LibZ_Static -->
<g id="edge3" class="edge">
<title>Compat_Flag&#45;&gt;LibZ_Static</title>
<path fill="none" stroke="#ff00ff" d="M187.04,-96.81C198.08,-88.01 211.71,-77.14 223.82,-67.48"/>
<polygon fill="#ff00ff" stroke="#ff00ff" points="231.91,-61.02 226.9,-70.77 228,-64.14 224.09,-67.26 224.09,-67.26 224.09,-67.26 228,-64.14 221.29,-63.74 231.91,-61.02 231.91,-61.02"/>
</g>
</g>
</svg>
