<?xml version="1.0" encoding="UTF-8" standalone="no"?>
<!DOCTYPE svg PUBLIC "-//W3C//DTD SVG 1.1//EN"
 "http://www.w3.org/Graphics/SVG/1.1/DTD/svg11.dtd">
<!-- Generated by graphviz version 2.43.0 (0)
 -->
<!-- Title: ArchZlibNg Pages: 1 -->
<svg width="501pt" height="501pt"
 viewBox="0.00 0.00 501.00 501.00" xmlns="http://www.w3.org/2000/svg" xmlns:xlink="http://www.w3.org/1999/xlink">
<g id="graph0" class="graph" transform="scale(1 1) rotate(0) translate(4 497)">
<title>ArchZlibNg</title>
<polygon fill="#0d1117" stroke="transparent" points="-4,4 -4,-497 497,-497 497,4 -4,4"/>
<text text-anchor="middle" x="246.5" y="-476.2" font-family="Helvetica,sans-Serif" font-size="16.00" fill="#00f2ff">A1.2: zlib&#45;ng 2.3.3 Performance &amp; Compatibility Layout</text>
<g id="clust1" class="cluster">
<title>cluster_src</title>
<polygon fill="#0d1117" stroke="#ffff00" points="103,-284 103,-459 467,-459 467,-284 103,-284"/>
<text text-anchor="middle" x="285" y="-442.2" font-family="Helvetica,sans-Serif" font-size="16.00" fill="#ffff00">Upstream Source Integration</text>
</g>
<g id="clust2" class="cluster">
<title>cluster_opts</title>
<polygon fill="#0d1117" stroke="#00ff22" points="8,-187 8,-265 370,-265 370,-187 8,-187"/>
<text text-anchor="middle" x="189" y="-248.2" font-family="Helvetica,sans-Serif" font-size="16.00" fill="#00ff22">Hardware Optimizations Enabled</text>
</g>
<g id="clust3" class="cluster">
<title>cluster_outputs</title>
<polygon fill="#0d1117" stroke="#ff00ff" points="143,-8 143,-159 457,-159 457,-8 143,-8"/>
<text text-anchor="middle" x="300" y="-142.2" font-family="Helvetica,sans-Serif" font-size="16.00" fill="#ff00ff">Generated Libraries (/usr/local/zlib&#45;ng/lib)</text>
</g>
<!-- ZlibNg_Src -->
<g id="node1" class="node">
<title>ZlibNg_Src</title>
<path fill="#161b22" stroke="#00f2ff" d="M341.5,-425C341.5,-425 228.5,-425 228.5,-425 222.5,-425 216.5,-419 216.5,-413 216.5,-413 216.5,-401 216.5,-401 216.5,-395 222.5,-389 228.5,-389 228.5,-389 341.5,-389 341.5,-389 347.5,-389 353.5,-395 353.5,-401 353.5,-401 353.5,-413 353.5,-413 353.5,-419 347.5,-425 341.5,-425"/>
<text text-anchor="middle" x="285" y="-404.5" font-family="Helvetica,sans-Serif" font-size="10.00" fill="#00f2ff">zlib&#45;ng 2.3.3 GitHub Source</text>
</g>
<!-- Configure_Compat -->
<g id="node2" class="node">
<title>Configure_Compat</title>
<path fill="#161b22" stroke="#00f2ff" d="M447.35,-352C447.35,-352 194,-352 194,-352 188,-352 177.41,-348.14 172.81,-344.28 172.81,-344.28 119.83,-299.72 119.83,-299.72 115.24,-295.86 116.65,-292 122.65,-292 122.65,-292 376,-292 376,-292 382,-292 392.59,-295.86 397.19,-299.72 397.19,-299.72 450.17,-344.28 450.17,-344.28 454.76,-348.14 453.35,-352 447.35,-352"/>
<text text-anchor="middle" x="285" y="-325" font-family="Helvetica,sans-Serif" font-size="10.00" fill="#00f2ff">./configure &#45;&#45;zlib&#45;compat</text>
<text text-anchor="middle" x="285" y="-314" font-family="Helvetica,sans-Serif" font-size="10.00" fill="#00f2ff">(Enables standard function names)</text>
</g>
<!-- ZlibNg_Src&#45;&gt;Configure_Compat -->
<g id="edge1" class="edge">
<title>ZlibNg_Src&#45;&gt;Configure_Compat</title>
<path fill="none" stroke="#ff00ff" d="M285,-388.8C285,-381.14 285,-371.78 285,-362.55"/>
<polygon fill="#ff00ff" stroke="#ff00ff" points="285,-352.27 289.5,-362.27 285,-357.27 285,-362.27 285,-362.27 285,-362.27 285,-357.27 280.5,-362.27 285,-352.27 285,-352.27"/>
</g>
<!-- AVX -->
<g id="node3" class="node">
<title>AVX</title>
<path fill="#161b22" stroke="#00f2ff" d="M178,-231C178,-231 28,-231 28,-231 22,-231 16,-225 16,-219 16,-219 16,-207 16,-207 16,-201 22,-195 28,-195 28,-195 178,-195 178,-195 184,-195 190,-201 190,-207 190,-207 190,-219 190,-219 190,-225 184,-231 178,-231"/>
<text text-anchor="middle" x="103" y="-210.5" font-family="Helvetica,sans-Serif" font-size="10.00" fill="#00f2ff">Intel AVX&#45;512 / AVX2 Instruction Set</text>
</g>
<!-- Configure_Compat&#45;&gt;AVX -->
<g id="edge3" class="edge">
<title>Configure_Compat&#45;&gt;AVX</title>
<path fill="none" stroke="#ff00ff" stroke-dasharray="5,2" d="M235.27,-291.76C205.48,-274.25 168.21,-252.34 140.83,-236.24"/>
<polygon fill="#ff00ff" stroke="#ff00ff" points="131.95,-231.02 142.85,-232.21 136.26,-233.56 140.57,-236.09 140.57,-236.09 140.57,-236.09 136.26,-233.56 138.29,-239.97 131.95,-231.02 131.95,-231.02"/>
</g>
<!-- SSE -->
<g id="node4" class="node">
<title>SSE</title>
<path fill="#161b22" stroke="#00f2ff" d="M350,-231C350,-231 220,-231 220,-231 214,-231 208,-225 208,-219 208,-219 208,-207 208,-207 208,-201 214,-195 220,-195 220,-195 350,-195 350,-195 356,-195 362,-201 362,-207 362,-207 362,-219 362,-219 362,-225 356,-231 350,-231"/>
<text text-anchor="middle" x="285" y="-210.5" font-family="Helvetica,sans-Serif" font-size="10.00" fill="#00f2ff">SSE4.2 / SSSE3 CRC Checks</text>
</g>
<!-- Configure_Compat&#45;&gt;SSE -->
<g id="edge4" class="edge">
<title>Configure_Compat&#45;&gt;SSE</title>
<path fill="none" stroke="#ff00ff" stroke-dasharray="5,2" d="M285,-291.76C285,-276.13 285,-256.99 285,-241.61"/>
<polygon fill="#ff00ff" stroke="#ff00ff" points="285,-231.18 289.5,-241.18 285,-236.18 285,-241.18 285,-241.18 285,-241.18 285,-236.18 280.5,-241.18 285,-231.18 285,-231.18"/>
</g>
<!-- LibZ_Static -->
<g id="node7" class="node">
<title>LibZ_Static</title>
<path fill="#161b22" stroke="#00f2ff" d="M427.5,-125C427.5,-125 368.5,-125 368.5,-125 362.5,-125 356.5,-119 356.5,-113 356.5,-113 356.5,-101 356.5,-101 356.5,-95 362.5,-89 368.5,-89 368.5,-89 427.5,-89 427.5,-89 433.5,-89 439.5,-95 439.5,-101 439.5,-101 439.5,-113 439.5,-113 439.5,-119 433.5,-125 427.5,-125"/>
<text text-anchor="middle" x="398" y="-110" font-family="Helvetica,sans-Serif" font-size="10.00" fill="#00f2ff">libz.a</text>
<text text-anchor="middle" x="398" y="-99" font-family="Helvetica,sans-Serif" font-size="10.00" fill="#00f2ff">(Static Archive)</text>
</g>
<!-- Configure_Compat&#45;&gt;LibZ_Static -->
<g id="edge7" class="edge">
<title>Configure_Compat&#45;&gt;LibZ_Static</title>
<path fill="none" stroke="#ff00ff" d="M347.03,-291.87C357.44,-284.46 367.09,-275.53 374,-265 399.81,-225.64 401.87,-168.96 400.38,-135.57"/>
<polygon fill="#ff00ff" stroke="#ff00ff" points="399.77,-125.19 404.85,-134.91 400.06,-130.18 400.36,-135.17 400.36,-135.17 400.36,-135.17 400.06,-130.18 395.86,-135.44 399.77,-125.19 399.77,-125.19"/>
<text text-anchor="middle" x="445.5" y="-210.8" font-family="Helvetica,sans-Serif" font-size="9.00">Compiles static archive</text>
</g>
<!-- LibZ_Shared -->
<g id="node5" class="node">
<title>LibZ_Shared</title>
<path fill="#161b22" stroke="#00f2ff" d="M294.5,-125C294.5,-125 217.5,-125 217.5,-125 211.5,-125 205.5,-119 205.5,-113 205.5,-113 205.5,-101 205.5,-101 205.5,-95 211.5,-89 217.5,-89 217.5,-89 294.5,-89 294.5,-89 300.5,-89 306.5,-95 306.5,-101 306.5,-101 306.5,-113 306.5,-113 306.5,-119 300.5,-125 294.5,-125"/>
<text text-anchor="middle" x="256" y="-110" font-family="Helvetica,sans-Serif" font-size="10.00" fill="#00f2ff">libz.so.1.3.1.zlib&#45;ng</text>
<text text-anchor="middle" x="256" y="-99" font-family="Helvetica,sans-Serif" font-size="10.00" fill="#00f2ff">(Shared Object)</text>
</g>
<!-- AVX&#45;&gt;LibZ_Shared -->
<g id="edge5" class="edge">
<title>AVX&#45;&gt;LibZ_Shared</title>
<path fill="none" stroke="#ff00ff" d="M118.62,-194.6C127.1,-185.73 138.06,-175.13 149,-167 167.96,-152.91 190.67,-139.91 210.29,-129.72"/>
<polygon fill="#ff00ff" stroke="#ff00ff" points="219.34,-125.1 212.48,-133.66 214.89,-127.37 210.44,-129.65 210.44,-129.65 210.44,-129.65 214.89,-127.37 208.39,-125.64 219.34,-125.1 219.34,-125.1"/>
<text text-anchor="middle" x="209" y="-169.8" font-family="Helvetica,sans-Serif" font-size="9.00">Bakes in CPU vector routines</text>
</g>
<!-- SSE&#45;&gt;LibZ_Shared -->
<g id="edge6" class="edge">
<title>SSE&#45;&gt;LibZ_Shared</title>
<path fill="none" stroke="#ff00ff" d="M280.21,-194.83C275.68,-178.57 268.8,-153.9 263.53,-135.01"/>
<polygon fill="#ff00ff" stroke="#ff00ff" points="260.8,-125.2 267.82,-133.62 262.14,-130.02 263.48,-134.83 263.48,-134.83 263.48,-134.83 262.14,-130.02 259.15,-136.04 260.8,-125.2 260.8,-125.2"/>
</g>
<!-- LibZ_Symlink -->
<g id="node6" class="node">
<title>LibZ_Symlink</title>
<polygon fill="#161b22" stroke="#00f2ff" points="326.5,-52 179.5,-52 179.5,-16 332.5,-16 332.5,-46 326.5,-52"/>
<polyline fill="none" stroke="#00f2ff" points="326.5,-52 326.5,-46 "/>
<polyline fill="none" stroke="#00f2ff" points="332.5,-46 326.5,-46 "/>
<text text-anchor="middle" x="256" y="-37" font-family="Helvetica,sans-Serif" font-size="10.00" fill="#00f2ff">libz.so.1 &#45;&gt; libz.so.1.3.1.zlib&#45;ng</text>
<text text-anchor="middle" x="256" y="-26" font-family="Helvetica,sans-Serif" font-size="10.00" fill="#00f2ff">(API Symlink)</text>
</g>
<!-- LibZ_Shared&#45;&gt;LibZ_Symlink -->
<g id="edge2" class="edge">
<title>LibZ_Shared&#45;&gt;LibZ_Symlink</title>
<path fill="none" stroke="#ff00ff" stroke-dasharray="5,2" d="M256,-88.81C256,-80.79 256,-71.05 256,-62.07"/>
<polygon fill="#ff00ff" stroke="#ff00ff" points="256,-52.03 260.5,-62.03 256,-57.03 256,-62.03 256,-62.03 256,-62.03 256,-57.03 251.5,-62.03 256,-52.03 256,-52.03"/>
</g>
</g>
</svg>
