<?xml version="1.0" encoding="UTF-8" standalone="no"?>
<!DOCTYPE svg PUBLIC "-//W3C//DTD SVG 1.1//EN"
 "http://www.w3.org/Graphics/SVG/1.1/DTD/svg11.dtd">
<!-- Generated by graphviz version 2.43.0 (0)
 -->
<!-- Title: ArchOpenSSL Pages: 1 -->
<svg width="442pt" height="552pt"
 viewBox="0.00 0.00 442.00 552.00" xmlns="http://www.w3.org/2000/svg" xmlns:xlink="http://www.w3.org/1999/xlink">
<g id="graph0" class="graph" transform="scale(1 1) rotate(0) translate(4 548)">
<title>ArchOpenSSL</title>
<polygon fill="#0d1117" stroke="transparent" points="-4,4 -4,-548 438,-548 438,4 -4,4"/>
<text text-anchor="middle" x="217" y="-527.2" font-family="Helvetica,sans-Serif" font-size="16.00" fill="#00f2ff">A1.1: Detailed OpenSSL 3.5.6 Rpath Isolation Architecture</text>
<g id="clust1" class="cluster">
<title>cluster_buildtime</title>
<polygon fill="#0d1117" stroke="#ffff00" points="30,-269 30,-510 338,-510 338,-269 30,-269"/>
<text text-anchor="middle" x="184" y="-493.2" font-family="Helvetica,sans-Serif" font-size="16.00" fill="#ffff00">Build&#45;Time Configuration</text>
</g>
<g id="clust2" class="cluster">
<title>cluster_runtime</title>
<polygon fill="#0d1117" stroke="#00ff00" points="58,-8 58,-241 404,-241 404,-8 58,-8"/>
<text text-anchor="middle" x="231" y="-224.2" font-family="Helvetica,sans-Serif" font-size="16.00" fill="#00ff00">Runtime Resolution (Isolated)</text>
</g>
<!-- Config_Flags -->
<g id="node1" class="node">
<title>Config_Flags</title>
<path fill="#161b22" stroke="#00f2ff" d="M318.36,-476C318.36,-476 109.53,-476 109.53,-476 103.53,-476 94.96,-470.58 92.38,-465.16 92.38,-465.16 42.79,-360.84 42.79,-360.84 40.21,-355.42 43.64,-350 49.64,-350 49.64,-350 258.47,-350 258.47,-350 264.47,-350 273.04,-355.42 275.62,-360.84 275.62,-360.84 325.21,-465.16 325.21,-465.16 327.79,-470.58 324.36,-476 318.36,-476"/>
<text text-anchor="middle" x="184" y="-432.5" font-family="Helvetica,sans-Serif" font-size="10.00" fill="#00f2ff">./config</text>
<text text-anchor="middle" x="184" y="-421.5" font-family="Helvetica,sans-Serif" font-size="10.00" fill="#00f2ff">&#45;&#45;prefix=/usr/local/ssl</text>
<text text-anchor="middle" x="184" y="-410.5" font-family="Helvetica,sans-Serif" font-size="10.00" fill="#00f2ff">&#45;&#45;openssldir=/usr/local/ssl</text>
<text text-anchor="middle" x="184" y="-399.5" font-family="Helvetica,sans-Serif" font-size="10.00" fill="#00f2ff">shared zlib&#45;dynamic</text>
<text text-anchor="middle" x="184" y="-388.5" font-family="Helvetica,sans-Serif" font-size="10.00" fill="#00f2ff">&#45;Wl,&#45;rpath,/usr/local/ssl/lib64</text>
</g>
<!-- GCC_Linker -->
<g id="node2" class="node">
<title>GCC_Linker</title>
<path fill="#161b22" stroke="#00f2ff" d="M267.5,-313C267.5,-313 100.5,-313 100.5,-313 94.5,-313 88.5,-307 88.5,-301 88.5,-301 88.5,-289 88.5,-289 88.5,-283 94.5,-277 100.5,-277 100.5,-277 267.5,-277 267.5,-277 273.5,-277 279.5,-283 279.5,-289 279.5,-289 279.5,-301 279.5,-301 279.5,-307 273.5,-313 267.5,-313"/>
<text text-anchor="middle" x="184" y="-298" font-family="Helvetica,sans-Serif" font-size="10.00" fill="#00f2ff">GNU Linker (ld)</text>
<text text-anchor="middle" x="184" y="-287" font-family="Helvetica,sans-Serif" font-size="10.00" fill="#00f2ff">Bakes DT_RUNPATH into ELF headers</text>
</g>
<!-- Config_Flags&#45;&gt;GCC_Linker -->
<g id="edge1" class="edge">
<title>Config_Flags&#45;&gt;GCC_Linker</title>
<path fill="none" stroke="#ff00ff" d="M184,-349.92C184,-340.59 184,-331.4 184,-323.32"/>
<polygon fill="#ff00ff" stroke="#ff00ff" points="184,-313.09 188.5,-323.09 184,-318.09 184,-323.09 184,-323.09 184,-323.09 184,-318.09 179.5,-323.09 184,-313.09 184,-313.09"/>
</g>
<!-- OpenSSL_Binary -->
<g id="node3" class="node">
<title>OpenSSL_Binary</title>
<path fill="#161b22" stroke="#00f2ff" d="M237.5,-207C237.5,-207 130.5,-207 130.5,-207 124.5,-207 118.5,-201 118.5,-195 118.5,-195 118.5,-183 118.5,-183 118.5,-177 124.5,-171 130.5,-171 130.5,-171 237.5,-171 237.5,-171 243.5,-171 249.5,-177 249.5,-183 249.5,-183 249.5,-195 249.5,-195 249.5,-201 243.5,-207 237.5,-207"/>
<text text-anchor="middle" x="184" y="-192" font-family="Helvetica,sans-Serif" font-size="10.00" fill="#00f2ff">openssl Binary</text>
<text text-anchor="middle" x="184" y="-181" font-family="Helvetica,sans-Serif" font-size="10.00" fill="#00f2ff">(/usr/local/ssl/bin/openssl)</text>
</g>
<!-- GCC_Linker&#45;&gt;OpenSSL_Binary -->
<g id="edge5" class="edge">
<title>GCC_Linker&#45;&gt;OpenSSL_Binary</title>
<path fill="none" stroke="#00ff22" d="M184,-276.83C184,-260.64 184,-236.13 184,-217.27"/>
<polygon fill="#00ff22" stroke="#00ff22" points="184,-207.2 188.5,-217.2 184,-212.2 184,-217.2 184,-217.2 184,-217.2 184,-212.2 179.5,-217.2 184,-207.2 184,-207.2"/>
<text text-anchor="middle" x="227.5" y="-251.8" font-family="Helvetica,sans-Serif" font-size="9.00">Produces ELF Binary</text>
</g>
<!-- ELF_Header -->
<g id="node4" class="node">
<title>ELF_Header</title>
<polygon fill="#161b22" stroke="#00f2ff" points="268,-134 94,-134 94,-98 274,-98 274,-128 268,-134"/>
<polyline fill="none" stroke="#00f2ff" points="268,-134 268,-128 "/>
<polyline fill="none" stroke="#00f2ff" points="274,-128 268,-128 "/>
<text text-anchor="middle" x="184" y="-119" font-family="Helvetica,sans-Serif" font-size="10.00" fill="#00f2ff">ELF Dynamic Section</text>
<text text-anchor="middle" x="184" y="-108" font-family="Helvetica,sans-Serif" font-size="10.00" fill="#00f2ff">(DT_RUNPATH = /usr/local/ssl/lib64)</text>
</g>
<!-- OpenSSL_Binary&#45;&gt;ELF_Header -->
<g id="edge2" class="edge">
<title>OpenSSL_Binary&#45;&gt;ELF_Header</title>
<path fill="none" stroke="#ff00ff" stroke-dasharray="5,2" d="M184,-170.81C184,-162.79 184,-153.05 184,-144.07"/>
<polygon fill="#ff00ff" stroke="#ff00ff" points="184,-134.03 188.5,-144.03 184,-139.03 184,-144.03 184,-144.03 184,-144.03 184,-139.03 179.5,-144.03 184,-134.03 184,-134.03"/>
</g>
<!-- LibSSL -->
<g id="node5" class="node">
<title>LibSSL</title>
<path fill="#161b22" stroke="#00f2ff" d="M202.5,-52C202.5,-52 77.5,-52 77.5,-52 71.5,-52 65.5,-46 65.5,-40 65.5,-40 65.5,-28 65.5,-28 65.5,-22 71.5,-16 77.5,-16 77.5,-16 202.5,-16 202.5,-16 208.5,-16 214.5,-22 214.5,-28 214.5,-28 214.5,-40 214.5,-40 214.5,-46 208.5,-52 202.5,-52"/>
<text text-anchor="middle" x="140" y="-37" font-family="Helvetica,sans-Serif" font-size="10.00" fill="#00f2ff">libssl.so.3</text>
<text text-anchor="middle" x="140" y="-26" font-family="Helvetica,sans-Serif" font-size="10.00" fill="#00f2ff">(/usr/local/ssl/lib64/libssl.so.3)</text>
</g>
<!-- ELF_Header&#45;&gt;LibSSL -->
<g id="edge3" class="edge">
<title>ELF_Header&#45;&gt;LibSSL</title>
<path fill="none" stroke="#ff00ff" d="M174.45,-97.64C168.59,-86.98 160.97,-73.12 154.38,-61.15"/>
<polygon fill="#ff00ff" stroke="#ff00ff" points="149.38,-52.05 158.14,-58.64 151.79,-56.43 154.2,-60.81 154.2,-60.81 154.2,-60.81 151.79,-56.43 150.25,-62.98 149.38,-52.05 149.38,-52.05"/>
<text text-anchor="middle" x="205" y="-72.8" font-family="Helvetica,sans-Serif" font-size="9.00">1. Check RUNPATH</text>
</g>
<!-- LibCrypto -->
<g id="node6" class="node">
<title>LibCrypto</title>
<path fill="#161b22" stroke="#00f2ff" d="M383.5,-52C383.5,-52 244.5,-52 244.5,-52 238.5,-52 232.5,-46 232.5,-40 232.5,-40 232.5,-28 232.5,-28 232.5,-22 238.5,-16 244.5,-16 244.5,-16 383.5,-16 383.5,-16 389.5,-16 395.5,-22 395.5,-28 395.5,-28 395.5,-40 395.5,-40 395.5,-46 389.5,-52 383.5,-52"/>
<text text-anchor="middle" x="314" y="-37" font-family="Helvetica,sans-Serif" font-size="10.00" fill="#00f2ff">libcrypto.so.3</text>
<text text-anchor="middle" x="314" y="-26" font-family="Helvetica,sans-Serif" font-size="10.00" fill="#00f2ff">(/usr/local/ssl/lib64/libcrypto.so.3)</text>
</g>
<!-- ELF_Header&#45;&gt;LibCrypto -->
<g id="edge4" class="edge">
<title>ELF_Header&#45;&gt;LibCrypto</title>
<path fill="none" stroke="#ff00ff" d="M218.03,-97.99C228.44,-92.51 239.83,-86.24 250,-80 260.94,-73.29 272.53,-65.4 282.8,-58.11"/>
<polygon fill="#ff00ff" stroke="#ff00ff" points="291.07,-52.17 285.57,-61.66 287,-55.09 282.94,-58.01 282.94,-58.01 282.94,-58.01 287,-55.09 280.32,-54.35 291.07,-52.17 291.07,-52.17"/>
<text text-anchor="middle" x="305" y="-72.8" font-family="Helvetica,sans-Serif" font-size="9.00">2. Check RUNPATH</text>
</g>
</g>
</svg>
