<?xml version="1.0" encoding="UTF-8" standalone="no"?>
<!DOCTYPE svg PUBLIC "-//W3C//DTD SVG 1.1//EN"
 "http://www.w3.org/Graphics/SVG/1.1/DTD/svg11.dtd">
<!-- Generated by graphviz version 2.43.0 (0)
 -->
<!-- Title: ArchNginxStatic Pages: 1 -->
<svg width="491pt" height="271pt"
 viewBox="0.00 0.00 490.79 271.00" xmlns="http://www.w3.org/2000/svg" xmlns:xlink="http://www.w3.org/1999/xlink">
<g id="graph0" class="graph" transform="scale(1 1) rotate(0) translate(4 267)">
<title>ArchNginxStatic</title>
<polygon fill="#0d1117" stroke="transparent" points="-4,4 -4,-267 486.79,-267 486.79,4 -4,4"/>
<text text-anchor="middle" x="241.39" y="-7.8" font-family="Helvetica,sans-Serif" font-size="14.00" fill="#00f2ff">A1.5: Nginx 1.30.2 Dynamic Rpath Layout</text>
<!-- Nginx -->
<g id="node1" class="node">
<title>Nginx</title>
<path fill="#161b22" stroke="#00f2ff" d="M229.79,-263C229.79,-263 109.79,-263 109.79,-263 103.79,-263 97.79,-257 97.79,-251 97.79,-251 97.79,-237 97.79,-237 97.79,-231 103.79,-225 109.79,-225 109.79,-225 229.79,-225 229.79,-225 235.79,-225 241.79,-231 241.79,-237 241.79,-237 241.79,-251 241.79,-251 241.79,-257 235.79,-263 229.79,-263"/>
<text text-anchor="middle" x="169.79" y="-247.8" font-family="Helvetica,sans-Serif" font-size="14.00" fill="#00f2ff">nginx Binary</text>
<text text-anchor="middle" x="169.79" y="-232.8" font-family="Helvetica,sans-Serif" font-size="14.00" fill="#00f2ff">(/usr/local/sbin/nginx)</text>
</g>
<!-- CC_OPT -->
<g id="node2" class="node">
<title>CC_OPT</title>
<path fill="#161b22" stroke="#00f2ff" d="M201.36,-188C201.36,-188 55.83,-188 55.83,-188 49.83,-188 40.84,-182.8 37.85,-177.59 37.85,-177.59 6.19,-122.41 6.19,-122.41 3.2,-117.2 6.21,-112 12.21,-112 12.21,-112 157.75,-112 157.75,-112 163.75,-112 172.73,-117.2 175.72,-122.41 175.72,-122.41 207.38,-177.59 207.38,-177.59 210.37,-182.8 207.36,-188 201.36,-188"/>
<text text-anchor="middle" x="106.79" y="-153.8" font-family="Helvetica,sans-Serif" font-size="14.00" fill="#00f2ff">&#45;&#45;with&#45;cc&#45;opt</text>
<text text-anchor="middle" x="106.79" y="-138.8" font-family="Helvetica,sans-Serif" font-size="14.00" fill="#00f2ff">(&#45;I/usr/local/...)</text>
</g>
<!-- Nginx&#45;&gt;CC_OPT -->
<g id="edge1" class="edge">
<title>Nginx&#45;&gt;CC_OPT</title>
<path fill="none" stroke="#ff00ff" d="M157.34,-224.82C151.74,-216.64 144.84,-206.58 137.97,-196.54"/>
<polygon fill="#ff00ff" stroke="#ff00ff" points="132.23,-188.16 141.6,-193.87 135.06,-192.29 137.88,-196.41 137.88,-196.41 137.88,-196.41 135.06,-192.29 134.17,-198.96 132.23,-188.16 132.23,-188.16"/>
</g>
<!-- LD_OPT -->
<g id="node3" class="node">
<title>LD_OPT</title>
<path fill="#161b22" stroke="#00f2ff" d="M428.71,-188C428.71,-188 285.8,-188 285.8,-188 279.8,-188 270.85,-182.78 267.9,-177.55 267.9,-177.55 236.76,-122.45 236.76,-122.45 233.81,-117.22 236.86,-112 242.86,-112 242.86,-112 385.77,-112 385.77,-112 391.77,-112 400.72,-117.22 403.68,-122.45 403.68,-122.45 434.81,-177.55 434.81,-177.55 437.76,-182.78 434.71,-188 428.71,-188"/>
<text text-anchor="middle" x="335.79" y="-153.8" font-family="Helvetica,sans-Serif" font-size="14.00" fill="#00f2ff">&#45;&#45;with&#45;ld&#45;opt</text>
<text text-anchor="middle" x="335.79" y="-138.8" font-family="Helvetica,sans-Serif" font-size="14.00" fill="#00f2ff">(&#45;Wl,&#45;rpath,...)</text>
</g>
<!-- Nginx&#45;&gt;LD_OPT -->
<g id="edge2" class="edge">
<title>Nginx&#45;&gt;LD_OPT</title>
<path fill="none" stroke="#ff00ff" d="M202.58,-224.82C220.03,-215.16 242.21,-202.86 263.45,-191.09"/>
<polygon fill="#ff00ff" stroke="#ff00ff" points="272.47,-186.09 265.91,-194.87 268.1,-188.51 263.73,-190.94 263.73,-190.94 263.73,-190.94 268.1,-188.51 261.55,-187 272.47,-186.09 272.47,-186.09"/>
</g>
<!-- OpenSSL -->
<g id="node4" class="node">
<title>OpenSSL</title>
<path fill="#161b22" stroke="#00ff00" d="M312.79,-61C312.79,-61 204.79,-61 204.79,-61 198.79,-61 192.79,-55 192.79,-49 192.79,-49 192.79,-35 192.79,-35 192.79,-29 198.79,-23 204.79,-23 204.79,-23 312.79,-23 312.79,-23 318.79,-23 324.79,-29 324.79,-35 324.79,-35 324.79,-49 324.79,-49 324.79,-55 318.79,-61 312.79,-61"/>
<text text-anchor="middle" x="258.79" y="-45.8" font-family="Helvetica,sans-Serif" font-size="14.00" fill="#00f2ff">OpenSSL 3.5.6</text>
<text text-anchor="middle" x="258.79" y="-30.8" font-family="Helvetica,sans-Serif" font-size="14.00" fill="#00f2ff">(/usr/local/ssl/lib64)</text>
</g>
<!-- LD_OPT&#45;&gt;OpenSSL -->
<g id="edge3" class="edge">
<title>LD_OPT&#45;&gt;OpenSSL</title>
<path fill="none" stroke="#ff00ff" d="M308.85,-111.93C298.71,-97.96 287.38,-82.36 278.06,-69.54"/>
<polygon fill="#ff00ff" stroke="#ff00ff" points="271.98,-61.16 281.5,-66.61 274.92,-65.21 277.86,-69.25 277.86,-69.25 277.86,-69.25 274.92,-65.21 274.21,-71.9 271.98,-61.16 271.98,-61.16"/>
<text text-anchor="middle" x="334.79" y="-82.8" font-family="Times,serif" font-size="14.00">Rpath Resolve</text>
</g>
<!-- ZlibNg -->
<g id="node5" class="node">
<title>ZlibNg</title>
<path fill="#161b22" stroke="#00ff00" d="M470.79,-61C470.79,-61 354.79,-61 354.79,-61 348.79,-61 342.79,-55 342.79,-49 342.79,-49 342.79,-35 342.79,-35 342.79,-29 348.79,-23 354.79,-23 354.79,-23 470.79,-23 470.79,-23 476.79,-23 482.79,-29 482.79,-35 482.79,-35 482.79,-49 482.79,-49 482.79,-55 476.79,-61 470.79,-61"/>
<text text-anchor="middle" x="412.79" y="-45.8" font-family="Helvetica,sans-Serif" font-size="14.00" fill="#00f2ff">zlib&#45;ng 2.3.3</text>
<text text-anchor="middle" x="412.79" y="-30.8" font-family="Helvetica,sans-Serif" font-size="14.00" fill="#00f2ff">(/usr/local/zlib&#45;ng/lib)</text>
</g>
<!-- LD_OPT&#45;&gt;ZlibNg -->
<g id="edge4" class="edge">
<title>LD_OPT&#45;&gt;ZlibNg</title>
<path fill="none" stroke="#ff00ff" d="M365.55,-111.71C370.06,-105.84 374.6,-99.8 378.79,-94 384.4,-86.23 390.28,-77.61 395.53,-69.71"/>
<polygon fill="#ff00ff" stroke="#ff00ff" points="401.15,-61.16 399.41,-71.99 398.4,-65.34 395.65,-69.52 395.65,-69.52 395.65,-69.52 398.4,-65.34 391.9,-67.04 401.15,-61.16 401.15,-61.16"/>
<text text-anchor="middle" x="427.79" y="-82.8" font-family="Times,serif" font-size="14.00">Rpath Resolve</text>
</g>
</g>
</svg>
