<?xml version="1.0" encoding="UTF-8" standalone="no"?>
<!DOCTYPE svg PUBLIC "-//W3C//DTD SVG 1.1//EN"
 "http://www.w3.org/Graphics/SVG/1.1/DTD/svg11.dtd">
<!-- Generated by graphviz version 2.43.0 (0)
 -->
<!-- Title: ArchNginx Pages: 1 -->
<svg width="837pt" height="386pt"
 viewBox="0.00 0.00 837.00 386.00" xmlns="http://www.w3.org/2000/svg" xmlns:xlink="http://www.w3.org/1999/xlink">
<g id="graph0" class="graph" transform="scale(1 1) rotate(0) translate(4 382)">
<title>ArchNginx</title>
<polygon fill="#0d1117" stroke="transparent" points="-4,4 -4,-382 833,-382 833,4 -4,4"/>
<text text-anchor="middle" x="414.5" y="-361.2" font-family="Helvetica,sans-Serif" font-size="16.00" fill="#00f2ff">A1.5: Nginx 1.30.2 Dynamic Rpath Runtime Spec</text>
<g id="clust1" class="cluster">
<title>cluster_nginx_process</title>
<polygon fill="#0d1117" stroke="#00ff00" points="8,-137 8,-344 211,-344 211,-137 8,-137"/>
<text text-anchor="middle" x="109.5" y="-327.2" font-family="Helvetica,sans-Serif" font-size="16.00" fill="#00ff00">Nginx Daemon Processes</text>
</g>
<g id="clust2" class="cluster">
<title>cluster_nginx_opts</title>
<polygon fill="#0d1117" stroke="#ffff00" points="219,-114 219,-238 821,-238 821,-114 219,-114"/>
<text text-anchor="middle" x="520" y="-221.2" font-family="Helvetica,sans-Serif" font-size="16.00" fill="#ffff00">Dynamic Link Options</text>
</g>
<g id="clust3" class="cluster">
<title>cluster_nginx_libs</title>
<polygon fill="#0d1117" stroke="#ff00ff" points="497,-8 497,-86 773,-86 773,-8 497,-8"/>
<text text-anchor="middle" x="635" y="-69.2" font-family="Helvetica,sans-Serif" font-size="16.00" fill="#ff00ff">Custom Runtime Libraries</text>
</g>
<!-- Master_Proc -->
<g id="node1" class="node">
<title>Master_Proc</title>
<path fill="#161b22" stroke="#00f2ff" d="M191,-310C191,-310 101,-310 101,-310 95,-310 89,-304 89,-298 89,-298 89,-286 89,-286 89,-280 95,-274 101,-274 101,-274 191,-274 191,-274 197,-274 203,-280 203,-286 203,-286 203,-298 203,-298 203,-304 197,-310 191,-310"/>
<text text-anchor="middle" x="146" y="-295" font-family="Helvetica,sans-Serif" font-size="10.00" fill="#00f2ff">Nginx Master Process</text>
<text text-anchor="middle" x="146" y="-284" font-family="Helvetica,sans-Serif" font-size="10.00" fill="#00f2ff">(Port 80/443 listener)</text>
</g>
<!-- Worker_Procs -->
<g id="node2" class="node">
<title>Worker_Procs</title>
<path fill="#161b22" stroke="#00f2ff" d="M190.5,-181C190.5,-181 71.5,-181 71.5,-181 65.5,-181 59.5,-175 59.5,-169 59.5,-169 59.5,-157 59.5,-157 59.5,-151 65.5,-145 71.5,-145 71.5,-145 190.5,-145 190.5,-145 196.5,-145 202.5,-151 202.5,-157 202.5,-157 202.5,-169 202.5,-169 202.5,-175 196.5,-181 190.5,-181"/>
<text text-anchor="middle" x="131" y="-166" font-family="Helvetica,sans-Serif" font-size="10.00" fill="#00f2ff">Worker Processes</text>
<text text-anchor="middle" x="131" y="-155" font-family="Helvetica,sans-Serif" font-size="10.00" fill="#00f2ff">(Handles active connections)</text>
</g>
<!-- Master_Proc&#45;&gt;Worker_Procs -->
<g id="edge1" class="edge">
<title>Master_Proc&#45;&gt;Worker_Procs</title>
<path fill="none" stroke="#ff00ff" d="M143.98,-273.87C141.47,-252.66 137.17,-216.28 134.22,-191.23"/>
<polygon fill="#ff00ff" stroke="#ff00ff" points="133.04,-181.26 138.68,-190.67 133.63,-186.23 134.21,-191.19 134.21,-191.19 134.21,-191.19 133.63,-186.23 129.74,-191.72 133.04,-181.26 133.04,-181.26"/>
<text text-anchor="middle" x="158" y="-248.8" font-family="Helvetica,sans-Serif" font-size="9.00">Spawns</text>
</g>
<!-- CC_Opts -->
<g id="node3" class="node">
<title>CC_Opts</title>
<path fill="#161b22" stroke="#00f2ff" d="M480.91,-204C480.91,-204 293.48,-204 293.48,-204 287.48,-204 278.16,-199 274.85,-194 274.85,-194 233.72,-132 233.72,-132 230.41,-127 233.09,-122 239.09,-122 239.09,-122 426.52,-122 426.52,-122 432.52,-122 441.84,-127 445.15,-132 445.15,-132 486.28,-194 486.28,-194 489.59,-199 486.91,-204 480.91,-204"/>
<text text-anchor="middle" x="360" y="-171.5" font-family="Helvetica,sans-Serif" font-size="10.00" fill="#00f2ff">&#45;&#45;with&#45;cc&#45;opt</text>
<text text-anchor="middle" x="360" y="-160.5" font-family="Helvetica,sans-Serif" font-size="10.00" fill="#00f2ff">&#45;I/usr/local/ssl/include</text>
<text text-anchor="middle" x="360" y="-149.5" font-family="Helvetica,sans-Serif" font-size="10.00" fill="#00f2ff">&#45;I/usr/local/zlib&#45;ng/include</text>
</g>
<!-- Master_Proc&#45;&gt;CC_Opts -->
<g id="edge2" class="edge">
<title>Master_Proc&#45;&gt;CC_Opts</title>
<path fill="none" stroke="#ff00ff" stroke-dasharray="5,2" d="M174.86,-273.87C202.64,-257.39 245.87,-231.73 283.57,-209.36"/>
<polygon fill="#ff00ff" stroke="#ff00ff" points="292.52,-204.05 286.21,-213.02 288.22,-206.6 283.92,-209.15 283.92,-209.15 283.92,-209.15 288.22,-206.6 281.62,-205.28 292.52,-204.05 292.52,-204.05"/>
</g>
<!-- LD_Opts -->
<g id="node4" class="node">
<title>LD_Opts</title>
<path fill="#161b22" stroke="#00f2ff" d="M801.23,-204C801.23,-204 584.66,-204 584.66,-204 578.66,-204 569.04,-199.21 565.43,-194.42 565.43,-194.42 518,-131.58 518,-131.58 514.38,-126.79 516.77,-122 522.77,-122 522.77,-122 739.34,-122 739.34,-122 745.34,-122 754.96,-126.79 758.57,-131.58 758.57,-131.58 806,-194.42 806,-194.42 809.62,-199.21 807.23,-204 801.23,-204"/>
<text text-anchor="middle" x="662" y="-171.5" font-family="Helvetica,sans-Serif" font-size="10.00" fill="#00f2ff">&#45;&#45;with&#45;ld&#45;opt</text>
<text text-anchor="middle" x="662" y="-160.5" font-family="Helvetica,sans-Serif" font-size="10.00" fill="#00f2ff">&#45;Wl,&#45;rpath,/usr/local/ssl/lib64</text>
<text text-anchor="middle" x="662" y="-149.5" font-family="Helvetica,sans-Serif" font-size="10.00" fill="#00f2ff">&#45;Wl,&#45;rpath,/usr/local/zlib&#45;ng/lib</text>
</g>
<!-- Master_Proc&#45;&gt;LD_Opts -->
<g id="edge3" class="edge">
<title>Master_Proc&#45;&gt;LD_Opts</title>
<path fill="none" stroke="#ff00ff" stroke-dasharray="5,2" d="M203.2,-287.52C274.45,-282.05 399.33,-268.69 502,-238 527.35,-230.42 553.83,-219.52 577.78,-208.41"/>
<polygon fill="#ff00ff" stroke="#ff00ff" points="586.83,-204.15 579.7,-212.48 582.3,-206.28 577.78,-208.41 577.78,-208.41 577.78,-208.41 582.3,-206.28 575.86,-204.34 586.83,-204.15 586.83,-204.15"/>
</g>
<!-- OpenSSL_Lib -->
<g id="node5" class="node">
<title>OpenSSL_Lib</title>
<path fill="#161b22" stroke="#00ff00" d="M625,-52C625,-52 517,-52 517,-52 511,-52 505,-46 505,-40 505,-40 505,-28 505,-28 505,-22 511,-16 517,-16 517,-16 625,-16 625,-16 631,-16 637,-22 637,-28 637,-28 637,-40 637,-40 637,-46 631,-52 625,-52"/>
<text text-anchor="middle" x="571" y="-37" font-family="Helvetica,sans-Serif" font-size="10.00" fill="#00f2ff">libssl.so.3 &amp; libcrypto.so.3</text>
<text text-anchor="middle" x="571" y="-26" font-family="Helvetica,sans-Serif" font-size="10.00" fill="#00f2ff">(/usr/local/ssl/lib64/)</text>
</g>
<!-- LD_Opts&#45;&gt;OpenSSL_Lib -->
<g id="edge4" class="edge">
<title>LD_Opts&#45;&gt;OpenSSL_Lib</title>
<path fill="none" stroke="#ff00ff" d="M580.89,-121.8C575.46,-116.49 570.69,-110.57 567,-104 559.96,-91.45 560.39,-75.51 562.84,-62.12"/>
<polygon fill="#ff00ff" stroke="#ff00ff" points="565.14,-52.04 567.31,-62.78 564.03,-56.91 562.92,-61.79 562.92,-61.79 562.92,-61.79 564.03,-56.91 558.53,-60.79 565.14,-52.04 565.14,-52.04"/>
<text text-anchor="middle" x="626" y="-96.8" font-family="Helvetica,sans-Serif" font-size="9.00">Ensures runtime load priority</text>
</g>
<!-- ZlibNg_Lib -->
<g id="node6" class="node">
<title>ZlibNg_Lib</title>
<path fill="#161b22" stroke="#00ff00" d="M753,-52C753,-52 667,-52 667,-52 661,-52 655,-46 655,-40 655,-40 655,-28 655,-28 655,-22 661,-16 667,-16 667,-16 753,-16 753,-16 759,-16 765,-22 765,-28 765,-28 765,-40 765,-40 765,-46 759,-52 753,-52"/>
<text text-anchor="middle" x="710" y="-37" font-family="Helvetica,sans-Serif" font-size="10.00" fill="#00f2ff">libz.so.1</text>
<text text-anchor="middle" x="710" y="-26" font-family="Helvetica,sans-Serif" font-size="10.00" fill="#00f2ff">(/usr/local/zlib&#45;ng/lib/)</text>
</g>
<!-- LD_Opts&#45;&gt;ZlibNg_Lib -->
<g id="edge5" class="edge">
<title>LD_Opts&#45;&gt;ZlibNg_Lib</title>
<path fill="none" stroke="#ff00ff" d="M681.62,-121.75C684.23,-115.85 686.78,-109.81 689,-104 694.23,-90.34 699.06,-74.79 702.76,-61.91"/>
<polygon fill="#ff00ff" stroke="#ff00ff" points="705.48,-52.24 707.1,-63.08 704.13,-57.05 702.77,-61.87 702.77,-61.87 702.77,-61.87 704.13,-57.05 698.44,-60.65 705.48,-52.24 705.48,-52.24"/>
<text text-anchor="middle" x="751" y="-96.8" font-family="Helvetica,sans-Serif" font-size="9.00">Ensures runtime load priority</text>
</g>
</g>
</svg>
