<?xml version="1.0" encoding="UTF-8" standalone="no"?>
<!DOCTYPE svg PUBLIC "-//W3C//DTD SVG 1.1//EN"
 "http://www.w3.org/Graphics/SVG/1.1/DTD/svg11.dtd">
<!-- Generated by graphviz version 2.43.0 (0)
 -->
<!-- Title: ArchOpenSSHPAM Pages: 1 -->
<svg width="359pt" height="158pt"
 viewBox="0.00 0.00 358.50 158.00" xmlns="http://www.w3.org/2000/svg" xmlns:xlink="http://www.w3.org/1999/xlink">
<g id="graph0" class="graph" transform="scale(1 1) rotate(0) translate(4 154)">
<title>ArchOpenSSHPAM</title>
<polygon fill="#0d1117" stroke="transparent" points="-4,4 -4,-154 354.5,-154 354.5,4 -4,4"/>
<text text-anchor="middle" x="175.25" y="-7.8" font-family="Helvetica,sans-Serif" font-size="14.00" fill="#00f2ff">A1.4: OpenSSH 10.3p1 PAM Integration</text>
<!-- SSHD -->
<g id="node1" class="node">
<title>SSHD</title>
<path fill="#161b22" stroke="#00f2ff" d="M229,-150C229,-150 88,-150 88,-150 82,-150 76,-144 76,-138 76,-138 76,-124 76,-124 76,-118 82,-112 88,-112 88,-112 229,-112 229,-112 235,-112 241,-118 241,-124 241,-124 241,-138 241,-138 241,-144 235,-150 229,-150"/>
<text text-anchor="middle" x="158.5" y="-134.8" font-family="Helvetica,sans-Serif" font-size="14.00" fill="#00f2ff">sshd Daemon</text>
<text text-anchor="middle" x="158.5" y="-119.8" font-family="Helvetica,sans-Serif" font-size="14.00" fill="#00f2ff">(/usr/local/ssh/sbin/sshd)</text>
</g>
<!-- PAM_Module -->
<g id="node2" class="node">
<title>PAM_Module</title>
<path fill="#161b22" stroke="#ffff00" d="M131,-61C131,-61 12,-61 12,-61 6,-61 0,-55 0,-49 0,-49 0,-35 0,-35 0,-29 6,-23 12,-23 12,-23 131,-23 131,-23 137,-23 143,-29 143,-35 143,-35 143,-49 143,-49 143,-55 137,-61 131,-61"/>
<text text-anchor="middle" x="71.5" y="-45.8" font-family="Helvetica,sans-Serif" font-size="14.00" fill="#00f2ff">libpam.so</text>
<text text-anchor="middle" x="71.5" y="-30.8" font-family="Helvetica,sans-Serif" font-size="14.00" fill="#00f2ff">(System PAM Layer)</text>
</g>
<!-- SSHD&#45;&gt;PAM_Module -->
<g id="edge1" class="edge">
<title>SSHD&#45;&gt;PAM_Module</title>
<path fill="none" stroke="#ff00ff" d="M140.47,-111.97C127.88,-99.38 110.88,-82.38 96.91,-68.41"/>
<polygon fill="#ff00ff" stroke="#ff00ff" points="89.5,-61 99.76,-64.89 93.04,-64.54 96.57,-68.07 96.57,-68.07 96.57,-68.07 93.04,-64.54 93.39,-71.26 89.5,-61 89.5,-61"/>
<text text-anchor="middle" x="165.5" y="-82.8" font-family="Times,serif" font-size="14.00">&#45;&#45;with&#45;pam Flag</text>
</g>
<!-- LibCrypto -->
<g id="node3" class="node">
<title>LibCrypto</title>
<path fill="#161b22" stroke="#00ff00" d="M319.5,-61C319.5,-61 173.5,-61 173.5,-61 167.5,-61 161.5,-55 161.5,-49 161.5,-49 161.5,-35 161.5,-35 161.5,-29 167.5,-23 173.5,-23 173.5,-23 319.5,-23 319.5,-23 325.5,-23 331.5,-29 331.5,-35 331.5,-35 331.5,-49 331.5,-49 331.5,-55 325.5,-61 319.5,-61"/>
<text text-anchor="middle" x="246.5" y="-45.8" font-family="Helvetica,sans-Serif" font-size="14.00" fill="#00f2ff">libcrypto.so.3</text>
<text text-anchor="middle" x="246.5" y="-30.8" font-family="Helvetica,sans-Serif" font-size="14.00" fill="#00f2ff">(Custom OpenSSL 3.5.6)</text>
</g>
<!-- SSHD&#45;&gt;LibCrypto -->
<g id="edge2" class="edge">
<title>SSHD&#45;&gt;LibCrypto</title>
<path fill="none" stroke="#ff00ff" d="M192,-111.86C199.89,-106.7 207.92,-100.66 214.5,-94 221.34,-87.09 227.43,-78.47 232.42,-70.29"/>
<polygon fill="#ff00ff" stroke="#ff00ff" points="237.56,-61.37 236.47,-72.28 235.06,-65.7 232.57,-70.03 232.57,-70.03 232.57,-70.03 235.06,-65.7 228.67,-67.79 237.56,-61.37 237.56,-61.37"/>
<text text-anchor="middle" x="288" y="-82.8" font-family="Times,serif" font-size="14.00">Dynamic Link (Rpath)</text>
</g>
</g>
</svg>
