<?xml version="1.0" encoding="UTF-8" standalone="no"?>
<!DOCTYPE svg PUBLIC "-//W3C//DTD SVG 1.1//EN"
 "http://www.w3.org/Graphics/SVG/1.1/DTD/svg11.dtd">
<!-- Generated by graphviz version 2.43.0 (0)
 -->
<!-- Title: ArchCurlLinkage Pages: 1 -->
<svg width="298pt" height="271pt"
 viewBox="0.00 0.00 298.00 271.00" xmlns="http://www.w3.org/2000/svg" xmlns:xlink="http://www.w3.org/1999/xlink">
<g id="graph0" class="graph" transform="scale(1 1) rotate(0) translate(4 267)">
<title>ArchCurlLinkage</title>
<polygon fill="#0d1117" stroke="transparent" points="-4,4 -4,-267 294,-267 294,4 -4,4"/>
<text text-anchor="middle" x="145" y="-7.8" font-family="Helvetica,sans-Serif" font-size="14.00" fill="#00f2ff">A1.3: cURL 8.20.0 Custom Linkage</text>
<!-- Curl_Binary -->
<g id="node1" class="node">
<title>Curl_Binary</title>
<path fill="#161b22" stroke="#00f2ff" d="M207,-263C207,-263 79,-263 79,-263 73,-263 67,-257 67,-251 67,-251 67,-237 67,-237 67,-231 73,-225 79,-225 79,-225 207,-225 207,-225 213,-225 219,-231 219,-237 219,-237 219,-251 219,-251 219,-257 213,-263 207,-263"/>
<text text-anchor="middle" x="143" y="-247.8" font-family="Helvetica,sans-Serif" font-size="14.00" fill="#00f2ff">curl Binary</text>
<text text-anchor="middle" x="143" y="-232.8" font-family="Helvetica,sans-Serif" font-size="14.00" fill="#00f2ff">(/usr/local/curl/bin/curl)</text>
</g>
<!-- LDFLAGS -->
<g id="node2" class="node">
<title>LDFLAGS</title>
<path fill="#161b22" stroke="#00f2ff" d="M235.92,-188C235.92,-188 93.01,-188 93.01,-188 87.01,-188 78.06,-182.78 75.11,-177.55 75.11,-177.55 43.98,-122.45 43.98,-122.45 41.03,-117.22 44.08,-112 50.08,-112 50.08,-112 192.99,-112 192.99,-112 198.99,-112 207.94,-117.22 210.89,-122.45 210.89,-122.45 242.02,-177.55 242.02,-177.55 244.97,-182.78 241.92,-188 235.92,-188"/>
<text text-anchor="middle" x="143" y="-153.8" font-family="Helvetica,sans-Serif" font-size="14.00" fill="#00f2ff">LDFLAGS</text>
<text text-anchor="middle" x="143" y="-138.8" font-family="Helvetica,sans-Serif" font-size="14.00" fill="#00f2ff">(&#45;Wl,&#45;rpath,...)</text>
</g>
<!-- Curl_Binary&#45;&gt;LDFLAGS -->
<g id="edge1" class="edge">
<title>Curl_Binary&#45;&gt;LDFLAGS</title>
<path fill="none" stroke="#ff00ff" stroke-dasharray="5,2" d="M143,-224.82C143,-217.13 143,-207.78 143,-198.35"/>
<polygon fill="#ff00ff" stroke="#ff00ff" points="143,-188.16 147.5,-198.16 143,-193.16 143,-198.16 143,-198.16 143,-198.16 143,-193.16 138.5,-198.16 143,-188.16 143,-188.16"/>
</g>
<!-- OpenSSL -->
<g id="node3" class="node">
<title>OpenSSL</title>
<path fill="#161b22" stroke="#00ff00" d="M120,-61C120,-61 12,-61 12,-61 6,-61 0,-55 0,-49 0,-49 0,-35 0,-35 0,-29 6,-23 12,-23 12,-23 120,-23 120,-23 126,-23 132,-29 132,-35 132,-35 132,-49 132,-49 132,-55 126,-61 120,-61"/>
<text text-anchor="middle" x="66" y="-45.8" font-family="Helvetica,sans-Serif" font-size="14.00" fill="#00f2ff">OpenSSL 3.5.6</text>
<text text-anchor="middle" x="66" y="-30.8" font-family="Helvetica,sans-Serif" font-size="14.00" fill="#00f2ff">(/usr/local/ssl/lib64)</text>
</g>
<!-- LDFLAGS&#45;&gt;OpenSSL -->
<g id="edge2" class="edge">
<title>LDFLAGS&#45;&gt;OpenSSL</title>
<path fill="none" stroke="#ff00ff" d="M116.07,-111.93C105.92,-97.96 94.59,-82.36 85.28,-69.54"/>
<polygon fill="#ff00ff" stroke="#ff00ff" points="79.19,-61.16 88.71,-66.61 82.13,-65.21 85.07,-69.25 85.07,-69.25 85.07,-69.25 82.13,-65.21 81.43,-71.9 79.19,-61.16 79.19,-61.16"/>
<text text-anchor="middle" x="143" y="-82.8" font-family="Times,serif" font-size="14.00">Dynamic Link</text>
</g>
<!-- ZlibNg -->
<g id="node4" class="node">
<title>ZlibNg</title>
<path fill="#161b22" stroke="#00ff00" d="M278,-61C278,-61 162,-61 162,-61 156,-61 150,-55 150,-49 150,-49 150,-35 150,-35 150,-29 156,-23 162,-23 162,-23 278,-23 278,-23 284,-23 290,-29 290,-35 290,-35 290,-49 290,-49 290,-55 284,-61 278,-61"/>
<text text-anchor="middle" x="220" y="-45.8" font-family="Helvetica,sans-Serif" font-size="14.00" fill="#00f2ff">zlib&#45;ng 2.3.3</text>
<text text-anchor="middle" x="220" y="-30.8" font-family="Helvetica,sans-Serif" font-size="14.00" fill="#00f2ff">(/usr/local/zlib&#45;ng/lib)</text>
</g>
<!-- LDFLAGS&#45;&gt;ZlibNg -->
<g id="edge3" class="edge">
<title>LDFLAGS&#45;&gt;ZlibNg</title>
<path fill="none" stroke="#ff00ff" d="M173.57,-111.82C178.17,-105.93 182.78,-99.85 187,-94 192.56,-86.29 198.29,-77.69 203.38,-69.78"/>
<polygon fill="#ff00ff" stroke="#ff00ff" points="208.83,-61.23 207.25,-72.09 206.14,-65.45 203.46,-69.67 203.46,-69.67 203.46,-69.67 206.14,-65.45 199.66,-67.25 208.83,-61.23 208.83,-61.23"/>
<text text-anchor="middle" x="236" y="-82.8" font-family="Times,serif" font-size="14.00">Dynamic Link</text>
</g>
</g>
</svg>
