<?xml version="1.0" encoding="UTF-8" standalone="no"?>
<!DOCTYPE svg PUBLIC "-//W3C//DTD SVG 1.1//EN"
 "http://www.w3.org/Graphics/SVG/1.1/DTD/svg11.dtd">
<!-- Generated by graphviz version 2.43.0 (0)
 -->
<!-- Title: ArchCurl Pages: 1 -->
<svg width="579pt" height="481pt"
 viewBox="0.00 0.00 579.00 481.00" xmlns="http://www.w3.org/2000/svg" xmlns:xlink="http://www.w3.org/1999/xlink">
<g id="graph0" class="graph" transform="scale(1 1) rotate(0) translate(4 477)">
<title>ArchCurl</title>
<polygon fill="#0d1117" stroke="transparent" points="-4,4 -4,-477 575,-477 575,4 -4,4"/>
<text text-anchor="middle" x="285.5" y="-456.2" font-family="Helvetica,sans-Serif" font-size="16.00" fill="#00f2ff">A1.3: cURL 8.20.0 Custom Isolated Linkage Spec</text>
<g id="clust1" class="cluster">
<title>cluster_curl_opts</title>
<polygon fill="#0d1117" stroke="#ffff00" points="8,-220 8,-439 312,-439 312,-220 8,-220"/>
<text text-anchor="middle" x="160" y="-422.2" font-family="Helvetica,sans-Serif" font-size="16.00" fill="#ffff00">Configure Parameters</text>
</g>
<g id="clust2" class="cluster">
<title>cluster_curl_bin</title>
<polygon fill="#0d1117" stroke="#00ff00" points="21,-8 21,-192 226,-192 226,-8 21,-8"/>
<text text-anchor="middle" x="123.5" y="-175.2" font-family="Helvetica,sans-Serif" font-size="16.00" fill="#00ff00">cURL Runtime Executable</text>
</g>
<g id="clust3" class="cluster">
<title>cluster_curl_deps</title>
<polygon fill="#0d1117" stroke="#ff00ff" points="234,-8 234,-86 563,-86 563,-8 234,-8"/>
<text text-anchor="middle" x="398.5" y="-69.2" font-family="Helvetica,sans-Serif" font-size="16.00" fill="#ff00ff">Dynamic Dependencies (Isolated)</text>
</g>
<!-- Opts -->
<g id="node1" class="node">
<title>Opts</title>
<path fill="#161b22" stroke="#00f2ff" d="M292.22,-405C292.22,-405 86.8,-405 86.8,-405 80.8,-405 71.84,-399.78 68.88,-394.56 68.88,-394.56 21.71,-311.44 21.71,-311.44 18.74,-306.22 21.78,-301 27.78,-301 27.78,-301 233.2,-301 233.2,-301 239.2,-301 248.16,-306.22 251.12,-311.44 251.12,-311.44 298.29,-394.56 298.29,-394.56 301.26,-399.78 298.22,-405 292.22,-405"/>
<text text-anchor="middle" x="160" y="-367" font-family="Helvetica,sans-Serif" font-size="10.00" fill="#00f2ff">./configure</text>
<text text-anchor="middle" x="160" y="-356" font-family="Helvetica,sans-Serif" font-size="10.00" fill="#00f2ff">&#45;&#45;prefix=/usr/local/curl</text>
<text text-anchor="middle" x="160" y="-345" font-family="Helvetica,sans-Serif" font-size="10.00" fill="#00f2ff">&#45;&#45;with&#45;openssl=/usr/local/ssl</text>
<text text-anchor="middle" x="160" y="-334" font-family="Helvetica,sans-Serif" font-size="10.00" fill="#00f2ff">&#45;&#45;with&#45;zlib=/usr/local/zlib&#45;ng</text>
</g>
<!-- LdFlags -->
<g id="node2" class="node">
<title>LdFlags</title>
<polygon fill="#161b22" stroke="#00f2ff" points="251,-264 63,-264 63,-228 257,-228 257,-258 251,-264"/>
<polyline fill="none" stroke="#00f2ff" points="251,-264 251,-258 "/>
<polyline fill="none" stroke="#00f2ff" points="257,-258 251,-258 "/>
<text text-anchor="middle" x="160" y="-249" font-family="Helvetica,sans-Serif" font-size="10.00" fill="#00f2ff">LDFLAGS=&#39;&#45;Wl,&#45;rpath,/usr/local/ssl/lib64</text>
<text text-anchor="middle" x="160" y="-238" font-family="Helvetica,sans-Serif" font-size="10.00" fill="#00f2ff">&#45;Wl,&#45;rpath,/usr/local/zlib&#45;ng/lib&#39;</text>
</g>
<!-- Opts&#45;&gt;LdFlags -->
<g id="edge1" class="edge">
<title>Opts&#45;&gt;LdFlags</title>
<path fill="none" stroke="#ff00ff" d="M160,-300.73C160,-291.71 160,-282.64 160,-274.59"/>
<polygon fill="#ff00ff" stroke="#ff00ff" points="160,-264.35 164.5,-274.35 160,-269.35 160,-274.35 160,-274.35 160,-274.35 160,-269.35 155.5,-274.35 160,-264.35 160,-264.35"/>
</g>
<!-- Curl_Bin -->
<g id="node3" class="node">
<title>Curl_Bin</title>
<path fill="#161b22" stroke="#00f2ff" d="M206,-158C206,-158 114,-158 114,-158 108,-158 102,-152 102,-146 102,-146 102,-134 102,-134 102,-128 108,-122 114,-122 114,-122 206,-122 206,-122 212,-122 218,-128 218,-134 218,-134 218,-146 218,-146 218,-152 212,-158 206,-158"/>
<text text-anchor="middle" x="160" y="-143" font-family="Helvetica,sans-Serif" font-size="10.00" fill="#00f2ff">curl Binary</text>
<text text-anchor="middle" x="160" y="-132" font-family="Helvetica,sans-Serif" font-size="10.00" fill="#00f2ff">(/usr/local/curl/bin/curl)</text>
</g>
<!-- LdFlags&#45;&gt;Curl_Bin -->
<g id="edge3" class="edge">
<title>LdFlags&#45;&gt;Curl_Bin</title>
<path fill="none" stroke="#ff00ff" d="M160,-227.83C160,-211.64 160,-187.13 160,-168.27"/>
<polygon fill="#ff00ff" stroke="#ff00ff" points="160,-158.2 164.5,-168.2 160,-163.2 160,-168.2 160,-168.2 160,-168.2 160,-163.2 155.5,-168.2 160,-158.2 160,-158.2"/>
<text text-anchor="middle" x="222.5" y="-202.8" font-family="Helvetica,sans-Serif" font-size="9.00">Bakes RUNPATH into headers</text>
</g>
<!-- Curl_Symlink -->
<g id="node4" class="node">
<title>Curl_Symlink</title>
<polygon fill="#161b22" stroke="#00f2ff" points="159.5,-52 68.5,-52 68.5,-16 165.5,-16 165.5,-46 159.5,-52"/>
<polyline fill="none" stroke="#00f2ff" points="159.5,-52 159.5,-46 "/>
<polyline fill="none" stroke="#00f2ff" points="165.5,-46 159.5,-46 "/>
<text text-anchor="middle" x="117" y="-37" font-family="Helvetica,sans-Serif" font-size="10.00" fill="#00f2ff">PATH Target</text>
<text text-anchor="middle" x="117" y="-26" font-family="Helvetica,sans-Serif" font-size="10.00" fill="#00f2ff">(/usr/local/bin/curl)</text>
</g>
<!-- Curl_Bin&#45;&gt;Curl_Symlink -->
<g id="edge2" class="edge">
<title>Curl_Bin&#45;&gt;Curl_Symlink</title>
<path fill="none" stroke="#ff00ff" stroke-dasharray="5,2" d="M152.9,-121.83C146.11,-105.42 135.79,-80.45 127.95,-61.49"/>
<polygon fill="#ff00ff" stroke="#ff00ff" points="124.11,-52.2 132.09,-59.72 126.02,-56.82 127.93,-61.44 127.93,-61.44 127.93,-61.44 126.02,-56.82 123.77,-63.16 124.11,-52.2 124.11,-52.2"/>
<text text-anchor="middle" x="195.5" y="-96.8" font-family="Helvetica,sans-Serif" font-size="9.00">Overwrites legacy binary</text>
</g>
<!-- SSL_Lib -->
<g id="node5" class="node">
<title>SSL_Lib</title>
<path fill="#161b22" stroke="#00ff00" d="M378.5,-52C378.5,-52 253.5,-52 253.5,-52 247.5,-52 241.5,-46 241.5,-40 241.5,-40 241.5,-28 241.5,-28 241.5,-22 247.5,-16 253.5,-16 253.5,-16 378.5,-16 378.5,-16 384.5,-16 390.5,-22 390.5,-28 390.5,-28 390.5,-40 390.5,-40 390.5,-46 384.5,-52 378.5,-52"/>
<text text-anchor="middle" x="316" y="-37" font-family="Helvetica,sans-Serif" font-size="10.00" fill="#00f2ff">libssl.so.3</text>
<text text-anchor="middle" x="316" y="-26" font-family="Helvetica,sans-Serif" font-size="10.00" fill="#00f2ff">(/usr/local/ssl/lib64/libssl.so.3)</text>
</g>
<!-- Curl_Bin&#45;&gt;SSL_Lib -->
<g id="edge4" class="edge">
<title>Curl_Bin&#45;&gt;SSL_Lib</title>
<path fill="none" stroke="#ff00ff" d="M215.2,-121.92C227.17,-117.04 239.41,-111.08 250,-104 267.86,-92.06 284.54,-74.53 296.67,-60.13"/>
<polygon fill="#ff00ff" stroke="#ff00ff" points="303.26,-52.08 300.41,-62.67 300.1,-55.95 296.93,-59.82 296.93,-59.82 296.93,-59.82 300.1,-55.95 293.45,-56.97 303.26,-52.08 303.26,-52.08"/>
<text text-anchor="middle" x="296" y="-96.8" font-family="Helvetica,sans-Serif" font-size="9.00">Direct Rpath link</text>
</g>
<!-- Zlib_Lib -->
<g id="node6" class="node">
<title>Zlib_Lib</title>
<path fill="#161b22" stroke="#00ff00" d="M543,-52C543,-52 421,-52 421,-52 415,-52 409,-46 409,-40 409,-40 409,-28 409,-28 409,-22 415,-16 421,-16 421,-16 543,-16 543,-16 549,-16 555,-22 555,-28 555,-28 555,-40 555,-40 555,-46 549,-52 543,-52"/>
<text text-anchor="middle" x="482" y="-37" font-family="Helvetica,sans-Serif" font-size="10.00" fill="#00f2ff">libz.so.1</text>
<text text-anchor="middle" x="482" y="-26" font-family="Helvetica,sans-Serif" font-size="10.00" fill="#00f2ff">(/usr/local/zlib&#45;ng/lib/libz.so.1)</text>
</g>
<!-- Curl_Bin&#45;&gt;Zlib_Lib -->
<g id="edge5" class="edge">
<title>Curl_Bin&#45;&gt;Zlib_Lib</title>
<path fill="none" stroke="#ff00ff" d="M218.2,-132.57C268.05,-125.57 340.94,-111.76 400,-86 417.31,-78.45 435.26,-67.67 449.93,-57.97"/>
<polygon fill="#ff00ff" stroke="#ff00ff" points="458.61,-52.1 452.85,-61.43 454.47,-54.9 450.33,-57.7 450.33,-57.7 450.33,-57.7 454.47,-54.9 447.81,-53.97 458.61,-52.1 458.61,-52.1"/>
<text text-anchor="middle" x="409" y="-96.8" font-family="Helvetica,sans-Serif" font-size="9.00">Direct Rpath link</text>
</g>
</g>
</svg>
