<?xml version="1.0" encoding="UTF-8" standalone="no"?>
<!DOCTYPE svg PUBLIC "-//W3C//DTD SVG 1.1//EN"
 "http://www.w3.org/Graphics/SVG/1.1/DTD/svg11.dtd">
<!-- Generated by graphviz version 2.43.0 (0)
 -->
<!-- Title: ArchOpenSSL Pages: 1 -->
<svg width="436pt" height="271pt"
 viewBox="0.00 0.00 436.00 271.00" xmlns="http://www.w3.org/2000/svg" xmlns:xlink="http://www.w3.org/1999/xlink">
<g id="graph0" class="graph" transform="scale(1 1) rotate(0) translate(4 267)">
<title>ArchOpenSSL</title>
<polygon fill="#0d1117" stroke="transparent" points="-4,4 -4,-267 432,-267 432,4 -4,4"/>
<text text-anchor="middle" x="214" y="-7.8" font-family="Helvetica,sans-Serif" font-size="14.00" fill="#00f2ff">A1.1: Isolated OpenSSL 3.5.6 Rpath Architecture</text>
<!-- OpenSSL_Binary -->
<g id="node1" class="node">
<title>OpenSSL_Binary</title>
<path fill="#161b22" stroke="#00f2ff" d="M282.5,-263C282.5,-263 134.5,-263 134.5,-263 128.5,-263 122.5,-257 122.5,-251 122.5,-251 122.5,-237 122.5,-237 122.5,-231 128.5,-225 134.5,-225 134.5,-225 282.5,-225 282.5,-225 288.5,-225 294.5,-231 294.5,-237 294.5,-237 294.5,-251 294.5,-251 294.5,-257 288.5,-263 282.5,-263"/>
<text text-anchor="middle" x="208.5" y="-247.8" font-family="Helvetica,sans-Serif" font-size="14.00" fill="#00f2ff">openssl Binary</text>
<text text-anchor="middle" x="208.5" y="-232.8" font-family="Helvetica,sans-Serif" font-size="14.00" fill="#00f2ff">(/usr/local/ssl/bin/openssl)</text>
</g>
<!-- Rpath_Config -->
<g id="node2" class="node">
<title>Rpath_Config</title>
<path fill="#161b22" stroke="#00f2ff" d="M329.41,-188C329.41,-188 141.98,-188 141.98,-188 135.98,-188 126.49,-183.12 123,-178.24 123,-178.24 82.57,-121.76 82.57,-121.76 79.08,-116.88 81.59,-112 87.59,-112 87.59,-112 275.02,-112 275.02,-112 281.02,-112 290.51,-116.88 294,-121.76 294,-121.76 334.43,-178.24 334.43,-178.24 337.92,-183.12 335.41,-188 329.41,-188"/>
<text text-anchor="middle" x="208.5" y="-153.8" font-family="Helvetica,sans-Serif" font-size="14.00" fill="#00f2ff">Rpath Header</text>
<text text-anchor="middle" x="208.5" y="-138.8" font-family="Helvetica,sans-Serif" font-size="14.00" fill="#00f2ff">(Baked in runpath)</text>
</g>
<!-- OpenSSL_Binary&#45;&gt;Rpath_Config -->
<g id="edge1" class="edge">
<title>OpenSSL_Binary&#45;&gt;Rpath_Config</title>
<path fill="none" stroke="#ff00ff" stroke-dasharray="5,2" d="M208.5,-224.82C208.5,-217.13 208.5,-207.78 208.5,-198.35"/>
<polygon fill="#ff00ff" stroke="#ff00ff" points="208.5,-188.16 213,-198.16 208.5,-193.16 208.5,-198.16 208.5,-198.16 208.5,-198.16 208.5,-193.16 204,-198.16 208.5,-188.16 208.5,-188.16"/>
</g>
<!-- LibSSL -->
<g id="node3" class="node">
<title>LibSSL</title>
<path fill="#161b22" stroke="#00ff00" d="M183,-61C183,-61 12,-61 12,-61 6,-61 0,-55 0,-49 0,-49 0,-35 0,-35 0,-29 6,-23 12,-23 12,-23 183,-23 183,-23 189,-23 195,-29 195,-35 195,-35 195,-49 195,-49 195,-55 189,-61 183,-61"/>
<text text-anchor="middle" x="97.5" y="-45.8" font-family="Helvetica,sans-Serif" font-size="14.00" fill="#00f2ff">libssl.so.3</text>
<text text-anchor="middle" x="97.5" y="-30.8" font-family="Helvetica,sans-Serif" font-size="14.00" fill="#00f2ff">(/usr/local/ssl/lib64/libssl.so.3)</text>
</g>
<!-- Rpath_Config&#45;&gt;LibSSL -->
<g id="edge2" class="edge">
<title>Rpath_Config&#45;&gt;LibSSL</title>
<path fill="none" stroke="#ff00ff" d="M169.68,-111.93C154.49,-97.42 137.46,-81.16 123.75,-68.07"/>
<polygon fill="#ff00ff" stroke="#ff00ff" points="116.52,-61.16 126.86,-64.81 120.13,-64.61 123.75,-68.07 123.75,-68.07 123.75,-68.07 120.13,-64.61 120.64,-71.32 116.52,-61.16 116.52,-61.16"/>
<text text-anchor="middle" x="204" y="-82.8" font-family="Times,serif" font-size="14.00">Locates at Runtime</text>
</g>
<!-- LibCrypto -->
<g id="node4" class="node">
<title>LibCrypto</title>
<path fill="#161b22" stroke="#00ff00" d="M416,-61C416,-61 225,-61 225,-61 219,-61 213,-55 213,-49 213,-49 213,-35 213,-35 213,-29 219,-23 225,-23 225,-23 416,-23 416,-23 422,-23 428,-29 428,-35 428,-35 428,-49 428,-49 428,-55 422,-61 416,-61"/>
<text text-anchor="middle" x="320.5" y="-45.8" font-family="Helvetica,sans-Serif" font-size="14.00" fill="#00f2ff">libcrypto.so.3</text>
<text text-anchor="middle" x="320.5" y="-30.8" font-family="Helvetica,sans-Serif" font-size="14.00" fill="#00f2ff">(/usr/local/ssl/lib64/libcrypto.so.3)</text>
</g>
<!-- Rpath_Config&#45;&gt;LibCrypto -->
<g id="edge3" class="edge">
<title>Rpath_Config&#45;&gt;LibCrypto</title>
<path fill="none" stroke="#ff00ff" d="M247.67,-111.93C263,-97.42 280.18,-81.16 294.01,-68.07"/>
<polygon fill="#ff00ff" stroke="#ff00ff" points="301.31,-61.16 297.14,-71.3 297.68,-64.6 294.05,-68.04 294.05,-68.04 294.05,-68.04 297.68,-64.6 290.95,-64.77 301.31,-61.16 301.31,-61.16"/>
<text text-anchor="middle" x="334" y="-82.8" font-family="Times,serif" font-size="14.00">Locates at Runtime</text>
</g>
</g>
</svg>
