<?xml version="1.0" encoding="UTF-8" standalone="no"?>
<!DOCTYPE svg PUBLIC "-//W3C//DTD SVG 1.1//EN"
 "http://www.w3.org/Graphics/SVG/1.1/DTD/svg11.dtd">
<!-- Generated by graphviz version 2.43.0 (0)
 -->
<!-- Title: ArchOpenSSHPAM Pages: 1 -->
<svg width="809pt" height="316pt"
 viewBox="0.00 0.00 809.00 316.00" xmlns="http://www.w3.org/2000/svg" xmlns:xlink="http://www.w3.org/1999/xlink">
<g id="graph0" class="graph" transform="scale(1 1) rotate(0) translate(4 312)">
<title>ArchOpenSSHPAM</title>
<polygon fill="#0d1117" stroke="transparent" points="-4,4 -4,-312 805,-312 805,4 -4,4"/>
<text text-anchor="middle" x="400.5" y="-291.2" font-family="Helvetica,sans-Serif" font-size="16.00" fill="#00f2ff">A1.4: OpenSSH 10.3p1 Security &amp; PAM Architecture</text>
<g id="clust1" class="cluster">
<title>cluster_ssh_daemon</title>
<polygon fill="#0d1117" stroke="#00ff00" points="8,-90 8,-274 172,-274 172,-90 8,-90"/>
<text text-anchor="middle" x="90" y="-257.2" font-family="Helvetica,sans-Serif" font-size="16.00" fill="#00ff00">SSH Daemon (sshd)</text>
</g>
<g id="clust2" class="cluster">
<title>cluster_auth_framework</title>
<polygon fill="#0d1117" stroke="#ffff00" points="534,-8 534,-274 793,-274 793,-8 534,-8"/>
<text text-anchor="middle" x="663.5" y="-257.2" font-family="Helvetica,sans-Serif" font-size="16.00" fill="#ffff00">PAM Authentication Module Layer</text>
</g>
<g id="clust3" class="cluster">
<title>cluster_crypto_layer</title>
<polygon fill="#0d1117" stroke="#ff00ff" points="180,-90 180,-168 526,-168 526,-90 180,-90"/>
<text text-anchor="middle" x="353" y="-151.2" font-family="Helvetica,sans-Serif" font-size="16.00" fill="#ff00ff">Cryptography Linkage</text>
</g>
<!-- SSHD_Bin -->
<g id="node1" class="node">
<title>SSHD_Bin</title>
<path fill="#161b22" stroke="#00f2ff" d="M152,-240C152,-240 50,-240 50,-240 44,-240 38,-234 38,-228 38,-228 38,-216 38,-216 38,-210 44,-204 50,-204 50,-204 152,-204 152,-204 158,-204 164,-210 164,-216 164,-216 164,-228 164,-228 164,-234 158,-240 152,-240"/>
<text text-anchor="middle" x="101" y="-225" font-family="Helvetica,sans-Serif" font-size="10.00" fill="#00f2ff">sshd Binary</text>
<text text-anchor="middle" x="101" y="-214" font-family="Helvetica,sans-Serif" font-size="10.00" fill="#00f2ff">(/usr/local/ssh/sbin/sshd)</text>
</g>
<!-- SSHD_Config -->
<g id="node2" class="node">
<title>SSHD_Config</title>
<polygon fill="#161b22" stroke="#00f2ff" points="128.5,-134 21.5,-134 21.5,-98 134.5,-98 134.5,-128 128.5,-134"/>
<polyline fill="none" stroke="#00f2ff" points="128.5,-134 128.5,-128 "/>
<polyline fill="none" stroke="#00f2ff" points="134.5,-128 128.5,-128 "/>
<text text-anchor="middle" x="78" y="-119" font-family="Helvetica,sans-Serif" font-size="10.00" fill="#00f2ff">Configuration</text>
<text text-anchor="middle" x="78" y="-108" font-family="Helvetica,sans-Serif" font-size="10.00" fill="#00f2ff">(/etc/ssh/sshd_config)</text>
</g>
<!-- SSHD_Bin&#45;&gt;SSHD_Config -->
<g id="edge1" class="edge">
<title>SSHD_Bin&#45;&gt;SSHD_Config</title>
<path fill="none" stroke="#ff00ff" d="M88.22,-203.66C84.92,-198.26 81.79,-192.12 80,-186 76.08,-172.61 75.31,-157.13 75.64,-144.23"/>
<polygon fill="#ff00ff" stroke="#ff00ff" points="76.13,-134.1 80.14,-144.31 75.89,-139.1 75.65,-144.09 75.65,-144.09 75.65,-144.09 75.89,-139.1 71.15,-143.88 76.13,-134.1 76.13,-134.1"/>
<text text-anchor="middle" x="123" y="-178.8" font-family="Helvetica,sans-Serif" font-size="9.00">Loads configurations</text>
</g>
<!-- PAM_Library -->
<g id="node4" class="node">
<title>PAM_Library</title>
<path fill="#161b22" stroke="#00f2ff" d="M658,-134C658,-134 554,-134 554,-134 548,-134 542,-128 542,-122 542,-122 542,-110 542,-110 542,-104 548,-98 554,-98 554,-98 658,-98 658,-98 664,-98 670,-104 670,-110 670,-110 670,-122 670,-122 670,-128 664,-134 658,-134"/>
<text text-anchor="middle" x="606" y="-119" font-family="Helvetica,sans-Serif" font-size="10.00" fill="#00f2ff">libpam.so</text>
<text text-anchor="middle" x="606" y="-108" font-family="Helvetica,sans-Serif" font-size="10.00" fill="#00f2ff">(Runtime Pluggable Auth)</text>
</g>
<!-- SSHD_Bin&#45;&gt;PAM_Library -->
<g id="edge4" class="edge">
<title>SSHD_Bin&#45;&gt;PAM_Library</title>
<path fill="none" stroke="#ff00ff" d="M164.1,-218.56C259.69,-214.34 436.47,-204.31 497,-186 527.33,-176.82 557.44,-156.71 578.3,-140.55"/>
<polygon fill="#ff00ff" stroke="#ff00ff" points="586.37,-134.14 581.34,-143.88 582.45,-137.25 578.54,-140.36 578.54,-140.36 578.54,-140.36 582.45,-137.25 575.74,-136.84 586.37,-134.14 586.37,-134.14"/>
<text text-anchor="middle" x="551" y="-178.8" font-family="Helvetica,sans-Serif" font-size="9.00">&#45;&#45;with&#45;pam Flag</text>
</g>
<!-- LibCrypto -->
<g id="node6" class="node">
<title>LibCrypto</title>
<path fill="#161b22" stroke="#00ff00" d="M339.5,-134C339.5,-134 200.5,-134 200.5,-134 194.5,-134 188.5,-128 188.5,-122 188.5,-122 188.5,-110 188.5,-110 188.5,-104 194.5,-98 200.5,-98 200.5,-98 339.5,-98 339.5,-98 345.5,-98 351.5,-104 351.5,-110 351.5,-110 351.5,-122 351.5,-122 351.5,-128 345.5,-134 339.5,-134"/>
<text text-anchor="middle" x="270" y="-119" font-family="Helvetica,sans-Serif" font-size="10.00" fill="#00f2ff">libcrypto.so.3</text>
<text text-anchor="middle" x="270" y="-108" font-family="Helvetica,sans-Serif" font-size="10.00" fill="#00f2ff">(/usr/local/ssl/lib64/libcrypto.so.3)</text>
</g>
<!-- SSHD_Bin&#45;&gt;LibCrypto -->
<g id="edge5" class="edge">
<title>SSHD_Bin&#45;&gt;LibCrypto</title>
<path fill="none" stroke="#ff00ff" d="M134.06,-203.95C144.4,-198.42 155.78,-192.13 166,-186 190.39,-171.38 217.11,-153.62 237.36,-139.77"/>
<polygon fill="#ff00ff" stroke="#ff00ff" points="245.61,-134.1 239.92,-143.47 241.49,-136.93 237.37,-139.76 237.37,-139.76 237.37,-139.76 241.49,-136.93 234.82,-136.05 245.61,-134.1 245.61,-134.1"/>
<text text-anchor="middle" x="246" y="-178.8" font-family="Helvetica,sans-Serif" font-size="9.00">Loads crypt algorithms via rpath</text>
</g>
<!-- LibSSL -->
<g id="node7" class="node">
<title>LibSSL</title>
<path fill="#161b22" stroke="#00ff00" d="M506.5,-134C506.5,-134 381.5,-134 381.5,-134 375.5,-134 369.5,-128 369.5,-122 369.5,-122 369.5,-110 369.5,-110 369.5,-104 375.5,-98 381.5,-98 381.5,-98 506.5,-98 506.5,-98 512.5,-98 518.5,-104 518.5,-110 518.5,-110 518.5,-122 518.5,-122 518.5,-128 512.5,-134 506.5,-134"/>
<text text-anchor="middle" x="444" y="-119" font-family="Helvetica,sans-Serif" font-size="10.00" fill="#00f2ff">libssl.so.3</text>
<text text-anchor="middle" x="444" y="-108" font-family="Helvetica,sans-Serif" font-size="10.00" fill="#00f2ff">(/usr/local/ssl/lib64/libssl.so.3)</text>
</g>
<!-- SSHD_Bin&#45;&gt;LibSSL -->
<g id="edge6" class="edge">
<title>SSHD_Bin&#45;&gt;LibSSL</title>
<path fill="none" stroke="#ff00ff" d="M164.02,-214.24C207.05,-208.77 265.08,-199.68 315,-186 320.29,-184.55 356.09,-170.45 361,-168 377.67,-159.7 395.37,-149.1 410.11,-139.72"/>
<polygon fill="#ff00ff" stroke="#ff00ff" points="418.88,-134.06 412.91,-143.26 414.67,-136.77 410.47,-139.48 410.47,-139.48 410.47,-139.48 414.67,-136.77 408.03,-135.7 418.88,-134.06 418.88,-134.06"/>
<text text-anchor="middle" x="417.5" y="-178.8" font-family="Helvetica,sans-Serif" font-size="9.00">Loads SSH channel protocol via rpath</text>
</g>
<!-- PAM_Header -->
<g id="node3" class="node">
<title>PAM_Header</title>
<path fill="#161b22" stroke="#00f2ff" d="M654,-240C654,-240 558,-240 558,-240 552,-240 546,-234 546,-228 546,-228 546,-216 546,-216 546,-210 552,-204 558,-204 558,-204 654,-204 654,-204 660,-204 666,-210 666,-216 666,-216 666,-228 666,-228 666,-234 660,-240 654,-240"/>
<text text-anchor="middle" x="606" y="-225" font-family="Helvetica,sans-Serif" font-size="10.00" fill="#00f2ff">libpam0g&#45;dev Headers</text>
<text text-anchor="middle" x="606" y="-214" font-family="Helvetica,sans-Serif" font-size="10.00" fill="#00f2ff">(Build&#45;time requirement)</text>
</g>
<!-- PAM_Header&#45;&gt;PAM_Library -->
<g id="edge2" class="edge">
<title>PAM_Header&#45;&gt;PAM_Library</title>
<path fill="none" stroke="#ff00ff" stroke-dasharray="5,2" d="M606,-203.83C606,-187.64 606,-163.13 606,-144.27"/>
<polygon fill="#ff00ff" stroke="#ff00ff" points="606,-134.2 610.5,-144.2 606,-139.2 606,-144.2 606,-144.2 606,-144.2 606,-139.2 601.5,-144.2 606,-134.2 606,-134.2"/>
<text text-anchor="middle" x="662" y="-178.8" font-family="Helvetica,sans-Serif" font-size="9.00">Enables symbol integration</text>
</g>
<!-- PAM_Config -->
<g id="node5" class="node">
<title>PAM_Config</title>
<polygon fill="#161b22" stroke="#00f2ff" points="646.5,-52 559.5,-52 559.5,-16 652.5,-16 652.5,-46 646.5,-52"/>
<polyline fill="none" stroke="#00f2ff" points="646.5,-52 646.5,-46 "/>
<polyline fill="none" stroke="#00f2ff" points="652.5,-46 646.5,-46 "/>
<text text-anchor="middle" x="606" y="-37" font-family="Helvetica,sans-Serif" font-size="10.00" fill="#00f2ff">PAM Policy</text>
<text text-anchor="middle" x="606" y="-26" font-family="Helvetica,sans-Serif" font-size="10.00" fill="#00f2ff">(/etc/pam.d/sshd)</text>
</g>
<!-- PAM_Library&#45;&gt;PAM_Config -->
<g id="edge3" class="edge">
<title>PAM_Library&#45;&gt;PAM_Config</title>
<path fill="none" stroke="#ff00ff" d="M606,-97.64C606,-87.3 606,-73.94 606,-62.22"/>
<polygon fill="#ff00ff" stroke="#ff00ff" points="606,-52.05 610.5,-62.05 606,-57.05 606,-62.05 606,-62.05 606,-62.05 606,-57.05 601.5,-62.05 606,-52.05 606,-52.05"/>
<text text-anchor="middle" x="647" y="-72.8" font-family="Helvetica,sans-Serif" font-size="9.00">Executes auth stack</text>
</g>
</g>
</svg>
