<?xml version="1.0" encoding="UTF-8" standalone="no"?>
<!DOCTYPE svg PUBLIC "-//W3C//DTD SVG 1.1//EN"
 "http://www.w3.org/Graphics/SVG/1.1/DTD/svg11.dtd">
<!-- Generated by graphviz version 2.43.0 (0)
 -->
<!-- Title: FutureQUIC Pages: 1 -->
<svg width="377pt" height="453pt"
 viewBox="0.00 0.00 377.00 453.00" xmlns="http://www.w3.org/2000/svg" xmlns:xlink="http://www.w3.org/1999/xlink">
<g id="graph0" class="graph" transform="scale(1 1) rotate(0) translate(4 449)">
<title>FutureQUIC</title>
<polygon fill="#0d1117" stroke="transparent" points="-4,4 -4,-449 373,-449 373,4 -4,4"/>
<text text-anchor="middle" x="184.5" y="-428.2" font-family="Helvetica,sans-Serif" font-size="16.00" fill="#00f2ff">A3.1: Future HTTP/3 and QUIC Protocol Stack</text>
<g id="clust1" class="cluster">
<title>cluster_http3_layers</title>
<polygon fill="#0d1117" stroke="#00ff22" points="56,-8 56,-232 238,-232 238,-8 56,-8"/>
<text text-anchor="middle" x="147" y="-215.2" font-family="Helvetica,sans-Serif" font-size="16.00" fill="#00ff22">HTTP/3 Stack Layers</text>
</g>
<g id="clust2" class="cluster">
<title>cluster_nginx_http3</title>
<polygon fill="#0d1117" stroke="#ffff00" points="8,-260 8,-411 314,-411 314,-260 8,-260"/>
<text text-anchor="middle" x="161" y="-394.2" font-family="Helvetica,sans-Serif" font-size="16.00" fill="#ffff00">Nginx Build Prerequisites</text>
</g>
<!-- HTTP3 -->
<g id="node1" class="node">
<title>HTTP3</title>
<path fill="#161b22" stroke="#00f2ff" d="M187,-198C187,-198 83,-198 83,-198 77,-198 71,-192 71,-186 71,-186 71,-174 71,-174 71,-168 77,-162 83,-162 83,-162 187,-162 187,-162 193,-162 199,-168 199,-174 199,-174 199,-186 199,-186 199,-192 193,-198 187,-198"/>
<text text-anchor="middle" x="135" y="-177.5" font-family="Helvetica,sans-Serif" font-size="10.00" fill="#00f2ff">HTTP/3 Application Layer</text>
</g>
<!-- QUIC -->
<g id="node2" class="node">
<title>QUIC</title>
<path fill="#161b22" stroke="#00f2ff" d="M203.5,-125C203.5,-125 90.5,-125 90.5,-125 84.5,-125 78.5,-119 78.5,-113 78.5,-113 78.5,-101 78.5,-101 78.5,-95 84.5,-89 90.5,-89 90.5,-89 203.5,-89 203.5,-89 209.5,-89 215.5,-95 215.5,-101 215.5,-101 215.5,-113 215.5,-113 215.5,-119 209.5,-125 203.5,-125"/>
<text text-anchor="middle" x="147" y="-110" font-family="Helvetica,sans-Serif" font-size="10.00" fill="#00f2ff">QUIC Transport Layer</text>
<text text-anchor="middle" x="147" y="-99" font-family="Helvetica,sans-Serif" font-size="10.00" fill="#00f2ff">(Replaces TCP connection)</text>
</g>
<!-- HTTP3&#45;&gt;QUIC -->
<g id="edge1" class="edge">
<title>HTTP3&#45;&gt;QUIC</title>
<path fill="none" stroke="#ff00ff" d="M137.9,-161.81C139.26,-153.79 140.91,-144.05 142.42,-135.07"/>
<polygon fill="#ff00ff" stroke="#ff00ff" points="144.12,-125.03 146.89,-135.64 143.29,-129.96 142.46,-134.89 142.46,-134.89 142.46,-134.89 143.29,-129.96 138.02,-134.14 144.12,-125.03 144.12,-125.03"/>
</g>
<!-- UDP -->
<g id="node3" class="node">
<title>UDP</title>
<path fill="#161b22" stroke="#00f2ff" d="M218.5,-52C218.5,-52 75.5,-52 75.5,-52 69.5,-52 63.5,-46 63.5,-40 63.5,-40 63.5,-28 63.5,-28 63.5,-22 69.5,-16 75.5,-16 75.5,-16 218.5,-16 218.5,-16 224.5,-16 230.5,-22 230.5,-28 230.5,-28 230.5,-40 230.5,-40 230.5,-46 224.5,-52 218.5,-52"/>
<text text-anchor="middle" x="147" y="-37" font-family="Helvetica,sans-Serif" font-size="10.00" fill="#00f2ff">UDP Protocol</text>
<text text-anchor="middle" x="147" y="-26" font-family="Helvetica,sans-Serif" font-size="10.00" fill="#00f2ff">(Fast, low latency network routing)</text>
</g>
<!-- QUIC&#45;&gt;UDP -->
<g id="edge2" class="edge">
<title>QUIC&#45;&gt;UDP</title>
<path fill="none" stroke="#ff00ff" d="M147,-88.81C147,-80.79 147,-71.05 147,-62.07"/>
<polygon fill="#ff00ff" stroke="#ff00ff" points="147,-52.03 151.5,-62.03 147,-57.03 147,-62.03 147,-62.03 147,-62.03 147,-57.03 142.5,-62.03 147,-52.03 147,-52.03"/>
</g>
<!-- Nginx_Configure -->
<g id="node4" class="node">
<title>Nginx_Configure</title>
<path fill="#161b22" stroke="#00f2ff" d="M216.5,-377C216.5,-377 127.5,-377 127.5,-377 121.5,-377 115.5,-371 115.5,-365 115.5,-365 115.5,-353 115.5,-353 115.5,-347 121.5,-341 127.5,-341 127.5,-341 216.5,-341 216.5,-341 222.5,-341 228.5,-347 228.5,-353 228.5,-353 228.5,-365 228.5,-365 228.5,-371 222.5,-377 216.5,-377"/>
<text text-anchor="middle" x="172" y="-362" font-family="Helvetica,sans-Serif" font-size="10.00" fill="#00f2ff">nginx ./configure</text>
<text text-anchor="middle" x="172" y="-351" font-family="Helvetica,sans-Serif" font-size="10.00" fill="#00f2ff">&#45;&#45;with&#45;http_v3_module</text>
</g>
<!-- TLS13_OpenSSL -->
<g id="node5" class="node">
<title>TLS13_OpenSSL</title>
<path fill="#161b22" stroke="#00f2ff" d="M161.5,-304C161.5,-304 28.5,-304 28.5,-304 22.5,-304 16.5,-298 16.5,-292 16.5,-292 16.5,-280 16.5,-280 16.5,-274 22.5,-268 28.5,-268 28.5,-268 161.5,-268 161.5,-268 167.5,-268 173.5,-274 173.5,-280 173.5,-280 173.5,-292 173.5,-292 173.5,-298 167.5,-304 161.5,-304"/>
<text text-anchor="middle" x="95" y="-289" font-family="Helvetica,sans-Serif" font-size="10.00" fill="#00f2ff">OpenSSL 3.5.6 (LTS)</text>
<text text-anchor="middle" x="95" y="-278" font-family="Helvetica,sans-Serif" font-size="10.00" fill="#00f2ff">(Requires TLS 1.3 Handshakes)</text>
</g>
<!-- Nginx_Configure&#45;&gt;TLS13_OpenSSL -->
<g id="edge3" class="edge">
<title>Nginx_Configure&#45;&gt;TLS13_OpenSSL</title>
<path fill="none" stroke="#ff00ff" d="M153.36,-340.81C143.62,-331.83 131.54,-320.69 120.9,-310.89"/>
<polygon fill="#ff00ff" stroke="#ff00ff" points="113.47,-304.03 123.87,-307.5 117.14,-307.42 120.82,-310.81 120.82,-310.81 120.82,-310.81 117.14,-307.42 117.77,-314.12 113.47,-304.03 113.47,-304.03"/>
</g>
<!-- Quic_Transport -->
<g id="node6" class="node">
<title>Quic_Transport</title>
<path fill="#161b22" stroke="#00f2ff" d="M294,-304C294,-304 204,-304 204,-304 198,-304 192,-298 192,-292 192,-292 192,-280 192,-280 192,-274 198,-268 204,-268 204,-268 294,-268 294,-268 300,-268 306,-274 306,-280 306,-280 306,-292 306,-292 306,-298 300,-304 294,-304"/>
<text text-anchor="middle" x="249" y="-289" font-family="Helvetica,sans-Serif" font-size="10.00" fill="#00f2ff">nghttp3 / quiche</text>
<text text-anchor="middle" x="249" y="-278" font-family="Helvetica,sans-Serif" font-size="10.00" fill="#00f2ff">(QUIC library libraries)</text>
</g>
<!-- Nginx_Configure&#45;&gt;Quic_Transport -->
<g id="edge4" class="edge">
<title>Nginx_Configure&#45;&gt;Quic_Transport</title>
<path fill="none" stroke="#ff00ff" d="M190.64,-340.81C200.38,-331.83 212.46,-320.69 223.1,-310.89"/>
<polygon fill="#ff00ff" stroke="#ff00ff" points="230.53,-304.03 226.23,-314.12 226.86,-307.42 223.18,-310.81 223.18,-310.81 223.18,-310.81 226.86,-307.42 220.13,-307.5 230.53,-304.03 230.53,-304.03"/>
</g>
<!-- TLS13_OpenSSL&#45;&gt;HTTP3 -->
<g id="edge5" class="edge">
<title>TLS13_OpenSSL&#45;&gt;HTTP3</title>
<path fill="none" stroke="#ff00ff" d="M101.61,-267.83C107.89,-251.49 117.43,-226.67 124.71,-207.75"/>
<polygon fill="#ff00ff" stroke="#ff00ff" points="128.39,-198.2 129,-209.15 126.59,-202.87 124.8,-207.53 124.8,-207.53 124.8,-207.53 126.59,-202.87 120.6,-205.92 128.39,-198.2 128.39,-198.2"/>
<text text-anchor="middle" x="153.5" y="-242.8" font-family="Helvetica,sans-Serif" font-size="9.00">Secures data stream</text>
</g>
<!-- Quic_Transport&#45;&gt;QUIC -->
<g id="edge6" class="edge">
<title>Quic_Transport&#45;&gt;QUIC</title>
<path fill="none" stroke="#ff00ff" d="M246.21,-267.85C241.53,-242.88 230.34,-195.8 208,-162 200.49,-150.64 190.01,-140.19 179.84,-131.57"/>
<polygon fill="#ff00ff" stroke="#ff00ff" points="171.82,-125.06 182.42,-127.87 175.71,-128.21 179.59,-131.36 179.59,-131.36 179.59,-131.36 175.71,-128.21 176.76,-134.86 171.82,-125.06 171.82,-125.06"/>
<text text-anchor="middle" x="303" y="-177.8" font-family="Helvetica,sans-Serif" font-size="9.00">Manages packages and framing</text>
</g>
</g>
</svg>
