<?xml version="1.0" encoding="UTF-8" standalone="no"?>
<!DOCTYPE svg PUBLIC "-//W3C//DTD SVG 1.1//EN"
 "http://www.w3.org/Graphics/SVG/1.1/DTD/svg11.dtd">
<!-- Generated by graphviz version 2.43.0 (0)
 -->
<!-- Title: FutureAudit Pages: 1 -->
<svg width="348pt" height="245pt"
 viewBox="0.00 0.00 348.00 245.00" xmlns="http://www.w3.org/2000/svg" xmlns:xlink="http://www.w3.org/1999/xlink">
<g id="graph0" class="graph" transform="scale(1 1) rotate(0) translate(4 241)">
<title>FutureAudit</title>
<polygon fill="#0d1117" stroke="transparent" points="-4,4 -4,-241 344,-241 344,4 -4,4"/>
<text text-anchor="middle" x="170" y="-7.8" font-family="Helvetica,sans-Serif" font-size="14.00" fill="#00f2ff">A3.2: Automated Security Auditing</text>
<!-- Cron_Job -->
<g id="node1" class="node">
<title>Cron_Job</title>
<path fill="#161b22" stroke="#00f2ff" d="M234.5,-233.73C234.5,-235.53 200.66,-237 159,-237 117.34,-237 83.5,-235.53 83.5,-233.73 83.5,-233.73 83.5,-204.27 83.5,-204.27 83.5,-202.47 117.34,-201 159,-201 200.66,-201 234.5,-202.47 234.5,-204.27 234.5,-204.27 234.5,-233.73 234.5,-233.73"/>
<path fill="none" stroke="#00f2ff" d="M234.5,-233.73C234.5,-231.92 200.66,-230.45 159,-230.45 117.34,-230.45 83.5,-231.92 83.5,-233.73"/>
<text text-anchor="middle" x="159" y="-215.3" font-family="Helvetica,sans-Serif" font-size="14.00" fill="#00f2ff">System Cron Daemon</text>
</g>
<!-- Auditor_Script -->
<g id="node2" class="node">
<title>Auditor_Script</title>
<path fill="#161b22" stroke="#ffff00" d="M243,-150C243,-150 75,-150 75,-150 69,-150 63,-144 63,-138 63,-138 63,-124 63,-124 63,-118 69,-112 75,-112 75,-112 243,-112 243,-112 249,-112 255,-118 255,-124 255,-124 255,-138 255,-138 255,-144 249,-150 243,-150"/>
<text text-anchor="middle" x="159" y="-134.8" font-family="Helvetica,sans-Serif" font-size="14.00" fill="#00f2ff">check_upstream_versions.sh</text>
<text text-anchor="middle" x="159" y="-119.8" font-family="Helvetica,sans-Serif" font-size="14.00" fill="#00f2ff">(Version check script)</text>
</g>
<!-- Cron_Job&#45;&gt;Auditor_Script -->
<g id="edge1" class="edge">
<title>Cron_Job&#45;&gt;Auditor_Script</title>
<path fill="none" stroke="#ff00ff" d="M159,-200.6C159,-189.06 159,-173.65 159,-160.36"/>
<polygon fill="#ff00ff" stroke="#ff00ff" points="159,-150.27 163.5,-160.27 159,-155.27 159,-160.27 159,-160.27 159,-160.27 159,-155.27 154.5,-160.27 159,-150.27 159,-150.27"/>
<text text-anchor="middle" x="196" y="-171.8" font-family="Times,serif" font-size="14.00">Daily Trigger</text>
</g>
<!-- Git_API -->
<g id="node3" class="node">
<title>Git_API</title>
<path fill="#161b22" stroke="#00f2ff" d="M132,-61C132,-61 12,-61 12,-61 6,-61 0,-55 0,-49 0,-49 0,-35 0,-35 0,-29 6,-23 12,-23 12,-23 132,-23 132,-23 138,-23 144,-29 144,-35 144,-35 144,-49 144,-49 144,-55 138,-61 132,-61"/>
<text text-anchor="middle" x="72" y="-45.8" font-family="Helvetica,sans-Serif" font-size="14.00" fill="#00f2ff">GitHub / Project API</text>
<text text-anchor="middle" x="72" y="-30.8" font-family="Helvetica,sans-Serif" font-size="14.00" fill="#00f2ff">(Remote tag queries)</text>
</g>
<!-- Auditor_Script&#45;&gt;Git_API -->
<g id="edge2" class="edge">
<title>Auditor_Script&#45;&gt;Git_API</title>
<path fill="none" stroke="#ff00ff" d="M92.46,-111.89C84.83,-107.22 78,-101.36 73,-94 68.57,-87.48 67.1,-79.33 67.06,-71.47"/>
<polygon fill="#ff00ff" stroke="#ff00ff" points="67.72,-61.47 71.56,-71.74 67.39,-66.46 67.07,-71.45 67.07,-71.45 67.07,-71.45 67.39,-66.46 62.58,-71.15 67.72,-61.47 67.72,-61.47"/>
<text text-anchor="middle" x="148.5" y="-82.8" font-family="Times,serif" font-size="14.00">Compares Release Versions</text>
</g>
<!-- Syslog_Alert -->
<g id="node4" class="node">
<title>Syslog_Alert</title>
<path fill="#161b22" stroke="#00ff00" d="M316,-61C316,-61 176,-61 176,-61 170,-61 164,-55 164,-49 164,-49 164,-35 164,-35 164,-29 170,-23 176,-23 176,-23 316,-23 316,-23 322,-23 328,-29 328,-35 328,-35 328,-49 328,-49 328,-55 322,-61 316,-61"/>
<text text-anchor="middle" x="246" y="-45.8" font-family="Helvetica,sans-Serif" font-size="14.00" fill="#00f2ff">Systemd Journal / Email</text>
<text text-anchor="middle" x="246" y="-30.8" font-family="Helvetica,sans-Serif" font-size="14.00" fill="#00f2ff">(Security notification)</text>
</g>
<!-- Auditor_Script&#45;&gt;Syslog_Alert -->
<g id="edge3" class="edge">
<title>Auditor_Script&#45;&gt;Syslog_Alert</title>
<path fill="none" stroke="#ff00ff" d="M201.47,-111.81C209.68,-106.9 217.68,-100.98 224,-94 229.98,-87.4 234.51,-78.91 237.86,-70.77"/>
<polygon fill="#ff00ff" stroke="#ff00ff" points="241.37,-61.15 242.17,-72.09 239.66,-65.85 237.94,-70.54 237.94,-70.54 237.94,-70.54 239.66,-65.85 233.72,-69 241.37,-61.15 241.37,-61.15"/>
<text text-anchor="middle" x="286.5" y="-82.8" font-family="Times,serif" font-size="14.00">If Update Available</text>
</g>
</g>
</svg>
