<?xml version="1.0" encoding="UTF-8" standalone="no"?>
<!DOCTYPE svg PUBLIC "-//W3C//DTD SVG 1.1//EN"
 "http://www.w3.org/Graphics/SVG/1.1/DTD/svg11.dtd">
<!-- Generated by graphviz version 2.43.0 (0)
 -->
<!-- Title: FutureStatic Pages: 1 -->
<svg width="332pt" height="404pt"
 viewBox="0.00 0.00 332.00 404.00" xmlns="http://www.w3.org/2000/svg" xmlns:xlink="http://www.w3.org/1999/xlink">
<g id="graph0" class="graph" transform="scale(1 1) rotate(0) translate(4 400)">
<title>FutureStatic</title>
<polygon fill="#0d1117" stroke="transparent" points="-4,4 -4,-400 328,-400 328,4 -4,4"/>
<text text-anchor="middle" x="162" y="-379.2" font-family="Helvetica,sans-Serif" font-size="16.00" fill="#00f2ff">A3.5: Static Compilation Pipeline Spec</text>
<g id="clust1" class="cluster">
<title>cluster_musl_toolchain</title>
<polygon fill="#0d1117" stroke="#ffff00" points="8,-187 8,-362 257,-362 257,-187 8,-187"/>
<text text-anchor="middle" x="132.5" y="-345.2" font-family="Helvetica,sans-Serif" font-size="16.00" fill="#ffff00">Musl Libc Compilation Toolchain</text>
</g>
<g id="clust2" class="cluster">
<title>cluster_static_deployment</title>
<polygon fill="#0d1117" stroke="#00ff00" points="20,-8 20,-159 316,-159 316,-8 20,-8"/>
<text text-anchor="middle" x="168" y="-142.2" font-family="Helvetica,sans-Serif" font-size="16.00" fill="#00ff00">Minimal Security Container (Distroless)</text>
</g>
<!-- Musl_GCC -->
<g id="node1" class="node">
<title>Musl_GCC</title>
<path fill="#161b22" stroke="#00f2ff" d="M204.5,-328C204.5,-328 59.5,-328 59.5,-328 53.5,-328 47.5,-322 47.5,-316 47.5,-316 47.5,-304 47.5,-304 47.5,-298 53.5,-292 59.5,-292 59.5,-292 204.5,-292 204.5,-292 210.5,-292 216.5,-298 216.5,-304 216.5,-304 216.5,-316 216.5,-316 216.5,-322 210.5,-328 204.5,-328"/>
<text text-anchor="middle" x="132" y="-313" font-family="Helvetica,sans-Serif" font-size="10.00" fill="#00f2ff">musl&#45;gcc</text>
<text text-anchor="middle" x="132" y="-302" font-family="Helvetica,sans-Serif" font-size="10.00" fill="#00f2ff">(Replaces glibc compiler toolchain)</text>
</g>
<!-- Flags -->
<g id="node2" class="node">
<title>Flags</title>
<path fill="#161b22" stroke="#00f2ff" d="M226,-255C226,-255 81.38,-255 81.38,-255 75.38,-255 65.86,-250.14 62.35,-245.28 62.35,-245.28 33.03,-204.72 33.03,-204.72 29.52,-199.86 32,-195 38,-195 38,-195 182.62,-195 182.62,-195 188.62,-195 198.14,-199.86 201.65,-204.72 201.65,-204.72 230.97,-245.28 230.97,-245.28 234.48,-250.14 232,-255 226,-255"/>
<text text-anchor="middle" x="132" y="-228" font-family="Helvetica,sans-Serif" font-size="10.00" fill="#00f2ff">Linking Flags:</text>
<text text-anchor="middle" x="132" y="-217" font-family="Helvetica,sans-Serif" font-size="10.00" fill="#00f2ff">&#45;static &#45;static&#45;libgcc</text>
</g>
<!-- Musl_GCC&#45;&gt;Flags -->
<g id="edge1" class="edge">
<title>Musl_GCC&#45;&gt;Flags</title>
<path fill="none" stroke="#ff00ff" d="M132,-291.8C132,-284.14 132,-274.78 132,-265.55"/>
<polygon fill="#ff00ff" stroke="#ff00ff" points="132,-255.27 136.5,-265.27 132,-260.27 132,-265.27 132,-265.27 132,-265.27 132,-260.27 127.5,-265.27 132,-255.27 132,-255.27"/>
</g>
<!-- Static_Binary -->
<g id="node3" class="node">
<title>Static_Binary</title>
<path fill="#161b22" stroke="#00ff00" d="M212.5,-125C212.5,-125 51.5,-125 51.5,-125 45.5,-125 39.5,-119 39.5,-113 39.5,-113 39.5,-101 39.5,-101 39.5,-95 45.5,-89 51.5,-89 51.5,-89 212.5,-89 212.5,-89 218.5,-89 224.5,-95 224.5,-101 224.5,-101 224.5,-113 224.5,-113 224.5,-119 218.5,-125 212.5,-125"/>
<text text-anchor="middle" x="132" y="-110" font-family="Helvetica,sans-Serif" font-size="10.00" fill="#00f2ff">Self&#45;Contained Executable</text>
<text text-anchor="middle" x="132" y="-99" font-family="Helvetica,sans-Serif" font-size="10.00" fill="#00f2ff">(Zero runtime dynamic linking libraries)</text>
</g>
<!-- Flags&#45;&gt;Static_Binary -->
<g id="edge3" class="edge">
<title>Flags&#45;&gt;Static_Binary</title>
<path fill="none" stroke="#ff00ff" d="M132,-194.73C132,-176.41 132,-152.98 132,-135.09"/>
<polygon fill="#ff00ff" stroke="#ff00ff" points="132,-125.02 136.5,-135.02 132,-130.02 132,-135.02 132,-135.02 132,-135.02 132,-130.02 127.5,-135.02 132,-125.02 132,-125.02"/>
<text text-anchor="middle" x="186.5" y="-169.8" font-family="Helvetica,sans-Serif" font-size="9.00">Bakes in all dependencies</text>
</g>
<!-- Scratch_Image -->
<g id="node4" class="node">
<title>Scratch_Image</title>
<path fill="#161b22" stroke="#ff00ff" d="M197.5,-52C197.5,-52 66.5,-52 66.5,-52 60.5,-52 54.5,-46 54.5,-40 54.5,-40 54.5,-28 54.5,-28 54.5,-22 60.5,-16 66.5,-16 66.5,-16 197.5,-16 197.5,-16 203.5,-16 209.5,-22 209.5,-28 209.5,-28 209.5,-40 209.5,-40 209.5,-46 203.5,-52 197.5,-52"/>
<text text-anchor="middle" x="132" y="-37" font-family="Helvetica,sans-Serif" font-size="10.00" fill="#00f2ff">Docker image: &#39;scratch&#39;</text>
<text text-anchor="middle" x="132" y="-26" font-family="Helvetica,sans-Serif" font-size="10.00" fill="#00f2ff">(Contains only the static binary)</text>
</g>
<!-- Static_Binary&#45;&gt;Scratch_Image -->
<g id="edge2" class="edge">
<title>Static_Binary&#45;&gt;Scratch_Image</title>
<path fill="none" stroke="#ff00ff" d="M132,-88.81C132,-80.79 132,-71.05 132,-62.07"/>
<polygon fill="#ff00ff" stroke="#ff00ff" points="132,-52.03 136.5,-62.03 132,-57.03 132,-62.03 132,-62.03 132,-62.03 132,-57.03 127.5,-62.03 132,-52.03 132,-52.03"/>
</g>
</g>
</svg>
