<?xml version="1.0" encoding="UTF-8" standalone="no"?>
<!DOCTYPE svg PUBLIC "-//W3C//DTD SVG 1.1//EN"
 "http://www.w3.org/Graphics/SVG/1.1/DTD/svg11.dtd">
<!-- Generated by graphviz version 2.43.0 (0)
 -->
<!-- Title: FutureLogs Pages: 1 -->
<svg width="338pt" height="245pt"
 viewBox="0.00 0.00 337.50 245.00" xmlns="http://www.w3.org/2000/svg" xmlns:xlink="http://www.w3.org/1999/xlink">
<g id="graph0" class="graph" transform="scale(1 1) rotate(0) translate(4 241)">
<title>FutureLogs</title>
<polygon fill="#0d1117" stroke="transparent" points="-4,4 -4,-241 333.5,-241 333.5,4 -4,4"/>
<text text-anchor="middle" x="164.75" y="-7.8" font-family="Helvetica,sans-Serif" font-size="14.00" fill="#00f2ff">A3.4: Unified Log Security Aggregation</text>
<!-- Nginx_Logs -->
<g id="node1" class="node">
<title>Nginx_Logs</title>
<path fill="#161b22" stroke="#00f2ff" d="M166,-237C166,-237 12,-237 12,-237 6,-237 0,-231 0,-225 0,-225 0,-211 0,-211 0,-205 6,-199 12,-199 12,-199 166,-199 166,-199 172,-199 178,-205 178,-211 178,-211 178,-225 178,-225 178,-231 172,-237 166,-237"/>
<text text-anchor="middle" x="89" y="-221.8" font-family="Helvetica,sans-Serif" font-size="14.00" fill="#00f2ff">Nginx Access &amp; Error Logs</text>
<text text-anchor="middle" x="89" y="-206.8" font-family="Helvetica,sans-Serif" font-size="14.00" fill="#00f2ff">(/var/log/nginx/*)</text>
</g>
<!-- Fail2ban -->
<g id="node3" class="node">
<title>Fail2ban</title>
<path fill="#161b22" stroke="#ffff00" d="M245,-148C245,-148 107,-148 107,-148 101,-148 95,-142 95,-136 95,-136 95,-124 95,-124 95,-118 101,-112 107,-112 107,-112 245,-112 245,-112 251,-112 257,-118 257,-124 257,-124 257,-136 257,-136 257,-142 251,-148 245,-148"/>
<text text-anchor="middle" x="176" y="-126.3" font-family="Helvetica,sans-Serif" font-size="14.00" fill="#00f2ff">Fail2ban Client Daemon</text>
</g>
<!-- Nginx_Logs&#45;&gt;Fail2ban -->
<g id="edge1" class="edge">
<title>Nginx_Logs&#45;&gt;Fail2ban</title>
<path fill="none" stroke="#ff00ff" d="M107.45,-198.76C120.24,-186.11 137.42,-169.13 151.38,-155.33"/>
<polygon fill="#ff00ff" stroke="#ff00ff" points="158.76,-148.04 154.81,-158.27 155.2,-151.56 151.65,-155.07 151.65,-155.07 151.65,-155.07 155.2,-151.56 148.48,-151.87 158.76,-148.04 158.76,-148.04"/>
<text text-anchor="middle" x="171.5" y="-169.8" font-family="Times,serif" font-size="14.00">Parses logs</text>
</g>
<!-- SSHD_Logs -->
<g id="node2" class="node">
<title>SSHD_Logs</title>
<path fill="#161b22" stroke="#00f2ff" d="M317.5,-237C317.5,-237 208.5,-237 208.5,-237 202.5,-237 196.5,-231 196.5,-225 196.5,-225 196.5,-211 196.5,-211 196.5,-205 202.5,-199 208.5,-199 208.5,-199 317.5,-199 317.5,-199 323.5,-199 329.5,-205 329.5,-211 329.5,-211 329.5,-225 329.5,-225 329.5,-231 323.5,-237 317.5,-237"/>
<text text-anchor="middle" x="263" y="-221.8" font-family="Helvetica,sans-Serif" font-size="14.00" fill="#00f2ff">SSH Daemon Logs</text>
<text text-anchor="middle" x="263" y="-206.8" font-family="Helvetica,sans-Serif" font-size="14.00" fill="#00f2ff">(Systemd Journal)</text>
</g>
<!-- SSHD_Logs&#45;&gt;Fail2ban -->
<g id="edge2" class="edge">
<title>SSHD_Logs&#45;&gt;Fail2ban</title>
<path fill="none" stroke="#ff00ff" d="M244.55,-198.76C231.76,-186.11 214.58,-169.13 200.62,-155.33"/>
<polygon fill="#ff00ff" stroke="#ff00ff" points="193.24,-148.04 203.52,-151.87 196.8,-151.56 200.35,-155.07 200.35,-155.07 200.35,-155.07 196.8,-151.56 197.19,-158.27 193.24,-148.04 193.24,-148.04"/>
<text text-anchor="middle" x="254.5" y="-169.8" font-family="Times,serif" font-size="14.00">Parses logs</text>
</g>
<!-- IP_Bans -->
<g id="node4" class="node">
<title>IP_Bans</title>
<path fill="#161b22" stroke="#00ff00" d="M264.5,-61C264.5,-61 87.5,-61 87.5,-61 81.5,-61 75.5,-55 75.5,-49 75.5,-49 75.5,-35 75.5,-35 75.5,-29 81.5,-23 87.5,-23 87.5,-23 264.5,-23 264.5,-23 270.5,-23 276.5,-29 276.5,-35 276.5,-35 276.5,-49 276.5,-49 276.5,-55 270.5,-61 264.5,-61"/>
<text text-anchor="middle" x="176" y="-45.8" font-family="Helvetica,sans-Serif" font-size="14.00" fill="#00f2ff">Uncomplicated Firewall (UFW)</text>
<text text-anchor="middle" x="176" y="-30.8" font-family="Helvetica,sans-Serif" font-size="14.00" fill="#00f2ff">(IP Quarantine Rule)</text>
</g>
<!-- Fail2ban&#45;&gt;IP_Bans -->
<g id="edge3" class="edge">
<title>Fail2ban&#45;&gt;IP_Bans</title>
<path fill="none" stroke="#ff00ff" d="M176,-111.6C176,-100.06 176,-84.65 176,-71.36"/>
<polygon fill="#ff00ff" stroke="#ff00ff" points="176,-61.27 180.5,-71.27 176,-66.27 176,-71.27 176,-71.27 176,-71.27 176,-66.27 171.5,-71.27 176,-61.27 176,-61.27"/>
<text text-anchor="middle" x="237" y="-82.8" font-family="Times,serif" font-size="14.00">Applies iptables block</text>
</g>
</g>
</svg>
