<?xml version="1.0" encoding="UTF-8" standalone="no"?>
<!DOCTYPE svg PUBLIC "-//W3C//DTD SVG 1.1//EN"
 "http://www.w3.org/Graphics/SVG/1.1/DTD/svg11.dtd">
<!-- Generated by graphviz version 2.43.0 (0)
 -->
<!-- Title: FutureAudit Pages: 1 -->
<svg width="373pt" height="477pt"
 viewBox="0.00 0.00 373.00 477.00" xmlns="http://www.w3.org/2000/svg" xmlns:xlink="http://www.w3.org/1999/xlink">
<g id="graph0" class="graph" transform="scale(1 1) rotate(0) translate(4 473)">
<title>FutureAudit</title>
<polygon fill="#0d1117" stroke="transparent" points="-4,4 -4,-473 369,-473 369,4 -4,4"/>
<text text-anchor="middle" x="182.5" y="-452.2" font-family="Helvetica,sans-Serif" font-size="16.00" fill="#00f2ff">A3.2: Automated Version Auditing &amp; Notifications</text>
<g id="clust1" class="cluster">
<title>cluster_audit_trigger</title>
<polygon fill="#0d1117" stroke="#ffff00" points="120.5,-284 120.5,-435 288.5,-435 288.5,-284 120.5,-284"/>
<text text-anchor="middle" x="204.5" y="-418.2" font-family="Helvetica,sans-Serif" font-size="16.00" fill="#ffff00">Scheduling</text>
</g>
<g id="clust2" class="cluster">
<title>cluster_audit_compares</title>
<polygon fill="#0d1117" stroke="#00ff00" points="44.5,-114 44.5,-265 344.5,-265 344.5,-114 44.5,-114"/>
<text text-anchor="middle" x="194.5" y="-248.2" font-family="Helvetica,sans-Serif" font-size="16.00" fill="#00ff00">Comparison Logic</text>
</g>
<g id="clust3" class="cluster">
<title>cluster_audit_actions</title>
<polygon fill="#0d1117" stroke="#ff00ff" points="20.5,-8 20.5,-86 306.5,-86 306.5,-8 20.5,-8"/>
<text text-anchor="middle" x="163.5" y="-69.2" font-family="Helvetica,sans-Serif" font-size="16.00" fill="#ff00ff">Notifications &amp; Actions</text>
</g>
<!-- Cron_Config -->
<g id="node1" class="node">
<title>Cron_Config</title>
<path fill="#161b22" stroke="#00f2ff" d="M265,-401C265,-401 144,-401 144,-401 138,-401 132,-395 132,-389 132,-389 132,-377 132,-377 132,-371 138,-365 144,-365 144,-365 265,-365 265,-365 271,-365 277,-371 277,-377 277,-377 277,-389 277,-389 277,-395 271,-401 265,-401"/>
<text text-anchor="middle" x="204.5" y="-386" font-family="Helvetica,sans-Serif" font-size="10.00" fill="#00f2ff">/etc/cron.daily/version&#45;auditor</text>
<text text-anchor="middle" x="204.5" y="-375" font-family="Helvetica,sans-Serif" font-size="10.00" fill="#00f2ff">(Runs script daily)</text>
</g>
<!-- Auditor_Script -->
<g id="node2" class="node">
<title>Auditor_Script</title>
<path fill="#161b22" stroke="#00f2ff" d="M268.5,-328C268.5,-328 140.5,-328 140.5,-328 134.5,-328 128.5,-322 128.5,-316 128.5,-316 128.5,-304 128.5,-304 128.5,-298 134.5,-292 140.5,-292 140.5,-292 268.5,-292 268.5,-292 274.5,-292 280.5,-298 280.5,-304 280.5,-304 280.5,-316 280.5,-316 280.5,-322 274.5,-328 268.5,-328"/>
<text text-anchor="middle" x="204.5" y="-313" font-family="Helvetica,sans-Serif" font-size="10.00" fill="#00f2ff">check_upstream_versions.sh</text>
<text text-anchor="middle" x="204.5" y="-302" font-family="Helvetica,sans-Serif" font-size="10.00" fill="#00f2ff">(Executes version comparison)</text>
</g>
<!-- Cron_Config&#45;&gt;Auditor_Script -->
<g id="edge1" class="edge">
<title>Cron_Config&#45;&gt;Auditor_Script</title>
<path fill="none" stroke="#ff00ff" d="M204.5,-364.81C204.5,-356.79 204.5,-347.05 204.5,-338.07"/>
<polygon fill="#ff00ff" stroke="#ff00ff" points="204.5,-328.03 209,-338.03 204.5,-333.03 204.5,-338.03 204.5,-338.03 204.5,-338.03 204.5,-333.03 200,-338.03 204.5,-328.03 204.5,-328.03"/>
</g>
<!-- Local_Binaries -->
<g id="node3" class="node">
<title>Local_Binaries</title>
<path fill="#161b22" stroke="#00f2ff" d="M174.5,-231C174.5,-231 64.5,-231 64.5,-231 58.5,-231 52.5,-225 52.5,-219 52.5,-219 52.5,-207 52.5,-207 52.5,-201 58.5,-195 64.5,-195 64.5,-195 174.5,-195 174.5,-195 180.5,-195 186.5,-201 186.5,-207 186.5,-207 186.5,-219 186.5,-219 186.5,-225 180.5,-231 174.5,-231"/>
<text text-anchor="middle" x="119.5" y="-216" font-family="Helvetica,sans-Serif" font-size="10.00" fill="#00f2ff">Reads Local Versions</text>
<text text-anchor="middle" x="119.5" y="-205" font-family="Helvetica,sans-Serif" font-size="10.00" fill="#00f2ff">(openssl, curl, sshd, nginx)</text>
</g>
<!-- Auditor_Script&#45;&gt;Local_Binaries -->
<g id="edge2" class="edge">
<title>Auditor_Script&#45;&gt;Local_Binaries</title>
<path fill="none" stroke="#ff00ff" d="M188.91,-291.58C175.73,-276.84 156.68,-255.56 141.88,-239.01"/>
<polygon fill="#ff00ff" stroke="#ff00ff" points="134.99,-231.31 145.01,-235.77 138.33,-235.04 141.66,-238.77 141.66,-238.77 141.66,-238.77 138.33,-235.04 138.31,-241.77 134.99,-231.31 134.99,-231.31"/>
</g>
<!-- GitHub_Releases -->
<g id="node4" class="node">
<title>GitHub_Releases</title>
<path fill="#161b22" stroke="#00f2ff" d="M324,-231C324,-231 217,-231 217,-231 211,-231 205,-225 205,-219 205,-219 205,-207 205,-207 205,-201 211,-195 217,-195 217,-195 324,-195 324,-195 330,-195 336,-201 336,-207 336,-207 336,-219 336,-219 336,-225 330,-231 324,-231"/>
<text text-anchor="middle" x="270.5" y="-216" font-family="Helvetica,sans-Serif" font-size="10.00" fill="#00f2ff">Fetch Upstream Releases</text>
<text text-anchor="middle" x="270.5" y="-205" font-family="Helvetica,sans-Serif" font-size="10.00" fill="#00f2ff">(GitHub API requests)</text>
</g>
<!-- Auditor_Script&#45;&gt;GitHub_Releases -->
<g id="edge3" class="edge">
<title>Auditor_Script&#45;&gt;GitHub_Releases</title>
<path fill="none" stroke="#ff00ff" d="M216.61,-291.58C226.65,-277.11 241.09,-256.33 252.5,-239.92"/>
<polygon fill="#ff00ff" stroke="#ff00ff" points="258.47,-231.31 256.46,-242.09 255.62,-235.42 252.77,-239.53 252.77,-239.53 252.77,-239.53 255.62,-235.42 249.07,-236.96 258.47,-231.31 258.47,-231.31"/>
</g>
<!-- Logic_Compare -->
<g id="node5" class="node">
<title>Logic_Compare</title>
<path fill="#161b22" stroke="#00f2ff" d="M181.6,-156.43C181.6,-156.43 68.84,-141.57 68.84,-141.57 62.89,-140.78 62.89,-139.22 68.84,-138.43 68.84,-138.43 181.6,-123.57 181.6,-123.57 187.55,-122.78 199.45,-122.78 205.4,-123.57 205.4,-123.57 318.16,-138.43 318.16,-138.43 324.11,-139.22 324.11,-140.78 318.16,-141.57 318.16,-141.57 205.4,-156.43 205.4,-156.43 199.45,-157.22 187.55,-157.22 181.6,-156.43"/>
<text text-anchor="middle" x="193.5" y="-137.5" font-family="Helvetica,sans-Serif" font-size="10.00" fill="#00f2ff">Local Version &lt; Remote Version?</text>
</g>
<!-- Local_Binaries&#45;&gt;Logic_Compare -->
<g id="edge4" class="edge">
<title>Local_Binaries&#45;&gt;Logic_Compare</title>
<path fill="none" stroke="#ff00ff" d="M137.41,-194.81C147.33,-185.3 159.76,-173.38 170.39,-163.17"/>
<polygon fill="#ff00ff" stroke="#ff00ff" points="177.76,-156.1 173.66,-166.27 174.15,-159.56 170.55,-163.02 170.55,-163.02 170.55,-163.02 174.15,-159.56 167.43,-159.78 177.76,-156.1 177.76,-156.1"/>
</g>
<!-- GitHub_Releases&#45;&gt;Logic_Compare -->
<g id="edge5" class="edge">
<title>GitHub_Releases&#45;&gt;Logic_Compare</title>
<path fill="none" stroke="#ff00ff" d="M251.86,-194.81C241.55,-185.3 228.61,-173.38 217.54,-163.17"/>
<polygon fill="#ff00ff" stroke="#ff00ff" points="209.88,-156.1 220.28,-159.57 213.55,-159.49 217.23,-162.88 217.23,-162.88 217.23,-162.88 213.55,-159.49 214.18,-166.19 209.88,-156.1 209.88,-156.1"/>
</g>
<!-- Syslog_Msg -->
<g id="node6" class="node">
<title>Syslog_Msg</title>
<path fill="#161b22" stroke="#00ff00" d="M136.5,-52C136.5,-52 40.5,-52 40.5,-52 34.5,-52 28.5,-46 28.5,-40 28.5,-40 28.5,-28 28.5,-28 28.5,-22 34.5,-16 40.5,-16 40.5,-16 136.5,-16 136.5,-16 142.5,-16 148.5,-22 148.5,-28 148.5,-28 148.5,-40 148.5,-40 148.5,-46 142.5,-52 136.5,-52"/>
<text text-anchor="middle" x="88.5" y="-31.5" font-family="Helvetica,sans-Serif" font-size="10.00" fill="#00f2ff">Log to Systemd Journal</text>
</g>
<!-- Logic_Compare&#45;&gt;Syslog_Msg -->
<g id="edge6" class="edge">
<title>Logic_Compare&#45;&gt;Syslog_Msg</title>
<path fill="none" stroke="#ff00ff" d="M168.22,-125.22C158.67,-119.37 148.05,-112.04 139.5,-104 125.97,-91.28 113.52,-74.58 104.31,-60.8"/>
<polygon fill="#ff00ff" stroke="#ff00ff" points="98.75,-52.23 107.97,-58.17 101.47,-56.42 104.19,-60.62 104.19,-60.62 104.19,-60.62 101.47,-56.42 100.42,-63.07 98.75,-52.23 98.75,-52.23"/>
<text text-anchor="middle" x="171" y="-96.8" font-family="Helvetica,sans-Serif" font-size="9.00">No (Up to date)</text>
</g>
<!-- Admin_Alert -->
<g id="node7" class="node">
<title>Admin_Alert</title>
<path fill="#161b22" stroke="#ff0000" d="M286.5,-52C286.5,-52 178.5,-52 178.5,-52 172.5,-52 166.5,-46 166.5,-40 166.5,-40 166.5,-28 166.5,-28 166.5,-22 172.5,-16 178.5,-16 178.5,-16 286.5,-16 286.5,-16 292.5,-16 298.5,-22 298.5,-28 298.5,-28 298.5,-40 298.5,-40 298.5,-46 292.5,-52 286.5,-52"/>
<text text-anchor="middle" x="232.5" y="-37" font-family="Helvetica,sans-Serif" font-size="10.00" fill="#00f2ff">Email/Slack Notification</text>
<text text-anchor="middle" x="232.5" y="-26" font-family="Helvetica,sans-Serif" font-size="10.00" fill="#00f2ff">(Triggers update workflow)</text>
</g>
<!-- Logic_Compare&#45;&gt;Admin_Alert -->
<g id="edge7" class="edge">
<title>Logic_Compare&#45;&gt;Admin_Alert</title>
<path fill="none" stroke="#ff00ff" d="M199.59,-122.75C205.72,-106.4 215.28,-80.92 222.52,-61.62"/>
<polygon fill="#ff00ff" stroke="#ff00ff" points="226.06,-52.17 226.76,-63.12 224.3,-56.86 222.55,-61.54 222.55,-61.54 222.55,-61.54 224.3,-56.86 218.34,-59.96 226.06,-52.17 226.06,-52.17"/>
<text text-anchor="middle" x="256" y="-96.8" font-family="Helvetica,sans-Serif" font-size="9.00">Yes (Update available)</text>
</g>
</g>
</svg>
