<?xml version="1.0" encoding="UTF-8" standalone="no"?>
<!DOCTYPE svg PUBLIC "-//W3C//DTD SVG 1.1//EN"
 "http://www.w3.org/Graphics/SVG/1.1/DTD/svg11.dtd">
<!-- Generated by graphviz version 2.43.0 (0)
 -->
<!-- Title: FutureLogs Pages: 1 -->
<svg width="525pt" height="413pt"
 viewBox="0.00 0.00 525.00 413.00" xmlns="http://www.w3.org/2000/svg" xmlns:xlink="http://www.w3.org/1999/xlink">
<g id="graph0" class="graph" transform="scale(1 1) rotate(0) translate(4 409)">
<title>FutureLogs</title>
<polygon fill="#0d1117" stroke="transparent" points="-4,4 -4,-409 521,-409 521,4 -4,4"/>
<text text-anchor="middle" x="258.5" y="-388.2" font-family="Helvetica,sans-Serif" font-size="16.00" fill="#00f2ff">A3.4: Unified Fail2ban Log Security Aggregation</text>
<g id="clust1" class="cluster">
<title>cluster_log_sources</title>
<polygon fill="#0d1117" stroke="#ffff00" points="8,-293 8,-371 438,-371 438,-293 8,-293"/>
<text text-anchor="middle" x="223" y="-354.2" font-family="Helvetica,sans-Serif" font-size="16.00" fill="#ffff00">Security Logs</text>
</g>
<g id="clust2" class="cluster">
<title>cluster_fail2ban_jails</title>
<polygon fill="#0d1117" stroke="#00ff00" points="165,-114 165,-274 395,-274 395,-114 165,-114"/>
<text text-anchor="middle" x="280" y="-257.2" font-family="Helvetica,sans-Serif" font-size="16.00" fill="#00ff00">Active Fail2ban Jails</text>
</g>
<g id="clust3" class="cluster">
<title>cluster_firewall</title>
<polygon fill="#0d1117" stroke="#ff00ff" points="302,-8 302,-86 456,-86 456,-8 302,-8"/>
<text text-anchor="middle" x="379" y="-69.2" font-family="Helvetica,sans-Serif" font-size="16.00" fill="#ff00ff">Firewall Actions</text>
</g>
<!-- Nginx_Error -->
<g id="node1" class="node">
<title>Nginx_Error</title>
<path fill="#161b22" stroke="#00f2ff" d="M123.5,-337C123.5,-337 28.5,-337 28.5,-337 22.5,-337 16.5,-331 16.5,-325 16.5,-325 16.5,-313 16.5,-313 16.5,-307 22.5,-301 28.5,-301 28.5,-301 123.5,-301 123.5,-301 129.5,-301 135.5,-307 135.5,-313 135.5,-313 135.5,-325 135.5,-325 135.5,-331 129.5,-337 123.5,-337"/>
<text text-anchor="middle" x="76" y="-322" font-family="Helvetica,sans-Serif" font-size="10.00" fill="#00f2ff">Nginx Error Log</text>
<text text-anchor="middle" x="76" y="-311" font-family="Helvetica,sans-Serif" font-size="10.00" fill="#00f2ff">(/var/log/nginx/error.log)</text>
</g>
<!-- Jail_Bot -->
<g id="node5" class="node">
<title>Jail_Bot</title>
<path fill="#161b22" stroke="#00f2ff" d="M253,-240C253,-240 185,-240 185,-240 179,-240 173,-234 173,-228 173,-228 173,-216 173,-216 173,-210 179,-204 185,-204 185,-204 253,-204 253,-204 259,-204 265,-210 265,-216 265,-216 265,-228 265,-228 265,-234 259,-240 253,-240"/>
<text text-anchor="middle" x="219" y="-225" font-family="Helvetica,sans-Serif" font-size="10.00" fill="#00f2ff">[nginx&#45;botsearch]</text>
<text text-anchor="middle" x="219" y="-214" font-family="Helvetica,sans-Serif" font-size="10.00" fill="#00f2ff">(Backend: auto)</text>
</g>
<!-- Nginx_Error&#45;&gt;Jail_Bot -->
<g id="edge1" class="edge">
<title>Nginx_Error&#45;&gt;Jail_Bot</title>
<path fill="none" stroke="#ff00ff" d="M101.9,-300.8C125.08,-285.39 159.24,-262.7 184.69,-245.79"/>
<polygon fill="#ff00ff" stroke="#ff00ff" points="193.3,-240.08 187.46,-249.36 189.13,-242.84 184.97,-245.61 184.97,-245.61 184.97,-245.61 189.13,-242.84 182.48,-241.86 193.3,-240.08 193.3,-240.08"/>
</g>
<!-- Nginx_Access -->
<g id="node2" class="node">
<title>Nginx_Access</title>
<path fill="#161b22" stroke="#00f2ff" d="M272.5,-337C272.5,-337 165.5,-337 165.5,-337 159.5,-337 153.5,-331 153.5,-325 153.5,-325 153.5,-313 153.5,-313 153.5,-307 159.5,-301 165.5,-301 165.5,-301 272.5,-301 272.5,-301 278.5,-301 284.5,-307 284.5,-313 284.5,-313 284.5,-325 284.5,-325 284.5,-331 278.5,-337 272.5,-337"/>
<text text-anchor="middle" x="219" y="-322" font-family="Helvetica,sans-Serif" font-size="10.00" fill="#00f2ff">Nginx Access Log</text>
<text text-anchor="middle" x="219" y="-311" font-family="Helvetica,sans-Serif" font-size="10.00" fill="#00f2ff">(/var/log/nginx/access.log)</text>
</g>
<!-- Nginx_Access&#45;&gt;Jail_Bot -->
<g id="edge2" class="edge">
<title>Nginx_Access&#45;&gt;Jail_Bot</title>
<path fill="none" stroke="#ff00ff" d="M219,-300.58C219,-286.65 219,-266.86 219,-250.76"/>
<polygon fill="#ff00ff" stroke="#ff00ff" points="219,-240.31 223.5,-250.31 219,-245.31 219,-250.31 219,-250.31 219,-250.31 219,-245.31 214.5,-250.31 219,-240.31 219,-240.31"/>
</g>
<!-- SSH_Journal -->
<g id="node3" class="node">
<title>SSH_Journal</title>
<path fill="#161b22" stroke="#00f2ff" d="M417.5,-337C417.5,-337 314.5,-337 314.5,-337 308.5,-337 302.5,-331 302.5,-325 302.5,-325 302.5,-313 302.5,-313 302.5,-307 308.5,-301 314.5,-301 314.5,-301 417.5,-301 417.5,-301 423.5,-301 429.5,-307 429.5,-313 429.5,-313 429.5,-325 429.5,-325 429.5,-331 423.5,-337 417.5,-337"/>
<text text-anchor="middle" x="366" y="-322" font-family="Helvetica,sans-Serif" font-size="10.00" fill="#00f2ff">SSHD SSH Connections</text>
<text text-anchor="middle" x="366" y="-311" font-family="Helvetica,sans-Serif" font-size="10.00" fill="#00f2ff">(Systemd Journal)</text>
</g>
<!-- Jail_Sshd -->
<g id="node4" class="node">
<title>Jail_Sshd</title>
<path fill="#161b22" stroke="#00f2ff" d="M375,-240C375,-240 295,-240 295,-240 289,-240 283,-234 283,-228 283,-228 283,-216 283,-216 283,-210 289,-204 295,-204 295,-204 375,-204 375,-204 381,-204 387,-210 387,-216 387,-216 387,-228 387,-228 387,-234 381,-240 375,-240"/>
<text text-anchor="middle" x="335" y="-225" font-family="Helvetica,sans-Serif" font-size="10.00" fill="#00f2ff">[sshd]</text>
<text text-anchor="middle" x="335" y="-214" font-family="Helvetica,sans-Serif" font-size="10.00" fill="#00f2ff">(Backend: systemd)</text>
</g>
<!-- SSH_Journal&#45;&gt;Jail_Sshd -->
<g id="edge3" class="edge">
<title>SSH_Journal&#45;&gt;Jail_Sshd</title>
<path fill="none" stroke="#ff00ff" d="M360.31,-300.58C355.68,-286.38 349.06,-266.1 343.76,-249.83"/>
<polygon fill="#ff00ff" stroke="#ff00ff" points="340.65,-240.31 348.03,-248.42 342.2,-245.07 343.75,-249.82 343.75,-249.82 343.75,-249.82 342.2,-245.07 339.47,-251.22 340.65,-240.31 340.65,-240.31"/>
</g>
<!-- Jail_Recidive -->
<g id="node6" class="node">
<title>Jail_Recidive</title>
<path fill="#161b22" stroke="#ff0055" d="M312.5,-158C312.5,-158 223.5,-158 223.5,-158 217.5,-158 211.5,-152 211.5,-146 211.5,-146 211.5,-134 211.5,-134 211.5,-128 217.5,-122 223.5,-122 223.5,-122 312.5,-122 312.5,-122 318.5,-122 324.5,-128 324.5,-134 324.5,-134 324.5,-146 324.5,-146 324.5,-152 318.5,-158 312.5,-158"/>
<text text-anchor="middle" x="268" y="-143" font-family="Helvetica,sans-Serif" font-size="10.00" fill="#00f2ff">[recidive]</text>
<text text-anchor="middle" x="268" y="-132" font-family="Helvetica,sans-Serif" font-size="10.00" fill="#00f2ff">(Monitors fail2ban.log)</text>
</g>
<!-- Jail_Sshd&#45;&gt;Jail_Recidive -->
<g id="edge5" class="edge">
<title>Jail_Sshd&#45;&gt;Jail_Recidive</title>
<path fill="none" stroke="#ff00ff" d="M320.46,-203.64C311.18,-192.56 299,-178.02 288.72,-165.74"/>
<polygon fill="#ff00ff" stroke="#ff00ff" points="282.28,-158.05 292.15,-162.83 285.49,-161.88 288.7,-165.72 288.7,-165.72 288.7,-165.72 285.49,-161.88 285.25,-168.61 282.28,-158.05 282.28,-158.05"/>
<text text-anchor="middle" x="339" y="-178.8" font-family="Helvetica,sans-Serif" font-size="9.00">Logs ban events</text>
</g>
<!-- UFW_Rule -->
<g id="node7" class="node">
<title>UFW_Rule</title>
<path fill="#161b22" stroke="#00ff00" d="M435.5,-52C435.5,-52 322.5,-52 322.5,-52 316.5,-52 310.5,-46 310.5,-40 310.5,-40 310.5,-28 310.5,-28 310.5,-22 316.5,-16 322.5,-16 322.5,-16 435.5,-16 435.5,-16 441.5,-16 447.5,-22 447.5,-28 447.5,-28 447.5,-40 447.5,-40 447.5,-46 441.5,-52 435.5,-52"/>
<text text-anchor="middle" x="379" y="-37" font-family="Helvetica,sans-Serif" font-size="10.00" fill="#00f2ff">UFW/iptables Rules</text>
<text text-anchor="middle" x="379" y="-26" font-family="Helvetica,sans-Serif" font-size="10.00" fill="#00f2ff">(Quarantines malicious IPs)</text>
</g>
<!-- Jail_Sshd&#45;&gt;UFW_Rule -->
<g id="edge7" class="edge">
<title>Jail_Sshd&#45;&gt;UFW_Rule</title>
<path fill="none" stroke="#ff00ff" d="M387.13,-205.13C409.71,-195.37 433.94,-180.34 447,-158 466.84,-124.07 434.79,-84.13 408.29,-59.19"/>
<polygon fill="#ff00ff" stroke="#ff00ff" points="400.66,-52.26 411.09,-55.65 404.36,-55.62 408.06,-58.98 408.06,-58.98 408.06,-58.98 404.36,-55.62 405.04,-62.31 400.66,-52.26 400.66,-52.26"/>
<text text-anchor="middle" x="485" y="-137.8" font-family="Helvetica,sans-Serif" font-size="9.00">Permanent ban</text>
</g>
<!-- Jail_Bot&#45;&gt;Jail_Recidive -->
<g id="edge4" class="edge">
<title>Jail_Bot&#45;&gt;Jail_Recidive</title>
<path fill="none" stroke="#ff00ff" d="M207.93,-203.96C203.72,-195.19 201,-184.57 206,-176 208.52,-171.69 211.78,-167.87 215.5,-164.49"/>
<polygon fill="#ff00ff" stroke="#ff00ff" points="223.66,-158.16 218.51,-167.84 219.71,-161.22 215.75,-164.29 215.75,-164.29 215.75,-164.29 219.71,-161.22 213,-160.73 223.66,-158.16 223.66,-158.16"/>
<text text-anchor="middle" x="240" y="-178.8" font-family="Helvetica,sans-Serif" font-size="9.00">Logs ban events</text>
</g>
<!-- Jail_Bot&#45;&gt;UFW_Rule -->
<g id="edge6" class="edge">
<title>Jail_Bot&#45;&gt;UFW_Rule</title>
<path fill="none" stroke="#ff00ff" d="M265.11,-206.36C268.11,-205.53 271.09,-204.73 274,-204 313.97,-193.9 337.38,-216.61 365,-186 373.09,-177.03 376.78,-103.26 378.22,-62.25"/>
<polygon fill="#ff00ff" stroke="#ff00ff" points="378.55,-52.11 382.72,-62.25 378.39,-57.11 378.22,-62.11 378.22,-62.11 378.22,-62.11 378.39,-57.11 373.72,-61.96 378.55,-52.11 378.55,-52.11"/>
<text text-anchor="middle" x="407" y="-137.8" font-family="Helvetica,sans-Serif" font-size="9.00">Daily ban (24h)</text>
</g>
<!-- Jail_Recidive&#45;&gt;UFW_Rule -->
<g id="edge8" class="edge">
<title>Jail_Recidive&#45;&gt;UFW_Rule</title>
<path fill="none" stroke="#ff00ff" d="M264.44,-121.6C263.55,-112.73 264.01,-102.13 269,-94 279.04,-77.64 295.31,-65.53 312.28,-56.7"/>
<polygon fill="#ff00ff" stroke="#ff00ff" points="321.76,-52.12 314.71,-60.53 317.25,-54.3 312.75,-56.47 312.75,-56.47 312.75,-56.47 317.25,-54.3 310.79,-52.42 321.76,-52.12 321.76,-52.12"/>
<text text-anchor="middle" x="317" y="-96.8" font-family="Helvetica,sans-Serif" font-size="9.00">Escalates ban (1 week)</text>
</g>
</g>
</svg>
