<?xml version="1.0" encoding="UTF-8" standalone="no"?>
<!DOCTYPE svg PUBLIC "-//W3C//DTD SVG 1.1//EN"
 "http://www.w3.org/Graphics/SVG/1.1/DTD/svg11.dtd">
<!-- Generated by graphviz version 2.43.0 (0)
 -->
<!-- Title: FuturePython Pages: 1 -->
<svg width="357pt" height="215pt"
 viewBox="0.00 0.00 356.78 215.00" xmlns="http://www.w3.org/2000/svg" xmlns:xlink="http://www.w3.org/1999/xlink">
<g id="graph0" class="graph" transform="scale(1 1) rotate(0) translate(4 211)">
<title>FuturePython</title>
<polygon fill="#0d1117" stroke="transparent" points="-4,4 -4,-211 352.78,-211 352.78,4 -4,4"/>
<text text-anchor="middle" x="174.39" y="-7.8" font-family="Helvetica,sans-Serif" font-size="14.00" fill="#00f2ff">A3.3: Python SSL Integration</text>
<!-- Python_Build -->
<g id="node1" class="node">
<title>Python_Build</title>
<path fill="#161b22" stroke="#00f2ff" d="M236.89,-207C236.89,-207 111.89,-207 111.89,-207 105.89,-207 99.89,-201 99.89,-195 99.89,-195 99.89,-181 99.89,-181 99.89,-175 105.89,-169 111.89,-169 111.89,-169 236.89,-169 236.89,-169 242.89,-169 248.89,-175 248.89,-181 248.89,-181 248.89,-195 248.89,-195 248.89,-201 242.89,-207 236.89,-207"/>
<text text-anchor="middle" x="174.39" y="-191.8" font-family="Helvetica,sans-Serif" font-size="14.00" fill="#00f2ff">Python Source Build</text>
<text text-anchor="middle" x="174.39" y="-176.8" font-family="Helvetica,sans-Serif" font-size="14.00" fill="#00f2ff">(pyenv / custom build)</text>
</g>
<!-- SSL_Dir -->
<g id="node2" class="node">
<title>SSL_Dir</title>
<path fill="#161b22" stroke="#ffff00" d="M336.66,-133C336.66,-133 83.43,-133 83.43,-133 77.43,-133 66.07,-130.3 60.72,-127.59 60.72,-127.59 10.82,-102.41 10.82,-102.41 5.47,-99.7 6.11,-97 12.11,-97 12.11,-97 265.35,-97 265.35,-97 271.35,-97 282.7,-99.7 288.06,-102.41 288.06,-102.41 337.95,-127.59 337.95,-127.59 343.31,-130.3 342.66,-133 336.66,-133"/>
<text text-anchor="middle" x="174.39" y="-111.3" font-family="Helvetica,sans-Serif" font-size="14.00" fill="#00f2ff">&#45;&#45;with&#45;openssl=/usr/local/ssl</text>
</g>
<!-- Python_Build&#45;&gt;SSL_Dir -->
<g id="edge1" class="edge">
<title>Python_Build&#45;&gt;SSL_Dir</title>
<path fill="none" stroke="#ff00ff" d="M174.39,-168.72C174.39,-160.97 174.39,-151.79 174.39,-143.27"/>
<polygon fill="#ff00ff" stroke="#ff00ff" points="174.39,-133 178.89,-143 174.39,-138 174.39,-143 174.39,-143 174.39,-143 174.39,-138 169.89,-143 174.39,-133 174.39,-133"/>
</g>
<!-- SSL_Module -->
<g id="node3" class="node">
<title>SSL_Module</title>
<path fill="#161b22" stroke="#00ff00" d="M241.89,-61C241.89,-61 106.89,-61 106.89,-61 100.89,-61 94.89,-55 94.89,-49 94.89,-49 94.89,-35 94.89,-35 94.89,-29 100.89,-23 106.89,-23 106.89,-23 241.89,-23 241.89,-23 247.89,-23 253.89,-29 253.89,-35 253.89,-35 253.89,-49 253.89,-49 253.89,-55 247.89,-61 241.89,-61"/>
<text text-anchor="middle" x="174.39" y="-45.8" font-family="Helvetica,sans-Serif" font-size="14.00" fill="#00f2ff">import ssl</text>
<text text-anchor="middle" x="174.39" y="-30.8" font-family="Helvetica,sans-Serif" font-size="14.00" fill="#00f2ff">(Loads OpenSSL 3.5.6)</text>
</g>
<!-- SSL_Dir&#45;&gt;SSL_Module -->
<g id="edge2" class="edge">
<title>SSL_Dir&#45;&gt;SSL_Module</title>
<path fill="none" stroke="#ff00ff" d="M174.39,-96.81C174.39,-89.11 174.39,-79.82 174.39,-71.15"/>
<polygon fill="#ff00ff" stroke="#ff00ff" points="174.39,-61.02 178.89,-71.02 174.39,-66.02 174.39,-71.02 174.39,-71.02 174.39,-71.02 174.39,-66.02 169.89,-71.02 174.39,-61.02 174.39,-61.02"/>
</g>
</g>
</svg>
