<?xml version="1.0" encoding="UTF-8" standalone="no"?>
<!DOCTYPE svg PUBLIC "-//W3C//DTD SVG 1.1//EN"
 "http://www.w3.org/Graphics/SVG/1.1/DTD/svg11.dtd">
<!-- Generated by graphviz version 2.43.0 (0)
 -->
<!-- Title: FutureStatic Pages: 1 -->
<svg width="298pt" height="327pt"
 viewBox="0.00 0.00 298.29 327.00" xmlns="http://www.w3.org/2000/svg" xmlns:xlink="http://www.w3.org/1999/xlink">
<g id="graph0" class="graph" transform="scale(1 1) rotate(0) translate(4 323)">
<title>FutureStatic</title>
<polygon fill="#0d1117" stroke="transparent" points="-4,4 -4,-323 294.29,-323 294.29,4 -4,4"/>
<text text-anchor="middle" x="145.15" y="-7.8" font-family="Helvetica,sans-Serif" font-size="14.00" fill="#00f2ff">A3.5: Static Compilation Pipeline</text>
<!-- Build_Harness -->
<g id="node1" class="node">
<title>Build_Harness</title>
<path fill="#161b22" stroke="#00f2ff" d="M200.15,-319C200.15,-319 90.15,-319 90.15,-319 84.15,-319 78.15,-313 78.15,-307 78.15,-307 78.15,-295 78.15,-295 78.15,-289 84.15,-283 90.15,-283 90.15,-283 200.15,-283 200.15,-283 206.15,-283 212.15,-289 212.15,-295 212.15,-295 212.15,-307 212.15,-307 212.15,-313 206.15,-319 200.15,-319"/>
<text text-anchor="middle" x="145.15" y="-297.3" font-family="Helvetica,sans-Serif" font-size="14.00" fill="#00f2ff">Compilation Engine</text>
</g>
<!-- Static_Link -->
<g id="node2" class="node">
<title>Static_Link</title>
<path fill="#161b22" stroke="#00f2ff" d="M278.44,-247C278.44,-247 71.31,-247 71.31,-247 65.31,-247 55.61,-242.27 51.92,-237.55 51.92,-237.55 7.25,-180.45 7.25,-180.45 3.55,-175.73 5.85,-171 11.85,-171 11.85,-171 218.98,-171 218.98,-171 224.98,-171 234.68,-175.73 238.37,-180.45 238.37,-180.45 283.04,-237.55 283.04,-237.55 286.74,-242.27 284.44,-247 278.44,-247"/>
<text text-anchor="middle" x="145.15" y="-212.8" font-family="Helvetica,sans-Serif" font-size="14.00" fill="#00f2ff">Static Linking Flags</text>
<text text-anchor="middle" x="145.15" y="-197.8" font-family="Helvetica,sans-Serif" font-size="14.00" fill="#00f2ff">(&#45;static &#45;static&#45;libgcc)</text>
</g>
<!-- Build_Harness&#45;&gt;Static_Link -->
<g id="edge1" class="edge">
<title>Build_Harness&#45;&gt;Static_Link</title>
<path fill="none" stroke="#ff00ff" d="M145.15,-282.65C145.15,-275.3 145.15,-266.34 145.15,-257.27"/>
<polygon fill="#ff00ff" stroke="#ff00ff" points="145.15,-247.04 149.65,-257.04 145.15,-252.04 145.15,-257.04 145.15,-257.04 145.15,-257.04 145.15,-252.04 140.65,-257.04 145.15,-247.04 145.15,-247.04"/>
</g>
<!-- Static_Binary -->
<g id="node3" class="node">
<title>Static_Binary</title>
<path fill="#161b22" stroke="#00ff00" d="M231.15,-135C231.15,-135 59.15,-135 59.15,-135 53.15,-135 47.15,-129 47.15,-123 47.15,-123 47.15,-109 47.15,-109 47.15,-103 53.15,-97 59.15,-97 59.15,-97 231.15,-97 231.15,-97 237.15,-97 243.15,-103 243.15,-109 243.15,-109 243.15,-123 243.15,-123 243.15,-129 237.15,-135 231.15,-135"/>
<text text-anchor="middle" x="145.15" y="-119.8" font-family="Helvetica,sans-Serif" font-size="14.00" fill="#00f2ff">Self&#45;Contained Binaries</text>
<text text-anchor="middle" x="145.15" y="-104.8" font-family="Helvetica,sans-Serif" font-size="14.00" fill="#00f2ff">(Zero dynamic dependencies)</text>
</g>
<!-- Static_Link&#45;&gt;Static_Binary -->
<g id="edge2" class="edge">
<title>Static_Link&#45;&gt;Static_Binary</title>
<path fill="none" stroke="#ff00ff" d="M145.15,-170.99C145.15,-162.36 145.15,-153.32 145.15,-145.15"/>
<polygon fill="#ff00ff" stroke="#ff00ff" points="145.15,-135.03 149.65,-145.03 145.15,-140.03 145.15,-145.03 145.15,-145.03 145.15,-145.03 145.15,-140.03 140.65,-145.03 145.15,-135.03 145.15,-135.03"/>
</g>
<!-- Docker -->
<g id="node4" class="node">
<title>Docker</title>
<path fill="#161b22" stroke="#ffff00" d="M232.65,-61C232.65,-61 57.65,-61 57.65,-61 51.65,-61 45.65,-55 45.65,-49 45.65,-49 45.65,-35 45.65,-35 45.65,-29 51.65,-23 57.65,-23 57.65,-23 232.65,-23 232.65,-23 238.65,-23 244.65,-29 244.65,-35 244.65,-35 244.65,-49 244.65,-49 244.65,-55 238.65,-61 232.65,-61"/>
<text text-anchor="middle" x="145.15" y="-45.8" font-family="Helvetica,sans-Serif" font-size="14.00" fill="#00f2ff">Distroless/Scratch Containers</text>
<text text-anchor="middle" x="145.15" y="-30.8" font-family="Helvetica,sans-Serif" font-size="14.00" fill="#00f2ff">(Minimizes OS attack surface)</text>
</g>
<!-- Static_Binary&#45;&gt;Docker -->
<g id="edge3" class="edge">
<title>Static_Binary&#45;&gt;Docker</title>
<path fill="none" stroke="#ff00ff" d="M145.15,-96.83C145.15,-89.13 145.15,-79.97 145.15,-71.42"/>
<polygon fill="#ff00ff" stroke="#ff00ff" points="145.15,-61.41 149.65,-71.41 145.15,-66.41 145.15,-71.41 145.15,-71.41 145.15,-71.41 145.15,-66.41 140.65,-71.41 145.15,-61.41 145.15,-61.41"/>
</g>
</g>
</svg>
