<?xml version="1.0" encoding="UTF-8" standalone="no"?>
<!DOCTYPE svg PUBLIC "-//W3C//DTD SVG 1.1//EN"
 "http://www.w3.org/Graphics/SVG/1.1/DTD/svg11.dtd">
<!-- Generated by graphviz version 2.43.0 (0)
 -->
<!-- Title: FutureQUIC Pages: 1 -->
<svg width="340pt" height="229pt"
 viewBox="0.00 0.00 339.50 229.00" xmlns="http://www.w3.org/2000/svg" xmlns:xlink="http://www.w3.org/1999/xlink">
<g id="graph0" class="graph" transform="scale(1 1) rotate(0) translate(4 225)">
<title>FutureQUIC</title>
<polygon fill="#0d1117" stroke="transparent" points="-4,4 -4,-225 335.5,-225 335.5,4 -4,4"/>
<text text-anchor="middle" x="165.75" y="-7.8" font-family="Helvetica,sans-Serif" font-size="14.00" fill="#00f2ff">A3.1: Future QUIC and HTTP/3 Pipeline</text>
<!-- HTTP3_Standard -->
<g id="node1" class="node">
<title>HTTP3_Standard</title>
<path fill="#161b22" stroke="#00f2ff" d="M236,-221C236,-221 106,-221 106,-221 100,-221 94,-215 94,-209 94,-209 94,-197 94,-197 94,-191 100,-185 106,-185 106,-185 236,-185 236,-185 242,-185 248,-191 248,-197 248,-197 248,-209 248,-209 248,-215 242,-221 236,-221"/>
<text text-anchor="middle" x="171" y="-199.3" font-family="Helvetica,sans-Serif" font-size="14.00" fill="#00f2ff">HTTP/3 Protocol Stack</text>
</g>
<!-- Nginx_130 -->
<g id="node2" class="node">
<title>Nginx_130</title>
<path fill="#161b22" stroke="#00f2ff" d="M221.5,-148C221.5,-148 120.5,-148 120.5,-148 114.5,-148 108.5,-142 108.5,-136 108.5,-136 108.5,-124 108.5,-124 108.5,-118 114.5,-112 120.5,-112 120.5,-112 221.5,-112 221.5,-112 227.5,-112 233.5,-118 233.5,-124 233.5,-124 233.5,-136 233.5,-136 233.5,-142 227.5,-148 221.5,-148"/>
<text text-anchor="middle" x="171" y="-126.3" font-family="Helvetica,sans-Serif" font-size="14.00" fill="#00f2ff">Nginx 1.30.x Build</text>
</g>
<!-- HTTP3_Standard&#45;&gt;Nginx_130 -->
<g id="edge1" class="edge">
<title>HTTP3_Standard&#45;&gt;Nginx_130</title>
<path fill="none" stroke="#ff00ff" d="M171,-184.81C171,-176.79 171,-167.05 171,-158.07"/>
<polygon fill="#ff00ff" stroke="#ff00ff" points="171,-148.03 175.5,-158.03 171,-153.03 171,-158.03 171,-158.03 171,-158.03 171,-153.03 166.5,-158.03 171,-148.03 171,-148.03"/>
</g>
<!-- Quiche -->
<g id="node3" class="node">
<title>Quiche</title>
<path fill="#161b22" stroke="#ffff00" d="M156,-61C156,-61 12,-61 12,-61 6,-61 0,-55 0,-49 0,-49 0,-35 0,-35 0,-29 6,-23 12,-23 12,-23 156,-23 156,-23 162,-23 168,-29 168,-35 168,-35 168,-49 168,-49 168,-55 162,-61 156,-61"/>
<text text-anchor="middle" x="84" y="-45.8" font-family="Helvetica,sans-Serif" font-size="14.00" fill="#00f2ff">quiche / nghttp3</text>
<text text-anchor="middle" x="84" y="-30.8" font-family="Helvetica,sans-Serif" font-size="14.00" fill="#00f2ff">(QUIC transport libraries)</text>
</g>
<!-- Nginx_130&#45;&gt;Quiche -->
<g id="edge2" class="edge">
<title>Nginx_130&#45;&gt;Quiche</title>
<path fill="none" stroke="#ff00ff" d="M138,-111.93C129.92,-106.83 121.69,-100.77 115,-94 108.23,-87.14 102.29,-78.54 97.46,-70.36"/>
<polygon fill="#ff00ff" stroke="#ff00ff" points="92.51,-61.42 101.29,-67.99 94.93,-65.8 97.36,-70.17 97.36,-70.17 97.36,-70.17 94.93,-65.8 93.42,-72.35 92.51,-61.42 92.51,-61.42"/>
<text text-anchor="middle" x="176" y="-82.8" font-family="Times,serif" font-size="14.00">Inject dynamic library</text>
</g>
<!-- Secure_SSL -->
<g id="node4" class="node">
<title>Secure_SSL</title>
<path fill="#161b22" stroke="#00ff00" d="M319.5,-61C319.5,-61 198.5,-61 198.5,-61 192.5,-61 186.5,-55 186.5,-49 186.5,-49 186.5,-35 186.5,-35 186.5,-29 192.5,-23 198.5,-23 198.5,-23 319.5,-23 319.5,-23 325.5,-23 331.5,-29 331.5,-35 331.5,-35 331.5,-49 331.5,-49 331.5,-55 325.5,-61 319.5,-61"/>
<text text-anchor="middle" x="259" y="-45.8" font-family="Helvetica,sans-Serif" font-size="14.00" fill="#00f2ff">OpenSSL 3.5.x LTS</text>
<text text-anchor="middle" x="259" y="-30.8" font-family="Helvetica,sans-Serif" font-size="14.00" fill="#00f2ff">(TLS 1.3 Handshake)</text>
</g>
<!-- Nginx_130&#45;&gt;Secure_SSL -->
<g id="edge3" class="edge">
<title>Nginx_130&#45;&gt;Secure_SSL</title>
<path fill="none" stroke="#ff00ff" d="M213.43,-111.97C222.01,-107.11 230.4,-101.15 237,-94 243.04,-87.45 247.59,-78.98 250.93,-70.84"/>
<polygon fill="#ff00ff" stroke="#ff00ff" points="254.44,-61.21 255.25,-72.14 252.73,-65.91 251.02,-70.6 251.02,-70.6 251.02,-70.6 252.73,-65.91 246.79,-69.07 254.44,-61.21 254.44,-61.21"/>
<text text-anchor="middle" x="288" y="-82.8" font-family="Times,serif" font-size="14.00">ALPN Support</text>
</g>
</g>
</svg>
