<?xml version="1.0" encoding="UTF-8" standalone="no"?>
<!DOCTYPE svg PUBLIC "-//W3C//DTD SVG 1.1//EN"
 "http://www.w3.org/Graphics/SVG/1.1/DTD/svg11.dtd">
<!-- Generated by graphviz version 2.43.0 (0)
 -->
<!-- Title: FuturePython Pages: 1 -->
<svg width="687pt" height="404pt"
 viewBox="0.00 0.00 687.00 404.00" xmlns="http://www.w3.org/2000/svg" xmlns:xlink="http://www.w3.org/1999/xlink">
<g id="graph0" class="graph" transform="scale(1 1) rotate(0) translate(4 400)">
<title>FuturePython</title>
<polygon fill="#0d1117" stroke="transparent" points="-4,4 -4,-400 683,-400 683,4 -4,4"/>
<text text-anchor="middle" x="339.5" y="-379.2" font-family="Helvetica,sans-Serif" font-size="16.00" fill="#00f2ff">A3.3: Python SSL Dynamic Linking Pipeline</text>
<g id="clust1" class="cluster">
<title>cluster_python_env</title>
<polygon fill="#0d1117" stroke="#ffff00" points="10,-260 10,-362 671,-362 671,-260 10,-260"/>
<text text-anchor="middle" x="340.5" y="-345.2" font-family="Helvetica,sans-Serif" font-size="16.00" fill="#ffff00">Python Runtime Linkage Options</text>
</g>
<g id="clust2" class="cluster">
<title>cluster_python_verification</title>
<polygon fill="#0d1117" stroke="#00ff00" points="8,-8 8,-241 264,-241 264,-8 8,-8"/>
<text text-anchor="middle" x="136" y="-224.2" font-family="Helvetica,sans-Serif" font-size="16.00" fill="#00ff00">Python Script Verification</text>
</g>
<!-- Option_Env -->
<g id="node1" class="node">
<title>Option_Env</title>
<path fill="#161b22" stroke="#00f2ff" d="M236.5,-316C236.5,-316 29.5,-316 29.5,-316 23.5,-316 17.5,-310 17.5,-304 17.5,-304 17.5,-292 17.5,-292 17.5,-286 23.5,-280 29.5,-280 29.5,-280 236.5,-280 236.5,-280 242.5,-280 248.5,-286 248.5,-292 248.5,-292 248.5,-304 248.5,-304 248.5,-310 242.5,-316 236.5,-316"/>
<text text-anchor="middle" x="133" y="-301" font-family="Helvetica,sans-Serif" font-size="10.00" fill="#00f2ff">LD_LIBRARY_PATH=/usr/local/ssl/lib64 python3</text>
<text text-anchor="middle" x="133" y="-290" font-family="Helvetica,sans-Serif" font-size="10.00" fill="#00f2ff">(Option A: Dynamic injection at runtime)</text>
</g>
<!-- Python_Script -->
<g id="node3" class="node">
<title>Python_Script</title>
<path fill="#161b22" stroke="#00f2ff" d="M201.5,-207C201.5,-207 70.5,-207 70.5,-207 64.5,-207 58.5,-201 58.5,-195 58.5,-195 58.5,-183 58.5,-183 58.5,-177 64.5,-171 70.5,-171 70.5,-171 201.5,-171 201.5,-171 207.5,-171 213.5,-177 213.5,-183 213.5,-183 213.5,-195 213.5,-195 213.5,-201 207.5,-207 201.5,-207"/>
<text text-anchor="middle" x="136" y="-192" font-family="Helvetica,sans-Serif" font-size="10.00" fill="#00f2ff">import ssl</text>
<text text-anchor="middle" x="136" y="-181" font-family="Helvetica,sans-Serif" font-size="10.00" fill="#00f2ff">print(ssl.OPENSSL_VERSION)</text>
</g>
<!-- Option_Env&#45;&gt;Python_Script -->
<g id="edge3" class="edge">
<title>Option_Env&#45;&gt;Python_Script</title>
<path fill="none" stroke="#ff00ff" d="M133.48,-279.81C133.95,-262.96 134.68,-237.02 135.23,-217.34"/>
<polygon fill="#ff00ff" stroke="#ff00ff" points="135.52,-207.15 139.74,-217.27 135.38,-212.15 135.24,-217.14 135.24,-217.14 135.24,-217.14 135.38,-212.15 130.74,-217.02 135.52,-207.15 135.52,-207.15"/>
</g>
<!-- Option_Build -->
<g id="node2" class="node">
<title>Option_Build</title>
<path fill="#161b22" stroke="#00f2ff" d="M651.04,-328C651.04,-328 360,-328 360,-328 354,-328 343.18,-324.43 338.36,-320.86 338.36,-320.86 276.6,-275.14 276.6,-275.14 271.78,-271.57 272.96,-268 278.96,-268 278.96,-268 570,-268 570,-268 576,-268 586.82,-271.57 591.64,-275.14 591.64,-275.14 653.4,-320.86 653.4,-320.86 658.22,-324.43 657.04,-328 651.04,-328"/>
<text text-anchor="middle" x="465" y="-301" font-family="Helvetica,sans-Serif" font-size="10.00" fill="#00f2ff">Compiling Custom Python from Source</text>
<text text-anchor="middle" x="465" y="-290" font-family="Helvetica,sans-Serif" font-size="10.00" fill="#00f2ff">(Option B: Linkage with OpenSSL 3.5.6)</text>
</g>
<!-- Option_Build&#45;&gt;Python_Script -->
<g id="edge4" class="edge">
<title>Option_Build&#45;&gt;Python_Script</title>
<path fill="none" stroke="#ff00ff" d="M375.53,-267.9C319.34,-249.63 248.28,-226.52 198.2,-210.23"/>
<polygon fill="#ff00ff" stroke="#ff00ff" points="188.48,-207.07 199.38,-205.88 193.23,-208.61 197.99,-210.16 197.99,-210.16 197.99,-210.16 193.23,-208.61 196.59,-214.44 188.48,-207.07 188.48,-207.07"/>
</g>
<!-- Output_Check -->
<g id="node4" class="node">
<title>Output_Check</title>
<path fill="#161b22" stroke="#00f2ff" d="M124.13,-132.22C124.13,-132.22 28.11,-117.78 28.11,-117.78 22.17,-116.89 22.17,-115.11 28.11,-114.22 28.11,-114.22 124.13,-99.78 124.13,-99.78 130.07,-98.89 141.93,-98.89 147.87,-99.78 147.87,-99.78 243.89,-114.22 243.89,-114.22 249.83,-115.11 249.83,-116.89 243.89,-117.78 243.89,-117.78 147.87,-132.22 147.87,-132.22 141.93,-133.11 130.07,-133.11 124.13,-132.22"/>
<text text-anchor="middle" x="136" y="-113.5" font-family="Helvetica,sans-Serif" font-size="10.00" fill="#00f2ff">Assert output contains &#39;3.5.6&#39;</text>
</g>
<!-- Python_Script&#45;&gt;Output_Check -->
<g id="edge1" class="edge">
<title>Python_Script&#45;&gt;Output_Check</title>
<path fill="none" stroke="#ff00ff" d="M136,-170.81C136,-162.79 136,-153.05 136,-144.07"/>
<polygon fill="#ff00ff" stroke="#ff00ff" points="136,-134.03 140.5,-144.03 136,-139.03 136,-144.03 136,-144.03 136,-144.03 136,-139.03 131.5,-144.03 136,-134.03 136,-134.03"/>
</g>
<!-- Success -->
<g id="node5" class="node">
<title>Success</title>
<path fill="#161b22" stroke="#00ff00" d="M175.5,-52C175.5,-52 96.5,-52 96.5,-52 90.5,-52 84.5,-46 84.5,-40 84.5,-40 84.5,-28 84.5,-28 84.5,-22 90.5,-16 96.5,-16 96.5,-16 175.5,-16 175.5,-16 181.5,-16 187.5,-22 187.5,-28 187.5,-28 187.5,-40 187.5,-40 187.5,-46 181.5,-52 175.5,-52"/>
<text text-anchor="middle" x="136" y="-31.5" font-family="Helvetica,sans-Serif" font-size="10.00" fill="#00f2ff">Environment Ready</text>
</g>
<!-- Output_Check&#45;&gt;Success -->
<g id="edge2" class="edge">
<title>Output_Check&#45;&gt;Success</title>
<path fill="none" stroke="#ff00ff" d="M136,-97.64C136,-87.3 136,-73.94 136,-62.22"/>
<polygon fill="#ff00ff" stroke="#ff00ff" points="136,-52.05 140.5,-62.05 136,-57.05 136,-62.05 136,-62.05 136,-62.05 136,-57.05 131.5,-62.05 136,-52.05 136,-52.05"/>
<text text-anchor="middle" x="148.5" y="-72.8" font-family="Helvetica,sans-Serif" font-size="9.00">Match</text>
</g>
</g>
</svg>
