<?xml version="1.0" encoding="UTF-8" standalone="no"?>
<!DOCTYPE svg PUBLIC "-//W3C//DTD SVG 1.1//EN"
 "http://www.w3.org/Graphics/SVG/1.1/DTD/svg11.dtd">
<!-- Generated by graphviz version 2.43.0 (0)
 -->
<!-- Title: LessonPAM Pages: 1 -->
<svg width="319pt" height="608pt"
 viewBox="0.00 0.00 319.00 608.00" xmlns="http://www.w3.org/2000/svg" xmlns:xlink="http://www.w3.org/1999/xlink">
<g id="graph0" class="graph" transform="scale(1 1) rotate(0) translate(4 604)">
<title>LessonPAM</title>
<polygon fill="#0d1117" stroke="transparent" points="-4,4 -4,-604 315,-604 315,4 -4,4"/>
<text text-anchor="middle" x="155.5" y="-583.2" font-family="Helvetica,sans-Serif" font-size="16.00" fill="#00f2ff">A2.4: OpenSSH PAM Integration Pipeline</text>
<g id="clust1" class="cluster">
<title>cluster_pam_warning</title>
<polygon fill="#0d1117" stroke="#ffff00" points="71.5,-260 71.5,-566 238.5,-566 238.5,-260 71.5,-260"/>
<text text-anchor="middle" x="155" y="-549.2" font-family="Helvetica,sans-Serif" font-size="16.00" fill="#ffff00">Symbol Missing Alert</text>
</g>
<g id="clust2" class="cluster">
<title>cluster_pam_fix</title>
<polygon fill="#0d1117" stroke="#00ff00" points="53.5,-8 53.5,-232 253.5,-232 253.5,-8 53.5,-8"/>
<text text-anchor="middle" x="153.5" y="-215.2" font-family="Helvetica,sans-Serif" font-size="16.00" fill="#00ff00">Full PAM Symbol Linkage</text>
</g>
<!-- Pam_Config -->
<g id="node1" class="node">
<title>Pam_Config</title>
<path fill="#161b22" stroke="#00f2ff" d="M181.5,-532C181.5,-532 125.5,-532 125.5,-532 119.5,-532 113.5,-526 113.5,-520 113.5,-520 113.5,-508 113.5,-508 113.5,-502 119.5,-496 125.5,-496 125.5,-496 181.5,-496 181.5,-496 187.5,-496 193.5,-502 193.5,-508 193.5,-508 193.5,-520 193.5,-520 193.5,-526 187.5,-532 181.5,-532"/>
<text text-anchor="middle" x="153.5" y="-517" font-family="Helvetica,sans-Serif" font-size="10.00" fill="#00f2ff">sshd_config</text>
<text text-anchor="middle" x="153.5" y="-506" font-family="Helvetica,sans-Serif" font-size="10.00" fill="#00f2ff">(UsePAM yes)</text>
</g>
<!-- Configure_NoPAM -->
<g id="node2" class="node">
<title>Configure_NoPAM</title>
<path fill="#161b22" stroke="#00f2ff" d="M204,-459C204,-459 103,-459 103,-459 97,-459 91,-453 91,-447 91,-447 91,-435 91,-435 91,-429 97,-423 103,-423 103,-423 204,-423 204,-423 210,-423 216,-429 216,-435 216,-435 216,-447 216,-447 216,-453 210,-459 204,-459"/>
<text text-anchor="middle" x="153.5" y="-444" font-family="Helvetica,sans-Serif" font-size="10.00" fill="#00f2ff">./configure without PAM</text>
<text text-anchor="middle" x="153.5" y="-433" font-family="Helvetica,sans-Serif" font-size="10.00" fill="#00f2ff">(Default OpenSSH build)</text>
</g>
<!-- Pam_Config&#45;&gt;Configure_NoPAM -->
<g id="edge1" class="edge">
<title>Pam_Config&#45;&gt;Configure_NoPAM</title>
<path fill="none" stroke="#ff00ff" d="M153.5,-495.81C153.5,-487.79 153.5,-478.05 153.5,-469.07"/>
<polygon fill="#ff00ff" stroke="#ff00ff" points="153.5,-459.03 158,-469.03 153.5,-464.03 153.5,-469.03 153.5,-469.03 153.5,-469.03 153.5,-464.03 149,-469.03 153.5,-459.03 153.5,-459.03"/>
</g>
<!-- Sshd_t_Check -->
<g id="node3" class="node">
<title>Sshd_t_Check</title>
<path fill="#161b22" stroke="#00f2ff" d="M197.5,-386C197.5,-386 109.5,-386 109.5,-386 103.5,-386 97.5,-380 97.5,-374 97.5,-374 97.5,-362 97.5,-362 97.5,-356 103.5,-350 109.5,-350 109.5,-350 197.5,-350 197.5,-350 203.5,-350 209.5,-356 209.5,-362 209.5,-362 209.5,-374 209.5,-374 209.5,-380 203.5,-386 197.5,-386"/>
<text text-anchor="middle" x="153.5" y="-365.5" font-family="Helvetica,sans-Serif" font-size="10.00" fill="#00f2ff">sshd &#45;t Syntax Check</text>
</g>
<!-- Configure_NoPAM&#45;&gt;Sshd_t_Check -->
<g id="edge2" class="edge">
<title>Configure_NoPAM&#45;&gt;Sshd_t_Check</title>
<path fill="none" stroke="#ff00ff" d="M153.5,-422.81C153.5,-414.79 153.5,-405.05 153.5,-396.07"/>
<polygon fill="#ff00ff" stroke="#ff00ff" points="153.5,-386.03 158,-396.03 153.5,-391.03 153.5,-396.03 153.5,-396.03 153.5,-396.03 153.5,-391.03 149,-396.03 153.5,-386.03 153.5,-386.03"/>
</g>
<!-- Warning_Msg -->
<g id="node4" class="node">
<title>Warning_Msg</title>
<path fill="#161b22" stroke="#ff0000" d="M213,-304C213,-304 94,-304 94,-304 88,-304 82,-298 82,-292 82,-292 82,-280 82,-280 82,-274 88,-268 94,-268 94,-268 213,-268 213,-268 219,-268 225,-274 225,-280 225,-280 225,-292 225,-292 225,-298 219,-304 213,-304"/>
<text text-anchor="middle" x="153.5" y="-289" font-family="Helvetica,sans-Serif" font-size="10.00" fill="#00f2ff">sshd_config line 86:</text>
<text text-anchor="middle" x="153.5" y="-278" font-family="Helvetica,sans-Serif" font-size="10.00" fill="#00f2ff">Unsupported option UsePAM</text>
</g>
<!-- Sshd_t_Check&#45;&gt;Warning_Msg -->
<g id="edge3" class="edge">
<title>Sshd_t_Check&#45;&gt;Warning_Msg</title>
<path fill="none" stroke="#ff00ff" d="M153.5,-349.64C153.5,-339.3 153.5,-325.94 153.5,-314.22"/>
<polygon fill="#ff00ff" stroke="#ff00ff" points="153.5,-304.05 158,-314.05 153.5,-309.05 153.5,-314.05 153.5,-314.05 153.5,-314.05 153.5,-309.05 149,-314.05 153.5,-304.05 153.5,-304.05"/>
<text text-anchor="middle" x="184" y="-324.8" font-family="Helvetica,sans-Serif" font-size="9.00">Logs warnings</text>
</g>
<!-- Dev_Headers -->
<g id="node5" class="node">
<title>Dev_Headers</title>
<path fill="#161b22" stroke="#00f2ff" d="M218.5,-198C218.5,-198 88.5,-198 88.5,-198 82.5,-198 76.5,-192 76.5,-186 76.5,-186 76.5,-174 76.5,-174 76.5,-168 82.5,-162 88.5,-162 88.5,-162 218.5,-162 218.5,-162 224.5,-162 230.5,-168 230.5,-174 230.5,-174 230.5,-186 230.5,-186 230.5,-192 224.5,-198 218.5,-198"/>
<text text-anchor="middle" x="153.5" y="-177.5" font-family="Helvetica,sans-Serif" font-size="10.00" fill="#00f2ff">libpam0g&#45;dev Headers Installed</text>
</g>
<!-- Warning_Msg&#45;&gt;Dev_Headers -->
<g id="edge6" class="edge">
<title>Warning_Msg&#45;&gt;Dev_Headers</title>
<path fill="none" stroke="#ff00ff" d="M153.5,-267.83C153.5,-251.64 153.5,-227.13 153.5,-208.27"/>
<polygon fill="#ff00ff" stroke="#ff00ff" points="153.5,-198.2 158,-208.2 153.5,-203.2 153.5,-208.2 153.5,-208.2 153.5,-208.2 153.5,-203.2 149,-208.2 153.5,-198.2 153.5,-198.2"/>
<text text-anchor="middle" x="209.5" y="-242.8" font-family="Helvetica,sans-Serif" font-size="9.00">Prompts resolution pipeline</text>
</g>
<!-- Configure_PAM -->
<g id="node6" class="node">
<title>Configure_PAM</title>
<path fill="#161b22" stroke="#00f2ff" d="M202.5,-125C202.5,-125 104.5,-125 104.5,-125 98.5,-125 92.5,-119 92.5,-113 92.5,-113 92.5,-101 92.5,-101 92.5,-95 98.5,-89 104.5,-89 104.5,-89 202.5,-89 202.5,-89 208.5,-89 214.5,-95 214.5,-101 214.5,-101 214.5,-113 214.5,-113 214.5,-119 208.5,-125 202.5,-125"/>
<text text-anchor="middle" x="153.5" y="-104.5" font-family="Helvetica,sans-Serif" font-size="10.00" fill="#00f2ff">&#45;&#45;with&#45;pam Flag Enabled</text>
</g>
<!-- Dev_Headers&#45;&gt;Configure_PAM -->
<g id="edge4" class="edge">
<title>Dev_Headers&#45;&gt;Configure_PAM</title>
<path fill="none" stroke="#ff00ff" d="M153.5,-161.81C153.5,-153.79 153.5,-144.05 153.5,-135.07"/>
<polygon fill="#ff00ff" stroke="#ff00ff" points="153.5,-125.03 158,-135.03 153.5,-130.03 153.5,-135.03 153.5,-135.03 153.5,-135.03 153.5,-130.03 149,-135.03 153.5,-125.03 153.5,-125.03"/>
</g>
<!-- LibPam_Link -->
<g id="node7" class="node">
<title>LibPam_Link</title>
<path fill="#161b22" stroke="#00ff00" d="M198,-52C198,-52 109,-52 109,-52 103,-52 97,-46 97,-40 97,-40 97,-28 97,-28 97,-22 103,-16 109,-16 109,-16 198,-16 198,-16 204,-16 210,-22 210,-28 210,-28 210,-40 210,-40 210,-46 204,-52 198,-52"/>
<text text-anchor="middle" x="153.5" y="-37" font-family="Helvetica,sans-Serif" font-size="10.00" fill="#00f2ff">sshd executable links</text>
<text text-anchor="middle" x="153.5" y="-26" font-family="Helvetica,sans-Serif" font-size="10.00" fill="#00f2ff">libpam.so dynamically</text>
</g>
<!-- Configure_PAM&#45;&gt;LibPam_Link -->
<g id="edge5" class="edge">
<title>Configure_PAM&#45;&gt;LibPam_Link</title>
<path fill="none" stroke="#ff00ff" d="M153.5,-88.81C153.5,-80.79 153.5,-71.05 153.5,-62.07"/>
<polygon fill="#ff00ff" stroke="#ff00ff" points="153.5,-52.03 158,-62.03 153.5,-57.03 153.5,-62.03 153.5,-62.03 153.5,-62.03 153.5,-57.03 149,-62.03 153.5,-52.03 153.5,-52.03"/>
</g>
</g>
</svg>
