<?xml version="1.0" encoding="UTF-8" standalone="no"?>
<!DOCTYPE svg PUBLIC "-//W3C//DTD SVG 1.1//EN"
 "http://www.w3.org/Graphics/SVG/1.1/DTD/svg11.dtd">
<!-- Generated by graphviz version 2.43.0 (0)
 -->
<!-- Title: LessonRpath Pages: 1 -->
<svg width="546pt" height="285pt"
 viewBox="0.00 0.00 545.64 285.00" xmlns="http://www.w3.org/2000/svg" xmlns:xlink="http://www.w3.org/1999/xlink">
<g id="graph0" class="graph" transform="scale(1 1) rotate(0) translate(4 281)">
<title>LessonRpath</title>
<polygon fill="#0d1117" stroke="transparent" points="-4,4 -4,-281 541.64,-281 541.64,4 -4,4"/>
<text text-anchor="middle" x="268.82" y="-7.8" font-family="Helvetica,sans-Serif" font-size="14.00" fill="#00f2ff">A2.2: Rpath Isolation Advantage</text>
<!-- Custom_Bin -->
<g id="node1" class="node">
<title>Custom_Bin</title>
<path fill="#161b22" stroke="#00f2ff" d="M226.64,-277C226.64,-277 119.64,-277 119.64,-277 113.64,-277 107.64,-271 107.64,-265 107.64,-265 107.64,-251 107.64,-251 107.64,-245 113.64,-239 119.64,-239 119.64,-239 226.64,-239 226.64,-239 232.64,-239 238.64,-245 238.64,-251 238.64,-251 238.64,-265 238.64,-265 238.64,-271 232.64,-277 226.64,-277"/>
<text text-anchor="middle" x="173.14" y="-261.8" font-family="Helvetica,sans-Serif" font-size="14.00" fill="#00f2ff">Custom Binary</text>
<text text-anchor="middle" x="173.14" y="-246.8" font-family="Helvetica,sans-Serif" font-size="14.00" fill="#00f2ff">(curl / sshd / nginx)</text>
</g>
<!-- Rpath_Lookup -->
<g id="node2" class="node">
<title>Rpath_Lookup</title>
<path fill="#161b22" stroke="#00f2ff" d="M334.41,-188C334.41,-188 82.77,-188 82.77,-188 76.77,-188 66.68,-183.61 62.58,-179.23 62.58,-179.23 8.05,-120.77 8.05,-120.77 3.96,-116.39 5.86,-112 11.86,-112 11.86,-112 263.5,-112 263.5,-112 269.5,-112 279.6,-116.39 283.69,-120.77 283.69,-120.77 338.23,-179.23 338.23,-179.23 342.32,-183.61 340.41,-188 334.41,-188"/>
<text text-anchor="middle" x="173.14" y="-153.8" font-family="Helvetica,sans-Serif" font-size="14.00" fill="#00f2ff">Runpath Check</text>
<text text-anchor="middle" x="173.14" y="-138.8" font-family="Helvetica,sans-Serif" font-size="14.00" fill="#00f2ff">(Search /usr/local/... first)</text>
</g>
<!-- Custom_Bin&#45;&gt;Rpath_Lookup -->
<g id="edge1" class="edge">
<title>Custom_Bin&#45;&gt;Rpath_Lookup</title>
<path fill="none" stroke="#ff00ff" d="M173.14,-238.54C173.14,-227.37 173.14,-212.57 173.14,-198.33"/>
<polygon fill="#ff00ff" stroke="#ff00ff" points="173.14,-188.12 177.64,-198.12 173.14,-193.12 173.14,-198.12 173.14,-198.12 173.14,-198.12 173.14,-193.12 168.64,-198.12 173.14,-188.12 173.14,-188.12"/>
</g>
<!-- Custom_Libs -->
<g id="node5" class="node">
<title>Custom_Libs</title>
<path fill="#161b22" stroke="#00ff00" d="M227.14,-61C227.14,-61 119.14,-61 119.14,-61 113.14,-61 107.14,-55 107.14,-49 107.14,-49 107.14,-35 107.14,-35 107.14,-29 113.14,-23 119.14,-23 119.14,-23 227.14,-23 227.14,-23 233.14,-23 239.14,-29 239.14,-35 239.14,-35 239.14,-49 239.14,-49 239.14,-55 233.14,-61 227.14,-61"/>
<text text-anchor="middle" x="173.14" y="-45.8" font-family="Helvetica,sans-Serif" font-size="14.00" fill="#00f2ff">Custom Libraries</text>
<text text-anchor="middle" x="173.14" y="-30.8" font-family="Helvetica,sans-Serif" font-size="14.00" fill="#00f2ff">(/usr/local/ssl/lib64)</text>
</g>
<!-- Rpath_Lookup&#45;&gt;Custom_Libs -->
<g id="edge2" class="edge">
<title>Rpath_Lookup&#45;&gt;Custom_Libs</title>
<path fill="none" stroke="#ff00ff" d="M173.14,-111.93C173.14,-98.63 173.14,-83.85 173.14,-71.41"/>
<polygon fill="#ff00ff" stroke="#ff00ff" points="173.14,-61.16 177.64,-71.16 173.14,-66.16 173.14,-71.16 173.14,-71.16 173.14,-71.16 173.14,-66.16 168.64,-71.16 173.14,-61.16 173.14,-61.16"/>
<text text-anchor="middle" x="209.64" y="-82.8" font-family="Times,serif" font-size="14.00">Priority Load</text>
</g>
<!-- System_Bin -->
<g id="node3" class="node">
<title>System_Bin</title>
<path fill="#161b22" stroke="#00f2ff" d="M525.64,-277C525.64,-277 352.64,-277 352.64,-277 346.64,-277 340.64,-271 340.64,-265 340.64,-265 340.64,-251 340.64,-251 340.64,-245 346.64,-239 352.64,-239 352.64,-239 525.64,-239 525.64,-239 531.64,-239 537.64,-245 537.64,-251 537.64,-251 537.64,-265 537.64,-265 537.64,-271 531.64,-277 525.64,-277"/>
<text text-anchor="middle" x="439.14" y="-261.8" font-family="Helvetica,sans-Serif" font-size="14.00" fill="#00f2ff">System Binary</text>
<text text-anchor="middle" x="439.14" y="-246.8" font-family="Helvetica,sans-Serif" font-size="14.00" fill="#00f2ff">(Uses standard system paths)</text>
</g>
<!-- System_Libs -->
<g id="node4" class="node">
<title>System_Libs</title>
<path fill="#161b22" stroke="#00ff00" d="M502.14,-169C502.14,-169 376.14,-169 376.14,-169 370.14,-169 364.14,-163 364.14,-157 364.14,-157 364.14,-143 364.14,-143 364.14,-137 370.14,-131 376.14,-131 376.14,-131 502.14,-131 502.14,-131 508.14,-131 514.14,-137 514.14,-143 514.14,-143 514.14,-157 514.14,-157 514.14,-163 508.14,-169 502.14,-169"/>
<text text-anchor="middle" x="439.14" y="-153.8" font-family="Helvetica,sans-Serif" font-size="14.00" fill="#00f2ff">System Libraries</text>
<text text-anchor="middle" x="439.14" y="-138.8" font-family="Helvetica,sans-Serif" font-size="14.00" fill="#00f2ff">(/lib/x86_64&#45;linux&#45;gnu)</text>
</g>
<!-- System_Bin&#45;&gt;System_Libs -->
<g id="edge3" class="edge">
<title>System_Bin&#45;&gt;System_Libs</title>
<path fill="none" stroke="#ff00ff" d="M439.14,-238.54C439.14,-222.2 439.14,-198.1 439.14,-179.32"/>
<polygon fill="#ff00ff" stroke="#ff00ff" points="439.14,-169.25 443.64,-179.25 439.14,-174.25 439.14,-179.25 439.14,-179.25 439.14,-179.25 439.14,-174.25 434.64,-179.25 439.14,-169.25 439.14,-169.25"/>
<text text-anchor="middle" x="475.64" y="-209.8" font-family="Times,serif" font-size="14.00">Default Load</text>
</g>
</g>
</svg>
