<?xml version="1.0" encoding="UTF-8" standalone="no"?>
<!DOCTYPE svg PUBLIC "-//W3C//DTD SVG 1.1//EN"
 "http://www.w3.org/Graphics/SVG/1.1/DTD/svg11.dtd">
<!-- Generated by graphviz version 2.43.0 (0)
 -->
<!-- Title: LessonMismatch Pages: 1 -->
<svg width="352pt" height="414pt"
 viewBox="0.00 0.00 352.00 413.58" xmlns="http://www.w3.org/2000/svg" xmlns:xlink="http://www.w3.org/1999/xlink">
<g id="graph0" class="graph" transform="scale(1 1) rotate(0) translate(4 409.58)">
<title>LessonMismatch</title>
<polygon fill="#0d1117" stroke="transparent" points="-4,4 -4,-409.58 348,-409.58 348,4 -4,4"/>
<text text-anchor="middle" x="172" y="-7.8" font-family="Helvetica,sans-Serif" font-size="14.00" fill="#00f2ff">A2.1: OpenSSL Version Mismatch Trap</text>
<!-- Global_Ld -->
<g id="node1" class="node">
<title>Global_Ld</title>
<path fill="#161b22" stroke="#ff0000" d="M146,-405.58C146,-405.58 12,-405.58 12,-405.58 6,-405.58 0,-399.58 0,-393.58 0,-393.58 0,-379.58 0,-379.58 0,-373.58 6,-367.58 12,-367.58 12,-367.58 146,-367.58 146,-367.58 152,-367.58 158,-373.58 158,-379.58 158,-379.58 158,-393.58 158,-393.58 158,-399.58 152,-405.58 146,-405.58"/>
<text text-anchor="middle" x="79" y="-390.38" font-family="Helvetica,sans-Serif" font-size="14.00" fill="#00f2ff">Global /etc/ld.so.conf.d/</text>
<text text-anchor="middle" x="79" y="-375.38" font-family="Helvetica,sans-Serif" font-size="14.00" fill="#00f2ff">Override</text>
</g>
<!-- New_Lib -->
<g id="node3" class="node">
<title>New_Lib</title>
<path fill="#161b22" stroke="#ffff00" d="M226.5,-316.58C226.5,-316.58 111.5,-316.58 111.5,-316.58 105.5,-316.58 99.5,-310.58 99.5,-304.58 99.5,-304.58 99.5,-290.58 99.5,-290.58 99.5,-284.58 105.5,-278.58 111.5,-278.58 111.5,-278.58 226.5,-278.58 226.5,-278.58 232.5,-278.58 238.5,-284.58 238.5,-290.58 238.5,-290.58 238.5,-304.58 238.5,-304.58 238.5,-310.58 232.5,-316.58 226.5,-316.58"/>
<text text-anchor="middle" x="169" y="-301.38" font-family="Helvetica,sans-Serif" font-size="14.00" fill="#00f2ff">libssl.so.3 (3.5.6)</text>
<text text-anchor="middle" x="169" y="-286.38" font-family="Helvetica,sans-Serif" font-size="14.00" fill="#00f2ff">Loaded Dynamically</text>
</g>
<!-- Global_Ld&#45;&gt;New_Lib -->
<g id="edge1" class="edge">
<title>Global_Ld&#45;&gt;New_Lib</title>
<path fill="none" stroke="#ff00ff" d="M97.65,-367.55C110.8,-354.83 128.59,-337.64 143.12,-323.59"/>
<polygon fill="#ff00ff" stroke="#ff00ff" points="150.38,-316.58 146.31,-326.76 146.78,-320.05 143.19,-323.53 143.19,-323.53 143.19,-323.53 146.78,-320.05 140.06,-320.29 150.38,-316.58 150.38,-316.58"/>
<text text-anchor="middle" x="171" y="-338.38" font-family="Times,serif" font-size="14.00">Updates Cache</text>
</g>
<!-- System_Nginx -->
<g id="node2" class="node">
<title>System_Nginx</title>
<path fill="#161b22" stroke="#00f2ff" d="M332,-405.58C332,-405.58 188,-405.58 188,-405.58 182,-405.58 176,-399.58 176,-393.58 176,-393.58 176,-379.58 176,-379.58 176,-373.58 182,-367.58 188,-367.58 188,-367.58 332,-367.58 332,-367.58 338,-367.58 344,-373.58 344,-379.58 344,-379.58 344,-393.58 344,-393.58 344,-399.58 338,-405.58 332,-405.58"/>
<text text-anchor="middle" x="260" y="-390.38" font-family="Helvetica,sans-Serif" font-size="14.00" fill="#00f2ff">System Nginx</text>
<text text-anchor="middle" x="260" y="-375.38" font-family="Helvetica,sans-Serif" font-size="14.00" fill="#00f2ff">(Built for OpenSSL 3.0.2)</text>
</g>
<!-- System_Nginx&#45;&gt;New_Lib -->
<g id="edge2" class="edge">
<title>System_Nginx&#45;&gt;New_Lib</title>
<path fill="none" stroke="#ff00ff" d="M245.78,-367.3C237.54,-357.2 226.72,-344.69 216,-334.58 211.89,-330.7 207.37,-326.82 202.82,-323.13"/>
<polygon fill="#ff00ff" stroke="#ff00ff" points="194.66,-316.72 205.3,-319.36 198.59,-319.81 202.52,-322.9 202.52,-322.9 202.52,-322.9 198.59,-319.81 199.74,-326.44 194.66,-316.72 194.66,-316.72"/>
<text text-anchor="middle" x="279" y="-338.38" font-family="Times,serif" font-size="14.00">Loads at Runtime</text>
</g>
<!-- Crash -->
<g id="node4" class="node">
<title>Crash</title>
<ellipse fill="#161b22" stroke="#ff0000" cx="169" cy="-125.29" rx="98.08" ry="98.08"/>
<ellipse fill="none" stroke="#ff0000" cx="169" cy="-125.29" rx="102.08" ry="102.08"/>
<text text-anchor="middle" x="169" y="-129.09" font-family="Helvetica,sans-Serif" font-size="14.00" fill="#00f2ff">NGINX Crash</text>
<text text-anchor="middle" x="169" y="-114.09" font-family="Helvetica,sans-Serif" font-size="14.00" fill="#00f2ff">(Assert Version Fail)</text>
</g>
<!-- New_Lib&#45;&gt;Crash -->
<g id="edge3" class="edge">
<title>New_Lib&#45;&gt;Crash</title>
<path fill="none" stroke="#ff00ff" d="M169,-278.35C169,-267.86 169,-253.72 169,-238.26"/>
<polygon fill="#ff00ff" stroke="#ff00ff" points="169,-227.93 173.5,-237.93 169,-232.93 169,-237.93 169,-237.93 169,-237.93 169,-232.93 164.5,-237.93 169,-227.93 169,-227.93"/>
<text text-anchor="middle" x="245.5" y="-249.38" font-family="Times,serif" font-size="14.00">Version Mismatch Detected</text>
</g>
</g>
</svg>
