<?xml version="1.0" encoding="UTF-8" standalone="no"?>
<!DOCTYPE svg PUBLIC "-//W3C//DTD SVG 1.1//EN"
 "http://www.w3.org/Graphics/SVG/1.1/DTD/svg11.dtd">
<!-- Generated by graphviz version 2.43.0 (0)
 -->
<!-- Title: LessonRpath Pages: 1 -->
<svg width="399pt" height="471pt"
 viewBox="0.00 0.00 399.00 471.00" xmlns="http://www.w3.org/2000/svg" xmlns:xlink="http://www.w3.org/1999/xlink">
<g id="graph0" class="graph" transform="scale(1 1) rotate(0) translate(4 467)">
<title>LessonRpath</title>
<polygon fill="#0d1117" stroke="transparent" points="-4,4 -4,-467 395,-467 395,4 -4,4"/>
<text text-anchor="middle" x="195.5" y="-446.2" font-family="Helvetica,sans-Serif" font-size="16.00" fill="#00f2ff">A2.2: Rpath Isolation Resolution Flow</text>
<g id="clust1" class="cluster">
<title>cluster_rpath_mechanisms</title>
<polygon fill="#0d1117" stroke="#00ff22" points="8,-8 8,-332 309,-332 309,-8 8,-8"/>
<text text-anchor="middle" x="158.5" y="-315.2" font-family="Helvetica,sans-Serif" font-size="16.00" fill="#00ff22">Dynamic Linker Lookups (rpath Priority)</text>
</g>
<g id="clust2" class="cluster">
<title>cluster_resolved_binary</title>
<polygon fill="#0d1117" stroke="#ff00ff" points="73,-351 73,-429 383,-429 383,-351 73,-351"/>
<text text-anchor="middle" x="228" y="-412.2" font-family="Helvetica,sans-Serif" font-size="16.00" fill="#ff00ff">Binary Actions</text>
</g>
<!-- Lookup_1 -->
<g id="node1" class="node">
<title>Lookup_1</title>
<path fill="#161b22" stroke="#00ff00" d="M236.5,-298C236.5,-298 79.5,-298 79.5,-298 73.5,-298 67.5,-292 67.5,-286 67.5,-286 67.5,-274 67.5,-274 67.5,-268 73.5,-262 79.5,-262 79.5,-262 236.5,-262 236.5,-262 242.5,-262 248.5,-268 248.5,-274 248.5,-274 248.5,-286 248.5,-286 248.5,-292 242.5,-298 236.5,-298"/>
<text text-anchor="middle" x="158" y="-283" font-family="Helvetica,sans-Serif" font-size="10.00" fill="#00f2ff">1. Check DT_RPATH/DT_RUNPATH</text>
<text text-anchor="middle" x="158" y="-272" font-family="Helvetica,sans-Serif" font-size="10.00" fill="#00f2ff">(Inscribed in binary)</text>
</g>
<!-- Lookup_2 -->
<g id="node2" class="node">
<title>Lookup_2</title>
<path fill="#161b22" stroke="#00f2ff" d="M240,-216C240,-216 112,-216 112,-216 106,-216 100,-210 100,-204 100,-204 100,-192 100,-192 100,-186 106,-180 112,-180 112,-180 240,-180 240,-180 246,-180 252,-186 252,-192 252,-192 252,-204 252,-204 252,-210 246,-216 240,-216"/>
<text text-anchor="middle" x="176" y="-201" font-family="Helvetica,sans-Serif" font-size="10.00" fill="#00f2ff">2. Check LD_LIBRARY_PATH</text>
<text text-anchor="middle" x="176" y="-190" font-family="Helvetica,sans-Serif" font-size="10.00" fill="#00f2ff">(Environment Variable)</text>
</g>
<!-- Lookup_1&#45;&gt;Lookup_2 -->
<g id="edge1" class="edge">
<title>Lookup_1&#45;&gt;Lookup_2</title>
<path fill="none" stroke="#ff00ff" d="M161.91,-261.64C164.26,-251.19 167.3,-237.67 169.96,-225.86"/>
<polygon fill="#ff00ff" stroke="#ff00ff" points="172.16,-216.05 174.36,-226.79 171.07,-220.93 169.97,-225.81 169.97,-225.81 169.97,-225.81 171.07,-220.93 165.58,-224.82 172.16,-216.05 172.16,-216.05"/>
<text text-anchor="middle" x="191" y="-236.8" font-family="Helvetica,sans-Serif" font-size="9.00">If not found</text>
</g>
<!-- Lookup_3 -->
<g id="node3" class="node">
<title>Lookup_3</title>
<path fill="#161b22" stroke="#00f2ff" d="M277.5,-134C277.5,-134 172.5,-134 172.5,-134 166.5,-134 160.5,-128 160.5,-122 160.5,-122 160.5,-110 160.5,-110 160.5,-104 166.5,-98 172.5,-98 172.5,-98 277.5,-98 277.5,-98 283.5,-98 289.5,-104 289.5,-110 289.5,-110 289.5,-122 289.5,-122 289.5,-128 283.5,-134 277.5,-134"/>
<text text-anchor="middle" x="225" y="-119" font-family="Helvetica,sans-Serif" font-size="10.00" fill="#00f2ff">3. Check /etc/ld.so.cache</text>
<text text-anchor="middle" x="225" y="-108" font-family="Helvetica,sans-Serif" font-size="10.00" fill="#00f2ff">(Global cache)</text>
</g>
<!-- Lookup_2&#45;&gt;Lookup_3 -->
<g id="edge2" class="edge">
<title>Lookup_2&#45;&gt;Lookup_3</title>
<path fill="none" stroke="#ff00ff" d="M186.63,-179.64C193.23,-168.87 201.82,-154.85 209.2,-142.79"/>
<polygon fill="#ff00ff" stroke="#ff00ff" points="214.56,-134.05 213.17,-144.93 211.95,-138.31 209.33,-142.58 209.33,-142.58 209.33,-142.58 211.95,-138.31 205.5,-140.23 214.56,-134.05 214.56,-134.05"/>
<text text-anchor="middle" x="226" y="-154.8" font-family="Helvetica,sans-Serif" font-size="9.00">If not found</text>
</g>
<!-- Lookup_4 -->
<g id="node4" class="node">
<title>Lookup_4</title>
<path fill="#161b22" stroke="#00f2ff" d="M270,-52C270,-52 180,-52 180,-52 174,-52 168,-46 168,-40 168,-40 168,-28 168,-28 168,-22 174,-16 180,-16 180,-16 270,-16 270,-16 276,-16 282,-22 282,-28 282,-28 282,-40 282,-40 282,-46 276,-52 270,-52"/>
<text text-anchor="middle" x="225" y="-37" font-family="Helvetica,sans-Serif" font-size="10.00" fill="#00f2ff">4. Check /lib &amp; /usr/lib</text>
<text text-anchor="middle" x="225" y="-26" font-family="Helvetica,sans-Serif" font-size="10.00" fill="#00f2ff">(Default directories)</text>
</g>
<!-- Lookup_3&#45;&gt;Lookup_4 -->
<g id="edge3" class="edge">
<title>Lookup_3&#45;&gt;Lookup_4</title>
<path fill="none" stroke="#ff00ff" d="M225,-97.64C225,-87.3 225,-73.94 225,-62.22"/>
<polygon fill="#ff00ff" stroke="#ff00ff" points="225,-52.05 229.5,-62.05 225,-57.05 225,-62.05 225,-62.05 225,-62.05 225,-57.05 220.5,-62.05 225,-52.05 225,-52.05"/>
<text text-anchor="middle" x="248" y="-72.8" font-family="Helvetica,sans-Serif" font-size="9.00">If not found</text>
</g>
<!-- Custom_Bin -->
<g id="node5" class="node">
<title>Custom_Bin</title>
<path fill="#161b22" stroke="#00f2ff" d="M177,-395C177,-395 93,-395 93,-395 87,-395 81,-389 81,-383 81,-383 81,-371 81,-371 81,-365 87,-359 93,-359 93,-359 177,-359 177,-359 183,-359 189,-365 189,-371 189,-371 189,-383 189,-383 189,-389 183,-395 177,-395"/>
<text text-anchor="middle" x="135" y="-380" font-family="Helvetica,sans-Serif" font-size="10.00" fill="#00f2ff">Custom Binary</text>
<text text-anchor="middle" x="135" y="-369" font-family="Helvetica,sans-Serif" font-size="10.00" fill="#00f2ff">(Uses Lookup 1 first)</text>
</g>
<!-- Custom_Bin&#45;&gt;Lookup_1 -->
<g id="edge4" class="edge">
<title>Custom_Bin&#45;&gt;Lookup_1</title>
<path fill="none" stroke="#ff00ff" d="M139.22,-358.58C142.62,-344.51 147.47,-324.48 151.39,-308.29"/>
<polygon fill="#ff00ff" stroke="#ff00ff" points="153.81,-298.31 155.83,-309.09 152.63,-303.17 151.46,-308.03 151.46,-308.03 151.46,-308.03 152.63,-303.17 147.08,-306.97 153.81,-298.31 153.81,-298.31"/>
</g>
<!-- System_Bin -->
<g id="node6" class="node">
<title>System_Bin</title>
<path fill="#161b22" stroke="#00f2ff" d="M363,-395C363,-395 219,-395 219,-395 213,-395 207,-389 207,-383 207,-383 207,-371 207,-371 207,-365 213,-359 219,-359 219,-359 363,-359 363,-359 369,-359 375,-365 375,-371 375,-371 375,-383 375,-383 375,-389 369,-395 363,-395"/>
<text text-anchor="middle" x="291" y="-380" font-family="Helvetica,sans-Serif" font-size="10.00" fill="#00f2ff">System Binary</text>
<text text-anchor="middle" x="291" y="-369" font-family="Helvetica,sans-Serif" font-size="10.00" fill="#00f2ff">(Skips Lookup 1, uses Lookup 3/4)</text>
</g>
<!-- System_Bin&#45;&gt;Lookup_3 -->
<g id="edge5" class="edge">
<title>System_Bin&#45;&gt;Lookup_3</title>
<path fill="none" stroke="#ff00ff" d="M289.11,-358.83C285.18,-324.57 275.29,-245.41 261,-180 258.24,-167.36 258.94,-163.5 253,-152 251.29,-148.69 249.25,-145.4 247.05,-142.23"/>
<polygon fill="#ff00ff" stroke="#ff00ff" points="241,-134.21 250.61,-139.49 244.01,-138.21 247.02,-142.2 247.02,-142.2 247.02,-142.2 244.01,-138.21 243.43,-144.91 241,-134.21 241,-134.21"/>
</g>
</g>
</svg>
