<?xml version="1.0" encoding="UTF-8" standalone="no"?>
<!DOCTYPE svg PUBLIC "-//W3C//DTD SVG 1.1//EN"
 "http://www.w3.org/Graphics/SVG/1.1/DTD/svg11.dtd">
<!-- Generated by graphviz version 2.43.0 (0)
 -->
<!-- Title: LessonPAM Pages: 1 -->
<svg width="432pt" height="384pt"
 viewBox="0.00 0.00 432.00 384.00" xmlns="http://www.w3.org/2000/svg" xmlns:xlink="http://www.w3.org/1999/xlink">
<g id="graph0" class="graph" transform="scale(1 1) rotate(0) translate(4 380)">
<title>LessonPAM</title>
<polygon fill="#0d1117" stroke="transparent" points="-4,4 -4,-380 428,-380 428,4 -4,4"/>
<text text-anchor="middle" x="212" y="-7.8" font-family="Helvetica,sans-Serif" font-size="14.00" fill="#00f2ff">A2.4: OpenSSH PAM Dependency</text>
<!-- Config -->
<g id="node1" class="node">
<title>Config</title>
<path fill="#161b22" stroke="#00f2ff" d="M307.64,-376C307.64,-376 160.41,-376 160.41,-376 154.41,-376 145.4,-370.81 142.39,-365.62 142.39,-365.62 110.37,-310.38 110.37,-310.38 107.36,-305.19 110.36,-300 116.36,-300 116.36,-300 263.59,-300 263.59,-300 269.59,-300 278.6,-305.19 281.61,-310.38 281.61,-310.38 313.63,-365.62 313.63,-365.62 316.64,-370.81 313.64,-376 307.64,-376"/>
<text text-anchor="middle" x="212" y="-341.8" font-family="Helvetica,sans-Serif" font-size="14.00" fill="#00f2ff">sshd_config</text>
<text text-anchor="middle" x="212" y="-326.8" font-family="Helvetica,sans-Serif" font-size="14.00" fill="#00f2ff">(UsePAM yes)</text>
</g>
<!-- Build_NoPAM -->
<g id="node2" class="node">
<title>Build_NoPAM</title>
<path fill="#161b22" stroke="#ff0000" d="M268.5,-263C268.5,-263 155.5,-263 155.5,-263 149.5,-263 143.5,-257 143.5,-251 143.5,-251 143.5,-237 143.5,-237 143.5,-231 149.5,-225 155.5,-225 155.5,-225 268.5,-225 268.5,-225 274.5,-225 280.5,-231 280.5,-237 280.5,-237 280.5,-251 280.5,-251 280.5,-257 274.5,-263 268.5,-263"/>
<text text-anchor="middle" x="212" y="-247.8" font-family="Helvetica,sans-Serif" font-size="14.00" fill="#00f2ff">sshd Build</text>
<text text-anchor="middle" x="212" y="-232.8" font-family="Helvetica,sans-Serif" font-size="14.00" fill="#00f2ff">(No &#45;&#45;with&#45;pam flag)</text>
</g>
<!-- Config&#45;&gt;Build_NoPAM -->
<g id="edge1" class="edge">
<title>Config&#45;&gt;Build_NoPAM</title>
<path fill="none" stroke="#ff00ff" d="M212,-299.85C212,-290.94 212,-281.57 212,-273.15"/>
<polygon fill="#ff00ff" stroke="#ff00ff" points="212,-263.09 216.5,-273.09 212,-268.09 212,-273.09 212,-273.09 212,-273.09 212,-268.09 207.5,-273.09 212,-263.09 212,-263.09"/>
</g>
<!-- Warning -->
<g id="node3" class="node">
<title>Warning</title>
<path fill="#161b22" stroke="#ffff00" d="M200.19,-185.88C200.19,-185.88 11.81,-152.12 11.81,-152.12 5.91,-151.06 5.91,-148.94 11.81,-147.88 11.81,-147.88 200.19,-114.12 200.19,-114.12 206.09,-113.06 217.91,-113.06 223.81,-114.12 223.81,-114.12 412.19,-147.88 412.19,-147.88 418.09,-148.94 418.09,-151.06 412.19,-152.12 412.19,-152.12 223.81,-185.88 223.81,-185.88 217.91,-186.94 206.09,-186.94 200.19,-185.88"/>
<text text-anchor="middle" x="212" y="-153.8" font-family="Helvetica,sans-Serif" font-size="14.00" fill="#00f2ff">Unsupported Option UsePAM</text>
<text text-anchor="middle" x="212" y="-138.8" font-family="Helvetica,sans-Serif" font-size="14.00" fill="#00f2ff">(Daemon warning / auth bypass)</text>
</g>
<!-- Build_NoPAM&#45;&gt;Warning -->
<g id="edge2" class="edge">
<title>Build_NoPAM&#45;&gt;Warning</title>
<path fill="none" stroke="#ff00ff" d="M212,-224.82C212,-217.13 212,-207.78 212,-198.35"/>
<polygon fill="#ff00ff" stroke="#ff00ff" points="212,-188.16 216.5,-198.16 212,-193.16 212,-198.16 212,-198.16 212,-198.16 212,-193.16 207.5,-198.16 212,-188.16 212,-188.16"/>
</g>
<!-- Rebuild_PAM -->
<g id="node4" class="node">
<title>Rebuild_PAM</title>
<path fill="#161b22" stroke="#00ff00" d="M277.5,-61C277.5,-61 146.5,-61 146.5,-61 140.5,-61 134.5,-55 134.5,-49 134.5,-49 134.5,-35 134.5,-35 134.5,-29 140.5,-23 146.5,-23 146.5,-23 277.5,-23 277.5,-23 283.5,-23 289.5,-29 289.5,-35 289.5,-35 289.5,-49 289.5,-49 289.5,-55 283.5,-61 277.5,-61"/>
<text text-anchor="middle" x="212" y="-45.8" font-family="Helvetica,sans-Serif" font-size="14.00" fill="#00f2ff">Rebuilt with &#45;&#45;with&#45;pam</text>
<text text-anchor="middle" x="212" y="-30.8" font-family="Helvetica,sans-Serif" font-size="14.00" fill="#00f2ff">(Full integration)</text>
</g>
<!-- Warning&#45;&gt;Rebuild_PAM -->
<g id="edge3" class="edge">
<title>Warning&#45;&gt;Rebuild_PAM</title>
<path fill="none" stroke="#ff00ff" d="M212,-111.93C212,-98.63 212,-83.85 212,-71.41"/>
<polygon fill="#ff00ff" stroke="#ff00ff" points="212,-61.16 216.5,-71.16 212,-66.16 212,-71.16 212,-71.16 212,-71.16 212,-66.16 207.5,-71.16 212,-61.16 212,-61.16"/>
<text text-anchor="middle" x="269.5" y="-82.8" font-family="Times,serif" font-size="14.00">libpam0g&#45;dev Added</text>
</g>
</g>
</svg>
