<?xml version="1.0" encoding="UTF-8" standalone="no"?>
<!DOCTYPE svg PUBLIC "-//W3C//DTD SVG 1.1//EN"
 "http://www.w3.org/Graphics/SVG/1.1/DTD/svg11.dtd">
<!-- Generated by graphviz version 2.43.0 (0)
 -->
<!-- Title: LessonUmask Pages: 1 -->
<svg width="337pt" height="526pt"
 viewBox="0.00 0.00 337.00 526.00" xmlns="http://www.w3.org/2000/svg" xmlns:xlink="http://www.w3.org/1999/xlink">
<g id="graph0" class="graph" transform="scale(1 1) rotate(0) translate(4 522)">
<title>LessonUmask</title>
<polygon fill="#0d1117" stroke="transparent" points="-4,4 -4,-522 333,-522 333,4 -4,4"/>
<text text-anchor="middle" x="164.5" y="-501.2" font-family="Helvetica,sans-Serif" font-size="16.00" fill="#00f2ff">A2.3: Restrictive Umask Triage Architecture</text>
<g id="clust1" class="cluster">
<title>cluster_umask_logic</title>
<polygon fill="#0d1117" stroke="#ff0000" points="50,-260 50,-484 272,-484 272,-260 50,-260"/>
<text text-anchor="middle" x="161" y="-467.2" font-family="Helvetica,sans-Serif" font-size="16.00" fill="#ff0000">Umask Bitwise Masking</text>
</g>
<g id="clust2" class="cluster">
<title>cluster_triage_actions</title>
<polygon fill="#0d1117" stroke="#00ff00" points="57,-8 57,-232 279,-232 279,-8 57,-8"/>
<text text-anchor="middle" x="168" y="-215.2" font-family="Helvetica,sans-Serif" font-size="16.00" fill="#00ff00">Security Verification &amp; Fixing</text>
</g>
<!-- Base_Perms -->
<g id="node1" class="node">
<title>Base_Perms</title>
<path fill="#161b22" stroke="#00f2ff" d="M201,-450C201,-450 121,-450 121,-450 115,-450 109,-444 109,-438 109,-438 109,-426 109,-426 109,-420 115,-414 121,-414 121,-414 201,-414 201,-414 207,-414 213,-420 213,-426 213,-426 213,-438 213,-438 213,-444 207,-450 201,-450"/>
<text text-anchor="middle" x="161" y="-435" font-family="Helvetica,sans-Serif" font-size="10.00" fill="#00f2ff">Directory Base: 777</text>
<text text-anchor="middle" x="161" y="-424" font-family="Helvetica,sans-Serif" font-size="10.00" fill="#00f2ff">File Base: 666</text>
</g>
<!-- Umask_Value -->
<g id="node2" class="node">
<title>Umask_Value</title>
<path fill="#161b22" stroke="#00f2ff" d="M252,-377C252,-377 70,-377 70,-377 64,-377 58,-371 58,-365 58,-365 58,-353 58,-353 58,-347 64,-341 70,-341 70,-341 252,-341 252,-341 258,-341 264,-347 264,-353 264,-353 264,-365 264,-365 264,-371 258,-377 252,-377"/>
<text text-anchor="middle" x="161" y="-362" font-family="Helvetica,sans-Serif" font-size="10.00" fill="#00f2ff">Umask Applied: 027</text>
<text text-anchor="middle" x="161" y="-351" font-family="Helvetica,sans-Serif" font-size="10.00" fill="#00f2ff">(Masks Group write, World read/write/exec)</text>
</g>
<!-- Base_Perms&#45;&gt;Umask_Value -->
<g id="edge1" class="edge">
<title>Base_Perms&#45;&gt;Umask_Value</title>
<path fill="none" stroke="#ff00ff" d="M161,-413.81C161,-405.79 161,-396.05 161,-387.07"/>
<polygon fill="#ff00ff" stroke="#ff00ff" points="161,-377.03 165.5,-387.03 161,-382.03 161,-387.03 161,-387.03 161,-387.03 161,-382.03 156.5,-387.03 161,-377.03 161,-377.03"/>
</g>
<!-- Actual_Perms -->
<g id="node3" class="node">
<title>Actual_Perms</title>
<path fill="#161b22" stroke="#00f2ff" d="M228,-304C228,-304 94,-304 94,-304 88,-304 82,-298 82,-292 82,-292 82,-280 82,-280 82,-274 88,-268 94,-268 94,-268 228,-268 228,-268 234,-268 240,-274 240,-280 240,-280 240,-292 240,-292 240,-298 234,-304 228,-304"/>
<text text-anchor="middle" x="161" y="-289" font-family="Helvetica,sans-Serif" font-size="10.00" fill="#00f2ff">Directory Actual: 750 (drwxr&#45;x&#45;&#45;&#45;)</text>
<text text-anchor="middle" x="161" y="-278" font-family="Helvetica,sans-Serif" font-size="10.00" fill="#00f2ff">File Actual: 640 (&#45;rw&#45;r&#45;&#45;&#45;&#45;&#45;)</text>
</g>
<!-- Umask_Value&#45;&gt;Actual_Perms -->
<g id="edge2" class="edge">
<title>Umask_Value&#45;&gt;Actual_Perms</title>
<path fill="none" stroke="#ff00ff" d="M161,-340.81C161,-332.79 161,-323.05 161,-314.07"/>
<polygon fill="#ff00ff" stroke="#ff00ff" points="161,-304.03 165.5,-314.03 161,-309.03 161,-314.03 161,-314.03 161,-314.03 161,-309.03 156.5,-314.03 161,-304.03 161,-304.03"/>
</g>
<!-- Denied_Access -->
<g id="node4" class="node">
<title>Denied_Access</title>
<path fill="#161b22" stroke="#00f2ff" d="M238.5,-198C238.5,-198 83.5,-198 83.5,-198 77.5,-198 71.5,-192 71.5,-186 71.5,-186 71.5,-174 71.5,-174 71.5,-168 77.5,-162 83.5,-162 83.5,-162 238.5,-162 238.5,-162 244.5,-162 250.5,-168 250.5,-174 250.5,-174 250.5,-186 250.5,-186 250.5,-192 244.5,-198 238.5,-198"/>
<text text-anchor="middle" x="161" y="-183" font-family="Helvetica,sans-Serif" font-size="10.00" fill="#00f2ff">User &#39;jeb&#39; denied access</text>
<text text-anchor="middle" x="161" y="-172" font-family="Helvetica,sans-Serif" font-size="10.00" fill="#00f2ff">(Shell lookup bypasses /usr/local/bin)</text>
</g>
<!-- Actual_Perms&#45;&gt;Denied_Access -->
<g id="edge5" class="edge">
<title>Actual_Perms&#45;&gt;Denied_Access</title>
<path fill="none" stroke="#ff00ff" d="M161,-267.83C161,-251.64 161,-227.13 161,-208.27"/>
<polygon fill="#ff00ff" stroke="#ff00ff" points="161,-198.2 165.5,-208.2 161,-203.2 161,-208.2 161,-208.2 161,-208.2 161,-203.2 156.5,-208.2 161,-198.2 161,-198.2"/>
<text text-anchor="middle" x="197.5" y="-242.8" font-family="Helvetica,sans-Serif" font-size="9.00">Creates blockage</text>
</g>
<!-- Chmod_Cmd -->
<g id="node5" class="node">
<title>Chmod_Cmd</title>
<path fill="#161b22" stroke="#00f2ff" d="M222,-125C222,-125 100,-125 100,-125 94,-125 88,-119 88,-113 88,-113 88,-101 88,-101 88,-95 94,-89 100,-89 100,-89 222,-89 222,-89 228,-89 234,-95 234,-101 234,-101 234,-113 234,-113 234,-119 228,-125 222,-125"/>
<text text-anchor="middle" x="161" y="-110" font-family="Helvetica,sans-Serif" font-size="10.00" fill="#00f2ff">sudo chmod &#45;R go+rX</text>
<text text-anchor="middle" x="161" y="-99" font-family="Helvetica,sans-Serif" font-size="10.00" fill="#00f2ff">(Adds read &amp; dir execute bits)</text>
</g>
<!-- Denied_Access&#45;&gt;Chmod_Cmd -->
<g id="edge3" class="edge">
<title>Denied_Access&#45;&gt;Chmod_Cmd</title>
<path fill="none" stroke="#ff00ff" d="M161,-161.81C161,-153.79 161,-144.05 161,-135.07"/>
<polygon fill="#ff00ff" stroke="#ff00ff" points="161,-125.03 165.5,-135.03 161,-130.03 161,-135.03 161,-135.03 161,-135.03 161,-130.03 156.5,-135.03 161,-125.03 161,-125.03"/>
</g>
<!-- Fixed_Perms -->
<g id="node6" class="node">
<title>Fixed_Perms</title>
<path fill="#161b22" stroke="#00f2ff" d="M228,-52C228,-52 94,-52 94,-52 88,-52 82,-46 82,-40 82,-40 82,-28 82,-28 82,-22 88,-16 94,-16 94,-16 228,-16 228,-16 234,-16 240,-22 240,-28 240,-28 240,-40 240,-40 240,-46 234,-52 228,-52"/>
<text text-anchor="middle" x="161" y="-37" font-family="Helvetica,sans-Serif" font-size="10.00" fill="#00f2ff">Directory Fixed: 755 (drwxr&#45;xr&#45;x)</text>
<text text-anchor="middle" x="161" y="-26" font-family="Helvetica,sans-Serif" font-size="10.00" fill="#00f2ff">File Fixed: 644 (&#45;rw&#45;r&#45;&#45;r&#45;&#45;)</text>
</g>
<!-- Chmod_Cmd&#45;&gt;Fixed_Perms -->
<g id="edge4" class="edge">
<title>Chmod_Cmd&#45;&gt;Fixed_Perms</title>
<path fill="none" stroke="#ff00ff" d="M161,-88.81C161,-80.79 161,-71.05 161,-62.07"/>
<polygon fill="#ff00ff" stroke="#ff00ff" points="161,-52.03 165.5,-62.03 161,-57.03 161,-62.03 161,-62.03 161,-62.03 161,-57.03 156.5,-62.03 161,-52.03 161,-52.03"/>
</g>
</g>
</svg>
