<?xml version="1.0" encoding="UTF-8" standalone="no"?>
<!DOCTYPE svg PUBLIC "-//W3C//DTD SVG 1.1//EN"
 "http://www.w3.org/Graphics/SVG/1.1/DTD/svg11.dtd">
<!-- Generated by graphviz version 2.43.0 (0)
 -->
<!-- Title: LessonUmask Pages: 1 -->
<svg width="524pt" height="518pt"
 viewBox="0.00 0.00 524.06 517.55" xmlns="http://www.w3.org/2000/svg" xmlns:xlink="http://www.w3.org/1999/xlink">
<g id="graph0" class="graph" transform="scale(1 1) rotate(0) translate(4 513.55)">
<title>LessonUmask</title>
<polygon fill="#0d1117" stroke="transparent" points="-4,4 -4,-513.55 520.06,-513.55 520.06,4 -4,4"/>
<text text-anchor="middle" x="258.03" y="-7.8" font-family="Helvetica,sans-Serif" font-size="14.00" fill="#00f2ff">A2.3: Restrictive Umask Triage</text>
<!-- Umask -->
<g id="node1" class="node">
<title>Umask</title>
<path fill="#161b22" stroke="#ff0000" d="M227.56,-509.55C227.56,-509.55 114.56,-509.55 114.56,-509.55 108.56,-509.55 102.56,-503.55 102.56,-497.55 102.56,-497.55 102.56,-485.55 102.56,-485.55 102.56,-479.55 108.56,-473.55 114.56,-473.55 114.56,-473.55 227.56,-473.55 227.56,-473.55 233.56,-473.55 239.56,-479.55 239.56,-485.55 239.56,-485.55 239.56,-497.55 239.56,-497.55 239.56,-503.55 233.56,-509.55 227.56,-509.55"/>
<text text-anchor="middle" x="171.06" y="-487.85" font-family="Helvetica,sans-Serif" font-size="14.00" fill="#00f2ff">Sudo Umask (0027)</text>
</g>
<!-- Install -->
<g id="node2" class="node">
<title>Install</title>
<path fill="#161b22" stroke="#00f2ff" d="M330.19,-436.55C330.19,-436.55 81.97,-436.55 81.97,-436.55 75.97,-436.55 65.9,-432.13 61.83,-427.72 61.83,-427.72 8.07,-369.37 8.07,-369.37 4,-364.96 5.94,-360.55 11.94,-360.55 11.94,-360.55 260.16,-360.55 260.16,-360.55 266.16,-360.55 276.23,-364.96 280.29,-369.37 280.29,-369.37 334.06,-427.72 334.06,-427.72 338.13,-432.13 336.19,-436.55 330.19,-436.55"/>
<text text-anchor="middle" x="171.06" y="-402.35" font-family="Helvetica,sans-Serif" font-size="14.00" fill="#00f2ff">make install</text>
<text text-anchor="middle" x="171.06" y="-387.35" font-family="Helvetica,sans-Serif" font-size="14.00" fill="#00f2ff">(Directories created 750)</text>
</g>
<!-- Umask&#45;&gt;Install -->
<g id="edge1" class="edge">
<title>Umask&#45;&gt;Install</title>
<path fill="none" stroke="#ff00ff" d="M171.06,-473.43C171.06,-465.79 171.06,-456.38 171.06,-446.86"/>
<polygon fill="#ff00ff" stroke="#ff00ff" points="171.06,-436.57 175.56,-446.57 171.06,-441.57 171.06,-446.57 171.06,-446.57 171.06,-446.57 171.06,-441.57 166.56,-446.57 171.06,-436.57 171.06,-436.57"/>
</g>
<!-- Standard_User -->
<g id="node3" class="node">
<title>Standard_User</title>
<path fill="#161b22" stroke="#00f2ff" d="M398.56,-309.55C398.56,-309.55 291.56,-309.55 291.56,-309.55 285.56,-309.55 279.56,-303.55 279.56,-297.55 279.56,-297.55 279.56,-285.55 279.56,-285.55 279.56,-279.55 285.56,-273.55 291.56,-273.55 291.56,-273.55 398.56,-273.55 398.56,-273.55 404.56,-273.55 410.56,-279.55 410.56,-285.55 410.56,-285.55 410.56,-297.55 410.56,-297.55 410.56,-303.55 404.56,-309.55 398.56,-309.55"/>
<text text-anchor="middle" x="345.06" y="-287.85" font-family="Helvetica,sans-Serif" font-size="14.00" fill="#00f2ff">Standard User &#39;jeb&#39;</text>
</g>
<!-- Install&#45;&gt;Standard_User -->
<g id="edge2" class="edge">
<title>Install&#45;&gt;Standard_User</title>
<path fill="none" stroke="#ff00ff" d="M232.41,-360.53C257.69,-345.27 286.15,-328.1 308.14,-314.83"/>
<polygon fill="#ff00ff" stroke="#ff00ff" points="316.83,-309.58 310.59,-318.6 312.55,-312.17 308.27,-314.75 308.27,-314.75 308.27,-314.75 312.55,-312.17 305.94,-310.9 316.83,-309.58 316.83,-309.58"/>
<text text-anchor="middle" x="324.56" y="-331.35" font-family="Times,serif" font-size="14.00">Inaccessible to</text>
</g>
<!-- Denied -->
<g id="node4" class="node">
<title>Denied</title>
<ellipse fill="#161b22" stroke="#ff0000" cx="345.06" cy="-129.77" rx="106.55" ry="106.55"/>
<text text-anchor="middle" x="345.06" y="-133.57" font-family="Helvetica,sans-Serif" font-size="14.00" fill="#00f2ff">Permission Denied</text>
<text text-anchor="middle" x="345.06" y="-118.57" font-family="Helvetica,sans-Serif" font-size="14.00" fill="#00f2ff">(Cannot read/execute)</text>
</g>
<!-- Standard_User&#45;&gt;Denied -->
<g id="edge3" class="edge">
<title>Standard_User&#45;&gt;Denied</title>
<path fill="none" stroke="#ff00ff" d="M345.06,-273.45C345.06,-266.13 345.06,-256.91 345.06,-246.69"/>
<polygon fill="#ff00ff" stroke="#ff00ff" points="345.06,-236.62 349.56,-246.62 345.06,-241.62 345.06,-246.62 345.06,-246.62 345.06,-246.62 345.06,-241.62 340.56,-246.62 345.06,-236.62 345.06,-236.62"/>
</g>
<!-- Chmod_Fix -->
<g id="node5" class="node">
<title>Chmod_Fix</title>
<path fill="#161b22" stroke="#00ff00" d="M504.06,-417.55C504.06,-417.55 372.06,-417.55 372.06,-417.55 366.06,-417.55 360.06,-411.55 360.06,-405.55 360.06,-405.55 360.06,-391.55 360.06,-391.55 360.06,-385.55 366.06,-379.55 372.06,-379.55 372.06,-379.55 504.06,-379.55 504.06,-379.55 510.06,-379.55 516.06,-385.55 516.06,-391.55 516.06,-391.55 516.06,-405.55 516.06,-405.55 516.06,-411.55 510.06,-417.55 504.06,-417.55"/>
<text text-anchor="middle" x="438.06" y="-402.35" font-family="Helvetica,sans-Serif" font-size="14.00" fill="#00f2ff">chmod &#45;R go+rX</text>
<text text-anchor="middle" x="438.06" y="-387.35" font-family="Helvetica,sans-Serif" font-size="14.00" fill="#00f2ff">(Restores permissions)</text>
</g>
<!-- Chmod_Fix&#45;&gt;Standard_User -->
<g id="edge4" class="edge">
<title>Chmod_Fix&#45;&gt;Standard_User</title>
<path fill="none" stroke="#ff00ff" d="M421.86,-379.26C406.66,-362.09 383.79,-336.27 366.96,-317.26"/>
<polygon fill="#ff00ff" stroke="#ff00ff" points="360.15,-309.58 370.15,-314.09 363.47,-313.33 366.79,-317.07 366.79,-317.07 366.79,-317.07 363.47,-313.33 363.42,-320.05 360.15,-309.58 360.15,-309.58"/>
<text text-anchor="middle" x="438.56" y="-331.35" font-family="Times,serif" font-size="14.00">Enables access for</text>
</g>
</g>
</svg>
