<?xml version="1.0" encoding="UTF-8" standalone="no"?>
<!DOCTYPE svg PUBLIC "-//W3C//DTD SVG 1.1//EN"
 "http://www.w3.org/Graphics/SVG/1.1/DTD/svg11.dtd">
<!-- Generated by graphviz version 2.43.0 (0)
 -->
<!-- Title: LessonModules Pages: 1 -->
<svg width="383pt" height="623pt"
 viewBox="0.00 0.00 383.28 622.57" xmlns="http://www.w3.org/2000/svg" xmlns:xlink="http://www.w3.org/1999/xlink">
<g id="graph0" class="graph" transform="scale(1 1) rotate(0) translate(4 618.57)">
<title>LessonModules</title>
<polygon fill="#0d1117" stroke="transparent" points="-4,4 -4,-618.57 379.28,-618.57 379.28,4 -4,4"/>
<text text-anchor="middle" x="187.64" y="-7.8" font-family="Helvetica,sans-Serif" font-size="14.00" fill="#00f2ff">A2.5: Nginx Dynamic Module Conflicts</text>
<!-- Nginx_Upgrade -->
<g id="node1" class="node">
<title>Nginx_Upgrade</title>
<path fill="#161b22" stroke="#00f2ff" d="M232.28,-525.57C232.28,-525.57 108.28,-525.57 108.28,-525.57 102.28,-525.57 96.28,-519.57 96.28,-513.57 96.28,-513.57 96.28,-501.57 96.28,-501.57 96.28,-495.57 102.28,-489.57 108.28,-489.57 108.28,-489.57 232.28,-489.57 232.28,-489.57 238.28,-489.57 244.28,-495.57 244.28,-501.57 244.28,-501.57 244.28,-513.57 244.28,-513.57 244.28,-519.57 238.28,-525.57 232.28,-525.57"/>
<text text-anchor="middle" x="170.28" y="-503.87" font-family="Helvetica,sans-Serif" font-size="14.00" fill="#00f2ff">Nginx 1.30.2 Daemon</text>
</g>
<!-- System_Modules -->
<g id="node2" class="node">
<title>System_Modules</title>
<path fill="#161b22" stroke="#ff0000" d="M252.28,-438.57C252.28,-438.57 88.28,-438.57 88.28,-438.57 82.28,-438.57 76.28,-432.57 76.28,-426.57 76.28,-426.57 76.28,-412.57 76.28,-412.57 76.28,-406.57 82.28,-400.57 88.28,-400.57 88.28,-400.57 252.28,-400.57 252.28,-400.57 258.28,-400.57 264.28,-406.57 264.28,-412.57 264.28,-412.57 264.28,-426.57 264.28,-426.57 264.28,-432.57 258.28,-438.57 252.28,-438.57"/>
<text text-anchor="middle" x="170.28" y="-423.37" font-family="Helvetica,sans-Serif" font-size="14.00" fill="#00f2ff">Legacy Modules</text>
<text text-anchor="middle" x="170.28" y="-408.37" font-family="Helvetica,sans-Serif" font-size="14.00" fill="#00f2ff">(GeoIP2 / Stream for 1.18.0)</text>
</g>
<!-- Nginx_Upgrade&#45;&gt;System_Modules -->
<g id="edge1" class="edge">
<title>Nginx_Upgrade&#45;&gt;System_Modules</title>
<path fill="none" stroke="#ff00ff" d="M170.28,-489.17C170.28,-477.63 170.28,-462.22 170.28,-448.93"/>
<polygon fill="#ff00ff" stroke="#ff00ff" points="170.28,-438.84 174.78,-448.84 170.28,-443.84 170.28,-448.84 170.28,-448.84 170.28,-448.84 170.28,-443.84 165.78,-448.84 170.28,-438.84 170.28,-438.84"/>
<text text-anchor="middle" x="272.78" y="-460.37" font-family="Times,serif" font-size="14.00">Includes /etc/nginx/modules&#45;enabled/</text>
</g>
<!-- Load_Failure -->
<g id="node3" class="node">
<title>Load_Failure</title>
<ellipse fill="#161b22" stroke="#ff0000" cx="170.28" cy="-193.28" rx="170.07" ry="170.07"/>
<text text-anchor="middle" x="170.28" y="-189.58" font-family="Helvetica,sans-Serif" font-size="14.00" fill="#00f2ff">nginx: [emerg] module version mismatch</text>
</g>
<!-- System_Modules&#45;&gt;Load_Failure -->
<g id="edge2" class="edge">
<title>System_Modules&#45;&gt;Load_Failure</title>
<path fill="none" stroke="#ff00ff" d="M170.28,-400.22C170.28,-393 170.28,-383.99 170.28,-373.81"/>
<polygon fill="#ff00ff" stroke="#ff00ff" points="170.28,-363.7 174.78,-373.7 170.28,-368.7 170.28,-373.7 170.28,-373.7 170.28,-373.7 170.28,-368.7 165.78,-373.7 170.28,-363.7 170.28,-363.7"/>
</g>
<!-- Disabled_Dir -->
<g id="node4" class="node">
<title>Disabled_Dir</title>
<path fill="#161b22" stroke="#00ff00" d="M252.28,-614.57C252.28,-614.57 88.28,-614.57 88.28,-614.57 82.28,-614.57 76.28,-608.57 76.28,-602.57 76.28,-602.57 76.28,-588.57 76.28,-588.57 76.28,-582.57 82.28,-576.57 88.28,-576.57 88.28,-576.57 252.28,-576.57 252.28,-576.57 258.28,-576.57 264.28,-582.57 264.28,-588.57 264.28,-588.57 264.28,-602.57 264.28,-602.57 264.28,-608.57 258.28,-614.57 252.28,-614.57"/>
<text text-anchor="middle" x="170.28" y="-599.37" font-family="Helvetica,sans-Serif" font-size="14.00" fill="#00f2ff">/etc/nginx/modules&#45;disabled/</text>
<text text-anchor="middle" x="170.28" y="-584.37" font-family="Helvetica,sans-Serif" font-size="14.00" fill="#00f2ff">(Symlinks quarantined)</text>
</g>
<!-- Disabled_Dir&#45;&gt;Nginx_Upgrade -->
<g id="edge3" class="edge">
<title>Disabled_Dir&#45;&gt;Nginx_Upgrade</title>
<path fill="none" stroke="#ff00ff" d="M170.28,-576.33C170.28,-564.5 170.28,-548.89 170.28,-535.62"/>
<polygon fill="#ff00ff" stroke="#ff00ff" points="170.28,-525.61 174.78,-535.61 170.28,-530.61 170.28,-535.61 170.28,-535.61 170.28,-535.61 170.28,-530.61 165.78,-535.61 170.28,-525.61 170.28,-525.61"/>
<text text-anchor="middle" x="244.28" y="-547.37" font-family="Times,serif" font-size="14.00">Config syntax resolves OK</text>
</g>
</g>
</svg>
