<?xml version="1.0" encoding="UTF-8" standalone="no"?>
<!DOCTYPE svg PUBLIC "-//W3C//DTD SVG 1.1//EN"
 "http://www.w3.org/Graphics/SVG/1.1/DTD/svg11.dtd">
<!-- Generated by graphviz version 2.43.0 (0)
 -->
<!-- Title: LessonMismatch Pages: 1 -->
<svg width="579pt" height="670pt"
 viewBox="0.00 0.00 579.00 669.69" xmlns="http://www.w3.org/2000/svg" xmlns:xlink="http://www.w3.org/1999/xlink">
<g id="graph0" class="graph" transform="scale(1 1) rotate(0) translate(4 665.69)">
<title>LessonMismatch</title>
<polygon fill="#0d1117" stroke="transparent" points="-4,4 -4,-665.69 575,-665.69 575,4 -4,4"/>
<text text-anchor="middle" x="285.5" y="-644.89" font-family="Helvetica,sans-Serif" font-size="16.00" fill="#00f2ff">A2.1: OpenSSL Version Mismatch Collision Loop</text>
<g id="clust1" class="cluster">
<title>cluster_ldconfig_pollution</title>
<polygon fill="#0d1117" stroke="#ff0000" points="8,-452.69 8,-627.69 301,-627.69 301,-452.69 8,-452.69"/>
<text text-anchor="middle" x="154.5" y="-610.89" font-family="Helvetica,sans-Serif" font-size="16.00" fill="#ff0000">Global Loader Configuration (Polluted)</text>
</g>
<g id="clust2" class="cluster">
<title>cluster_version_check</title>
<polygon fill="#0d1117" stroke="#ffff00" points="309,-273.69 309,-530.69 563,-530.69 563,-273.69 309,-273.69"/>
<text text-anchor="middle" x="436" y="-513.89" font-family="Helvetica,sans-Serif" font-size="16.00" fill="#ffff00">Nginx Version Assertion Check</text>
</g>
<!-- Ld_Conf_File -->
<g id="node1" class="node">
<title>Ld_Conf_File</title>
<path fill="#161b22" stroke="#00f2ff" d="M281,-593.69C281,-593.69 135,-593.69 135,-593.69 129,-593.69 123,-587.69 123,-581.69 123,-581.69 123,-569.69 123,-569.69 123,-563.69 129,-557.69 135,-557.69 135,-557.69 281,-557.69 281,-557.69 287,-557.69 293,-563.69 293,-569.69 293,-569.69 293,-581.69 293,-581.69 293,-587.69 287,-593.69 281,-593.69"/>
<text text-anchor="middle" x="208" y="-578.69" font-family="Helvetica,sans-Serif" font-size="10.00" fill="#00f2ff">/etc/ld.so.conf.d/openssl&#45;3.5.6.conf</text>
<text text-anchor="middle" x="208" y="-567.69" font-family="Helvetica,sans-Serif" font-size="10.00" fill="#00f2ff">(Contains /usr/local/ssl/lib64)</text>
</g>
<!-- Ldconfig_Cmd -->
<g id="node2" class="node">
<title>Ldconfig_Cmd</title>
<path fill="#161b22" stroke="#00f2ff" d="M279.5,-496.69C279.5,-496.69 138.5,-496.69 138.5,-496.69 132.5,-496.69 126.5,-490.69 126.5,-484.69 126.5,-484.69 126.5,-472.69 126.5,-472.69 126.5,-466.69 132.5,-460.69 138.5,-460.69 138.5,-460.69 279.5,-460.69 279.5,-460.69 285.5,-460.69 291.5,-466.69 291.5,-472.69 291.5,-472.69 291.5,-484.69 291.5,-484.69 291.5,-490.69 285.5,-496.69 279.5,-496.69"/>
<text text-anchor="middle" x="209" y="-481.69" font-family="Helvetica,sans-Serif" font-size="10.00" fill="#00f2ff">sudo ldconfig</text>
<text text-anchor="middle" x="209" y="-470.69" font-family="Helvetica,sans-Serif" font-size="10.00" fill="#00f2ff">(Regenerates dynamic link cache)</text>
</g>
<!-- Ld_Conf_File&#45;&gt;Ldconfig_Cmd -->
<g id="edge1" class="edge">
<title>Ld_Conf_File&#45;&gt;Ldconfig_Cmd</title>
<path fill="none" stroke="#ff00ff" d="M208.18,-557.26C208.33,-543.34 208.54,-523.55 208.71,-507.45"/>
<polygon fill="#ff00ff" stroke="#ff00ff" points="208.82,-497 213.21,-507.05 208.77,-502 208.71,-507 208.71,-507 208.71,-507 208.77,-502 204.21,-506.95 208.82,-497 208.82,-497"/>
</g>
<!-- Ld_Cache_Load -->
<g id="node4" class="node">
<title>Ld_Cache_Load</title>
<path fill="#161b22" stroke="#00f2ff" d="M495,-414.69C495,-414.69 347,-414.69 347,-414.69 341,-414.69 335,-408.69 335,-402.69 335,-402.69 335,-390.69 335,-390.69 335,-384.69 341,-378.69 347,-378.69 347,-378.69 495,-378.69 495,-378.69 501,-378.69 507,-384.69 507,-390.69 507,-390.69 507,-402.69 507,-402.69 507,-408.69 501,-414.69 495,-414.69"/>
<text text-anchor="middle" x="421" y="-399.69" font-family="Helvetica,sans-Serif" font-size="10.00" fill="#00f2ff">Dynamic Loader (ld.so)</text>
<text text-anchor="middle" x="421" y="-388.69" font-family="Helvetica,sans-Serif" font-size="10.00" fill="#00f2ff">Loads libssl.so.3 (3.5.6 / 30500060)</text>
</g>
<!-- Ldconfig_Cmd&#45;&gt;Ld_Cache_Load -->
<g id="edge5" class="edge">
<title>Ldconfig_Cmd&#45;&gt;Ld_Cache_Load</title>
<path fill="none" stroke="#ff0055" d="M239.23,-460.59C256.15,-451.48 277.84,-440.57 298,-432.69 312.16,-427.15 327.55,-422.07 342.5,-417.6"/>
<polygon fill="#ff0055" stroke="#ff0055" points="352.24,-414.75 343.9,-421.88 347.44,-416.16 342.64,-417.56 342.64,-417.56 342.64,-417.56 347.44,-416.16 341.38,-413.24 352.24,-414.75 352.24,-414.75"/>
<text text-anchor="middle" x="357.5" y="-435.49" font-family="Helvetica,sans-Serif" font-size="9.00">Pollutes system library cache</text>
</g>
<!-- System_Nginx -->
<g id="node3" class="node">
<title>System_Nginx</title>
<path fill="#161b22" stroke="#00f2ff" d="M498.5,-496.69C498.5,-496.69 343.5,-496.69 343.5,-496.69 337.5,-496.69 331.5,-490.69 331.5,-484.69 331.5,-484.69 331.5,-472.69 331.5,-472.69 331.5,-466.69 337.5,-460.69 343.5,-460.69 343.5,-460.69 498.5,-460.69 498.5,-460.69 504.5,-460.69 510.5,-466.69 510.5,-472.69 510.5,-472.69 510.5,-484.69 510.5,-484.69 510.5,-490.69 504.5,-496.69 498.5,-496.69"/>
<text text-anchor="middle" x="421" y="-481.69" font-family="Helvetica,sans-Serif" font-size="10.00" fill="#00f2ff">System Nginx (nginx 1.18.0)</text>
<text text-anchor="middle" x="421" y="-470.69" font-family="Helvetica,sans-Serif" font-size="10.00" fill="#00f2ff">(Expects OpenSSL 3.0.2 / 30000020)</text>
</g>
<!-- System_Nginx&#45;&gt;Ld_Cache_Load -->
<g id="edge2" class="edge">
<title>System_Nginx&#45;&gt;Ld_Cache_Load</title>
<path fill="none" stroke="#ff00ff" d="M421,-460.33C421,-449.99 421,-436.63 421,-424.91"/>
<polygon fill="#ff00ff" stroke="#ff00ff" points="421,-414.74 425.5,-424.74 421,-419.74 421,-424.74 421,-424.74 421,-424.74 421,-419.74 416.5,-424.74 421,-414.74 421,-414.74"/>
<text text-anchor="middle" x="462" y="-435.49" font-family="Helvetica,sans-Serif" font-size="9.00">Requests libssl.so.3</text>
</g>
<!-- Assert_Compare -->
<g id="node5" class="node">
<title>Assert_Compare</title>
<path fill="#161b22" stroke="#00f2ff" d="M424.36,-338.75C424.36,-338.75 328.64,-314.62 328.64,-314.62 322.82,-313.16 322.82,-310.22 328.64,-308.75 328.64,-308.75 424.36,-284.62 424.36,-284.62 430.18,-283.16 441.82,-283.16 447.64,-284.62 447.64,-284.62 543.36,-308.75 543.36,-308.75 549.18,-310.22 549.18,-313.16 543.36,-314.62 543.36,-314.62 447.64,-338.75 447.64,-338.75 441.82,-340.22 430.18,-340.22 424.36,-338.75"/>
<text text-anchor="middle" x="436" y="-314.69" font-family="Helvetica,sans-Serif" font-size="10.00" fill="#00f2ff">Assertion check:</text>
<text text-anchor="middle" x="436" y="-303.69" font-family="Helvetica,sans-Serif" font-size="10.00" fill="#00f2ff">30000020 == 30500060</text>
</g>
<!-- Ld_Cache_Load&#45;&gt;Assert_Compare -->
<g id="edge3" class="edge">
<title>Ld_Cache_Load&#45;&gt;Assert_Compare</title>
<path fill="none" stroke="#ff00ff" d="M424.11,-378.49C425.57,-370.39 427.38,-360.37 429.14,-350.62"/>
<polygon fill="#ff00ff" stroke="#ff00ff" points="430.95,-340.65 433.6,-351.29 430.06,-345.57 429.17,-350.49 429.17,-350.49 429.17,-350.49 430.06,-345.57 424.74,-349.69 430.95,-340.65 430.95,-340.65"/>
</g>
<!-- Crash_Node -->
<g id="node6" class="node">
<title>Crash_Node</title>
<ellipse fill="#161b22" stroke="#ff0000" cx="436" cy="-117.84" rx="113.69" ry="113.69"/>
<ellipse fill="none" stroke="#ff0000" cx="436" cy="-117.84" rx="117.69" ry="117.69"/>
<text text-anchor="middle" x="436" y="-120.84" font-family="Helvetica,sans-Serif" font-size="10.00" fill="#ff0000">NGINX Startup Crash</text>
<text text-anchor="middle" x="436" y="-109.84" font-family="Helvetica,sans-Serif" font-size="10.00" fill="#ff0000">(Exit Code 255 / Mismatch Error)</text>
</g>
<!-- Assert_Compare&#45;&gt;Crash_Node -->
<g id="edge4" class="edge">
<title>Assert_Compare&#45;&gt;Crash_Node</title>
<path fill="none" stroke="#ff00ff" d="M436,-281.55C436,-271.36 436,-259.17 436,-246.12"/>
<polygon fill="#ff00ff" stroke="#ff00ff" points="436,-235.98 440.5,-245.98 436,-240.98 436,-245.98 436,-245.98 436,-245.98 436,-240.98 431.5,-245.98 436,-235.98 436,-235.98"/>
<text text-anchor="middle" x="444" y="-256.49" font-family="Helvetica,sans-Serif" font-size="9.00">Fail</text>
</g>
</g>
</svg>
