<?xml version="1.0" encoding="UTF-8" standalone="no"?>
<!DOCTYPE svg PUBLIC "-//W3C//DTD SVG 1.1//EN"
 "http://www.w3.org/Graphics/SVG/1.1/DTD/svg11.dtd">
<!-- Generated by graphviz version 2.43.0 (0)
 -->
<!-- Title: LessonModules Pages: 1 -->
<svg width="401pt" height="526pt"
 viewBox="0.00 0.00 401.00 526.00" xmlns="http://www.w3.org/2000/svg" xmlns:xlink="http://www.w3.org/1999/xlink">
<g id="graph0" class="graph" transform="scale(1 1) rotate(0) translate(4 522)">
<title>LessonModules</title>
<polygon fill="#0d1117" stroke="transparent" points="-4,4 -4,-522 397,-522 397,4 -4,4"/>
<text text-anchor="middle" x="196.5" y="-501.2" font-family="Helvetica,sans-Serif" font-size="16.00" fill="#00f2ff">A2.5: Nginx Dynamic Module Deconfliction Workflow</text>
<g id="clust1" class="cluster">
<title>cluster_nginx_conflict</title>
<polygon fill="#0d1117" stroke="#ff0000" points="83.5,-260 83.5,-484 309.5,-484 309.5,-260 83.5,-260"/>
<text text-anchor="middle" x="196.5" y="-467.2" font-family="Helvetica,sans-Serif" font-size="16.00" fill="#ff0000">Module Load Conflict</text>
</g>
<g id="clust2" class="cluster">
<title>cluster_nginx_quarantine</title>
<polygon fill="#0d1117" stroke="#00ff00" points="70.5,-8 70.5,-232 322.5,-232 322.5,-8 70.5,-8"/>
<text text-anchor="middle" x="196.5" y="-215.2" font-family="Helvetica,sans-Serif" font-size="16.00" fill="#00ff00">Quarantine / Deconfliction Action</text>
</g>
<!-- Nginx_Config -->
<g id="node1" class="node">
<title>Nginx_Config</title>
<path fill="#161b22" stroke="#00f2ff" d="M289,-450C289,-450 104,-450 104,-450 98,-450 92,-444 92,-438 92,-438 92,-426 92,-426 92,-420 98,-414 104,-414 104,-414 289,-414 289,-414 295,-414 301,-420 301,-426 301,-426 301,-438 301,-438 301,-444 295,-450 289,-450"/>
<text text-anchor="middle" x="196.5" y="-435" font-family="Helvetica,sans-Serif" font-size="10.00" fill="#00f2ff">nginx.conf</text>
<text text-anchor="middle" x="196.5" y="-424" font-family="Helvetica,sans-Serif" font-size="10.00" fill="#00f2ff">(includes /etc/nginx/modules&#45;enabled/*.conf)</text>
</g>
<!-- Legacy_Module -->
<g id="node2" class="node">
<title>Legacy_Module</title>
<path fill="#161b22" stroke="#00f2ff" d="M274.5,-377C274.5,-377 118.5,-377 118.5,-377 112.5,-377 106.5,-371 106.5,-365 106.5,-365 106.5,-353 106.5,-353 106.5,-347 112.5,-341 118.5,-341 118.5,-341 274.5,-341 274.5,-341 280.5,-341 286.5,-347 286.5,-353 286.5,-353 286.5,-365 286.5,-365 286.5,-371 280.5,-377 274.5,-377"/>
<text text-anchor="middle" x="196.5" y="-362" font-family="Helvetica,sans-Serif" font-size="10.00" fill="#00f2ff">ngx_http_geoip2_module.so</text>
<text text-anchor="middle" x="196.5" y="-351" font-family="Helvetica,sans-Serif" font-size="10.00" fill="#00f2ff">(Compiled for 1.18.0 &#45; Hash 1018000)</text>
</g>
<!-- Nginx_Config&#45;&gt;Legacy_Module -->
<g id="edge1" class="edge">
<title>Nginx_Config&#45;&gt;Legacy_Module</title>
<path fill="none" stroke="#ff00ff" d="M196.5,-413.81C196.5,-405.79 196.5,-396.05 196.5,-387.07"/>
<polygon fill="#ff00ff" stroke="#ff00ff" points="196.5,-377.03 201,-387.03 196.5,-382.03 196.5,-387.03 196.5,-387.03 196.5,-387.03 196.5,-382.03 192,-387.03 196.5,-377.03 196.5,-377.03"/>
</g>
<!-- Mismatch_Error -->
<g id="node3" class="node">
<title>Mismatch_Error</title>
<path fill="#161b22" stroke="#ff0000" d="M281.5,-304C281.5,-304 111.5,-304 111.5,-304 105.5,-304 99.5,-298 99.5,-292 99.5,-292 99.5,-280 99.5,-280 99.5,-274 105.5,-268 111.5,-268 111.5,-268 281.5,-268 281.5,-268 287.5,-268 293.5,-274 293.5,-280 293.5,-280 293.5,-292 293.5,-292 293.5,-298 287.5,-304 281.5,-304"/>
<text text-anchor="middle" x="196.5" y="-289" font-family="Helvetica,sans-Serif" font-size="10.00" fill="#00f2ff">nginx: [emerg] module version mismatch</text>
<text text-anchor="middle" x="196.5" y="-278" font-family="Helvetica,sans-Serif" font-size="10.00" fill="#00f2ff">(Expected 1.30.2 &#45; Hash 1030002)</text>
</g>
<!-- Legacy_Module&#45;&gt;Mismatch_Error -->
<g id="edge2" class="edge">
<title>Legacy_Module&#45;&gt;Mismatch_Error</title>
<path fill="none" stroke="#ff00ff" d="M196.5,-340.81C196.5,-332.79 196.5,-323.05 196.5,-314.07"/>
<polygon fill="#ff00ff" stroke="#ff00ff" points="196.5,-304.03 201,-314.03 196.5,-309.03 196.5,-314.03 196.5,-314.03 196.5,-314.03 196.5,-309.03 192,-314.03 196.5,-304.03 196.5,-304.03"/>
</g>
<!-- Grep_Verification -->
<g id="node4" class="node">
<title>Grep_Verification</title>
<path fill="#161b22" stroke="#00f2ff" d="M265,-198C265,-198 128,-198 128,-198 122,-198 116,-192 116,-186 116,-186 116,-174 116,-174 116,-168 122,-162 128,-162 128,-162 265,-162 265,-162 271,-162 277,-168 277,-174 277,-174 277,-186 277,-186 277,-192 271,-198 265,-198"/>
<text text-anchor="middle" x="196.5" y="-183" font-family="Helvetica,sans-Serif" font-size="10.00" fill="#00f2ff">sudo grep &#45;r geoip</text>
<text text-anchor="middle" x="196.5" y="-172" font-family="Helvetica,sans-Serif" font-size="10.00" fill="#00f2ff">(Verified geoip is unused in sites)</text>
</g>
<!-- Mismatch_Error&#45;&gt;Grep_Verification -->
<g id="edge5" class="edge">
<title>Mismatch_Error&#45;&gt;Grep_Verification</title>
<path fill="none" stroke="#ff00ff" d="M196.5,-267.83C196.5,-251.64 196.5,-227.13 196.5,-208.27"/>
<polygon fill="#ff00ff" stroke="#ff00ff" points="196.5,-198.2 201,-208.2 196.5,-203.2 196.5,-208.2 196.5,-208.2 196.5,-208.2 196.5,-203.2 192,-208.2 196.5,-198.2 196.5,-198.2"/>
<text text-anchor="middle" x="226.5" y="-242.8" font-family="Helvetica,sans-Serif" font-size="9.00">Triggers triage</text>
</g>
<!-- Quarantine_Cmd -->
<g id="node5" class="node">
<title>Quarantine_Cmd</title>
<path fill="#161b22" stroke="#00f2ff" d="M293.5,-125C293.5,-125 99.5,-125 99.5,-125 93.5,-125 87.5,-119 87.5,-113 87.5,-113 87.5,-101 87.5,-101 87.5,-95 93.5,-89 99.5,-89 99.5,-89 293.5,-89 293.5,-89 299.5,-89 305.5,-95 305.5,-101 305.5,-101 305.5,-113 305.5,-113 305.5,-119 299.5,-125 293.5,-125"/>
<text text-anchor="middle" x="196.5" y="-104.5" font-family="Helvetica,sans-Serif" font-size="10.00" fill="#00f2ff">sudo mv modules&#45;enabled/ /modules&#45;disabled/</text>
</g>
<!-- Grep_Verification&#45;&gt;Quarantine_Cmd -->
<g id="edge3" class="edge">
<title>Grep_Verification&#45;&gt;Quarantine_Cmd</title>
<path fill="none" stroke="#ff00ff" d="M196.5,-161.81C196.5,-153.79 196.5,-144.05 196.5,-135.07"/>
<polygon fill="#ff00ff" stroke="#ff00ff" points="196.5,-125.03 201,-135.03 196.5,-130.03 196.5,-135.03 196.5,-135.03 196.5,-135.03 196.5,-130.03 192,-135.03 196.5,-125.03 196.5,-125.03"/>
</g>
<!-- Success_Check -->
<g id="node6" class="node">
<title>Success_Check</title>
<path fill="#161b22" stroke="#00ff00" d="M282.5,-52C282.5,-52 110.5,-52 110.5,-52 104.5,-52 98.5,-46 98.5,-40 98.5,-40 98.5,-28 98.5,-28 98.5,-22 104.5,-16 110.5,-16 110.5,-16 282.5,-16 282.5,-16 288.5,-16 294.5,-22 294.5,-28 294.5,-28 294.5,-40 294.5,-40 294.5,-46 288.5,-52 282.5,-52"/>
<text text-anchor="middle" x="196.5" y="-37" font-family="Helvetica,sans-Serif" font-size="10.00" fill="#00f2ff">nginx &#45;t</text>
<text text-anchor="middle" x="196.5" y="-26" font-family="Helvetica,sans-Serif" font-size="10.00" fill="#00f2ff">(Configuration Syntax Check successful)</text>
</g>
<!-- Quarantine_Cmd&#45;&gt;Success_Check -->
<g id="edge4" class="edge">
<title>Quarantine_Cmd&#45;&gt;Success_Check</title>
<path fill="none" stroke="#ff00ff" d="M196.5,-88.81C196.5,-80.79 196.5,-71.05 196.5,-62.07"/>
<polygon fill="#ff00ff" stroke="#ff00ff" points="196.5,-52.03 201,-62.03 196.5,-57.03 196.5,-62.03 196.5,-62.03 196.5,-62.03 196.5,-57.03 192,-62.03 196.5,-52.03 196.5,-52.03"/>
</g>
</g>
</svg>
