<?xml version="1.0" encoding="UTF-8" standalone="no"?>
<!DOCTYPE svg PUBLIC "-//W3C//DTD SVG 1.1//EN"
 "http://www.w3.org/Graphics/SVG/1.1/DTD/svg11.dtd">
<!-- Generated by graphviz version 2.43.0 (0)
 -->
<!-- Title: PipeVersionCheck Pages: 1 -->
<svg width="538pt" height="340pt"
 viewBox="0.00 0.00 538.00 340.00" xmlns="http://www.w3.org/2000/svg" xmlns:xlink="http://www.w3.org/1999/xlink">
<g id="graph0" class="graph" transform="scale(1 1) rotate(0) translate(4 336)">
<title>PipeVersionCheck</title>
<polygon fill="#0d1117" stroke="transparent" points="-4,4 -4,-336 534,-336 534,4 -4,4"/>
<text text-anchor="middle" x="265" y="-315.2" font-family="Helvetica,sans-Serif" font-size="16.00" fill="#00f2ff">A5.5: Automated Version Auditor Check Pipeline</text>
<g id="clust1" class="cluster">
<title>cluster_local_audit</title>
<polygon fill="#0d1117" stroke="#ffff00" points="8,-147 8,-298 239,-298 239,-147 8,-147"/>
<text text-anchor="middle" x="123.5" y="-281.2" font-family="Helvetica,sans-Serif" font-size="16.00" fill="#ffff00">Read Local Software Headers</text>
</g>
<g id="clust2" class="cluster">
<title>cluster_remote_audit</title>
<polygon fill="#0d1117" stroke="#00ff00" points="247,-147 247,-298 522,-298 522,-147 247,-147"/>
<text text-anchor="middle" x="384.5" y="-281.2" font-family="Helvetica,sans-Serif" font-size="16.00" fill="#00ff00">Fetch Latest Upstream Release Info</text>
</g>
<!-- Exec_Local -->
<g id="node1" class="node">
<title>Exec_Local</title>
<path fill="#161b22" stroke="#00f2ff" d="M219,-264C219,-264 105,-264 105,-264 99,-264 93,-258 93,-252 93,-252 93,-240 93,-240 93,-234 99,-228 105,-228 105,-228 219,-228 219,-228 225,-228 231,-234 231,-240 231,-240 231,-252 231,-252 231,-258 225,-264 219,-264"/>
<text text-anchor="middle" x="162" y="-243.5" font-family="Helvetica,sans-Serif" font-size="10.00" fill="#00f2ff">Execute version commands</text>
</g>
<!-- Parse_Local -->
<g id="node2" class="node">
<title>Parse_Local</title>
<path fill="#161b22" stroke="#00f2ff" d="M216.5,-191C216.5,-191 117.5,-191 117.5,-191 111.5,-191 105.5,-185 105.5,-179 105.5,-179 105.5,-167 105.5,-167 105.5,-161 111.5,-155 117.5,-155 117.5,-155 216.5,-155 216.5,-155 222.5,-155 228.5,-161 228.5,-167 228.5,-167 228.5,-179 228.5,-179 228.5,-185 222.5,-191 216.5,-191"/>
<text text-anchor="middle" x="167" y="-176" font-family="Helvetica,sans-Serif" font-size="10.00" fill="#00f2ff">Extract version numbers</text>
<text text-anchor="middle" x="167" y="-165" font-family="Helvetica,sans-Serif" font-size="10.00" fill="#00f2ff">(e.g., 3.5.6 / 1.30.2)</text>
</g>
<!-- Exec_Local&#45;&gt;Parse_Local -->
<g id="edge1" class="edge">
<title>Exec_Local&#45;&gt;Parse_Local</title>
<path fill="none" stroke="#ff00ff" d="M163.21,-227.81C163.78,-219.79 164.46,-210.05 165.09,-201.07"/>
<polygon fill="#ff00ff" stroke="#ff00ff" points="165.8,-191.03 169.59,-201.32 165.45,-196.02 165.1,-201 165.1,-201 165.1,-201 165.45,-196.02 160.61,-200.69 165.8,-191.03 165.8,-191.03"/>
</g>
<!-- Compare_Check -->
<g id="node5" class="node">
<title>Compare_Check</title>
<path fill="#161b22" stroke="#ffff00" d="M242.1,-116.43C242.1,-116.43 129.34,-101.57 129.34,-101.57 123.39,-100.78 123.39,-99.22 129.34,-98.43 129.34,-98.43 242.1,-83.57 242.1,-83.57 248.05,-82.78 259.95,-82.78 265.9,-83.57 265.9,-83.57 378.66,-98.43 378.66,-98.43 384.61,-99.22 384.61,-100.78 378.66,-101.57 378.66,-101.57 265.9,-116.43 265.9,-116.43 259.95,-117.22 248.05,-117.22 242.1,-116.43"/>
<text text-anchor="middle" x="254" y="-97.5" font-family="Helvetica,sans-Serif" font-size="10.00" fill="#00f2ff">Local Version &lt; Remote Version?</text>
</g>
<!-- Parse_Local&#45;&gt;Compare_Check -->
<g id="edge3" class="edge">
<title>Parse_Local&#45;&gt;Compare_Check</title>
<path fill="none" stroke="#ff00ff" d="M188.06,-154.81C200.02,-145.05 215.1,-132.74 227.82,-122.36"/>
<polygon fill="#ff00ff" stroke="#ff00ff" points="235.79,-115.87 230.88,-125.67 231.91,-119.03 228.04,-122.19 228.04,-122.19 228.04,-122.19 231.91,-119.03 225.19,-118.7 235.79,-115.87 235.79,-115.87"/>
</g>
<!-- Curl_Remote -->
<g id="node3" class="node">
<title>Curl_Remote</title>
<path fill="#161b22" stroke="#00f2ff" d="M454.5,-264C454.5,-264 267.5,-264 267.5,-264 261.5,-264 255.5,-258 255.5,-252 255.5,-252 255.5,-240 255.5,-240 255.5,-234 261.5,-228 267.5,-228 267.5,-228 454.5,-228 454.5,-228 460.5,-228 466.5,-234 466.5,-240 466.5,-240 466.5,-252 466.5,-252 466.5,-258 460.5,-264 454.5,-264"/>
<text text-anchor="middle" x="361" y="-249" font-family="Helvetica,sans-Serif" font-size="10.00" fill="#00f2ff">curl release portal APIs</text>
<text text-anchor="middle" x="361" y="-238" font-family="Helvetica,sans-Serif" font-size="10.00" fill="#00f2ff">(GitHub API JSON / Nginx download HTML)</text>
</g>
<!-- Parse_Remote -->
<g id="node4" class="node">
<title>Parse_Remote</title>
<path fill="#161b22" stroke="#00f2ff" d="M395,-191C395,-191 287,-191 287,-191 281,-191 275,-185 275,-179 275,-179 275,-167 275,-167 275,-161 281,-155 287,-155 287,-155 395,-155 395,-155 401,-155 407,-161 407,-167 407,-167 407,-179 407,-179 407,-185 401,-191 395,-191"/>
<text text-anchor="middle" x="341" y="-176" font-family="Helvetica,sans-Serif" font-size="10.00" fill="#00f2ff">Extract target release tags</text>
<text text-anchor="middle" x="341" y="-165" font-family="Helvetica,sans-Serif" font-size="10.00" fill="#00f2ff">(Regex version parsing)</text>
</g>
<!-- Curl_Remote&#45;&gt;Parse_Remote -->
<g id="edge2" class="edge">
<title>Curl_Remote&#45;&gt;Parse_Remote</title>
<path fill="none" stroke="#ff00ff" d="M356.16,-227.81C353.87,-219.7 351.09,-209.84 348.54,-200.78"/>
<polygon fill="#ff00ff" stroke="#ff00ff" points="345.8,-191.03 352.84,-199.43 347.15,-195.84 348.51,-200.65 348.51,-200.65 348.51,-200.65 347.15,-195.84 344.18,-201.87 345.8,-191.03 345.8,-191.03"/>
</g>
<!-- Parse_Remote&#45;&gt;Compare_Check -->
<g id="edge4" class="edge">
<title>Parse_Remote&#45;&gt;Compare_Check</title>
<path fill="none" stroke="#ff00ff" d="M319.94,-154.81C307.98,-145.05 292.9,-132.74 280.18,-122.36"/>
<polygon fill="#ff00ff" stroke="#ff00ff" points="272.21,-115.87 282.81,-118.7 276.09,-119.03 279.96,-122.19 279.96,-122.19 279.96,-122.19 276.09,-119.03 277.12,-125.67 272.21,-115.87 272.21,-115.87"/>
</g>
<!-- Alert_Warning -->
<g id="node6" class="node">
<title>Alert_Warning</title>
<path fill="#161b22" stroke="#ff0000" d="M245.5,-36C245.5,-36 102.5,-36 102.5,-36 96.5,-36 90.5,-30 90.5,-24 90.5,-24 90.5,-12 90.5,-12 90.5,-6 96.5,0 102.5,0 102.5,0 245.5,0 245.5,0 251.5,0 257.5,-6 257.5,-12 257.5,-12 257.5,-24 257.5,-24 257.5,-30 251.5,-36 245.5,-36"/>
<text text-anchor="middle" x="174" y="-21" font-family="Helvetica,sans-Serif" font-size="10.00" fill="#00f2ff">Output WARNING to console/logs</text>
<text text-anchor="middle" x="174" y="-10" font-family="Helvetica,sans-Serif" font-size="10.00" fill="#00f2ff">(Triggers update workflow)</text>
</g>
<!-- Compare_Check&#45;&gt;Alert_Warning -->
<g id="edge5" class="edge">
<title>Compare_Check&#45;&gt;Alert_Warning</title>
<path fill="none" stroke="#ff00ff" d="M238.95,-83.95C227.6,-72.6 211.79,-56.79 198.61,-43.61"/>
<polygon fill="#ff00ff" stroke="#ff00ff" points="191.2,-36.2 201.46,-40.09 194.74,-39.74 198.27,-43.27 198.27,-43.27 198.27,-43.27 194.74,-39.74 195.09,-46.46 191.2,-36.2 191.2,-36.2"/>
<text text-anchor="middle" x="225.5" y="-56.8" font-family="Helvetica,sans-Serif" font-size="9.00">Yes</text>
</g>
<!-- Success_Report -->
<g id="node7" class="node">
<title>Success_Report</title>
<path fill="#161b22" stroke="#00ff00" d="M382.5,-36C382.5,-36 287.5,-36 287.5,-36 281.5,-36 275.5,-30 275.5,-24 275.5,-24 275.5,-12 275.5,-12 275.5,-6 281.5,0 287.5,0 287.5,0 382.5,0 382.5,0 388.5,0 394.5,-6 394.5,-12 394.5,-12 394.5,-24 394.5,-24 394.5,-30 388.5,-36 382.5,-36"/>
<text text-anchor="middle" x="335" y="-21" font-family="Helvetica,sans-Serif" font-size="10.00" fill="#00f2ff">Output OK Status</text>
<text text-anchor="middle" x="335" y="-10" font-family="Helvetica,sans-Serif" font-size="10.00" fill="#00f2ff">(Software is up to date)</text>
</g>
<!-- Compare_Check&#45;&gt;Success_Report -->
<g id="edge6" class="edge">
<title>Compare_Check&#45;&gt;Success_Report</title>
<path fill="none" stroke="#ff00ff" d="M269.24,-83.95C280.84,-72.5 297.04,-56.49 310.46,-43.24"/>
<polygon fill="#ff00ff" stroke="#ff00ff" points="317.58,-36.2 313.63,-46.43 314.03,-39.72 310.47,-43.23 310.47,-43.23 310.47,-43.23 314.03,-39.72 307.31,-40.03 317.58,-36.2 317.58,-36.2"/>
<text text-anchor="middle" x="305.5" y="-56.8" font-family="Helvetica,sans-Serif" font-size="9.00">No</text>
</g>
</g>
</svg>
