<?xml version="1.0" encoding="UTF-8" standalone="no"?>
<!DOCTYPE svg PUBLIC "-//W3C//DTD SVG 1.1//EN"
 "http://www.w3.org/Graphics/SVG/1.1/DTD/svg11.dtd">
<!-- Generated by graphviz version 2.43.0 (0)
 -->
<!-- Title: PipeCurlRequest Pages: 1 -->
<svg width="250pt" height="359pt"
 viewBox="0.00 0.00 250.00 359.00" xmlns="http://www.w3.org/2000/svg" xmlns:xlink="http://www.w3.org/1999/xlink">
<g id="graph0" class="graph" transform="scale(1 1) rotate(0) translate(4 355)">
<title>PipeCurlRequest</title>
<polygon fill="#0d1117" stroke="transparent" points="-4,4 -4,-355 246,-355 246,4 -4,4"/>
<text text-anchor="middle" x="121" y="-7.8" font-family="Helvetica,sans-Serif" font-size="14.00" fill="#00f2ff">A5.4: Custom cURL Request Pipeline</text>
<!-- Curl_Exec -->
<g id="node1" class="node">
<title>Curl_Exec</title>
<path fill="#161b22" stroke="#00f2ff" d="M186,-351C186,-351 56,-351 56,-351 50,-351 44,-345 44,-339 44,-339 44,-327 44,-327 44,-321 50,-315 56,-315 56,-315 186,-315 186,-315 192,-315 198,-321 198,-327 198,-327 198,-339 198,-339 198,-345 192,-351 186,-351"/>
<text text-anchor="middle" x="121" y="-329.3" font-family="Helvetica,sans-Serif" font-size="14.00" fill="#00f2ff">curl Request Triggered</text>
</g>
<!-- Handshake -->
<g id="node2" class="node">
<title>Handshake</title>
<path fill="#161b22" stroke="#ffff00" d="M200,-279C200,-279 42,-279 42,-279 36,-279 30,-273 30,-267 30,-267 30,-253 30,-253 30,-247 36,-241 42,-241 42,-241 200,-241 200,-241 206,-241 212,-247 212,-253 212,-253 212,-267 212,-267 212,-273 206,-279 200,-279"/>
<text text-anchor="middle" x="121" y="-263.8" font-family="Helvetica,sans-Serif" font-size="14.00" fill="#00f2ff">TLS Handshake Negotiated</text>
<text text-anchor="middle" x="121" y="-248.8" font-family="Helvetica,sans-Serif" font-size="14.00" fill="#00f2ff">(Uses OpenSSL 3.5.6)</text>
</g>
<!-- Curl_Exec&#45;&gt;Handshake -->
<g id="edge1" class="edge">
<title>Curl_Exec&#45;&gt;Handshake</title>
<path fill="none" stroke="#ff00ff" d="M121,-314.81C121,-307.11 121,-297.82 121,-289.15"/>
<polygon fill="#ff00ff" stroke="#ff00ff" points="121,-279.02 125.5,-289.02 121,-284.02 121,-289.02 121,-289.02 121,-289.02 121,-284.02 116.5,-289.02 121,-279.02 121,-279.02"/>
</g>
<!-- Transfer -->
<g id="node3" class="node">
<title>Transfer</title>
<path fill="#161b22" stroke="#00f2ff" d="M192.5,-205C192.5,-205 49.5,-205 49.5,-205 43.5,-205 37.5,-199 37.5,-193 37.5,-193 37.5,-181 37.5,-181 37.5,-175 43.5,-169 49.5,-169 49.5,-169 192.5,-169 192.5,-169 198.5,-169 204.5,-175 204.5,-181 204.5,-181 204.5,-193 204.5,-193 204.5,-199 198.5,-205 192.5,-205"/>
<text text-anchor="middle" x="121" y="-183.3" font-family="Helvetica,sans-Serif" font-size="14.00" fill="#00f2ff">HTTP Payload Streamed</text>
</g>
<!-- Handshake&#45;&gt;Transfer -->
<g id="edge2" class="edge">
<title>Handshake&#45;&gt;Transfer</title>
<path fill="none" stroke="#ff00ff" d="M121,-240.72C121,-232.97 121,-223.79 121,-215.27"/>
<polygon fill="#ff00ff" stroke="#ff00ff" points="121,-205 125.5,-215 121,-210 121,-215 121,-215 121,-215 121,-210 116.5,-215 121,-205 121,-205"/>
</g>
<!-- Decompress -->
<g id="node4" class="node">
<title>Decompress</title>
<path fill="#161b22" stroke="#00ff00" d="M205,-133C205,-133 37,-133 37,-133 31,-133 25,-127 25,-121 25,-121 25,-107 25,-107 25,-101 31,-95 37,-95 37,-95 205,-95 205,-95 211,-95 217,-101 217,-107 217,-107 217,-121 217,-121 217,-127 211,-133 205,-133"/>
<text text-anchor="middle" x="121" y="-117.8" font-family="Helvetica,sans-Serif" font-size="14.00" fill="#00f2ff">Compression Decompressed</text>
<text text-anchor="middle" x="121" y="-102.8" font-family="Helvetica,sans-Serif" font-size="14.00" fill="#00f2ff">(Uses zlib&#45;ng 2.3.3)</text>
</g>
<!-- Transfer&#45;&gt;Decompress -->
<g id="edge3" class="edge">
<title>Transfer&#45;&gt;Decompress</title>
<path fill="none" stroke="#ff00ff" d="M121,-168.81C121,-161.11 121,-151.82 121,-143.15"/>
<polygon fill="#ff00ff" stroke="#ff00ff" points="121,-133.02 125.5,-143.02 121,-138.02 121,-143.02 121,-143.02 121,-143.02 121,-138.02 116.5,-143.02 121,-133.02 121,-133.02"/>
</g>
<!-- Display -->
<g id="node5" class="node">
<title>Display</title>
<path fill="#161b22" stroke="#00f2ff" d="M172,-59C172,-59 70,-59 70,-59 64,-59 58,-53 58,-47 58,-47 58,-35 58,-35 58,-29 64,-23 70,-23 70,-23 172,-23 172,-23 178,-23 184,-29 184,-35 184,-35 184,-47 184,-47 184,-53 178,-59 172,-59"/>
<text text-anchor="middle" x="121" y="-37.3" font-family="Helvetica,sans-Serif" font-size="14.00" fill="#00f2ff">Output to Console</text>
</g>
<!-- Decompress&#45;&gt;Display -->
<g id="edge4" class="edge">
<title>Decompress&#45;&gt;Display</title>
<path fill="none" stroke="#ff00ff" d="M121,-94.72C121,-86.97 121,-77.79 121,-69.27"/>
<polygon fill="#ff00ff" stroke="#ff00ff" points="121,-59 125.5,-69 121,-64 121,-69 121,-69 121,-69 121,-64 116.5,-69 121,-59 121,-59"/>
</g>
</g>
</svg>
