<?xml version="1.0" encoding="UTF-8" standalone="no"?>
<!DOCTYPE svg PUBLIC "-//W3C//DTD SVG 1.1//EN"
 "http://www.w3.org/Graphics/SVG/1.1/DTD/svg11.dtd">
<!-- Generated by graphviz version 2.43.0 (0)
 -->
<!-- Title: PipeNginxVal Pages: 1 -->
<svg width="336pt" height="306pt"
 viewBox="0.00 0.00 335.50 306.00" xmlns="http://www.w3.org/2000/svg" xmlns:xlink="http://www.w3.org/1999/xlink">
<g id="graph0" class="graph" transform="scale(1 1) rotate(0) translate(4 302)">
<title>PipeNginxVal</title>
<polygon fill="#0d1117" stroke="transparent" points="-4,4 -4,-302 331.5,-302 331.5,4 -4,4"/>
<text text-anchor="middle" x="163.75" y="-7.8" font-family="Helvetica,sans-Serif" font-size="14.00" fill="#00f2ff">A5.2: Nginx Configuration Validation Pipeline</text>
<!-- Config_Change -->
<g id="node1" class="node">
<title>Config_Change</title>
<path fill="#161b22" stroke="#00f2ff" d="M229.5,-298C229.5,-298 71.5,-298 71.5,-298 65.5,-298 59.5,-292 59.5,-286 59.5,-286 59.5,-272 59.5,-272 59.5,-266 65.5,-260 71.5,-260 71.5,-260 229.5,-260 229.5,-260 235.5,-260 241.5,-266 241.5,-272 241.5,-272 241.5,-286 241.5,-286 241.5,-292 235.5,-298 229.5,-298"/>
<text text-anchor="middle" x="150.5" y="-282.8" font-family="Helvetica,sans-Serif" font-size="14.00" fill="#00f2ff">Edit Nginx Configurations</text>
<text text-anchor="middle" x="150.5" y="-267.8" font-family="Helvetica,sans-Serif" font-size="14.00" fill="#00f2ff">(/etc/nginx/sites&#45;available/*)</text>
</g>
<!-- Syntax_Check -->
<g id="node2" class="node">
<title>Syntax_Check</title>
<path fill="#161b22" stroke="#ffff00" d="M235,-223C235,-223 66,-223 66,-223 60,-223 54,-217 54,-211 54,-211 54,-197 54,-197 54,-191 60,-185 66,-185 66,-185 235,-185 235,-185 241,-185 247,-191 247,-197 247,-197 247,-211 247,-211 247,-217 241,-223 235,-223"/>
<text text-anchor="middle" x="150.5" y="-207.8" font-family="Helvetica,sans-Serif" font-size="14.00" fill="#00f2ff">nginx &#45;t</text>
<text text-anchor="middle" x="150.5" y="-192.8" font-family="Helvetica,sans-Serif" font-size="14.00" fill="#00f2ff">(Configuration Syntax Check)</text>
</g>
<!-- Config_Change&#45;&gt;Syntax_Check -->
<g id="edge1" class="edge">
<title>Config_Change&#45;&gt;Syntax_Check</title>
<path fill="none" stroke="#ff00ff" d="M150.5,-259.96C150.5,-251.88 150.5,-242.18 150.5,-233.18"/>
<polygon fill="#ff00ff" stroke="#ff00ff" points="150.5,-223.09 155,-233.09 150.5,-228.09 150.5,-233.09 150.5,-233.09 150.5,-233.09 150.5,-228.09 146,-233.09 150.5,-223.09 150.5,-223.09"/>
</g>
<!-- Check_Result -->
<g id="node3" class="node">
<title>Check_Result</title>
<path fill="#161b22" stroke="#00f2ff" d="M138.59,-146.54C138.59,-146.54 15.28,-131.46 15.28,-131.46 9.33,-130.73 9.33,-129.27 15.28,-128.54 15.28,-128.54 138.59,-113.46 138.59,-113.46 144.54,-112.73 156.46,-112.73 162.41,-113.46 162.41,-113.46 285.72,-128.54 285.72,-128.54 291.67,-129.27 291.67,-130.73 285.72,-131.46 285.72,-131.46 162.41,-146.54 162.41,-146.54 156.46,-147.27 144.54,-147.27 138.59,-146.54"/>
<text text-anchor="middle" x="150.5" y="-126.3" font-family="Helvetica,sans-Serif" font-size="14.00" fill="#00f2ff">Validation Status Check</text>
</g>
<!-- Syntax_Check&#45;&gt;Check_Result -->
<g id="edge2" class="edge">
<title>Syntax_Check&#45;&gt;Check_Result</title>
<path fill="none" stroke="#ff00ff" d="M150.5,-184.83C150.5,-176.89 150.5,-167.41 150.5,-158.63"/>
<polygon fill="#ff00ff" stroke="#ff00ff" points="150.5,-148.42 155,-158.42 150.5,-153.42 150.5,-158.42 150.5,-158.42 150.5,-158.42 150.5,-153.42 146,-158.42 150.5,-148.42 150.5,-148.42"/>
</g>
<!-- Reload_Service -->
<g id="node4" class="node">
<title>Reload_Service</title>
<path fill="#161b22" stroke="#00ff00" d="M139,-61C139,-61 12,-61 12,-61 6,-61 0,-55 0,-49 0,-49 0,-35 0,-35 0,-29 6,-23 12,-23 12,-23 139,-23 139,-23 145,-23 151,-29 151,-35 151,-35 151,-49 151,-49 151,-55 145,-61 139,-61"/>
<text text-anchor="middle" x="75.5" y="-45.8" font-family="Helvetica,sans-Serif" font-size="14.00" fill="#00f2ff">systemctl reload nginx</text>
<text text-anchor="middle" x="75.5" y="-30.8" font-family="Helvetica,sans-Serif" font-size="14.00" fill="#00f2ff">(Graceful Apply)</text>
</g>
<!-- Check_Result&#45;&gt;Reload_Service -->
<g id="edge3" class="edge">
<title>Check_Result&#45;&gt;Reload_Service</title>
<path fill="none" stroke="#ff00ff" d="M127.9,-114.6C119.91,-108.83 111.24,-101.7 104.5,-94 98.26,-86.87 92.73,-78.19 88.21,-70.03"/>
<polygon fill="#ff00ff" stroke="#ff00ff" points="83.56,-61.14 92.19,-67.91 85.88,-65.57 88.2,-70 88.2,-70 88.2,-70 85.88,-65.57 84.21,-72.09 83.56,-61.14 83.56,-61.14"/>
<text text-anchor="middle" x="154.5" y="-82.8" font-family="Times,serif" font-size="14.00">Syntax Successful</text>
</g>
<!-- Stop_Deploy -->
<g id="node5" class="node">
<title>Stop_Deploy</title>
<path fill="#161b22" stroke="#ff0000" d="M271.5,-61C271.5,-61 181.5,-61 181.5,-61 175.5,-61 169.5,-55 169.5,-49 169.5,-49 169.5,-35 169.5,-35 169.5,-29 175.5,-23 181.5,-23 181.5,-23 271.5,-23 271.5,-23 277.5,-23 283.5,-29 283.5,-35 283.5,-35 283.5,-49 283.5,-49 283.5,-55 277.5,-61 271.5,-61"/>
<text text-anchor="middle" x="226.5" y="-45.8" font-family="Helvetica,sans-Serif" font-size="14.00" fill="#00f2ff">Abort Reload</text>
<text text-anchor="middle" x="226.5" y="-30.8" font-family="Helvetica,sans-Serif" font-size="14.00" fill="#00f2ff">(Errors Blocked)</text>
</g>
<!-- Check_Result&#45;&gt;Stop_Deploy -->
<g id="edge4" class="edge">
<title>Check_Result&#45;&gt;Stop_Deploy</title>
<path fill="none" stroke="#ff00ff" d="M178.19,-115.36C187.47,-109.74 197.29,-102.53 204.5,-94 210.16,-87.3 214.58,-78.92 217.92,-70.89"/>
<polygon fill="#ff00ff" stroke="#ff00ff" points="221.47,-61.43 222.17,-72.37 219.72,-66.11 217.96,-70.79 217.96,-70.79 217.96,-70.79 219.72,-66.11 213.75,-69.21 221.47,-61.43 221.47,-61.43"/>
<text text-anchor="middle" x="270.5" y="-82.8" font-family="Times,serif" font-size="14.00">Syntax Errors Found</text>
</g>
</g>
</svg>
