<?xml version="1.0" encoding="UTF-8" standalone="no"?>
<!DOCTYPE svg PUBLIC "-//W3C//DTD SVG 1.1//EN"
 "http://www.w3.org/Graphics/SVG/1.1/DTD/svg11.dtd">
<!-- Generated by graphviz version 2.43.0 (0)
 -->
<!-- Title: PipeCurlRequest Pages: 1 -->
<svg width="415pt" height="599pt"
 viewBox="0.00 0.00 415.00 599.00" xmlns="http://www.w3.org/2000/svg" xmlns:xlink="http://www.w3.org/1999/xlink">
<g id="graph0" class="graph" transform="scale(1 1) rotate(0) translate(4 595)">
<title>PipeCurlRequest</title>
<polygon fill="#0d1117" stroke="transparent" points="-4,4 -4,-595 411,-595 411,4 -4,4"/>
<text text-anchor="middle" x="203.5" y="-574.2" font-family="Helvetica,sans-Serif" font-size="16.00" fill="#00f2ff">A5.4: Custom cURL Secure HTTP Connection Pipeline</text>
<g id="clust1" class="cluster">
<title>cluster_tls_handshake</title>
<polygon fill="#0d1117" stroke="#00ff00" points="53.5,-260 53.5,-557 331.5,-557 331.5,-260 53.5,-260"/>
<text text-anchor="middle" x="192.5" y="-540.2" font-family="Helvetica,sans-Serif" font-size="16.00" fill="#00ff00">TLS Security Layer (OpenSSL 3.5.6)</text>
</g>
<g id="clust2" class="cluster">
<title>cluster_data_stream</title>
<polygon fill="#0d1117" stroke="#ff00ff" points="69.5,-8 69.5,-232 353.5,-232 353.5,-8 69.5,-8"/>
<text text-anchor="middle" x="211.5" y="-215.2" font-family="Helvetica,sans-Serif" font-size="16.00" fill="#ff00ff">HTTP Payload Compression (zlib&#45;ng)</text>
</g>
<!-- DNS_Resolve -->
<g id="node1" class="node">
<title>DNS_Resolve</title>
<path fill="#161b22" stroke="#00f2ff" d="M251,-523C251,-523 134,-523 134,-523 128,-523 122,-517 122,-511 122,-511 122,-499 122,-499 122,-493 128,-487 134,-487 134,-487 251,-487 251,-487 257,-487 263,-493 263,-499 263,-499 263,-511 263,-511 263,-517 257,-523 251,-523"/>
<text text-anchor="middle" x="192.5" y="-502.5" font-family="Helvetica,sans-Serif" font-size="10.00" fill="#00f2ff">DNS Resolves domain to IP</text>
</g>
<!-- TCP_Connect -->
<g id="node2" class="node">
<title>TCP_Connect</title>
<path fill="#161b22" stroke="#00f2ff" d="M247,-450C247,-450 138,-450 138,-450 132,-450 126,-444 126,-438 126,-438 126,-426 126,-426 126,-420 132,-414 138,-414 138,-414 247,-414 247,-414 253,-414 259,-420 259,-426 259,-426 259,-438 259,-438 259,-444 253,-450 247,-450"/>
<text text-anchor="middle" x="192.5" y="-429.5" font-family="Helvetica,sans-Serif" font-size="10.00" fill="#00f2ff">TCP handshake (Port 443)</text>
</g>
<!-- DNS_Resolve&#45;&gt;TCP_Connect -->
<g id="edge1" class="edge">
<title>DNS_Resolve&#45;&gt;TCP_Connect</title>
<path fill="none" stroke="#ff00ff" d="M192.5,-486.81C192.5,-478.79 192.5,-469.05 192.5,-460.07"/>
<polygon fill="#ff00ff" stroke="#ff00ff" points="192.5,-450.03 197,-460.03 192.5,-455.03 192.5,-460.03 192.5,-460.03 192.5,-460.03 192.5,-455.03 188,-460.03 192.5,-450.03 192.5,-450.03"/>
</g>
<!-- Client_Hello -->
<g id="node3" class="node">
<title>Client_Hello</title>
<path fill="#161b22" stroke="#00f2ff" d="M286.5,-377C286.5,-377 98.5,-377 98.5,-377 92.5,-377 86.5,-371 86.5,-365 86.5,-365 86.5,-353 86.5,-353 86.5,-347 92.5,-341 98.5,-341 98.5,-341 286.5,-341 286.5,-341 292.5,-341 298.5,-347 298.5,-353 298.5,-353 298.5,-365 298.5,-365 298.5,-371 292.5,-377 286.5,-377"/>
<text text-anchor="middle" x="192.5" y="-356.5" font-family="Helvetica,sans-Serif" font-size="10.00" fill="#00f2ff">TLS Client Hello (ALPN HTTP/2 negotiation)</text>
</g>
<!-- TCP_Connect&#45;&gt;Client_Hello -->
<g id="edge2" class="edge">
<title>TCP_Connect&#45;&gt;Client_Hello</title>
<path fill="none" stroke="#ff00ff" d="M192.5,-413.81C192.5,-405.79 192.5,-396.05 192.5,-387.07"/>
<polygon fill="#ff00ff" stroke="#ff00ff" points="192.5,-377.03 197,-387.03 192.5,-382.03 192.5,-387.03 192.5,-387.03 192.5,-387.03 192.5,-382.03 188,-387.03 192.5,-377.03 192.5,-377.03"/>
</g>
<!-- Server_Handshake -->
<g id="node4" class="node">
<title>Server_Handshake</title>
<path fill="#161b22" stroke="#00f2ff" d="M281.5,-304C281.5,-304 103.5,-304 103.5,-304 97.5,-304 91.5,-298 91.5,-292 91.5,-292 91.5,-280 91.5,-280 91.5,-274 97.5,-268 103.5,-268 103.5,-268 281.5,-268 281.5,-268 287.5,-268 293.5,-274 293.5,-280 293.5,-280 293.5,-292 293.5,-292 293.5,-298 287.5,-304 281.5,-304"/>
<text text-anchor="middle" x="192.5" y="-283.5" font-family="Helvetica,sans-Serif" font-size="10.00" fill="#00f2ff">TLS Certificate validation &amp; Key exchange</text>
</g>
<!-- Client_Hello&#45;&gt;Server_Handshake -->
<g id="edge3" class="edge">
<title>Client_Hello&#45;&gt;Server_Handshake</title>
<path fill="none" stroke="#ff00ff" d="M192.5,-340.81C192.5,-332.79 192.5,-323.05 192.5,-314.07"/>
<polygon fill="#ff00ff" stroke="#ff00ff" points="192.5,-304.03 197,-314.03 192.5,-309.03 192.5,-314.03 192.5,-314.03 192.5,-314.03 192.5,-309.03 188,-314.03 192.5,-304.03 192.5,-304.03"/>
</g>
<!-- HTTP_Request -->
<g id="node5" class="node">
<title>HTTP_Request</title>
<path fill="#161b22" stroke="#00f2ff" d="M255,-198C255,-198 130,-198 130,-198 124,-198 118,-192 118,-186 118,-186 118,-174 118,-174 118,-168 124,-162 130,-162 130,-162 255,-162 255,-162 261,-162 267,-168 267,-174 267,-174 267,-186 267,-186 267,-192 261,-198 255,-198"/>
<text text-anchor="middle" x="192.5" y="-177.5" font-family="Helvetica,sans-Serif" font-size="10.00" fill="#00f2ff">HTTP GET Request (HTTP/2)</text>
</g>
<!-- Server_Handshake&#45;&gt;HTTP_Request -->
<g id="edge6" class="edge">
<title>Server_Handshake&#45;&gt;HTTP_Request</title>
<path fill="none" stroke="#ff00ff" d="M192.5,-267.83C192.5,-251.64 192.5,-227.13 192.5,-208.27"/>
<polygon fill="#ff00ff" stroke="#ff00ff" points="192.5,-198.2 197,-208.2 192.5,-203.2 192.5,-208.2 192.5,-208.2 192.5,-208.2 192.5,-203.2 188,-208.2 192.5,-198.2 192.5,-198.2"/>
<text text-anchor="middle" x="251.5" y="-242.8" font-family="Helvetica,sans-Serif" font-size="9.00">Established Secure Channel</text>
</g>
<!-- Inflate_Payload -->
<g id="node6" class="node">
<title>Inflate_Payload</title>
<path fill="#161b22" stroke="#00ff00" d="M279.5,-125C279.5,-125 105.5,-125 105.5,-125 99.5,-125 93.5,-119 93.5,-113 93.5,-113 93.5,-101 93.5,-101 93.5,-95 99.5,-89 105.5,-89 105.5,-89 279.5,-89 279.5,-89 285.5,-89 291.5,-95 291.5,-101 291.5,-101 291.5,-113 291.5,-113 291.5,-119 285.5,-125 279.5,-125"/>
<text text-anchor="middle" x="192.5" y="-110" font-family="Helvetica,sans-Serif" font-size="10.00" fill="#00f2ff">Decompress Gzip Payload</text>
<text text-anchor="middle" x="192.5" y="-99" font-family="Helvetica,sans-Serif" font-size="10.00" fill="#00f2ff">(zlib&#45;ng high performance decompression)</text>
</g>
<!-- HTTP_Request&#45;&gt;Inflate_Payload -->
<g id="edge4" class="edge">
<title>HTTP_Request&#45;&gt;Inflate_Payload</title>
<path fill="none" stroke="#ff00ff" d="M192.5,-161.81C192.5,-153.79 192.5,-144.05 192.5,-135.07"/>
<polygon fill="#ff00ff" stroke="#ff00ff" points="192.5,-125.03 197,-135.03 192.5,-130.03 192.5,-135.03 192.5,-135.03 192.5,-135.03 192.5,-130.03 188,-135.03 192.5,-125.03 192.5,-125.03"/>
</g>
<!-- Stdout_Print -->
<g id="node7" class="node">
<title>Stdout_Print</title>
<path fill="#161b22" stroke="#00f2ff" d="M245,-52C245,-52 140,-52 140,-52 134,-52 128,-46 128,-40 128,-40 128,-28 128,-28 128,-22 134,-16 140,-16 140,-16 245,-16 245,-16 251,-16 257,-22 257,-28 257,-28 257,-40 257,-40 257,-46 251,-52 245,-52"/>
<text text-anchor="middle" x="192.5" y="-31.5" font-family="Helvetica,sans-Serif" font-size="10.00" fill="#00f2ff">Output content to console</text>
</g>
<!-- Inflate_Payload&#45;&gt;Stdout_Print -->
<g id="edge5" class="edge">
<title>Inflate_Payload&#45;&gt;Stdout_Print</title>
<path fill="none" stroke="#ff00ff" d="M192.5,-88.81C192.5,-80.79 192.5,-71.05 192.5,-62.07"/>
<polygon fill="#ff00ff" stroke="#ff00ff" points="192.5,-52.03 197,-62.03 192.5,-57.03 192.5,-62.03 192.5,-62.03 192.5,-62.03 192.5,-57.03 188,-62.03 192.5,-52.03 192.5,-52.03"/>
</g>
</g>
</svg>
