<?xml version="1.0" encoding="UTF-8" standalone="no"?>
<!DOCTYPE svg PUBLIC "-//W3C//DTD SVG 1.1//EN"
 "http://www.w3.org/Graphics/SVG/1.1/DTD/svg11.dtd">
<!-- Generated by graphviz version 2.43.0 (0)
 -->
<!-- Title: PipeSSHPAM Pages: 1 -->
<svg width="295pt" height="381pt"
 viewBox="0.00 0.00 295.00 381.00" xmlns="http://www.w3.org/2000/svg" xmlns:xlink="http://www.w3.org/1999/xlink">
<g id="graph0" class="graph" transform="scale(1 1) rotate(0) translate(4 377)">
<title>PipeSSHPAM</title>
<polygon fill="#0d1117" stroke="transparent" points="-4,4 -4,-377 291,-377 291,4 -4,4"/>
<text text-anchor="middle" x="143.5" y="-7.8" font-family="Helvetica,sans-Serif" font-size="14.00" fill="#00f2ff">A5.3: SSH PAM Authentication Flow Pipeline</text>
<!-- Login_Request -->
<g id="node1" class="node">
<title>Login_Request</title>
<path fill="#161b22" stroke="#00f2ff" d="M216.5,-373C216.5,-373 70.5,-373 70.5,-373 64.5,-373 58.5,-367 58.5,-361 58.5,-361 58.5,-347 58.5,-347 58.5,-341 64.5,-335 70.5,-335 70.5,-335 216.5,-335 216.5,-335 222.5,-335 228.5,-341 228.5,-347 228.5,-347 228.5,-361 228.5,-361 228.5,-367 222.5,-373 216.5,-373"/>
<text text-anchor="middle" x="143.5" y="-357.8" font-family="Helvetica,sans-Serif" font-size="14.00" fill="#00f2ff">SSH Connection Request</text>
<text text-anchor="middle" x="143.5" y="-342.8" font-family="Helvetica,sans-Serif" font-size="14.00" fill="#00f2ff">(Port 22222)</text>
</g>
<!-- SSHD_Process -->
<g id="node2" class="node">
<title>SSHD_Process</title>
<path fill="#161b22" stroke="#00f2ff" d="M204,-298C204,-298 83,-298 83,-298 77,-298 71,-292 71,-286 71,-286 71,-274 71,-274 71,-268 77,-262 83,-262 83,-262 204,-262 204,-262 210,-262 216,-268 216,-274 216,-274 216,-286 216,-286 216,-292 210,-298 204,-298"/>
<text text-anchor="middle" x="143.5" y="-276.3" font-family="Helvetica,sans-Serif" font-size="14.00" fill="#00f2ff">sshd Worker Process</text>
</g>
<!-- Login_Request&#45;&gt;SSHD_Process -->
<g id="edge1" class="edge">
<title>Login_Request&#45;&gt;SSHD_Process</title>
<path fill="none" stroke="#ff00ff" d="M143.5,-334.83C143.5,-326.89 143.5,-317.41 143.5,-308.63"/>
<polygon fill="#ff00ff" stroke="#ff00ff" points="143.5,-298.42 148,-308.42 143.5,-303.42 143.5,-308.42 143.5,-308.42 143.5,-308.42 143.5,-303.42 139,-308.42 143.5,-298.42 143.5,-298.42"/>
</g>
<!-- PAM_Stack -->
<g id="node3" class="node">
<title>PAM_Stack</title>
<path fill="#161b22" stroke="#ffff00" d="M242,-225C242,-225 45,-225 45,-225 39,-225 33,-219 33,-213 33,-213 33,-199 33,-199 33,-193 39,-187 45,-187 45,-187 242,-187 242,-187 248,-187 254,-193 254,-199 254,-199 254,-213 254,-213 254,-219 248,-225 242,-225"/>
<text text-anchor="middle" x="143.5" y="-209.8" font-family="Helvetica,sans-Serif" font-size="14.00" fill="#00f2ff">Pluggable Authentication Modules</text>
<text text-anchor="middle" x="143.5" y="-194.8" font-family="Helvetica,sans-Serif" font-size="14.00" fill="#00f2ff">(/etc/pam.d/sshd)</text>
</g>
<!-- SSHD_Process&#45;&gt;PAM_Stack -->
<g id="edge2" class="edge">
<title>SSHD_Process&#45;&gt;PAM_Stack</title>
<path fill="none" stroke="#ff00ff" d="M143.5,-261.94C143.5,-253.99 143.5,-244.31 143.5,-235.31"/>
<polygon fill="#ff00ff" stroke="#ff00ff" points="143.5,-225.2 148,-235.2 143.5,-230.2 143.5,-235.2 143.5,-235.2 143.5,-235.2 143.5,-230.2 139,-235.2 143.5,-225.2 143.5,-225.2"/>
</g>
<!-- Sys_Auth -->
<g id="node4" class="node">
<title>Sys_Auth</title>
<path fill="#161b22" stroke="#00f2ff" d="M219,-150C219,-150 68,-150 68,-150 62,-150 56,-144 56,-138 56,-138 56,-124 56,-124 56,-118 62,-112 68,-112 68,-112 219,-112 219,-112 225,-112 231,-118 231,-124 231,-124 231,-138 231,-138 231,-144 225,-150 219,-150"/>
<text text-anchor="middle" x="143.5" y="-134.8" font-family="Helvetica,sans-Serif" font-size="14.00" fill="#00f2ff">System Authentication</text>
<text text-anchor="middle" x="143.5" y="-119.8" font-family="Helvetica,sans-Serif" font-size="14.00" fill="#00f2ff">(passwd / shadow checks)</text>
</g>
<!-- PAM_Stack&#45;&gt;Sys_Auth -->
<g id="edge3" class="edge">
<title>PAM_Stack&#45;&gt;Sys_Auth</title>
<path fill="none" stroke="#ff00ff" d="M143.5,-186.96C143.5,-178.88 143.5,-169.18 143.5,-160.18"/>
<polygon fill="#ff00ff" stroke="#ff00ff" points="143.5,-150.09 148,-160.09 143.5,-155.09 143.5,-160.09 143.5,-160.09 143.5,-160.09 143.5,-155.09 139,-160.09 143.5,-150.09 143.5,-150.09"/>
</g>
<!-- Env_Init -->
<g id="node5" class="node">
<title>Env_Init</title>
<path fill="#161b22" stroke="#00ff00" d="M223.5,-61C223.5,-61 63.5,-61 63.5,-61 57.5,-61 51.5,-55 51.5,-49 51.5,-49 51.5,-35 51.5,-35 51.5,-29 57.5,-23 63.5,-23 63.5,-23 223.5,-23 223.5,-23 229.5,-23 235.5,-29 235.5,-35 235.5,-35 235.5,-49 235.5,-49 235.5,-55 229.5,-61 223.5,-61"/>
<text text-anchor="middle" x="143.5" y="-45.8" font-family="Helvetica,sans-Serif" font-size="14.00" fill="#00f2ff">Session Environment Setup</text>
<text text-anchor="middle" x="143.5" y="-30.8" font-family="Helvetica,sans-Serif" font-size="14.00" fill="#00f2ff">(pam_env, pam_limits)</text>
</g>
<!-- Sys_Auth&#45;&gt;Env_Init -->
<g id="edge4" class="edge">
<title>Sys_Auth&#45;&gt;Env_Init</title>
<path fill="none" stroke="#ff00ff" d="M143.5,-111.97C143.5,-100.19 143.5,-84.56 143.5,-71.16"/>
<polygon fill="#ff00ff" stroke="#ff00ff" points="143.5,-61 148,-71 143.5,-66 143.5,-71 143.5,-71 143.5,-71 143.5,-66 139,-71 143.5,-61 143.5,-61"/>
<text text-anchor="middle" x="198" y="-82.8" font-family="Times,serif" font-size="14.00">If credentials match</text>
</g>
</g>
</svg>
