<?xml version="1.0" encoding="UTF-8" standalone="no"?>
<!DOCTYPE svg PUBLIC "-//W3C//DTD SVG 1.1//EN"
 "http://www.w3.org/Graphics/SVG/1.1/DTD/svg11.dtd">
<!-- Generated by graphviz version 2.43.0 (0)
 -->
<!-- Title: PipeVersionCheck Pages: 1 -->
<svg width="387pt" height="302pt"
 viewBox="0.00 0.00 387.00 302.00" xmlns="http://www.w3.org/2000/svg" xmlns:xlink="http://www.w3.org/1999/xlink">
<g id="graph0" class="graph" transform="scale(1 1) rotate(0) translate(4 298)">
<title>PipeVersionCheck</title>
<polygon fill="#0d1117" stroke="transparent" points="-4,4 -4,-298 383,-298 383,4 -4,4"/>
<text text-anchor="middle" x="189.5" y="-7.8" font-family="Helvetica,sans-Serif" font-size="14.00" fill="#00f2ff">A5.5: Automated Version Auditor Pipeline</text>
<!-- Trigger -->
<g id="node1" class="node">
<title>Trigger</title>
<path fill="#161b22" stroke="#00f2ff" d="M232,-294C232,-294 146,-294 146,-294 140,-294 134,-288 134,-282 134,-282 134,-270 134,-270 134,-264 140,-258 146,-258 146,-258 232,-258 232,-258 238,-258 244,-264 244,-270 244,-270 244,-282 244,-282 244,-288 238,-294 232,-294"/>
<text text-anchor="middle" x="189" y="-272.3" font-family="Helvetica,sans-Serif" font-size="14.00" fill="#00f2ff">Auditor Invoked</text>
</g>
<!-- Get_Local -->
<g id="node2" class="node">
<title>Get_Local</title>
<path fill="#161b22" stroke="#00f2ff" d="M170,-221C170,-221 12,-221 12,-221 6,-221 0,-215 0,-209 0,-209 0,-195 0,-195 0,-189 6,-183 12,-183 12,-183 170,-183 170,-183 176,-183 182,-189 182,-195 182,-195 182,-209 182,-209 182,-215 176,-221 170,-221"/>
<text text-anchor="middle" x="91" y="-205.8" font-family="Helvetica,sans-Serif" font-size="14.00" fill="#00f2ff">Read Local Binary Headers</text>
<text text-anchor="middle" x="91" y="-190.8" font-family="Helvetica,sans-Serif" font-size="14.00" fill="#00f2ff">(Run version commands)</text>
</g>
<!-- Trigger&#45;&gt;Get_Local -->
<g id="edge1" class="edge">
<title>Trigger&#45;&gt;Get_Local</title>
<path fill="none" stroke="#ff00ff" d="M165.78,-257.94C153.31,-248.78 137.73,-237.33 124.02,-227.26"/>
<polygon fill="#ff00ff" stroke="#ff00ff" points="115.77,-221.2 126.49,-223.49 119.8,-224.16 123.83,-227.12 123.83,-227.12 123.83,-227.12 119.8,-224.16 121.17,-230.75 115.77,-221.2 115.77,-221.2"/>
</g>
<!-- Get_Remote -->
<g id="node3" class="node">
<title>Get_Remote</title>
<path fill="#161b22" stroke="#ffff00" d="M365.5,-221C365.5,-221 212.5,-221 212.5,-221 206.5,-221 200.5,-215 200.5,-209 200.5,-209 200.5,-195 200.5,-195 200.5,-189 206.5,-183 212.5,-183 212.5,-183 365.5,-183 365.5,-183 371.5,-183 377.5,-189 377.5,-195 377.5,-195 377.5,-209 377.5,-209 377.5,-215 371.5,-221 365.5,-221"/>
<text text-anchor="middle" x="289" y="-205.8" font-family="Helvetica,sans-Serif" font-size="14.00" fill="#00f2ff">Query Release API portals</text>
<text text-anchor="middle" x="289" y="-190.8" font-family="Helvetica,sans-Serif" font-size="14.00" fill="#00f2ff">(GitHub Releases)</text>
</g>
<!-- Trigger&#45;&gt;Get_Remote -->
<g id="edge2" class="edge">
<title>Trigger&#45;&gt;Get_Remote</title>
<path fill="none" stroke="#ff00ff" d="M212.7,-257.94C225.42,-248.78 241.32,-237.33 255.31,-227.26"/>
<polygon fill="#ff00ff" stroke="#ff00ff" points="263.72,-221.2 258.24,-230.69 259.67,-224.12 255.61,-227.04 255.61,-227.04 255.61,-227.04 259.67,-224.12 252.98,-223.39 263.72,-221.2 263.72,-221.2"/>
</g>
<!-- Compare_Logic -->
<g id="node4" class="node">
<title>Compare_Logic</title>
<path fill="#161b22" stroke="#00f2ff" d="M177.08,-144.64C177.08,-144.64 43.57,-129.36 43.57,-129.36 37.61,-128.68 37.61,-127.32 43.57,-126.64 43.57,-126.64 177.08,-111.36 177.08,-111.36 183.04,-110.68 194.96,-110.68 200.92,-111.36 200.92,-111.36 334.43,-126.64 334.43,-126.64 340.39,-127.32 340.39,-128.68 334.43,-129.36 334.43,-129.36 200.92,-144.64 200.92,-144.64 194.96,-145.32 183.04,-145.32 177.08,-144.64"/>
<text text-anchor="middle" x="189" y="-124.3" font-family="Helvetica,sans-Serif" font-size="14.00" fill="#00f2ff">Compare Versions Check</text>
</g>
<!-- Get_Local&#45;&gt;Compare_Logic -->
<g id="edge3" class="edge">
<title>Get_Local&#45;&gt;Compare_Logic</title>
<path fill="none" stroke="#ff00ff" d="M115.73,-182.83C129.35,-172.83 146.31,-160.36 160.48,-149.95"/>
<polygon fill="#ff00ff" stroke="#ff00ff" points="168.89,-143.77 163.5,-153.32 164.87,-146.73 160.84,-149.69 160.84,-149.69 160.84,-149.69 164.87,-146.73 158.17,-146.07 168.89,-143.77 168.89,-143.77"/>
</g>
<!-- Get_Remote&#45;&gt;Compare_Logic -->
<g id="edge4" class="edge">
<title>Get_Remote&#45;&gt;Compare_Logic</title>
<path fill="none" stroke="#ff00ff" d="M263.77,-182.83C249.74,-172.73 232.23,-160.13 217.69,-149.66"/>
<polygon fill="#ff00ff" stroke="#ff00ff" points="209.52,-143.77 220.26,-145.96 213.57,-146.69 217.63,-149.61 217.63,-149.61 217.63,-149.61 213.57,-146.69 215,-153.27 209.52,-143.77 209.52,-143.77"/>
</g>
<!-- Report_OK -->
<g id="node5" class="node">
<title>Report_OK</title>
<path fill="#161b22" stroke="#00ff00" d="M145,-59C145,-59 59,-59 59,-59 53,-59 47,-53 47,-47 47,-47 47,-35 47,-35 47,-29 53,-23 59,-23 59,-23 145,-23 145,-23 151,-23 157,-29 157,-35 157,-35 157,-47 157,-47 157,-53 151,-59 145,-59"/>
<text text-anchor="middle" x="102" y="-37.3" font-family="Helvetica,sans-Serif" font-size="14.00" fill="#00f2ff">Print OK Status</text>
</g>
<!-- Compare_Logic&#45;&gt;Report_OK -->
<g id="edge5" class="edge">
<title>Compare_Logic&#45;&gt;Report_OK</title>
<path fill="none" stroke="#ff00ff" d="M173.04,-111.41C160.18,-98.84 141.85,-80.93 127.03,-66.46"/>
<polygon fill="#ff00ff" stroke="#ff00ff" points="119.65,-59.25 129.95,-63.02 123.23,-62.74 126.8,-66.23 126.8,-66.23 126.8,-66.23 123.23,-62.74 123.66,-69.45 119.65,-59.25 119.65,-59.25"/>
<text text-anchor="middle" x="200" y="-80.8" font-family="Times,serif" font-size="14.00">Local == Remote</text>
</g>
<!-- Report_Alert -->
<g id="node6" class="node">
<title>Report_Alert</title>
<path fill="#161b22" stroke="#ff0000" d="M367,-59C367,-59 187,-59 187,-59 181,-59 175,-53 175,-47 175,-47 175,-35 175,-35 175,-29 181,-23 187,-23 187,-23 367,-23 367,-23 373,-23 379,-29 379,-35 379,-35 379,-47 379,-47 379,-53 373,-59 367,-59"/>
<text text-anchor="middle" x="277" y="-37.3" font-family="Helvetica,sans-Serif" font-size="14.00" fill="#00f2ff">Print Update Available Warning</text>
</g>
<!-- Compare_Logic&#45;&gt;Report_Alert -->
<g id="edge6" class="edge">
<title>Compare_Logic&#45;&gt;Report_Alert</title>
<path fill="none" stroke="#ff00ff" d="M222.28,-113.75C233.08,-108.24 244.46,-101 253,-92 259.29,-85.37 264.21,-76.79 267.92,-68.61"/>
<polygon fill="#ff00ff" stroke="#ff00ff" points="271.72,-59.34 272.09,-70.3 269.82,-63.96 267.93,-68.59 267.93,-68.59 267.93,-68.59 269.82,-63.96 263.76,-66.88 271.72,-59.34 271.72,-59.34"/>
<text text-anchor="middle" x="308" y="-80.8" font-family="Times,serif" font-size="14.00">Local &lt; Remote</text>
</g>
</g>
</svg>
