<?xml version="1.0" encoding="UTF-8" standalone="no"?>
<!DOCTYPE svg PUBLIC "-//W3C//DTD SVG 1.1//EN"
 "http://www.w3.org/Graphics/SVG/1.1/DTD/svg11.dtd">
<!-- Generated by graphviz version 2.43.0 (0)
 -->
<!-- Title: PipeSSHPAM Pages: 1 -->
<svg width="494pt" height="617pt"
 viewBox="0.00 0.00 494.00 617.44" xmlns="http://www.w3.org/2000/svg" xmlns:xlink="http://www.w3.org/1999/xlink">
<g id="graph0" class="graph" transform="scale(1 1) rotate(0) translate(4 613.44)">
<title>PipeSSHPAM</title>
<polygon fill="#0d1117" stroke="transparent" points="-4,4 -4,-613.44 490,-613.44 490,4 -4,4"/>
<text text-anchor="middle" x="243" y="-592.64" font-family="Helvetica,sans-Serif" font-size="16.00" fill="#00f2ff">A5.3: SSH PAM Authentication Flow Pipeline</text>
<g id="clust1" class="cluster">
<title>cluster_pam_stack</title>
<polygon fill="#0d1117" stroke="#ffff00" points="124,-317.44 124,-539.44 478,-539.44 478,-317.44 124,-317.44"/>
<text text-anchor="middle" x="301" y="-522.64" font-family="Helvetica,sans-Serif" font-size="16.00" fill="#ffff00">Pluggable Authentication Modules (PAM) Stack</text>
</g>
<g id="clust2" class="cluster">
<title>cluster_pam_env</title>
<polygon fill="#0d1117" stroke="#ff00ff" points="8,-231.44 8,-309.44 458,-309.44 458,-231.44 8,-231.44"/>
<text text-anchor="middle" x="233" y="-292.64" font-family="Helvetica,sans-Serif" font-size="16.00" fill="#ff00ff">Session Modules Enabled</text>
</g>
<!-- PAM_Auth -->
<g id="node1" class="node">
<title>PAM_Auth</title>
<path fill="#161b22" stroke="#00f2ff" d="M343.5,-505.44C343.5,-505.44 182.5,-505.44 182.5,-505.44 176.5,-505.44 170.5,-499.44 170.5,-493.44 170.5,-493.44 170.5,-481.44 170.5,-481.44 170.5,-475.44 176.5,-469.44 182.5,-469.44 182.5,-469.44 343.5,-469.44 343.5,-469.44 349.5,-469.44 355.5,-475.44 355.5,-481.44 355.5,-481.44 355.5,-493.44 355.5,-493.44 355.5,-499.44 349.5,-505.44 343.5,-505.44"/>
<text text-anchor="middle" x="263" y="-484.94" font-family="Helvetica,sans-Serif" font-size="10.00" fill="#00f2ff">1. auth (Verify password / key checks)</text>
</g>
<!-- PAM_Account -->
<g id="node2" class="node">
<title>PAM_Account</title>
<path fill="#161b22" stroke="#00f2ff" d="M363,-433.44C363,-433.44 163,-433.44 163,-433.44 157,-433.44 151,-427.44 151,-421.44 151,-421.44 151,-409.44 151,-409.44 151,-403.44 157,-397.44 163,-397.44 163,-397.44 363,-397.44 363,-397.44 369,-397.44 375,-403.44 375,-409.44 375,-409.44 375,-421.44 375,-421.44 375,-427.44 369,-433.44 363,-433.44"/>
<text text-anchor="middle" x="263" y="-412.94" font-family="Helvetica,sans-Serif" font-size="10.00" fill="#00f2ff">2. account (Check access constraints &amp; expiry)</text>
</g>
<!-- PAM_Auth&#45;&gt;PAM_Account -->
<g id="edge1" class="edge">
<title>PAM_Auth&#45;&gt;PAM_Account</title>
<path fill="none" stroke="#ff00ff" d="M263,-469.13C263,-461.42 263,-452.15 263,-443.55"/>
<polygon fill="#ff00ff" stroke="#ff00ff" points="263,-433.54 267.5,-443.54 263,-438.54 263,-443.54 263,-443.54 263,-443.54 263,-438.54 258.5,-443.54 263,-433.54 263,-433.54"/>
</g>
<!-- PAM_Session -->
<g id="node3" class="node">
<title>PAM_Session</title>
<path fill="#161b22" stroke="#00f2ff" d="M362.5,-361.44C362.5,-361.44 163.5,-361.44 163.5,-361.44 157.5,-361.44 151.5,-355.44 151.5,-349.44 151.5,-349.44 151.5,-337.44 151.5,-337.44 151.5,-331.44 157.5,-325.44 163.5,-325.44 163.5,-325.44 362.5,-325.44 362.5,-325.44 368.5,-325.44 374.5,-331.44 374.5,-337.44 374.5,-337.44 374.5,-349.44 374.5,-349.44 374.5,-355.44 368.5,-361.44 362.5,-361.44"/>
<text text-anchor="middle" x="263" y="-340.94" font-family="Helvetica,sans-Serif" font-size="10.00" fill="#00f2ff">3. session (Setup limits, logging, env variables)</text>
</g>
<!-- PAM_Account&#45;&gt;PAM_Session -->
<g id="edge2" class="edge">
<title>PAM_Account&#45;&gt;PAM_Session</title>
<path fill="none" stroke="#ff00ff" d="M263,-397.13C263,-389.42 263,-380.15 263,-371.55"/>
<polygon fill="#ff00ff" stroke="#ff00ff" points="263,-361.54 267.5,-371.54 263,-366.54 263,-371.54 263,-371.54 263,-371.54 263,-366.54 258.5,-371.54 263,-361.54 263,-361.54"/>
</g>
<!-- Pam_Env -->
<g id="node4" class="node">
<title>Pam_Env</title>
<path fill="#161b22" stroke="#00f2ff" d="M438.5,-275.44C438.5,-275.44 355.5,-275.44 355.5,-275.44 349.5,-275.44 343.5,-269.44 343.5,-263.44 343.5,-263.44 343.5,-251.44 343.5,-251.44 343.5,-245.44 349.5,-239.44 355.5,-239.44 355.5,-239.44 438.5,-239.44 438.5,-239.44 444.5,-239.44 450.5,-245.44 450.5,-251.44 450.5,-251.44 450.5,-263.44 450.5,-263.44 450.5,-269.44 444.5,-275.44 438.5,-275.44"/>
<text text-anchor="middle" x="397" y="-260.44" font-family="Helvetica,sans-Serif" font-size="10.00" fill="#00f2ff">pam_env.so</text>
<text text-anchor="middle" x="397" y="-249.44" font-family="Helvetica,sans-Serif" font-size="10.00" fill="#00f2ff">(Load user variables)</text>
</g>
<!-- PAM_Session&#45;&gt;Pam_Env -->
<g id="edge4" class="edge">
<title>PAM_Session&#45;&gt;Pam_Env</title>
<path fill="none" stroke="#ff00ff" d="M305.08,-325.36C315.15,-320.68 325.67,-315.27 335,-309.44 347.52,-301.6 360.3,-291.51 370.98,-282.38"/>
<polygon fill="#ff00ff" stroke="#ff00ff" points="378.7,-275.63 374.13,-285.6 374.93,-278.92 371.17,-282.21 371.17,-282.21 371.17,-282.21 374.93,-278.92 368.21,-278.83 378.7,-275.63 378.7,-275.63"/>
</g>
<!-- Pam_Limits -->
<g id="node5" class="node">
<title>Pam_Limits</title>
<path fill="#161b22" stroke="#00ff00" d="M313.5,-275.44C313.5,-275.44 212.5,-275.44 212.5,-275.44 206.5,-275.44 200.5,-269.44 200.5,-263.44 200.5,-263.44 200.5,-251.44 200.5,-251.44 200.5,-245.44 206.5,-239.44 212.5,-239.44 212.5,-239.44 313.5,-239.44 313.5,-239.44 319.5,-239.44 325.5,-245.44 325.5,-251.44 325.5,-251.44 325.5,-263.44 325.5,-263.44 325.5,-269.44 319.5,-275.44 313.5,-275.44"/>
<text text-anchor="middle" x="263" y="-260.44" font-family="Helvetica,sans-Serif" font-size="10.00" fill="#00f2ff">pam_limits.so</text>
<text text-anchor="middle" x="263" y="-249.44" font-family="Helvetica,sans-Serif" font-size="10.00" fill="#00f2ff">(Apply ulimit constraints)</text>
</g>
<!-- PAM_Session&#45;&gt;Pam_Limits -->
<g id="edge5" class="edge">
<title>PAM_Session&#45;&gt;Pam_Limits</title>
<path fill="none" stroke="#ff00ff" d="M263,-325.03C263,-313.69 263,-298.66 263,-285.75"/>
<polygon fill="#ff00ff" stroke="#ff00ff" points="263,-275.53 267.5,-285.53 263,-280.53 263,-285.53 263,-285.53 263,-285.53 263,-280.53 258.5,-285.53 263,-275.53 263,-275.53"/>
</g>
<!-- Pam_Motd -->
<g id="node6" class="node">
<title>Pam_Motd</title>
<path fill="#161b22" stroke="#00f2ff" d="M170.5,-275.44C170.5,-275.44 27.5,-275.44 27.5,-275.44 21.5,-275.44 15.5,-269.44 15.5,-263.44 15.5,-263.44 15.5,-251.44 15.5,-251.44 15.5,-245.44 21.5,-239.44 27.5,-239.44 27.5,-239.44 170.5,-239.44 170.5,-239.44 176.5,-239.44 182.5,-245.44 182.5,-251.44 182.5,-251.44 182.5,-263.44 182.5,-263.44 182.5,-269.44 176.5,-275.44 170.5,-275.44"/>
<text text-anchor="middle" x="99" y="-260.44" font-family="Helvetica,sans-Serif" font-size="10.00" fill="#00f2ff">pam_motd.so</text>
<text text-anchor="middle" x="99" y="-249.44" font-family="Helvetica,sans-Serif" font-size="10.00" fill="#00f2ff">(Output system message banners)</text>
</g>
<!-- PAM_Session&#45;&gt;Pam_Motd -->
<g id="edge6" class="edge">
<title>PAM_Session&#45;&gt;Pam_Motd</title>
<path fill="none" stroke="#ff00ff" d="M225.19,-325.43C214.4,-320.42 202.67,-314.84 192,-309.44 173.98,-300.32 154.33,-289.65 137.75,-280.44"/>
<polygon fill="#ff00ff" stroke="#ff00ff" points="128.89,-275.49 139.81,-276.43 133.25,-277.92 137.62,-280.36 137.62,-280.36 137.62,-280.36 133.25,-277.92 135.42,-284.29 128.89,-275.49 128.89,-275.49"/>
</g>
<!-- Shell_Open -->
<g id="node8" class="node">
<title>Shell_Open</title>
<ellipse fill="#161b22" stroke="#00ff00" cx="263" cy="-101.72" rx="97.93" ry="97.93"/>
<ellipse fill="none" stroke="#00ff00" cx="263" cy="-101.72" rx="101.94" ry="101.94"/>
<text text-anchor="middle" x="263" y="-99.22" font-family="Helvetica,sans-Serif" font-size="10.00" fill="#00f2ff">Shell session opened for user &#39;jeb&#39;</text>
</g>
<!-- Pam_Limits&#45;&gt;Shell_Open -->
<g id="edge7" class="edge">
<title>Pam_Limits&#45;&gt;Shell_Open</title>
<path fill="none" stroke="#ff00ff" d="M263,-239.4C263,-232.3 263,-223.43 263,-213.63"/>
<polygon fill="#ff00ff" stroke="#ff00ff" points="263,-203.56 267.5,-213.56 263,-208.56 263,-213.56 263,-213.56 263,-213.56 263,-208.56 258.5,-213.56 263,-203.56 263,-203.56"/>
</g>
<!-- SSH_Connect -->
<g id="node7" class="node">
<title>SSH_Connect</title>
<path fill="#161b22" stroke="#00f2ff" d="M316,-583.44C316,-583.44 210,-583.44 210,-583.44 204,-583.44 198,-577.44 198,-571.44 198,-571.44 198,-559.44 198,-559.44 198,-553.44 204,-547.44 210,-547.44 210,-547.44 316,-547.44 316,-547.44 322,-547.44 328,-553.44 328,-559.44 328,-559.44 328,-571.44 328,-571.44 328,-577.44 322,-583.44 316,-583.44"/>
<text text-anchor="middle" x="263" y="-568.44" font-family="Helvetica,sans-Serif" font-size="10.00" fill="#00f2ff">SSH Connection Request</text>
<text text-anchor="middle" x="263" y="-557.44" font-family="Helvetica,sans-Serif" font-size="10.00" fill="#00f2ff">(Port 22222)</text>
</g>
<!-- SSH_Connect&#45;&gt;PAM_Auth -->
<g id="edge3" class="edge">
<title>SSH_Connect&#45;&gt;PAM_Auth</title>
<path fill="none" stroke="#ff00ff" d="M263,-547.19C263,-537.96 263,-526.37 263,-515.93"/>
<polygon fill="#ff00ff" stroke="#ff00ff" points="263,-505.61 267.5,-515.61 263,-510.61 263,-515.61 263,-515.61 263,-515.61 263,-510.61 258.5,-515.61 263,-505.61 263,-505.61"/>
</g>
</g>
</svg>
