<?xml version="1.0" encoding="UTF-8" standalone="no"?>
<!DOCTYPE svg PUBLIC "-//W3C//DTD SVG 1.1//EN"
 "http://www.w3.org/Graphics/SVG/1.1/DTD/svg11.dtd">
<!-- Generated by graphviz version 2.43.0 (0)
 -->
<!-- Title: WorkVerification Pages: 1 -->
<svg width="372pt" height="631pt"
 viewBox="0.00 0.00 372.00 631.46" xmlns="http://www.w3.org/2000/svg" xmlns:xlink="http://www.w3.org/1999/xlink">
<g id="graph0" class="graph" transform="scale(1 1) rotate(0) translate(4 627.46)">
<title>WorkVerification</title>
<polygon fill="#0d1117" stroke="transparent" points="-4,4 -4,-627.46 368,-627.46 368,4 -4,4"/>
<text text-anchor="middle" x="182" y="-606.66" font-family="Helvetica,sans-Serif" font-size="16.00" fill="#00f2ff">A4.4: Library Linking Verification Pipeline</text>
<g id="clust1" class="cluster">
<title>cluster_binary_check</title>
<polygon fill="#0d1117" stroke="#ffff00" points="8,-414.46 8,-589.46 356,-589.46 356,-414.46 8,-414.46"/>
<text text-anchor="middle" x="182" y="-572.66" font-family="Helvetica,sans-Serif" font-size="16.00" fill="#ffff00">Binary Output Check</text>
</g>
<g id="clust2" class="cluster">
<title>cluster_linking_check</title>
<polygon fill="#0d1117" stroke="#00ff00" points="20,-211.46 20,-386.46 344,-386.46 344,-211.46 20,-211.46"/>
<text text-anchor="middle" x="182" y="-369.66" font-family="Helvetica,sans-Serif" font-size="16.00" fill="#00ff00">Dynamically Linked Library Verification</text>
</g>
<!-- Version_Cmd -->
<g id="node1" class="node">
<title>Version_Cmd</title>
<path fill="#161b22" stroke="#00f2ff" d="M258,-555.46C258,-555.46 106,-555.46 106,-555.46 100,-555.46 94,-549.46 94,-543.46 94,-543.46 94,-531.46 94,-531.46 94,-525.46 100,-519.46 106,-519.46 106,-519.46 258,-519.46 258,-519.46 264,-519.46 270,-525.46 270,-531.46 270,-531.46 270,-543.46 270,-543.46 270,-549.46 264,-555.46 258,-555.46"/>
<text text-anchor="middle" x="182" y="-540.46" font-family="Helvetica,sans-Serif" font-size="10.00" fill="#00f2ff">Execute version command</text>
<text text-anchor="middle" x="182" y="-529.46" font-family="Helvetica,sans-Serif" font-size="10.00" fill="#00f2ff">(e.g. openssl version / curl &#45;&#45;version)</text>
</g>
<!-- Regex_Match -->
<g id="node2" class="node">
<title>Regex_Match</title>
<path fill="#161b22" stroke="#00f2ff" d="M170.19,-480.33C170.19,-480.33 27.81,-454.6 27.81,-454.6 21.9,-453.53 21.9,-451.4 27.81,-450.33 27.81,-450.33 170.19,-424.6 170.19,-424.6 176.1,-423.53 187.9,-423.53 193.81,-424.6 193.81,-424.6 336.19,-450.33 336.19,-450.33 342.1,-451.4 342.1,-453.53 336.19,-454.6 336.19,-454.6 193.81,-480.33 193.81,-480.33 187.9,-481.4 176.1,-481.4 170.19,-480.33"/>
<text text-anchor="middle" x="182" y="-455.46" font-family="Helvetica,sans-Serif" font-size="10.00" fill="#00f2ff">Confirm expected version output</text>
<text text-anchor="middle" x="182" y="-444.46" font-family="Helvetica,sans-Serif" font-size="10.00" fill="#00f2ff">(Verify string contains version tag)</text>
</g>
<!-- Version_Cmd&#45;&gt;Regex_Match -->
<g id="edge1" class="edge">
<title>Version_Cmd&#45;&gt;Regex_Match</title>
<path fill="none" stroke="#ff00ff" d="M182,-519.27C182,-511.61 182,-502.24 182,-493.01"/>
<polygon fill="#ff00ff" stroke="#ff00ff" points="182,-482.73 186.5,-492.73 182,-487.73 182,-492.73 182,-492.73 182,-492.73 182,-487.73 177.5,-492.73 182,-482.73 182,-482.73"/>
</g>
<!-- Ldd_Cmd -->
<g id="node3" class="node">
<title>Ldd_Cmd</title>
<path fill="#161b22" stroke="#00f2ff" d="M238.5,-352.46C238.5,-352.46 125.5,-352.46 125.5,-352.46 119.5,-352.46 113.5,-346.46 113.5,-340.46 113.5,-340.46 113.5,-328.46 113.5,-328.46 113.5,-322.46 119.5,-316.46 125.5,-316.46 125.5,-316.46 238.5,-316.46 238.5,-316.46 244.5,-316.46 250.5,-322.46 250.5,-328.46 250.5,-328.46 250.5,-340.46 250.5,-340.46 250.5,-346.46 244.5,-352.46 238.5,-352.46"/>
<text text-anchor="middle" x="182" y="-337.46" font-family="Helvetica,sans-Serif" font-size="10.00" fill="#00f2ff">Execute: ldd /path/to/binary</text>
<text text-anchor="middle" x="182" y="-326.46" font-family="Helvetica,sans-Serif" font-size="10.00" fill="#00f2ff">(List library references)</text>
</g>
<!-- Regex_Match&#45;&gt;Ldd_Cmd -->
<g id="edge3" class="edge">
<title>Regex_Match&#45;&gt;Ldd_Cmd</title>
<path fill="none" stroke="#ff00ff" d="M182,-422.19C182,-403.87 182,-380.44 182,-362.55"/>
<polygon fill="#ff00ff" stroke="#ff00ff" points="182,-352.49 186.5,-362.49 182,-357.49 182,-362.49 182,-362.49 182,-362.49 182,-357.49 177.5,-362.49 182,-352.49 182,-352.49"/>
<text text-anchor="middle" x="192.5" y="-397.26" font-family="Helvetica,sans-Serif" font-size="9.00">Pass</text>
</g>
<!-- Check_Lib_Path -->
<g id="node4" class="node">
<title>Check_Lib_Path</title>
<path fill="#161b22" stroke="#00f2ff" d="M170.22,-277.17C170.22,-277.17 39.78,-251.76 39.78,-251.76 33.89,-250.61 33.89,-248.32 39.78,-247.17 39.78,-247.17 170.22,-221.76 170.22,-221.76 176.11,-220.61 187.89,-220.61 193.78,-221.76 193.78,-221.76 324.22,-247.17 324.22,-247.17 330.11,-248.32 330.11,-250.61 324.22,-251.76 324.22,-251.76 193.78,-277.17 193.78,-277.17 187.89,-278.32 176.11,-278.32 170.22,-277.17"/>
<text text-anchor="middle" x="182" y="-252.46" font-family="Helvetica,sans-Serif" font-size="10.00" fill="#00f2ff">Verify libssl.so.3 is loaded from</text>
<text text-anchor="middle" x="182" y="-241.46" font-family="Helvetica,sans-Serif" font-size="10.00" fill="#00f2ff">/usr/local/ssl/lib64/ (not /lib/...)</text>
</g>
<!-- Ldd_Cmd&#45;&gt;Check_Lib_Path -->
<g id="edge2" class="edge">
<title>Ldd_Cmd&#45;&gt;Check_Lib_Path</title>
<path fill="none" stroke="#ff00ff" d="M182,-316.27C182,-308.61 182,-299.24 182,-290.01"/>
<polygon fill="#ff00ff" stroke="#ff00ff" points="182,-279.73 186.5,-289.73 182,-284.73 182,-289.73 182,-289.73 182,-289.73 182,-284.73 177.5,-289.73 182,-279.73 182,-279.73"/>
</g>
<!-- Success_Final -->
<g id="node5" class="node">
<title>Success_Final</title>
<ellipse fill="#161b22" stroke="#00ff00" cx="182" cy="-86.73" rx="82.95" ry="82.95"/>
<ellipse fill="none" stroke="#00ff00" cx="182" cy="-86.73" rx="86.96" ry="86.96"/>
<text text-anchor="middle" x="182" y="-89.73" font-family="Helvetica,sans-Serif" font-size="10.00" fill="#00f2ff">Verification Successful</text>
<text text-anchor="middle" x="182" y="-78.73" font-family="Helvetica,sans-Serif" font-size="10.00" fill="#00f2ff">(Isolation validated)</text>
</g>
<!-- Check_Lib_Path&#45;&gt;Success_Final -->
<g id="edge4" class="edge">
<title>Check_Lib_Path&#45;&gt;Success_Final</title>
<path fill="none" stroke="#ff00ff" d="M182,-219.36C182,-209.08 182,-196.88 182,-184.12"/>
<polygon fill="#ff00ff" stroke="#ff00ff" points="182,-173.79 186.5,-183.79 182,-178.79 182,-183.79 182,-183.79 182,-183.79 182,-178.79 177.5,-183.79 182,-173.79 182,-173.79"/>
<text text-anchor="middle" x="192.5" y="-194.26" font-family="Helvetica,sans-Serif" font-size="9.00">Pass</text>
</g>
</g>
</svg>
