<?xml version="1.0" encoding="UTF-8" standalone="no"?>
<!DOCTYPE svg PUBLIC "-//W3C//DTD SVG 1.1//EN"
 "http://www.w3.org/Graphics/SVG/1.1/DTD/svg11.dtd">
<!-- Generated by graphviz version 2.43.0 (0)
 -->
<!-- Title: WorkDependency Pages: 1 -->
<svg width="391pt" height="594pt"
 viewBox="0.00 0.00 391.00 594.00" xmlns="http://www.w3.org/2000/svg" xmlns:xlink="http://www.w3.org/1999/xlink">
<g id="graph0" class="graph" transform="scale(1 1) rotate(0) translate(4 590)">
<title>WorkDependency</title>
<polygon fill="#0d1117" stroke="transparent" points="-4,4 -4,-590 387,-590 387,4 -4,4"/>
<text text-anchor="middle" x="191.5" y="-569.2" font-family="Helvetica,sans-Serif" font-size="16.00" fill="#00f2ff">A4.2: Pre&#45;compilation System Dependency Checks</text>
<g id="clust1" class="cluster">
<title>cluster_toolchain_checks</title>
<polygon fill="#0d1117" stroke="#ffff00" points="111,-294 111,-516 284,-516 284,-294 111,-294"/>
<text text-anchor="middle" x="197.5" y="-499.2" font-family="Helvetica,sans-Serif" font-size="16.00" fill="#ffff00">Compiler Suite Check</text>
</g>
<g id="clust2" class="cluster">
<title>cluster_headers_checks</title>
<polygon fill="#0d1117" stroke="#ff00ff" points="51,-64 51,-286 332,-286 332,-64 51,-64"/>
<text text-anchor="middle" x="191.5" y="-269.2" font-family="Helvetica,sans-Serif" font-size="16.00" fill="#ff00ff">Library Development Headers Check</text>
</g>
<!-- Check_GCC -->
<g id="node1" class="node">
<title>Check_GCC</title>
<path fill="#161b22" stroke="#00f2ff" d="M236,-482C236,-482 146,-482 146,-482 140,-482 134,-476 134,-470 134,-470 134,-458 134,-458 134,-452 140,-446 146,-446 146,-446 236,-446 236,-446 242,-446 248,-452 248,-458 248,-458 248,-470 248,-470 248,-476 242,-482 236,-482"/>
<text text-anchor="middle" x="191" y="-467" font-family="Helvetica,sans-Serif" font-size="10.00" fill="#00f2ff">gcc check</text>
<text text-anchor="middle" x="191" y="-456" font-family="Helvetica,sans-Serif" font-size="10.00" fill="#00f2ff">(Expects gcc &gt;= 11.0)</text>
</g>
<!-- Check_Make -->
<g id="node2" class="node">
<title>Check_Make</title>
<path fill="#161b22" stroke="#00f2ff" d="M237.5,-410C237.5,-410 144.5,-410 144.5,-410 138.5,-410 132.5,-404 132.5,-398 132.5,-398 132.5,-386 132.5,-386 132.5,-380 138.5,-374 144.5,-374 144.5,-374 237.5,-374 237.5,-374 243.5,-374 249.5,-380 249.5,-386 249.5,-386 249.5,-398 249.5,-398 249.5,-404 243.5,-410 237.5,-410"/>
<text text-anchor="middle" x="191" y="-395" font-family="Helvetica,sans-Serif" font-size="10.00" fill="#00f2ff">make check</text>
<text text-anchor="middle" x="191" y="-384" font-family="Helvetica,sans-Serif" font-size="10.00" fill="#00f2ff">(Expects make &gt;= 4.0)</text>
</g>
<!-- Check_GCC&#45;&gt;Check_Make -->
<g id="edge2" class="edge">
<title>Check_GCC&#45;&gt;Check_Make</title>
<path fill="none" stroke="#ff00ff" d="M191,-445.7C191,-437.98 191,-428.71 191,-420.11"/>
<polygon fill="#ff00ff" stroke="#ff00ff" points="191,-410.1 195.5,-420.1 191,-415.1 191,-420.1 191,-420.1 191,-420.1 191,-415.1 186.5,-420.1 191,-410.1 191,-410.1"/>
</g>
<!-- Check_Perl -->
<g id="node3" class="node">
<title>Check_Perl</title>
<path fill="#161b22" stroke="#00f2ff" d="M236,-338C236,-338 146,-338 146,-338 140,-338 134,-332 134,-326 134,-326 134,-314 134,-314 134,-308 140,-302 146,-302 146,-302 236,-302 236,-302 242,-302 248,-308 248,-314 248,-314 248,-326 248,-326 248,-332 242,-338 236,-338"/>
<text text-anchor="middle" x="191" y="-323" font-family="Helvetica,sans-Serif" font-size="10.00" fill="#00f2ff">perl check</text>
<text text-anchor="middle" x="191" y="-312" font-family="Helvetica,sans-Serif" font-size="10.00" fill="#00f2ff">(Expects perl &gt;= 5.30)</text>
</g>
<!-- Check_Make&#45;&gt;Check_Perl -->
<g id="edge3" class="edge">
<title>Check_Make&#45;&gt;Check_Perl</title>
<path fill="none" stroke="#ff00ff" d="M191,-373.7C191,-365.98 191,-356.71 191,-348.11"/>
<polygon fill="#ff00ff" stroke="#ff00ff" points="191,-338.1 195.5,-348.1 191,-343.1 191,-348.1 191,-348.1 191,-348.1 191,-343.1 186.5,-348.1 191,-338.1 191,-338.1"/>
</g>
<!-- Check_Zlib_Dev -->
<g id="node4" class="node">
<title>Check_Zlib_Dev</title>
<path fill="#161b22" stroke="#00f2ff" d="M238.5,-252C238.5,-252 143.5,-252 143.5,-252 137.5,-252 131.5,-246 131.5,-240 131.5,-240 131.5,-228 131.5,-228 131.5,-222 137.5,-216 143.5,-216 143.5,-216 238.5,-216 238.5,-216 244.5,-216 250.5,-222 250.5,-228 250.5,-228 250.5,-240 250.5,-240 250.5,-246 244.5,-252 238.5,-252"/>
<text text-anchor="middle" x="191" y="-237" font-family="Helvetica,sans-Serif" font-size="10.00" fill="#00f2ff">zlib1g&#45;dev check</text>
<text text-anchor="middle" x="191" y="-226" font-family="Helvetica,sans-Serif" font-size="10.00" fill="#00f2ff">(Used for compression)</text>
</g>
<!-- Check_Perl&#45;&gt;Check_Zlib_Dev -->
<g id="edge4" class="edge">
<title>Check_Perl&#45;&gt;Check_Zlib_Dev</title>
<path fill="none" stroke="#ff00ff" d="M191,-301.6C191,-290.26 191,-275.23 191,-262.32"/>
<polygon fill="#ff00ff" stroke="#ff00ff" points="191,-252.1 195.5,-262.1 191,-257.1 191,-262.1 191,-262.1 191,-262.1 191,-257.1 186.5,-262.1 191,-252.1 191,-252.1"/>
</g>
<!-- Check_Pam_Dev -->
<g id="node5" class="node">
<title>Check_Pam_Dev</title>
<path fill="#161b22" stroke="#00f2ff" d="M264.5,-180C264.5,-180 117.5,-180 117.5,-180 111.5,-180 105.5,-174 105.5,-168 105.5,-168 105.5,-156 105.5,-156 105.5,-150 111.5,-144 117.5,-144 117.5,-144 264.5,-144 264.5,-144 270.5,-144 276.5,-150 276.5,-156 276.5,-156 276.5,-168 276.5,-168 276.5,-174 270.5,-180 264.5,-180"/>
<text text-anchor="middle" x="191" y="-165" font-family="Helvetica,sans-Serif" font-size="10.00" fill="#00f2ff">libpam0g&#45;dev check</text>
<text text-anchor="middle" x="191" y="-154" font-family="Helvetica,sans-Serif" font-size="10.00" fill="#00f2ff">(Used for OpenSSH authentication)</text>
</g>
<!-- Check_Zlib_Dev&#45;&gt;Check_Pam_Dev -->
<g id="edge5" class="edge">
<title>Check_Zlib_Dev&#45;&gt;Check_Pam_Dev</title>
<path fill="none" stroke="#ff00ff" d="M191,-215.7C191,-207.98 191,-198.71 191,-190.11"/>
<polygon fill="#ff00ff" stroke="#ff00ff" points="191,-180.1 195.5,-190.1 191,-185.1 191,-190.1 191,-190.1 191,-190.1 191,-185.1 186.5,-190.1 191,-180.1 191,-180.1"/>
</g>
<!-- Check_Pcre_Dev -->
<g id="node6" class="node">
<title>Check_Pcre_Dev</title>
<path fill="#161b22" stroke="#00f2ff" d="M242,-108C242,-108 140,-108 140,-108 134,-108 128,-102 128,-96 128,-96 128,-84 128,-84 128,-78 134,-72 140,-72 140,-72 242,-72 242,-72 248,-72 254,-78 254,-84 254,-84 254,-96 254,-96 254,-102 248,-108 242,-108"/>
<text text-anchor="middle" x="191" y="-93" font-family="Helvetica,sans-Serif" font-size="10.00" fill="#00f2ff">libpcre3&#45;dev check</text>
<text text-anchor="middle" x="191" y="-82" font-family="Helvetica,sans-Serif" font-size="10.00" fill="#00f2ff">(Used for Nginx rewrites)</text>
</g>
<!-- Check_Pam_Dev&#45;&gt;Check_Pcre_Dev -->
<g id="edge6" class="edge">
<title>Check_Pam_Dev&#45;&gt;Check_Pcre_Dev</title>
<path fill="none" stroke="#ff00ff" d="M191,-143.7C191,-135.98 191,-126.71 191,-118.11"/>
<polygon fill="#ff00ff" stroke="#ff00ff" points="191,-108.1 195.5,-118.1 191,-113.1 191,-118.1 191,-118.1 191,-118.1 191,-113.1 186.5,-118.1 191,-108.1 191,-108.1"/>
</g>
<!-- Ready -->
<g id="node8" class="node">
<title>Ready</title>
<path fill="#161b22" stroke="#00ff00" d="M254.5,-36C254.5,-36 127.5,-36 127.5,-36 121.5,-36 115.5,-30 115.5,-24 115.5,-24 115.5,-12 115.5,-12 115.5,-6 121.5,0 127.5,0 127.5,0 254.5,0 254.5,0 260.5,0 266.5,-6 266.5,-12 266.5,-12 266.5,-24 266.5,-24 266.5,-30 260.5,-36 254.5,-36"/>
<text text-anchor="middle" x="191" y="-15.5" font-family="Helvetica,sans-Serif" font-size="10.00" fill="#00f2ff">System Ready for Compilation</text>
</g>
<!-- Check_Pcre_Dev&#45;&gt;Ready -->
<g id="edge7" class="edge">
<title>Check_Pcre_Dev&#45;&gt;Ready</title>
<path fill="none" stroke="#ff00ff" d="M191,-71.7C191,-63.98 191,-54.71 191,-46.11"/>
<polygon fill="#ff00ff" stroke="#ff00ff" points="191,-36.1 195.5,-46.1 191,-41.1 191,-46.1 191,-46.1 191,-46.1 191,-41.1 186.5,-46.1 191,-36.1 191,-36.1"/>
</g>
<!-- Start -->
<g id="node7" class="node">
<title>Start</title>
<path fill="#161b22" stroke="#00f2ff" d="M242,-560C242,-560 140,-560 140,-560 134,-560 128,-554 128,-548 128,-548 128,-536 128,-536 128,-530 134,-524 140,-524 140,-524 242,-524 242,-524 248,-524 254,-530 254,-536 254,-536 254,-548 254,-548 254,-554 248,-560 242,-560"/>
<text text-anchor="middle" x="191" y="-539.5" font-family="Helvetica,sans-Serif" font-size="10.00" fill="#00f2ff">Pre&#45;Compile Check Start</text>
</g>
<!-- Start&#45;&gt;Check_GCC -->
<g id="edge1" class="edge">
<title>Start&#45;&gt;Check_GCC</title>
<path fill="none" stroke="#ff00ff" d="M191,-523.75C191,-514.52 191,-502.93 191,-492.49"/>
<polygon fill="#ff00ff" stroke="#ff00ff" points="191,-482.18 195.5,-492.18 191,-487.18 191,-492.18 191,-492.18 191,-492.18 191,-487.18 186.5,-492.18 191,-482.18 191,-482.18"/>
</g>
</g>
</svg>
