<?xml version="1.0" encoding="UTF-8" standalone="no"?>
<!DOCTYPE svg PUBLIC "-//W3C//DTD SVG 1.1//EN"
 "http://www.w3.org/Graphics/SVG/1.1/DTD/svg11.dtd">
<!-- Generated by graphviz version 2.43.0 (0)
 -->
<!-- Title: WorkLifecycle Pages: 1 -->
<svg width="245pt" height="513pt"
 viewBox="0.00 0.00 245.00 513.00" xmlns="http://www.w3.org/2000/svg" xmlns:xlink="http://www.w3.org/1999/xlink">
<g id="graph0" class="graph" transform="scale(1 1) rotate(0) translate(4 509)">
<title>WorkLifecycle</title>
<polygon fill="#0d1117" stroke="transparent" points="-4,4 -4,-509 241,-509 241,4 -4,4"/>
<text text-anchor="middle" x="118.5" y="-7.8" font-family="Helvetica,sans-Serif" font-size="14.00" fill="#00f2ff">A4.1: Software Compilation Lifecycle</text>
<!-- Download -->
<g id="node1" class="node">
<title>Download</title>
<path fill="#161b22" stroke="#00f2ff" d="M175,-505C175,-505 62,-505 62,-505 56,-505 50,-499 50,-493 50,-493 50,-479 50,-479 50,-473 56,-467 62,-467 62,-467 175,-467 175,-467 181,-467 187,-473 187,-479 187,-479 187,-493 187,-493 187,-499 181,-505 175,-505"/>
<text text-anchor="middle" x="118.5" y="-489.8" font-family="Helvetica,sans-Serif" font-size="14.00" fill="#00f2ff">Download Source</text>
<text text-anchor="middle" x="118.5" y="-474.8" font-family="Helvetica,sans-Serif" font-size="14.00" fill="#00f2ff">(curl official release)</text>
</g>
<!-- Verify -->
<g id="node2" class="node">
<title>Verify</title>
<path fill="#161b22" stroke="#ffff00" d="M185,-431C185,-431 52,-431 52,-431 46,-431 40,-425 40,-419 40,-419 40,-405 40,-405 40,-399 46,-393 52,-393 52,-393 185,-393 185,-393 191,-393 197,-399 197,-405 197,-405 197,-419 197,-419 197,-425 191,-431 185,-431"/>
<text text-anchor="middle" x="118.5" y="-415.8" font-family="Helvetica,sans-Serif" font-size="14.00" fill="#00f2ff">Hash Verification</text>
<text text-anchor="middle" x="118.5" y="-400.8" font-family="Helvetica,sans-Serif" font-size="14.00" fill="#00f2ff">(sha256sum validation)</text>
</g>
<!-- Download&#45;&gt;Verify -->
<g id="edge1" class="edge">
<title>Download&#45;&gt;Verify</title>
<path fill="none" stroke="#ff00ff" d="M118.5,-466.83C118.5,-459.13 118.5,-449.97 118.5,-441.42"/>
<polygon fill="#ff00ff" stroke="#ff00ff" points="118.5,-431.41 123,-441.41 118.5,-436.41 118.5,-441.41 118.5,-441.41 118.5,-441.41 118.5,-436.41 114,-441.41 118.5,-431.41 118.5,-431.41"/>
</g>
<!-- Extract -->
<g id="node3" class="node">
<title>Extract</title>
<path fill="#161b22" stroke="#00f2ff" d="M145,-357C145,-357 92,-357 92,-357 86,-357 80,-351 80,-345 80,-345 80,-331 80,-331 80,-325 86,-319 92,-319 92,-319 145,-319 145,-319 151,-319 157,-325 157,-331 157,-331 157,-345 157,-345 157,-351 151,-357 145,-357"/>
<text text-anchor="middle" x="118.5" y="-341.8" font-family="Helvetica,sans-Serif" font-size="14.00" fill="#00f2ff">Extraction</text>
<text text-anchor="middle" x="118.5" y="-326.8" font-family="Helvetica,sans-Serif" font-size="14.00" fill="#00f2ff">(tar &#45;xzf)</text>
</g>
<!-- Verify&#45;&gt;Extract -->
<g id="edge2" class="edge">
<title>Verify&#45;&gt;Extract</title>
<path fill="none" stroke="#ff00ff" d="M118.5,-392.83C118.5,-385.13 118.5,-375.97 118.5,-367.42"/>
<polygon fill="#ff00ff" stroke="#ff00ff" points="118.5,-357.41 123,-367.41 118.5,-362.41 118.5,-367.41 118.5,-367.41 118.5,-367.41 118.5,-362.41 114,-367.41 118.5,-357.41 118.5,-357.41"/>
</g>
<!-- Configure -->
<g id="node4" class="node">
<title>Configure</title>
<path fill="#161b22" stroke="#00f2ff" d="M172,-283C172,-283 65,-283 65,-283 59,-283 53,-277 53,-271 53,-271 53,-257 53,-257 53,-251 59,-245 65,-245 65,-245 172,-245 172,-245 178,-245 184,-251 184,-257 184,-257 184,-271 184,-271 184,-277 178,-283 172,-283"/>
<text text-anchor="middle" x="118.5" y="-267.8" font-family="Helvetica,sans-Serif" font-size="14.00" fill="#00f2ff">Configuration</text>
<text text-anchor="middle" x="118.5" y="-252.8" font-family="Helvetica,sans-Serif" font-size="14.00" fill="#00f2ff">(./config with rpath)</text>
</g>
<!-- Extract&#45;&gt;Configure -->
<g id="edge3" class="edge">
<title>Extract&#45;&gt;Configure</title>
<path fill="none" stroke="#ff00ff" d="M118.5,-318.83C118.5,-311.13 118.5,-301.97 118.5,-293.42"/>
<polygon fill="#ff00ff" stroke="#ff00ff" points="118.5,-283.41 123,-293.41 118.5,-288.41 118.5,-293.41 118.5,-293.41 118.5,-293.41 118.5,-288.41 114,-293.41 118.5,-283.41 118.5,-283.41"/>
</g>
<!-- Build -->
<g id="node5" class="node">
<title>Build</title>
<path fill="#161b22" stroke="#00f2ff" d="M167,-209C167,-209 70,-209 70,-209 64,-209 58,-203 58,-197 58,-197 58,-183 58,-183 58,-177 64,-171 70,-171 70,-171 167,-171 167,-171 173,-171 179,-177 179,-183 179,-183 179,-197 179,-197 179,-203 173,-209 167,-209"/>
<text text-anchor="middle" x="118.5" y="-193.8" font-family="Helvetica,sans-Serif" font-size="14.00" fill="#00f2ff">Compilation</text>
<text text-anchor="middle" x="118.5" y="-178.8" font-family="Helvetica,sans-Serif" font-size="14.00" fill="#00f2ff">(make &#45;j$(nproc))</text>
</g>
<!-- Configure&#45;&gt;Build -->
<g id="edge4" class="edge">
<title>Configure&#45;&gt;Build</title>
<path fill="none" stroke="#ff00ff" d="M118.5,-244.83C118.5,-237.13 118.5,-227.97 118.5,-219.42"/>
<polygon fill="#ff00ff" stroke="#ff00ff" points="118.5,-209.41 123,-219.41 118.5,-214.41 118.5,-219.41 118.5,-219.41 118.5,-219.41 118.5,-214.41 114,-219.41 118.5,-209.41 118.5,-209.41"/>
</g>
<!-- Test -->
<g id="node6" class="node">
<title>Test</title>
<path fill="#161b22" stroke="#00ff00" d="M172,-135C172,-135 65,-135 65,-135 59,-135 53,-129 53,-123 53,-123 53,-109 53,-109 53,-103 59,-97 65,-97 65,-97 172,-97 172,-97 178,-97 184,-103 184,-109 184,-109 184,-123 184,-123 184,-129 178,-135 172,-135"/>
<text text-anchor="middle" x="118.5" y="-119.8" font-family="Helvetica,sans-Serif" font-size="14.00" fill="#00f2ff">Regression Testing</text>
<text text-anchor="middle" x="118.5" y="-104.8" font-family="Helvetica,sans-Serif" font-size="14.00" fill="#00f2ff">(make test)</text>
</g>
<!-- Build&#45;&gt;Test -->
<g id="edge5" class="edge">
<title>Build&#45;&gt;Test</title>
<path fill="none" stroke="#ff00ff" d="M118.5,-170.83C118.5,-163.13 118.5,-153.97 118.5,-145.42"/>
<polygon fill="#ff00ff" stroke="#ff00ff" points="118.5,-135.41 123,-145.41 118.5,-140.41 118.5,-145.41 118.5,-145.41 118.5,-145.41 118.5,-140.41 114,-145.41 118.5,-135.41 118.5,-135.41"/>
</g>
<!-- Install -->
<g id="node7" class="node">
<title>Install</title>
<path fill="#161b22" stroke="#00f2ff" d="M172,-61C172,-61 65,-61 65,-61 59,-61 53,-55 53,-49 53,-49 53,-35 53,-35 53,-29 59,-23 65,-23 65,-23 172,-23 172,-23 178,-23 184,-29 184,-35 184,-35 184,-49 184,-49 184,-55 178,-61 172,-61"/>
<text text-anchor="middle" x="118.5" y="-45.8" font-family="Helvetica,sans-Serif" font-size="14.00" fill="#00f2ff">Installation</text>
<text text-anchor="middle" x="118.5" y="-30.8" font-family="Helvetica,sans-Serif" font-size="14.00" fill="#00f2ff">(sudo make install)</text>
</g>
<!-- Test&#45;&gt;Install -->
<g id="edge6" class="edge">
<title>Test&#45;&gt;Install</title>
<path fill="none" stroke="#ff00ff" d="M118.5,-96.83C118.5,-89.13 118.5,-79.97 118.5,-71.42"/>
<polygon fill="#ff00ff" stroke="#ff00ff" points="118.5,-61.41 123,-71.41 118.5,-66.41 118.5,-71.41 118.5,-71.41 118.5,-71.41 118.5,-66.41 114,-71.41 118.5,-61.41 118.5,-61.41"/>
</g>
</g>
</svg>
