<?xml version="1.0" encoding="UTF-8" standalone="no"?>
<!DOCTYPE svg PUBLIC "-//W3C//DTD SVG 1.1//EN"
 "http://www.w3.org/Graphics/SVG/1.1/DTD/svg11.dtd">
<!-- Generated by graphviz version 2.43.0 (0)
 -->
<!-- Title: WorkDeconfliction Pages: 1 -->
<svg width="389pt" height="229pt"
 viewBox="0.00 0.00 389.00 229.00" xmlns="http://www.w3.org/2000/svg" xmlns:xlink="http://www.w3.org/1999/xlink">
<g id="graph0" class="graph" transform="scale(1 1) rotate(0) translate(4 225)">
<title>WorkDeconfliction</title>
<polygon fill="#0d1117" stroke="transparent" points="-4,4 -4,-225 385,-225 385,4 -4,4"/>
<text text-anchor="middle" x="190.5" y="-7.8" font-family="Helvetica,sans-Serif" font-size="14.00" fill="#00f2ff">A4.3: Binary Path Deconfliction Workflow</text>
<!-- Execution -->
<g id="node1" class="node">
<title>Execution</title>
<path fill="#161b22" stroke="#00f2ff" d="M207,-221C207,-221 79,-221 79,-221 73,-221 67,-215 67,-209 67,-209 67,-197 67,-197 67,-191 73,-185 79,-185 79,-185 207,-185 207,-185 213,-185 219,-191 219,-197 219,-197 219,-209 219,-209 219,-215 213,-221 207,-221"/>
<text text-anchor="middle" x="143" y="-199.3" font-family="Helvetica,sans-Serif" font-size="14.00" fill="#00f2ff">Command Invocations</text>
</g>
<!-- PATH_Check -->
<g id="node2" class="node">
<title>PATH_Check</title>
<path fill="#161b22" stroke="#ffff00" d="M131.13,-146.26C131.13,-146.26 32.38,-131.74 32.38,-131.74 26.44,-130.87 26.44,-129.13 32.38,-128.26 32.38,-128.26 131.13,-113.74 131.13,-113.74 137.06,-112.87 148.94,-112.87 154.87,-113.74 154.87,-113.74 253.62,-128.26 253.62,-128.26 259.56,-129.13 259.56,-130.87 253.62,-131.74 253.62,-131.74 154.87,-146.26 154.87,-146.26 148.94,-147.13 137.06,-147.13 131.13,-146.26"/>
<text text-anchor="middle" x="143" y="-126.3" font-family="Helvetica,sans-Serif" font-size="14.00" fill="#00f2ff">PATH Order Check</text>
</g>
<!-- Execution&#45;&gt;PATH_Check -->
<g id="edge1" class="edge">
<title>Execution&#45;&gt;PATH_Check</title>
<path fill="none" stroke="#ff00ff" d="M143,-184.81C143,-176.79 143,-167.05 143,-158.07"/>
<polygon fill="#ff00ff" stroke="#ff00ff" points="143,-148.03 147.5,-158.03 143,-153.03 143,-158.03 143,-158.03 143,-158.03 143,-153.03 138.5,-158.03 143,-148.03 143,-148.03"/>
</g>
<!-- Local_Bin -->
<g id="node3" class="node">
<title>Local_Bin</title>
<path fill="#161b22" stroke="#00ff00" d="M104,-61C104,-61 12,-61 12,-61 6,-61 0,-55 0,-49 0,-49 0,-35 0,-35 0,-29 6,-23 12,-23 12,-23 104,-23 104,-23 110,-23 116,-29 116,-35 116,-35 116,-49 116,-49 116,-55 110,-61 104,-61"/>
<text text-anchor="middle" x="58" y="-45.8" font-family="Helvetica,sans-Serif" font-size="14.00" fill="#00f2ff">Custom Binary</text>
<text text-anchor="middle" x="58" y="-30.8" font-family="Helvetica,sans-Serif" font-size="14.00" fill="#00f2ff">(/usr/local/bin/...)</text>
</g>
<!-- PATH_Check&#45;&gt;Local_Bin -->
<g id="edge2" class="edge">
<title>PATH_Check&#45;&gt;Local_Bin</title>
<path fill="none" stroke="#ff00ff" d="M93.82,-119.1C80.33,-113.91 67.18,-106.01 59,-94 54.56,-87.49 53.09,-79.34 53.06,-71.48"/>
<polygon fill="#ff00ff" stroke="#ff00ff" points="53.72,-61.47 57.55,-71.75 53.39,-66.46 53.06,-71.45 53.06,-71.45 53.06,-71.45 53.39,-66.46 48.57,-71.16 53.72,-61.47 53.72,-61.47"/>
<text text-anchor="middle" x="133" y="-82.8" font-family="Times,serif" font-size="14.00">/usr/local/bin matched first</text>
</g>
<!-- Sys_Bin -->
<g id="node4" class="node">
<title>Sys_Bin</title>
<path fill="#161b22" stroke="#00f2ff" d="M276.5,-61C276.5,-61 181.5,-61 181.5,-61 175.5,-61 169.5,-55 169.5,-49 169.5,-49 169.5,-35 169.5,-35 169.5,-29 175.5,-23 181.5,-23 181.5,-23 276.5,-23 276.5,-23 282.5,-23 288.5,-29 288.5,-35 288.5,-35 288.5,-49 288.5,-49 288.5,-55 282.5,-61 276.5,-61"/>
<text text-anchor="middle" x="229" y="-45.8" font-family="Helvetica,sans-Serif" font-size="14.00" fill="#00f2ff">System Package</text>
<text text-anchor="middle" x="229" y="-30.8" font-family="Helvetica,sans-Serif" font-size="14.00" fill="#00f2ff">(/usr/bin/...)</text>
</g>
<!-- PATH_Check&#45;&gt;Sys_Bin -->
<g id="edge3" class="edge">
<title>PATH_Check&#45;&gt;Sys_Bin</title>
<path fill="none" stroke="#ff00ff" d="M175.17,-116.61C186.37,-111.05 198.3,-103.55 207,-94 213,-87.41 217.54,-78.93 220.88,-70.79"/>
<polygon fill="#ff00ff" stroke="#ff00ff" points="224.39,-61.17 225.19,-72.1 222.68,-65.86 220.97,-70.56 220.97,-70.56 220.97,-70.56 222.68,-65.86 216.74,-69.02 224.39,-61.17 224.39,-61.17"/>
<text text-anchor="middle" x="299" y="-82.8" font-family="Times,serif" font-size="14.00">System services absolute path</text>
</g>
</g>
</svg>
