<?xml version="1.0" encoding="UTF-8" standalone="no"?>
<!DOCTYPE svg PUBLIC "-//W3C//DTD SVG 1.1//EN"
 "http://www.w3.org/Graphics/SVG/1.1/DTD/svg11.dtd">
<!-- Generated by graphviz version 2.43.0 (0)
 -->
<!-- Title: WorkVerification Pages: 1 -->
<svg width="324pt" height="302pt"
 viewBox="0.00 0.00 323.50 302.00" xmlns="http://www.w3.org/2000/svg" xmlns:xlink="http://www.w3.org/1999/xlink">
<g id="graph0" class="graph" transform="scale(1 1) rotate(0) translate(4 298)">
<title>WorkVerification</title>
<polygon fill="#0d1117" stroke="transparent" points="-4,4 -4,-298 319.5,-298 319.5,4 -4,4"/>
<text text-anchor="middle" x="157.75" y="-7.8" font-family="Helvetica,sans-Serif" font-size="14.00" fill="#00f2ff">A4.4: Dynamic Link Verification Workflow</text>
<!-- Installed_Binary -->
<g id="node1" class="node">
<title>Installed_Binary</title>
<path fill="#161b22" stroke="#00f2ff" d="M204.5,-294C204.5,-294 110.5,-294 110.5,-294 104.5,-294 98.5,-288 98.5,-282 98.5,-282 98.5,-270 98.5,-270 98.5,-264 104.5,-258 110.5,-258 110.5,-258 204.5,-258 204.5,-258 210.5,-258 216.5,-264 216.5,-270 216.5,-270 216.5,-282 216.5,-282 216.5,-288 210.5,-294 204.5,-294"/>
<text text-anchor="middle" x="157.5" y="-272.3" font-family="Helvetica,sans-Serif" font-size="14.00" fill="#00f2ff">Binary Validation</text>
</g>
<!-- Runpath_Query -->
<g id="node2" class="node">
<title>Runpath_Query</title>
<path fill="#161b22" stroke="#00f2ff" d="M286.57,-221C286.57,-221 86.16,-221 86.16,-221 80.16,-221 69.07,-217.83 63.98,-214.65 63.98,-214.65 26.61,-191.35 26.61,-191.35 21.52,-188.17 22.43,-185 28.43,-185 28.43,-185 228.84,-185 228.84,-185 234.84,-185 245.93,-188.17 251.02,-191.35 251.02,-191.35 288.39,-214.65 288.39,-214.65 293.48,-217.83 292.57,-221 286.57,-221"/>
<text text-anchor="middle" x="157.5" y="-199.3" font-family="Helvetica,sans-Serif" font-size="14.00" fill="#00f2ff">ldd /usr/local/.../binary</text>
</g>
<!-- Installed_Binary&#45;&gt;Runpath_Query -->
<g id="edge1" class="edge">
<title>Installed_Binary&#45;&gt;Runpath_Query</title>
<path fill="none" stroke="#ff00ff" d="M157.5,-257.81C157.5,-249.79 157.5,-240.05 157.5,-231.07"/>
<polygon fill="#ff00ff" stroke="#ff00ff" points="157.5,-221.03 162,-231.03 157.5,-226.03 157.5,-231.03 157.5,-231.03 157.5,-231.03 157.5,-226.03 153,-231.03 157.5,-221.03 157.5,-221.03"/>
</g>
<!-- Lib_Check -->
<g id="node3" class="node">
<title>Lib_Check</title>
<path fill="#161b22" stroke="#ffff00" d="M145.63,-146.22C145.63,-146.22 49.05,-131.78 49.05,-131.78 43.11,-130.89 43.11,-129.11 49.05,-128.22 49.05,-128.22 145.63,-113.78 145.63,-113.78 151.57,-112.89 163.43,-112.89 169.37,-113.78 169.37,-113.78 265.95,-128.22 265.95,-128.22 271.89,-129.11 271.89,-130.89 265.95,-131.78 265.95,-131.78 169.37,-146.22 169.37,-146.22 163.43,-147.11 151.57,-147.11 145.63,-146.22"/>
<text text-anchor="middle" x="157.5" y="-126.3" font-family="Helvetica,sans-Serif" font-size="14.00" fill="#00f2ff">Library Path Check</text>
</g>
<!-- Runpath_Query&#45;&gt;Lib_Check -->
<g id="edge2" class="edge">
<title>Runpath_Query&#45;&gt;Lib_Check</title>
<path fill="none" stroke="#ff00ff" d="M157.5,-184.81C157.5,-176.79 157.5,-167.05 157.5,-158.07"/>
<polygon fill="#ff00ff" stroke="#ff00ff" points="157.5,-148.03 162,-158.03 157.5,-153.03 157.5,-158.03 157.5,-158.03 157.5,-158.03 157.5,-153.03 153,-158.03 157.5,-148.03 157.5,-148.03"/>
</g>
<!-- Valid_Load -->
<g id="node4" class="node">
<title>Valid_Load</title>
<path fill="#161b22" stroke="#00ff00" d="M137,-61C137,-61 12,-61 12,-61 6,-61 0,-55 0,-49 0,-49 0,-35 0,-35 0,-29 6,-23 12,-23 12,-23 137,-23 137,-23 143,-23 149,-29 149,-35 149,-35 149,-49 149,-49 149,-55 143,-61 137,-61"/>
<text text-anchor="middle" x="74.5" y="-45.8" font-family="Helvetica,sans-Serif" font-size="14.00" fill="#00f2ff">Loads Custom Library</text>
<text text-anchor="middle" x="74.5" y="-30.8" font-family="Helvetica,sans-Serif" font-size="14.00" fill="#00f2ff">(Rpath Success)</text>
</g>
<!-- Lib_Check&#45;&gt;Valid_Load -->
<g id="edge3" class="edge">
<title>Lib_Check&#45;&gt;Valid_Load</title>
<path fill="none" stroke="#ff00ff" d="M130.31,-115.87C120.39,-110.14 109.62,-102.73 101.5,-94 95.22,-87.25 89.97,-78.77 85.81,-70.67"/>
<polygon fill="#ff00ff" stroke="#ff00ff" points="81.45,-61.46 89.8,-68.57 83.59,-65.98 85.73,-70.5 85.73,-70.5 85.73,-70.5 83.59,-65.98 81.67,-72.42 81.45,-61.46 81.45,-61.46"/>
<text text-anchor="middle" x="160.5" y="-82.8" font-family="Times,serif" font-size="14.00">Points to /usr/local/...</text>
</g>
<!-- Fail_Load -->
<g id="node5" class="node">
<title>Fail_Load</title>
<path fill="#161b22" stroke="#ff0000" d="M303.5,-61C303.5,-61 179.5,-61 179.5,-61 173.5,-61 167.5,-55 167.5,-49 167.5,-49 167.5,-35 167.5,-35 167.5,-29 173.5,-23 179.5,-23 179.5,-23 303.5,-23 303.5,-23 309.5,-23 315.5,-29 315.5,-35 315.5,-35 315.5,-49 315.5,-49 315.5,-55 309.5,-61 303.5,-61"/>
<text text-anchor="middle" x="241.5" y="-45.8" font-family="Helvetica,sans-Serif" font-size="14.00" fill="#00f2ff">Loads System Library</text>
<text text-anchor="middle" x="241.5" y="-30.8" font-family="Helvetica,sans-Serif" font-size="14.00" fill="#00f2ff">(Rpath Fail)</text>
</g>
<!-- Lib_Check&#45;&gt;Fail_Load -->
<g id="edge4" class="edge">
<title>Lib_Check&#45;&gt;Fail_Load</title>
<path fill="none" stroke="#ff00ff" d="M188.35,-116.59C199.29,-110.98 210.99,-103.47 219.5,-94 225.46,-87.37 229.98,-78.88 233.33,-70.74"/>
<polygon fill="#ff00ff" stroke="#ff00ff" points="236.85,-61.13 237.64,-72.06 235.13,-65.82 233.41,-70.52 233.41,-70.52 233.41,-70.52 235.13,-65.82 229.18,-68.97 236.85,-61.13 236.85,-61.13"/>
<text text-anchor="middle" x="271" y="-82.8" font-family="Times,serif" font-size="14.00">Points to /lib/...</text>
</g>
</g>
</svg>
