<?xml version="1.0" encoding="UTF-8" standalone="no"?>
<!DOCTYPE svg PUBLIC "-//W3C//DTD SVG 1.1//EN"
 "http://www.w3.org/Graphics/SVG/1.1/DTD/svg11.dtd">
<!-- Generated by graphviz version 2.43.0 (0)
 -->
<!-- Title: WorkLifecycle Pages: 1 -->
<svg width="414pt" height="705pt"
 viewBox="0.00 0.00 414.00 705.00" xmlns="http://www.w3.org/2000/svg" xmlns:xlink="http://www.w3.org/1999/xlink">
<g id="graph0" class="graph" transform="scale(1 1) rotate(0) translate(4 701)">
<title>WorkLifecycle</title>
<polygon fill="#0d1117" stroke="transparent" points="-4,4 -4,-701 410,-701 410,4 -4,4"/>
<text text-anchor="middle" x="203" y="-680.2" font-family="Helvetica,sans-Serif" font-size="16.00" fill="#00f2ff">A4.1: Software Source Compilation Workflow Lifecycle</text>
<g id="clust1" class="cluster">
<title>cluster_download_phase</title>
<polygon fill="#0d1117" stroke="#ffff00" points="88.5,-512 88.5,-663 290.5,-663 290.5,-512 88.5,-512"/>
<text text-anchor="middle" x="189.5" y="-646.2" font-family="Helvetica,sans-Serif" font-size="16.00" fill="#ffff00">Phase 1: Fetch and Verify</text>
</g>
<g id="clust2" class="cluster">
<title>cluster_compile_phase</title>
<polygon fill="#0d1117" stroke="#00ff00" points="101.5,-260 101.5,-484 317.5,-484 317.5,-260 101.5,-260"/>
<text text-anchor="middle" x="209.5" y="-467.2" font-family="Helvetica,sans-Serif" font-size="16.00" fill="#00ff00">Phase 2: Build Environment</text>
</g>
<g id="clust3" class="cluster">
<title>cluster_install_phase</title>
<polygon fill="#0d1117" stroke="#ff00ff" points="98.5,-8 98.5,-232 310.5,-232 310.5,-8 98.5,-8"/>
<text text-anchor="middle" x="204.5" y="-215.2" font-family="Helvetica,sans-Serif" font-size="16.00" fill="#ff00ff">Phase 3: Validate &amp; Deploy</text>
</g>
<!-- Download_Tar -->
<g id="node1" class="node">
<title>Download_Tar</title>
<path fill="#161b22" stroke="#00f2ff" d="M259.5,-629C259.5,-629 119.5,-629 119.5,-629 113.5,-629 107.5,-623 107.5,-617 107.5,-617 107.5,-605 107.5,-605 107.5,-599 113.5,-593 119.5,-593 119.5,-593 259.5,-593 259.5,-593 265.5,-593 271.5,-599 271.5,-605 271.5,-605 271.5,-617 271.5,-617 271.5,-623 265.5,-629 259.5,-629"/>
<text text-anchor="middle" x="189.5" y="-614" font-family="Helvetica,sans-Serif" font-size="10.00" fill="#00f2ff">Download Source Tarball</text>
<text text-anchor="middle" x="189.5" y="-603" font-family="Helvetica,sans-Serif" font-size="10.00" fill="#00f2ff">(GitHub Releases / Project portal)</text>
</g>
<!-- Sha256_Check -->
<g id="node2" class="node">
<title>Sha256_Check</title>
<path fill="#161b22" stroke="#00ff00" d="M263.5,-556C263.5,-556 115.5,-556 115.5,-556 109.5,-556 103.5,-550 103.5,-544 103.5,-544 103.5,-532 103.5,-532 103.5,-526 109.5,-520 115.5,-520 115.5,-520 263.5,-520 263.5,-520 269.5,-520 275.5,-526 275.5,-532 275.5,-532 275.5,-544 275.5,-544 275.5,-550 269.5,-556 263.5,-556"/>
<text text-anchor="middle" x="189.5" y="-541" font-family="Helvetica,sans-Serif" font-size="10.00" fill="#00f2ff">sha256sum verification</text>
<text text-anchor="middle" x="189.5" y="-530" font-family="Helvetica,sans-Serif" font-size="10.00" fill="#00f2ff">(Confirms cryptographic checksum)</text>
</g>
<!-- Download_Tar&#45;&gt;Sha256_Check -->
<g id="edge1" class="edge">
<title>Download_Tar&#45;&gt;Sha256_Check</title>
<path fill="none" stroke="#ff00ff" d="M189.5,-592.81C189.5,-584.79 189.5,-575.05 189.5,-566.07"/>
<polygon fill="#ff00ff" stroke="#ff00ff" points="189.5,-556.03 194,-566.03 189.5,-561.03 189.5,-566.03 189.5,-566.03 189.5,-566.03 189.5,-561.03 185,-566.03 189.5,-556.03 189.5,-556.03"/>
</g>
<!-- Extract_Tar -->
<g id="node3" class="node">
<title>Extract_Tar</title>
<path fill="#161b22" stroke="#00f2ff" d="M212,-450C212,-450 167,-450 167,-450 161,-450 155,-444 155,-438 155,-438 155,-426 155,-426 155,-420 161,-414 167,-414 167,-414 212,-414 212,-414 218,-414 224,-420 224,-426 224,-426 224,-438 224,-438 224,-444 218,-450 212,-450"/>
<text text-anchor="middle" x="189.5" y="-435" font-family="Helvetica,sans-Serif" font-size="10.00" fill="#00f2ff">Extract files</text>
<text text-anchor="middle" x="189.5" y="-424" font-family="Helvetica,sans-Serif" font-size="10.00" fill="#00f2ff">(tar &#45;xzf)</text>
</g>
<!-- Sha256_Check&#45;&gt;Extract_Tar -->
<g id="edge6" class="edge">
<title>Sha256_Check&#45;&gt;Extract_Tar</title>
<path fill="none" stroke="#ff00ff" d="M189.5,-519.83C189.5,-503.64 189.5,-479.13 189.5,-460.27"/>
<polygon fill="#ff00ff" stroke="#ff00ff" points="189.5,-450.2 194,-460.2 189.5,-455.2 189.5,-460.2 189.5,-460.2 189.5,-460.2 189.5,-455.2 185,-460.2 189.5,-450.2 189.5,-450.2"/>
<text text-anchor="middle" x="214" y="-494.8" font-family="Helvetica,sans-Serif" font-size="9.00">Hash Match</text>
</g>
<!-- Configure_Build -->
<g id="node4" class="node">
<title>Configure_Build</title>
<path fill="#161b22" stroke="#00f2ff" d="M250.5,-377C250.5,-377 128.5,-377 128.5,-377 122.5,-377 116.5,-371 116.5,-365 116.5,-365 116.5,-353 116.5,-353 116.5,-347 122.5,-341 128.5,-341 128.5,-341 250.5,-341 250.5,-341 256.5,-341 262.5,-347 262.5,-353 262.5,-353 262.5,-365 262.5,-365 262.5,-371 256.5,-377 250.5,-377"/>
<text text-anchor="middle" x="189.5" y="-362" font-family="Helvetica,sans-Serif" font-size="10.00" fill="#00f2ff">Configure compilation options</text>
<text text-anchor="middle" x="189.5" y="-351" font-family="Helvetica,sans-Serif" font-size="10.00" fill="#00f2ff">(configures dynamic prefixes)</text>
</g>
<!-- Extract_Tar&#45;&gt;Configure_Build -->
<g id="edge2" class="edge">
<title>Extract_Tar&#45;&gt;Configure_Build</title>
<path fill="none" stroke="#ff00ff" d="M189.5,-413.81C189.5,-405.79 189.5,-396.05 189.5,-387.07"/>
<polygon fill="#ff00ff" stroke="#ff00ff" points="189.5,-377.03 194,-387.03 189.5,-382.03 189.5,-387.03 189.5,-387.03 189.5,-387.03 189.5,-382.03 185,-387.03 189.5,-377.03 189.5,-377.03"/>
</g>
<!-- Build_Make -->
<g id="node5" class="node">
<title>Build_Make</title>
<path fill="#161b22" stroke="#00f2ff" d="M222.5,-304C222.5,-304 156.5,-304 156.5,-304 150.5,-304 144.5,-298 144.5,-292 144.5,-292 144.5,-280 144.5,-280 144.5,-274 150.5,-268 156.5,-268 156.5,-268 222.5,-268 222.5,-268 228.5,-268 234.5,-274 234.5,-280 234.5,-280 234.5,-292 234.5,-292 234.5,-298 228.5,-304 222.5,-304"/>
<text text-anchor="middle" x="189.5" y="-289" font-family="Helvetica,sans-Serif" font-size="10.00" fill="#00f2ff">Build executable</text>
<text text-anchor="middle" x="189.5" y="-278" font-family="Helvetica,sans-Serif" font-size="10.00" fill="#00f2ff">(make &#45;j$(nproc))</text>
</g>
<!-- Configure_Build&#45;&gt;Build_Make -->
<g id="edge3" class="edge">
<title>Configure_Build&#45;&gt;Build_Make</title>
<path fill="none" stroke="#ff00ff" d="M189.5,-340.81C189.5,-332.79 189.5,-323.05 189.5,-314.07"/>
<polygon fill="#ff00ff" stroke="#ff00ff" points="189.5,-304.03 194,-314.03 189.5,-309.03 189.5,-314.03 189.5,-314.03 189.5,-314.03 189.5,-309.03 185,-314.03 189.5,-304.03 189.5,-304.03"/>
</g>
<!-- Run_Tests -->
<g id="node6" class="node">
<title>Run_Tests</title>
<path fill="#161b22" stroke="#ffff00" d="M250,-198C250,-198 129,-198 129,-198 123,-198 117,-192 117,-186 117,-186 117,-174 117,-174 117,-168 123,-162 129,-162 129,-162 250,-162 250,-162 256,-162 262,-168 262,-174 262,-174 262,-186 262,-186 262,-192 256,-198 250,-198"/>
<text text-anchor="middle" x="189.5" y="-183" font-family="Helvetica,sans-Serif" font-size="10.00" fill="#00f2ff">Regression tests execution</text>
<text text-anchor="middle" x="189.5" y="-172" font-family="Helvetica,sans-Serif" font-size="10.00" fill="#00f2ff">(make test checks validation)</text>
</g>
<!-- Build_Make&#45;&gt;Run_Tests -->
<g id="edge7" class="edge">
<title>Build_Make&#45;&gt;Run_Tests</title>
<path fill="none" stroke="#ff00ff" d="M189.5,-267.83C189.5,-251.64 189.5,-227.13 189.5,-208.27"/>
<polygon fill="#ff00ff" stroke="#ff00ff" points="189.5,-198.2 194,-208.2 189.5,-203.2 189.5,-208.2 189.5,-208.2 189.5,-208.2 189.5,-203.2 185,-208.2 189.5,-198.2 189.5,-198.2"/>
<text text-anchor="middle" x="207" y="-242.8" font-family="Helvetica,sans-Serif" font-size="9.00">Success</text>
</g>
<!-- Install_Cmd -->
<g id="node7" class="node">
<title>Install_Cmd</title>
<path fill="#161b22" stroke="#00f2ff" d="M227,-125C227,-125 152,-125 152,-125 146,-125 140,-119 140,-113 140,-113 140,-101 140,-101 140,-95 146,-89 152,-89 152,-89 227,-89 227,-89 233,-89 239,-95 239,-101 239,-101 239,-113 239,-113 239,-119 233,-125 227,-125"/>
<text text-anchor="middle" x="189.5" y="-110" font-family="Helvetica,sans-Serif" font-size="10.00" fill="#00f2ff">Install Binary</text>
<text text-anchor="middle" x="189.5" y="-99" font-family="Helvetica,sans-Serif" font-size="10.00" fill="#00f2ff">(sudo make install)</text>
</g>
<!-- Run_Tests&#45;&gt;Install_Cmd -->
<g id="edge4" class="edge">
<title>Run_Tests&#45;&gt;Install_Cmd</title>
<path fill="none" stroke="#ff00ff" d="M189.5,-161.81C189.5,-153.79 189.5,-144.05 189.5,-135.07"/>
<polygon fill="#ff00ff" stroke="#ff00ff" points="189.5,-125.03 194,-135.03 189.5,-130.03 189.5,-135.03 189.5,-135.03 189.5,-135.03 189.5,-130.03 185,-135.03 189.5,-125.03 189.5,-125.03"/>
</g>
<!-- Verify_Rpath -->
<g id="node8" class="node">
<title>Verify_Rpath</title>
<path fill="#161b22" stroke="#00f2ff" d="M237,-52C237,-52 142,-52 142,-52 136,-52 130,-46 130,-40 130,-40 130,-28 130,-28 130,-22 136,-16 142,-16 142,-16 237,-16 237,-16 243,-16 249,-22 249,-28 249,-28 249,-40 249,-40 249,-46 243,-52 237,-52"/>
<text text-anchor="middle" x="189.5" y="-37" font-family="Helvetica,sans-Serif" font-size="10.00" fill="#00f2ff">Dynamic loading check</text>
<text text-anchor="middle" x="189.5" y="-26" font-family="Helvetica,sans-Serif" font-size="10.00" fill="#00f2ff">(ldd validation)</text>
</g>
<!-- Install_Cmd&#45;&gt;Verify_Rpath -->
<g id="edge5" class="edge">
<title>Install_Cmd&#45;&gt;Verify_Rpath</title>
<path fill="none" stroke="#ff00ff" d="M189.5,-88.81C189.5,-80.79 189.5,-71.05 189.5,-62.07"/>
<polygon fill="#ff00ff" stroke="#ff00ff" points="189.5,-52.03 194,-62.03 189.5,-57.03 189.5,-62.03 189.5,-62.03 189.5,-62.03 189.5,-57.03 185,-62.03 189.5,-52.03 189.5,-52.03"/>
</g>
</g>
</svg>
