<?xml version="1.0" encoding="UTF-8" standalone="no"?>
<!DOCTYPE svg PUBLIC "-//W3C//DTD SVG 1.1//EN"
 "http://www.w3.org/Graphics/SVG/1.1/DTD/svg11.dtd">
<!-- Generated by graphviz version 2.43.0 (0)
 -->
<!-- Title: WorkOverride Pages: 1 -->
<svg width="359pt" height="588pt"
 viewBox="0.00 0.00 359.00 588.00" xmlns="http://www.w3.org/2000/svg" xmlns:xlink="http://www.w3.org/1999/xlink">
<g id="graph0" class="graph" transform="scale(1 1) rotate(0) translate(4 584)">
<title>WorkOverride</title>
<polygon fill="#0d1117" stroke="transparent" points="-4,4 -4,-584 355,-584 355,4 -4,4"/>
<text text-anchor="middle" x="175.5" y="-563.2" font-family="Helvetica,sans-Serif" font-size="16.00" fill="#00f2ff">A4.5: Systemd Configuration Override Pipeline</text>
<g id="clust1" class="cluster">
<title>cluster_override_creation</title>
<polygon fill="#0d1117" stroke="#ffff00" points="62,-396 62,-546 316,-546 316,-396 62,-396"/>
<text text-anchor="middle" x="189" y="-529.2" font-family="Helvetica,sans-Serif" font-size="16.00" fill="#ffff00">Create systemd Drop&#45;In Override</text>
</g>
<g id="clust2" class="cluster">
<title>cluster_override_conf</title>
<polygon fill="#0d1117" stroke="#ff00ff" points="35,-238 35,-388 303,-388 303,-238 35,-238"/>
<text text-anchor="middle" x="169" y="-371.2" font-family="Helvetica,sans-Serif" font-size="16.00" fill="#ff00ff">File Content (override.conf)</text>
</g>
<g id="clust3" class="cluster">
<title>cluster_service_apply</title>
<polygon fill="#0d1117" stroke="#00ff00" points="86,-8 86,-230 252,-230 252,-8 86,-8"/>
<text text-anchor="middle" x="169" y="-213.2" font-family="Helvetica,sans-Serif" font-size="16.00" fill="#00ff00">Apply Configuration</text>
</g>
<!-- Override_Dir -->
<g id="node1" class="node">
<title>Override_Dir</title>
<path fill="#161b22" stroke="#00f2ff" d="M243.5,-512C243.5,-512 94.5,-512 94.5,-512 88.5,-512 82.5,-506 82.5,-500 82.5,-500 82.5,-488 82.5,-488 82.5,-482 88.5,-476 94.5,-476 94.5,-476 243.5,-476 243.5,-476 249.5,-476 255.5,-482 255.5,-488 255.5,-488 255.5,-500 255.5,-500 255.5,-506 249.5,-512 243.5,-512"/>
<text text-anchor="middle" x="169" y="-497" font-family="Helvetica,sans-Serif" font-size="10.00" fill="#00f2ff">Create override directory</text>
<text text-anchor="middle" x="169" y="-486" font-family="Helvetica,sans-Serif" font-size="10.00" fill="#00f2ff">/etc/systemd/system/ssh.service.d/</text>
</g>
<!-- Override_Conf -->
<g id="node2" class="node">
<title>Override_Conf</title>
<polygon fill="#161b22" stroke="#00f2ff" points="215,-440 117,-440 117,-404 221,-404 221,-434 215,-440"/>
<polyline fill="none" stroke="#00f2ff" points="215,-440 215,-434 "/>
<polyline fill="none" stroke="#00f2ff" points="221,-434 215,-434 "/>
<text text-anchor="middle" x="169" y="-425" font-family="Helvetica,sans-Serif" font-size="10.00" fill="#00f2ff">Create configuration</text>
<text text-anchor="middle" x="169" y="-414" font-family="Helvetica,sans-Serif" font-size="10.00" fill="#00f2ff">override.conf</text>
</g>
<!-- Override_Dir&#45;&gt;Override_Conf -->
<g id="edge1" class="edge">
<title>Override_Dir&#45;&gt;Override_Conf</title>
<path fill="none" stroke="#ff00ff" d="M169,-475.7C169,-467.98 169,-458.71 169,-450.11"/>
<polygon fill="#ff00ff" stroke="#ff00ff" points="169,-440.1 173.5,-450.1 169,-445.1 169,-450.1 169,-450.1 169,-450.1 169,-445.1 164.5,-450.1 169,-440.1 169,-440.1"/>
</g>
<!-- ExecStart_Clear -->
<g id="node3" class="node">
<title>ExecStart_Clear</title>
<path fill="#161b22" stroke="#00f2ff" d="M229.5,-354C229.5,-354 108.5,-354 108.5,-354 102.5,-354 96.5,-348 96.5,-342 96.5,-342 96.5,-330 96.5,-330 96.5,-324 102.5,-318 108.5,-318 108.5,-318 229.5,-318 229.5,-318 235.5,-318 241.5,-324 241.5,-330 241.5,-330 241.5,-342 241.5,-342 241.5,-348 235.5,-354 229.5,-354"/>
<text text-anchor="middle" x="169" y="-339" font-family="Helvetica,sans-Serif" font-size="10.00" fill="#00f2ff">ExecStart=</text>
<text text-anchor="middle" x="169" y="-328" font-family="Helvetica,sans-Serif" font-size="10.00" fill="#00f2ff">(Clears default system value)</text>
</g>
<!-- Override_Conf&#45;&gt;ExecStart_Clear -->
<g id="edge5" class="edge">
<title>Override_Conf&#45;&gt;ExecStart_Clear</title>
<path fill="none" stroke="#ff00ff" stroke-dasharray="5,2" d="M169,-403.6C169,-392.26 169,-377.23 169,-364.32"/>
<polygon fill="#ff00ff" stroke="#ff00ff" points="169,-354.1 173.5,-364.1 169,-359.1 169,-364.1 169,-364.1 169,-364.1 169,-359.1 164.5,-364.1 169,-354.1 169,-354.1"/>
</g>
<!-- ExecStart_Override -->
<g id="node4" class="node">
<title>ExecStart_Override</title>
<path fill="#161b22" stroke="#00ff00" d="M283,-282C283,-282 55,-282 55,-282 49,-282 43,-276 43,-270 43,-270 43,-258 43,-258 43,-252 49,-246 55,-246 55,-246 283,-246 283,-246 289,-246 295,-252 295,-258 295,-258 295,-270 295,-270 295,-276 289,-282 283,-282"/>
<text text-anchor="middle" x="169" y="-267" font-family="Helvetica,sans-Serif" font-size="10.00" fill="#00f2ff">ExecStart=/usr/local/ssh/sbin/sshd &#45;D $SSHD_OPTS</text>
<text text-anchor="middle" x="169" y="-256" font-family="Helvetica,sans-Serif" font-size="10.00" fill="#00f2ff">(Applies new execution target)</text>
</g>
<!-- ExecStart_Clear&#45;&gt;ExecStart_Override -->
<g id="edge2" class="edge">
<title>ExecStart_Clear&#45;&gt;ExecStart_Override</title>
<path fill="none" stroke="#ff00ff" d="M169,-317.7C169,-309.98 169,-300.71 169,-292.11"/>
<polygon fill="#ff00ff" stroke="#ff00ff" points="169,-282.1 173.5,-292.1 169,-287.1 169,-292.1 169,-292.1 169,-292.1 169,-287.1 164.5,-292.1 169,-282.1 169,-282.1"/>
</g>
<!-- Reload_Cmd -->
<g id="node5" class="node">
<title>Reload_Cmd</title>
<path fill="#161b22" stroke="#00f2ff" d="M232,-196C232,-196 106,-196 106,-196 100,-196 94,-190 94,-184 94,-184 94,-172 94,-172 94,-166 100,-160 106,-160 106,-160 232,-160 232,-160 238,-160 244,-166 244,-172 244,-172 244,-184 244,-184 244,-190 238,-196 232,-196"/>
<text text-anchor="middle" x="169" y="-181" font-family="Helvetica,sans-Serif" font-size="10.00" fill="#00f2ff">sudo systemctl daemon&#45;reload</text>
<text text-anchor="middle" x="169" y="-170" font-family="Helvetica,sans-Serif" font-size="10.00" fill="#00f2ff">(Regenerates systemd cache)</text>
</g>
<!-- ExecStart_Override&#45;&gt;Reload_Cmd -->
<g id="edge6" class="edge">
<title>ExecStart_Override&#45;&gt;Reload_Cmd</title>
<path fill="none" stroke="#ff00ff" stroke-dasharray="5,2" d="M169,-245.6C169,-234.26 169,-219.23 169,-206.32"/>
<polygon fill="#ff00ff" stroke="#ff00ff" points="169,-196.1 173.5,-206.1 169,-201.1 169,-206.1 169,-206.1 169,-206.1 169,-201.1 164.5,-206.1 169,-196.1 169,-196.1"/>
</g>
<!-- Restart_Cmd -->
<g id="node6" class="node">
<title>Restart_Cmd</title>
<path fill="#161b22" stroke="#00f2ff" d="M223.5,-124C223.5,-124 114.5,-124 114.5,-124 108.5,-124 102.5,-118 102.5,-112 102.5,-112 102.5,-100 102.5,-100 102.5,-94 108.5,-88 114.5,-88 114.5,-88 223.5,-88 223.5,-88 229.5,-88 235.5,-94 235.5,-100 235.5,-100 235.5,-112 235.5,-112 235.5,-118 229.5,-124 223.5,-124"/>
<text text-anchor="middle" x="169" y="-109" font-family="Helvetica,sans-Serif" font-size="10.00" fill="#00f2ff">sudo systemctl restart ssh</text>
<text text-anchor="middle" x="169" y="-98" font-family="Helvetica,sans-Serif" font-size="10.00" fill="#00f2ff">(Launches new binary)</text>
</g>
<!-- Reload_Cmd&#45;&gt;Restart_Cmd -->
<g id="edge3" class="edge">
<title>Reload_Cmd&#45;&gt;Restart_Cmd</title>
<path fill="none" stroke="#ff00ff" d="M169,-159.7C169,-151.98 169,-142.71 169,-134.11"/>
<polygon fill="#ff00ff" stroke="#ff00ff" points="169,-124.1 173.5,-134.1 169,-129.1 169,-134.1 169,-134.1 169,-134.1 169,-129.1 164.5,-134.1 169,-124.1 169,-124.1"/>
</g>
<!-- Status_Cmd -->
<g id="node7" class="node">
<title>Status_Cmd</title>
<path fill="#161b22" stroke="#00ff00" d="M217.5,-52C217.5,-52 120.5,-52 120.5,-52 114.5,-52 108.5,-46 108.5,-40 108.5,-40 108.5,-28 108.5,-28 108.5,-22 114.5,-16 120.5,-16 120.5,-16 217.5,-16 217.5,-16 223.5,-16 229.5,-22 229.5,-28 229.5,-28 229.5,-40 229.5,-40 229.5,-46 223.5,-52 217.5,-52"/>
<text text-anchor="middle" x="169" y="-37" font-family="Helvetica,sans-Serif" font-size="10.00" fill="#00f2ff">systemctl status ssh</text>
<text text-anchor="middle" x="169" y="-26" font-family="Helvetica,sans-Serif" font-size="10.00" fill="#00f2ff">(Confirm drop&#45;in loaded)</text>
</g>
<!-- Restart_Cmd&#45;&gt;Status_Cmd -->
<g id="edge4" class="edge">
<title>Restart_Cmd&#45;&gt;Status_Cmd</title>
<path fill="none" stroke="#ff00ff" d="M169,-87.7C169,-79.98 169,-70.71 169,-62.11"/>
<polygon fill="#ff00ff" stroke="#ff00ff" points="169,-52.1 173.5,-62.1 169,-57.1 169,-62.1 169,-62.1 169,-62.1 169,-57.1 164.5,-62.1 169,-52.1 169,-52.1"/>
</g>
</g>
</svg>
