<?xml version="1.0" encoding="UTF-8" standalone="no"?>
<!DOCTYPE svg PUBLIC "-//W3C//DTD SVG 1.1//EN"
 "http://www.w3.org/Graphics/SVG/1.1/DTD/svg11.dtd">
<!-- Generated by graphviz version 2.43.0 (0)
 -->
<!-- Title: WorkDeconfliction Pages: 1 -->
<svg width="392pt" height="316pt"
 viewBox="0.00 0.00 392.00 316.00" xmlns="http://www.w3.org/2000/svg" xmlns:xlink="http://www.w3.org/1999/xlink">
<g id="graph0" class="graph" transform="scale(1 1) rotate(0) translate(4 312)">
<title>WorkDeconfliction</title>
<polygon fill="#0d1117" stroke="transparent" points="-4,4 -4,-312 388,-312 388,4 -4,4"/>
<text text-anchor="middle" x="192" y="-291.2" font-family="Helvetica,sans-Serif" font-size="16.00" fill="#00f2ff">A4.3: Binary Lookup &amp; Path Deconfliction Workflow</text>
<g id="clust1" class="cluster">
<title>cluster_path_resolution</title>
<polygon fill="#0d1117" stroke="#00ff00" points="26,-114 26,-274 375,-274 375,-114 26,-114"/>
<text text-anchor="middle" x="200.5" y="-257.2" font-family="Helvetica,sans-Serif" font-size="16.00" fill="#00ff00">Environment PATH Priority Resolution</text>
</g>
<g id="clust2" class="cluster">
<title>cluster_resolved_binary</title>
<polygon fill="#0d1117" stroke="#ff00ff" points="8,-8 8,-86 322,-86 322,-8 8,-8"/>
<text text-anchor="middle" x="165" y="-69.2" font-family="Helvetica,sans-Serif" font-size="16.00" fill="#ff00ff">Target Binary Loaded</text>
</g>
<!-- PATH_Env -->
<g id="node1" class="node">
<title>PATH_Env</title>
<path fill="#161b22" stroke="#00f2ff" d="M210.5,-240C210.5,-240 91.5,-240 91.5,-240 85.5,-240 79.5,-234 79.5,-228 79.5,-228 79.5,-216 79.5,-216 79.5,-210 85.5,-204 91.5,-204 91.5,-204 210.5,-204 210.5,-204 216.5,-204 222.5,-210 222.5,-216 222.5,-216 222.5,-228 222.5,-228 222.5,-234 216.5,-240 210.5,-240"/>
<text text-anchor="middle" x="151" y="-225" font-family="Helvetica,sans-Serif" font-size="10.00" fill="#00f2ff">PATH Priority Check</text>
<text text-anchor="middle" x="151" y="-214" font-family="Helvetica,sans-Serif" font-size="10.00" fill="#00f2ff">(/usr/local/bin before /usr/bin)</text>
</g>
<!-- Interactive_Shell -->
<g id="node2" class="node">
<title>Interactive_Shell</title>
<path fill="#161b22" stroke="#00f2ff" d="M146,-158C146,-158 46,-158 46,-158 40,-158 34,-152 34,-146 34,-146 34,-134 34,-134 34,-128 40,-122 46,-122 46,-122 146,-122 146,-122 152,-122 158,-128 158,-134 158,-134 158,-146 158,-146 158,-152 152,-158 146,-158"/>
<text text-anchor="middle" x="96" y="-143" font-family="Helvetica,sans-Serif" font-size="10.00" fill="#00f2ff">Interactive Shell session</text>
<text text-anchor="middle" x="96" y="-132" font-family="Helvetica,sans-Serif" font-size="10.00" fill="#00f2ff">(e.g., standard terminal)</text>
</g>
<!-- PATH_Env&#45;&gt;Interactive_Shell -->
<g id="edge1" class="edge">
<title>PATH_Env&#45;&gt;Interactive_Shell</title>
<path fill="none" stroke="#ff00ff" d="M79.06,-207.18C68.82,-202.15 59.56,-195.3 53,-186 47.83,-178.67 50.54,-171.36 56.55,-164.84"/>
<polygon fill="#ff00ff" stroke="#ff00ff" points="64.15,-158.09 59.66,-168.09 60.41,-161.41 56.67,-164.73 56.67,-164.73 56.67,-164.73 60.41,-161.41 53.69,-161.36 64.15,-158.09 64.15,-158.09"/>
<text text-anchor="middle" x="114" y="-178.8" font-family="Helvetica,sans-Serif" font-size="9.00">1. Resolves &#39;/usr/local/bin&#39; first</text>
</g>
<!-- Systemd_Service -->
<g id="node3" class="node">
<title>Systemd_Service</title>
<path fill="#161b22" stroke="#00f2ff" d="M301.5,-158C301.5,-158 194.5,-158 194.5,-158 188.5,-158 182.5,-152 182.5,-146 182.5,-146 182.5,-134 182.5,-134 182.5,-128 188.5,-122 194.5,-122 194.5,-122 301.5,-122 301.5,-122 307.5,-122 313.5,-128 313.5,-134 313.5,-134 313.5,-146 313.5,-146 313.5,-152 307.5,-158 301.5,-158"/>
<text text-anchor="middle" x="248" y="-143" font-family="Helvetica,sans-Serif" font-size="10.00" fill="#00f2ff">Systemd Service Daemon</text>
<text text-anchor="middle" x="248" y="-132" font-family="Helvetica,sans-Serif" font-size="10.00" fill="#00f2ff">(Background execution)</text>
</g>
<!-- PATH_Env&#45;&gt;Systemd_Service -->
<g id="edge2" class="edge">
<title>PATH_Env&#45;&gt;Systemd_Service</title>
<path fill="none" stroke="#ff00ff" d="M172.05,-203.64C185.87,-192.24 204.13,-177.18 219.28,-164.69"/>
<polygon fill="#ff00ff" stroke="#ff00ff" points="227.33,-158.05 222.48,-167.88 223.47,-161.23 219.61,-164.41 219.61,-164.41 219.61,-164.41 223.47,-161.23 216.75,-160.94 227.33,-158.05 227.33,-158.05"/>
<text text-anchor="middle" x="290" y="-178.8" font-family="Helvetica,sans-Serif" font-size="9.00">2. Skips PATH lookup, uses absolute path</text>
</g>
<!-- New_Version -->
<g id="node4" class="node">
<title>New_Version</title>
<path fill="#161b22" stroke="#00ff00" d="M156,-52C156,-52 28,-52 28,-52 22,-52 16,-46 16,-40 16,-40 16,-28 16,-28 16,-22 22,-16 28,-16 28,-16 156,-16 156,-16 162,-16 168,-22 168,-28 168,-28 168,-40 168,-40 168,-46 162,-52 156,-52"/>
<text text-anchor="middle" x="92" y="-37" font-family="Helvetica,sans-Serif" font-size="10.00" fill="#00f2ff">Custom Binaries</text>
<text text-anchor="middle" x="92" y="-26" font-family="Helvetica,sans-Serif" font-size="10.00" fill="#00f2ff">(/usr/local/bin/openssl &#45;&gt; 3.5.6)</text>
</g>
<!-- Interactive_Shell&#45;&gt;New_Version -->
<g id="edge3" class="edge">
<title>Interactive_Shell&#45;&gt;New_Version</title>
<path fill="none" stroke="#ff00ff" d="M95.34,-121.83C94.72,-105.64 93.77,-81.13 93.05,-62.27"/>
<polygon fill="#ff00ff" stroke="#ff00ff" points="92.66,-52.2 97.54,-62.02 92.85,-57.2 93.05,-62.19 93.05,-62.19 93.05,-62.19 92.85,-57.2 88.55,-62.36 92.66,-52.2 92.66,-52.2"/>
</g>
<!-- System_Version -->
<g id="node5" class="node">
<title>System_Version</title>
<path fill="#161b22" stroke="#00f2ff" d="M302,-52C302,-52 198,-52 198,-52 192,-52 186,-46 186,-40 186,-40 186,-28 186,-28 186,-22 192,-16 198,-16 198,-16 302,-16 302,-16 308,-16 314,-22 314,-28 314,-28 314,-40 314,-40 314,-46 308,-52 302,-52"/>
<text text-anchor="middle" x="250" y="-37" font-family="Helvetica,sans-Serif" font-size="10.00" fill="#00f2ff">OS System Package</text>
<text text-anchor="middle" x="250" y="-26" font-family="Helvetica,sans-Serif" font-size="10.00" fill="#00f2ff">(/usr/bin/openssl &#45;&gt; 3.0.2)</text>
</g>
<!-- Systemd_Service&#45;&gt;System_Version -->
<g id="edge4" class="edge">
<title>Systemd_Service&#45;&gt;System_Version</title>
<path fill="none" stroke="#ff00ff" d="M248.33,-121.83C248.64,-105.64 249.11,-81.13 249.48,-62.27"/>
<polygon fill="#ff00ff" stroke="#ff00ff" points="249.67,-52.2 253.98,-62.28 249.57,-57.2 249.48,-62.2 249.48,-62.2 249.48,-62.2 249.57,-57.2 244.98,-62.11 249.67,-52.2 249.67,-52.2"/>
<text text-anchor="middle" x="316" y="-96.8" font-family="Helvetica,sans-Serif" font-size="9.00">Fallback if system binary targeted</text>
</g>
</g>
</svg>
