<?xml version="1.0" encoding="UTF-8" standalone="no"?>
<!DOCTYPE svg PUBLIC "-//W3C//DTD SVG 1.1//EN"
 "http://www.w3.org/Graphics/SVG/1.1/DTD/svg11.dtd">
<!-- Generated by graphviz version 2.43.0 (0)
 -->
<!-- Title: WorkDependency Pages: 1 -->
<svg width="305pt" height="361pt"
 viewBox="0.00 0.00 305.00 361.00" xmlns="http://www.w3.org/2000/svg" xmlns:xlink="http://www.w3.org/1999/xlink">
<g id="graph0" class="graph" transform="scale(1 1) rotate(0) translate(4 357)">
<title>WorkDependency</title>
<polygon fill="#0d1117" stroke="transparent" points="-4,4 -4,-357 301,-357 301,4 -4,4"/>
<text text-anchor="middle" x="148.5" y="-7.8" font-family="Helvetica,sans-Serif" font-size="14.00" fill="#00f2ff">A4.2: Compilation Dependency Audit Workflow</text>
<!-- Audit_Start -->
<g id="node1" class="node">
<title>Audit_Start</title>
<path fill="#161b22" stroke="#00f2ff" d="M203.5,-353C203.5,-353 93.5,-353 93.5,-353 87.5,-353 81.5,-347 81.5,-341 81.5,-341 81.5,-329 81.5,-329 81.5,-323 87.5,-317 93.5,-317 93.5,-317 203.5,-317 203.5,-317 209.5,-317 215.5,-323 215.5,-329 215.5,-329 215.5,-341 215.5,-341 215.5,-347 209.5,-353 203.5,-353"/>
<text text-anchor="middle" x="148.5" y="-331.3" font-family="Helvetica,sans-Serif" font-size="14.00" fill="#00f2ff">Pre&#45;Compile Check</text>
</g>
<!-- Check_GCC -->
<g id="node2" class="node">
<title>Check_GCC</title>
<path fill="#161b22" stroke="#00f2ff" d="M191.5,-281C191.5,-281 105.5,-281 105.5,-281 99.5,-281 93.5,-275 93.5,-269 93.5,-269 93.5,-255 93.5,-255 93.5,-249 99.5,-243 105.5,-243 105.5,-243 191.5,-243 191.5,-243 197.5,-243 203.5,-249 203.5,-255 203.5,-255 203.5,-269 203.5,-269 203.5,-275 197.5,-281 191.5,-281"/>
<text text-anchor="middle" x="148.5" y="-265.8" font-family="Helvetica,sans-Serif" font-size="14.00" fill="#00f2ff">GCC Compiler</text>
<text text-anchor="middle" x="148.5" y="-250.8" font-family="Helvetica,sans-Serif" font-size="14.00" fill="#00f2ff">(Version check)</text>
</g>
<!-- Audit_Start&#45;&gt;Check_GCC -->
<g id="edge1" class="edge">
<title>Audit_Start&#45;&gt;Check_GCC</title>
<path fill="none" stroke="#ff00ff" d="M148.5,-316.81C148.5,-309.11 148.5,-299.82 148.5,-291.15"/>
<polygon fill="#ff00ff" stroke="#ff00ff" points="148.5,-281.02 153,-291.02 148.5,-286.02 148.5,-291.02 148.5,-291.02 148.5,-291.02 148.5,-286.02 144,-291.02 148.5,-281.02 148.5,-281.02"/>
</g>
<!-- Check_Perl -->
<g id="node3" class="node">
<title>Check_Perl</title>
<path fill="#161b22" stroke="#00f2ff" d="M217,-207C217,-207 80,-207 80,-207 74,-207 68,-201 68,-195 68,-195 68,-181 68,-181 68,-175 74,-169 80,-169 80,-169 217,-169 217,-169 223,-169 229,-175 229,-181 229,-181 229,-195 229,-195 229,-201 223,-207 217,-207"/>
<text text-anchor="middle" x="148.5" y="-191.8" font-family="Helvetica,sans-Serif" font-size="14.00" fill="#00f2ff">Perl Core Engine</text>
<text text-anchor="middle" x="148.5" y="-176.8" font-family="Helvetica,sans-Serif" font-size="14.00" fill="#00f2ff">(Configure dependency)</text>
</g>
<!-- Check_GCC&#45;&gt;Check_Perl -->
<g id="edge2" class="edge">
<title>Check_GCC&#45;&gt;Check_Perl</title>
<path fill="none" stroke="#ff00ff" d="M148.5,-242.83C148.5,-235.13 148.5,-225.97 148.5,-217.42"/>
<polygon fill="#ff00ff" stroke="#ff00ff" points="148.5,-207.41 153,-217.41 148.5,-212.41 148.5,-217.41 148.5,-217.41 148.5,-217.41 148.5,-212.41 144,-217.41 148.5,-207.41 148.5,-207.41"/>
</g>
<!-- Check_Zlib -->
<g id="node4" class="node">
<title>Check_Zlib</title>
<path fill="#161b22" stroke="#00f2ff" d="M203,-133C203,-133 94,-133 94,-133 88,-133 82,-127 82,-121 82,-121 82,-107 82,-107 82,-101 88,-95 94,-95 94,-95 203,-95 203,-95 209,-95 215,-101 215,-107 215,-107 215,-121 215,-121 215,-127 209,-133 203,-133"/>
<text text-anchor="middle" x="148.5" y="-117.8" font-family="Helvetica,sans-Serif" font-size="14.00" fill="#00f2ff">zlib1g&#45;dev Headers</text>
<text text-anchor="middle" x="148.5" y="-102.8" font-family="Helvetica,sans-Serif" font-size="14.00" fill="#00f2ff">(Compression link)</text>
</g>
<!-- Check_Perl&#45;&gt;Check_Zlib -->
<g id="edge3" class="edge">
<title>Check_Perl&#45;&gt;Check_Zlib</title>
<path fill="none" stroke="#ff00ff" d="M148.5,-168.83C148.5,-161.13 148.5,-151.97 148.5,-143.42"/>
<polygon fill="#ff00ff" stroke="#ff00ff" points="148.5,-133.41 153,-143.41 148.5,-138.41 148.5,-143.41 148.5,-143.41 148.5,-143.41 148.5,-138.41 144,-143.41 148.5,-133.41 148.5,-133.41"/>
</g>
<!-- Audit_Success -->
<g id="node5" class="node">
<title>Audit_Success</title>
<path fill="#161b22" stroke="#00ff00" d="M204.5,-59C204.5,-59 92.5,-59 92.5,-59 86.5,-59 80.5,-53 80.5,-47 80.5,-47 80.5,-35 80.5,-35 80.5,-29 86.5,-23 92.5,-23 92.5,-23 204.5,-23 204.5,-23 210.5,-23 216.5,-29 216.5,-35 216.5,-35 216.5,-47 216.5,-47 216.5,-53 210.5,-59 204.5,-59"/>
<text text-anchor="middle" x="148.5" y="-37.3" font-family="Helvetica,sans-Serif" font-size="14.00" fill="#00f2ff">Environment Ready</text>
</g>
<!-- Check_Zlib&#45;&gt;Audit_Success -->
<g id="edge4" class="edge">
<title>Check_Zlib&#45;&gt;Audit_Success</title>
<path fill="none" stroke="#ff00ff" d="M148.5,-94.72C148.5,-86.97 148.5,-77.79 148.5,-69.27"/>
<polygon fill="#ff00ff" stroke="#ff00ff" points="148.5,-59 153,-69 148.5,-64 148.5,-69 148.5,-69 148.5,-69 148.5,-64 144,-69 148.5,-59 148.5,-59"/>
</g>
</g>
</svg>
