<?xml version="1.0" encoding="UTF-8" standalone="no"?>
<!DOCTYPE svg PUBLIC "-//W3C//DTD SVG 1.1//EN"
 "http://www.w3.org/Graphics/SVG/1.1/DTD/svg11.dtd">
<!-- Generated by graphviz version 2.43.0 (0)
 -->
<!-- Title: WorkOverride Pages: 1 -->
<svg width="330pt" height="285pt"
 viewBox="0.00 0.00 330.09 285.00" xmlns="http://www.w3.org/2000/svg" xmlns:xlink="http://www.w3.org/1999/xlink">
<g id="graph0" class="graph" transform="scale(1 1) rotate(0) translate(4 281)">
<title>WorkOverride</title>
<polygon fill="#0d1117" stroke="transparent" points="-4,4 -4,-281 326.09,-281 326.09,4 -4,4"/>
<text text-anchor="middle" x="161.05" y="-7.8" font-family="Helvetica,sans-Serif" font-size="14.00" fill="#00f2ff">A4.5: Systemd Configuration Override Workflow</text>
<!-- Service_Upgrade -->
<g id="node1" class="node">
<title>Service_Upgrade</title>
<path fill="#161b22" stroke="#00f2ff" d="M253.55,-277C253.55,-277 68.55,-277 68.55,-277 62.55,-277 56.55,-271 56.55,-265 56.55,-265 56.55,-253 56.55,-253 56.55,-247 62.55,-241 68.55,-241 68.55,-241 253.55,-241 253.55,-241 259.55,-241 265.55,-247 265.55,-253 265.55,-253 265.55,-265 265.55,-265 265.55,-271 259.55,-277 253.55,-277"/>
<text text-anchor="middle" x="161.05" y="-255.3" font-family="Helvetica,sans-Serif" font-size="14.00" fill="#00f2ff">Service Configuration Upgraded</text>
</g>
<!-- Override_Dir -->
<g id="node2" class="node">
<title>Override_Dir</title>
<polygon fill="#161b22" stroke="#ffff00" points="266.55,-205 263.55,-209 242.55,-209 239.55,-205 55.55,-205 55.55,-167 266.55,-167 266.55,-205"/>
<text text-anchor="middle" x="161.05" y="-189.8" font-family="Helvetica,sans-Serif" font-size="14.00" fill="#00f2ff">Create override.conf in</text>
<text text-anchor="middle" x="161.05" y="-174.8" font-family="Helvetica,sans-Serif" font-size="14.00" fill="#00f2ff">/etc/systemd/system/*.service.d/</text>
</g>
<!-- Service_Upgrade&#45;&gt;Override_Dir -->
<g id="edge1" class="edge">
<title>Service_Upgrade&#45;&gt;Override_Dir</title>
<path fill="none" stroke="#ff00ff" d="M161.05,-240.81C161.05,-233.11 161.05,-223.82 161.05,-215.15"/>
<polygon fill="#ff00ff" stroke="#ff00ff" points="161.05,-205.02 165.55,-215.02 161.05,-210.02 161.05,-215.02 161.05,-215.02 161.05,-215.02 161.05,-210.02 156.55,-215.02 161.05,-205.02 161.05,-205.02"/>
</g>
<!-- Daemon_Reload -->
<g id="node3" class="node">
<title>Daemon_Reload</title>
<path fill="#161b22" stroke="#00f2ff" d="M310.14,-131C310.14,-131 77.88,-131 77.88,-131 71.88,-131 60.61,-128.12 55.34,-125.25 55.34,-125.25 10.49,-100.75 10.49,-100.75 5.22,-97.88 5.95,-95 11.95,-95 11.95,-95 244.22,-95 244.22,-95 250.22,-95 261.48,-97.88 266.75,-100.75 266.75,-100.75 311.61,-125.25 311.61,-125.25 316.87,-128.12 316.14,-131 310.14,-131"/>
<text text-anchor="middle" x="161.05" y="-109.3" font-family="Helvetica,sans-Serif" font-size="14.00" fill="#00f2ff">systemctl daemon&#45;reload</text>
</g>
<!-- Override_Dir&#45;&gt;Daemon_Reload -->
<g id="edge2" class="edge">
<title>Override_Dir&#45;&gt;Daemon_Reload</title>
<path fill="none" stroke="#ff00ff" d="M161.05,-166.72C161.05,-158.97 161.05,-149.79 161.05,-141.27"/>
<polygon fill="#ff00ff" stroke="#ff00ff" points="161.05,-131 165.55,-141 161.05,-136 161.05,-141 161.05,-141 161.05,-141 161.05,-136 156.55,-141 161.05,-131 161.05,-131"/>
</g>
<!-- Restart -->
<g id="node4" class="node">
<title>Restart</title>
<path fill="#161b22" stroke="#00ff00" d="M207.05,-59C207.05,-59 115.05,-59 115.05,-59 109.05,-59 103.05,-53 103.05,-47 103.05,-47 103.05,-35 103.05,-35 103.05,-29 109.05,-23 115.05,-23 115.05,-23 207.05,-23 207.05,-23 213.05,-23 219.05,-29 219.05,-35 219.05,-35 219.05,-47 219.05,-47 219.05,-53 213.05,-59 207.05,-59"/>
<text text-anchor="middle" x="161.05" y="-37.3" font-family="Helvetica,sans-Serif" font-size="14.00" fill="#00f2ff">systemctl restart</text>
</g>
<!-- Daemon_Reload&#45;&gt;Restart -->
<g id="edge3" class="edge">
<title>Daemon_Reload&#45;&gt;Restart</title>
<path fill="none" stroke="#ff00ff" d="M161.05,-94.7C161.05,-86.98 161.05,-77.71 161.05,-69.11"/>
<polygon fill="#ff00ff" stroke="#ff00ff" points="161.05,-59.1 165.55,-69.1 161.05,-64.1 161.05,-69.1 161.05,-69.1 161.05,-69.1 161.05,-64.1 156.55,-69.1 161.05,-59.1 161.05,-59.1"/>
</g>
</g>
</svg>
