<?xml version="1.0" encoding="UTF-8" standalone="no"?>
<!DOCTYPE svg PUBLIC "-//W3C//DTD SVG 1.1//EN"
 "http://www.w3.org/Graphics/SVG/1.1/DTD/svg11.dtd">
<!-- Generated by graphviz version 2.43.0 (0)
 -->
<!-- Title: AxiomRewriting Pages: 1 -->
<svg width="241pt" height="409pt"
 viewBox="0.00 0.00 240.52 409.00" xmlns="http://www.w3.org/2000/svg" xmlns:xlink="http://www.w3.org/1999/xlink">
<g id="graph0" class="graph" transform="scale(1 1) rotate(0) translate(4 405)">
<title>AxiomRewriting</title>
<polygon fill="#0d1117" stroke="transparent" points="-4,4 -4,-405 236.52,-405 236.52,4 -4,4"/>
<text text-anchor="middle" x="116.26" y="-7.8" font-family="Helvetica,sans-Serif" font-size="14.00" fill="#00f2ff">Aspect 2: Axiom Rewriting Loop</text>
<!-- System_A -->
<g id="node1" class="node">
<title>System_A</title>
<path fill="#161b22" stroke="#00f2ff" d="M161.26,-401C161.26,-401 71.26,-401 71.26,-401 65.26,-401 59.26,-395 59.26,-389 59.26,-389 59.26,-375 59.26,-375 59.26,-369 65.26,-363 71.26,-363 71.26,-363 161.26,-363 161.26,-363 167.26,-363 173.26,-369 173.26,-375 173.26,-375 173.26,-389 173.26,-389 173.26,-395 167.26,-401 161.26,-401"/>
<text text-anchor="middle" x="116.26" y="-385.8" font-family="Times,serif" font-size="14.00" fill="#00f2ff">Formal System N</text>
<text text-anchor="middle" x="116.26" y="-370.8" font-family="Times,serif" font-size="14.00" fill="#00f2ff">(Current Axioms)</text>
</g>
<!-- Limit -->
<g id="node2" class="node">
<title>Limit</title>
<path fill="#161b22" stroke="#ff0000" d="M159.26,-326C159.26,-326 73.26,-326 73.26,-326 67.26,-326 61.26,-320 61.26,-314 61.26,-314 61.26,-300 61.26,-300 61.26,-294 67.26,-288 73.26,-288 73.26,-288 159.26,-288 159.26,-288 165.26,-288 171.26,-294 171.26,-300 171.26,-300 171.26,-314 171.26,-314 171.26,-320 165.26,-326 159.26,-326"/>
<text text-anchor="middle" x="116.26" y="-310.8" font-family="Times,serif" font-size="14.00" fill="#ff0000">Gödelian Limit</text>
<text text-anchor="middle" x="116.26" y="-295.8" font-family="Times,serif" font-size="14.00" fill="#ff0000">(Incompleteness)</text>
</g>
<!-- System_A&#45;&gt;Limit -->
<g id="edge1" class="edge">
<title>System_A&#45;&gt;Limit</title>
<path fill="none" stroke="#ff00ff" d="M116.26,-362.96C116.26,-354.88 116.26,-345.18 116.26,-336.18"/>
<polygon fill="#ff00ff" stroke="#ff00ff" points="116.26,-326.09 120.76,-336.09 116.26,-331.09 116.26,-336.09 116.26,-336.09 116.26,-336.09 116.26,-331.09 111.76,-336.09 116.26,-326.09 116.26,-326.09"/>
</g>
<!-- Observer -->
<g id="node3" class="node">
<title>Observer</title>
<path fill="#161b22" stroke="#00ff00" d="M159.26,-237C159.26,-237 73.26,-237 73.26,-237 67.26,-237 61.26,-231 61.26,-225 61.26,-225 61.26,-211 61.26,-211 61.26,-205 67.26,-199 73.26,-199 73.26,-199 159.26,-199 159.26,-199 165.26,-199 171.26,-205 171.26,-211 171.26,-211 171.26,-225 171.26,-225 171.26,-231 165.26,-237 159.26,-237"/>
<text text-anchor="middle" x="116.26" y="-221.8" font-family="Times,serif" font-size="14.00" fill="#00ff00">Human Observer</text>
<text text-anchor="middle" x="116.26" y="-206.8" font-family="Times,serif" font-size="14.00" fill="#00ff00">(Meta&#45;Position)</text>
</g>
<!-- Limit&#45;&gt;Observer -->
<g id="edge2" class="edge">
<title>Limit&#45;&gt;Observer</title>
<path fill="none" stroke="#ff00ff" d="M116.26,-287.97C116.26,-276.19 116.26,-260.56 116.26,-247.16"/>
<polygon fill="#ff00ff" stroke="#ff00ff" points="116.26,-237 120.76,-247 116.26,-242 116.26,-247 116.26,-247 116.26,-247 116.26,-242 111.76,-247 116.26,-237 116.26,-237"/>
<text text-anchor="middle" x="149.26" y="-258.8" font-family="Times,serif" font-size="14.00"> Awareness </text>
</g>
<!-- New_Axioms -->
<g id="node4" class="node">
<title>New_Axioms</title>
<path fill="#161b22" stroke="#ffff00" d="M220.28,-148C220.28,-148 59.72,-148 59.72,-148 53.72,-148 42.94,-144.37 38.16,-140.75 38.16,-140.75 9.8,-119.25 9.8,-119.25 5.02,-115.63 6.24,-112 12.24,-112 12.24,-112 172.8,-112 172.8,-112 178.8,-112 189.58,-115.63 194.36,-119.25 194.36,-119.25 222.71,-140.75 222.71,-140.75 227.5,-144.37 226.28,-148 220.28,-148"/>
<text text-anchor="middle" x="116.26" y="-126.3" font-family="Times,serif" font-size="14.00" fill="#ffff00">Axiom Refactoring</text>
</g>
<!-- Observer&#45;&gt;New_Axioms -->
<g id="edge3" class="edge">
<title>Observer&#45;&gt;New_Axioms</title>
<path fill="none" stroke="#ff00ff" d="M116.26,-198.76C116.26,-186.93 116.26,-171.32 116.26,-158.05"/>
<polygon fill="#ff00ff" stroke="#ff00ff" points="116.26,-148.04 120.76,-158.04 116.26,-153.04 116.26,-158.04 116.26,-158.04 116.26,-158.04 116.26,-153.04 111.76,-158.04 116.26,-148.04 116.26,-148.04"/>
<text text-anchor="middle" x="158.76" y="-169.8" font-family="Times,serif" font-size="14.00"> Intuitive Leap </text>
</g>
<!-- System_B -->
<g id="node5" class="node">
<title>System_B</title>
<path fill="#161b22" stroke="#00f2ff" stroke-width="3" d="M168.76,-61C168.76,-61 63.76,-61 63.76,-61 57.76,-61 51.76,-55 51.76,-49 51.76,-49 51.76,-35 51.76,-35 51.76,-29 57.76,-23 63.76,-23 63.76,-23 168.76,-23 168.76,-23 174.76,-23 180.76,-29 180.76,-35 180.76,-35 180.76,-49 180.76,-49 180.76,-55 174.76,-61 168.76,-61"/>
<text text-anchor="middle" x="116.26" y="-45.8" font-family="Times,serif" font-size="14.00" fill="#00f2ff">Formal System N+1</text>
<text text-anchor="middle" x="116.26" y="-30.8" font-family="Times,serif" font-size="14.00" fill="#00f2ff">(Expanded Power)</text>
</g>
<!-- New_Axioms&#45;&gt;System_B -->
<g id="edge4" class="edge">
<title>New_Axioms&#45;&gt;System_B</title>
<path fill="none" stroke="#ff00ff" d="M116.26,-111.6C116.26,-100.06 116.26,-84.65 116.26,-71.36"/>
<polygon fill="#ff00ff" stroke="#ff00ff" points="116.26,-61.27 120.76,-71.27 116.26,-66.27 116.26,-71.27 116.26,-71.27 116.26,-71.27 116.26,-66.27 111.76,-71.27 116.26,-61.27 116.26,-61.27"/>
<text text-anchor="middle" x="165.76" y="-82.8" font-family="Times,serif" font-size="14.00"> New Foundation </text>
</g>
</g>
</svg>
