<?xml version="1.0" encoding="UTF-8" standalone="no"?>
<!DOCTYPE svg PUBLIC "-//W3C//DTD SVG 1.1//EN"
 "http://www.w3.org/Graphics/SVG/1.1/DTD/svg11.dtd">
<!-- Generated by graphviz version 2.43.0 (0)
 -->
<!-- Title: GoalLens Pages: 1 -->
<svg width="304pt" height="458pt"
 viewBox="0.00 0.00 303.57 458.00" xmlns="http://www.w3.org/2000/svg" xmlns:xlink="http://www.w3.org/1999/xlink">
<g id="graph0" class="graph" transform="scale(1 1) rotate(0) translate(4 454)">
<title>GoalLens</title>
<polygon fill="#0d1117" stroke="transparent" points="-4,4 -4,-454 299.57,-454 299.57,4 -4,4"/>
<text text-anchor="middle" x="147.78" y="-7.8" font-family="Helvetica,sans-Serif" font-size="14.00" fill="#00f2ff">Aspect 1: The Goal&#45;Seeking Lens</text>
<!-- Human -->
<g id="node1" class="node">
<title>Human</title>
<path fill="#161b22" stroke="#00ff00" d="M196.57,-450C196.57,-450 94.57,-450 94.57,-450 88.57,-450 82.57,-444 82.57,-438 82.57,-438 82.57,-424 82.57,-424 82.57,-418 88.57,-412 94.57,-412 94.57,-412 196.57,-412 196.57,-412 202.57,-412 208.57,-418 208.57,-424 208.57,-424 208.57,-438 208.57,-438 208.57,-444 202.57,-450 196.57,-450"/>
<text text-anchor="middle" x="145.57" y="-434.8" font-family="Times,serif" font-size="14.00" fill="#00ff00">Human: The &#39;WHY&#39;</text>
<text text-anchor="middle" x="145.57" y="-419.8" font-family="Times,serif" font-size="14.00" fill="#00ff00">(Semantic Intent)</text>
</g>
<!-- Intent -->
<g id="node3" class="node">
<title>Intent</title>
<path fill="#161b22" stroke="#00f2ff" d="M6.57,-350.5C6.57,-350.5 80.93,-339.94 80.93,-339.94 84.25,-339.47 90.89,-339.47 94.21,-339.94 94.21,-339.94 168.56,-350.5 168.56,-350.5 171.88,-350.97 175.19,-354.79 175.18,-358.15 175.18,-358.15 175.15,-364.85 175.15,-364.85 175.13,-368.21 171.77,-371.56 168.41,-371.56 168.41,-371.56 6.72,-371.56 6.72,-371.56 3.37,-371.56 0,-368.21 -0.01,-364.85 -0.01,-364.85 -0.04,-358.15 -0.04,-358.15 -0.05,-354.79 3.25,-350.97 6.57,-350.5"/>
<text text-anchor="middle" x="87.57" y="-353.3" font-family="Times,serif" font-size="14.00" fill="#00f2ff">High&#45;Level Goal</text>
</g>
<!-- Human&#45;&gt;Intent -->
<g id="edge1" class="edge">
<title>Human&#45;&gt;Intent</title>
<path fill="none" stroke="#ff00ff" d="M130.93,-411.83C123.07,-402.07 113.32,-389.96 105.05,-379.71"/>
<polygon fill="#ff00ff" stroke="#ff00ff" points="98.54,-371.62 108.31,-376.58 101.67,-375.51 104.81,-379.4 104.81,-379.4 104.81,-379.4 101.67,-375.51 101.31,-382.23 98.54,-371.62 98.54,-371.62"/>
</g>
<!-- AI -->
<g id="node2" class="node">
<title>AI</title>
<path fill="#161b22" stroke="#00f2ff" d="M152.57,-302C152.57,-302 42.57,-302 42.57,-302 36.57,-302 30.57,-296 30.57,-290 30.57,-290 30.57,-276 30.57,-276 30.57,-270 36.57,-264 42.57,-264 42.57,-264 152.57,-264 152.57,-264 158.57,-264 164.57,-270 164.57,-276 164.57,-276 164.57,-290 164.57,-290 164.57,-296 158.57,-302 152.57,-302"/>
<text text-anchor="middle" x="97.57" y="-286.8" font-family="Times,serif" font-size="14.00" fill="#00f2ff">AI: The &#39;HOW&#39;</text>
<text text-anchor="middle" x="97.57" y="-271.8" font-family="Times,serif" font-size="14.00" fill="#00f2ff">(Syntactic Execution)</text>
</g>
<!-- Decomposition -->
<g id="node4" class="node">
<title>Decomposition</title>
<polygon fill="#161b22" stroke="#00f2ff" points="164.57,-227 48.57,-227 48.57,-191 170.57,-191 170.57,-221 164.57,-227"/>
<polyline fill="none" stroke="#00f2ff" points="164.57,-227 164.57,-221 "/>
<polyline fill="none" stroke="#00f2ff" points="170.57,-221 164.57,-221 "/>
<text text-anchor="middle" x="109.57" y="-205.3" font-family="Times,serif" font-size="14.00" fill="#00f2ff">Step&#45;by&#45;Step Logic</text>
</g>
<!-- AI&#45;&gt;Decomposition -->
<g id="edge3" class="edge">
<title>AI&#45;&gt;Decomposition</title>
<path fill="none" stroke="#ff00ff" d="M100.6,-263.83C101.93,-255.81 103.53,-246.2 105.01,-237.34"/>
<polygon fill="#ff00ff" stroke="#ff00ff" points="106.66,-227.42 109.46,-238.02 105.84,-232.35 105.02,-237.28 105.02,-237.28 105.02,-237.28 105.84,-232.35 100.58,-236.54 106.66,-227.42 106.66,-227.42"/>
</g>
<!-- Intent&#45;&gt;AI -->
<g id="edge2" class="edge">
<title>Intent&#45;&gt;AI</title>
<path fill="none" stroke="#ff00ff" d="M89.89,-339.3C91.01,-331.21 92.39,-321.28 93.67,-312.07"/>
<polygon fill="#ff00ff" stroke="#ff00ff" points="95.05,-302.12 98.13,-312.65 94.36,-307.07 93.67,-312.03 93.67,-312.03 93.67,-312.03 94.36,-307.07 89.22,-311.41 95.05,-302.12 95.05,-302.12"/>
</g>
<!-- Verification -->
<g id="node5" class="node">
<title>Verification</title>
<path fill="#161b22" stroke="#ffff00" d="M144.68,-152.37C144.68,-152.37 37.08,-137.63 37.08,-137.63 31.13,-136.81 31.13,-135.19 37.08,-134.37 37.08,-134.37 144.68,-119.63 144.68,-119.63 150.62,-118.81 162.51,-118.81 168.46,-119.63 168.46,-119.63 276.06,-134.37 276.06,-134.37 282,-135.19 282,-136.81 276.06,-137.63 276.06,-137.63 168.46,-152.37 168.46,-152.37 162.51,-153.19 150.62,-153.19 144.68,-152.37"/>
<text text-anchor="middle" x="156.57" y="-132.3" font-family="Times,serif" font-size="14.00" fill="#ffff00">Goal Alignment Check</text>
</g>
<!-- Decomposition&#45;&gt;Verification -->
<g id="edge4" class="edge">
<title>Decomposition&#45;&gt;Verification</title>
<path fill="none" stroke="#ff00ff" d="M120.95,-190.81C126.77,-182.01 133.96,-171.15 140.35,-161.49"/>
<polygon fill="#ff00ff" stroke="#ff00ff" points="145.94,-153.06 144.17,-163.88 143.18,-157.22 140.42,-161.39 140.42,-161.39 140.42,-161.39 143.18,-157.22 136.67,-158.91 145.94,-153.06 145.94,-153.06"/>
</g>
<!-- Verification&#45;&gt;Human -->
<g id="edge5" class="edge">
<title>Verification&#45;&gt;Human</title>
<path fill="none" stroke="#ff00ff" d="M173.8,-151.77C187.22,-164.99 203.57,-185.68 203.57,-208 203.57,-358 203.57,-358 203.57,-358 203.57,-376.25 192.13,-392.49 179.41,-404.91"/>
<polygon fill="#ff00ff" stroke="#ff00ff" points="171.85,-411.76 176.24,-401.71 175.56,-408.4 179.26,-405.04 179.26,-405.04 179.26,-405.04 175.56,-408.4 182.28,-408.38 171.85,-411.76 171.85,-411.76"/>
<text text-anchor="middle" x="249.57" y="-279.3" font-family="Times,serif" font-size="14.00"> Drift Detected? </text>
</g>
<!-- Output -->
<g id="node6" class="node">
<title>Output</title>
<path fill="#161b22" stroke="#00ff00" d="M236.95,-42.51C236.95,-42.51 236.95,-47.49 236.95,-47.49 236.95,-49.97 234.53,-53 232.1,-53.54 232.1,-53.54 194.72,-61.91 194.72,-61.91 192.29,-62.46 187.38,-63 184.89,-63 184.89,-63 128.24,-63 128.24,-63 125.76,-63 120.84,-62.46 118.42,-61.91 118.42,-61.91 81.03,-53.54 81.03,-53.54 78.61,-53 76.18,-49.97 76.18,-47.49 76.18,-47.49 76.18,-42.51 76.18,-42.51 76.18,-40.03 78.61,-37 81.03,-36.46 81.03,-36.46 118.42,-28.09 118.42,-28.09 120.84,-27.54 125.76,-27 128.24,-27 128.24,-27 184.89,-27 184.89,-27 187.38,-27 192.29,-27.54 194.72,-28.09 194.72,-28.09 232.1,-36.46 232.1,-36.46 234.53,-37 236.95,-40.03 236.95,-42.51"/>
<path fill="none" stroke="#00ff00" d="M240.96,-41.45C240.96,-41.45 240.96,-48.55 240.96,-48.55 240.96,-52.11 237.5,-56.43 234.03,-57.21 234.03,-57.21 197.24,-65.45 197.24,-65.45 193.78,-66.22 186.76,-67 183.2,-67 183.2,-67 129.93,-67 129.93,-67 126.38,-67 119.36,-66.22 115.89,-65.45 115.89,-65.45 79.1,-57.21 79.1,-57.21 75.64,-56.43 72.17,-52.11 72.17,-48.55 72.17,-48.55 72.17,-41.45 72.17,-41.45 72.17,-37.89 75.64,-33.57 79.1,-32.79 79.1,-32.79 115.89,-24.55 115.89,-24.55 119.36,-23.78 126.38,-23 129.93,-23 129.93,-23 183.2,-23 183.2,-23 186.76,-23 193.78,-23.78 197.24,-24.55 197.24,-24.55 234.03,-32.79 234.03,-32.79 237.5,-33.57 240.96,-37.89 240.96,-41.45"/>
<text text-anchor="middle" x="156.57" y="-41.3" font-family="Times,serif" font-size="14.00" fill="#00f2ff">Semantic Success</text>
</g>
<!-- Verification&#45;&gt;Output -->
<g id="edge6" class="edge">
<title>Verification&#45;&gt;Output</title>
<path fill="none" stroke="#ff00ff" d="M156.57,-117.84C156.57,-106.44 156.57,-91.13 156.57,-77.58"/>
<polygon fill="#ff00ff" stroke="#ff00ff" points="156.57,-67.19 161.07,-77.19 156.57,-72.19 156.57,-77.19 156.57,-77.19 156.57,-77.19 156.57,-72.19 152.07,-77.19 156.57,-67.19 156.57,-67.19"/>
<text text-anchor="middle" x="187.07" y="-88.8" font-family="Times,serif" font-size="14.00"> Goal Met </text>
</g>
</g>
</svg>
