<?xml version="1.0" encoding="UTF-8" standalone="no"?>
<!DOCTYPE svg PUBLIC "-//W3C//DTD SVG 1.1//EN"
 "http://www.w3.org/Graphics/SVG/1.1/DTD/svg11.dtd">
<!-- Generated by graphviz version 2.43.0 (0)
 -->
<!-- Title: HeuristicPruning Pages: 1 -->
<svg width="288pt" height="333pt"
 viewBox="0.00 0.00 288.00 333.00" xmlns="http://www.w3.org/2000/svg" xmlns:xlink="http://www.w3.org/1999/xlink">
<g id="graph0" class="graph" transform="scale(1 1) rotate(0) translate(4 329)">
<title>HeuristicPruning</title>
<polygon fill="#0d1117" stroke="transparent" points="-4,4 -4,-329 284,-329 284,4 -4,4"/>
<text text-anchor="middle" x="140" y="-7.8" font-family="Helvetica,sans-Serif" font-size="14.00" fill="#00f2ff">Aspect 4: Heuristic Pruning</text>
<!-- SearchSpace -->
<g id="node1" class="node">
<title>SearchSpace</title>
<path fill="#161b22" stroke="#00f2ff" d="M199,-325C199,-325 81,-325 81,-325 75,-325 69,-319 69,-313 69,-313 69,-301 69,-301 69,-295 75,-289 81,-289 81,-289 199,-289 199,-289 205,-289 211,-295 211,-301 211,-301 211,-313 211,-313 211,-319 205,-325 199,-325"/>
<text text-anchor="middle" x="140" y="-303.3" font-family="Times,serif" font-size="14.00" fill="#00f2ff">Infinite Solution Space</text>
</g>
<!-- Candidates -->
<g id="node2" class="node">
<title>Candidates</title>
<path fill="#161b22" stroke="#00f2ff" d="M173.5,-253C173.5,-253 106.5,-253 106.5,-253 100.5,-253 94.5,-247 94.5,-241 94.5,-241 94.5,-227 94.5,-227 94.5,-221 100.5,-215 106.5,-215 106.5,-215 173.5,-215 173.5,-215 179.5,-215 185.5,-221 185.5,-227 185.5,-227 185.5,-241 185.5,-241 185.5,-247 179.5,-253 173.5,-253"/>
<text text-anchor="middle" x="140" y="-237.8" font-family="Times,serif" font-size="14.00" fill="#00f2ff">AI Generated</text>
<text text-anchor="middle" x="140" y="-222.8" font-family="Times,serif" font-size="14.00" fill="#00f2ff">N&#45;Candidates</text>
</g>
<!-- SearchSpace&#45;&gt;Candidates -->
<g id="edge1" class="edge">
<title>SearchSpace&#45;&gt;Candidates</title>
<path fill="none" stroke="#ff00ff" d="M140,-288.81C140,-281.11 140,-271.82 140,-263.15"/>
<polygon fill="#ff00ff" stroke="#ff00ff" points="140,-253.02 144.5,-263.02 140,-258.02 140,-263.02 140,-263.02 140,-263.02 140,-258.02 135.5,-263.02 140,-253.02 140,-253.02"/>
</g>
<!-- Aesthetics -->
<g id="node3" class="node">
<title>Aesthetics</title>
<path fill="#161b22" stroke="#00ff00" d="M209.76,-179C209.76,-179 70.24,-179 70.24,-179 64.24,-179 54.59,-174.24 50.94,-169.47 50.94,-169.47 7.3,-112.53 7.3,-112.53 3.65,-107.76 6,-103 12,-103 12,-103 268,-103 268,-103 274,-103 276.35,-107.76 272.7,-112.53 272.7,-112.53 229.06,-169.47 229.06,-169.47 225.41,-174.24 215.76,-179 209.76,-179"/>
<text text-anchor="middle" x="140" y="-144.8" font-family="Times,serif" font-size="14.00" fill="#00ff00">Human Heuristics</text>
<text text-anchor="middle" x="140" y="-129.8" font-family="Times,serif" font-size="14.00" fill="#00ff00">(Elegance, Simplicity)</text>
</g>
<!-- Candidates&#45;&gt;Aesthetics -->
<g id="edge2" class="edge">
<title>Candidates&#45;&gt;Aesthetics</title>
<path fill="none" stroke="#ff00ff" d="M140,-214.58C140,-207.19 140,-198.29 140,-189.3"/>
<polygon fill="#ff00ff" stroke="#ff00ff" points="140,-179.19 144.5,-189.19 140,-184.19 140,-189.19 140,-189.19 140,-189.19 140,-184.19 135.5,-189.19 140,-179.19 140,-179.19"/>
</g>
<!-- Optimal -->
<g id="node4" class="node">
<title>Optimal</title>
<path fill="#161b22" stroke="#ffff00" d="M232.73,-42.51C232.73,-42.51 232.73,-47.49 232.73,-47.49 232.73,-49.97 230.29,-52.93 227.85,-53.4 227.85,-53.4 183.29,-62.05 183.29,-62.05 180.85,-62.53 175.92,-63 173.44,-63 173.44,-63 106.56,-63 106.56,-63 104.08,-63 99.15,-62.53 96.71,-62.05 96.71,-62.05 52.15,-53.4 52.15,-53.4 49.71,-52.93 47.27,-49.97 47.27,-47.49 47.27,-47.49 47.27,-42.51 47.27,-42.51 47.27,-40.03 49.71,-37.07 52.15,-36.6 52.15,-36.6 96.71,-27.95 96.71,-27.95 99.15,-27.47 104.08,-27 106.56,-27 106.56,-27 173.44,-27 173.44,-27 175.92,-27 180.85,-27.47 183.29,-27.95 183.29,-27.95 227.85,-36.6 227.85,-36.6 230.29,-37.07 232.73,-40.03 232.73,-42.51"/>
<path fill="none" stroke="#ffff00" d="M236.72,-41.42C236.72,-41.42 236.72,-48.58 236.72,-48.58 236.72,-52.17 233.2,-56.44 229.68,-57.12 229.68,-57.12 185.83,-65.63 185.83,-65.63 182.31,-66.32 175.21,-67 171.62,-67 171.62,-67 108.38,-67 108.38,-67 104.79,-67 97.69,-66.32 94.17,-65.63 94.17,-65.63 50.32,-57.12 50.32,-57.12 46.8,-56.44 43.28,-52.17 43.28,-48.58 43.28,-48.58 43.28,-41.42 43.28,-41.42 43.28,-37.83 46.8,-33.56 50.32,-32.88 50.32,-32.88 94.17,-24.37 94.17,-24.37 97.69,-23.68 104.79,-23 108.38,-23 108.38,-23 171.62,-23 171.62,-23 175.21,-23 182.31,-23.68 185.83,-24.37 185.83,-24.37 229.68,-32.88 229.68,-32.88 233.2,-33.56 236.72,-37.83 236.72,-41.42"/>
<text text-anchor="middle" x="140" y="-41.3" font-family="Times,serif" font-size="14.00" fill="#ffff00">The Elegant Solution</text>
</g>
<!-- Aesthetics&#45;&gt;Optimal -->
<g id="edge3" class="edge">
<title>Aesthetics&#45;&gt;Optimal</title>
<path fill="none" stroke="#ff00ff" d="M140,-102.85C140,-94.43 140,-85.57 140,-77.41"/>
<polygon fill="#ff00ff" stroke="#ff00ff" points="140,-67.19 144.5,-77.19 140,-72.19 140,-77.19 140,-77.19 140,-77.19 140,-72.19 135.5,-77.19 140,-67.19 140,-67.19"/>
</g>
</g>
</svg>
