<?xml version="1.0" encoding="UTF-8" standalone="no"?>
<!DOCTYPE svg PUBLIC "-//W3C//DTD SVG 1.1//EN"
 "http://www.w3.org/Graphics/SVG/1.1/DTD/svg11.dtd">
<!-- Generated by graphviz version 2.43.0 (0)
 -->
<!-- Title: TemplateDriftLoop Pages: 1 -->
<svg width="431pt" height="380pt"
 viewBox="0.00 0.00 431.08 380.00" xmlns="http://www.w3.org/2000/svg" xmlns:xlink="http://www.w3.org/1999/xlink">
<g id="graph0" class="graph" transform="scale(1 1) rotate(0) translate(4 376)">
<title>TemplateDriftLoop</title>
<polygon fill="#0d1117" stroke="transparent" points="-4,4 -4,-376 427.08,-376 427.08,4 -4,4"/>
<text text-anchor="middle" x="211.54" y="-7.8" font-family="Helvetica,sans-Serif" font-size="14.00" fill="#00f2ff">Template Visualization: The Semantic Drift Correction Loop</text>
<!-- Objective -->
<g id="node1" class="node">
<title>Objective</title>
<path fill="#161b22" stroke="#00ff00" d="M142.16,-372C142.16,-372 84.16,-372 84.16,-372 78.16,-372 72.16,-366 72.16,-360 72.16,-360 72.16,-346 72.16,-346 72.16,-340 78.16,-334 84.16,-334 84.16,-334 142.16,-334 142.16,-334 148.16,-334 154.16,-340 154.16,-346 154.16,-346 154.16,-360 154.16,-360 154.16,-366 148.16,-372 142.16,-372"/>
<text text-anchor="middle" x="113.16" y="-356.8" font-family="Times,serif" font-size="14.00" fill="#00ff00">Stated Goal</text>
<text text-anchor="middle" x="113.16" y="-341.8" font-family="Times,serif" font-size="14.00" fill="#00ff00">(The &#39;Why&#39;)</text>
</g>
<!-- DriftDoc -->
<g id="node3" class="node">
<title>DriftDoc</title>
<polygon fill="#161b22" stroke="#ffff00" stroke-width="2" points="286.16,-283 180.16,-283 180.16,-245 292.16,-245 292.16,-277 286.16,-283"/>
<polyline fill="none" stroke="#ffff00" stroke-width="2" points="286.16,-283 286.16,-277 "/>
<polyline fill="none" stroke="#ffff00" stroke-width="2" points="292.16,-277 286.16,-277 "/>
<text text-anchor="middle" x="236.16" y="-267.8" font-family="Times,serif" font-size="14.00" fill="#ffff00">drift_analysis.md</text>
<text text-anchor="middle" x="236.16" y="-252.8" font-family="Times,serif" font-size="14.00" fill="#ffff00">(Detection)</text>
</g>
<!-- Objective&#45;&gt;DriftDoc -->
<g id="edge1" class="edge">
<title>Objective&#45;&gt;DriftDoc</title>
<path fill="none" stroke="#ff00ff" d="M126.57,-333.8C135.04,-323.23 146.7,-310.22 159.16,-301 165.67,-296.19 172.92,-291.78 180.3,-287.83"/>
<polygon fill="#ff00ff" stroke="#ff00ff" points="189.67,-283.08 182.79,-291.62 185.21,-285.34 180.75,-287.6 180.75,-287.6 180.75,-287.6 185.21,-285.34 178.72,-283.59 189.67,-283.08 189.67,-283.08"/>
<text text-anchor="middle" x="195.66" y="-304.8" font-family="Times,serif" font-size="14.00"> Expectation </text>
</g>
<!-- Code -->
<g id="node2" class="node">
<title>Code</title>
<path fill="#161b22" stroke="#00f2ff" d="M281.66,-372C281.66,-372 190.66,-372 190.66,-372 184.66,-372 178.66,-366 178.66,-360 178.66,-360 178.66,-346 178.66,-346 178.66,-340 184.66,-334 190.66,-334 190.66,-334 281.66,-334 281.66,-334 287.66,-334 293.66,-340 293.66,-346 293.66,-346 293.66,-360 293.66,-360 293.66,-366 287.66,-372 281.66,-372"/>
<text text-anchor="middle" x="236.16" y="-356.8" font-family="Times,serif" font-size="14.00" fill="#00f2ff">Technical Artifact</text>
<text text-anchor="middle" x="236.16" y="-341.8" font-family="Times,serif" font-size="14.00" fill="#00f2ff">(The &#39;How&#39;)</text>
</g>
<!-- Code&#45;&gt;DriftDoc -->
<g id="edge2" class="edge">
<title>Code&#45;&gt;DriftDoc</title>
<path fill="none" stroke="#ff00ff" d="M236.16,-333.97C236.16,-322.19 236.16,-306.56 236.16,-293.16"/>
<polygon fill="#ff00ff" stroke="#ff00ff" points="236.16,-283 240.66,-293 236.16,-288 236.16,-293 236.16,-293 236.16,-293 236.16,-288 231.66,-293 236.16,-283 236.16,-283"/>
<text text-anchor="middle" x="259.66" y="-304.8" font-family="Times,serif" font-size="14.00"> Reality </text>
</g>
<!-- Intervention -->
<g id="node4" class="node">
<title>Intervention</title>
<path fill="#161b22" stroke="#ff00ff" d="M411,-194C411,-194 169.6,-194 169.6,-194 163.6,-194 153.59,-189.54 149.58,-185.07 149.58,-185.07 97.35,-126.93 97.35,-126.93 93.34,-122.46 95.33,-118 101.33,-118 101.33,-118 342.73,-118 342.73,-118 348.73,-118 358.73,-122.46 362.74,-126.93 362.74,-126.93 414.98,-185.07 414.98,-185.07 418.99,-189.54 417,-194 411,-194"/>
<text text-anchor="middle" x="256.16" y="-159.8" font-family="Times,serif" font-size="14.00" fill="#00f2ff">Human Course Correction</text>
<text text-anchor="middle" x="256.16" y="-144.8" font-family="Times,serif" font-size="14.00" fill="#00f2ff">(Meta&#45;Leap)</text>
</g>
<!-- DriftDoc&#45;&gt;Intervention -->
<g id="edge3" class="edge">
<title>DriftDoc&#45;&gt;Intervention</title>
<path fill="none" stroke="#ff00ff" d="M239.65,-244.54C241.75,-233.37 244.55,-218.57 247.23,-204.33"/>
<polygon fill="#ff00ff" stroke="#ff00ff" points="249.16,-194.12 251.73,-204.78 248.23,-199.03 247.31,-203.95 247.31,-203.95 247.31,-203.95 248.23,-199.03 242.88,-203.11 249.16,-194.12 249.16,-194.12"/>
<text text-anchor="middle" x="287.66" y="-215.8" font-family="Times,serif" font-size="14.00"> Identifies Gap </text>
</g>
<!-- Refinement -->
<g id="node5" class="node">
<title>Refinement</title>
<path fill="#161b22" stroke="#00ff00" d="M150.48,-42.51C150.48,-42.51 150.48,-47.49 150.48,-47.49 150.48,-49.97 148.07,-53.05 145.65,-53.64 145.65,-53.64 112.36,-61.81 112.36,-61.81 109.95,-62.41 105.05,-63 102.56,-63 102.56,-63 51.76,-63 51.76,-63 49.28,-63 44.38,-62.41 41.97,-61.81 41.97,-61.81 8.67,-53.64 8.67,-53.64 6.26,-53.05 3.84,-49.97 3.84,-47.49 3.84,-47.49 3.84,-42.51 3.84,-42.51 3.84,-40.03 6.26,-36.95 8.67,-36.36 8.67,-36.36 41.97,-28.19 41.97,-28.19 44.38,-27.59 49.28,-27 51.76,-27 51.76,-27 102.56,-27 102.56,-27 105.05,-27 109.95,-27.59 112.36,-28.19 112.36,-28.19 145.65,-36.36 145.65,-36.36 148.07,-36.95 150.48,-40.03 150.48,-42.51"/>
<path fill="none" stroke="#00ff00" d="M154.49,-41.47C154.49,-41.47 154.49,-48.53 154.49,-48.53 154.49,-52.06 151.06,-56.43 147.63,-57.27 147.63,-57.27 114.88,-65.32 114.88,-65.32 111.45,-66.16 104.49,-67 100.96,-67 100.96,-67 53.37,-67 53.37,-67 49.84,-67 42.88,-66.16 39.45,-65.32 39.45,-65.32 6.69,-57.27 6.69,-57.27 3.26,-56.43 -0.16,-52.06 -0.16,-48.53 -0.16,-48.53 -0.16,-41.47 -0.16,-41.47 -0.16,-37.94 3.26,-33.57 6.69,-32.73 6.69,-32.73 39.45,-24.68 39.45,-24.68 42.88,-23.84 49.84,-23 53.37,-23 53.37,-23 100.96,-23 100.96,-23 104.49,-23 111.45,-23.84 114.88,-24.68 114.88,-24.68 147.63,-32.73 147.63,-32.73 151.06,-33.57 154.49,-37.94 154.49,-41.47"/>
<text text-anchor="middle" x="77.16" y="-41.3" font-family="Times,serif" font-size="14.00" fill="#00ff00">Refined Artifact</text>
</g>
<!-- Intervention&#45;&gt;Refinement -->
<g id="edge4" class="edge">
<title>Intervention&#45;&gt;Refinement</title>
<path fill="none" stroke="#ff00ff" d="M195.31,-117.95C170.35,-102.74 142.06,-85.52 119.42,-71.73"/>
<polygon fill="#ff00ff" stroke="#ff00ff" points="110.73,-66.44 121.61,-67.8 115,-69.04 119.27,-71.64 119.27,-71.64 119.27,-71.64 115,-69.04 116.93,-75.48 110.73,-66.44 110.73,-66.44"/>
<text text-anchor="middle" x="208.66" y="-88.8" font-family="Times,serif" font-size="14.00"> Modifies Logic </text>
</g>
<!-- Refinement&#45;&gt;Objective -->
<g id="edge5" class="edge">
<title>Refinement&#45;&gt;Objective</title>
<path fill="none" stroke="#ff00ff" stroke-dasharray="5,2" d="M76.36,-67.16C75.56,-95.96 75.06,-149.06 80.16,-194 85.39,-240.03 97.63,-292.5 105.64,-323.89"/>
<polygon fill="#ff00ff" stroke="#ff00ff" points="108.18,-333.69 101.32,-325.14 106.93,-328.85 105.67,-324.01 105.67,-324.01 105.67,-324.01 106.93,-328.85 110.03,-322.88 108.18,-333.69 108.18,-333.69"/>
<text text-anchor="middle" x="112.66" y="-215.8" font-family="Times,serif" font-size="14.00"> Matches </text>
</g>
</g>
</svg>
