<?xml version="1.0" encoding="UTF-8" standalone="no"?>
<!DOCTYPE svg PUBLIC "-//W3C//DTD SVG 1.1//EN"
 "http://www.w3.org/Graphics/SVG/1.1/DTD/svg11.dtd">
<!-- Generated by graphviz version 2.43.0 (0)
 -->
<!-- Title: TemplateLifecycle Pages: 1 -->
<svg width="499pt" height="360pt"
 viewBox="0.00 0.00 499.00 360.00" xmlns="http://www.w3.org/2000/svg" xmlns:xlink="http://www.w3.org/1999/xlink">
<g id="graph0" class="graph" transform="scale(1 1) rotate(0) translate(4 356)">
<title>TemplateLifecycle</title>
<polygon fill="#0d1117" stroke="transparent" points="-4,4 -4,-356 495,-356 495,4 -4,4"/>
<text text-anchor="middle" x="245.5" y="-7.8" font-family="Helvetica,sans-Serif" font-size="14.00" fill="#00f2ff">Template Visualization: The Documentation Lifecycle</text>
<!-- P1 -->
<g id="node1" class="node">
<title>P1</title>
<path fill="#161b22" stroke="#00ff00" d="M412,-352C412,-352 280,-352 280,-352 274,-352 268,-346 268,-340 268,-340 268,-326 268,-326 268,-320 274,-314 280,-314 280,-314 412,-314 412,-314 418,-314 424,-320 424,-326 424,-326 424,-340 424,-340 424,-346 418,-352 412,-352"/>
<text text-anchor="middle" x="346" y="-336.8" font-family="Times,serif" font-size="14.00" fill="#00ff00">Phase 1: Grounding</text>
<text text-anchor="middle" x="346" y="-321.8" font-family="Times,serif" font-size="14.00" fill="#00ff00">(objective_definition.md)</text>
</g>
<!-- P2 -->
<g id="node2" class="node">
<title>P2</title>
<path fill="#161b22" stroke="#00f2ff" d="M344.5,-277C344.5,-277 247.5,-277 247.5,-277 241.5,-277 235.5,-271 235.5,-265 235.5,-265 235.5,-251 235.5,-251 235.5,-245 241.5,-239 247.5,-239 247.5,-239 344.5,-239 344.5,-239 350.5,-239 356.5,-245 356.5,-251 356.5,-251 356.5,-265 356.5,-265 356.5,-271 350.5,-277 344.5,-277"/>
<text text-anchor="middle" x="296" y="-261.8" font-family="Times,serif" font-size="14.00" fill="#00f2ff">Phase 2: Execution</text>
<text text-anchor="middle" x="296" y="-246.8" font-family="Times,serif" font-size="14.00" fill="#00f2ff">(session_log.md)</text>
</g>
<!-- P1&#45;&gt;P2 -->
<g id="edge1" class="edge">
<title>P1&#45;&gt;P2</title>
<path fill="none" stroke="#ff00ff" d="M333.64,-313.96C327.75,-305.36 320.59,-294.9 314.1,-285.43"/>
<polygon fill="#ff00ff" stroke="#ff00ff" points="308.39,-277.09 317.75,-282.8 311.22,-281.22 314.04,-285.34 314.04,-285.34 314.04,-285.34 311.22,-281.22 310.33,-287.88 308.39,-277.09 308.39,-277.09"/>
</g>
<!-- P3A -->
<g id="node3" class="node">
<title>P3A</title>
<path fill="#161b22" stroke="#ffff00" d="M351,-188C351,-188 241,-188 241,-188 235,-188 229,-182 229,-176 229,-176 229,-162 229,-162 229,-156 235,-150 241,-150 241,-150 351,-150 351,-150 357,-150 363,-156 363,-162 363,-162 363,-176 363,-176 363,-182 357,-188 351,-188"/>
<text text-anchor="middle" x="296" y="-172.8" font-family="Times,serif" font-size="14.00" fill="#ffff00">Phase 3A: Alignment</text>
<text text-anchor="middle" x="296" y="-157.8" font-family="Times,serif" font-size="14.00" fill="#ffff00">(drift_analysis.md)</text>
</g>
<!-- P2&#45;&gt;P3A -->
<g id="edge2" class="edge">
<title>P2&#45;&gt;P3A</title>
<path fill="none" stroke="#ff00ff" d="M296,-238.97C296,-227.19 296,-211.56 296,-198.16"/>
<polygon fill="#ff00ff" stroke="#ff00ff" points="296,-188 300.5,-198 296,-193 296,-198 296,-198 296,-198 296,-193 291.5,-198 296,-188 296,-188"/>
</g>
<!-- P3B -->
<g id="node4" class="node">
<title>P3B</title>
<path fill="#161b22" stroke="#ffff00" d="M196,-188C196,-188 92,-188 92,-188 86,-188 80,-182 80,-176 80,-176 80,-162 80,-162 80,-156 86,-150 92,-150 92,-150 196,-150 196,-150 202,-150 208,-156 208,-162 208,-162 208,-176 208,-176 208,-182 202,-188 196,-188"/>
<text text-anchor="middle" x="144" y="-172.8" font-family="Times,serif" font-size="14.00" fill="#ffff00">Phase 3B: Pruning</text>
<text text-anchor="middle" x="144" y="-157.8" font-family="Times,serif" font-size="14.00" fill="#ffff00">(pruning_report.md)</text>
</g>
<!-- P2&#45;&gt;P3B -->
<g id="edge3" class="edge">
<title>P2&#45;&gt;P3B</title>
<path fill="none" stroke="#ff00ff" d="M264.51,-238.97C241.27,-225.68 209.47,-207.47 184.37,-193.11"/>
<polygon fill="#ff00ff" stroke="#ff00ff" points="175.45,-188 186.37,-189.07 179.79,-190.49 184.13,-192.97 184.13,-192.97 184.13,-192.97 179.79,-190.49 181.9,-196.88 175.45,-188 175.45,-188"/>
</g>
<!-- P4A -->
<g id="node5" class="node">
<title>P4A</title>
<path fill="#161b22" stroke="#ff0000" d="M306.32,-96.23C306.32,-96.23 169.68,-63.77 169.68,-63.77 163.84,-62.39 163.84,-59.61 169.68,-58.23 169.68,-58.23 306.32,-25.77 306.32,-25.77 312.16,-24.39 323.84,-24.39 329.68,-25.77 329.68,-25.77 466.32,-58.23 466.32,-58.23 472.16,-59.61 472.16,-62.39 466.32,-63.77 466.32,-63.77 329.68,-96.23 329.68,-96.23 323.84,-97.61 312.16,-97.61 306.32,-96.23"/>
<text text-anchor="middle" x="318" y="-64.8" font-family="Times,serif" font-size="14.00" fill="#ff0000">Phase 4A: Gödelian Limit</text>
<text text-anchor="middle" x="318" y="-49.8" font-family="Times,serif" font-size="14.00" fill="#ff0000">(axiom_shift.md)</text>
</g>
<!-- P3A&#45;&gt;P4A -->
<g id="edge4" class="edge">
<title>P3A&#45;&gt;P4A</title>
<path fill="none" stroke="#ff00ff" d="M299,-149.54C300.64,-139.83 302.78,-127.74 305,-117 305.66,-113.78 306.38,-110.46 307.11,-107.13"/>
<polygon fill="#ff00ff" stroke="#ff00ff" points="309.38,-97.14 311.56,-107.89 308.27,-102.02 307.17,-106.89 307.17,-106.89 307.17,-106.89 308.27,-102.02 302.78,-105.9 309.38,-97.14 309.38,-97.14"/>
<text text-anchor="middle" x="342.5" y="-120.8" font-family="Times,serif" font-size="14.00"> Severe Drift </text>
</g>
<!-- P4B -->
<g id="node6" class="node">
<title>P4B</title>
<path fill="#161b22" stroke="#00ff00" d="M128,-80C128,-80 12,-80 12,-80 6,-80 0,-74 0,-68 0,-68 0,-54 0,-54 0,-48 6,-42 12,-42 12,-42 128,-42 128,-42 134,-42 140,-48 140,-54 140,-54 140,-68 140,-68 140,-74 134,-80 128,-80"/>
<text text-anchor="middle" x="70" y="-64.8" font-family="Times,serif" font-size="14.00" fill="#00ff00">Phase 4B: Review</text>
<text text-anchor="middle" x="70" y="-49.8" font-family="Times,serif" font-size="14.00" fill="#00ff00">(capability_report.md)</text>
</g>
<!-- P3A&#45;&gt;P4B -->
<g id="edge7" class="edge">
<title>P3A&#45;&gt;P4B</title>
<path fill="none" stroke="#ff00ff" d="M268.33,-149.76C251.41,-139.17 229.05,-126.16 208,-117 182.86,-106.05 174.59,-108.84 149,-99 137.74,-94.67 125.83,-89.45 114.77,-84.31"/>
<polygon fill="#ff00ff" stroke="#ff00ff" points="105.72,-80.04 116.68,-80.24 110.24,-82.17 114.76,-84.31 114.76,-84.31 114.76,-84.31 110.24,-82.17 112.84,-88.38 105.72,-80.04 105.72,-80.04"/>
<text text-anchor="middle" x="264.5" y="-120.8" font-family="Times,serif" font-size="14.00"> Success </text>
</g>
<!-- P3B&#45;&gt;P4A -->
<g id="edge5" class="edge">
<title>P3B&#45;&gt;P4A</title>
<path fill="none" stroke="#ff00ff" d="M139.48,-149.8C137.96,-139.23 138.11,-126.23 145,-117 159.19,-98 179.98,-85.41 202.27,-77.12"/>
<polygon fill="#ff00ff" stroke="#ff00ff" points="211.9,-73.82 203.9,-81.31 207.17,-75.44 202.44,-77.06 202.44,-77.06 202.44,-77.06 207.17,-75.44 200.99,-72.8 211.9,-73.82 211.9,-73.82"/>
<text text-anchor="middle" x="176.5" y="-120.8" font-family="Times,serif" font-size="14.00"> Dead&#45;End </text>
</g>
<!-- P3B&#45;&gt;P4B -->
<g id="edge8" class="edge">
<title>P3B&#45;&gt;P4B</title>
<path fill="none" stroke="#ff00ff" d="M89.47,-149.84C82.16,-145.15 75.6,-139.29 71,-132 63.32,-119.84 62.52,-103.96 63.89,-90.4"/>
<polygon fill="#ff00ff" stroke="#ff00ff" points="65.36,-80.14 68.4,-90.68 64.65,-85.09 63.94,-90.04 63.94,-90.04 63.94,-90.04 64.65,-85.09 59.49,-89.4 65.36,-80.14 65.36,-80.14"/>
<text text-anchor="middle" x="96.5" y="-120.8" font-family="Times,serif" font-size="14.00"> Success </text>
</g>
<!-- P4A&#45;&gt;P1 -->
<g id="edge6" class="edge">
<title>P4A&#45;&gt;P1</title>
<path fill="none" stroke="#ff00ff" stroke-dasharray="5,2" d="M358.93,-89.36C367.45,-97.19 375.28,-106.5 380,-117 408.33,-179.99 378.88,-262.62 359.71,-304.75"/>
<polygon fill="#ff00ff" stroke="#ff00ff" points="355.45,-313.82 355.62,-302.86 357.57,-309.3 359.7,-304.77 359.7,-304.77 359.7,-304.77 357.57,-309.3 363.77,-306.68 355.45,-313.82 355.45,-313.82"/>
<text text-anchor="middle" x="440.5" y="-209.8" font-family="Times,serif" font-size="14.00"> Refactor Axioms </text>
</g>
</g>
</svg>
