<?xml version="1.0" encoding="UTF-8" standalone="no"?>
<!DOCTYPE svg PUBLIC "-//W3C//DTD SVG 1.1//EN"
 "http://www.w3.org/Graphics/SVG/1.1/DTD/svg11.dtd">
<!-- Generated by graphviz version 2.43.0 (0)
 -->
<!-- Title: TokenForensics Pages: 1 -->
<svg width="244pt" height="289pt"
 viewBox="0.00 0.00 244.00 289.00" xmlns="http://www.w3.org/2000/svg" xmlns:xlink="http://www.w3.org/1999/xlink">
<g id="graph0" class="graph" transform="scale(1 1) rotate(0) translate(4 285)">
<title>TokenForensics</title>
<polygon fill="#0d1117" stroke="transparent" points="-4,4 -4,-285 240,-285 240,4 -4,4"/>
<text text-anchor="middle" x="118" y="-7.8" font-family="Helvetica,sans-Serif" font-size="14.00" fill="#00f2ff">Aspect 3: Token Forensic Monitoring</text>
<!-- Input -->
<g id="node1" class="node">
<title>Input</title>
<polygon fill="#161b22" stroke="#00f2ff" points="151.75,-275 77.75,-275 77.75,-251 151.75,-251 163.75,-263 151.75,-275"/>
<text text-anchor="middle" x="120.75" y="-259.3" font-family="Times,serif" font-size="14.00" fill="#00f2ff">User Prompt</text>
</g>
<!-- Tokenize -->
<g id="node2" class="node">
<title>Tokenize</title>
<path fill="#161b22" stroke="#ffff00" d="M155.25,-209C155.25,-209 86.25,-209 86.25,-209 80.25,-209 74.25,-203 74.25,-197 74.25,-197 74.25,-183 74.25,-183 74.25,-177 80.25,-171 86.25,-171 86.25,-171 155.25,-171 155.25,-171 161.25,-171 167.25,-177 167.25,-183 167.25,-183 167.25,-197 167.25,-197 167.25,-203 161.25,-209 155.25,-209"/>
<text text-anchor="middle" x="120.75" y="-193.8" font-family="Times,serif" font-size="14.00" fill="#ffff00">/api/tokenize</text>
<text text-anchor="middle" x="120.75" y="-178.8" font-family="Times,serif" font-size="14.00" fill="#ffff00">(ID Mapping)</text>
</g>
<!-- Input&#45;&gt;Tokenize -->
<g id="edge1" class="edge">
<title>Input&#45;&gt;Tokenize</title>
<path fill="none" stroke="#ff00ff" d="M120.75,-244.81C120.75,-237.11 120.75,-227.82 120.75,-219.15"/>
<polygon fill="#ff00ff" stroke="#ff00ff" points="120.75,-209.02 125.25,-219.02 120.75,-214.02 120.75,-219.02 120.75,-219.02 120.75,-219.02 120.75,-214.02 116.25,-219.02 120.75,-209.02 120.75,-209.02"/>
</g>
<!-- Ollama -->
<g id="node3" class="node">
<title>Ollama</title>
<path fill="#161b22" stroke="#00f2ff" d="M159.25,-135C159.25,-135 82.25,-135 82.25,-135 76.25,-135 70.25,-129 70.25,-123 70.25,-123 70.25,-109 70.25,-109 70.25,-103 76.25,-97 82.25,-97 82.25,-97 159.25,-97 159.25,-97 165.25,-97 171.25,-103 171.25,-109 171.25,-109 171.25,-123 171.25,-123 171.25,-129 165.25,-135 159.25,-135"/>
<text text-anchor="middle" x="120.75" y="-119.8" font-family="Times,serif" font-size="14.00" fill="#00f2ff">Model Weights</text>
<text text-anchor="middle" x="120.75" y="-104.8" font-family="Times,serif" font-size="14.00" fill="#00f2ff">(Inference)</text>
</g>
<!-- Tokenize&#45;&gt;Ollama -->
<g id="edge2" class="edge">
<title>Tokenize&#45;&gt;Ollama</title>
<path fill="none" stroke="#ff00ff" d="M120.75,-170.83C120.75,-163.13 120.75,-153.97 120.75,-145.42"/>
<polygon fill="#ff00ff" stroke="#ff00ff" points="120.75,-135.41 125.25,-145.41 120.75,-140.41 120.75,-145.41 120.75,-145.41 120.75,-145.41 120.75,-140.41 116.25,-145.41 120.75,-135.41 120.75,-135.41"/>
</g>
<!-- Stream -->
<g id="node4" class="node">
<title>Stream</title>
<path fill="#161b22" stroke="#ffff00" d="M102.25,-61C102.25,-61 31.25,-61 31.25,-61 25.25,-61 19.25,-55 19.25,-49 19.25,-49 19.25,-35 19.25,-35 19.25,-29 25.25,-23 31.25,-23 31.25,-23 102.25,-23 102.25,-23 108.25,-23 114.25,-29 114.25,-35 114.25,-35 114.25,-49 114.25,-49 114.25,-55 108.25,-61 102.25,-61"/>
<text text-anchor="middle" x="66.75" y="-45.8" font-family="Times,serif" font-size="14.00" fill="#ffff00">/api/generate</text>
<text text-anchor="middle" x="66.75" y="-30.8" font-family="Times,serif" font-size="14.00" fill="#ffff00">(Text Chunks)</text>
</g>
<!-- Ollama&#45;&gt;Stream -->
<g id="edge3" class="edge">
<title>Ollama&#45;&gt;Stream</title>
<path fill="none" stroke="#ff00ff" d="M107.12,-96.83C100.9,-88.54 93.42,-78.56 86.59,-69.45"/>
<polygon fill="#ff00ff" stroke="#ff00ff" points="80.56,-61.41 90.16,-66.71 83.56,-65.41 86.56,-69.41 86.56,-69.41 86.56,-69.41 83.56,-65.41 82.96,-72.11 80.56,-61.41 80.56,-61.41"/>
</g>
<!-- Metrics -->
<g id="node5" class="node">
<title>Metrics</title>
<path fill="#161b22" stroke="#00ff00" d="M204.75,-61C204.75,-61 144.75,-61 144.75,-61 138.75,-61 132.75,-55 132.75,-49 132.75,-49 132.75,-35 132.75,-35 132.75,-29 138.75,-23 144.75,-23 144.75,-23 204.75,-23 204.75,-23 210.75,-23 216.75,-29 216.75,-35 216.75,-35 216.75,-49 216.75,-49 216.75,-55 210.75,-61 204.75,-61"/>
<text text-anchor="middle" x="174.75" y="-45.8" font-family="Times,serif" font-size="14.00" fill="#00ff00">&#45;&#45;verbose</text>
<text text-anchor="middle" x="174.75" y="-30.8" font-family="Times,serif" font-size="14.00" fill="#00ff00">(Eval Rates)</text>
</g>
<!-- Ollama&#45;&gt;Metrics -->
<g id="edge4" class="edge">
<title>Ollama&#45;&gt;Metrics</title>
<path fill="none" stroke="#ff00ff" d="M134.38,-96.83C140.6,-88.54 148.08,-78.56 154.91,-69.45"/>
<polygon fill="#ff00ff" stroke="#ff00ff" points="160.94,-61.41 158.54,-72.11 157.94,-65.41 154.94,-69.41 154.94,-69.41 154.94,-69.41 157.94,-65.41 151.34,-66.71 160.94,-61.41 160.94,-61.41"/>
</g>
</g>
</svg>
