<?xml version="1.0" encoding="UTF-8" standalone="no"?>
<!DOCTYPE svg PUBLIC "-//W3C//DTD SVG 1.1//EN"
 "http://www.w3.org/Graphics/SVG/1.1/DTD/svg11.dtd">
<!-- Generated by graphviz version 2.43.0 (0)
 -->
<!-- Title: ToolForensics Pages: 1 -->
<svg width="393pt" height="233pt"
 viewBox="0.00 0.00 393.00 233.00" xmlns="http://www.w3.org/2000/svg" xmlns:xlink="http://www.w3.org/1999/xlink">
<g id="graph0" class="graph" transform="scale(1 1) rotate(0) translate(4 229)">
<title>ToolForensics</title>
<polygon fill="#0d1117" stroke="transparent" points="-4,4 -4,-229 389,-229 389,4 -4,4"/>
<text text-anchor="middle" x="192.5" y="-7.8" font-family="Helvetica,sans-Serif" font-size="14.00" fill="#00f2ff">Tool Visualization: Forensic Token Auditing</text>
<!-- Input -->
<g id="node1" class="node">
<title>Input</title>
<polygon fill="#161b22" stroke="#00f2ff" points="172,-219 66,-219 66,-193 172,-193 184,-206 172,-219"/>
<text text-anchor="middle" x="125" y="-209.8" font-family="Times,serif" font-size="14.00" fill="#00f2ff">User Execution</text>
<text text-anchor="middle" x="125" y="-194.8" font-family="Times,serif" font-size="14.00" fill="#00f2ff">(Model + Prompt)</text>
</g>
<!-- Wrapper -->
<g id="node2" class="node">
<title>Wrapper</title>
<path fill="#161b22" stroke="#00ff00" stroke-width="2" d="M163.5,-150C163.5,-150 86.5,-150 86.5,-150 80.5,-150 74.5,-144 74.5,-138 74.5,-138 74.5,-124 74.5,-124 74.5,-118 80.5,-112 86.5,-112 86.5,-112 163.5,-112 163.5,-112 169.5,-112 175.5,-118 175.5,-124 175.5,-124 175.5,-138 175.5,-138 175.5,-144 169.5,-150 163.5,-150"/>
<text text-anchor="middle" x="125" y="-134.8" font-family="Times,serif" font-size="14.00" fill="#00ff00">forensic_run.sh</text>
<text text-anchor="middle" x="125" y="-119.8" font-family="Times,serif" font-size="14.00" fill="#00ff00">(Wrapper)</text>
</g>
<!-- Input&#45;&gt;Wrapper -->
<g id="edge1" class="edge">
<title>Input&#45;&gt;Wrapper</title>
<path fill="none" stroke="#ff00ff" d="M125,-186.96C125,-178.88 125,-169.18 125,-160.18"/>
<polygon fill="#ff00ff" stroke="#ff00ff" points="125,-150.09 129.5,-160.09 125,-155.09 125,-160.09 125,-160.09 125,-160.09 125,-155.09 120.5,-160.09 125,-150.09 125,-150.09"/>
</g>
<!-- Ollama -->
<g id="node3" class="node">
<title>Ollama</title>
<path fill="#161b22" stroke="#00f2ff" d="M70,-61C70,-61 12,-61 12,-61 6,-61 0,-55 0,-49 0,-49 0,-35 0,-35 0,-29 6,-23 12,-23 12,-23 70,-23 70,-23 76,-23 82,-29 82,-35 82,-35 82,-49 82,-49 82,-55 76,-61 70,-61"/>
<text text-anchor="middle" x="41" y="-45.8" font-family="Times,serif" font-size="14.00" fill="#00f2ff">Ollama API</text>
<text text-anchor="middle" x="41" y="-30.8" font-family="Times,serif" font-size="14.00" fill="#00f2ff">(&#45;&#45;verbose)</text>
</g>
<!-- Wrapper&#45;&gt;Ollama -->
<g id="edge2" class="edge">
<title>Wrapper&#45;&gt;Ollama</title>
<path fill="none" stroke="#ff00ff" d="M74.2,-115.03C64.14,-109.87 54.65,-103.03 48,-94 43.21,-87.5 40.93,-79.23 39.98,-71.25"/>
<polygon fill="#ff00ff" stroke="#ff00ff" points="39.41,-61.1 44.47,-70.83 39.69,-66.1 39.97,-71.09 39.97,-71.09 39.97,-71.09 39.69,-66.1 35.48,-71.34 39.41,-61.1 39.41,-61.1"/>
</g>
<!-- Log -->
<g id="node4" class="node">
<title>Log</title>
<polygon fill="#161b22" stroke="#ffff00" points="254.5,-61 107.5,-61 107.5,-23 260.5,-23 260.5,-55 254.5,-61"/>
<polyline fill="none" stroke="#ffff00" points="254.5,-61 254.5,-55 "/>
<polyline fill="none" stroke="#ffff00" points="260.5,-55 254.5,-55 "/>
<text text-anchor="middle" x="184" y="-45.8" font-family="Times,serif" font-size="14.00" fill="#ffff00">Timestamped JSON Log</text>
<text text-anchor="middle" x="184" y="-30.8" font-family="Times,serif" font-size="14.00" fill="#ffff00">(Metrics)</text>
</g>
<!-- Wrapper&#45;&gt;Log -->
<g id="edge4" class="edge">
<title>Wrapper&#45;&gt;Log</title>
<path fill="none" stroke="#ff00ff" d="M146.49,-111.86C152.02,-106.49 157.63,-100.35 162,-94 166.85,-86.96 170.97,-78.69 174.3,-70.88"/>
<polygon fill="#ff00ff" stroke="#ff00ff" points="178.07,-61.36 178.57,-72.31 176.23,-66 174.39,-70.65 174.39,-70.65 174.39,-70.65 176.23,-66 170.2,-68.99 178.07,-61.36 178.07,-61.36"/>
<text text-anchor="middle" x="217.5" y="-82.8" font-family="Times,serif" font-size="14.00"> Extract Metrics </text>
</g>
<!-- Screen -->
<g id="node5" class="node">
<title>Screen</title>
<polygon fill="#161b22" stroke="#00f2ff" points="379,-61 279,-61 279,-23 385,-23 385,-55 379,-61"/>
<polyline fill="none" stroke="#00f2ff" points="379,-61 379,-55 "/>
<polyline fill="none" stroke="#00f2ff" points="385,-55 379,-55 "/>
<text text-anchor="middle" x="332" y="-45.8" font-family="Times,serif" font-size="14.00" fill="#00f2ff">Standard Output</text>
<text text-anchor="middle" x="332" y="-30.8" font-family="Times,serif" font-size="14.00" fill="#00f2ff">(User Display)</text>
</g>
<!-- Wrapper&#45;&gt;Screen -->
<g id="edge5" class="edge">
<title>Wrapper&#45;&gt;Screen</title>
<path fill="none" stroke="#ff00ff" d="M175.81,-122.65C204,-117.26 239.09,-108.31 268,-94 281.63,-87.25 295.05,-77.23 306.05,-67.86"/>
<polygon fill="#ff00ff" stroke="#ff00ff" points="313.6,-61.2 309.08,-71.19 309.85,-64.51 306.1,-67.81 306.1,-67.81 306.1,-67.81 309.85,-64.51 303.12,-64.44 313.6,-61.2 313.6,-61.2"/>
<text text-anchor="middle" x="330.5" y="-82.8" font-family="Times,serif" font-size="14.00"> Relay Output </text>
</g>
<!-- Ollama&#45;&gt;Wrapper -->
<g id="edge3" class="edge">
<title>Ollama&#45;&gt;Wrapper</title>
<path fill="none" stroke="#ff00ff" d="M46.11,-61.07C49.77,-71.59 55.57,-84.6 64,-94 68,-98.46 72.68,-102.52 77.64,-106.18"/>
<polygon fill="#ff00ff" stroke="#ff00ff" points="86.19,-111.96 75.38,-110.09 82.04,-109.16 77.9,-106.36 77.9,-106.36 77.9,-106.36 82.04,-109.16 80.42,-102.63 86.19,-111.96 86.19,-111.96"/>
<text text-anchor="middle" x="111" y="-82.8" font-family="Times,serif" font-size="14.00"> Stream &amp; Meta </text>
</g>
</g>
</svg>
