<?xml version="1.0" encoding="UTF-8" standalone="no"?>
<!DOCTYPE svg PUBLIC "-//W3C//DTD SVG 1.1//EN"
 "http://www.w3.org/Graphics/SVG/1.1/DTD/svg11.dtd">
<!-- Generated by graphviz version 2.43.0 (0)
 -->
<!-- Title: ToolVizRefresh Pages: 1 -->
<svg width="347pt" height="393pt"
 viewBox="0.00 0.00 347.00 392.74" xmlns="http://www.w3.org/2000/svg" xmlns:xlink="http://www.w3.org/1999/xlink">
<g id="graph0" class="graph" transform="scale(1 1) rotate(0) translate(4 388.74)">
<title>ToolVizRefresh</title>
<polygon fill="#0d1117" stroke="transparent" points="-4,4 -4,-388.74 343,-388.74 343,4 -4,4"/>
<text text-anchor="middle" x="169.5" y="-7.8" font-family="Helvetica,sans-Serif" font-size="14.00" fill="#00f2ff">Tool Visualization: Automated Architectural Rendering</text>
<!-- Trigger -->
<g id="node1" class="node">
<title>Trigger</title>
<polygon fill="#161b22" stroke="#00ff00" points="239.5,-378.74 86.5,-378.74 86.5,-354.74 239.5,-354.74 251.5,-366.74 239.5,-378.74"/>
<text text-anchor="middle" x="169" y="-363.04" font-family="Times,serif" font-size="14.00" fill="#00ff00">Axiom Shift / Arch Update</text>
</g>
<!-- DOTFiles -->
<g id="node2" class="node">
<title>DOTFiles</title>
<polygon fill="#161b22" stroke="#00f2ff" points="227.5,-311.74 104.5,-311.74 104.5,-275.74 233.5,-275.74 233.5,-305.74 227.5,-311.74"/>
<polyline fill="none" stroke="#00f2ff" points="227.5,-311.74 227.5,-305.74 "/>
<polyline fill="none" stroke="#00f2ff" points="233.5,-305.74 227.5,-305.74 "/>
<text text-anchor="middle" x="169" y="-290.04" font-family="Times,serif" font-size="14.00" fill="#00f2ff">Modified *.dot Files</text>
</g>
<!-- Trigger&#45;&gt;DOTFiles -->
<g id="edge1" class="edge">
<title>Trigger&#45;&gt;DOTFiles</title>
<path fill="none" stroke="#ff00ff" d="M169,-348.55C169,-340.53 169,-330.79 169,-321.81"/>
<polygon fill="#ff00ff" stroke="#ff00ff" points="169,-311.77 173.5,-321.77 169,-316.77 169,-321.77 169,-321.77 169,-321.77 169,-316.77 164.5,-321.77 169,-311.77 169,-311.77"/>
</g>
<!-- Script -->
<g id="node3" class="node">
<title>Script</title>
<path fill="#161b22" stroke="#ffff00" stroke-width="2" d="M203.5,-238.74C203.5,-238.74 134.5,-238.74 134.5,-238.74 128.5,-238.74 122.5,-232.74 122.5,-226.74 122.5,-226.74 122.5,-212.74 122.5,-212.74 122.5,-206.74 128.5,-200.74 134.5,-200.74 134.5,-200.74 203.5,-200.74 203.5,-200.74 209.5,-200.74 215.5,-206.74 215.5,-212.74 215.5,-212.74 215.5,-226.74 215.5,-226.74 215.5,-232.74 209.5,-238.74 203.5,-238.74"/>
<text text-anchor="middle" x="169" y="-223.54" font-family="Times,serif" font-size="14.00" fill="#ffff00">viz_refresh.sh</text>
<text text-anchor="middle" x="169" y="-208.54" font-family="Times,serif" font-size="14.00" fill="#ffff00">(Automation)</text>
</g>
<!-- DOTFiles&#45;&gt;Script -->
<g id="edge2" class="edge">
<title>DOTFiles&#45;&gt;Script</title>
<path fill="none" stroke="#ff00ff" d="M169,-275.68C169,-267.73 169,-258.05 169,-249.05"/>
<polygon fill="#ff00ff" stroke="#ff00ff" points="169,-238.94 173.5,-248.94 169,-243.94 169,-248.94 169,-248.94 169,-248.94 169,-243.94 164.5,-248.94 169,-238.94 169,-238.94"/>
</g>
<!-- Graphviz -->
<g id="node4" class="node">
<title>Graphviz</title>
<ellipse fill="#161b22" stroke="#00f2ff" cx="169" cy="-122.87" rx="77.15" ry="26.74"/>
<text text-anchor="middle" x="169" y="-126.67" font-family="Times,serif" font-size="14.00" fill="#00f2ff">Graphviz Engine</text>
<text text-anchor="middle" x="169" y="-111.67" font-family="Times,serif" font-size="14.00" fill="#00f2ff">(dot)</text>
</g>
<!-- Script&#45;&gt;Graphviz -->
<g id="edge3" class="edge">
<title>Script&#45;&gt;Graphviz</title>
<path fill="none" stroke="#ff00ff" d="M169,-200.45C169,-189.03 169,-173.95 169,-160.18"/>
<polygon fill="#ff00ff" stroke="#ff00ff" points="169,-150 173.5,-160 169,-155 169,-160 169,-160 169,-160 169,-155 164.5,-160 169,-150 169,-150"/>
<text text-anchor="middle" x="220" y="-171.54" font-family="Times,serif" font-size="14.00"> Batch Processing </text>
</g>
<!-- PNG -->
<g id="node5" class="node">
<title>PNG</title>
<polygon fill="#161b22" stroke="#ff00ff" points="154,-59 68,-59 68,-23 160,-23 160,-53 154,-59"/>
<polyline fill="none" stroke="#ff00ff" points="154,-59 154,-53 "/>
<polyline fill="none" stroke="#ff00ff" points="160,-53 154,-53 "/>
<text text-anchor="middle" x="114" y="-37.3" font-family="Times,serif" font-size="14.00" fill="#00f2ff">PNG Renders</text>
</g>
<!-- Graphviz&#45;&gt;PNG -->
<g id="edge4" class="edge">
<title>Graphviz&#45;&gt;PNG</title>
<path fill="none" stroke="#ff00ff" d="M151.6,-96.6C145.21,-87.32 137.97,-76.81 131.56,-67.51"/>
<polygon fill="#ff00ff" stroke="#ff00ff" points="125.73,-59.04 135.11,-64.72 128.57,-63.15 131.4,-67.27 131.4,-67.27 131.4,-67.27 128.57,-63.15 127.7,-69.82 125.73,-59.04 125.73,-59.04"/>
</g>
<!-- SVG -->
<g id="node6" class="node">
<title>SVG</title>
<polygon fill="#161b22" stroke="#ff00ff" points="264,-59 178,-59 178,-23 270,-23 270,-53 264,-59"/>
<polyline fill="none" stroke="#ff00ff" points="264,-59 264,-53 "/>
<polyline fill="none" stroke="#ff00ff" points="270,-53 264,-53 "/>
<text text-anchor="middle" x="224" y="-37.3" font-family="Times,serif" font-size="14.00" fill="#00f2ff">SVG Renders</text>
</g>
<!-- Graphviz&#45;&gt;SVG -->
<g id="edge5" class="edge">
<title>Graphviz&#45;&gt;SVG</title>
<path fill="none" stroke="#ff00ff" d="M186.4,-96.6C192.79,-87.32 200.03,-76.81 206.44,-67.51"/>
<polygon fill="#ff00ff" stroke="#ff00ff" points="212.27,-59.04 210.3,-69.82 209.43,-63.15 206.6,-67.27 206.6,-67.27 206.6,-67.27 209.43,-63.15 202.89,-64.72 212.27,-59.04 212.27,-59.04"/>
</g>
</g>
</svg>
