<?xml version="1.0" encoding="UTF-8" standalone="no"?>
<!DOCTYPE svg PUBLIC "-//W3C//DTD SVG 1.1//EN"
 "http://www.w3.org/Graphics/SVG/1.1/DTD/svg11.dtd">
<!-- Generated by graphviz version 2.43.0 (0)
 -->
<!-- Title: ToolSemanticCheck Pages: 1 -->
<svg width="382pt" height="299pt"
 viewBox="0.00 0.00 381.64 299.17" xmlns="http://www.w3.org/2000/svg" xmlns:xlink="http://www.w3.org/1999/xlink">
<g id="graph0" class="graph" transform="scale(1 1) rotate(0) translate(4 295.17)">
<title>ToolSemanticCheck</title>
<polygon fill="#0d1117" stroke="transparent" points="-4,4 -4,-295.17 377.64,-295.17 377.64,4 -4,4"/>
<text text-anchor="middle" x="186.82" y="-7.8" font-family="Helvetica,sans-Serif" font-size="14.00" fill="#00f2ff">Tool Visualization: Semantic Drift Auditor</text>
<!-- Obj -->
<g id="node1" class="node">
<title>Obj</title>
<polygon fill="#161b22" stroke="#00ff00" points="159,-291.17 37,-291.17 37,-253.17 165,-253.17 165,-285.17 159,-291.17"/>
<polyline fill="none" stroke="#00ff00" points="159,-291.17 159,-285.17 "/>
<polyline fill="none" stroke="#00ff00" points="165,-285.17 159,-285.17 "/>
<text text-anchor="middle" x="101" y="-275.97" font-family="Times,serif" font-size="14.00" fill="#00ff00">Objective Definition</text>
<text text-anchor="middle" x="101" y="-260.97" font-family="Times,serif" font-size="14.00" fill="#00ff00">(The &#39;Why&#39;)</text>
</g>
<!-- Script -->
<g id="node3" class="node">
<title>Script</title>
<path fill="#161b22" stroke="#ffff00" stroke-width="2" d="M156.49,-212.78C156.49,-212.78 50.51,-181.56 50.51,-181.56 44.76,-179.86 44.76,-176.47 50.51,-174.78 50.51,-174.78 156.49,-143.56 156.49,-143.56 162.24,-141.86 173.76,-141.86 179.51,-143.56 179.51,-143.56 285.49,-174.78 285.49,-174.78 291.24,-176.47 291.24,-179.86 285.49,-181.56 285.49,-181.56 179.51,-212.78 179.51,-212.78 173.76,-214.47 162.24,-214.47 156.49,-212.78"/>
<text text-anchor="middle" x="168" y="-181.97" font-family="Times,serif" font-size="14.00" fill="#ffff00">semantic_check.py</text>
<text text-anchor="middle" x="168" y="-166.97" font-family="Times,serif" font-size="14.00" fill="#ffff00">(Alignment Auditor)</text>
</g>
<!-- Obj&#45;&gt;Script -->
<g id="edge1" class="edge">
<title>Obj&#45;&gt;Script</title>
<path fill="none" stroke="#ff00ff" d="M114.24,-252.99C121.49,-243.04 130.77,-230.29 139.57,-218.21"/>
<polygon fill="#ff00ff" stroke="#ff00ff" points="145.55,-209.99 143.31,-220.72 142.61,-214.03 139.67,-218.07 139.67,-218.07 139.67,-218.07 142.61,-214.03 136.03,-215.42 145.55,-209.99 145.55,-209.99"/>
</g>
<!-- Imp -->
<g id="node2" class="node">
<title>Imp</title>
<polygon fill="#161b22" stroke="#00f2ff" points="281,-291.17 183,-291.17 183,-253.17 287,-253.17 287,-285.17 281,-291.17"/>
<polyline fill="none" stroke="#00f2ff" points="281,-291.17 281,-285.17 "/>
<polyline fill="none" stroke="#00f2ff" points="287,-285.17 281,-285.17 "/>
<text text-anchor="middle" x="235" y="-275.97" font-family="Times,serif" font-size="14.00" fill="#00f2ff">Implementation</text>
<text text-anchor="middle" x="235" y="-260.97" font-family="Times,serif" font-size="14.00" fill="#00f2ff">(The &#39;How&#39;)</text>
</g>
<!-- Imp&#45;&gt;Script -->
<g id="edge2" class="edge">
<title>Imp&#45;&gt;Script</title>
<path fill="none" stroke="#ff00ff" d="M221.76,-252.99C214.51,-243.04 205.23,-230.29 196.43,-218.21"/>
<polygon fill="#ff00ff" stroke="#ff00ff" points="190.45,-209.99 199.97,-215.42 193.39,-214.03 196.33,-218.07 196.33,-218.07 196.33,-218.07 193.39,-214.03 192.69,-220.72 190.45,-209.99 190.45,-209.99"/>
</g>
<!-- Ollama -->
<g id="node4" class="node">
<title>Ollama</title>
<path fill="#161b22" stroke="#00f2ff" d="M68,-75.08C68,-75.08 12,-75.08 12,-75.08 6,-75.08 0,-69.08 0,-63.08 0,-63.08 0,-49.08 0,-49.08 0,-43.08 6,-37.08 12,-37.08 12,-37.08 68,-37.08 68,-37.08 74,-37.08 80,-43.08 80,-49.08 80,-49.08 80,-63.08 80,-63.08 80,-69.08 74,-75.08 68,-75.08"/>
<text text-anchor="middle" x="40" y="-59.88" font-family="Times,serif" font-size="14.00" fill="#00f2ff">Local LLM</text>
<text text-anchor="middle" x="40" y="-44.88" font-family="Times,serif" font-size="14.00" fill="#00f2ff">(Analyzer)</text>
</g>
<!-- Script&#45;&gt;Ollama -->
<g id="edge3" class="edge">
<title>Script&#45;&gt;Ollama</title>
<path fill="none" stroke="#ff00ff" d="M92.78,-162.3C71.13,-154.16 49.9,-141.58 37,-122.17 29.86,-111.42 29.68,-97.33 31.67,-85.01"/>
<polygon fill="#ff00ff" stroke="#ff00ff" points="33.75,-75.19 36.08,-85.9 32.71,-80.08 31.68,-84.97 31.68,-84.97 31.68,-84.97 32.71,-80.08 27.28,-84.04 33.75,-75.19 33.75,-75.19"/>
<text text-anchor="middle" x="91.5" y="-110.97" font-family="Times,serif" font-size="14.00"> Structured Prompt </text>
</g>
<!-- Report -->
<g id="node5" class="node">
<title>Report</title>
<path fill="#161b22" stroke="#ff00ff" d="M369.78,-52.06C369.78,-52.06 369.78,-60.11 369.78,-60.11 369.78,-64.14 365.85,-69.03 361.92,-69.9 361.92,-69.9 300.45,-83.5 300.45,-83.5 296.52,-84.37 288.56,-85.24 284.53,-85.24 284.53,-85.24 191.47,-85.24 191.47,-85.24 187.44,-85.24 179.48,-84.37 175.55,-83.5 175.55,-83.5 114.08,-69.9 114.08,-69.9 110.15,-69.03 106.22,-64.14 106.22,-60.11 106.22,-60.11 106.22,-52.06 106.22,-52.06 106.22,-48.03 110.15,-43.14 114.08,-42.27 114.08,-42.27 175.55,-28.67 175.55,-28.67 179.48,-27.8 187.44,-26.93 191.47,-26.93 191.47,-26.93 284.53,-26.93 284.53,-26.93 288.56,-26.93 296.52,-27.8 300.45,-28.67 300.45,-28.67 361.92,-42.27 361.92,-42.27 365.85,-43.14 369.78,-48.03 369.78,-52.06"/>
<path fill="none" stroke="#ff00ff" d="M373.79,-50.98C373.79,-50.98 373.79,-61.18 373.79,-61.18 373.79,-66.28 368.81,-72.48 363.83,-73.59 363.83,-73.59 302.98,-87.05 302.98,-87.05 298,-88.15 287.92,-89.25 282.82,-89.25 282.82,-89.25 193.18,-89.25 193.18,-89.25 188.08,-89.25 178,-88.15 173.02,-87.05 173.02,-87.05 112.17,-73.59 112.17,-73.59 107.19,-72.48 102.21,-66.28 102.21,-61.18 102.21,-61.18 102.21,-50.98 102.21,-50.98 102.21,-45.88 107.19,-39.68 112.17,-38.58 112.17,-38.58 173.02,-25.12 173.02,-25.12 178,-24.02 188.08,-22.92 193.18,-22.92 193.18,-22.92 282.82,-22.92 282.82,-22.92 287.92,-22.92 298,-24.02 302.98,-25.12 302.98,-25.12 363.83,-38.58 363.83,-38.58 368.81,-39.68 373.79,-45.88 373.79,-50.98"/>
<text text-anchor="middle" x="238" y="-59.88" font-family="Times,serif" font-size="14.00" fill="#00f2ff">Semantic Drift Report</text>
<text text-anchor="middle" x="238" y="-44.88" font-family="Times,serif" font-size="14.00" fill="#00f2ff">(Alignment % &amp; Synergies)</text>
</g>
<!-- Script&#45;&gt;Report -->
<g id="edge5" class="edge">
<title>Script&#45;&gt;Report</title>
<path fill="none" stroke="#ff00ff" d="M202.1,-149.91C210.36,-141.79 218.41,-132.32 224,-122.17 227.88,-115.12 230.68,-107.09 232.71,-99.14"/>
<polygon fill="#ff00ff" stroke="#ff00ff" points="234.89,-89.19 237.15,-99.92 233.82,-94.07 232.75,-98.95 232.75,-98.95 232.75,-98.95 233.82,-94.07 228.36,-97.99 234.89,-89.19 234.89,-89.19"/>
</g>
<!-- Ollama&#45;&gt;Script -->
<g id="edge4" class="edge">
<title>Ollama&#45;&gt;Script</title>
<path fill="none" stroke="#ff00ff" d="M67.43,-75.24C75.48,-80.13 84.42,-85.17 93,-89.17 115.55,-99.67 128.61,-89.38 146,-107.17 152.6,-113.93 157.23,-122.64 160.47,-131.62"/>
<polygon fill="#ff00ff" stroke="#ff00ff" points="163.46,-141.38 156.22,-133.14 161.99,-136.6 160.53,-131.82 160.53,-131.82 160.53,-131.82 161.99,-136.6 164.83,-130.5 163.46,-141.38 163.46,-141.38"/>
<text text-anchor="middle" x="184.5" y="-110.97" font-family="Times,serif" font-size="14.00"> Analysis </text>
</g>
</g>
</svg>
