<?xml version="1.0" encoding="UTF-8" standalone="no"?>
<!DOCTYPE svg PUBLIC "-//W3C//DTD SVG 1.1//EN"
 "http://www.w3.org/Graphics/SVG/1.1/DTD/svg11.dtd">
<!-- Generated by graphviz version 2.43.0 (0)
 -->
<!-- Title: TransfiniteScaling Pages: 1 -->
<svg width="284pt" height="336pt"
 viewBox="0.00 0.00 284.00 336.00" xmlns="http://www.w3.org/2000/svg" xmlns:xlink="http://www.w3.org/1999/xlink">
<g id="graph0" class="graph" transform="scale(1 1) rotate(0) translate(4 332)">
<title>TransfiniteScaling</title>
<polygon fill="#0d1117" stroke="transparent" points="-4,4 -4,-332 280,-332 280,4 -4,4"/>
<text text-anchor="middle" x="138" y="-7.8" font-family="Helvetica,sans-Serif" font-size="14.00" fill="#00f2ff">Aspect 5: Transfinite Scaling Model (ω + 1)</text>
<!-- L0 -->
<g id="node1" class="node">
<title>L0</title>
<path fill="#161b22" stroke="#00ff00" d="M160,-328C160,-328 50,-328 50,-328 44,-328 38,-322 38,-316 38,-316 38,-302 38,-302 38,-296 44,-290 50,-290 50,-290 160,-290 160,-290 166,-290 172,-296 172,-302 172,-302 172,-316 172,-316 172,-322 166,-328 160,-328"/>
<text text-anchor="middle" x="105" y="-312.8" font-family="Times,serif" font-size="14.00" fill="#00ff00">Level 0: Human</text>
<text text-anchor="middle" x="105" y="-297.8" font-family="Times,serif" font-size="14.00" fill="#00ff00">(Unassisted Intuition)</text>
</g>
<!-- L1 -->
<g id="node2" class="node">
<title>L1</title>
<path fill="#161b22" stroke="#00f2ff" d="M154.5,-239C154.5,-239 55.5,-239 55.5,-239 49.5,-239 43.5,-233 43.5,-227 43.5,-227 43.5,-213 43.5,-213 43.5,-207 49.5,-201 55.5,-201 55.5,-201 154.5,-201 154.5,-201 160.5,-201 166.5,-207 166.5,-213 166.5,-213 166.5,-227 166.5,-227 166.5,-233 160.5,-239 154.5,-239"/>
<text text-anchor="middle" x="105" y="-223.8" font-family="Times,serif" font-size="14.00" fill="#00f2ff">Level 1: Tooling</text>
<text text-anchor="middle" x="105" y="-208.8" font-family="Times,serif" font-size="14.00" fill="#00f2ff">(IDE, Linters, CLI)</text>
</g>
<!-- L0&#45;&gt;L1 -->
<g id="edge1" class="edge">
<title>L0&#45;&gt;L1</title>
<path fill="none" stroke="#ff00ff" d="M105,-289.97C105,-278.19 105,-262.56 105,-249.16"/>
<polygon fill="#ff00ff" stroke="#ff00ff" points="105,-239 109.5,-249 105,-244 105,-249 105,-249 105,-249 105,-244 100.5,-249 105,-239 105,-239"/>
<text text-anchor="middle" x="136" y="-260.8" font-family="Times,serif" font-size="14.00"> + Tooling </text>
</g>
<!-- L2 -->
<g id="node3" class="node">
<title>L2</title>
<path fill="#161b22" stroke="#00f2ff" stroke-width="2" d="M149.5,-150C149.5,-150 60.5,-150 60.5,-150 54.5,-150 48.5,-144 48.5,-138 48.5,-138 48.5,-124 48.5,-124 48.5,-118 54.5,-112 60.5,-112 60.5,-112 149.5,-112 149.5,-112 155.5,-112 161.5,-118 161.5,-124 161.5,-124 161.5,-138 161.5,-138 161.5,-144 155.5,-150 149.5,-150"/>
<text text-anchor="middle" x="105" y="-134.8" font-family="Times,serif" font-size="14.00" fill="#00f2ff">Level 2: Agents</text>
<text text-anchor="middle" x="105" y="-119.8" font-family="Times,serif" font-size="14.00" fill="#00f2ff">(Gemini, Claude)</text>
</g>
<!-- L1&#45;&gt;L2 -->
<g id="edge2" class="edge">
<title>L1&#45;&gt;L2</title>
<path fill="none" stroke="#ff00ff" d="M105,-200.97C105,-189.19 105,-173.56 105,-160.16"/>
<polygon fill="#ff00ff" stroke="#ff00ff" points="105,-150 109.5,-160 105,-155 105,-160 105,-160 105,-160 105,-155 100.5,-160 105,-150 105,-150"/>
<text text-anchor="middle" x="144" y="-171.8" font-family="Times,serif" font-size="14.00"> + Autonomy </text>
</g>
<!-- L3 -->
<g id="node4" class="node">
<title>L3</title>
<path fill="#161b22" stroke="#ffff00" stroke-width="4" d="M160,-61C160,-61 50,-61 50,-61 44,-61 38,-55 38,-49 38,-49 38,-35 38,-35 38,-29 44,-23 50,-23 50,-23 160,-23 160,-23 166,-23 172,-29 172,-35 172,-35 172,-49 172,-49 172,-55 166,-61 160,-61"/>
<text text-anchor="middle" x="105" y="-45.8" font-family="Times,serif" font-size="14.00" fill="#ffff00">Level 3: Hybrid Hive</text>
<text text-anchor="middle" x="105" y="-30.8" font-family="Times,serif" font-size="14.00" fill="#ffff00">(Transfinite Synergy)</text>
</g>
<!-- L2&#45;&gt;L3 -->
<g id="edge3" class="edge">
<title>L2&#45;&gt;L3</title>
<path fill="none" stroke="#ff00ff" d="M105,-111.97C105,-100.19 105,-84.56 105,-71.16"/>
<polygon fill="#ff00ff" stroke="#ff00ff" points="105,-61 109.5,-71 105,-66 105,-71 105,-71 105,-71 105,-66 100.5,-71 105,-61 105,-61"/>
<text text-anchor="middle" x="171.5" y="-82.8" font-family="Times,serif" font-size="14.00"> + Semantic Alignment </text>
</g>
</g>
</svg>
