<?xml version="1.0" encoding="UTF-8" standalone="no"?>
<!DOCTYPE svg PUBLIC "-//W3C//DTD SVG 1.1//EN"
 "http://www.w3.org/Graphics/SVG/1.1/DTD/svg11.dtd">
<!-- Generated by graphviz version 2.43.0 (0)
 -->
<!-- Title: GDDR6X_Neon_Signaling Pages: 1 -->
<svg width="664pt" height="170pt"
 viewBox="0.00 0.00 664.00 170.00" xmlns="http://www.w3.org/2000/svg" xmlns:xlink="http://www.w3.org/1999/xlink">
<g id="graph0" class="graph" transform="scale(1 1) rotate(0) translate(4 166)">
<title>GDDR6X_Neon_Signaling</title>
<polygon fill="#0a0a0a" stroke="transparent" points="-4,4 -4,-166 660,-166 660,4 -4,4"/>
<!-- NRZ -->
<g id="node1" class="node">
<title>NRZ</title>
<polygon fill="#111111" stroke="#888888" points="12.5,-0.5 12.5,-36.5 301.5,-36.5 301.5,-0.5 12.5,-0.5"/>
<text text-anchor="middle" x="41.5" y="-14.8" font-family="Courier New" font-size="14.00" fill="#888888">GDDR6</text>
<polyline fill="none" stroke="#888888" points="70.5,-0.5 70.5,-36.5 "/>
<text text-anchor="middle" x="132.5" y="-14.8" font-family="Courier New" font-size="14.00" fill="#888888">NRZ (2&#45;Level)</text>
<polyline fill="none" stroke="#888888" points="194.5,-0.5 194.5,-36.5 "/>
<text text-anchor="middle" x="248" y="-14.8" font-family="Courier New" font-size="14.00" fill="#888888">1 Bit/Clock</text>
</g>
<!-- PAM4 -->
<g id="node2" class="node">
<title>PAM4</title>
<polygon fill="#002200" stroke="#00ff00" points="0,-55.5 0,-91.5 314,-91.5 314,-55.5 0,-55.5"/>
<text text-anchor="middle" x="33" y="-69.8" font-family="Courier New" font-size="14.00" fill="#00ff00">GDDR6X</text>
<polyline fill="none" stroke="#00ff00" points="66,-55.5 66,-91.5 "/>
<text text-anchor="middle" x="132" y="-69.8" font-family="Courier New" font-size="14.00" fill="#00ff00">PAM4 (4&#45;Level)</text>
<polyline fill="none" stroke="#00ff00" points="198,-55.5 198,-91.5 "/>
<text text-anchor="middle" x="256" y="-69.8" font-family="Courier New" font-size="14.00" fill="#00ff00">2 Bits/Clock</text>
</g>
<!-- Levels -->
<g id="node3" class="node">
<title>Levels</title>
<polygon fill="#220022" stroke="#ff00ff" points="458,-69.5 458,-161.5 648,-161.5 648,-69.5 458,-69.5"/>
<text text-anchor="middle" x="536.5" y="-111.8" font-family="Courier New" font-size="14.00" fill="#ff00ff">MODULATION LEVELS</text>
<polyline fill="none" stroke="#ff00ff" points="615,-69.5 615,-161.5 "/>
<text text-anchor="middle" x="631.5" y="-146.3" font-family="Courier New" font-size="14.00" fill="#ff00ff">+3</text>
<polyline fill="none" stroke="#ff00ff" points="615,-138.5 648,-138.5 "/>
<text text-anchor="middle" x="631.5" y="-123.3" font-family="Courier New" font-size="14.00" fill="#ff00ff">+1</text>
<polyline fill="none" stroke="#ff00ff" points="615,-115.5 648,-115.5 "/>
<text text-anchor="middle" x="631.5" y="-100.3" font-family="Courier New" font-size="14.00" fill="#ff00ff">&#45;1</text>
<polyline fill="none" stroke="#ff00ff" points="615,-92.5 648,-92.5 "/>
<text text-anchor="middle" x="631.5" y="-77.3" font-family="Courier New" font-size="14.00" fill="#ff00ff">&#45;3</text>
</g>
<!-- PAM4&#45;&gt;Levels -->
<g id="edge1" class="edge">
<title>PAM4&#45;&gt;Levels</title>
<path fill="none" stroke="#00ffff" d="M314,-90.13C358.98,-94.92 406.95,-100.04 447.95,-104.41"/>
<polygon fill="#00ffff" stroke="#00ffff" points="447.63,-107.89 457.94,-105.47 448.37,-100.93 447.63,-107.89"/>
<text text-anchor="middle" x="382" y="-105.3" font-family="Courier New" font-size="14.00" fill="#00ffff">PAM4_MAPPING</text>
</g>
<!-- Power -->
<g id="node4" class="node">
<title>Power</title>
<polygon fill="#222200" stroke="#ffff00" points="650,-50.5 450,-50.5 450,-12.5 656,-12.5 656,-44.5 650,-50.5"/>
<polyline fill="none" stroke="#ffff00" points="650,-50.5 650,-44.5 "/>
<polyline fill="none" stroke="#ffff00" points="656,-44.5 650,-44.5 "/>
<text text-anchor="middle" x="553" y="-35.3" font-family="Courier New" font-size="14.00" fill="#ffff00">IDLE POWER BASELINE</text>
<text text-anchor="middle" x="553" y="-20.3" font-family="Courier New" font-size="14.00" fill="#ffff00">High precision required</text>
</g>
<!-- PAM4&#45;&gt;Power -->
<g id="edge2" class="edge">
<title>PAM4&#45;&gt;Power</title>
<path fill="none" stroke="#00ffff" stroke-dasharray="1,5" d="M314,-56.87C355.94,-52.4 400.46,-47.65 439.52,-43.49"/>
<polygon fill="#00ffff" stroke="#00ffff" points="440.28,-46.93 449.86,-42.39 439.54,-39.97 440.28,-46.93"/>
</g>
</g>
</svg>
