<?xml version="1.0" encoding="UTF-8" standalone="no"?>
<!DOCTYPE svg PUBLIC "-//W3C//DTD SVG 1.1//EN"
 "http://www.w3.org/Graphics/SVG/1.1/DTD/svg11.dtd">
<!-- Generated by graphviz version 2.43.0 (0)
 -->
<!-- Title: Neon_Power_Trench Pages: 1 -->
<svg width="523pt" height="153pt"
 viewBox="0.00 0.00 523.00 153.00" xmlns="http://www.w3.org/2000/svg" xmlns:xlink="http://www.w3.org/1999/xlink">
<g id="graph0" class="graph" transform="scale(1 1) rotate(0) translate(4 149)">
<title>Neon_Power_Trench</title>
<polygon fill="#0a0a0a" stroke="transparent" points="-4,4 -4,-149 519,-149 519,4 -4,4"/>
<g id="clust1" class="cluster">
<title>cluster_before</title>
<polygon fill="#0a0a0a" stroke="#ff0000" points="0,-8 0,-137 161,-137 161,-8 0,-8"/>
<text text-anchor="middle" x="80.5" y="-121.8" font-family="Times,serif" font-size="14.00" fill="#ff0000">DEFAULT (WASTEFUL)</text>
</g>
<g id="clust2" class="cluster">
<title>cluster_after</title>
<polygon fill="#0a0a0a" stroke="#00ff00" points="341,-8 341,-137 515,-137 515,-8 341,-8"/>
<text text-anchor="middle" x="428" y="-121.8" font-family="Times,serif" font-size="14.00" fill="#00ff00">OPTIMIZED (NEON_ECO)</text>
</g>
<!-- Idle_Power -->
<g id="node1" class="node">
<title>Idle_Power</title>
<polygon fill="#440000" stroke="#ff0000" stroke-width="3" points="126,-106 35,-106 35,-70 126,-70 126,-106"/>
<text text-anchor="middle" x="80.5" y="-84.3" font-family="Courier New" font-size="14.00" fill="#ff0000">122 WATTS</text>
</g>
<!-- Arrow -->
<g id="node5" class="node">
<title>Arrow</title>
<polygon fill="#222200" stroke="#ffff00" points="295,-101 189,-101 189,-75 295,-75 295,-69 313,-88 295,-107 295,-101"/>
<text text-anchor="middle" x="251" y="-91.8" font-family="Courier New" font-size="14.00" fill="#ffff00">CLOCK_LOCKING</text>
<text text-anchor="middle" x="251" y="-76.8" font-family="Courier New" font-size="14.00" fill="#ffff00">(&#45;78 WATTS)</text>
</g>
<!-- Idle_Power&#45;&gt;Arrow -->
<g id="edge1" class="edge">
<title>Idle_Power&#45;&gt;Arrow</title>
<path fill="none" stroke="#ffffff" d="M126.21,-88C142.27,-88 160.8,-88 178.56,-88"/>
<polygon fill="#ffffff" stroke="#ffffff" points="178.9,-91.5 188.9,-88 178.9,-84.5 178.9,-91.5"/>
</g>
<!-- VRAM_H -->
<g id="node2" class="node">
<title>VRAM_H</title>
<polygon fill="#110000" stroke="#ff0000" points="122,-52 39,-52 39,-16 122,-16 122,-52"/>
<text text-anchor="middle" x="80.5" y="-30.3" font-family="Courier New" font-size="14.00" fill="#ff0000">9251 MHz</text>
</g>
<!-- Eco_Power -->
<g id="node3" class="node">
<title>Eco_Power</title>
<polygon fill="#004400" stroke="#00ff00" stroke-width="3" points="469,-106 386,-106 386,-70 469,-70 469,-106"/>
<text text-anchor="middle" x="427.5" y="-84.3" font-family="Courier New" font-size="14.00" fill="#00ff00">44 WATTS</text>
</g>
<!-- VRAM_L -->
<g id="node4" class="node">
<title>VRAM_L</title>
<polygon fill="#110000" stroke="#00ff00" points="464.5,-52 390.5,-52 390.5,-16 464.5,-16 464.5,-52"/>
<text text-anchor="middle" x="427.5" y="-30.3" font-family="Courier New" font-size="14.00" fill="#00ff00">405 MHz</text>
</g>
<!-- Arrow&#45;&gt;Eco_Power -->
<g id="edge2" class="edge">
<title>Arrow&#45;&gt;Eco_Power</title>
<path fill="none" stroke="#ffffff" d="M313.03,-88C333.44,-88 355.96,-88 375.53,-88"/>
<polygon fill="#ffffff" stroke="#ffffff" points="375.76,-91.5 385.76,-88 375.76,-84.5 375.76,-91.5"/>
</g>
</g>
</svg>
