<?xml version="1.0" encoding="UTF-8" standalone="no"?>
<!DOCTYPE svg PUBLIC "-//W3C//DTD SVG 1.1//EN"
 "http://www.w3.org/Graphics/SVG/1.1/DTD/svg11.dtd">
<!-- Generated by graphviz version 2.43.0 (0)
 -->
<!-- Title: Neon_Cluster_Vision Pages: 1 -->
<svg width="490pt" height="234pt"
 viewBox="0.00 0.00 490.00 234.17" xmlns="http://www.w3.org/2000/svg" xmlns:xlink="http://www.w3.org/1999/xlink">
<g id="graph0" class="graph" transform="scale(1 1) rotate(0) translate(4 230.17)">
<title>Neon_Cluster_Vision</title>
<polygon fill="#0a0a0a" stroke="transparent" points="-4,4 -4,-230.17 486,-230.17 486,4 -4,4"/>
<!-- G1 -->
<g id="node1" class="node">
<title>G1</title>
<polygon fill="#001122" stroke="#00ffff" points="107,-36 0,-36 0,-32 -4,-32 -4,-28 0,-28 0,-8 -4,-8 -4,-4 0,-4 0,0 107,0 107,-36"/>
<polyline fill="none" stroke="#00ffff" points="0,-32 4,-32 4,-28 0,-28 "/>
<polyline fill="none" stroke="#00ffff" points="0,-8 4,-8 4,-4 0,-4 "/>
<text text-anchor="middle" x="53.5" y="-14.3" font-family="Courier New" font-size="14.00" fill="#00ffff">RTX 3080 #1</text>
</g>
<!-- PCIE -->
<g id="node5" class="node">
<title>PCIE</title>
<path fill="#111111" stroke="#00ffff" d="M335.5,-105.73C335.5,-107.53 292.92,-109 240.5,-109 188.08,-109 145.5,-107.53 145.5,-105.73 145.5,-105.73 145.5,-76.27 145.5,-76.27 145.5,-74.47 188.08,-73 240.5,-73 292.92,-73 335.5,-74.47 335.5,-76.27 335.5,-76.27 335.5,-105.73 335.5,-105.73"/>
<path fill="none" stroke="#00ffff" d="M335.5,-105.73C335.5,-103.92 292.92,-102.45 240.5,-102.45 188.08,-102.45 145.5,-103.92 145.5,-105.73"/>
<text text-anchor="middle" x="240.5" y="-87.3" font-family="Courier New" font-size="14.00" fill="#00ffff">PCIe Gen 4.0 BACKBONE</text>
</g>
<!-- G1&#45;&gt;PCIE -->
<g id="edge1" class="edge">
<title>G1&#45;&gt;PCIE</title>
<path fill="none" stroke="#00ff00" d="M98.29,-36.01C124.58,-45.99 158,-58.68 185.83,-69.24"/>
<polygon fill="#00ff00" stroke="#00ff00" points="184.84,-72.61 195.43,-72.89 187.32,-66.06 184.84,-72.61"/>
</g>
<!-- G2 -->
<g id="node2" class="node">
<title>G2</title>
<polygon fill="#001122" stroke="#00ffff" points="232,-36 125,-36 125,-32 121,-32 121,-28 125,-28 125,-8 121,-8 121,-4 125,-4 125,0 232,0 232,-36"/>
<polyline fill="none" stroke="#00ffff" points="125,-32 129,-32 129,-28 125,-28 "/>
<polyline fill="none" stroke="#00ffff" points="125,-8 129,-8 129,-4 125,-4 "/>
<text text-anchor="middle" x="178.5" y="-14.3" font-family="Courier New" font-size="14.00" fill="#00ffff">RTX 3080 #2</text>
</g>
<!-- G2&#45;&gt;PCIE -->
<g id="edge2" class="edge">
<title>G2&#45;&gt;PCIE</title>
<path fill="none" stroke="#00ff00" d="M193.51,-36.19C201.12,-44.91 210.51,-55.66 218.89,-65.25"/>
<polygon fill="#00ff00" stroke="#00ff00" points="216.42,-67.74 225.63,-72.97 221.69,-63.14 216.42,-67.74"/>
</g>
<!-- G3 -->
<g id="node3" class="node">
<title>G3</title>
<polygon fill="#001122" stroke="#00ffff" points="357,-36 250,-36 250,-32 246,-32 246,-28 250,-28 250,-8 246,-8 246,-4 250,-4 250,0 357,0 357,-36"/>
<polyline fill="none" stroke="#00ffff" points="250,-32 254,-32 254,-28 250,-28 "/>
<polyline fill="none" stroke="#00ffff" points="250,-8 254,-8 254,-4 250,-4 "/>
<text text-anchor="middle" x="303.5" y="-14.3" font-family="Courier New" font-size="14.00" fill="#00ffff">RTX 3080 #3</text>
</g>
<!-- G3&#45;&gt;PCIE -->
<g id="edge3" class="edge">
<title>G3&#45;&gt;PCIE</title>
<path fill="none" stroke="#00ff00" d="M288.25,-36.19C280.51,-44.91 270.97,-55.66 262.46,-65.25"/>
<polygon fill="#00ff00" stroke="#00ff00" points="259.63,-63.17 255.61,-72.97 264.87,-67.81 259.63,-63.17"/>
</g>
<!-- G4 -->
<g id="node4" class="node">
<title>G4</title>
<polygon fill="#001122" stroke="#00ffff" points="482,-36 375,-36 375,-32 371,-32 371,-28 375,-28 375,-8 371,-8 371,-4 375,-4 375,0 482,0 482,-36"/>
<polyline fill="none" stroke="#00ffff" points="375,-32 379,-32 379,-28 375,-28 "/>
<polyline fill="none" stroke="#00ffff" points="375,-8 379,-8 379,-4 375,-4 "/>
<text text-anchor="middle" x="428.5" y="-14.3" font-family="Courier New" font-size="14.00" fill="#00ffff">RTX 3080 #4</text>
</g>
<!-- G4&#45;&gt;PCIE -->
<g id="edge4" class="edge">
<title>G4&#45;&gt;PCIE</title>
<path fill="none" stroke="#00ff00" d="M383.47,-36.01C357.04,-45.99 323.44,-58.68 295.46,-69.24"/>
<polygon fill="#00ff00" stroke="#00ff00" points="293.93,-66.08 285.81,-72.89 296.41,-72.63 293.93,-66.08"/>
</g>
<!-- AI_Vision -->
<g id="node6" class="node">
<title>AI_Vision</title>
<polygon fill="#220022" stroke="#ff00ff" points="347.8,-181.01 347.8,-205.16 284.94,-222.24 196.06,-222.24 133.2,-205.16 133.2,-181.01 196.06,-163.93 284.94,-163.93 347.8,-181.01"/>
<polygon fill="none" stroke="#ff00ff" points="351.8,-177.94 351.8,-208.23 285.48,-226.25 195.52,-226.25 129.2,-208.23 129.2,-177.94 195.52,-159.92 285.48,-159.92 351.8,-177.94"/>
<text text-anchor="middle" x="240.5" y="-196.88" font-family="Courier New" font-size="14.00" fill="#ff00ff">AI_VISION_STACK</text>
<text text-anchor="middle" x="240.5" y="-181.88" font-family="Courier New" font-size="14.00" fill="#ff00ff">(YOLOv5 / NeRF)</text>
</g>
<!-- PCIE&#45;&gt;AI_Vision -->
<g id="edge5" class="edge">
<title>PCIE&#45;&gt;AI_Vision</title>
<path fill="none" stroke="#ff00ff" d="M240.5,-109.43C240.5,-120.61 240.5,-135.63 240.5,-149.8"/>
<polygon fill="#ff00ff" stroke="#ff00ff" points="237,-149.9 240.5,-159.9 244,-149.9 237,-149.9"/>
<text text-anchor="middle" x="261.5" y="-130.8" font-family="Courier New" font-size="14.00" fill="#ff00ff">BURST</text>
</g>
</g>
</svg>
